G75*
%MOIN*%
%OFA0B0*%
%FSLAX25Y25*%
%IPPOS*%
%LPD*%
%AMOC8*
5,1,8,0,0,1.08239X$1,22.5*
%
%ADD10C,0.00000*%
%ADD11C,0.00600*%
%ADD12C,0.07400*%
%ADD13R,0.07400X0.07400*%
%ADD14OC8,0.07400*%
%ADD15C,0.07600*%
%ADD16OC8,0.07600*%
%ADD17OC8,0.06300*%
%ADD18OC8,0.05600*%
%ADD19C,0.06400*%
%ADD20C,0.05600*%
%ADD21C,0.07100*%
%ADD22C,0.02000*%
%ADD23OC8,0.06756*%
%ADD24C,0.01600*%
%ADD25C,0.04000*%
%ADD26C,0.02400*%
D10*
X0131965Y0111600D02*
X0131965Y0505596D01*
X0742201Y0505616D01*
X0742201Y0111600D01*
X0131965Y0111600D01*
X0171138Y0125970D02*
X0171140Y0126123D01*
X0171146Y0126277D01*
X0171156Y0126430D01*
X0171170Y0126582D01*
X0171188Y0126735D01*
X0171210Y0126886D01*
X0171235Y0127037D01*
X0171265Y0127188D01*
X0171299Y0127338D01*
X0171336Y0127486D01*
X0171377Y0127634D01*
X0171422Y0127780D01*
X0171471Y0127926D01*
X0171524Y0128070D01*
X0171580Y0128212D01*
X0171640Y0128353D01*
X0171704Y0128493D01*
X0171771Y0128631D01*
X0171842Y0128767D01*
X0171917Y0128901D01*
X0171994Y0129033D01*
X0172076Y0129163D01*
X0172160Y0129291D01*
X0172248Y0129417D01*
X0172339Y0129540D01*
X0172433Y0129661D01*
X0172531Y0129779D01*
X0172631Y0129895D01*
X0172735Y0130008D01*
X0172841Y0130119D01*
X0172950Y0130227D01*
X0173062Y0130332D01*
X0173176Y0130433D01*
X0173294Y0130532D01*
X0173413Y0130628D01*
X0173535Y0130721D01*
X0173660Y0130810D01*
X0173787Y0130897D01*
X0173916Y0130979D01*
X0174047Y0131059D01*
X0174180Y0131135D01*
X0174315Y0131208D01*
X0174452Y0131277D01*
X0174591Y0131342D01*
X0174731Y0131404D01*
X0174873Y0131462D01*
X0175016Y0131517D01*
X0175161Y0131568D01*
X0175307Y0131615D01*
X0175454Y0131658D01*
X0175602Y0131697D01*
X0175751Y0131733D01*
X0175901Y0131764D01*
X0176052Y0131792D01*
X0176203Y0131816D01*
X0176356Y0131836D01*
X0176508Y0131852D01*
X0176661Y0131864D01*
X0176814Y0131872D01*
X0176967Y0131876D01*
X0177121Y0131876D01*
X0177274Y0131872D01*
X0177427Y0131864D01*
X0177580Y0131852D01*
X0177732Y0131836D01*
X0177885Y0131816D01*
X0178036Y0131792D01*
X0178187Y0131764D01*
X0178337Y0131733D01*
X0178486Y0131697D01*
X0178634Y0131658D01*
X0178781Y0131615D01*
X0178927Y0131568D01*
X0179072Y0131517D01*
X0179215Y0131462D01*
X0179357Y0131404D01*
X0179497Y0131342D01*
X0179636Y0131277D01*
X0179773Y0131208D01*
X0179908Y0131135D01*
X0180041Y0131059D01*
X0180172Y0130979D01*
X0180301Y0130897D01*
X0180428Y0130810D01*
X0180553Y0130721D01*
X0180675Y0130628D01*
X0180794Y0130532D01*
X0180912Y0130433D01*
X0181026Y0130332D01*
X0181138Y0130227D01*
X0181247Y0130119D01*
X0181353Y0130008D01*
X0181457Y0129895D01*
X0181557Y0129779D01*
X0181655Y0129661D01*
X0181749Y0129540D01*
X0181840Y0129417D01*
X0181928Y0129291D01*
X0182012Y0129163D01*
X0182094Y0129033D01*
X0182171Y0128901D01*
X0182246Y0128767D01*
X0182317Y0128631D01*
X0182384Y0128493D01*
X0182448Y0128353D01*
X0182508Y0128212D01*
X0182564Y0128070D01*
X0182617Y0127926D01*
X0182666Y0127780D01*
X0182711Y0127634D01*
X0182752Y0127486D01*
X0182789Y0127338D01*
X0182823Y0127188D01*
X0182853Y0127037D01*
X0182878Y0126886D01*
X0182900Y0126735D01*
X0182918Y0126582D01*
X0182932Y0126430D01*
X0182942Y0126277D01*
X0182948Y0126123D01*
X0182950Y0125970D01*
X0182948Y0125817D01*
X0182942Y0125663D01*
X0182932Y0125510D01*
X0182918Y0125358D01*
X0182900Y0125205D01*
X0182878Y0125054D01*
X0182853Y0124903D01*
X0182823Y0124752D01*
X0182789Y0124602D01*
X0182752Y0124454D01*
X0182711Y0124306D01*
X0182666Y0124160D01*
X0182617Y0124014D01*
X0182564Y0123870D01*
X0182508Y0123728D01*
X0182448Y0123587D01*
X0182384Y0123447D01*
X0182317Y0123309D01*
X0182246Y0123173D01*
X0182171Y0123039D01*
X0182094Y0122907D01*
X0182012Y0122777D01*
X0181928Y0122649D01*
X0181840Y0122523D01*
X0181749Y0122400D01*
X0181655Y0122279D01*
X0181557Y0122161D01*
X0181457Y0122045D01*
X0181353Y0121932D01*
X0181247Y0121821D01*
X0181138Y0121713D01*
X0181026Y0121608D01*
X0180912Y0121507D01*
X0180794Y0121408D01*
X0180675Y0121312D01*
X0180553Y0121219D01*
X0180428Y0121130D01*
X0180301Y0121043D01*
X0180172Y0120961D01*
X0180041Y0120881D01*
X0179908Y0120805D01*
X0179773Y0120732D01*
X0179636Y0120663D01*
X0179497Y0120598D01*
X0179357Y0120536D01*
X0179215Y0120478D01*
X0179072Y0120423D01*
X0178927Y0120372D01*
X0178781Y0120325D01*
X0178634Y0120282D01*
X0178486Y0120243D01*
X0178337Y0120207D01*
X0178187Y0120176D01*
X0178036Y0120148D01*
X0177885Y0120124D01*
X0177732Y0120104D01*
X0177580Y0120088D01*
X0177427Y0120076D01*
X0177274Y0120068D01*
X0177121Y0120064D01*
X0176967Y0120064D01*
X0176814Y0120068D01*
X0176661Y0120076D01*
X0176508Y0120088D01*
X0176356Y0120104D01*
X0176203Y0120124D01*
X0176052Y0120148D01*
X0175901Y0120176D01*
X0175751Y0120207D01*
X0175602Y0120243D01*
X0175454Y0120282D01*
X0175307Y0120325D01*
X0175161Y0120372D01*
X0175016Y0120423D01*
X0174873Y0120478D01*
X0174731Y0120536D01*
X0174591Y0120598D01*
X0174452Y0120663D01*
X0174315Y0120732D01*
X0174180Y0120805D01*
X0174047Y0120881D01*
X0173916Y0120961D01*
X0173787Y0121043D01*
X0173660Y0121130D01*
X0173535Y0121219D01*
X0173413Y0121312D01*
X0173294Y0121408D01*
X0173176Y0121507D01*
X0173062Y0121608D01*
X0172950Y0121713D01*
X0172841Y0121821D01*
X0172735Y0121932D01*
X0172631Y0122045D01*
X0172531Y0122161D01*
X0172433Y0122279D01*
X0172339Y0122400D01*
X0172248Y0122523D01*
X0172160Y0122649D01*
X0172076Y0122777D01*
X0171994Y0122907D01*
X0171917Y0123039D01*
X0171842Y0123173D01*
X0171771Y0123309D01*
X0171704Y0123447D01*
X0171640Y0123587D01*
X0171580Y0123728D01*
X0171524Y0123870D01*
X0171471Y0124014D01*
X0171422Y0124160D01*
X0171377Y0124306D01*
X0171336Y0124454D01*
X0171299Y0124602D01*
X0171265Y0124752D01*
X0171235Y0124903D01*
X0171210Y0125054D01*
X0171188Y0125205D01*
X0171170Y0125358D01*
X0171156Y0125510D01*
X0171146Y0125663D01*
X0171140Y0125817D01*
X0171138Y0125970D01*
X0171138Y0410616D02*
X0171140Y0410769D01*
X0171146Y0410923D01*
X0171156Y0411076D01*
X0171170Y0411228D01*
X0171188Y0411381D01*
X0171210Y0411532D01*
X0171235Y0411683D01*
X0171265Y0411834D01*
X0171299Y0411984D01*
X0171336Y0412132D01*
X0171377Y0412280D01*
X0171422Y0412426D01*
X0171471Y0412572D01*
X0171524Y0412716D01*
X0171580Y0412858D01*
X0171640Y0412999D01*
X0171704Y0413139D01*
X0171771Y0413277D01*
X0171842Y0413413D01*
X0171917Y0413547D01*
X0171994Y0413679D01*
X0172076Y0413809D01*
X0172160Y0413937D01*
X0172248Y0414063D01*
X0172339Y0414186D01*
X0172433Y0414307D01*
X0172531Y0414425D01*
X0172631Y0414541D01*
X0172735Y0414654D01*
X0172841Y0414765D01*
X0172950Y0414873D01*
X0173062Y0414978D01*
X0173176Y0415079D01*
X0173294Y0415178D01*
X0173413Y0415274D01*
X0173535Y0415367D01*
X0173660Y0415456D01*
X0173787Y0415543D01*
X0173916Y0415625D01*
X0174047Y0415705D01*
X0174180Y0415781D01*
X0174315Y0415854D01*
X0174452Y0415923D01*
X0174591Y0415988D01*
X0174731Y0416050D01*
X0174873Y0416108D01*
X0175016Y0416163D01*
X0175161Y0416214D01*
X0175307Y0416261D01*
X0175454Y0416304D01*
X0175602Y0416343D01*
X0175751Y0416379D01*
X0175901Y0416410D01*
X0176052Y0416438D01*
X0176203Y0416462D01*
X0176356Y0416482D01*
X0176508Y0416498D01*
X0176661Y0416510D01*
X0176814Y0416518D01*
X0176967Y0416522D01*
X0177121Y0416522D01*
X0177274Y0416518D01*
X0177427Y0416510D01*
X0177580Y0416498D01*
X0177732Y0416482D01*
X0177885Y0416462D01*
X0178036Y0416438D01*
X0178187Y0416410D01*
X0178337Y0416379D01*
X0178486Y0416343D01*
X0178634Y0416304D01*
X0178781Y0416261D01*
X0178927Y0416214D01*
X0179072Y0416163D01*
X0179215Y0416108D01*
X0179357Y0416050D01*
X0179497Y0415988D01*
X0179636Y0415923D01*
X0179773Y0415854D01*
X0179908Y0415781D01*
X0180041Y0415705D01*
X0180172Y0415625D01*
X0180301Y0415543D01*
X0180428Y0415456D01*
X0180553Y0415367D01*
X0180675Y0415274D01*
X0180794Y0415178D01*
X0180912Y0415079D01*
X0181026Y0414978D01*
X0181138Y0414873D01*
X0181247Y0414765D01*
X0181353Y0414654D01*
X0181457Y0414541D01*
X0181557Y0414425D01*
X0181655Y0414307D01*
X0181749Y0414186D01*
X0181840Y0414063D01*
X0181928Y0413937D01*
X0182012Y0413809D01*
X0182094Y0413679D01*
X0182171Y0413547D01*
X0182246Y0413413D01*
X0182317Y0413277D01*
X0182384Y0413139D01*
X0182448Y0412999D01*
X0182508Y0412858D01*
X0182564Y0412716D01*
X0182617Y0412572D01*
X0182666Y0412426D01*
X0182711Y0412280D01*
X0182752Y0412132D01*
X0182789Y0411984D01*
X0182823Y0411834D01*
X0182853Y0411683D01*
X0182878Y0411532D01*
X0182900Y0411381D01*
X0182918Y0411228D01*
X0182932Y0411076D01*
X0182942Y0410923D01*
X0182948Y0410769D01*
X0182950Y0410616D01*
X0182948Y0410463D01*
X0182942Y0410309D01*
X0182932Y0410156D01*
X0182918Y0410004D01*
X0182900Y0409851D01*
X0182878Y0409700D01*
X0182853Y0409549D01*
X0182823Y0409398D01*
X0182789Y0409248D01*
X0182752Y0409100D01*
X0182711Y0408952D01*
X0182666Y0408806D01*
X0182617Y0408660D01*
X0182564Y0408516D01*
X0182508Y0408374D01*
X0182448Y0408233D01*
X0182384Y0408093D01*
X0182317Y0407955D01*
X0182246Y0407819D01*
X0182171Y0407685D01*
X0182094Y0407553D01*
X0182012Y0407423D01*
X0181928Y0407295D01*
X0181840Y0407169D01*
X0181749Y0407046D01*
X0181655Y0406925D01*
X0181557Y0406807D01*
X0181457Y0406691D01*
X0181353Y0406578D01*
X0181247Y0406467D01*
X0181138Y0406359D01*
X0181026Y0406254D01*
X0180912Y0406153D01*
X0180794Y0406054D01*
X0180675Y0405958D01*
X0180553Y0405865D01*
X0180428Y0405776D01*
X0180301Y0405689D01*
X0180172Y0405607D01*
X0180041Y0405527D01*
X0179908Y0405451D01*
X0179773Y0405378D01*
X0179636Y0405309D01*
X0179497Y0405244D01*
X0179357Y0405182D01*
X0179215Y0405124D01*
X0179072Y0405069D01*
X0178927Y0405018D01*
X0178781Y0404971D01*
X0178634Y0404928D01*
X0178486Y0404889D01*
X0178337Y0404853D01*
X0178187Y0404822D01*
X0178036Y0404794D01*
X0177885Y0404770D01*
X0177732Y0404750D01*
X0177580Y0404734D01*
X0177427Y0404722D01*
X0177274Y0404714D01*
X0177121Y0404710D01*
X0176967Y0404710D01*
X0176814Y0404714D01*
X0176661Y0404722D01*
X0176508Y0404734D01*
X0176356Y0404750D01*
X0176203Y0404770D01*
X0176052Y0404794D01*
X0175901Y0404822D01*
X0175751Y0404853D01*
X0175602Y0404889D01*
X0175454Y0404928D01*
X0175307Y0404971D01*
X0175161Y0405018D01*
X0175016Y0405069D01*
X0174873Y0405124D01*
X0174731Y0405182D01*
X0174591Y0405244D01*
X0174452Y0405309D01*
X0174315Y0405378D01*
X0174180Y0405451D01*
X0174047Y0405527D01*
X0173916Y0405607D01*
X0173787Y0405689D01*
X0173660Y0405776D01*
X0173535Y0405865D01*
X0173413Y0405958D01*
X0173294Y0406054D01*
X0173176Y0406153D01*
X0173062Y0406254D01*
X0172950Y0406359D01*
X0172841Y0406467D01*
X0172735Y0406578D01*
X0172631Y0406691D01*
X0172531Y0406807D01*
X0172433Y0406925D01*
X0172339Y0407046D01*
X0172248Y0407169D01*
X0172160Y0407295D01*
X0172076Y0407423D01*
X0171994Y0407553D01*
X0171917Y0407685D01*
X0171842Y0407819D01*
X0171771Y0407955D01*
X0171704Y0408093D01*
X0171640Y0408233D01*
X0171580Y0408374D01*
X0171524Y0408516D01*
X0171471Y0408660D01*
X0171422Y0408806D01*
X0171377Y0408952D01*
X0171336Y0409100D01*
X0171299Y0409248D01*
X0171265Y0409398D01*
X0171235Y0409549D01*
X0171210Y0409700D01*
X0171188Y0409851D01*
X0171170Y0410004D01*
X0171156Y0410156D01*
X0171146Y0410309D01*
X0171140Y0410463D01*
X0171138Y0410616D01*
X0255666Y0494395D02*
X0255668Y0494553D01*
X0255674Y0494711D01*
X0255684Y0494869D01*
X0255698Y0495027D01*
X0255716Y0495184D01*
X0255737Y0495341D01*
X0255763Y0495497D01*
X0255793Y0495653D01*
X0255826Y0495808D01*
X0255864Y0495961D01*
X0255905Y0496114D01*
X0255950Y0496266D01*
X0255999Y0496417D01*
X0256052Y0496566D01*
X0256108Y0496714D01*
X0256168Y0496860D01*
X0256232Y0497005D01*
X0256300Y0497148D01*
X0256371Y0497290D01*
X0256445Y0497430D01*
X0256523Y0497567D01*
X0256605Y0497703D01*
X0256689Y0497837D01*
X0256778Y0497968D01*
X0256869Y0498097D01*
X0256964Y0498224D01*
X0257061Y0498349D01*
X0257162Y0498471D01*
X0257266Y0498590D01*
X0257373Y0498707D01*
X0257483Y0498821D01*
X0257596Y0498932D01*
X0257711Y0499041D01*
X0257829Y0499146D01*
X0257950Y0499248D01*
X0258073Y0499348D01*
X0258199Y0499444D01*
X0258327Y0499537D01*
X0258457Y0499627D01*
X0258590Y0499713D01*
X0258725Y0499797D01*
X0258861Y0499876D01*
X0259000Y0499953D01*
X0259141Y0500025D01*
X0259283Y0500095D01*
X0259427Y0500160D01*
X0259573Y0500222D01*
X0259720Y0500280D01*
X0259869Y0500335D01*
X0260019Y0500386D01*
X0260170Y0500433D01*
X0260322Y0500476D01*
X0260475Y0500515D01*
X0260630Y0500551D01*
X0260785Y0500582D01*
X0260941Y0500610D01*
X0261097Y0500634D01*
X0261254Y0500654D01*
X0261412Y0500670D01*
X0261569Y0500682D01*
X0261728Y0500690D01*
X0261886Y0500694D01*
X0262044Y0500694D01*
X0262202Y0500690D01*
X0262361Y0500682D01*
X0262518Y0500670D01*
X0262676Y0500654D01*
X0262833Y0500634D01*
X0262989Y0500610D01*
X0263145Y0500582D01*
X0263300Y0500551D01*
X0263455Y0500515D01*
X0263608Y0500476D01*
X0263760Y0500433D01*
X0263911Y0500386D01*
X0264061Y0500335D01*
X0264210Y0500280D01*
X0264357Y0500222D01*
X0264503Y0500160D01*
X0264647Y0500095D01*
X0264789Y0500025D01*
X0264930Y0499953D01*
X0265069Y0499876D01*
X0265205Y0499797D01*
X0265340Y0499713D01*
X0265473Y0499627D01*
X0265603Y0499537D01*
X0265731Y0499444D01*
X0265857Y0499348D01*
X0265980Y0499248D01*
X0266101Y0499146D01*
X0266219Y0499041D01*
X0266334Y0498932D01*
X0266447Y0498821D01*
X0266557Y0498707D01*
X0266664Y0498590D01*
X0266768Y0498471D01*
X0266869Y0498349D01*
X0266966Y0498224D01*
X0267061Y0498097D01*
X0267152Y0497968D01*
X0267241Y0497837D01*
X0267325Y0497703D01*
X0267407Y0497567D01*
X0267485Y0497430D01*
X0267559Y0497290D01*
X0267630Y0497148D01*
X0267698Y0497005D01*
X0267762Y0496860D01*
X0267822Y0496714D01*
X0267878Y0496566D01*
X0267931Y0496417D01*
X0267980Y0496266D01*
X0268025Y0496114D01*
X0268066Y0495961D01*
X0268104Y0495808D01*
X0268137Y0495653D01*
X0268167Y0495497D01*
X0268193Y0495341D01*
X0268214Y0495184D01*
X0268232Y0495027D01*
X0268246Y0494869D01*
X0268256Y0494711D01*
X0268262Y0494553D01*
X0268264Y0494395D01*
X0268262Y0494237D01*
X0268256Y0494079D01*
X0268246Y0493921D01*
X0268232Y0493763D01*
X0268214Y0493606D01*
X0268193Y0493449D01*
X0268167Y0493293D01*
X0268137Y0493137D01*
X0268104Y0492982D01*
X0268066Y0492829D01*
X0268025Y0492676D01*
X0267980Y0492524D01*
X0267931Y0492373D01*
X0267878Y0492224D01*
X0267822Y0492076D01*
X0267762Y0491930D01*
X0267698Y0491785D01*
X0267630Y0491642D01*
X0267559Y0491500D01*
X0267485Y0491360D01*
X0267407Y0491223D01*
X0267325Y0491087D01*
X0267241Y0490953D01*
X0267152Y0490822D01*
X0267061Y0490693D01*
X0266966Y0490566D01*
X0266869Y0490441D01*
X0266768Y0490319D01*
X0266664Y0490200D01*
X0266557Y0490083D01*
X0266447Y0489969D01*
X0266334Y0489858D01*
X0266219Y0489749D01*
X0266101Y0489644D01*
X0265980Y0489542D01*
X0265857Y0489442D01*
X0265731Y0489346D01*
X0265603Y0489253D01*
X0265473Y0489163D01*
X0265340Y0489077D01*
X0265205Y0488993D01*
X0265069Y0488914D01*
X0264930Y0488837D01*
X0264789Y0488765D01*
X0264647Y0488695D01*
X0264503Y0488630D01*
X0264357Y0488568D01*
X0264210Y0488510D01*
X0264061Y0488455D01*
X0263911Y0488404D01*
X0263760Y0488357D01*
X0263608Y0488314D01*
X0263455Y0488275D01*
X0263300Y0488239D01*
X0263145Y0488208D01*
X0262989Y0488180D01*
X0262833Y0488156D01*
X0262676Y0488136D01*
X0262518Y0488120D01*
X0262361Y0488108D01*
X0262202Y0488100D01*
X0262044Y0488096D01*
X0261886Y0488096D01*
X0261728Y0488100D01*
X0261569Y0488108D01*
X0261412Y0488120D01*
X0261254Y0488136D01*
X0261097Y0488156D01*
X0260941Y0488180D01*
X0260785Y0488208D01*
X0260630Y0488239D01*
X0260475Y0488275D01*
X0260322Y0488314D01*
X0260170Y0488357D01*
X0260019Y0488404D01*
X0259869Y0488455D01*
X0259720Y0488510D01*
X0259573Y0488568D01*
X0259427Y0488630D01*
X0259283Y0488695D01*
X0259141Y0488765D01*
X0259000Y0488837D01*
X0258861Y0488914D01*
X0258725Y0488993D01*
X0258590Y0489077D01*
X0258457Y0489163D01*
X0258327Y0489253D01*
X0258199Y0489346D01*
X0258073Y0489442D01*
X0257950Y0489542D01*
X0257829Y0489644D01*
X0257711Y0489749D01*
X0257596Y0489858D01*
X0257483Y0489969D01*
X0257373Y0490083D01*
X0257266Y0490200D01*
X0257162Y0490319D01*
X0257061Y0490441D01*
X0256964Y0490566D01*
X0256869Y0490693D01*
X0256778Y0490822D01*
X0256689Y0490953D01*
X0256605Y0491087D01*
X0256523Y0491223D01*
X0256445Y0491360D01*
X0256371Y0491500D01*
X0256300Y0491642D01*
X0256232Y0491785D01*
X0256168Y0491930D01*
X0256108Y0492076D01*
X0256052Y0492224D01*
X0255999Y0492373D01*
X0255950Y0492524D01*
X0255905Y0492676D01*
X0255864Y0492829D01*
X0255826Y0492982D01*
X0255793Y0493137D01*
X0255763Y0493293D01*
X0255737Y0493449D01*
X0255716Y0493606D01*
X0255698Y0493763D01*
X0255684Y0493921D01*
X0255674Y0494079D01*
X0255668Y0494237D01*
X0255666Y0494395D01*
X0300666Y0494395D02*
X0300668Y0494553D01*
X0300674Y0494711D01*
X0300684Y0494869D01*
X0300698Y0495027D01*
X0300716Y0495184D01*
X0300737Y0495341D01*
X0300763Y0495497D01*
X0300793Y0495653D01*
X0300826Y0495808D01*
X0300864Y0495961D01*
X0300905Y0496114D01*
X0300950Y0496266D01*
X0300999Y0496417D01*
X0301052Y0496566D01*
X0301108Y0496714D01*
X0301168Y0496860D01*
X0301232Y0497005D01*
X0301300Y0497148D01*
X0301371Y0497290D01*
X0301445Y0497430D01*
X0301523Y0497567D01*
X0301605Y0497703D01*
X0301689Y0497837D01*
X0301778Y0497968D01*
X0301869Y0498097D01*
X0301964Y0498224D01*
X0302061Y0498349D01*
X0302162Y0498471D01*
X0302266Y0498590D01*
X0302373Y0498707D01*
X0302483Y0498821D01*
X0302596Y0498932D01*
X0302711Y0499041D01*
X0302829Y0499146D01*
X0302950Y0499248D01*
X0303073Y0499348D01*
X0303199Y0499444D01*
X0303327Y0499537D01*
X0303457Y0499627D01*
X0303590Y0499713D01*
X0303725Y0499797D01*
X0303861Y0499876D01*
X0304000Y0499953D01*
X0304141Y0500025D01*
X0304283Y0500095D01*
X0304427Y0500160D01*
X0304573Y0500222D01*
X0304720Y0500280D01*
X0304869Y0500335D01*
X0305019Y0500386D01*
X0305170Y0500433D01*
X0305322Y0500476D01*
X0305475Y0500515D01*
X0305630Y0500551D01*
X0305785Y0500582D01*
X0305941Y0500610D01*
X0306097Y0500634D01*
X0306254Y0500654D01*
X0306412Y0500670D01*
X0306569Y0500682D01*
X0306728Y0500690D01*
X0306886Y0500694D01*
X0307044Y0500694D01*
X0307202Y0500690D01*
X0307361Y0500682D01*
X0307518Y0500670D01*
X0307676Y0500654D01*
X0307833Y0500634D01*
X0307989Y0500610D01*
X0308145Y0500582D01*
X0308300Y0500551D01*
X0308455Y0500515D01*
X0308608Y0500476D01*
X0308760Y0500433D01*
X0308911Y0500386D01*
X0309061Y0500335D01*
X0309210Y0500280D01*
X0309357Y0500222D01*
X0309503Y0500160D01*
X0309647Y0500095D01*
X0309789Y0500025D01*
X0309930Y0499953D01*
X0310069Y0499876D01*
X0310205Y0499797D01*
X0310340Y0499713D01*
X0310473Y0499627D01*
X0310603Y0499537D01*
X0310731Y0499444D01*
X0310857Y0499348D01*
X0310980Y0499248D01*
X0311101Y0499146D01*
X0311219Y0499041D01*
X0311334Y0498932D01*
X0311447Y0498821D01*
X0311557Y0498707D01*
X0311664Y0498590D01*
X0311768Y0498471D01*
X0311869Y0498349D01*
X0311966Y0498224D01*
X0312061Y0498097D01*
X0312152Y0497968D01*
X0312241Y0497837D01*
X0312325Y0497703D01*
X0312407Y0497567D01*
X0312485Y0497430D01*
X0312559Y0497290D01*
X0312630Y0497148D01*
X0312698Y0497005D01*
X0312762Y0496860D01*
X0312822Y0496714D01*
X0312878Y0496566D01*
X0312931Y0496417D01*
X0312980Y0496266D01*
X0313025Y0496114D01*
X0313066Y0495961D01*
X0313104Y0495808D01*
X0313137Y0495653D01*
X0313167Y0495497D01*
X0313193Y0495341D01*
X0313214Y0495184D01*
X0313232Y0495027D01*
X0313246Y0494869D01*
X0313256Y0494711D01*
X0313262Y0494553D01*
X0313264Y0494395D01*
X0313262Y0494237D01*
X0313256Y0494079D01*
X0313246Y0493921D01*
X0313232Y0493763D01*
X0313214Y0493606D01*
X0313193Y0493449D01*
X0313167Y0493293D01*
X0313137Y0493137D01*
X0313104Y0492982D01*
X0313066Y0492829D01*
X0313025Y0492676D01*
X0312980Y0492524D01*
X0312931Y0492373D01*
X0312878Y0492224D01*
X0312822Y0492076D01*
X0312762Y0491930D01*
X0312698Y0491785D01*
X0312630Y0491642D01*
X0312559Y0491500D01*
X0312485Y0491360D01*
X0312407Y0491223D01*
X0312325Y0491087D01*
X0312241Y0490953D01*
X0312152Y0490822D01*
X0312061Y0490693D01*
X0311966Y0490566D01*
X0311869Y0490441D01*
X0311768Y0490319D01*
X0311664Y0490200D01*
X0311557Y0490083D01*
X0311447Y0489969D01*
X0311334Y0489858D01*
X0311219Y0489749D01*
X0311101Y0489644D01*
X0310980Y0489542D01*
X0310857Y0489442D01*
X0310731Y0489346D01*
X0310603Y0489253D01*
X0310473Y0489163D01*
X0310340Y0489077D01*
X0310205Y0488993D01*
X0310069Y0488914D01*
X0309930Y0488837D01*
X0309789Y0488765D01*
X0309647Y0488695D01*
X0309503Y0488630D01*
X0309357Y0488568D01*
X0309210Y0488510D01*
X0309061Y0488455D01*
X0308911Y0488404D01*
X0308760Y0488357D01*
X0308608Y0488314D01*
X0308455Y0488275D01*
X0308300Y0488239D01*
X0308145Y0488208D01*
X0307989Y0488180D01*
X0307833Y0488156D01*
X0307676Y0488136D01*
X0307518Y0488120D01*
X0307361Y0488108D01*
X0307202Y0488100D01*
X0307044Y0488096D01*
X0306886Y0488096D01*
X0306728Y0488100D01*
X0306569Y0488108D01*
X0306412Y0488120D01*
X0306254Y0488136D01*
X0306097Y0488156D01*
X0305941Y0488180D01*
X0305785Y0488208D01*
X0305630Y0488239D01*
X0305475Y0488275D01*
X0305322Y0488314D01*
X0305170Y0488357D01*
X0305019Y0488404D01*
X0304869Y0488455D01*
X0304720Y0488510D01*
X0304573Y0488568D01*
X0304427Y0488630D01*
X0304283Y0488695D01*
X0304141Y0488765D01*
X0304000Y0488837D01*
X0303861Y0488914D01*
X0303725Y0488993D01*
X0303590Y0489077D01*
X0303457Y0489163D01*
X0303327Y0489253D01*
X0303199Y0489346D01*
X0303073Y0489442D01*
X0302950Y0489542D01*
X0302829Y0489644D01*
X0302711Y0489749D01*
X0302596Y0489858D01*
X0302483Y0489969D01*
X0302373Y0490083D01*
X0302266Y0490200D01*
X0302162Y0490319D01*
X0302061Y0490441D01*
X0301964Y0490566D01*
X0301869Y0490693D01*
X0301778Y0490822D01*
X0301689Y0490953D01*
X0301605Y0491087D01*
X0301523Y0491223D01*
X0301445Y0491360D01*
X0301371Y0491500D01*
X0301300Y0491642D01*
X0301232Y0491785D01*
X0301168Y0491930D01*
X0301108Y0492076D01*
X0301052Y0492224D01*
X0300999Y0492373D01*
X0300950Y0492524D01*
X0300905Y0492676D01*
X0300864Y0492829D01*
X0300826Y0492982D01*
X0300793Y0493137D01*
X0300763Y0493293D01*
X0300737Y0493449D01*
X0300716Y0493606D01*
X0300698Y0493763D01*
X0300684Y0493921D01*
X0300674Y0494079D01*
X0300668Y0494237D01*
X0300666Y0494395D01*
X0355666Y0494395D02*
X0355668Y0494553D01*
X0355674Y0494711D01*
X0355684Y0494869D01*
X0355698Y0495027D01*
X0355716Y0495184D01*
X0355737Y0495341D01*
X0355763Y0495497D01*
X0355793Y0495653D01*
X0355826Y0495808D01*
X0355864Y0495961D01*
X0355905Y0496114D01*
X0355950Y0496266D01*
X0355999Y0496417D01*
X0356052Y0496566D01*
X0356108Y0496714D01*
X0356168Y0496860D01*
X0356232Y0497005D01*
X0356300Y0497148D01*
X0356371Y0497290D01*
X0356445Y0497430D01*
X0356523Y0497567D01*
X0356605Y0497703D01*
X0356689Y0497837D01*
X0356778Y0497968D01*
X0356869Y0498097D01*
X0356964Y0498224D01*
X0357061Y0498349D01*
X0357162Y0498471D01*
X0357266Y0498590D01*
X0357373Y0498707D01*
X0357483Y0498821D01*
X0357596Y0498932D01*
X0357711Y0499041D01*
X0357829Y0499146D01*
X0357950Y0499248D01*
X0358073Y0499348D01*
X0358199Y0499444D01*
X0358327Y0499537D01*
X0358457Y0499627D01*
X0358590Y0499713D01*
X0358725Y0499797D01*
X0358861Y0499876D01*
X0359000Y0499953D01*
X0359141Y0500025D01*
X0359283Y0500095D01*
X0359427Y0500160D01*
X0359573Y0500222D01*
X0359720Y0500280D01*
X0359869Y0500335D01*
X0360019Y0500386D01*
X0360170Y0500433D01*
X0360322Y0500476D01*
X0360475Y0500515D01*
X0360630Y0500551D01*
X0360785Y0500582D01*
X0360941Y0500610D01*
X0361097Y0500634D01*
X0361254Y0500654D01*
X0361412Y0500670D01*
X0361569Y0500682D01*
X0361728Y0500690D01*
X0361886Y0500694D01*
X0362044Y0500694D01*
X0362202Y0500690D01*
X0362361Y0500682D01*
X0362518Y0500670D01*
X0362676Y0500654D01*
X0362833Y0500634D01*
X0362989Y0500610D01*
X0363145Y0500582D01*
X0363300Y0500551D01*
X0363455Y0500515D01*
X0363608Y0500476D01*
X0363760Y0500433D01*
X0363911Y0500386D01*
X0364061Y0500335D01*
X0364210Y0500280D01*
X0364357Y0500222D01*
X0364503Y0500160D01*
X0364647Y0500095D01*
X0364789Y0500025D01*
X0364930Y0499953D01*
X0365069Y0499876D01*
X0365205Y0499797D01*
X0365340Y0499713D01*
X0365473Y0499627D01*
X0365603Y0499537D01*
X0365731Y0499444D01*
X0365857Y0499348D01*
X0365980Y0499248D01*
X0366101Y0499146D01*
X0366219Y0499041D01*
X0366334Y0498932D01*
X0366447Y0498821D01*
X0366557Y0498707D01*
X0366664Y0498590D01*
X0366768Y0498471D01*
X0366869Y0498349D01*
X0366966Y0498224D01*
X0367061Y0498097D01*
X0367152Y0497968D01*
X0367241Y0497837D01*
X0367325Y0497703D01*
X0367407Y0497567D01*
X0367485Y0497430D01*
X0367559Y0497290D01*
X0367630Y0497148D01*
X0367698Y0497005D01*
X0367762Y0496860D01*
X0367822Y0496714D01*
X0367878Y0496566D01*
X0367931Y0496417D01*
X0367980Y0496266D01*
X0368025Y0496114D01*
X0368066Y0495961D01*
X0368104Y0495808D01*
X0368137Y0495653D01*
X0368167Y0495497D01*
X0368193Y0495341D01*
X0368214Y0495184D01*
X0368232Y0495027D01*
X0368246Y0494869D01*
X0368256Y0494711D01*
X0368262Y0494553D01*
X0368264Y0494395D01*
X0368262Y0494237D01*
X0368256Y0494079D01*
X0368246Y0493921D01*
X0368232Y0493763D01*
X0368214Y0493606D01*
X0368193Y0493449D01*
X0368167Y0493293D01*
X0368137Y0493137D01*
X0368104Y0492982D01*
X0368066Y0492829D01*
X0368025Y0492676D01*
X0367980Y0492524D01*
X0367931Y0492373D01*
X0367878Y0492224D01*
X0367822Y0492076D01*
X0367762Y0491930D01*
X0367698Y0491785D01*
X0367630Y0491642D01*
X0367559Y0491500D01*
X0367485Y0491360D01*
X0367407Y0491223D01*
X0367325Y0491087D01*
X0367241Y0490953D01*
X0367152Y0490822D01*
X0367061Y0490693D01*
X0366966Y0490566D01*
X0366869Y0490441D01*
X0366768Y0490319D01*
X0366664Y0490200D01*
X0366557Y0490083D01*
X0366447Y0489969D01*
X0366334Y0489858D01*
X0366219Y0489749D01*
X0366101Y0489644D01*
X0365980Y0489542D01*
X0365857Y0489442D01*
X0365731Y0489346D01*
X0365603Y0489253D01*
X0365473Y0489163D01*
X0365340Y0489077D01*
X0365205Y0488993D01*
X0365069Y0488914D01*
X0364930Y0488837D01*
X0364789Y0488765D01*
X0364647Y0488695D01*
X0364503Y0488630D01*
X0364357Y0488568D01*
X0364210Y0488510D01*
X0364061Y0488455D01*
X0363911Y0488404D01*
X0363760Y0488357D01*
X0363608Y0488314D01*
X0363455Y0488275D01*
X0363300Y0488239D01*
X0363145Y0488208D01*
X0362989Y0488180D01*
X0362833Y0488156D01*
X0362676Y0488136D01*
X0362518Y0488120D01*
X0362361Y0488108D01*
X0362202Y0488100D01*
X0362044Y0488096D01*
X0361886Y0488096D01*
X0361728Y0488100D01*
X0361569Y0488108D01*
X0361412Y0488120D01*
X0361254Y0488136D01*
X0361097Y0488156D01*
X0360941Y0488180D01*
X0360785Y0488208D01*
X0360630Y0488239D01*
X0360475Y0488275D01*
X0360322Y0488314D01*
X0360170Y0488357D01*
X0360019Y0488404D01*
X0359869Y0488455D01*
X0359720Y0488510D01*
X0359573Y0488568D01*
X0359427Y0488630D01*
X0359283Y0488695D01*
X0359141Y0488765D01*
X0359000Y0488837D01*
X0358861Y0488914D01*
X0358725Y0488993D01*
X0358590Y0489077D01*
X0358457Y0489163D01*
X0358327Y0489253D01*
X0358199Y0489346D01*
X0358073Y0489442D01*
X0357950Y0489542D01*
X0357829Y0489644D01*
X0357711Y0489749D01*
X0357596Y0489858D01*
X0357483Y0489969D01*
X0357373Y0490083D01*
X0357266Y0490200D01*
X0357162Y0490319D01*
X0357061Y0490441D01*
X0356964Y0490566D01*
X0356869Y0490693D01*
X0356778Y0490822D01*
X0356689Y0490953D01*
X0356605Y0491087D01*
X0356523Y0491223D01*
X0356445Y0491360D01*
X0356371Y0491500D01*
X0356300Y0491642D01*
X0356232Y0491785D01*
X0356168Y0491930D01*
X0356108Y0492076D01*
X0356052Y0492224D01*
X0355999Y0492373D01*
X0355950Y0492524D01*
X0355905Y0492676D01*
X0355864Y0492829D01*
X0355826Y0492982D01*
X0355793Y0493137D01*
X0355763Y0493293D01*
X0355737Y0493449D01*
X0355716Y0493606D01*
X0355698Y0493763D01*
X0355684Y0493921D01*
X0355674Y0494079D01*
X0355668Y0494237D01*
X0355666Y0494395D01*
X0400666Y0494395D02*
X0400668Y0494553D01*
X0400674Y0494711D01*
X0400684Y0494869D01*
X0400698Y0495027D01*
X0400716Y0495184D01*
X0400737Y0495341D01*
X0400763Y0495497D01*
X0400793Y0495653D01*
X0400826Y0495808D01*
X0400864Y0495961D01*
X0400905Y0496114D01*
X0400950Y0496266D01*
X0400999Y0496417D01*
X0401052Y0496566D01*
X0401108Y0496714D01*
X0401168Y0496860D01*
X0401232Y0497005D01*
X0401300Y0497148D01*
X0401371Y0497290D01*
X0401445Y0497430D01*
X0401523Y0497567D01*
X0401605Y0497703D01*
X0401689Y0497837D01*
X0401778Y0497968D01*
X0401869Y0498097D01*
X0401964Y0498224D01*
X0402061Y0498349D01*
X0402162Y0498471D01*
X0402266Y0498590D01*
X0402373Y0498707D01*
X0402483Y0498821D01*
X0402596Y0498932D01*
X0402711Y0499041D01*
X0402829Y0499146D01*
X0402950Y0499248D01*
X0403073Y0499348D01*
X0403199Y0499444D01*
X0403327Y0499537D01*
X0403457Y0499627D01*
X0403590Y0499713D01*
X0403725Y0499797D01*
X0403861Y0499876D01*
X0404000Y0499953D01*
X0404141Y0500025D01*
X0404283Y0500095D01*
X0404427Y0500160D01*
X0404573Y0500222D01*
X0404720Y0500280D01*
X0404869Y0500335D01*
X0405019Y0500386D01*
X0405170Y0500433D01*
X0405322Y0500476D01*
X0405475Y0500515D01*
X0405630Y0500551D01*
X0405785Y0500582D01*
X0405941Y0500610D01*
X0406097Y0500634D01*
X0406254Y0500654D01*
X0406412Y0500670D01*
X0406569Y0500682D01*
X0406728Y0500690D01*
X0406886Y0500694D01*
X0407044Y0500694D01*
X0407202Y0500690D01*
X0407361Y0500682D01*
X0407518Y0500670D01*
X0407676Y0500654D01*
X0407833Y0500634D01*
X0407989Y0500610D01*
X0408145Y0500582D01*
X0408300Y0500551D01*
X0408455Y0500515D01*
X0408608Y0500476D01*
X0408760Y0500433D01*
X0408911Y0500386D01*
X0409061Y0500335D01*
X0409210Y0500280D01*
X0409357Y0500222D01*
X0409503Y0500160D01*
X0409647Y0500095D01*
X0409789Y0500025D01*
X0409930Y0499953D01*
X0410069Y0499876D01*
X0410205Y0499797D01*
X0410340Y0499713D01*
X0410473Y0499627D01*
X0410603Y0499537D01*
X0410731Y0499444D01*
X0410857Y0499348D01*
X0410980Y0499248D01*
X0411101Y0499146D01*
X0411219Y0499041D01*
X0411334Y0498932D01*
X0411447Y0498821D01*
X0411557Y0498707D01*
X0411664Y0498590D01*
X0411768Y0498471D01*
X0411869Y0498349D01*
X0411966Y0498224D01*
X0412061Y0498097D01*
X0412152Y0497968D01*
X0412241Y0497837D01*
X0412325Y0497703D01*
X0412407Y0497567D01*
X0412485Y0497430D01*
X0412559Y0497290D01*
X0412630Y0497148D01*
X0412698Y0497005D01*
X0412762Y0496860D01*
X0412822Y0496714D01*
X0412878Y0496566D01*
X0412931Y0496417D01*
X0412980Y0496266D01*
X0413025Y0496114D01*
X0413066Y0495961D01*
X0413104Y0495808D01*
X0413137Y0495653D01*
X0413167Y0495497D01*
X0413193Y0495341D01*
X0413214Y0495184D01*
X0413232Y0495027D01*
X0413246Y0494869D01*
X0413256Y0494711D01*
X0413262Y0494553D01*
X0413264Y0494395D01*
X0413262Y0494237D01*
X0413256Y0494079D01*
X0413246Y0493921D01*
X0413232Y0493763D01*
X0413214Y0493606D01*
X0413193Y0493449D01*
X0413167Y0493293D01*
X0413137Y0493137D01*
X0413104Y0492982D01*
X0413066Y0492829D01*
X0413025Y0492676D01*
X0412980Y0492524D01*
X0412931Y0492373D01*
X0412878Y0492224D01*
X0412822Y0492076D01*
X0412762Y0491930D01*
X0412698Y0491785D01*
X0412630Y0491642D01*
X0412559Y0491500D01*
X0412485Y0491360D01*
X0412407Y0491223D01*
X0412325Y0491087D01*
X0412241Y0490953D01*
X0412152Y0490822D01*
X0412061Y0490693D01*
X0411966Y0490566D01*
X0411869Y0490441D01*
X0411768Y0490319D01*
X0411664Y0490200D01*
X0411557Y0490083D01*
X0411447Y0489969D01*
X0411334Y0489858D01*
X0411219Y0489749D01*
X0411101Y0489644D01*
X0410980Y0489542D01*
X0410857Y0489442D01*
X0410731Y0489346D01*
X0410603Y0489253D01*
X0410473Y0489163D01*
X0410340Y0489077D01*
X0410205Y0488993D01*
X0410069Y0488914D01*
X0409930Y0488837D01*
X0409789Y0488765D01*
X0409647Y0488695D01*
X0409503Y0488630D01*
X0409357Y0488568D01*
X0409210Y0488510D01*
X0409061Y0488455D01*
X0408911Y0488404D01*
X0408760Y0488357D01*
X0408608Y0488314D01*
X0408455Y0488275D01*
X0408300Y0488239D01*
X0408145Y0488208D01*
X0407989Y0488180D01*
X0407833Y0488156D01*
X0407676Y0488136D01*
X0407518Y0488120D01*
X0407361Y0488108D01*
X0407202Y0488100D01*
X0407044Y0488096D01*
X0406886Y0488096D01*
X0406728Y0488100D01*
X0406569Y0488108D01*
X0406412Y0488120D01*
X0406254Y0488136D01*
X0406097Y0488156D01*
X0405941Y0488180D01*
X0405785Y0488208D01*
X0405630Y0488239D01*
X0405475Y0488275D01*
X0405322Y0488314D01*
X0405170Y0488357D01*
X0405019Y0488404D01*
X0404869Y0488455D01*
X0404720Y0488510D01*
X0404573Y0488568D01*
X0404427Y0488630D01*
X0404283Y0488695D01*
X0404141Y0488765D01*
X0404000Y0488837D01*
X0403861Y0488914D01*
X0403725Y0488993D01*
X0403590Y0489077D01*
X0403457Y0489163D01*
X0403327Y0489253D01*
X0403199Y0489346D01*
X0403073Y0489442D01*
X0402950Y0489542D01*
X0402829Y0489644D01*
X0402711Y0489749D01*
X0402596Y0489858D01*
X0402483Y0489969D01*
X0402373Y0490083D01*
X0402266Y0490200D01*
X0402162Y0490319D01*
X0402061Y0490441D01*
X0401964Y0490566D01*
X0401869Y0490693D01*
X0401778Y0490822D01*
X0401689Y0490953D01*
X0401605Y0491087D01*
X0401523Y0491223D01*
X0401445Y0491360D01*
X0401371Y0491500D01*
X0401300Y0491642D01*
X0401232Y0491785D01*
X0401168Y0491930D01*
X0401108Y0492076D01*
X0401052Y0492224D01*
X0400999Y0492373D01*
X0400950Y0492524D01*
X0400905Y0492676D01*
X0400864Y0492829D01*
X0400826Y0492982D01*
X0400793Y0493137D01*
X0400763Y0493293D01*
X0400737Y0493449D01*
X0400716Y0493606D01*
X0400698Y0493763D01*
X0400684Y0493921D01*
X0400674Y0494079D01*
X0400668Y0494237D01*
X0400666Y0494395D01*
X0455666Y0494395D02*
X0455668Y0494553D01*
X0455674Y0494711D01*
X0455684Y0494869D01*
X0455698Y0495027D01*
X0455716Y0495184D01*
X0455737Y0495341D01*
X0455763Y0495497D01*
X0455793Y0495653D01*
X0455826Y0495808D01*
X0455864Y0495961D01*
X0455905Y0496114D01*
X0455950Y0496266D01*
X0455999Y0496417D01*
X0456052Y0496566D01*
X0456108Y0496714D01*
X0456168Y0496860D01*
X0456232Y0497005D01*
X0456300Y0497148D01*
X0456371Y0497290D01*
X0456445Y0497430D01*
X0456523Y0497567D01*
X0456605Y0497703D01*
X0456689Y0497837D01*
X0456778Y0497968D01*
X0456869Y0498097D01*
X0456964Y0498224D01*
X0457061Y0498349D01*
X0457162Y0498471D01*
X0457266Y0498590D01*
X0457373Y0498707D01*
X0457483Y0498821D01*
X0457596Y0498932D01*
X0457711Y0499041D01*
X0457829Y0499146D01*
X0457950Y0499248D01*
X0458073Y0499348D01*
X0458199Y0499444D01*
X0458327Y0499537D01*
X0458457Y0499627D01*
X0458590Y0499713D01*
X0458725Y0499797D01*
X0458861Y0499876D01*
X0459000Y0499953D01*
X0459141Y0500025D01*
X0459283Y0500095D01*
X0459427Y0500160D01*
X0459573Y0500222D01*
X0459720Y0500280D01*
X0459869Y0500335D01*
X0460019Y0500386D01*
X0460170Y0500433D01*
X0460322Y0500476D01*
X0460475Y0500515D01*
X0460630Y0500551D01*
X0460785Y0500582D01*
X0460941Y0500610D01*
X0461097Y0500634D01*
X0461254Y0500654D01*
X0461412Y0500670D01*
X0461569Y0500682D01*
X0461728Y0500690D01*
X0461886Y0500694D01*
X0462044Y0500694D01*
X0462202Y0500690D01*
X0462361Y0500682D01*
X0462518Y0500670D01*
X0462676Y0500654D01*
X0462833Y0500634D01*
X0462989Y0500610D01*
X0463145Y0500582D01*
X0463300Y0500551D01*
X0463455Y0500515D01*
X0463608Y0500476D01*
X0463760Y0500433D01*
X0463911Y0500386D01*
X0464061Y0500335D01*
X0464210Y0500280D01*
X0464357Y0500222D01*
X0464503Y0500160D01*
X0464647Y0500095D01*
X0464789Y0500025D01*
X0464930Y0499953D01*
X0465069Y0499876D01*
X0465205Y0499797D01*
X0465340Y0499713D01*
X0465473Y0499627D01*
X0465603Y0499537D01*
X0465731Y0499444D01*
X0465857Y0499348D01*
X0465980Y0499248D01*
X0466101Y0499146D01*
X0466219Y0499041D01*
X0466334Y0498932D01*
X0466447Y0498821D01*
X0466557Y0498707D01*
X0466664Y0498590D01*
X0466768Y0498471D01*
X0466869Y0498349D01*
X0466966Y0498224D01*
X0467061Y0498097D01*
X0467152Y0497968D01*
X0467241Y0497837D01*
X0467325Y0497703D01*
X0467407Y0497567D01*
X0467485Y0497430D01*
X0467559Y0497290D01*
X0467630Y0497148D01*
X0467698Y0497005D01*
X0467762Y0496860D01*
X0467822Y0496714D01*
X0467878Y0496566D01*
X0467931Y0496417D01*
X0467980Y0496266D01*
X0468025Y0496114D01*
X0468066Y0495961D01*
X0468104Y0495808D01*
X0468137Y0495653D01*
X0468167Y0495497D01*
X0468193Y0495341D01*
X0468214Y0495184D01*
X0468232Y0495027D01*
X0468246Y0494869D01*
X0468256Y0494711D01*
X0468262Y0494553D01*
X0468264Y0494395D01*
X0468262Y0494237D01*
X0468256Y0494079D01*
X0468246Y0493921D01*
X0468232Y0493763D01*
X0468214Y0493606D01*
X0468193Y0493449D01*
X0468167Y0493293D01*
X0468137Y0493137D01*
X0468104Y0492982D01*
X0468066Y0492829D01*
X0468025Y0492676D01*
X0467980Y0492524D01*
X0467931Y0492373D01*
X0467878Y0492224D01*
X0467822Y0492076D01*
X0467762Y0491930D01*
X0467698Y0491785D01*
X0467630Y0491642D01*
X0467559Y0491500D01*
X0467485Y0491360D01*
X0467407Y0491223D01*
X0467325Y0491087D01*
X0467241Y0490953D01*
X0467152Y0490822D01*
X0467061Y0490693D01*
X0466966Y0490566D01*
X0466869Y0490441D01*
X0466768Y0490319D01*
X0466664Y0490200D01*
X0466557Y0490083D01*
X0466447Y0489969D01*
X0466334Y0489858D01*
X0466219Y0489749D01*
X0466101Y0489644D01*
X0465980Y0489542D01*
X0465857Y0489442D01*
X0465731Y0489346D01*
X0465603Y0489253D01*
X0465473Y0489163D01*
X0465340Y0489077D01*
X0465205Y0488993D01*
X0465069Y0488914D01*
X0464930Y0488837D01*
X0464789Y0488765D01*
X0464647Y0488695D01*
X0464503Y0488630D01*
X0464357Y0488568D01*
X0464210Y0488510D01*
X0464061Y0488455D01*
X0463911Y0488404D01*
X0463760Y0488357D01*
X0463608Y0488314D01*
X0463455Y0488275D01*
X0463300Y0488239D01*
X0463145Y0488208D01*
X0462989Y0488180D01*
X0462833Y0488156D01*
X0462676Y0488136D01*
X0462518Y0488120D01*
X0462361Y0488108D01*
X0462202Y0488100D01*
X0462044Y0488096D01*
X0461886Y0488096D01*
X0461728Y0488100D01*
X0461569Y0488108D01*
X0461412Y0488120D01*
X0461254Y0488136D01*
X0461097Y0488156D01*
X0460941Y0488180D01*
X0460785Y0488208D01*
X0460630Y0488239D01*
X0460475Y0488275D01*
X0460322Y0488314D01*
X0460170Y0488357D01*
X0460019Y0488404D01*
X0459869Y0488455D01*
X0459720Y0488510D01*
X0459573Y0488568D01*
X0459427Y0488630D01*
X0459283Y0488695D01*
X0459141Y0488765D01*
X0459000Y0488837D01*
X0458861Y0488914D01*
X0458725Y0488993D01*
X0458590Y0489077D01*
X0458457Y0489163D01*
X0458327Y0489253D01*
X0458199Y0489346D01*
X0458073Y0489442D01*
X0457950Y0489542D01*
X0457829Y0489644D01*
X0457711Y0489749D01*
X0457596Y0489858D01*
X0457483Y0489969D01*
X0457373Y0490083D01*
X0457266Y0490200D01*
X0457162Y0490319D01*
X0457061Y0490441D01*
X0456964Y0490566D01*
X0456869Y0490693D01*
X0456778Y0490822D01*
X0456689Y0490953D01*
X0456605Y0491087D01*
X0456523Y0491223D01*
X0456445Y0491360D01*
X0456371Y0491500D01*
X0456300Y0491642D01*
X0456232Y0491785D01*
X0456168Y0491930D01*
X0456108Y0492076D01*
X0456052Y0492224D01*
X0455999Y0492373D01*
X0455950Y0492524D01*
X0455905Y0492676D01*
X0455864Y0492829D01*
X0455826Y0492982D01*
X0455793Y0493137D01*
X0455763Y0493293D01*
X0455737Y0493449D01*
X0455716Y0493606D01*
X0455698Y0493763D01*
X0455684Y0493921D01*
X0455674Y0494079D01*
X0455668Y0494237D01*
X0455666Y0494395D01*
X0500666Y0494395D02*
X0500668Y0494553D01*
X0500674Y0494711D01*
X0500684Y0494869D01*
X0500698Y0495027D01*
X0500716Y0495184D01*
X0500737Y0495341D01*
X0500763Y0495497D01*
X0500793Y0495653D01*
X0500826Y0495808D01*
X0500864Y0495961D01*
X0500905Y0496114D01*
X0500950Y0496266D01*
X0500999Y0496417D01*
X0501052Y0496566D01*
X0501108Y0496714D01*
X0501168Y0496860D01*
X0501232Y0497005D01*
X0501300Y0497148D01*
X0501371Y0497290D01*
X0501445Y0497430D01*
X0501523Y0497567D01*
X0501605Y0497703D01*
X0501689Y0497837D01*
X0501778Y0497968D01*
X0501869Y0498097D01*
X0501964Y0498224D01*
X0502061Y0498349D01*
X0502162Y0498471D01*
X0502266Y0498590D01*
X0502373Y0498707D01*
X0502483Y0498821D01*
X0502596Y0498932D01*
X0502711Y0499041D01*
X0502829Y0499146D01*
X0502950Y0499248D01*
X0503073Y0499348D01*
X0503199Y0499444D01*
X0503327Y0499537D01*
X0503457Y0499627D01*
X0503590Y0499713D01*
X0503725Y0499797D01*
X0503861Y0499876D01*
X0504000Y0499953D01*
X0504141Y0500025D01*
X0504283Y0500095D01*
X0504427Y0500160D01*
X0504573Y0500222D01*
X0504720Y0500280D01*
X0504869Y0500335D01*
X0505019Y0500386D01*
X0505170Y0500433D01*
X0505322Y0500476D01*
X0505475Y0500515D01*
X0505630Y0500551D01*
X0505785Y0500582D01*
X0505941Y0500610D01*
X0506097Y0500634D01*
X0506254Y0500654D01*
X0506412Y0500670D01*
X0506569Y0500682D01*
X0506728Y0500690D01*
X0506886Y0500694D01*
X0507044Y0500694D01*
X0507202Y0500690D01*
X0507361Y0500682D01*
X0507518Y0500670D01*
X0507676Y0500654D01*
X0507833Y0500634D01*
X0507989Y0500610D01*
X0508145Y0500582D01*
X0508300Y0500551D01*
X0508455Y0500515D01*
X0508608Y0500476D01*
X0508760Y0500433D01*
X0508911Y0500386D01*
X0509061Y0500335D01*
X0509210Y0500280D01*
X0509357Y0500222D01*
X0509503Y0500160D01*
X0509647Y0500095D01*
X0509789Y0500025D01*
X0509930Y0499953D01*
X0510069Y0499876D01*
X0510205Y0499797D01*
X0510340Y0499713D01*
X0510473Y0499627D01*
X0510603Y0499537D01*
X0510731Y0499444D01*
X0510857Y0499348D01*
X0510980Y0499248D01*
X0511101Y0499146D01*
X0511219Y0499041D01*
X0511334Y0498932D01*
X0511447Y0498821D01*
X0511557Y0498707D01*
X0511664Y0498590D01*
X0511768Y0498471D01*
X0511869Y0498349D01*
X0511966Y0498224D01*
X0512061Y0498097D01*
X0512152Y0497968D01*
X0512241Y0497837D01*
X0512325Y0497703D01*
X0512407Y0497567D01*
X0512485Y0497430D01*
X0512559Y0497290D01*
X0512630Y0497148D01*
X0512698Y0497005D01*
X0512762Y0496860D01*
X0512822Y0496714D01*
X0512878Y0496566D01*
X0512931Y0496417D01*
X0512980Y0496266D01*
X0513025Y0496114D01*
X0513066Y0495961D01*
X0513104Y0495808D01*
X0513137Y0495653D01*
X0513167Y0495497D01*
X0513193Y0495341D01*
X0513214Y0495184D01*
X0513232Y0495027D01*
X0513246Y0494869D01*
X0513256Y0494711D01*
X0513262Y0494553D01*
X0513264Y0494395D01*
X0513262Y0494237D01*
X0513256Y0494079D01*
X0513246Y0493921D01*
X0513232Y0493763D01*
X0513214Y0493606D01*
X0513193Y0493449D01*
X0513167Y0493293D01*
X0513137Y0493137D01*
X0513104Y0492982D01*
X0513066Y0492829D01*
X0513025Y0492676D01*
X0512980Y0492524D01*
X0512931Y0492373D01*
X0512878Y0492224D01*
X0512822Y0492076D01*
X0512762Y0491930D01*
X0512698Y0491785D01*
X0512630Y0491642D01*
X0512559Y0491500D01*
X0512485Y0491360D01*
X0512407Y0491223D01*
X0512325Y0491087D01*
X0512241Y0490953D01*
X0512152Y0490822D01*
X0512061Y0490693D01*
X0511966Y0490566D01*
X0511869Y0490441D01*
X0511768Y0490319D01*
X0511664Y0490200D01*
X0511557Y0490083D01*
X0511447Y0489969D01*
X0511334Y0489858D01*
X0511219Y0489749D01*
X0511101Y0489644D01*
X0510980Y0489542D01*
X0510857Y0489442D01*
X0510731Y0489346D01*
X0510603Y0489253D01*
X0510473Y0489163D01*
X0510340Y0489077D01*
X0510205Y0488993D01*
X0510069Y0488914D01*
X0509930Y0488837D01*
X0509789Y0488765D01*
X0509647Y0488695D01*
X0509503Y0488630D01*
X0509357Y0488568D01*
X0509210Y0488510D01*
X0509061Y0488455D01*
X0508911Y0488404D01*
X0508760Y0488357D01*
X0508608Y0488314D01*
X0508455Y0488275D01*
X0508300Y0488239D01*
X0508145Y0488208D01*
X0507989Y0488180D01*
X0507833Y0488156D01*
X0507676Y0488136D01*
X0507518Y0488120D01*
X0507361Y0488108D01*
X0507202Y0488100D01*
X0507044Y0488096D01*
X0506886Y0488096D01*
X0506728Y0488100D01*
X0506569Y0488108D01*
X0506412Y0488120D01*
X0506254Y0488136D01*
X0506097Y0488156D01*
X0505941Y0488180D01*
X0505785Y0488208D01*
X0505630Y0488239D01*
X0505475Y0488275D01*
X0505322Y0488314D01*
X0505170Y0488357D01*
X0505019Y0488404D01*
X0504869Y0488455D01*
X0504720Y0488510D01*
X0504573Y0488568D01*
X0504427Y0488630D01*
X0504283Y0488695D01*
X0504141Y0488765D01*
X0504000Y0488837D01*
X0503861Y0488914D01*
X0503725Y0488993D01*
X0503590Y0489077D01*
X0503457Y0489163D01*
X0503327Y0489253D01*
X0503199Y0489346D01*
X0503073Y0489442D01*
X0502950Y0489542D01*
X0502829Y0489644D01*
X0502711Y0489749D01*
X0502596Y0489858D01*
X0502483Y0489969D01*
X0502373Y0490083D01*
X0502266Y0490200D01*
X0502162Y0490319D01*
X0502061Y0490441D01*
X0501964Y0490566D01*
X0501869Y0490693D01*
X0501778Y0490822D01*
X0501689Y0490953D01*
X0501605Y0491087D01*
X0501523Y0491223D01*
X0501445Y0491360D01*
X0501371Y0491500D01*
X0501300Y0491642D01*
X0501232Y0491785D01*
X0501168Y0491930D01*
X0501108Y0492076D01*
X0501052Y0492224D01*
X0500999Y0492373D01*
X0500950Y0492524D01*
X0500905Y0492676D01*
X0500864Y0492829D01*
X0500826Y0492982D01*
X0500793Y0493137D01*
X0500763Y0493293D01*
X0500737Y0493449D01*
X0500716Y0493606D01*
X0500698Y0493763D01*
X0500684Y0493921D01*
X0500674Y0494079D01*
X0500668Y0494237D01*
X0500666Y0494395D01*
X0555666Y0494395D02*
X0555668Y0494553D01*
X0555674Y0494711D01*
X0555684Y0494869D01*
X0555698Y0495027D01*
X0555716Y0495184D01*
X0555737Y0495341D01*
X0555763Y0495497D01*
X0555793Y0495653D01*
X0555826Y0495808D01*
X0555864Y0495961D01*
X0555905Y0496114D01*
X0555950Y0496266D01*
X0555999Y0496417D01*
X0556052Y0496566D01*
X0556108Y0496714D01*
X0556168Y0496860D01*
X0556232Y0497005D01*
X0556300Y0497148D01*
X0556371Y0497290D01*
X0556445Y0497430D01*
X0556523Y0497567D01*
X0556605Y0497703D01*
X0556689Y0497837D01*
X0556778Y0497968D01*
X0556869Y0498097D01*
X0556964Y0498224D01*
X0557061Y0498349D01*
X0557162Y0498471D01*
X0557266Y0498590D01*
X0557373Y0498707D01*
X0557483Y0498821D01*
X0557596Y0498932D01*
X0557711Y0499041D01*
X0557829Y0499146D01*
X0557950Y0499248D01*
X0558073Y0499348D01*
X0558199Y0499444D01*
X0558327Y0499537D01*
X0558457Y0499627D01*
X0558590Y0499713D01*
X0558725Y0499797D01*
X0558861Y0499876D01*
X0559000Y0499953D01*
X0559141Y0500025D01*
X0559283Y0500095D01*
X0559427Y0500160D01*
X0559573Y0500222D01*
X0559720Y0500280D01*
X0559869Y0500335D01*
X0560019Y0500386D01*
X0560170Y0500433D01*
X0560322Y0500476D01*
X0560475Y0500515D01*
X0560630Y0500551D01*
X0560785Y0500582D01*
X0560941Y0500610D01*
X0561097Y0500634D01*
X0561254Y0500654D01*
X0561412Y0500670D01*
X0561569Y0500682D01*
X0561728Y0500690D01*
X0561886Y0500694D01*
X0562044Y0500694D01*
X0562202Y0500690D01*
X0562361Y0500682D01*
X0562518Y0500670D01*
X0562676Y0500654D01*
X0562833Y0500634D01*
X0562989Y0500610D01*
X0563145Y0500582D01*
X0563300Y0500551D01*
X0563455Y0500515D01*
X0563608Y0500476D01*
X0563760Y0500433D01*
X0563911Y0500386D01*
X0564061Y0500335D01*
X0564210Y0500280D01*
X0564357Y0500222D01*
X0564503Y0500160D01*
X0564647Y0500095D01*
X0564789Y0500025D01*
X0564930Y0499953D01*
X0565069Y0499876D01*
X0565205Y0499797D01*
X0565340Y0499713D01*
X0565473Y0499627D01*
X0565603Y0499537D01*
X0565731Y0499444D01*
X0565857Y0499348D01*
X0565980Y0499248D01*
X0566101Y0499146D01*
X0566219Y0499041D01*
X0566334Y0498932D01*
X0566447Y0498821D01*
X0566557Y0498707D01*
X0566664Y0498590D01*
X0566768Y0498471D01*
X0566869Y0498349D01*
X0566966Y0498224D01*
X0567061Y0498097D01*
X0567152Y0497968D01*
X0567241Y0497837D01*
X0567325Y0497703D01*
X0567407Y0497567D01*
X0567485Y0497430D01*
X0567559Y0497290D01*
X0567630Y0497148D01*
X0567698Y0497005D01*
X0567762Y0496860D01*
X0567822Y0496714D01*
X0567878Y0496566D01*
X0567931Y0496417D01*
X0567980Y0496266D01*
X0568025Y0496114D01*
X0568066Y0495961D01*
X0568104Y0495808D01*
X0568137Y0495653D01*
X0568167Y0495497D01*
X0568193Y0495341D01*
X0568214Y0495184D01*
X0568232Y0495027D01*
X0568246Y0494869D01*
X0568256Y0494711D01*
X0568262Y0494553D01*
X0568264Y0494395D01*
X0568262Y0494237D01*
X0568256Y0494079D01*
X0568246Y0493921D01*
X0568232Y0493763D01*
X0568214Y0493606D01*
X0568193Y0493449D01*
X0568167Y0493293D01*
X0568137Y0493137D01*
X0568104Y0492982D01*
X0568066Y0492829D01*
X0568025Y0492676D01*
X0567980Y0492524D01*
X0567931Y0492373D01*
X0567878Y0492224D01*
X0567822Y0492076D01*
X0567762Y0491930D01*
X0567698Y0491785D01*
X0567630Y0491642D01*
X0567559Y0491500D01*
X0567485Y0491360D01*
X0567407Y0491223D01*
X0567325Y0491087D01*
X0567241Y0490953D01*
X0567152Y0490822D01*
X0567061Y0490693D01*
X0566966Y0490566D01*
X0566869Y0490441D01*
X0566768Y0490319D01*
X0566664Y0490200D01*
X0566557Y0490083D01*
X0566447Y0489969D01*
X0566334Y0489858D01*
X0566219Y0489749D01*
X0566101Y0489644D01*
X0565980Y0489542D01*
X0565857Y0489442D01*
X0565731Y0489346D01*
X0565603Y0489253D01*
X0565473Y0489163D01*
X0565340Y0489077D01*
X0565205Y0488993D01*
X0565069Y0488914D01*
X0564930Y0488837D01*
X0564789Y0488765D01*
X0564647Y0488695D01*
X0564503Y0488630D01*
X0564357Y0488568D01*
X0564210Y0488510D01*
X0564061Y0488455D01*
X0563911Y0488404D01*
X0563760Y0488357D01*
X0563608Y0488314D01*
X0563455Y0488275D01*
X0563300Y0488239D01*
X0563145Y0488208D01*
X0562989Y0488180D01*
X0562833Y0488156D01*
X0562676Y0488136D01*
X0562518Y0488120D01*
X0562361Y0488108D01*
X0562202Y0488100D01*
X0562044Y0488096D01*
X0561886Y0488096D01*
X0561728Y0488100D01*
X0561569Y0488108D01*
X0561412Y0488120D01*
X0561254Y0488136D01*
X0561097Y0488156D01*
X0560941Y0488180D01*
X0560785Y0488208D01*
X0560630Y0488239D01*
X0560475Y0488275D01*
X0560322Y0488314D01*
X0560170Y0488357D01*
X0560019Y0488404D01*
X0559869Y0488455D01*
X0559720Y0488510D01*
X0559573Y0488568D01*
X0559427Y0488630D01*
X0559283Y0488695D01*
X0559141Y0488765D01*
X0559000Y0488837D01*
X0558861Y0488914D01*
X0558725Y0488993D01*
X0558590Y0489077D01*
X0558457Y0489163D01*
X0558327Y0489253D01*
X0558199Y0489346D01*
X0558073Y0489442D01*
X0557950Y0489542D01*
X0557829Y0489644D01*
X0557711Y0489749D01*
X0557596Y0489858D01*
X0557483Y0489969D01*
X0557373Y0490083D01*
X0557266Y0490200D01*
X0557162Y0490319D01*
X0557061Y0490441D01*
X0556964Y0490566D01*
X0556869Y0490693D01*
X0556778Y0490822D01*
X0556689Y0490953D01*
X0556605Y0491087D01*
X0556523Y0491223D01*
X0556445Y0491360D01*
X0556371Y0491500D01*
X0556300Y0491642D01*
X0556232Y0491785D01*
X0556168Y0491930D01*
X0556108Y0492076D01*
X0556052Y0492224D01*
X0555999Y0492373D01*
X0555950Y0492524D01*
X0555905Y0492676D01*
X0555864Y0492829D01*
X0555826Y0492982D01*
X0555793Y0493137D01*
X0555763Y0493293D01*
X0555737Y0493449D01*
X0555716Y0493606D01*
X0555698Y0493763D01*
X0555684Y0493921D01*
X0555674Y0494079D01*
X0555668Y0494237D01*
X0555666Y0494395D01*
X0600666Y0494395D02*
X0600668Y0494553D01*
X0600674Y0494711D01*
X0600684Y0494869D01*
X0600698Y0495027D01*
X0600716Y0495184D01*
X0600737Y0495341D01*
X0600763Y0495497D01*
X0600793Y0495653D01*
X0600826Y0495808D01*
X0600864Y0495961D01*
X0600905Y0496114D01*
X0600950Y0496266D01*
X0600999Y0496417D01*
X0601052Y0496566D01*
X0601108Y0496714D01*
X0601168Y0496860D01*
X0601232Y0497005D01*
X0601300Y0497148D01*
X0601371Y0497290D01*
X0601445Y0497430D01*
X0601523Y0497567D01*
X0601605Y0497703D01*
X0601689Y0497837D01*
X0601778Y0497968D01*
X0601869Y0498097D01*
X0601964Y0498224D01*
X0602061Y0498349D01*
X0602162Y0498471D01*
X0602266Y0498590D01*
X0602373Y0498707D01*
X0602483Y0498821D01*
X0602596Y0498932D01*
X0602711Y0499041D01*
X0602829Y0499146D01*
X0602950Y0499248D01*
X0603073Y0499348D01*
X0603199Y0499444D01*
X0603327Y0499537D01*
X0603457Y0499627D01*
X0603590Y0499713D01*
X0603725Y0499797D01*
X0603861Y0499876D01*
X0604000Y0499953D01*
X0604141Y0500025D01*
X0604283Y0500095D01*
X0604427Y0500160D01*
X0604573Y0500222D01*
X0604720Y0500280D01*
X0604869Y0500335D01*
X0605019Y0500386D01*
X0605170Y0500433D01*
X0605322Y0500476D01*
X0605475Y0500515D01*
X0605630Y0500551D01*
X0605785Y0500582D01*
X0605941Y0500610D01*
X0606097Y0500634D01*
X0606254Y0500654D01*
X0606412Y0500670D01*
X0606569Y0500682D01*
X0606728Y0500690D01*
X0606886Y0500694D01*
X0607044Y0500694D01*
X0607202Y0500690D01*
X0607361Y0500682D01*
X0607518Y0500670D01*
X0607676Y0500654D01*
X0607833Y0500634D01*
X0607989Y0500610D01*
X0608145Y0500582D01*
X0608300Y0500551D01*
X0608455Y0500515D01*
X0608608Y0500476D01*
X0608760Y0500433D01*
X0608911Y0500386D01*
X0609061Y0500335D01*
X0609210Y0500280D01*
X0609357Y0500222D01*
X0609503Y0500160D01*
X0609647Y0500095D01*
X0609789Y0500025D01*
X0609930Y0499953D01*
X0610069Y0499876D01*
X0610205Y0499797D01*
X0610340Y0499713D01*
X0610473Y0499627D01*
X0610603Y0499537D01*
X0610731Y0499444D01*
X0610857Y0499348D01*
X0610980Y0499248D01*
X0611101Y0499146D01*
X0611219Y0499041D01*
X0611334Y0498932D01*
X0611447Y0498821D01*
X0611557Y0498707D01*
X0611664Y0498590D01*
X0611768Y0498471D01*
X0611869Y0498349D01*
X0611966Y0498224D01*
X0612061Y0498097D01*
X0612152Y0497968D01*
X0612241Y0497837D01*
X0612325Y0497703D01*
X0612407Y0497567D01*
X0612485Y0497430D01*
X0612559Y0497290D01*
X0612630Y0497148D01*
X0612698Y0497005D01*
X0612762Y0496860D01*
X0612822Y0496714D01*
X0612878Y0496566D01*
X0612931Y0496417D01*
X0612980Y0496266D01*
X0613025Y0496114D01*
X0613066Y0495961D01*
X0613104Y0495808D01*
X0613137Y0495653D01*
X0613167Y0495497D01*
X0613193Y0495341D01*
X0613214Y0495184D01*
X0613232Y0495027D01*
X0613246Y0494869D01*
X0613256Y0494711D01*
X0613262Y0494553D01*
X0613264Y0494395D01*
X0613262Y0494237D01*
X0613256Y0494079D01*
X0613246Y0493921D01*
X0613232Y0493763D01*
X0613214Y0493606D01*
X0613193Y0493449D01*
X0613167Y0493293D01*
X0613137Y0493137D01*
X0613104Y0492982D01*
X0613066Y0492829D01*
X0613025Y0492676D01*
X0612980Y0492524D01*
X0612931Y0492373D01*
X0612878Y0492224D01*
X0612822Y0492076D01*
X0612762Y0491930D01*
X0612698Y0491785D01*
X0612630Y0491642D01*
X0612559Y0491500D01*
X0612485Y0491360D01*
X0612407Y0491223D01*
X0612325Y0491087D01*
X0612241Y0490953D01*
X0612152Y0490822D01*
X0612061Y0490693D01*
X0611966Y0490566D01*
X0611869Y0490441D01*
X0611768Y0490319D01*
X0611664Y0490200D01*
X0611557Y0490083D01*
X0611447Y0489969D01*
X0611334Y0489858D01*
X0611219Y0489749D01*
X0611101Y0489644D01*
X0610980Y0489542D01*
X0610857Y0489442D01*
X0610731Y0489346D01*
X0610603Y0489253D01*
X0610473Y0489163D01*
X0610340Y0489077D01*
X0610205Y0488993D01*
X0610069Y0488914D01*
X0609930Y0488837D01*
X0609789Y0488765D01*
X0609647Y0488695D01*
X0609503Y0488630D01*
X0609357Y0488568D01*
X0609210Y0488510D01*
X0609061Y0488455D01*
X0608911Y0488404D01*
X0608760Y0488357D01*
X0608608Y0488314D01*
X0608455Y0488275D01*
X0608300Y0488239D01*
X0608145Y0488208D01*
X0607989Y0488180D01*
X0607833Y0488156D01*
X0607676Y0488136D01*
X0607518Y0488120D01*
X0607361Y0488108D01*
X0607202Y0488100D01*
X0607044Y0488096D01*
X0606886Y0488096D01*
X0606728Y0488100D01*
X0606569Y0488108D01*
X0606412Y0488120D01*
X0606254Y0488136D01*
X0606097Y0488156D01*
X0605941Y0488180D01*
X0605785Y0488208D01*
X0605630Y0488239D01*
X0605475Y0488275D01*
X0605322Y0488314D01*
X0605170Y0488357D01*
X0605019Y0488404D01*
X0604869Y0488455D01*
X0604720Y0488510D01*
X0604573Y0488568D01*
X0604427Y0488630D01*
X0604283Y0488695D01*
X0604141Y0488765D01*
X0604000Y0488837D01*
X0603861Y0488914D01*
X0603725Y0488993D01*
X0603590Y0489077D01*
X0603457Y0489163D01*
X0603327Y0489253D01*
X0603199Y0489346D01*
X0603073Y0489442D01*
X0602950Y0489542D01*
X0602829Y0489644D01*
X0602711Y0489749D01*
X0602596Y0489858D01*
X0602483Y0489969D01*
X0602373Y0490083D01*
X0602266Y0490200D01*
X0602162Y0490319D01*
X0602061Y0490441D01*
X0601964Y0490566D01*
X0601869Y0490693D01*
X0601778Y0490822D01*
X0601689Y0490953D01*
X0601605Y0491087D01*
X0601523Y0491223D01*
X0601445Y0491360D01*
X0601371Y0491500D01*
X0601300Y0491642D01*
X0601232Y0491785D01*
X0601168Y0491930D01*
X0601108Y0492076D01*
X0601052Y0492224D01*
X0600999Y0492373D01*
X0600950Y0492524D01*
X0600905Y0492676D01*
X0600864Y0492829D01*
X0600826Y0492982D01*
X0600793Y0493137D01*
X0600763Y0493293D01*
X0600737Y0493449D01*
X0600716Y0493606D01*
X0600698Y0493763D01*
X0600684Y0493921D01*
X0600674Y0494079D01*
X0600668Y0494237D01*
X0600666Y0494395D01*
X0647910Y0410616D02*
X0647912Y0410769D01*
X0647918Y0410923D01*
X0647928Y0411076D01*
X0647942Y0411228D01*
X0647960Y0411381D01*
X0647982Y0411532D01*
X0648007Y0411683D01*
X0648037Y0411834D01*
X0648071Y0411984D01*
X0648108Y0412132D01*
X0648149Y0412280D01*
X0648194Y0412426D01*
X0648243Y0412572D01*
X0648296Y0412716D01*
X0648352Y0412858D01*
X0648412Y0412999D01*
X0648476Y0413139D01*
X0648543Y0413277D01*
X0648614Y0413413D01*
X0648689Y0413547D01*
X0648766Y0413679D01*
X0648848Y0413809D01*
X0648932Y0413937D01*
X0649020Y0414063D01*
X0649111Y0414186D01*
X0649205Y0414307D01*
X0649303Y0414425D01*
X0649403Y0414541D01*
X0649507Y0414654D01*
X0649613Y0414765D01*
X0649722Y0414873D01*
X0649834Y0414978D01*
X0649948Y0415079D01*
X0650066Y0415178D01*
X0650185Y0415274D01*
X0650307Y0415367D01*
X0650432Y0415456D01*
X0650559Y0415543D01*
X0650688Y0415625D01*
X0650819Y0415705D01*
X0650952Y0415781D01*
X0651087Y0415854D01*
X0651224Y0415923D01*
X0651363Y0415988D01*
X0651503Y0416050D01*
X0651645Y0416108D01*
X0651788Y0416163D01*
X0651933Y0416214D01*
X0652079Y0416261D01*
X0652226Y0416304D01*
X0652374Y0416343D01*
X0652523Y0416379D01*
X0652673Y0416410D01*
X0652824Y0416438D01*
X0652975Y0416462D01*
X0653128Y0416482D01*
X0653280Y0416498D01*
X0653433Y0416510D01*
X0653586Y0416518D01*
X0653739Y0416522D01*
X0653893Y0416522D01*
X0654046Y0416518D01*
X0654199Y0416510D01*
X0654352Y0416498D01*
X0654504Y0416482D01*
X0654657Y0416462D01*
X0654808Y0416438D01*
X0654959Y0416410D01*
X0655109Y0416379D01*
X0655258Y0416343D01*
X0655406Y0416304D01*
X0655553Y0416261D01*
X0655699Y0416214D01*
X0655844Y0416163D01*
X0655987Y0416108D01*
X0656129Y0416050D01*
X0656269Y0415988D01*
X0656408Y0415923D01*
X0656545Y0415854D01*
X0656680Y0415781D01*
X0656813Y0415705D01*
X0656944Y0415625D01*
X0657073Y0415543D01*
X0657200Y0415456D01*
X0657325Y0415367D01*
X0657447Y0415274D01*
X0657566Y0415178D01*
X0657684Y0415079D01*
X0657798Y0414978D01*
X0657910Y0414873D01*
X0658019Y0414765D01*
X0658125Y0414654D01*
X0658229Y0414541D01*
X0658329Y0414425D01*
X0658427Y0414307D01*
X0658521Y0414186D01*
X0658612Y0414063D01*
X0658700Y0413937D01*
X0658784Y0413809D01*
X0658866Y0413679D01*
X0658943Y0413547D01*
X0659018Y0413413D01*
X0659089Y0413277D01*
X0659156Y0413139D01*
X0659220Y0412999D01*
X0659280Y0412858D01*
X0659336Y0412716D01*
X0659389Y0412572D01*
X0659438Y0412426D01*
X0659483Y0412280D01*
X0659524Y0412132D01*
X0659561Y0411984D01*
X0659595Y0411834D01*
X0659625Y0411683D01*
X0659650Y0411532D01*
X0659672Y0411381D01*
X0659690Y0411228D01*
X0659704Y0411076D01*
X0659714Y0410923D01*
X0659720Y0410769D01*
X0659722Y0410616D01*
X0659720Y0410463D01*
X0659714Y0410309D01*
X0659704Y0410156D01*
X0659690Y0410004D01*
X0659672Y0409851D01*
X0659650Y0409700D01*
X0659625Y0409549D01*
X0659595Y0409398D01*
X0659561Y0409248D01*
X0659524Y0409100D01*
X0659483Y0408952D01*
X0659438Y0408806D01*
X0659389Y0408660D01*
X0659336Y0408516D01*
X0659280Y0408374D01*
X0659220Y0408233D01*
X0659156Y0408093D01*
X0659089Y0407955D01*
X0659018Y0407819D01*
X0658943Y0407685D01*
X0658866Y0407553D01*
X0658784Y0407423D01*
X0658700Y0407295D01*
X0658612Y0407169D01*
X0658521Y0407046D01*
X0658427Y0406925D01*
X0658329Y0406807D01*
X0658229Y0406691D01*
X0658125Y0406578D01*
X0658019Y0406467D01*
X0657910Y0406359D01*
X0657798Y0406254D01*
X0657684Y0406153D01*
X0657566Y0406054D01*
X0657447Y0405958D01*
X0657325Y0405865D01*
X0657200Y0405776D01*
X0657073Y0405689D01*
X0656944Y0405607D01*
X0656813Y0405527D01*
X0656680Y0405451D01*
X0656545Y0405378D01*
X0656408Y0405309D01*
X0656269Y0405244D01*
X0656129Y0405182D01*
X0655987Y0405124D01*
X0655844Y0405069D01*
X0655699Y0405018D01*
X0655553Y0404971D01*
X0655406Y0404928D01*
X0655258Y0404889D01*
X0655109Y0404853D01*
X0654959Y0404822D01*
X0654808Y0404794D01*
X0654657Y0404770D01*
X0654504Y0404750D01*
X0654352Y0404734D01*
X0654199Y0404722D01*
X0654046Y0404714D01*
X0653893Y0404710D01*
X0653739Y0404710D01*
X0653586Y0404714D01*
X0653433Y0404722D01*
X0653280Y0404734D01*
X0653128Y0404750D01*
X0652975Y0404770D01*
X0652824Y0404794D01*
X0652673Y0404822D01*
X0652523Y0404853D01*
X0652374Y0404889D01*
X0652226Y0404928D01*
X0652079Y0404971D01*
X0651933Y0405018D01*
X0651788Y0405069D01*
X0651645Y0405124D01*
X0651503Y0405182D01*
X0651363Y0405244D01*
X0651224Y0405309D01*
X0651087Y0405378D01*
X0650952Y0405451D01*
X0650819Y0405527D01*
X0650688Y0405607D01*
X0650559Y0405689D01*
X0650432Y0405776D01*
X0650307Y0405865D01*
X0650185Y0405958D01*
X0650066Y0406054D01*
X0649948Y0406153D01*
X0649834Y0406254D01*
X0649722Y0406359D01*
X0649613Y0406467D01*
X0649507Y0406578D01*
X0649403Y0406691D01*
X0649303Y0406807D01*
X0649205Y0406925D01*
X0649111Y0407046D01*
X0649020Y0407169D01*
X0648932Y0407295D01*
X0648848Y0407423D01*
X0648766Y0407553D01*
X0648689Y0407685D01*
X0648614Y0407819D01*
X0648543Y0407955D01*
X0648476Y0408093D01*
X0648412Y0408233D01*
X0648352Y0408374D01*
X0648296Y0408516D01*
X0648243Y0408660D01*
X0648194Y0408806D01*
X0648149Y0408952D01*
X0648108Y0409100D01*
X0648071Y0409248D01*
X0648037Y0409398D01*
X0648007Y0409549D01*
X0647982Y0409700D01*
X0647960Y0409851D01*
X0647942Y0410004D01*
X0647928Y0410156D01*
X0647918Y0410309D01*
X0647912Y0410463D01*
X0647910Y0410616D01*
X0647910Y0125970D02*
X0647912Y0126123D01*
X0647918Y0126277D01*
X0647928Y0126430D01*
X0647942Y0126582D01*
X0647960Y0126735D01*
X0647982Y0126886D01*
X0648007Y0127037D01*
X0648037Y0127188D01*
X0648071Y0127338D01*
X0648108Y0127486D01*
X0648149Y0127634D01*
X0648194Y0127780D01*
X0648243Y0127926D01*
X0648296Y0128070D01*
X0648352Y0128212D01*
X0648412Y0128353D01*
X0648476Y0128493D01*
X0648543Y0128631D01*
X0648614Y0128767D01*
X0648689Y0128901D01*
X0648766Y0129033D01*
X0648848Y0129163D01*
X0648932Y0129291D01*
X0649020Y0129417D01*
X0649111Y0129540D01*
X0649205Y0129661D01*
X0649303Y0129779D01*
X0649403Y0129895D01*
X0649507Y0130008D01*
X0649613Y0130119D01*
X0649722Y0130227D01*
X0649834Y0130332D01*
X0649948Y0130433D01*
X0650066Y0130532D01*
X0650185Y0130628D01*
X0650307Y0130721D01*
X0650432Y0130810D01*
X0650559Y0130897D01*
X0650688Y0130979D01*
X0650819Y0131059D01*
X0650952Y0131135D01*
X0651087Y0131208D01*
X0651224Y0131277D01*
X0651363Y0131342D01*
X0651503Y0131404D01*
X0651645Y0131462D01*
X0651788Y0131517D01*
X0651933Y0131568D01*
X0652079Y0131615D01*
X0652226Y0131658D01*
X0652374Y0131697D01*
X0652523Y0131733D01*
X0652673Y0131764D01*
X0652824Y0131792D01*
X0652975Y0131816D01*
X0653128Y0131836D01*
X0653280Y0131852D01*
X0653433Y0131864D01*
X0653586Y0131872D01*
X0653739Y0131876D01*
X0653893Y0131876D01*
X0654046Y0131872D01*
X0654199Y0131864D01*
X0654352Y0131852D01*
X0654504Y0131836D01*
X0654657Y0131816D01*
X0654808Y0131792D01*
X0654959Y0131764D01*
X0655109Y0131733D01*
X0655258Y0131697D01*
X0655406Y0131658D01*
X0655553Y0131615D01*
X0655699Y0131568D01*
X0655844Y0131517D01*
X0655987Y0131462D01*
X0656129Y0131404D01*
X0656269Y0131342D01*
X0656408Y0131277D01*
X0656545Y0131208D01*
X0656680Y0131135D01*
X0656813Y0131059D01*
X0656944Y0130979D01*
X0657073Y0130897D01*
X0657200Y0130810D01*
X0657325Y0130721D01*
X0657447Y0130628D01*
X0657566Y0130532D01*
X0657684Y0130433D01*
X0657798Y0130332D01*
X0657910Y0130227D01*
X0658019Y0130119D01*
X0658125Y0130008D01*
X0658229Y0129895D01*
X0658329Y0129779D01*
X0658427Y0129661D01*
X0658521Y0129540D01*
X0658612Y0129417D01*
X0658700Y0129291D01*
X0658784Y0129163D01*
X0658866Y0129033D01*
X0658943Y0128901D01*
X0659018Y0128767D01*
X0659089Y0128631D01*
X0659156Y0128493D01*
X0659220Y0128353D01*
X0659280Y0128212D01*
X0659336Y0128070D01*
X0659389Y0127926D01*
X0659438Y0127780D01*
X0659483Y0127634D01*
X0659524Y0127486D01*
X0659561Y0127338D01*
X0659595Y0127188D01*
X0659625Y0127037D01*
X0659650Y0126886D01*
X0659672Y0126735D01*
X0659690Y0126582D01*
X0659704Y0126430D01*
X0659714Y0126277D01*
X0659720Y0126123D01*
X0659722Y0125970D01*
X0659720Y0125817D01*
X0659714Y0125663D01*
X0659704Y0125510D01*
X0659690Y0125358D01*
X0659672Y0125205D01*
X0659650Y0125054D01*
X0659625Y0124903D01*
X0659595Y0124752D01*
X0659561Y0124602D01*
X0659524Y0124454D01*
X0659483Y0124306D01*
X0659438Y0124160D01*
X0659389Y0124014D01*
X0659336Y0123870D01*
X0659280Y0123728D01*
X0659220Y0123587D01*
X0659156Y0123447D01*
X0659089Y0123309D01*
X0659018Y0123173D01*
X0658943Y0123039D01*
X0658866Y0122907D01*
X0658784Y0122777D01*
X0658700Y0122649D01*
X0658612Y0122523D01*
X0658521Y0122400D01*
X0658427Y0122279D01*
X0658329Y0122161D01*
X0658229Y0122045D01*
X0658125Y0121932D01*
X0658019Y0121821D01*
X0657910Y0121713D01*
X0657798Y0121608D01*
X0657684Y0121507D01*
X0657566Y0121408D01*
X0657447Y0121312D01*
X0657325Y0121219D01*
X0657200Y0121130D01*
X0657073Y0121043D01*
X0656944Y0120961D01*
X0656813Y0120881D01*
X0656680Y0120805D01*
X0656545Y0120732D01*
X0656408Y0120663D01*
X0656269Y0120598D01*
X0656129Y0120536D01*
X0655987Y0120478D01*
X0655844Y0120423D01*
X0655699Y0120372D01*
X0655553Y0120325D01*
X0655406Y0120282D01*
X0655258Y0120243D01*
X0655109Y0120207D01*
X0654959Y0120176D01*
X0654808Y0120148D01*
X0654657Y0120124D01*
X0654504Y0120104D01*
X0654352Y0120088D01*
X0654199Y0120076D01*
X0654046Y0120068D01*
X0653893Y0120064D01*
X0653739Y0120064D01*
X0653586Y0120068D01*
X0653433Y0120076D01*
X0653280Y0120088D01*
X0653128Y0120104D01*
X0652975Y0120124D01*
X0652824Y0120148D01*
X0652673Y0120176D01*
X0652523Y0120207D01*
X0652374Y0120243D01*
X0652226Y0120282D01*
X0652079Y0120325D01*
X0651933Y0120372D01*
X0651788Y0120423D01*
X0651645Y0120478D01*
X0651503Y0120536D01*
X0651363Y0120598D01*
X0651224Y0120663D01*
X0651087Y0120732D01*
X0650952Y0120805D01*
X0650819Y0120881D01*
X0650688Y0120961D01*
X0650559Y0121043D01*
X0650432Y0121130D01*
X0650307Y0121219D01*
X0650185Y0121312D01*
X0650066Y0121408D01*
X0649948Y0121507D01*
X0649834Y0121608D01*
X0649722Y0121713D01*
X0649613Y0121821D01*
X0649507Y0121932D01*
X0649403Y0122045D01*
X0649303Y0122161D01*
X0649205Y0122279D01*
X0649111Y0122400D01*
X0649020Y0122523D01*
X0648932Y0122649D01*
X0648848Y0122777D01*
X0648766Y0122907D01*
X0648689Y0123039D01*
X0648614Y0123173D01*
X0648543Y0123309D01*
X0648476Y0123447D01*
X0648412Y0123587D01*
X0648352Y0123728D01*
X0648296Y0123870D01*
X0648243Y0124014D01*
X0648194Y0124160D01*
X0648149Y0124306D01*
X0648108Y0124454D01*
X0648071Y0124602D01*
X0648037Y0124752D01*
X0648007Y0124903D01*
X0647982Y0125054D01*
X0647960Y0125205D01*
X0647942Y0125358D01*
X0647928Y0125510D01*
X0647918Y0125663D01*
X0647912Y0125817D01*
X0647910Y0125970D01*
D11*
X0517458Y0125103D02*
X0517458Y0121900D01*
X0517458Y0125103D02*
X0516390Y0126170D01*
X0514255Y0126170D01*
X0513187Y0125103D01*
X0513187Y0128305D02*
X0513187Y0121900D01*
X0511012Y0121900D02*
X0506742Y0121900D01*
X0508877Y0121900D02*
X0508877Y0128305D01*
X0506742Y0126170D01*
X0504587Y0122968D02*
X0504587Y0121900D01*
X0503519Y0121900D01*
X0503519Y0122968D01*
X0504587Y0122968D01*
X0501344Y0121900D02*
X0497074Y0121900D01*
X0499209Y0121900D02*
X0499209Y0128305D01*
X0497074Y0126170D01*
X0494898Y0126170D02*
X0492763Y0121900D01*
X0490628Y0126170D01*
X0482007Y0125103D02*
X0482007Y0124035D01*
X0477737Y0124035D01*
X0477737Y0122968D02*
X0477737Y0125103D01*
X0478805Y0126170D01*
X0480940Y0126170D01*
X0482007Y0125103D01*
X0480940Y0121900D02*
X0478805Y0121900D01*
X0477737Y0122968D01*
X0475562Y0126170D02*
X0473427Y0121900D01*
X0471292Y0126170D01*
X0468062Y0126170D02*
X0468062Y0121900D01*
X0466995Y0121900D02*
X0469130Y0121900D01*
X0468062Y0126170D02*
X0466995Y0126170D01*
X0468062Y0128305D02*
X0468062Y0129373D01*
X0464819Y0128305D02*
X0460549Y0128305D01*
X0460549Y0121900D01*
X0458374Y0124035D02*
X0454104Y0124035D01*
X0454104Y0122968D02*
X0454104Y0125103D01*
X0455171Y0126170D01*
X0457306Y0126170D01*
X0458374Y0125103D01*
X0458374Y0124035D01*
X0457306Y0121900D02*
X0455171Y0121900D01*
X0454104Y0122968D01*
X0451942Y0121900D02*
X0449807Y0121900D01*
X0450874Y0121900D02*
X0450874Y0128305D01*
X0449807Y0128305D01*
X0447631Y0125103D02*
X0446564Y0126170D01*
X0443361Y0126170D01*
X0443361Y0128305D02*
X0443361Y0121900D01*
X0446564Y0121900D01*
X0447631Y0122968D01*
X0447631Y0125103D01*
X0441186Y0125103D02*
X0441186Y0121900D01*
X0439051Y0121900D02*
X0439051Y0125103D01*
X0440118Y0126170D01*
X0441186Y0125103D01*
X0439051Y0125103D02*
X0437983Y0126170D01*
X0436916Y0126170D01*
X0436916Y0121900D01*
X0434741Y0124035D02*
X0430470Y0124035D01*
X0430470Y0122968D02*
X0430470Y0125103D01*
X0431538Y0126170D01*
X0433673Y0126170D01*
X0434741Y0125103D01*
X0434741Y0124035D01*
X0433673Y0121900D02*
X0431538Y0121900D01*
X0430470Y0122968D01*
X0428295Y0122968D02*
X0427227Y0124035D01*
X0425092Y0124035D01*
X0424025Y0125103D01*
X0425092Y0126170D01*
X0428295Y0126170D01*
X0428295Y0122968D02*
X0427227Y0121900D01*
X0424025Y0121900D01*
X0421850Y0121900D02*
X0421850Y0125103D01*
X0420782Y0126170D01*
X0417579Y0126170D01*
X0417579Y0121900D01*
X0415404Y0121900D02*
X0411134Y0121900D01*
X0411134Y0128305D01*
X0415404Y0128305D01*
X0413269Y0125103D02*
X0411134Y0125103D01*
X0402513Y0124035D02*
X0402513Y0122968D01*
X0401445Y0121900D01*
X0399310Y0121900D01*
X0398243Y0122968D01*
X0396068Y0122968D02*
X0396068Y0127238D01*
X0395000Y0128305D01*
X0392865Y0128305D01*
X0391797Y0127238D01*
X0391797Y0122968D01*
X0392865Y0121900D01*
X0395000Y0121900D01*
X0396068Y0122968D01*
X0398243Y0126170D02*
X0399310Y0125103D01*
X0401445Y0125103D01*
X0402513Y0124035D01*
X0402513Y0127238D02*
X0401445Y0128305D01*
X0399310Y0128305D01*
X0398243Y0127238D01*
X0398243Y0126170D01*
X0389622Y0126170D02*
X0388554Y0125103D01*
X0385352Y0125103D01*
X0383177Y0127238D02*
X0382109Y0128305D01*
X0379974Y0128305D01*
X0378906Y0127238D01*
X0378906Y0122968D01*
X0379974Y0121900D01*
X0382109Y0121900D01*
X0383177Y0122968D01*
X0383177Y0127238D01*
X0385352Y0128305D02*
X0388554Y0128305D01*
X0389622Y0127238D01*
X0389622Y0126170D01*
X0388554Y0125103D02*
X0389622Y0124035D01*
X0389622Y0122968D01*
X0388554Y0121900D01*
X0385352Y0121900D01*
X0385352Y0128305D01*
X0376731Y0128305D02*
X0376731Y0121900D01*
X0376731Y0125103D02*
X0372461Y0125103D01*
X0370286Y0125103D02*
X0369218Y0124035D01*
X0366015Y0124035D01*
X0366015Y0121900D02*
X0366015Y0128305D01*
X0369218Y0128305D01*
X0370286Y0127238D01*
X0370286Y0125103D01*
X0372461Y0128305D02*
X0372461Y0121900D01*
X0460549Y0125103D02*
X0462684Y0125103D01*
D12*
X0516965Y0199100D03*
X0526965Y0199100D03*
X0626965Y0214100D03*
X0626965Y0226600D03*
X0656965Y0226600D03*
X0656965Y0214100D03*
X0656965Y0291600D03*
X0626965Y0291600D03*
X0526965Y0369100D03*
X0516965Y0369100D03*
X0426965Y0356895D03*
X0396965Y0356895D03*
X0396965Y0369100D03*
X0386965Y0369100D03*
X0376965Y0369100D03*
X0366965Y0369100D03*
X0356965Y0369100D03*
X0346965Y0369100D03*
X0336965Y0369100D03*
X0326965Y0369100D03*
X0310965Y0369100D03*
X0300965Y0369100D03*
X0290965Y0369100D03*
X0280965Y0369100D03*
X0270965Y0369100D03*
X0260965Y0369100D03*
X0250965Y0369100D03*
X0240965Y0369100D03*
X0236670Y0396600D03*
X0276670Y0396600D03*
X0324465Y0403805D03*
X0364465Y0403805D03*
X0300965Y0359100D03*
X0290965Y0359100D03*
X0290965Y0349100D03*
X0300965Y0349100D03*
X0179465Y0439395D03*
X0179465Y0469395D03*
X0266965Y0459395D03*
X0276965Y0459395D03*
X0286965Y0459395D03*
X0296965Y0459395D03*
X0291965Y0469395D03*
X0281965Y0469395D03*
X0271965Y0469395D03*
X0366965Y0459395D03*
X0376965Y0459395D03*
X0386965Y0459395D03*
X0396965Y0459395D03*
X0391965Y0469395D03*
X0381965Y0469395D03*
X0371965Y0469395D03*
X0466965Y0459395D03*
X0476965Y0459395D03*
X0486965Y0459395D03*
X0496965Y0459395D03*
X0491965Y0469395D03*
X0481965Y0469395D03*
X0471965Y0469395D03*
X0566965Y0459395D03*
X0576965Y0459395D03*
X0586965Y0459395D03*
X0581965Y0469395D03*
X0571965Y0469395D03*
X0591965Y0469395D03*
X0596965Y0459395D03*
X0326965Y0179100D03*
X0316965Y0179100D03*
X0306965Y0179100D03*
X0296965Y0179100D03*
X0286965Y0179100D03*
X0276965Y0179100D03*
D13*
X0301965Y0469395D03*
X0401965Y0469395D03*
X0501965Y0469395D03*
X0601965Y0469395D03*
D14*
X0526965Y0249100D03*
X0516965Y0249100D03*
X0516965Y0239100D03*
X0526965Y0239100D03*
D15*
X0264465Y0423805D03*
X0351965Y0428805D03*
D16*
X0338215Y0428805D03*
X0250715Y0423805D03*
D17*
X0166965Y0271600D03*
X0146965Y0271600D03*
X0266965Y0256600D03*
X0286965Y0256600D03*
X0391965Y0256600D03*
X0411965Y0256600D03*
X0451965Y0256600D03*
X0471965Y0256600D03*
D18*
X0486965Y0256600D03*
X0496965Y0256600D03*
X0436965Y0256600D03*
X0426965Y0256600D03*
X0311965Y0256600D03*
X0301965Y0256600D03*
X0196965Y0276600D03*
X0186965Y0276600D03*
D19*
X0176965Y0254800D02*
X0176965Y0248400D01*
X0166965Y0248400D02*
X0166965Y0254800D01*
X0156965Y0254800D02*
X0156965Y0248400D01*
X0265015Y0296895D02*
X0271415Y0296895D01*
X0271415Y0306895D02*
X0265015Y0306895D01*
X0265015Y0316895D02*
X0271415Y0316895D01*
X0297765Y0316600D02*
X0304165Y0316600D01*
X0304165Y0306600D02*
X0297765Y0306600D01*
X0297765Y0296600D02*
X0304165Y0296600D01*
X0296965Y0239800D02*
X0296965Y0233400D01*
X0286965Y0233400D02*
X0286965Y0239800D01*
X0276965Y0239800D02*
X0276965Y0233400D01*
X0401965Y0233400D02*
X0401965Y0239800D01*
X0411965Y0239800D02*
X0411965Y0233400D01*
X0421965Y0233400D02*
X0421965Y0239800D01*
X0461965Y0239800D02*
X0461965Y0233400D01*
X0471965Y0233400D02*
X0471965Y0239800D01*
X0481965Y0239800D02*
X0481965Y0233400D01*
D20*
X0616965Y0241000D02*
X0616965Y0246600D01*
X0626965Y0246600D02*
X0626965Y0241000D01*
X0636965Y0241000D02*
X0636965Y0246600D01*
X0646965Y0246600D02*
X0646965Y0241000D01*
X0646965Y0276600D02*
X0646965Y0282200D01*
X0636965Y0282200D02*
X0636965Y0276600D01*
X0626965Y0276600D02*
X0626965Y0282200D01*
X0616965Y0282200D02*
X0616965Y0276600D01*
D21*
X0721486Y0279080D02*
X0728586Y0279080D01*
X0728586Y0259395D02*
X0721486Y0259395D01*
X0721486Y0239710D02*
X0728586Y0239710D01*
X0728507Y0199553D02*
X0721407Y0199553D01*
X0721407Y0179868D02*
X0728507Y0179868D01*
X0728507Y0160183D02*
X0721407Y0160183D01*
X0721407Y0140498D02*
X0728507Y0140498D01*
X0152436Y0145053D02*
X0145336Y0145053D01*
X0145336Y0164738D02*
X0152436Y0164738D01*
X0152436Y0184423D02*
X0145336Y0184423D01*
X0145336Y0204108D02*
X0152436Y0204108D01*
X0152936Y0449710D02*
X0145836Y0449710D01*
X0145836Y0469395D02*
X0152936Y0469395D01*
X0152936Y0489080D02*
X0145836Y0489080D01*
D22*
X0276670Y0396600D02*
X0276965Y0396305D01*
X0271965Y0381600D01*
X0211965Y0381600D01*
X0196965Y0366600D01*
X0196965Y0276600D01*
X0290965Y0359100D02*
X0291265Y0359100D01*
X0291265Y0369000D01*
X0290965Y0369100D01*
X0300965Y0369100D02*
X0301165Y0369000D01*
X0301165Y0359100D01*
X0300965Y0359100D01*
X0320090Y0366600D02*
X0320090Y0371600D01*
X0346965Y0403475D01*
X0364465Y0403475D01*
X0364465Y0403805D01*
X0371965Y0386600D02*
X0542590Y0386600D01*
X0548840Y0379725D02*
X0563840Y0394725D01*
X0563840Y0409725D01*
X0542590Y0430975D01*
X0542590Y0431600D01*
X0558840Y0439725D02*
X0581965Y0416600D01*
X0581965Y0404725D01*
X0527590Y0350350D01*
X0355715Y0350350D01*
X0346965Y0369100D01*
X0356965Y0369100D02*
X0362590Y0379725D01*
X0548840Y0379725D01*
X0591965Y0406600D02*
X0591965Y0431600D01*
X0578215Y0445350D01*
X0578215Y0446600D01*
X0591965Y0406600D02*
X0456965Y0271600D01*
X0441965Y0271600D01*
X0436965Y0266600D01*
X0436965Y0256600D01*
X0325715Y0359725D02*
X0325715Y0360975D01*
X0320090Y0366600D01*
X0355715Y0136600D02*
X0525715Y0136600D01*
X0525715Y0115800D01*
X0355715Y0115800D01*
X0355715Y0136600D01*
X0355715Y0135582D02*
X0525715Y0135582D01*
X0525715Y0133584D02*
X0469656Y0133584D01*
X0468957Y0133873D02*
X0467167Y0133873D01*
X0465513Y0133188D01*
X0465131Y0132805D01*
X0459654Y0132805D01*
X0458000Y0132120D01*
X0456734Y0130855D01*
X0456658Y0130670D01*
X0454765Y0130670D01*
X0454689Y0130855D01*
X0453423Y0132120D01*
X0451769Y0132805D01*
X0448912Y0132805D01*
X0447258Y0132120D01*
X0446584Y0131447D01*
X0445910Y0132120D01*
X0444256Y0132805D01*
X0442466Y0132805D01*
X0440812Y0132120D01*
X0439546Y0130855D01*
X0439470Y0130670D01*
X0439223Y0130670D01*
X0439051Y0130599D01*
X0438878Y0130670D01*
X0436021Y0130670D01*
X0435294Y0130369D01*
X0434568Y0130670D01*
X0430643Y0130670D01*
X0429967Y0130391D01*
X0429916Y0130369D01*
X0429190Y0130670D01*
X0424197Y0130670D01*
X0423522Y0130391D01*
X0422937Y0130148D01*
X0421677Y0130670D01*
X0419295Y0130670D01*
X0419219Y0130855D01*
X0417953Y0132120D01*
X0416299Y0132805D01*
X0410239Y0132805D01*
X0408585Y0132120D01*
X0407319Y0130855D01*
X0406634Y0129201D01*
X0406634Y0129049D01*
X0406328Y0129787D01*
X0405179Y0130936D01*
X0403994Y0132120D01*
X0403730Y0132230D01*
X0402341Y0132805D01*
X0398415Y0132805D01*
X0397155Y0132284D01*
X0397129Y0132294D01*
X0395895Y0132805D01*
X0391970Y0132805D01*
X0390710Y0132284D01*
X0389450Y0132805D01*
X0384457Y0132805D01*
X0383730Y0132505D01*
X0383004Y0132805D01*
X0379079Y0132805D01*
X0378352Y0132505D01*
X0377626Y0132805D01*
X0375836Y0132805D01*
X0374596Y0132292D01*
X0373356Y0132805D01*
X0371566Y0132805D01*
X0370839Y0132505D01*
X0370113Y0132805D01*
X0365120Y0132805D01*
X0363466Y0132120D01*
X0362200Y0130855D01*
X0361515Y0129201D01*
X0361515Y0127410D01*
X0361515Y0121005D01*
X0362200Y0119351D01*
X0363466Y0118085D01*
X0365120Y0117400D01*
X0366910Y0117400D01*
X0368564Y0118085D01*
X0369238Y0118759D01*
X0369912Y0118085D01*
X0371566Y0117400D01*
X0373356Y0117400D01*
X0374596Y0117914D01*
X0375836Y0117400D01*
X0377626Y0117400D01*
X0378352Y0117701D01*
X0379079Y0117400D01*
X0383004Y0117400D01*
X0383730Y0117701D01*
X0384457Y0117400D01*
X0389450Y0117400D01*
X0390710Y0117922D01*
X0391970Y0117400D01*
X0395895Y0117400D01*
X0397155Y0117922D01*
X0398415Y0117400D01*
X0402341Y0117400D01*
X0403730Y0117976D01*
X0403994Y0118085D01*
X0403994Y0118085D01*
X0403994Y0118085D01*
X0405062Y0119153D01*
X0406310Y0120401D01*
X0406328Y0120418D01*
X0406328Y0120419D01*
X0406634Y0121157D01*
X0406634Y0121005D01*
X0407319Y0119351D01*
X0408585Y0118085D01*
X0410239Y0117400D01*
X0416299Y0117400D01*
X0416492Y0117480D01*
X0416684Y0117400D01*
X0418474Y0117400D01*
X0419714Y0117914D01*
X0420954Y0117400D01*
X0422745Y0117400D01*
X0422937Y0117480D01*
X0423130Y0117400D01*
X0428123Y0117400D01*
X0429383Y0117922D01*
X0430643Y0117400D01*
X0434568Y0117400D01*
X0435294Y0117701D01*
X0436021Y0117400D01*
X0437811Y0117400D01*
X0437983Y0117471D01*
X0438156Y0117400D01*
X0439946Y0117400D01*
X0440118Y0117471D01*
X0440291Y0117400D01*
X0442081Y0117400D01*
X0442274Y0117480D01*
X0442466Y0117400D01*
X0447459Y0117400D01*
X0448185Y0117701D01*
X0448912Y0117400D01*
X0452837Y0117400D01*
X0453557Y0117698D01*
X0454276Y0117400D01*
X0458202Y0117400D01*
X0458928Y0117701D01*
X0459654Y0117400D01*
X0461444Y0117400D01*
X0463098Y0118085D01*
X0463772Y0118759D01*
X0464446Y0118085D01*
X0466100Y0117400D01*
X0470025Y0117400D01*
X0471216Y0117893D01*
X0471700Y0117732D01*
X0472215Y0117475D01*
X0472542Y0117452D01*
X0472853Y0117348D01*
X0473427Y0117389D01*
X0474001Y0117348D01*
X0474312Y0117452D01*
X0474639Y0117475D01*
X0475153Y0117732D01*
X0475699Y0117914D01*
X0475947Y0118129D01*
X0476124Y0118217D01*
X0476256Y0118085D01*
X0477910Y0117400D01*
X0481835Y0117400D01*
X0483489Y0118085D01*
X0484755Y0119351D01*
X0485440Y0121005D01*
X0485440Y0121104D01*
X0485822Y0121486D01*
X0486507Y0123140D01*
X0486507Y0124349D01*
X0488595Y0120174D01*
X0488777Y0119628D01*
X0488992Y0119380D01*
X0489139Y0119087D01*
X0489573Y0118710D01*
X0489950Y0118275D01*
X0490243Y0118129D01*
X0490491Y0117914D01*
X0491037Y0117732D01*
X0491551Y0117475D01*
X0491878Y0117452D01*
X0492189Y0117348D01*
X0492763Y0117389D01*
X0493337Y0117348D01*
X0493648Y0117452D01*
X0493975Y0117475D01*
X0494490Y0117732D01*
X0494981Y0117896D01*
X0496179Y0117400D01*
X0502239Y0117400D01*
X0502432Y0117480D01*
X0502624Y0117400D01*
X0505482Y0117400D01*
X0505664Y0117476D01*
X0505847Y0117400D01*
X0511907Y0117400D01*
X0512100Y0117480D01*
X0512292Y0117400D01*
X0514083Y0117400D01*
X0515323Y0117914D01*
X0516563Y0117400D01*
X0518353Y0117400D01*
X0520007Y0118085D01*
X0521273Y0119351D01*
X0521958Y0121005D01*
X0521958Y0125998D01*
X0521273Y0127652D01*
X0520007Y0128918D01*
X0518939Y0129985D01*
X0517285Y0130670D01*
X0517079Y0130670D01*
X0517002Y0130855D01*
X0515736Y0132120D01*
X0514083Y0132805D01*
X0512292Y0132805D01*
X0511032Y0132284D01*
X0509772Y0132805D01*
X0507982Y0132805D01*
X0506328Y0132120D01*
X0505062Y0130855D01*
X0503621Y0129413D01*
X0503024Y0130855D01*
X0501758Y0132120D01*
X0500104Y0132805D01*
X0498314Y0132805D01*
X0496660Y0132120D01*
X0495200Y0130660D01*
X0494325Y0130722D01*
X0492763Y0130202D01*
X0491202Y0130722D01*
X0489416Y0130596D01*
X0487815Y0129795D01*
X0486642Y0128443D01*
X0486131Y0126908D01*
X0485822Y0127652D01*
X0484557Y0128918D01*
X0483489Y0129985D01*
X0481835Y0130670D01*
X0477910Y0130670D01*
X0477234Y0130391D01*
X0477207Y0130379D01*
X0476774Y0130596D01*
X0474988Y0130722D01*
X0473427Y0130202D01*
X0472456Y0130526D01*
X0471877Y0131922D01*
X0470611Y0133188D01*
X0468957Y0133873D01*
X0466468Y0133584D02*
X0355715Y0133584D01*
X0355715Y0131585D02*
X0362931Y0131585D01*
X0361675Y0129587D02*
X0355715Y0129587D01*
X0355715Y0127588D02*
X0361515Y0127588D01*
X0361515Y0125590D02*
X0355715Y0125590D01*
X0355715Y0123591D02*
X0361515Y0123591D01*
X0361515Y0121593D02*
X0355715Y0121593D01*
X0355715Y0119594D02*
X0362100Y0119594D01*
X0364648Y0117596D02*
X0355715Y0117596D01*
X0367382Y0117596D02*
X0371094Y0117596D01*
X0373828Y0117596D02*
X0375364Y0117596D01*
X0378098Y0117596D02*
X0378607Y0117596D01*
X0383476Y0117596D02*
X0383985Y0117596D01*
X0389922Y0117596D02*
X0391498Y0117596D01*
X0396367Y0117596D02*
X0397943Y0117596D01*
X0402813Y0117596D02*
X0409767Y0117596D01*
X0407218Y0119594D02*
X0405503Y0119594D01*
X0405062Y0119153D02*
X0405062Y0119153D01*
X0406328Y0120419D02*
X0406328Y0120419D01*
X0406411Y0129587D02*
X0406794Y0129587D01*
X0408049Y0131585D02*
X0404530Y0131585D01*
X0403994Y0132120D02*
X0403994Y0132120D01*
X0418488Y0131585D02*
X0440277Y0131585D01*
X0446445Y0131585D02*
X0446722Y0131585D01*
X0453959Y0131585D02*
X0457465Y0131585D01*
X0472017Y0131585D02*
X0496125Y0131585D01*
X0502293Y0131585D02*
X0505793Y0131585D01*
X0503794Y0129587D02*
X0503549Y0129587D01*
X0516272Y0131585D02*
X0525715Y0131585D01*
X0525715Y0129587D02*
X0519338Y0129587D01*
X0521299Y0127588D02*
X0525715Y0127588D01*
X0525715Y0125590D02*
X0521958Y0125590D01*
X0521958Y0123591D02*
X0525715Y0123591D01*
X0525715Y0121593D02*
X0521958Y0121593D01*
X0521373Y0119594D02*
X0525715Y0119594D01*
X0525715Y0117596D02*
X0518825Y0117596D01*
X0516091Y0117596D02*
X0514555Y0117596D01*
X0495706Y0117596D02*
X0494217Y0117596D01*
X0491310Y0117596D02*
X0482307Y0117596D01*
X0484855Y0119594D02*
X0488807Y0119594D01*
X0487886Y0121593D02*
X0485866Y0121593D01*
X0486507Y0123591D02*
X0486887Y0123591D01*
X0486357Y0127588D02*
X0485849Y0127588D01*
X0487634Y0129587D02*
X0483888Y0129587D01*
X0477438Y0117596D02*
X0474880Y0117596D01*
X0471973Y0117596D02*
X0470497Y0117596D01*
X0465627Y0117596D02*
X0461916Y0117596D01*
X0459182Y0117596D02*
X0458674Y0117596D01*
X0453804Y0117596D02*
X0453309Y0117596D01*
X0448440Y0117596D02*
X0447931Y0117596D01*
X0435549Y0117596D02*
X0435040Y0117596D01*
X0430171Y0117596D02*
X0428595Y0117596D01*
X0420482Y0117596D02*
X0418946Y0117596D01*
D23*
X0408840Y0338475D03*
X0360090Y0342225D03*
X0325715Y0359725D03*
X0371965Y0386600D03*
X0486965Y0401600D03*
X0486965Y0436600D03*
X0542590Y0431600D03*
X0558840Y0439725D03*
X0578215Y0446600D03*
X0542590Y0386600D03*
X0503215Y0364725D03*
X0441965Y0491600D03*
X0217590Y0355350D03*
D24*
X0275715Y0355350D01*
X0288840Y0342225D01*
X0360090Y0342225D01*
X0336965Y0369100D02*
X0336965Y0371600D01*
X0349465Y0386600D01*
X0359465Y0386600D01*
X0426965Y0454100D01*
X0426965Y0486600D01*
X0431965Y0491600D01*
X0441965Y0491600D01*
X0397465Y0369000D02*
X0397465Y0364725D01*
X0503215Y0364725D01*
X0504565Y0357300D02*
X0516365Y0369100D01*
X0516965Y0369100D01*
X0526965Y0369100D01*
X0504565Y0357300D02*
X0427165Y0357300D01*
X0426965Y0356895D01*
X0408840Y0338475D02*
X0335715Y0265350D01*
X0184465Y0265350D01*
X0175715Y0274100D01*
X0175715Y0291600D01*
X0151965Y0315350D01*
X0151965Y0411895D01*
X0179465Y0439395D01*
X0396965Y0369100D02*
X0397465Y0369000D01*
X0397465Y0364725D02*
X0397465Y0357300D01*
X0396965Y0356895D01*
D25*
X0486965Y0401600D02*
X0486965Y0436600D01*
D26*
X0411911Y0446400D02*
X0372085Y0406574D01*
X0371332Y0408393D01*
X0369053Y0410672D01*
X0366076Y0411905D01*
X0362854Y0411905D01*
X0359877Y0410672D01*
X0358080Y0408875D01*
X0347803Y0408875D01*
X0347578Y0408947D01*
X0346736Y0408875D01*
X0345891Y0408875D01*
X0345673Y0408784D01*
X0345437Y0408764D01*
X0344687Y0408376D01*
X0343906Y0408053D01*
X0343739Y0407886D01*
X0343529Y0407777D01*
X0342985Y0407131D01*
X0342387Y0406534D01*
X0342297Y0406315D01*
X0316180Y0375340D01*
X0315553Y0375967D01*
X0312576Y0377200D01*
X0309354Y0377200D01*
X0306377Y0375967D01*
X0305965Y0375555D01*
X0305553Y0375967D01*
X0302576Y0377200D01*
X0299354Y0377200D01*
X0296377Y0375967D01*
X0295965Y0375555D01*
X0295553Y0375967D01*
X0292576Y0377200D01*
X0289354Y0377200D01*
X0286377Y0375967D01*
X0285965Y0375555D01*
X0285553Y0375967D01*
X0282576Y0377200D01*
X0279354Y0377200D01*
X0276377Y0375967D01*
X0275965Y0375555D01*
X0275553Y0375967D01*
X0274030Y0376598D01*
X0274194Y0376678D01*
X0275024Y0377022D01*
X0275152Y0377150D01*
X0275315Y0377230D01*
X0275908Y0377906D01*
X0276543Y0378541D01*
X0276612Y0378709D01*
X0276732Y0378845D01*
X0277021Y0379696D01*
X0277365Y0380526D01*
X0277365Y0380707D01*
X0280299Y0389336D01*
X0281258Y0389733D01*
X0283537Y0392012D01*
X0284770Y0394989D01*
X0284770Y0398211D01*
X0283537Y0401188D01*
X0281258Y0403467D01*
X0278281Y0404700D01*
X0275059Y0404700D01*
X0272082Y0403467D01*
X0269803Y0401188D01*
X0268570Y0398211D01*
X0268570Y0394989D01*
X0269802Y0392013D01*
X0268098Y0387000D01*
X0210891Y0387000D01*
X0208906Y0386178D01*
X0207387Y0384659D01*
X0192387Y0369659D01*
X0191565Y0367674D01*
X0191565Y0281382D01*
X0190410Y0280227D01*
X0189036Y0281600D01*
X0186965Y0281600D01*
X0184894Y0281600D01*
X0181965Y0278671D01*
X0181965Y0401557D01*
X0182039Y0401600D02*
X0230215Y0401600D01*
X0229803Y0401188D02*
X0228570Y0398211D01*
X0228570Y0394989D01*
X0229803Y0392012D01*
X0232082Y0389733D01*
X0235059Y0388500D01*
X0238281Y0388500D01*
X0241258Y0389733D01*
X0243537Y0392012D01*
X0244770Y0394989D01*
X0244770Y0398211D01*
X0243537Y0401188D01*
X0241258Y0403467D01*
X0238281Y0404700D01*
X0235059Y0404700D01*
X0232082Y0403467D01*
X0229803Y0401188D01*
X0231965Y0403350D02*
X0231965Y0501199D01*
X0226965Y0501199D02*
X0226965Y0387000D01*
X0221965Y0387000D02*
X0221965Y0501199D01*
X0216965Y0501199D02*
X0216965Y0387000D01*
X0211965Y0387000D02*
X0211965Y0501199D01*
X0206965Y0501198D02*
X0206965Y0384237D01*
X0204328Y0381600D02*
X0157165Y0381600D01*
X0157165Y0376600D02*
X0199328Y0376600D01*
X0196965Y0374237D02*
X0196965Y0501198D01*
X0191965Y0501198D02*
X0191965Y0368640D01*
X0191565Y0366600D02*
X0157165Y0366600D01*
X0157165Y0361600D02*
X0191565Y0361600D01*
X0191565Y0356600D02*
X0157165Y0356600D01*
X0157165Y0351600D02*
X0191565Y0351600D01*
X0191565Y0346600D02*
X0157165Y0346600D01*
X0157165Y0341600D02*
X0191565Y0341600D01*
X0191565Y0336600D02*
X0157165Y0336600D01*
X0157165Y0331600D02*
X0191565Y0331600D01*
X0191565Y0326600D02*
X0157165Y0326600D01*
X0157165Y0321600D02*
X0191565Y0321600D01*
X0191565Y0316600D02*
X0158069Y0316600D01*
X0157165Y0317504D02*
X0157165Y0409741D01*
X0178719Y0431295D01*
X0181076Y0431295D01*
X0184053Y0432528D01*
X0186332Y0434807D01*
X0187565Y0437784D01*
X0187565Y0441006D01*
X0186332Y0443984D01*
X0184053Y0446262D01*
X0181076Y0447495D01*
X0177854Y0447495D01*
X0174877Y0446262D01*
X0172598Y0443984D01*
X0171365Y0441006D01*
X0171365Y0438649D01*
X0170126Y0437410D01*
X0170915Y0439316D01*
X0170915Y0500134D01*
X0170475Y0501197D01*
X0246765Y0501200D01*
X0246765Y0450566D01*
X0247557Y0448654D01*
X0249020Y0447192D01*
X0250931Y0446400D01*
X0318000Y0446400D01*
X0319911Y0447192D01*
X0321374Y0448654D01*
X0322165Y0450566D01*
X0322165Y0501202D01*
X0346765Y0501203D01*
X0346765Y0450566D01*
X0347557Y0448654D01*
X0347565Y0448647D01*
X0347218Y0448659D01*
X0346557Y0448775D01*
X0346193Y0448694D01*
X0345501Y0448718D01*
X0345143Y0448824D01*
X0344476Y0448754D01*
X0343806Y0448777D01*
X0343457Y0448646D01*
X0342768Y0448574D01*
X0342399Y0448629D01*
X0341748Y0448466D01*
X0341081Y0448396D01*
X0340754Y0448218D01*
X0340081Y0448050D01*
X0339709Y0448053D01*
X0339087Y0447802D01*
X0338436Y0447639D01*
X0338136Y0447418D01*
X0337494Y0447158D01*
X0337125Y0447109D01*
X0336544Y0446774D01*
X0335922Y0446522D01*
X0335656Y0446261D01*
X0335056Y0445914D01*
X0334697Y0445815D01*
X0334168Y0445402D01*
X0333587Y0445066D01*
X0333361Y0444770D01*
X0332815Y0444344D01*
X0332473Y0444195D01*
X0332007Y0443712D01*
X0331478Y0443299D01*
X0331295Y0442975D01*
X0330814Y0442476D01*
X0330496Y0442282D01*
X0330102Y0441739D01*
X0329636Y0441256D01*
X0329499Y0440910D01*
X0329092Y0440349D01*
X0328805Y0440112D01*
X0328490Y0439520D01*
X0328095Y0438977D01*
X0328008Y0438614D01*
X0327683Y0438003D01*
X0327431Y0437728D01*
X0327202Y0437097D01*
X0326887Y0436505D01*
X0326852Y0436134D01*
X0326615Y0435483D01*
X0326404Y0435176D01*
X0326264Y0434520D01*
X0326035Y0433889D01*
X0326051Y0433517D01*
X0325907Y0432839D01*
X0325741Y0432506D01*
X0325694Y0431836D01*
X0325554Y0431180D01*
X0325622Y0430814D01*
X0325587Y0430307D01*
X0325515Y0430134D01*
X0325515Y0429282D01*
X0325456Y0428431D01*
X0325485Y0428342D01*
X0325418Y0428060D01*
X0325515Y0427442D01*
X0325515Y0426816D01*
X0325675Y0426430D01*
X0325765Y0425859D01*
X0325728Y0425515D01*
X0325925Y0424847D01*
X0326034Y0424158D01*
X0326215Y0423863D01*
X0326357Y0423378D01*
X0326365Y0423032D01*
X0326647Y0422394D01*
X0326844Y0421725D01*
X0327061Y0421456D01*
X0327265Y0420993D01*
X0327318Y0420651D01*
X0327679Y0420055D01*
X0327961Y0419417D01*
X0328211Y0419178D01*
X0328473Y0418746D01*
X0328570Y0418413D01*
X0329005Y0417869D01*
X0329367Y0417273D01*
X0329646Y0417068D01*
X0329962Y0416673D01*
X0330100Y0416356D01*
X0330602Y0415873D01*
X0331038Y0415328D01*
X0331341Y0415161D01*
X0331705Y0414811D01*
X0331883Y0414514D01*
X0332444Y0414099D01*
X0332946Y0413616D01*
X0333268Y0413489D01*
X0333675Y0413188D01*
X0333890Y0412917D01*
X0334499Y0412579D01*
X0335059Y0412164D01*
X0335395Y0412080D01*
X0335837Y0411834D01*
X0336086Y0411593D01*
X0336734Y0411336D01*
X0337343Y0410997D01*
X0337687Y0410958D01*
X0338169Y0410766D01*
X0338458Y0410553D01*
X0339122Y0410388D01*
X0339758Y0410135D01*
X0340117Y0410141D01*
X0340776Y0409977D01*
X0341104Y0409799D01*
X0341771Y0409730D01*
X0342422Y0409568D01*
X0342791Y0409624D01*
X0343480Y0409552D01*
X0343829Y0409422D01*
X0344500Y0409446D01*
X0345167Y0409376D01*
X0345524Y0409482D01*
X0346217Y0409507D01*
X0346581Y0409427D01*
X0347241Y0409544D01*
X0347911Y0409568D01*
X0348251Y0409723D01*
X0348933Y0409844D01*
X0349304Y0409815D01*
X0349942Y0410022D01*
X0350603Y0410139D01*
X0350917Y0410340D01*
X0351576Y0410555D01*
X0351948Y0410578D01*
X0352550Y0410872D01*
X0353188Y0411080D01*
X0353471Y0411322D01*
X0354094Y0411627D01*
X0354459Y0411701D01*
X0355015Y0412077D01*
X0355617Y0412371D01*
X0355864Y0412651D01*
X0356438Y0413039D01*
X0356790Y0413163D01*
X0357288Y0413612D01*
X0357844Y0413988D01*
X0358049Y0414299D01*
X0358564Y0414763D01*
X0358894Y0414935D01*
X0359325Y0415449D01*
X0359823Y0415899D01*
X0359983Y0416235D01*
X0360428Y0416766D01*
X0360732Y0416983D01*
X0361087Y0417552D01*
X0361517Y0418066D01*
X0361629Y0418422D01*
X0361996Y0419010D01*
X0362266Y0419266D01*
X0362539Y0419879D01*
X0362894Y0420449D01*
X0362955Y0420816D01*
X0363236Y0421449D01*
X0363468Y0421741D01*
X0363653Y0422386D01*
X0363925Y0422999D01*
X0363935Y0423372D01*
X0364125Y0424038D01*
X0364314Y0424359D01*
X0364407Y0425024D01*
X0364591Y0425668D01*
X0364549Y0426039D01*
X0364645Y0426725D01*
X0364787Y0427069D01*
X0364787Y0427740D01*
X0364880Y0428404D01*
X0364786Y0428765D01*
X0364786Y0429458D01*
X0364879Y0429819D01*
X0364785Y0430483D01*
X0364785Y0431154D01*
X0364642Y0431498D01*
X0364545Y0432184D01*
X0364587Y0432555D01*
X0364402Y0433199D01*
X0364308Y0433864D01*
X0364119Y0434185D01*
X0363928Y0434851D01*
X0363918Y0435223D01*
X0363645Y0435836D01*
X0363459Y0436481D01*
X0363227Y0436772D01*
X0362945Y0437405D01*
X0362883Y0437773D01*
X0362528Y0438341D01*
X0362254Y0438954D01*
X0361984Y0439210D01*
X0361616Y0439798D01*
X0361504Y0440153D01*
X0361073Y0440667D01*
X0360717Y0441236D01*
X0360413Y0441452D01*
X0359968Y0441982D01*
X0359807Y0442319D01*
X0359309Y0442767D01*
X0358877Y0443281D01*
X0358546Y0443453D01*
X0358031Y0443916D01*
X0357826Y0444227D01*
X0357269Y0444602D01*
X0356771Y0445051D01*
X0356419Y0445175D01*
X0355845Y0445562D01*
X0355597Y0445841D01*
X0354994Y0446135D01*
X0354601Y0446400D01*
X0411911Y0446400D01*
X0406965Y0446400D02*
X0406965Y0441454D01*
X0407111Y0441600D02*
X0360289Y0441600D01*
X0361965Y0439240D02*
X0361965Y0446400D01*
X0356965Y0446400D02*
X0356965Y0444876D01*
X0366965Y0446400D02*
X0366965Y0411537D01*
X0366812Y0411600D02*
X0377111Y0411600D01*
X0376965Y0411454D02*
X0376965Y0446400D01*
X0371965Y0446400D02*
X0371965Y0406864D01*
X0372075Y0406600D02*
X0372111Y0406600D01*
X0362118Y0411600D02*
X0354039Y0411600D01*
X0351965Y0410586D02*
X0351965Y0408875D01*
X0346965Y0408895D02*
X0346965Y0409495D01*
X0341965Y0409682D02*
X0341965Y0405922D01*
X0342453Y0406600D02*
X0332075Y0406600D01*
X0331965Y0406864D02*
X0331965Y0414453D01*
X0329994Y0416600D02*
X0274606Y0416600D01*
X0274718Y0416741D02*
X0274903Y0417386D01*
X0275175Y0417999D01*
X0275185Y0418372D01*
X0275375Y0419038D01*
X0275564Y0419359D01*
X0275657Y0420024D01*
X0275841Y0420668D01*
X0275799Y0421039D01*
X0275895Y0421725D01*
X0276037Y0422069D01*
X0276037Y0422740D01*
X0276130Y0423404D01*
X0276036Y0423765D01*
X0276036Y0424458D01*
X0276129Y0424819D01*
X0276035Y0425483D01*
X0276035Y0426154D01*
X0275892Y0426498D01*
X0275795Y0427184D01*
X0275837Y0427555D01*
X0275652Y0428199D01*
X0275558Y0428864D01*
X0275369Y0429185D01*
X0275178Y0429851D01*
X0275168Y0430223D01*
X0274895Y0430836D01*
X0274709Y0431481D01*
X0274477Y0431772D01*
X0274195Y0432405D01*
X0274133Y0432773D01*
X0273778Y0433341D01*
X0273504Y0433954D01*
X0273234Y0434210D01*
X0272866Y0434798D01*
X0272754Y0435153D01*
X0272323Y0435667D01*
X0271967Y0436236D01*
X0271663Y0436452D01*
X0271218Y0436982D01*
X0271057Y0437319D01*
X0270559Y0437767D01*
X0270127Y0438281D01*
X0269796Y0438453D01*
X0269281Y0438916D01*
X0269076Y0439227D01*
X0268519Y0439602D01*
X0268021Y0440051D01*
X0267669Y0440175D01*
X0267095Y0440562D01*
X0266847Y0440841D01*
X0266244Y0441135D01*
X0265688Y0441510D01*
X0265323Y0441584D01*
X0264700Y0441887D01*
X0264417Y0442130D01*
X0263778Y0442337D01*
X0263175Y0442630D01*
X0262803Y0442653D01*
X0262144Y0442867D01*
X0261830Y0443067D01*
X0261169Y0443183D01*
X0260531Y0443390D01*
X0260160Y0443361D01*
X0259477Y0443481D01*
X0259138Y0443636D01*
X0258468Y0443659D01*
X0257807Y0443775D01*
X0257443Y0443694D01*
X0256751Y0443718D01*
X0256393Y0443824D01*
X0255726Y0443754D01*
X0255056Y0443777D01*
X0254707Y0443646D01*
X0254018Y0443574D01*
X0253649Y0443629D01*
X0252998Y0443466D01*
X0252331Y0443396D01*
X0252004Y0443218D01*
X0251331Y0443050D01*
X0250959Y0443053D01*
X0250337Y0442802D01*
X0249686Y0442639D01*
X0249386Y0442418D01*
X0248744Y0442158D01*
X0248375Y0442109D01*
X0247794Y0441774D01*
X0247172Y0441522D01*
X0246906Y0441261D01*
X0246306Y0440914D01*
X0245947Y0440815D01*
X0245418Y0440402D01*
X0244837Y0440066D01*
X0244611Y0439770D01*
X0244065Y0439344D01*
X0243723Y0439195D01*
X0243257Y0438712D01*
X0242728Y0438299D01*
X0242545Y0437975D01*
X0242064Y0437476D01*
X0241746Y0437282D01*
X0241352Y0436739D01*
X0240886Y0436256D01*
X0240749Y0435910D01*
X0240342Y0435349D01*
X0240055Y0435112D01*
X0239740Y0434520D01*
X0239345Y0433977D01*
X0239258Y0433614D01*
X0238933Y0433003D01*
X0238681Y0432728D01*
X0238452Y0432097D01*
X0238137Y0431505D01*
X0238102Y0431134D01*
X0237865Y0430483D01*
X0237654Y0430176D01*
X0237514Y0429520D01*
X0237285Y0428889D01*
X0237301Y0428517D01*
X0237157Y0427839D01*
X0236991Y0427506D01*
X0236944Y0426836D01*
X0236804Y0426180D01*
X0236872Y0425814D01*
X0236837Y0425307D01*
X0236765Y0425134D01*
X0236765Y0424282D01*
X0236706Y0423431D01*
X0236735Y0423342D01*
X0236668Y0423060D01*
X0236765Y0422442D01*
X0236765Y0421816D01*
X0236925Y0421430D01*
X0237015Y0420859D01*
X0236978Y0420515D01*
X0237175Y0419847D01*
X0237284Y0419158D01*
X0237465Y0418863D01*
X0237607Y0418378D01*
X0237615Y0418032D01*
X0237897Y0417394D01*
X0238094Y0416725D01*
X0238311Y0416456D01*
X0238515Y0415993D01*
X0238568Y0415651D01*
X0238929Y0415055D01*
X0239211Y0414417D01*
X0239461Y0414178D01*
X0239723Y0413746D01*
X0239820Y0413413D01*
X0240255Y0412869D01*
X0240617Y0412273D01*
X0240896Y0412068D01*
X0241212Y0411673D01*
X0241350Y0411356D01*
X0241852Y0410873D01*
X0242288Y0410328D01*
X0242591Y0410161D01*
X0242955Y0409811D01*
X0243133Y0409514D01*
X0243694Y0409099D01*
X0244196Y0408616D01*
X0244518Y0408489D01*
X0244925Y0408188D01*
X0245140Y0407917D01*
X0245749Y0407579D01*
X0246309Y0407164D01*
X0246645Y0407080D01*
X0247087Y0406834D01*
X0247336Y0406593D01*
X0247984Y0406336D01*
X0248593Y0405997D01*
X0248937Y0405958D01*
X0249419Y0405766D01*
X0249708Y0405553D01*
X0250372Y0405388D01*
X0251008Y0405135D01*
X0251367Y0405141D01*
X0252026Y0404977D01*
X0252354Y0404799D01*
X0253021Y0404730D01*
X0253672Y0404568D01*
X0254041Y0404624D01*
X0254730Y0404552D01*
X0255079Y0404422D01*
X0255750Y0404446D01*
X0256417Y0404376D01*
X0256774Y0404482D01*
X0257467Y0404507D01*
X0257831Y0404427D01*
X0258491Y0404544D01*
X0259161Y0404568D01*
X0259501Y0404723D01*
X0260183Y0404844D01*
X0260554Y0404815D01*
X0261192Y0405022D01*
X0261853Y0405139D01*
X0262167Y0405340D01*
X0262826Y0405555D01*
X0263198Y0405578D01*
X0263800Y0405872D01*
X0264438Y0406080D01*
X0264721Y0406322D01*
X0265344Y0406627D01*
X0265709Y0406701D01*
X0266265Y0407077D01*
X0266867Y0407371D01*
X0267114Y0407651D01*
X0267688Y0408039D01*
X0268040Y0408163D01*
X0268538Y0408612D01*
X0269094Y0408988D01*
X0269299Y0409299D01*
X0269814Y0409763D01*
X0270144Y0409935D01*
X0270575Y0410449D01*
X0271073Y0410899D01*
X0271233Y0411235D01*
X0271678Y0411766D01*
X0271982Y0411983D01*
X0272337Y0412552D01*
X0272767Y0413066D01*
X0272879Y0413422D01*
X0273246Y0414010D01*
X0273516Y0414266D01*
X0273789Y0414879D01*
X0274144Y0415449D01*
X0274205Y0415816D01*
X0274486Y0416449D01*
X0274718Y0416741D01*
X0275878Y0421600D02*
X0326945Y0421600D01*
X0326965Y0421574D02*
X0326965Y0411537D01*
X0326812Y0411600D02*
X0336079Y0411600D01*
X0336965Y0411207D02*
X0336965Y0399992D01*
X0338321Y0401600D02*
X0332319Y0401600D01*
X0332565Y0402194D02*
X0331332Y0399216D01*
X0329053Y0396938D01*
X0326076Y0395705D01*
X0322854Y0395705D01*
X0319877Y0396938D01*
X0317598Y0399216D01*
X0316365Y0402194D01*
X0316365Y0405416D01*
X0317598Y0408393D01*
X0319877Y0410672D01*
X0322854Y0411905D01*
X0326076Y0411905D01*
X0329053Y0410672D01*
X0331332Y0408393D01*
X0332565Y0405416D01*
X0332565Y0402194D01*
X0331965Y0400745D02*
X0331965Y0394062D01*
X0329890Y0391600D02*
X0283125Y0391600D01*
X0281965Y0390440D02*
X0281965Y0377200D01*
X0284025Y0376600D02*
X0287906Y0376600D01*
X0286965Y0376211D02*
X0286965Y0446400D01*
X0281965Y0446400D02*
X0281965Y0402760D01*
X0283125Y0401600D02*
X0316611Y0401600D01*
X0316965Y0400745D02*
X0316965Y0376271D01*
X0317243Y0376600D02*
X0314025Y0376600D01*
X0311965Y0377200D02*
X0311965Y0446400D01*
X0306965Y0446400D02*
X0306965Y0376211D01*
X0307906Y0376600D02*
X0304025Y0376600D01*
X0301965Y0377200D02*
X0301965Y0446400D01*
X0296965Y0446400D02*
X0296965Y0376211D01*
X0297906Y0376600D02*
X0294025Y0376600D01*
X0291965Y0377200D02*
X0291965Y0446400D01*
X0276965Y0446400D02*
X0276965Y0404700D01*
X0271965Y0403350D02*
X0271965Y0411971D01*
X0271539Y0411600D02*
X0322118Y0411600D01*
X0321965Y0411537D02*
X0321965Y0450083D01*
X0322165Y0451600D02*
X0346765Y0451600D01*
X0346965Y0450083D02*
X0346965Y0448703D01*
X0341965Y0448520D02*
X0341965Y0501203D01*
X0336965Y0501203D02*
X0336965Y0447017D01*
X0336114Y0446600D02*
X0318482Y0446600D01*
X0316965Y0446400D02*
X0316965Y0406864D01*
X0316856Y0406600D02*
X0265289Y0406600D01*
X0266965Y0407482D02*
X0266965Y0387000D01*
X0261965Y0387000D02*
X0261965Y0405211D01*
X0256965Y0404489D02*
X0256965Y0387000D01*
X0251965Y0387000D02*
X0251965Y0404992D01*
X0247329Y0406600D02*
X0186625Y0406600D01*
X0186647Y0406638D02*
X0187349Y0409259D01*
X0187349Y0411972D01*
X0186647Y0414594D01*
X0185290Y0416943D01*
X0183372Y0418862D01*
X0181022Y0420219D01*
X0178401Y0420921D01*
X0175687Y0420921D01*
X0173066Y0420219D01*
X0170716Y0418862D01*
X0168797Y0416943D01*
X0167441Y0414594D01*
X0166738Y0411972D01*
X0166738Y0409259D01*
X0167441Y0406638D01*
X0168797Y0404288D01*
X0170716Y0402369D01*
X0173066Y0401013D01*
X0175687Y0400310D01*
X0178401Y0400310D01*
X0181022Y0401013D01*
X0183372Y0402369D01*
X0185290Y0404288D01*
X0186647Y0406638D01*
X0186965Y0407825D02*
X0186965Y0276600D01*
X0180915Y0276600D01*
X0180915Y0276254D02*
X0180915Y0292634D01*
X0180124Y0294546D01*
X0157165Y0317504D01*
X0161965Y0312704D02*
X0161965Y0414541D01*
X0164024Y0416600D02*
X0168599Y0416600D01*
X0166965Y0419541D02*
X0166965Y0412819D01*
X0166738Y0411600D02*
X0159024Y0411600D01*
X0157165Y0406600D02*
X0167463Y0406600D01*
X0166965Y0408413D02*
X0166965Y0307704D01*
X0168069Y0306600D02*
X0191565Y0306600D01*
X0191565Y0301600D02*
X0173069Y0301600D01*
X0171965Y0302704D02*
X0171965Y0401648D01*
X0172049Y0401600D02*
X0157165Y0401600D01*
X0157165Y0396600D02*
X0228570Y0396600D01*
X0230215Y0391600D02*
X0157165Y0391600D01*
X0157165Y0386600D02*
X0209925Y0386600D01*
X0201965Y0379237D02*
X0201965Y0501198D01*
X0186965Y0501198D02*
X0186965Y0472455D01*
X0187319Y0471600D02*
X0246765Y0471600D01*
X0246765Y0466600D02*
X0187075Y0466600D01*
X0186965Y0466336D02*
X0186965Y0442455D01*
X0187319Y0441600D02*
X0247364Y0441600D01*
X0246965Y0441319D02*
X0246965Y0450083D01*
X0246765Y0451600D02*
X0170915Y0451600D01*
X0170915Y0456600D02*
X0246765Y0456600D01*
X0246765Y0461600D02*
X0181812Y0461600D01*
X0181965Y0461663D02*
X0181965Y0447127D01*
X0183238Y0446600D02*
X0250448Y0446600D01*
X0251965Y0446400D02*
X0251965Y0443208D01*
X0256965Y0443711D02*
X0256965Y0446400D01*
X0261965Y0446400D02*
X0261965Y0442981D01*
X0265290Y0441600D02*
X0329968Y0441600D01*
X0331965Y0443680D02*
X0331965Y0501203D01*
X0326965Y0501202D02*
X0326965Y0436652D01*
X0326938Y0436600D02*
X0271539Y0436600D01*
X0271965Y0436237D02*
X0271965Y0446400D01*
X0266965Y0446400D02*
X0266965Y0440708D01*
X0274614Y0431600D02*
X0325644Y0431600D01*
X0325605Y0426600D02*
X0275878Y0426600D01*
X0246965Y0406902D02*
X0246965Y0387000D01*
X0241965Y0387000D02*
X0241965Y0390440D01*
X0243125Y0391600D02*
X0269662Y0391600D01*
X0268570Y0396600D02*
X0244770Y0396600D01*
X0243125Y0401600D02*
X0270215Y0401600D01*
X0284770Y0396600D02*
X0320693Y0396600D01*
X0321965Y0396073D02*
X0321965Y0382201D01*
X0321458Y0381600D02*
X0277669Y0381600D01*
X0276965Y0379531D02*
X0276965Y0376211D01*
X0277906Y0376600D02*
X0274035Y0376600D01*
X0279369Y0386600D02*
X0325674Y0386600D01*
X0326965Y0388131D02*
X0326965Y0396073D01*
X0328238Y0396600D02*
X0334105Y0396600D01*
X0356965Y0408875D02*
X0356965Y0413322D01*
X0360289Y0416600D02*
X0382111Y0416600D01*
X0381965Y0416454D02*
X0381965Y0446400D01*
X0386965Y0446400D02*
X0386965Y0421454D01*
X0387111Y0421600D02*
X0363356Y0421600D01*
X0361965Y0418960D02*
X0361965Y0411537D01*
X0364628Y0426600D02*
X0392111Y0426600D01*
X0391965Y0426454D02*
X0391965Y0446400D01*
X0396965Y0446400D02*
X0396965Y0431454D01*
X0397111Y0431600D02*
X0364628Y0431600D01*
X0363364Y0436600D02*
X0402111Y0436600D01*
X0401965Y0436454D02*
X0401965Y0446400D01*
X0346765Y0456600D02*
X0322165Y0456600D01*
X0322165Y0461600D02*
X0346765Y0461600D01*
X0346765Y0466600D02*
X0322165Y0466600D01*
X0322165Y0471600D02*
X0346765Y0471600D01*
X0346765Y0476600D02*
X0322165Y0476600D01*
X0322165Y0481600D02*
X0346765Y0481600D01*
X0346765Y0486600D02*
X0322165Y0486600D01*
X0322165Y0491600D02*
X0346765Y0491600D01*
X0346765Y0496600D02*
X0322165Y0496600D01*
X0246765Y0496600D02*
X0170915Y0496600D01*
X0171965Y0501197D02*
X0171965Y0472455D01*
X0171611Y0471600D02*
X0170915Y0471600D01*
X0171365Y0471006D02*
X0171365Y0467784D01*
X0172598Y0464807D01*
X0174877Y0462528D01*
X0177854Y0461295D01*
X0181076Y0461295D01*
X0184053Y0462528D01*
X0186332Y0464807D01*
X0187565Y0467784D01*
X0187565Y0471006D01*
X0186332Y0473984D01*
X0184053Y0476262D01*
X0181076Y0477495D01*
X0177854Y0477495D01*
X0174877Y0476262D01*
X0172598Y0473984D01*
X0171365Y0471006D01*
X0170915Y0466600D02*
X0171856Y0466600D01*
X0171965Y0466336D02*
X0171965Y0442455D01*
X0171611Y0441600D02*
X0170915Y0441600D01*
X0170915Y0446600D02*
X0175693Y0446600D01*
X0176965Y0447127D02*
X0176965Y0461663D01*
X0177118Y0461600D02*
X0170915Y0461600D01*
X0170915Y0476600D02*
X0175693Y0476600D01*
X0176965Y0477127D02*
X0176965Y0501198D01*
X0181965Y0501198D02*
X0181965Y0477127D01*
X0183238Y0476600D02*
X0246765Y0476600D01*
X0246765Y0481600D02*
X0170915Y0481600D01*
X0170915Y0486600D02*
X0246765Y0486600D01*
X0246765Y0491600D02*
X0170915Y0491600D01*
X0236965Y0501199D02*
X0236965Y0427142D01*
X0236894Y0426600D02*
X0174024Y0426600D01*
X0171965Y0424541D02*
X0171965Y0419583D01*
X0169024Y0421600D02*
X0236855Y0421600D01*
X0236965Y0421176D02*
X0236965Y0404700D01*
X0241965Y0402760D02*
X0241965Y0410731D01*
X0241244Y0411600D02*
X0187349Y0411600D01*
X0186965Y0413406D02*
X0186965Y0436336D01*
X0187075Y0436600D02*
X0241218Y0436600D01*
X0241965Y0437416D02*
X0241965Y0501200D01*
X0168656Y0435939D02*
X0166750Y0435150D01*
X0136365Y0435150D01*
X0136365Y0116000D01*
X0174435Y0116000D01*
X0173066Y0116367D01*
X0170716Y0117724D01*
X0168797Y0119642D01*
X0167441Y0121992D01*
X0166738Y0124613D01*
X0166738Y0127327D01*
X0167441Y0129948D01*
X0168797Y0132298D01*
X0170716Y0134217D01*
X0173066Y0135573D01*
X0175687Y0136276D01*
X0178401Y0136276D01*
X0181022Y0135573D01*
X0183372Y0134217D01*
X0185290Y0132298D01*
X0186647Y0129948D01*
X0187349Y0127327D01*
X0187349Y0124613D01*
X0186647Y0121992D01*
X0185290Y0119642D01*
X0183372Y0117724D01*
X0181022Y0116367D01*
X0179652Y0116000D01*
X0651207Y0116000D01*
X0649838Y0116367D01*
X0647488Y0117724D01*
X0645569Y0119642D01*
X0644212Y0121992D01*
X0643510Y0124613D01*
X0643510Y0127327D01*
X0644212Y0129948D01*
X0645569Y0132298D01*
X0647488Y0134217D01*
X0649838Y0135573D01*
X0652459Y0136276D01*
X0655172Y0136276D01*
X0657793Y0135573D01*
X0660143Y0134217D01*
X0662062Y0132298D01*
X0663419Y0129948D01*
X0664121Y0127327D01*
X0664121Y0124613D01*
X0663419Y0121992D01*
X0662062Y0119642D01*
X0660143Y0117724D01*
X0657793Y0116367D01*
X0656424Y0116000D01*
X0737801Y0116000D01*
X0737801Y0126400D01*
X0704681Y0126400D01*
X0702770Y0127192D01*
X0701307Y0128654D01*
X0700515Y0130566D01*
X0700515Y0210134D01*
X0701307Y0212046D01*
X0702770Y0213508D01*
X0704681Y0214300D01*
X0737801Y0214300D01*
X0737801Y0225150D01*
X0704681Y0225150D01*
X0702770Y0225942D01*
X0701307Y0227404D01*
X0700515Y0229316D01*
X0700515Y0290134D01*
X0701307Y0292046D01*
X0702770Y0293508D01*
X0704681Y0294300D01*
X0737801Y0294300D01*
X0737801Y0501216D01*
X0622165Y0501212D01*
X0622165Y0450566D01*
X0621374Y0448654D01*
X0619911Y0447192D01*
X0618000Y0446400D01*
X0585993Y0446400D01*
X0585993Y0445209D01*
X0596543Y0434659D01*
X0597365Y0432674D01*
X0597365Y0405526D01*
X0596543Y0403541D01*
X0461543Y0268541D01*
X0460024Y0267022D01*
X0459488Y0266800D01*
X0476750Y0266800D01*
X0478661Y0266008D01*
X0480124Y0264546D01*
X0480915Y0262634D01*
X0480915Y0251800D01*
X0484694Y0251800D01*
X0481965Y0254529D01*
X0481965Y0251800D01*
X0481965Y0254529D02*
X0481965Y0256600D01*
X0481965Y0256600D01*
X0486965Y0256600D01*
X0480915Y0256600D01*
X0481965Y0256600D02*
X0486965Y0256600D01*
X0486965Y0256600D01*
X0486965Y0261600D01*
X0484894Y0261600D01*
X0481965Y0258671D01*
X0481965Y0288963D01*
X0479602Y0286600D02*
X0606765Y0286600D01*
X0606765Y0287634D02*
X0606765Y0273066D01*
X0607557Y0271154D01*
X0609020Y0269692D01*
X0610931Y0268900D01*
X0653000Y0268900D01*
X0654911Y0269692D01*
X0656374Y0271154D01*
X0657165Y0273066D01*
X0657165Y0285700D01*
X0657430Y0285700D01*
X0658347Y0285845D01*
X0659230Y0286132D01*
X0660057Y0286554D01*
X0660809Y0287100D01*
X0661465Y0287756D01*
X0662011Y0288508D01*
X0662433Y0289335D01*
X0662720Y0290218D01*
X0662865Y0291136D01*
X0662865Y0291600D01*
X0662865Y0292064D01*
X0662720Y0292982D01*
X0662433Y0293865D01*
X0662011Y0294692D01*
X0661465Y0295444D01*
X0660809Y0296100D01*
X0660057Y0296646D01*
X0659230Y0297068D01*
X0658347Y0297355D01*
X0657430Y0297500D01*
X0656965Y0297500D01*
X0656501Y0297500D01*
X0655584Y0297355D01*
X0654700Y0297068D01*
X0653873Y0296646D01*
X0653122Y0296100D01*
X0652465Y0295444D01*
X0651919Y0294692D01*
X0651497Y0293865D01*
X0651210Y0292982D01*
X0651065Y0292064D01*
X0651065Y0291800D01*
X0635065Y0291800D01*
X0635065Y0293211D01*
X0633832Y0296188D01*
X0631553Y0298467D01*
X0628576Y0299700D01*
X0625354Y0299700D01*
X0622377Y0298467D01*
X0620098Y0296188D01*
X0618865Y0293211D01*
X0618865Y0291800D01*
X0610931Y0291800D01*
X0609020Y0291008D01*
X0607557Y0289546D01*
X0606765Y0287634D01*
X0606965Y0288117D02*
X0606965Y0446400D01*
X0601965Y0446400D02*
X0601965Y0116000D01*
X0596965Y0116000D02*
X0596965Y0404560D01*
X0597365Y0406600D02*
X0644234Y0406600D01*
X0644212Y0406638D02*
X0645569Y0404288D01*
X0647488Y0402369D01*
X0649838Y0401013D01*
X0652459Y0400310D01*
X0655172Y0400310D01*
X0657793Y0401013D01*
X0660143Y0402369D01*
X0662062Y0404288D01*
X0663419Y0406638D01*
X0664121Y0409259D01*
X0664121Y0411972D01*
X0663419Y0414594D01*
X0662062Y0416943D01*
X0660143Y0418862D01*
X0657793Y0420219D01*
X0655172Y0420921D01*
X0652459Y0420921D01*
X0649838Y0420219D01*
X0647488Y0418862D01*
X0645569Y0416943D01*
X0644212Y0414594D01*
X0643510Y0411972D01*
X0643510Y0409259D01*
X0644212Y0406638D01*
X0646965Y0402892D02*
X0646965Y0291800D01*
X0641965Y0291800D02*
X0641965Y0501213D01*
X0636965Y0501212D02*
X0636965Y0291800D01*
X0633420Y0296600D02*
X0653809Y0296600D01*
X0651965Y0294756D02*
X0651965Y0400443D01*
X0648820Y0401600D02*
X0594602Y0401600D01*
X0591965Y0398963D02*
X0591965Y0116000D01*
X0586965Y0116000D02*
X0586965Y0393963D01*
X0584602Y0391600D02*
X0737801Y0391600D01*
X0737801Y0386600D02*
X0579602Y0386600D01*
X0581965Y0388963D02*
X0581965Y0116000D01*
X0576965Y0116000D02*
X0576965Y0383963D01*
X0574602Y0381600D02*
X0737801Y0381600D01*
X0737801Y0376600D02*
X0569602Y0376600D01*
X0571965Y0378963D02*
X0571965Y0116000D01*
X0566965Y0116000D02*
X0566965Y0373963D01*
X0564602Y0371600D02*
X0737801Y0371600D01*
X0737801Y0366600D02*
X0559602Y0366600D01*
X0561965Y0368963D02*
X0561965Y0116000D01*
X0556965Y0116000D02*
X0556965Y0363963D01*
X0554602Y0361600D02*
X0737801Y0361600D01*
X0737801Y0356600D02*
X0549602Y0356600D01*
X0551965Y0358963D02*
X0551965Y0116000D01*
X0546965Y0116000D02*
X0546965Y0353963D01*
X0544602Y0351600D02*
X0737801Y0351600D01*
X0737801Y0346600D02*
X0539602Y0346600D01*
X0541965Y0348963D02*
X0541965Y0116000D01*
X0536965Y0116000D02*
X0536965Y0343963D01*
X0534602Y0341600D02*
X0737801Y0341600D01*
X0737801Y0336600D02*
X0529602Y0336600D01*
X0531965Y0338963D02*
X0531965Y0255555D01*
X0530920Y0256600D02*
X0700515Y0256600D01*
X0700515Y0251600D02*
X0657076Y0251600D01*
X0657165Y0251384D02*
X0656374Y0253296D01*
X0654911Y0254758D01*
X0653000Y0255550D01*
X0650931Y0255550D01*
X0610931Y0255550D01*
X0609020Y0254758D01*
X0607557Y0253296D01*
X0606765Y0251384D01*
X0606765Y0235566D01*
X0607557Y0233654D01*
X0609020Y0232192D01*
X0610931Y0231400D01*
X0620310Y0231400D01*
X0620098Y0231188D01*
X0618865Y0228211D01*
X0618865Y0224989D01*
X0620098Y0222012D01*
X0621760Y0220350D01*
X0620098Y0218688D01*
X0618865Y0215711D01*
X0618865Y0212489D01*
X0620098Y0209512D01*
X0622377Y0207233D01*
X0625354Y0206000D01*
X0628576Y0206000D01*
X0631553Y0207233D01*
X0633832Y0209512D01*
X0635065Y0212489D01*
X0635065Y0215711D01*
X0633832Y0218688D01*
X0632170Y0220350D01*
X0633832Y0222012D01*
X0635065Y0224989D01*
X0635065Y0228211D01*
X0633832Y0231188D01*
X0633620Y0231400D01*
X0650310Y0231400D01*
X0650098Y0231188D01*
X0648865Y0228211D01*
X0648865Y0224989D01*
X0650098Y0222012D01*
X0651760Y0220350D01*
X0650098Y0218688D01*
X0648865Y0215711D01*
X0648865Y0212489D01*
X0650098Y0209512D01*
X0652377Y0207233D01*
X0655354Y0206000D01*
X0658576Y0206000D01*
X0661553Y0207233D01*
X0663832Y0209512D01*
X0665065Y0212489D01*
X0665065Y0215711D01*
X0663832Y0218688D01*
X0662170Y0220350D01*
X0663832Y0222012D01*
X0665065Y0224989D01*
X0665065Y0228211D01*
X0663832Y0231188D01*
X0661553Y0233467D01*
X0658576Y0234700D01*
X0656807Y0234700D01*
X0657165Y0235566D01*
X0657165Y0251384D01*
X0656965Y0251867D02*
X0656965Y0272583D01*
X0656558Y0271600D02*
X0700515Y0271600D01*
X0700515Y0266600D02*
X0477232Y0266600D01*
X0476965Y0266711D02*
X0476965Y0283963D01*
X0474602Y0281600D02*
X0606765Y0281600D01*
X0606765Y0276600D02*
X0469602Y0276600D01*
X0471965Y0278963D02*
X0471965Y0266800D01*
X0466965Y0266800D02*
X0466965Y0273963D01*
X0464602Y0271600D02*
X0607372Y0271600D01*
X0606965Y0272583D02*
X0606965Y0251867D01*
X0606855Y0251600D02*
X0535065Y0251600D01*
X0535065Y0252455D02*
X0530320Y0257200D01*
X0523610Y0257200D01*
X0521965Y0255555D01*
X0521965Y0328963D01*
X0519602Y0326600D02*
X0737801Y0326600D01*
X0737801Y0321600D02*
X0514602Y0321600D01*
X0516965Y0323963D02*
X0516965Y0257200D01*
X0513610Y0257200D02*
X0508865Y0252455D01*
X0508865Y0245745D01*
X0510510Y0244100D01*
X0508865Y0242455D01*
X0508865Y0235745D01*
X0513610Y0231000D01*
X0520320Y0231000D01*
X0521965Y0232645D01*
X0521965Y0202256D01*
X0521465Y0202944D01*
X0520809Y0203600D01*
X0520057Y0204146D01*
X0519230Y0204568D01*
X0518347Y0204855D01*
X0517430Y0205000D01*
X0516965Y0205000D01*
X0516501Y0205000D01*
X0515584Y0204855D01*
X0514700Y0204568D01*
X0513873Y0204146D01*
X0513122Y0203600D01*
X0512465Y0202944D01*
X0511919Y0202192D01*
X0511497Y0201365D01*
X0511210Y0200482D01*
X0511065Y0199564D01*
X0511065Y0199100D01*
X0511065Y0198636D01*
X0511210Y0197718D01*
X0511497Y0196835D01*
X0511919Y0196008D01*
X0512465Y0195256D01*
X0513122Y0194600D01*
X0513873Y0194054D01*
X0514700Y0193632D01*
X0515584Y0193345D01*
X0516501Y0193200D01*
X0516965Y0193200D01*
X0516965Y0199100D01*
X0516965Y0199100D01*
X0511065Y0199100D01*
X0516965Y0199100D01*
X0516965Y0205000D01*
X0516965Y0199100D01*
X0516965Y0199100D01*
X0516965Y0199100D01*
X0516965Y0231000D01*
X0513010Y0231600D02*
X0495915Y0231600D01*
X0495915Y0229316D02*
X0495915Y0247634D01*
X0495184Y0249400D01*
X0499948Y0249400D01*
X0504165Y0253618D01*
X0504165Y0259582D01*
X0499948Y0263800D01*
X0493983Y0263800D01*
X0490410Y0260227D01*
X0489036Y0261600D01*
X0486965Y0261600D01*
X0486965Y0256600D01*
X0486965Y0256600D01*
X0486965Y0293963D01*
X0484602Y0291600D02*
X0610448Y0291600D01*
X0611965Y0291800D02*
X0611965Y0446400D01*
X0616965Y0446400D02*
X0616965Y0291800D01*
X0620510Y0296600D02*
X0489602Y0296600D01*
X0491965Y0298963D02*
X0491965Y0261782D01*
X0491783Y0261600D02*
X0480915Y0261600D01*
X0481965Y0258671D02*
X0481965Y0256600D01*
X0496965Y0263800D02*
X0496965Y0303963D01*
X0494602Y0301600D02*
X0737801Y0301600D01*
X0737801Y0296600D02*
X0660121Y0296600D01*
X0661965Y0294756D02*
X0661965Y0404191D01*
X0663397Y0406600D02*
X0737801Y0406600D01*
X0737801Y0401600D02*
X0658811Y0401600D01*
X0656965Y0400791D02*
X0656965Y0291600D01*
X0656965Y0297500D01*
X0656965Y0291600D01*
X0656965Y0291600D01*
X0701122Y0291600D01*
X0701965Y0292704D02*
X0701965Y0501214D01*
X0696965Y0501214D02*
X0696965Y0116000D01*
X0691965Y0116000D02*
X0691965Y0501214D01*
X0686965Y0501214D02*
X0686965Y0116000D01*
X0681965Y0116000D02*
X0681965Y0501214D01*
X0676965Y0501214D02*
X0676965Y0116000D01*
X0671965Y0116000D02*
X0671965Y0501213D01*
X0666965Y0501213D02*
X0666965Y0116000D01*
X0661965Y0116000D02*
X0661965Y0119545D01*
X0663192Y0121600D02*
X0737801Y0121600D01*
X0736965Y0126400D02*
X0736965Y0116000D01*
X0737801Y0116600D02*
X0658197Y0116600D01*
X0656965Y0116145D02*
X0656965Y0116000D01*
X0649434Y0116600D02*
X0181426Y0116600D01*
X0181965Y0116912D02*
X0181965Y0116000D01*
X0186965Y0116000D02*
X0186965Y0123179D01*
X0186421Y0121600D02*
X0361315Y0121600D01*
X0361315Y0120965D02*
X0361315Y0127371D01*
X0361315Y0129240D01*
X0362031Y0130968D01*
X0363353Y0132290D01*
X0365080Y0133005D01*
X0370153Y0133005D01*
X0370839Y0132721D01*
X0371526Y0133005D01*
X0373396Y0133005D01*
X0374596Y0132508D01*
X0375796Y0133005D01*
X0377666Y0133005D01*
X0378352Y0132721D01*
X0379039Y0133005D01*
X0383044Y0133005D01*
X0383730Y0132721D01*
X0384417Y0133005D01*
X0389489Y0133005D01*
X0390710Y0132500D01*
X0391930Y0133005D01*
X0395935Y0133005D01*
X0397155Y0132500D01*
X0398375Y0133005D01*
X0402380Y0133005D01*
X0403913Y0132371D01*
X0404108Y0132290D01*
X0404108Y0132290D01*
X0405321Y0131077D01*
X0406497Y0129900D01*
X0406602Y0129647D01*
X0407149Y0130968D01*
X0408471Y0132290D01*
X0410199Y0133005D01*
X0416339Y0133005D01*
X0418066Y0132290D01*
X0419388Y0130968D01*
X0419429Y0130870D01*
X0421717Y0130870D01*
X0422937Y0130365D01*
X0423452Y0130578D01*
X0424157Y0130870D01*
X0429230Y0130870D01*
X0429916Y0130586D01*
X0430603Y0130870D01*
X0434608Y0130870D01*
X0435294Y0130586D01*
X0435981Y0130870D01*
X0438918Y0130870D01*
X0439051Y0130815D01*
X0439184Y0130870D01*
X0439336Y0130870D01*
X0439377Y0130968D01*
X0440699Y0132290D01*
X0442426Y0133005D01*
X0444296Y0133005D01*
X0446024Y0132290D01*
X0446584Y0131730D01*
X0447144Y0132290D01*
X0448872Y0133005D01*
X0451809Y0133005D01*
X0453537Y0132290D01*
X0454859Y0130968D01*
X0454899Y0130870D01*
X0456524Y0130870D01*
X0456565Y0130968D01*
X0457887Y0132290D01*
X0459614Y0133005D01*
X0465048Y0133005D01*
X0465400Y0133358D01*
X0467127Y0134073D01*
X0468997Y0134073D01*
X0470725Y0133358D01*
X0472047Y0132035D01*
X0472605Y0130687D01*
X0473427Y0130413D01*
X0474963Y0130925D01*
X0476828Y0130792D01*
X0477214Y0130599D01*
X0477870Y0130870D01*
X0481875Y0130870D01*
X0483602Y0130155D01*
X0484670Y0129087D01*
X0485992Y0127765D01*
X0486110Y0127479D01*
X0486465Y0128543D01*
X0487690Y0129956D01*
X0489362Y0130792D01*
X0491228Y0130925D01*
X0492763Y0130413D01*
X0494299Y0130925D01*
X0495123Y0130866D01*
X0496546Y0132290D01*
X0498274Y0133005D01*
X0500144Y0133005D01*
X0501871Y0132290D01*
X0503193Y0130968D01*
X0503691Y0129766D01*
X0504893Y0130968D01*
X0506215Y0132290D01*
X0507942Y0133005D01*
X0509812Y0133005D01*
X0511032Y0132500D01*
X0512252Y0133005D01*
X0514122Y0133005D01*
X0515850Y0132290D01*
X0517172Y0130968D01*
X0517212Y0130870D01*
X0517325Y0130870D01*
X0519052Y0130155D01*
X0520120Y0129087D01*
X0521442Y0127765D01*
X0522158Y0126038D01*
X0522158Y0120965D01*
X0521442Y0119238D01*
X0520120Y0117916D01*
X0518393Y0117200D01*
X0516523Y0117200D01*
X0515323Y0117697D01*
X0514122Y0117200D01*
X0512252Y0117200D01*
X0512100Y0117263D01*
X0511947Y0117200D01*
X0505807Y0117200D01*
X0505664Y0117259D01*
X0505522Y0117200D01*
X0502584Y0117200D01*
X0502432Y0117263D01*
X0502279Y0117200D01*
X0496139Y0117200D01*
X0494974Y0117683D01*
X0494566Y0117547D01*
X0494029Y0117278D01*
X0493687Y0117254D01*
X0493363Y0117146D01*
X0492763Y0117188D01*
X0492164Y0117146D01*
X0491839Y0117254D01*
X0491498Y0117278D01*
X0490960Y0117547D01*
X0490390Y0117737D01*
X0490131Y0117961D01*
X0489825Y0118114D01*
X0489432Y0118568D01*
X0488978Y0118962D01*
X0488824Y0119268D01*
X0488600Y0119527D01*
X0488410Y0120097D01*
X0486707Y0123502D01*
X0486707Y0123100D01*
X0485992Y0121373D01*
X0485640Y0121021D01*
X0485640Y0120965D01*
X0484924Y0119238D01*
X0483602Y0117916D01*
X0481875Y0117200D01*
X0477870Y0117200D01*
X0476142Y0117916D01*
X0476084Y0117974D01*
X0476059Y0117961D01*
X0475800Y0117737D01*
X0475230Y0117547D01*
X0474693Y0117278D01*
X0474351Y0117254D01*
X0474026Y0117146D01*
X0473427Y0117188D01*
X0472827Y0117146D01*
X0472503Y0117254D01*
X0472161Y0117278D01*
X0471624Y0117547D01*
X0471224Y0117680D01*
X0470065Y0117200D01*
X0466060Y0117200D01*
X0464332Y0117916D01*
X0463772Y0118476D01*
X0463212Y0117916D01*
X0461484Y0117200D01*
X0459614Y0117200D01*
X0458928Y0117484D01*
X0458241Y0117200D01*
X0454236Y0117200D01*
X0453557Y0117482D01*
X0452877Y0117200D01*
X0448872Y0117200D01*
X0448185Y0117484D01*
X0447499Y0117200D01*
X0442426Y0117200D01*
X0442274Y0117263D01*
X0442121Y0117200D01*
X0440251Y0117200D01*
X0440118Y0117255D01*
X0439986Y0117200D01*
X0438116Y0117200D01*
X0437983Y0117255D01*
X0437851Y0117200D01*
X0435981Y0117200D01*
X0435294Y0117484D01*
X0434608Y0117200D01*
X0430603Y0117200D01*
X0429383Y0117705D01*
X0428162Y0117200D01*
X0423090Y0117200D01*
X0422937Y0117263D01*
X0422784Y0117200D01*
X0420915Y0117200D01*
X0419714Y0117697D01*
X0418514Y0117200D01*
X0416644Y0117200D01*
X0416492Y0117263D01*
X0416339Y0117200D01*
X0410199Y0117200D01*
X0408471Y0117916D01*
X0407149Y0119238D01*
X0406602Y0120558D01*
X0406497Y0120305D01*
X0406497Y0120305D01*
X0406479Y0120287D01*
X0405175Y0118983D01*
X0405175Y0118983D01*
X0404108Y0117916D01*
X0404108Y0117916D01*
X0404108Y0117916D01*
X0403913Y0117835D01*
X0402380Y0117200D01*
X0398375Y0117200D01*
X0397155Y0117705D01*
X0395935Y0117200D01*
X0391930Y0117200D01*
X0390710Y0117705D01*
X0389489Y0117200D01*
X0384417Y0117200D01*
X0383730Y0117484D01*
X0383044Y0117200D01*
X0379039Y0117200D01*
X0378352Y0117484D01*
X0377666Y0117200D01*
X0375796Y0117200D01*
X0374596Y0117697D01*
X0373396Y0117200D01*
X0371526Y0117200D01*
X0369798Y0117916D01*
X0369238Y0118476D01*
X0368678Y0117916D01*
X0366950Y0117200D01*
X0365080Y0117200D01*
X0363353Y0117916D01*
X0362031Y0119238D01*
X0361315Y0120965D01*
X0361965Y0119396D02*
X0361965Y0116000D01*
X0356965Y0116000D02*
X0356965Y0279246D01*
X0359319Y0281600D02*
X0459328Y0281600D01*
X0456965Y0279237D02*
X0456965Y0344950D01*
X0451965Y0344950D02*
X0451965Y0277000D01*
X0454728Y0277000D02*
X0440891Y0277000D01*
X0438906Y0276178D01*
X0432387Y0269659D01*
X0431565Y0267674D01*
X0431565Y0261382D01*
X0430410Y0260227D01*
X0429036Y0261600D01*
X0426965Y0261600D01*
X0424894Y0261600D01*
X0421965Y0258671D01*
X0421965Y0344950D01*
X0416965Y0344950D02*
X0416965Y0266711D01*
X0416750Y0266800D02*
X0387181Y0266800D01*
X0385270Y0266008D01*
X0383807Y0264546D01*
X0383015Y0262634D01*
X0383015Y0250566D01*
X0383807Y0248654D01*
X0385270Y0247192D01*
X0386832Y0246545D01*
X0386765Y0246384D01*
X0386765Y0228066D01*
X0387557Y0226154D01*
X0389020Y0224692D01*
X0390931Y0223900D01*
X0431750Y0223900D01*
X0433661Y0224692D01*
X0435124Y0226154D01*
X0435915Y0228066D01*
X0435915Y0246384D01*
X0435124Y0248296D01*
X0434019Y0249400D01*
X0439948Y0249400D01*
X0443015Y0252468D01*
X0443015Y0250566D01*
X0443807Y0248654D01*
X0445270Y0247192D01*
X0446765Y0246572D01*
X0446765Y0229316D01*
X0447557Y0227404D01*
X0449020Y0225942D01*
X0450931Y0225150D01*
X0491750Y0225150D01*
X0493661Y0225942D01*
X0495124Y0227404D01*
X0495915Y0229316D01*
X0494319Y0226600D02*
X0618865Y0226600D01*
X0616965Y0231400D02*
X0616965Y0116000D01*
X0611965Y0116000D02*
X0611965Y0231400D01*
X0610448Y0231600D02*
X0530920Y0231600D01*
X0530320Y0231000D02*
X0535065Y0235745D01*
X0535065Y0242455D01*
X0533420Y0244100D01*
X0535065Y0245745D01*
X0535065Y0252455D01*
X0535065Y0246600D02*
X0606765Y0246600D01*
X0606765Y0241600D02*
X0535065Y0241600D01*
X0535065Y0236600D02*
X0606765Y0236600D01*
X0606965Y0235083D02*
X0606965Y0116000D01*
X0621965Y0116000D02*
X0621965Y0207645D01*
X0623905Y0206600D02*
X0160009Y0206600D01*
X0160386Y0205690D02*
X0159176Y0208612D01*
X0156940Y0210848D01*
X0154018Y0212058D01*
X0143755Y0212058D01*
X0140833Y0210848D01*
X0138597Y0208612D01*
X0137386Y0205690D01*
X0137386Y0202527D01*
X0138597Y0199605D01*
X0140833Y0197369D01*
X0143755Y0196158D01*
X0154018Y0196158D01*
X0156940Y0197369D01*
X0159176Y0199605D01*
X0160386Y0202527D01*
X0160386Y0205690D01*
X0160003Y0201600D02*
X0511617Y0201600D01*
X0511965Y0202256D02*
X0511965Y0232645D01*
X0508865Y0236600D02*
X0495915Y0236600D01*
X0495915Y0241600D02*
X0508865Y0241600D01*
X0508865Y0246600D02*
X0495915Y0246600D01*
X0496965Y0249400D02*
X0496965Y0132463D01*
X0495857Y0131600D02*
X0472227Y0131600D01*
X0471965Y0132117D02*
X0471965Y0225150D01*
X0466965Y0225150D02*
X0466965Y0134006D01*
X0461965Y0133005D02*
X0461965Y0225150D01*
X0456965Y0225150D02*
X0456965Y0131368D01*
X0457197Y0131600D02*
X0454227Y0131600D01*
X0451965Y0132941D02*
X0451965Y0225150D01*
X0448361Y0226600D02*
X0435308Y0226600D01*
X0431965Y0223989D02*
X0431965Y0130870D01*
X0426965Y0130870D02*
X0426965Y0223900D01*
X0421965Y0223900D02*
X0421965Y0130767D01*
X0418756Y0131600D02*
X0440009Y0131600D01*
X0441965Y0132814D02*
X0441965Y0251418D01*
X0442148Y0251600D02*
X0443015Y0251600D01*
X0446698Y0246600D02*
X0435826Y0246600D01*
X0436965Y0249400D02*
X0436965Y0130870D01*
X0446965Y0132111D02*
X0446965Y0228833D01*
X0446765Y0231600D02*
X0435915Y0231600D01*
X0435915Y0236600D02*
X0446765Y0236600D01*
X0446765Y0241600D02*
X0435915Y0241600D01*
X0433599Y0249784D02*
X0431750Y0250550D01*
X0420909Y0250550D01*
X0420915Y0250566D01*
X0420915Y0262634D01*
X0420124Y0264546D01*
X0418661Y0266008D01*
X0416750Y0266800D01*
X0417232Y0266600D02*
X0431565Y0266600D01*
X0431965Y0268640D02*
X0431965Y0344950D01*
X0426965Y0344950D02*
X0426965Y0256600D01*
X0420915Y0256600D01*
X0421965Y0256600D02*
X0421965Y0256600D01*
X0421965Y0254529D01*
X0421965Y0250550D01*
X0420915Y0251600D02*
X0424894Y0251600D01*
X0426965Y0251600D01*
X0426965Y0251600D01*
X0426965Y0256600D01*
X0426965Y0256600D01*
X0421965Y0256600D01*
X0426965Y0256600D01*
X0426965Y0261600D01*
X0426965Y0256600D01*
X0426965Y0256600D01*
X0426965Y0256600D01*
X0426965Y0250550D01*
X0426965Y0251600D02*
X0429036Y0251600D01*
X0431783Y0251600D01*
X0431965Y0251418D02*
X0431965Y0250461D01*
X0433599Y0249784D02*
X0430410Y0252973D01*
X0429036Y0251600D01*
X0426965Y0251600D02*
X0426965Y0256600D01*
X0421965Y0256600D02*
X0421965Y0258671D01*
X0420915Y0261600D02*
X0431565Y0261600D01*
X0434328Y0271600D02*
X0349319Y0271600D01*
X0346965Y0269246D02*
X0346965Y0116000D01*
X0341965Y0116000D02*
X0341965Y0264246D01*
X0344319Y0266600D02*
X0386698Y0266600D01*
X0386965Y0266711D02*
X0386965Y0309246D01*
X0389319Y0311600D02*
X0489328Y0311600D01*
X0486965Y0309237D02*
X0486965Y0344950D01*
X0481965Y0344950D02*
X0481965Y0304237D01*
X0484328Y0306600D02*
X0384319Y0306600D01*
X0381965Y0304246D02*
X0381965Y0133005D01*
X0376965Y0133005D02*
X0376965Y0299246D01*
X0379319Y0301600D02*
X0479328Y0301600D01*
X0476965Y0299237D02*
X0476965Y0344950D01*
X0471965Y0344950D02*
X0471965Y0294237D01*
X0474328Y0296600D02*
X0374319Y0296600D01*
X0371965Y0294246D02*
X0371965Y0133005D01*
X0366965Y0133005D02*
X0366965Y0289246D01*
X0369319Y0291600D02*
X0469328Y0291600D01*
X0466965Y0289237D02*
X0466965Y0344950D01*
X0461965Y0344950D02*
X0461965Y0284237D01*
X0464328Y0286600D02*
X0364319Y0286600D01*
X0361965Y0284246D02*
X0361965Y0130810D01*
X0362663Y0131600D02*
X0185693Y0131600D01*
X0186965Y0128761D02*
X0186965Y0238900D01*
X0188000Y0238900D02*
X0189911Y0239692D01*
X0191374Y0241154D01*
X0192165Y0243066D01*
X0192165Y0260150D01*
X0258015Y0260150D01*
X0258015Y0250566D01*
X0258807Y0248654D01*
X0260270Y0247192D01*
X0261832Y0246545D01*
X0261765Y0246384D01*
X0261765Y0228066D01*
X0262557Y0226154D01*
X0264020Y0224692D01*
X0265931Y0223900D01*
X0306750Y0223900D01*
X0308661Y0224692D01*
X0310124Y0226154D01*
X0310915Y0228066D01*
X0310915Y0246384D01*
X0310124Y0248296D01*
X0309019Y0249400D01*
X0314948Y0249400D01*
X0319165Y0253618D01*
X0319165Y0259582D01*
X0318598Y0260150D01*
X0336750Y0260150D01*
X0338661Y0260942D01*
X0408416Y0330697D01*
X0412062Y0330697D01*
X0416618Y0335253D01*
X0416618Y0341697D01*
X0413365Y0344950D01*
X0522678Y0344950D01*
X0454728Y0277000D01*
X0446965Y0277000D02*
X0446965Y0344950D01*
X0441965Y0344950D02*
X0441965Y0277000D01*
X0439925Y0276600D02*
X0354319Y0276600D01*
X0351965Y0274246D02*
X0351965Y0116000D01*
X0336965Y0116000D02*
X0336965Y0260239D01*
X0339319Y0261600D02*
X0383015Y0261600D01*
X0383015Y0256600D02*
X0319165Y0256600D01*
X0321965Y0260150D02*
X0321965Y0185555D01*
X0322377Y0185967D02*
X0320346Y0183936D01*
X0320057Y0184146D01*
X0319230Y0184568D01*
X0318347Y0184855D01*
X0317430Y0185000D01*
X0316965Y0185000D01*
X0316501Y0185000D01*
X0315584Y0184855D01*
X0314700Y0184568D01*
X0313873Y0184146D01*
X0313122Y0183600D01*
X0312465Y0182944D01*
X0311965Y0182256D01*
X0311965Y0249400D01*
X0310826Y0246600D02*
X0386698Y0246600D01*
X0386765Y0241600D02*
X0310915Y0241600D01*
X0310915Y0236600D02*
X0386765Y0236600D01*
X0386765Y0231600D02*
X0310915Y0231600D01*
X0310308Y0226600D02*
X0387372Y0226600D01*
X0386965Y0227583D02*
X0386965Y0133005D01*
X0391965Y0133005D02*
X0391965Y0223900D01*
X0396965Y0223900D02*
X0396965Y0132579D01*
X0401965Y0133005D02*
X0401965Y0223900D01*
X0406965Y0223900D02*
X0406965Y0130524D01*
X0407781Y0131600D02*
X0404798Y0131600D01*
X0411965Y0133005D02*
X0411965Y0223900D01*
X0416965Y0223900D02*
X0416965Y0132746D01*
X0406497Y0120305D02*
X0406497Y0120305D01*
X0406965Y0119682D02*
X0406965Y0116000D01*
X0401965Y0116000D02*
X0401965Y0117200D01*
X0396965Y0117627D02*
X0396965Y0116000D01*
X0391965Y0116000D02*
X0391965Y0117200D01*
X0386965Y0117200D02*
X0386965Y0116000D01*
X0381965Y0116000D02*
X0381965Y0117200D01*
X0376965Y0117200D02*
X0376965Y0116000D01*
X0371965Y0116000D02*
X0371965Y0117200D01*
X0366965Y0117206D02*
X0366965Y0116000D01*
X0361315Y0126600D02*
X0187349Y0126600D01*
X0181965Y0135029D02*
X0181965Y0238900D01*
X0176965Y0238900D02*
X0176965Y0136276D01*
X0171965Y0134938D02*
X0171965Y0238900D01*
X0166965Y0238900D02*
X0166965Y0128173D01*
X0166738Y0126600D02*
X0136365Y0126600D01*
X0136365Y0121600D02*
X0167667Y0121600D01*
X0166965Y0123767D02*
X0166965Y0116000D01*
X0161965Y0116000D02*
X0161965Y0238900D01*
X0156965Y0238900D02*
X0156965Y0210823D01*
X0155124Y0211600D02*
X0619233Y0211600D01*
X0619233Y0216600D02*
X0136365Y0216600D01*
X0136365Y0221600D02*
X0620510Y0221600D01*
X0633420Y0221600D02*
X0650510Y0221600D01*
X0649233Y0216600D02*
X0634697Y0216600D01*
X0634697Y0211600D02*
X0649233Y0211600D01*
X0651965Y0207645D02*
X0651965Y0136143D01*
X0656965Y0135795D02*
X0656965Y0206000D01*
X0653905Y0206600D02*
X0630025Y0206600D01*
X0631965Y0207645D02*
X0631965Y0116000D01*
X0626965Y0116000D02*
X0626965Y0206000D01*
X0635065Y0226600D02*
X0648865Y0226600D01*
X0646965Y0231400D02*
X0646965Y0133694D01*
X0645166Y0131600D02*
X0516540Y0131600D01*
X0516965Y0131174D02*
X0516965Y0199100D01*
X0516965Y0193200D01*
X0517430Y0193200D01*
X0518347Y0193345D01*
X0519230Y0193632D01*
X0520057Y0194054D01*
X0520809Y0194600D01*
X0521465Y0195256D01*
X0521965Y0195944D01*
X0521965Y0126502D01*
X0521925Y0126600D02*
X0643510Y0126600D01*
X0644439Y0121600D02*
X0522158Y0121600D01*
X0521965Y0120500D02*
X0521965Y0116000D01*
X0516965Y0116000D02*
X0516965Y0117200D01*
X0511965Y0117207D02*
X0511965Y0116000D01*
X0506965Y0116000D02*
X0506965Y0117200D01*
X0501965Y0117200D02*
X0501965Y0116000D01*
X0496965Y0116000D02*
X0496965Y0117200D01*
X0491965Y0117212D02*
X0491965Y0116000D01*
X0486965Y0116000D02*
X0486965Y0122987D01*
X0487659Y0121600D02*
X0486086Y0121600D01*
X0481965Y0117237D02*
X0481965Y0116000D01*
X0476965Y0116000D02*
X0476965Y0117575D01*
X0471965Y0117376D02*
X0471965Y0116000D01*
X0466965Y0116000D02*
X0466965Y0117200D01*
X0461965Y0117399D02*
X0461965Y0116000D01*
X0456965Y0116000D02*
X0456965Y0117200D01*
X0451965Y0117200D02*
X0451965Y0116000D01*
X0446965Y0116000D02*
X0446965Y0117200D01*
X0441965Y0117200D02*
X0441965Y0116000D01*
X0436965Y0116000D02*
X0436965Y0117200D01*
X0431965Y0117200D02*
X0431965Y0116000D01*
X0426965Y0116000D02*
X0426965Y0117200D01*
X0421965Y0117200D02*
X0421965Y0116000D01*
X0416965Y0116000D02*
X0416965Y0117200D01*
X0411965Y0117200D02*
X0411965Y0116000D01*
X0476965Y0130723D02*
X0476965Y0225150D01*
X0481965Y0225150D02*
X0481965Y0130833D01*
X0486965Y0129120D02*
X0486965Y0225150D01*
X0491965Y0225239D02*
X0491965Y0130679D01*
X0501965Y0132196D02*
X0501965Y0251418D01*
X0502148Y0251600D02*
X0508865Y0251600D01*
X0511965Y0255555D02*
X0511965Y0318963D01*
X0509602Y0316600D02*
X0737801Y0316600D01*
X0737801Y0311600D02*
X0504602Y0311600D01*
X0506965Y0313963D02*
X0506965Y0132601D01*
X0505525Y0131600D02*
X0502561Y0131600D01*
X0511965Y0132886D02*
X0511965Y0195944D01*
X0511617Y0196600D02*
X0155084Y0196600D01*
X0156965Y0197394D02*
X0156965Y0191137D01*
X0156940Y0191163D02*
X0154018Y0192373D01*
X0143755Y0192373D01*
X0140833Y0191163D01*
X0138597Y0188927D01*
X0137386Y0186005D01*
X0137386Y0182842D01*
X0138597Y0179920D01*
X0140833Y0177684D01*
X0143755Y0176473D01*
X0154018Y0176473D01*
X0156940Y0177684D01*
X0159176Y0179920D01*
X0160386Y0182842D01*
X0160386Y0186005D01*
X0159176Y0188927D01*
X0156940Y0191163D01*
X0155885Y0191600D02*
X0700515Y0191600D01*
X0700515Y0186600D02*
X0330025Y0186600D01*
X0328576Y0187200D02*
X0325354Y0187200D01*
X0322377Y0185967D01*
X0323906Y0186600D02*
X0300025Y0186600D01*
X0298576Y0187200D02*
X0295354Y0187200D01*
X0292377Y0185967D01*
X0291965Y0185555D01*
X0291553Y0185967D01*
X0288576Y0187200D01*
X0285354Y0187200D01*
X0282377Y0185967D01*
X0281965Y0185555D01*
X0281553Y0185967D01*
X0278576Y0187200D01*
X0275354Y0187200D01*
X0272377Y0185967D01*
X0270098Y0183688D01*
X0268865Y0180711D01*
X0268865Y0177489D01*
X0270098Y0174512D01*
X0272377Y0172233D01*
X0275354Y0171000D01*
X0278576Y0171000D01*
X0281553Y0172233D01*
X0281965Y0172645D01*
X0282377Y0172233D01*
X0285354Y0171000D01*
X0288576Y0171000D01*
X0291553Y0172233D01*
X0291965Y0172645D01*
X0292377Y0172233D01*
X0295354Y0171000D01*
X0298576Y0171000D01*
X0301553Y0172233D01*
X0303584Y0174264D01*
X0303873Y0174054D01*
X0304700Y0173632D01*
X0305584Y0173345D01*
X0306501Y0173200D01*
X0306965Y0173200D01*
X0306965Y0179100D01*
X0306965Y0185000D01*
X0306501Y0185000D01*
X0305584Y0184855D01*
X0304700Y0184568D01*
X0303873Y0184146D01*
X0303584Y0183936D01*
X0301553Y0185967D01*
X0298576Y0187200D01*
X0296965Y0187200D02*
X0296965Y0223900D01*
X0291965Y0223900D02*
X0291965Y0185555D01*
X0290025Y0186600D02*
X0293906Y0186600D01*
X0286965Y0187200D02*
X0286965Y0223900D01*
X0281965Y0223900D02*
X0281965Y0185555D01*
X0280025Y0186600D02*
X0283906Y0186600D01*
X0276965Y0187200D02*
X0276965Y0223900D01*
X0271965Y0223900D02*
X0271965Y0185555D01*
X0273906Y0186600D02*
X0160140Y0186600D01*
X0159872Y0181600D02*
X0269233Y0181600D01*
X0269233Y0176600D02*
X0154324Y0176600D01*
X0151965Y0176473D02*
X0151965Y0172688D01*
X0154018Y0172688D02*
X0156940Y0171478D01*
X0159176Y0169241D01*
X0160386Y0166320D01*
X0160386Y0163157D01*
X0159176Y0160235D01*
X0156940Y0157998D01*
X0154018Y0156788D01*
X0143755Y0156788D01*
X0140833Y0157998D01*
X0138597Y0160235D01*
X0137386Y0163157D01*
X0137386Y0166320D01*
X0138597Y0169241D01*
X0140833Y0171478D01*
X0143755Y0172688D01*
X0154018Y0172688D01*
X0156645Y0171600D02*
X0273905Y0171600D01*
X0271965Y0172645D02*
X0271965Y0116000D01*
X0266965Y0116000D02*
X0266965Y0223900D01*
X0262372Y0226600D02*
X0136365Y0226600D01*
X0136365Y0231600D02*
X0261765Y0231600D01*
X0261965Y0227583D02*
X0261965Y0116000D01*
X0256965Y0116000D02*
X0256965Y0260150D01*
X0258015Y0256600D02*
X0192165Y0256600D01*
X0192165Y0251600D02*
X0258015Y0251600D01*
X0261698Y0246600D02*
X0192165Y0246600D01*
X0191965Y0242583D02*
X0191965Y0116000D01*
X0196965Y0116000D02*
X0196965Y0260150D01*
X0201965Y0260150D02*
X0201965Y0116000D01*
X0206965Y0116000D02*
X0206965Y0260150D01*
X0211965Y0260150D02*
X0211965Y0116000D01*
X0216965Y0116000D02*
X0216965Y0260150D01*
X0221965Y0260150D02*
X0221965Y0116000D01*
X0226965Y0116000D02*
X0226965Y0260150D01*
X0231965Y0260150D02*
X0231965Y0116000D01*
X0236965Y0116000D02*
X0236965Y0260150D01*
X0241965Y0260150D02*
X0241965Y0116000D01*
X0246965Y0116000D02*
X0246965Y0260150D01*
X0251965Y0260150D02*
X0251965Y0116000D01*
X0276965Y0116000D02*
X0276965Y0171000D01*
X0280025Y0171600D02*
X0283905Y0171600D01*
X0281965Y0172645D02*
X0281965Y0116000D01*
X0286965Y0116000D02*
X0286965Y0171000D01*
X0290025Y0171600D02*
X0293905Y0171600D01*
X0291965Y0172645D02*
X0291965Y0116000D01*
X0296965Y0116000D02*
X0296965Y0171000D01*
X0300025Y0171600D02*
X0323905Y0171600D01*
X0325354Y0171000D02*
X0328576Y0171000D01*
X0331553Y0172233D01*
X0333832Y0174512D01*
X0335065Y0177489D01*
X0335065Y0180711D01*
X0333832Y0183688D01*
X0331553Y0185967D01*
X0328576Y0187200D01*
X0326965Y0187200D02*
X0326965Y0260150D01*
X0331965Y0260150D02*
X0331965Y0185555D01*
X0334697Y0181600D02*
X0700515Y0181600D01*
X0700515Y0176600D02*
X0334697Y0176600D01*
X0331965Y0172645D02*
X0331965Y0116000D01*
X0326965Y0116000D02*
X0326965Y0171000D01*
X0325354Y0171000D02*
X0322377Y0172233D01*
X0320346Y0174264D01*
X0320057Y0174054D01*
X0319230Y0173632D01*
X0318347Y0173345D01*
X0317430Y0173200D01*
X0316965Y0173200D01*
X0316965Y0179100D01*
X0316965Y0179100D01*
X0306965Y0179100D01*
X0306965Y0179100D01*
X0306965Y0179100D01*
X0306965Y0223989D01*
X0301965Y0223900D02*
X0301965Y0185555D01*
X0306965Y0185000D02*
X0306965Y0179100D01*
X0306965Y0116000D01*
X0301965Y0116000D02*
X0301965Y0172645D01*
X0306965Y0173200D02*
X0307430Y0173200D01*
X0308347Y0173345D01*
X0309230Y0173632D01*
X0310057Y0174054D01*
X0310809Y0174600D01*
X0311465Y0175256D01*
X0311965Y0175944D01*
X0311965Y0116000D01*
X0316965Y0116000D02*
X0316965Y0179100D01*
X0311065Y0179100D01*
X0306965Y0179100D01*
X0306965Y0173200D01*
X0306965Y0176600D02*
X0306965Y0176600D01*
X0306965Y0179100D02*
X0306965Y0179100D01*
X0306965Y0181600D02*
X0306965Y0181600D01*
X0306965Y0185000D02*
X0307430Y0185000D01*
X0308347Y0184855D01*
X0309230Y0184568D01*
X0310057Y0184146D01*
X0310809Y0183600D01*
X0311465Y0182944D01*
X0311965Y0182256D01*
X0311965Y0179100D02*
X0311965Y0179100D01*
X0311965Y0175944D02*
X0312465Y0175256D01*
X0313122Y0174600D01*
X0313873Y0174054D01*
X0314700Y0173632D01*
X0315584Y0173345D01*
X0316501Y0173200D01*
X0316965Y0173200D01*
X0316965Y0179100D01*
X0316965Y0185000D01*
X0316965Y0179100D01*
X0316965Y0179100D01*
X0316965Y0179100D01*
X0316965Y0251418D01*
X0317148Y0251600D02*
X0383015Y0251600D01*
X0391965Y0266800D02*
X0391965Y0314246D01*
X0394319Y0316600D02*
X0494328Y0316600D01*
X0491965Y0314237D02*
X0491965Y0344950D01*
X0496965Y0344950D02*
X0496965Y0319237D01*
X0499328Y0321600D02*
X0399319Y0321600D01*
X0396965Y0319246D02*
X0396965Y0266800D01*
X0401965Y0266800D02*
X0401965Y0324246D01*
X0404319Y0326600D02*
X0504328Y0326600D01*
X0501965Y0324237D02*
X0501965Y0344950D01*
X0506965Y0344950D02*
X0506965Y0329237D01*
X0509328Y0331600D02*
X0412965Y0331600D01*
X0411965Y0330697D02*
X0411965Y0266800D01*
X0406965Y0266800D02*
X0406965Y0329246D01*
X0416618Y0336600D02*
X0514328Y0336600D01*
X0511965Y0334237D02*
X0511965Y0344950D01*
X0516965Y0344950D02*
X0516965Y0339237D01*
X0519328Y0341600D02*
X0416618Y0341600D01*
X0436965Y0344950D02*
X0436965Y0274237D01*
X0421965Y0254529D02*
X0424894Y0251600D01*
X0461965Y0266800D02*
X0461965Y0268963D01*
X0501965Y0261782D02*
X0501965Y0308963D01*
X0499602Y0306600D02*
X0737801Y0306600D01*
X0736965Y0294300D02*
X0736965Y0501216D01*
X0737801Y0496600D02*
X0622165Y0496600D01*
X0622165Y0491600D02*
X0737801Y0491600D01*
X0737801Y0486600D02*
X0622165Y0486600D01*
X0622165Y0481600D02*
X0737801Y0481600D01*
X0737801Y0476600D02*
X0622165Y0476600D01*
X0622165Y0471600D02*
X0737801Y0471600D01*
X0737801Y0466600D02*
X0622165Y0466600D01*
X0622165Y0461600D02*
X0737801Y0461600D01*
X0737801Y0456600D02*
X0622165Y0456600D01*
X0622165Y0451600D02*
X0737801Y0451600D01*
X0737801Y0446600D02*
X0618482Y0446600D01*
X0621965Y0450083D02*
X0621965Y0298055D01*
X0626965Y0299700D02*
X0626965Y0501212D01*
X0631965Y0501212D02*
X0631965Y0298055D01*
X0656965Y0296600D02*
X0656965Y0296600D01*
X0656965Y0291600D02*
X0662865Y0291600D01*
X0656965Y0291600D01*
X0656965Y0291600D01*
X0661965Y0291600D02*
X0661965Y0291600D01*
X0661965Y0288444D02*
X0661965Y0233055D01*
X0663420Y0231600D02*
X0700515Y0231600D01*
X0700515Y0236600D02*
X0657165Y0236600D01*
X0656965Y0235083D02*
X0656965Y0234700D01*
X0665065Y0226600D02*
X0702111Y0226600D01*
X0701965Y0226746D02*
X0701965Y0212704D01*
X0701122Y0211600D02*
X0664697Y0211600D01*
X0661965Y0207645D02*
X0661965Y0132395D01*
X0662465Y0131600D02*
X0700515Y0131600D01*
X0701965Y0127996D02*
X0701965Y0116000D01*
X0706965Y0116000D02*
X0706965Y0126400D01*
X0704198Y0126600D02*
X0664121Y0126600D01*
X0646965Y0118246D02*
X0646965Y0116000D01*
X0641965Y0116000D02*
X0641965Y0231400D01*
X0636965Y0231400D02*
X0636965Y0116000D01*
X0700515Y0136600D02*
X0136365Y0136600D01*
X0138597Y0140550D02*
X0140833Y0138313D01*
X0143755Y0137103D01*
X0154018Y0137103D01*
X0156940Y0138313D01*
X0159176Y0140550D01*
X0160386Y0143472D01*
X0160386Y0146634D01*
X0159176Y0149556D01*
X0156940Y0151793D01*
X0154018Y0153003D01*
X0143755Y0153003D01*
X0140833Y0151793D01*
X0138597Y0149556D01*
X0137386Y0146634D01*
X0137386Y0143472D01*
X0138597Y0140550D01*
X0138162Y0141600D02*
X0136365Y0141600D01*
X0136365Y0146600D02*
X0137386Y0146600D01*
X0136365Y0151600D02*
X0140640Y0151600D01*
X0141965Y0152262D02*
X0141965Y0157530D01*
X0146965Y0156788D02*
X0146965Y0153003D01*
X0151965Y0153003D02*
X0151965Y0156788D01*
X0156965Y0158024D02*
X0156965Y0151767D01*
X0157133Y0151600D02*
X0700515Y0151600D01*
X0700515Y0146600D02*
X0160386Y0146600D01*
X0159611Y0141600D02*
X0700515Y0141600D01*
X0711965Y0126400D02*
X0711965Y0116000D01*
X0716965Y0116000D02*
X0716965Y0126400D01*
X0721965Y0126400D02*
X0721965Y0116000D01*
X0726965Y0116000D02*
X0726965Y0126400D01*
X0731965Y0126400D02*
X0731965Y0116000D01*
X0700515Y0156600D02*
X0136365Y0156600D01*
X0136365Y0161600D02*
X0138031Y0161600D01*
X0137503Y0166600D02*
X0136365Y0166600D01*
X0136365Y0171600D02*
X0141128Y0171600D01*
X0141965Y0171947D02*
X0141965Y0177215D01*
X0143449Y0176600D02*
X0136365Y0176600D01*
X0136365Y0181600D02*
X0137901Y0181600D01*
X0137633Y0186600D02*
X0136365Y0186600D01*
X0136365Y0191600D02*
X0141888Y0191600D01*
X0141965Y0191632D02*
X0141965Y0196900D01*
X0142689Y0196600D02*
X0136365Y0196600D01*
X0136365Y0201600D02*
X0137770Y0201600D01*
X0137764Y0206600D02*
X0136365Y0206600D01*
X0136365Y0211600D02*
X0142649Y0211600D01*
X0141965Y0211317D02*
X0141965Y0261489D01*
X0142181Y0261400D02*
X0143022Y0261400D01*
X0143015Y0261384D01*
X0143015Y0243066D01*
X0143807Y0241154D01*
X0145270Y0239692D01*
X0147181Y0238900D01*
X0188000Y0238900D01*
X0191558Y0241600D02*
X0261765Y0241600D01*
X0261765Y0236600D02*
X0136365Y0236600D01*
X0136365Y0241600D02*
X0143622Y0241600D01*
X0146965Y0238989D02*
X0146965Y0212058D01*
X0151965Y0212058D02*
X0151965Y0238900D01*
X0143015Y0246600D02*
X0136365Y0246600D01*
X0136365Y0251600D02*
X0143015Y0251600D01*
X0143015Y0256600D02*
X0136365Y0256600D01*
X0136365Y0261600D02*
X0141698Y0261600D01*
X0142181Y0261400D02*
X0140270Y0262192D01*
X0138807Y0263654D01*
X0138015Y0265566D01*
X0138015Y0277634D01*
X0138807Y0279546D01*
X0140270Y0281008D01*
X0142181Y0281800D01*
X0170515Y0281800D01*
X0170515Y0289446D01*
X0149020Y0310942D01*
X0147557Y0312404D01*
X0146765Y0314316D01*
X0146765Y0410861D01*
X0146765Y0412930D01*
X0147557Y0414841D01*
X0168656Y0435939D01*
X0166965Y0435239D02*
X0166965Y0434249D01*
X0164316Y0431600D02*
X0136365Y0431600D01*
X0136965Y0435150D02*
X0136965Y0116000D01*
X0136365Y0116600D02*
X0172662Y0116600D01*
X0171965Y0117003D02*
X0171965Y0116000D01*
X0156965Y0116000D02*
X0156965Y0138339D01*
X0151965Y0137103D02*
X0151965Y0116000D01*
X0146965Y0116000D02*
X0146965Y0137103D01*
X0141965Y0137845D02*
X0141965Y0116000D01*
X0136365Y0131600D02*
X0168395Y0131600D01*
X0159742Y0161600D02*
X0700515Y0161600D01*
X0700515Y0166600D02*
X0160270Y0166600D01*
X0156965Y0171452D02*
X0156965Y0177709D01*
X0146965Y0176473D02*
X0146965Y0172688D01*
X0146965Y0192373D02*
X0146965Y0196158D01*
X0151965Y0196158D02*
X0151965Y0192373D01*
X0138015Y0266600D02*
X0136365Y0266600D01*
X0136365Y0271600D02*
X0138015Y0271600D01*
X0138015Y0276600D02*
X0136365Y0276600D01*
X0136365Y0281600D02*
X0141698Y0281600D01*
X0141965Y0281711D02*
X0141965Y0435150D01*
X0146965Y0435150D02*
X0146965Y0413412D01*
X0146765Y0411600D02*
X0136365Y0411600D01*
X0136365Y0406600D02*
X0146765Y0406600D01*
X0146765Y0401600D02*
X0136365Y0401600D01*
X0136365Y0396600D02*
X0146765Y0396600D01*
X0146765Y0391600D02*
X0136365Y0391600D01*
X0136365Y0386600D02*
X0146765Y0386600D01*
X0146765Y0381600D02*
X0136365Y0381600D01*
X0136365Y0376600D02*
X0146765Y0376600D01*
X0146765Y0371600D02*
X0136365Y0371600D01*
X0136365Y0366600D02*
X0146765Y0366600D01*
X0146765Y0361600D02*
X0136365Y0361600D01*
X0136365Y0356600D02*
X0146765Y0356600D01*
X0146765Y0351600D02*
X0136365Y0351600D01*
X0136365Y0346600D02*
X0146765Y0346600D01*
X0146765Y0341600D02*
X0136365Y0341600D01*
X0136365Y0336600D02*
X0146765Y0336600D01*
X0146765Y0331600D02*
X0136365Y0331600D01*
X0136365Y0326600D02*
X0146765Y0326600D01*
X0146765Y0321600D02*
X0136365Y0321600D01*
X0136365Y0316600D02*
X0146765Y0316600D01*
X0146965Y0313833D02*
X0146965Y0281800D01*
X0151965Y0281800D02*
X0151965Y0307996D01*
X0153361Y0306600D02*
X0136365Y0306600D01*
X0136365Y0301600D02*
X0158361Y0301600D01*
X0156965Y0302996D02*
X0156965Y0281800D01*
X0161965Y0281800D02*
X0161965Y0297996D01*
X0163361Y0296600D02*
X0136365Y0296600D01*
X0136365Y0291600D02*
X0168361Y0291600D01*
X0166965Y0292996D02*
X0166965Y0281800D01*
X0170515Y0286600D02*
X0136365Y0286600D01*
X0136365Y0311600D02*
X0148361Y0311600D01*
X0163069Y0311600D02*
X0191565Y0311600D01*
X0176965Y0297704D02*
X0176965Y0400310D01*
X0185489Y0416600D02*
X0238195Y0416600D01*
X0238188Y0431600D02*
X0181812Y0431600D01*
X0181965Y0431663D02*
X0181965Y0419674D01*
X0176965Y0420921D02*
X0176965Y0429541D01*
X0161965Y0429249D02*
X0161965Y0435150D01*
X0156965Y0435150D02*
X0156965Y0424249D01*
X0159316Y0426600D02*
X0136365Y0426600D01*
X0136365Y0421600D02*
X0154316Y0421600D01*
X0151965Y0419249D02*
X0151965Y0435150D01*
X0149316Y0416600D02*
X0136365Y0416600D01*
X0157165Y0371600D02*
X0194328Y0371600D01*
X0231965Y0387000D02*
X0231965Y0389850D01*
X0236965Y0388500D02*
X0236965Y0387000D01*
X0191565Y0296600D02*
X0178069Y0296600D01*
X0180915Y0291600D02*
X0191565Y0291600D01*
X0191565Y0286600D02*
X0180915Y0286600D01*
X0180915Y0281600D02*
X0191565Y0281600D01*
X0186965Y0281600D02*
X0186965Y0276600D01*
X0186965Y0276600D01*
X0181965Y0276600D01*
X0181965Y0276600D01*
X0181965Y0275204D01*
X0180915Y0276254D01*
X0181965Y0276600D02*
X0186965Y0276600D01*
X0186965Y0281600D01*
X0186965Y0276600D02*
X0186965Y0276600D01*
X0186965Y0276600D01*
X0186965Y0271600D01*
X0186965Y0271600D01*
X0185569Y0271600D01*
X0186619Y0270550D01*
X0192833Y0270550D01*
X0190410Y0272973D01*
X0189036Y0271600D01*
X0191783Y0271600D01*
X0191965Y0271418D02*
X0191965Y0270550D01*
X0189036Y0271600D02*
X0186965Y0271600D01*
X0186965Y0276600D01*
X0186965Y0270550D01*
X0181965Y0276600D02*
X0181965Y0278671D01*
X0295915Y0260150D02*
X0295915Y0250566D01*
X0295909Y0250550D01*
X0306750Y0250550D01*
X0308599Y0249784D01*
X0305410Y0252973D01*
X0304036Y0251600D01*
X0306783Y0251600D01*
X0306965Y0251418D02*
X0306965Y0250461D01*
X0304036Y0251600D02*
X0301965Y0251600D01*
X0301965Y0251600D01*
X0301965Y0256600D01*
X0295915Y0256600D01*
X0296965Y0256600D02*
X0296965Y0256600D01*
X0296965Y0254529D01*
X0296965Y0250550D01*
X0295915Y0251600D02*
X0299894Y0251600D01*
X0301965Y0251600D01*
X0301965Y0256600D01*
X0301965Y0256600D01*
X0296965Y0256600D01*
X0301965Y0256600D01*
X0301965Y0256600D01*
X0301965Y0250550D01*
X0299894Y0251600D02*
X0296965Y0254529D01*
X0296965Y0256600D02*
X0296965Y0258671D01*
X0296965Y0260150D01*
X0295915Y0260150D02*
X0298444Y0260150D01*
X0296965Y0258671D01*
X0316965Y0181600D02*
X0316965Y0181600D01*
X0316965Y0176600D02*
X0316965Y0176600D01*
X0321965Y0172645D02*
X0321965Y0116000D01*
X0330025Y0171600D02*
X0700515Y0171600D01*
X0700515Y0196600D02*
X0532313Y0196600D01*
X0532433Y0196835D02*
X0532720Y0197718D01*
X0532865Y0198636D01*
X0532865Y0199100D01*
X0532865Y0199564D01*
X0532720Y0200482D01*
X0532433Y0201365D01*
X0532011Y0202192D01*
X0531465Y0202944D01*
X0530809Y0203600D01*
X0530057Y0204146D01*
X0529230Y0204568D01*
X0528347Y0204855D01*
X0527430Y0205000D01*
X0526965Y0205000D01*
X0526501Y0205000D01*
X0525584Y0204855D01*
X0524700Y0204568D01*
X0523873Y0204146D01*
X0523122Y0203600D01*
X0522465Y0202944D01*
X0521965Y0202256D01*
X0521965Y0199100D02*
X0521965Y0199100D01*
X0521065Y0199100D02*
X0526965Y0199100D01*
X0526965Y0199100D01*
X0516965Y0199100D01*
X0516965Y0199100D01*
X0521065Y0199100D01*
X0521965Y0195944D02*
X0522465Y0195256D01*
X0523122Y0194600D01*
X0523873Y0194054D01*
X0524700Y0193632D01*
X0525584Y0193345D01*
X0526501Y0193200D01*
X0526965Y0193200D01*
X0526965Y0199100D01*
X0526965Y0205000D01*
X0526965Y0199100D01*
X0526965Y0199100D01*
X0526965Y0199100D01*
X0526965Y0231000D01*
X0523610Y0231000D02*
X0530320Y0231000D01*
X0531965Y0232645D02*
X0531965Y0202256D01*
X0532313Y0201600D02*
X0700515Y0201600D01*
X0700515Y0206600D02*
X0660025Y0206600D01*
X0664697Y0216600D02*
X0737801Y0216600D01*
X0736965Y0214300D02*
X0736965Y0225150D01*
X0737801Y0221600D02*
X0663420Y0221600D01*
X0657165Y0241600D02*
X0700515Y0241600D01*
X0700515Y0246600D02*
X0657165Y0246600D01*
X0651965Y0255550D02*
X0651965Y0268900D01*
X0646965Y0268900D02*
X0646965Y0255550D01*
X0641965Y0255550D02*
X0641965Y0268900D01*
X0636965Y0268900D02*
X0636965Y0255550D01*
X0631965Y0255550D02*
X0631965Y0268900D01*
X0626965Y0268900D02*
X0626965Y0255550D01*
X0621965Y0255550D02*
X0621965Y0268900D01*
X0616965Y0268900D02*
X0616965Y0255550D01*
X0611965Y0255550D02*
X0611965Y0268900D01*
X0657165Y0276600D02*
X0700515Y0276600D01*
X0700515Y0281600D02*
X0657165Y0281600D01*
X0660121Y0286600D02*
X0700515Y0286600D01*
X0706965Y0294300D02*
X0706965Y0501215D01*
X0711965Y0501215D02*
X0711965Y0294300D01*
X0716965Y0294300D02*
X0716965Y0501215D01*
X0721965Y0501215D02*
X0721965Y0294300D01*
X0726965Y0294300D02*
X0726965Y0501215D01*
X0731965Y0501215D02*
X0731965Y0294300D01*
X0700515Y0261600D02*
X0502148Y0261600D01*
X0504165Y0256600D02*
X0513010Y0256600D01*
X0513610Y0257200D02*
X0520320Y0257200D01*
X0521965Y0255555D01*
X0520920Y0256600D02*
X0523010Y0256600D01*
X0526965Y0257200D02*
X0526965Y0333963D01*
X0524602Y0331600D02*
X0737801Y0331600D01*
X0737801Y0396600D02*
X0589602Y0396600D01*
X0597365Y0411600D02*
X0643510Y0411600D01*
X0645371Y0416600D02*
X0597365Y0416600D01*
X0597365Y0421600D02*
X0737801Y0421600D01*
X0737801Y0416600D02*
X0662260Y0416600D01*
X0661965Y0417040D02*
X0661965Y0501213D01*
X0656965Y0501213D02*
X0656965Y0420441D01*
X0651965Y0420789D02*
X0651965Y0501213D01*
X0646965Y0501213D02*
X0646965Y0418340D01*
X0664121Y0411600D02*
X0737801Y0411600D01*
X0737801Y0426600D02*
X0597365Y0426600D01*
X0597365Y0431600D02*
X0737801Y0431600D01*
X0737801Y0436600D02*
X0594602Y0436600D01*
X0591965Y0439237D02*
X0591965Y0446400D01*
X0586965Y0446400D02*
X0586965Y0444237D01*
X0589602Y0441600D02*
X0737801Y0441600D01*
X0596965Y0446400D02*
X0596965Y0433640D01*
X0521965Y0344950D02*
X0521965Y0344237D01*
X0521965Y0232645D02*
X0523610Y0231000D01*
X0523010Y0231600D02*
X0520920Y0231600D01*
X0516965Y0201600D02*
X0516965Y0201600D01*
X0516965Y0196600D02*
X0516965Y0196600D01*
X0511965Y0199100D02*
X0511965Y0199100D01*
X0526965Y0199100D02*
X0526965Y0116000D01*
X0531965Y0116000D02*
X0531965Y0195944D01*
X0532011Y0196008D02*
X0532433Y0196835D01*
X0532011Y0196008D02*
X0531465Y0195256D01*
X0530809Y0194600D01*
X0530057Y0194054D01*
X0529230Y0193632D01*
X0528347Y0193345D01*
X0527430Y0193200D01*
X0526965Y0193200D01*
X0526965Y0199100D01*
X0532865Y0199100D01*
X0526965Y0199100D01*
X0526965Y0199100D01*
X0526965Y0201600D02*
X0526965Y0201600D01*
X0526965Y0196600D02*
X0526965Y0196600D01*
X0531965Y0199100D02*
X0531965Y0199100D01*
X0706965Y0214300D02*
X0706965Y0225150D01*
X0711965Y0225150D02*
X0711965Y0214300D01*
X0716965Y0214300D02*
X0716965Y0225150D01*
X0721965Y0225150D02*
X0721965Y0214300D01*
X0726965Y0214300D02*
X0726965Y0225150D01*
X0731965Y0225150D02*
X0731965Y0214300D01*
M02*
