G75*
%MOIN*%
%OFA0B0*%
%FSLAX25Y25*%
%IPPOS*%
%LPD*%
%AMOC8*
5,1,8,0,0,1.08239X$1,22.5*
%
%ADD10C,0.12611*%
%ADD11C,0.08200*%
%ADD12R,0.08200X0.08200*%
%ADD13C,0.13398*%
%ADD14OC8,0.08200*%
%ADD15C,0.08400*%
%ADD16OC8,0.08400*%
%ADD17OC8,0.07100*%
%ADD18OC8,0.06400*%
%ADD19C,0.07800*%
%ADD20C,0.07200*%
%ADD21C,0.06400*%
%ADD22C,0.07900*%
%ADD23OC8,0.07556*%
D10*
X0177044Y0125970D03*
X0177044Y0410616D03*
X0653816Y0410616D03*
X0653816Y0125970D03*
D11*
X0656965Y0214100D03*
X0656965Y0226600D03*
X0626965Y0226600D03*
X0626965Y0214100D03*
X0526965Y0199100D03*
X0516965Y0199100D03*
X0626965Y0291600D03*
X0656965Y0291600D03*
X0526965Y0369100D03*
X0516965Y0369100D03*
X0426965Y0356895D03*
X0396965Y0356895D03*
X0396965Y0369100D03*
X0386965Y0369100D03*
X0376965Y0369100D03*
X0366965Y0369100D03*
X0356965Y0369100D03*
X0346965Y0369100D03*
X0336965Y0369100D03*
X0326965Y0369100D03*
X0310965Y0369100D03*
X0300965Y0369100D03*
X0290965Y0369100D03*
X0280965Y0369100D03*
X0270965Y0369100D03*
X0260965Y0369100D03*
X0250965Y0369100D03*
X0240965Y0369100D03*
X0290965Y0359100D03*
X0300965Y0359100D03*
X0300965Y0349100D03*
X0290965Y0349100D03*
X0179465Y0439395D03*
X0179465Y0469395D03*
X0266965Y0459395D03*
X0276965Y0459395D03*
X0286965Y0459395D03*
X0296965Y0459395D03*
X0291965Y0469395D03*
X0281965Y0469395D03*
X0271965Y0469395D03*
X0366965Y0459395D03*
X0376965Y0459395D03*
X0386965Y0459395D03*
X0396965Y0459395D03*
X0391965Y0469395D03*
X0381965Y0469395D03*
X0371965Y0469395D03*
X0466965Y0459395D03*
X0476965Y0459395D03*
X0486965Y0459395D03*
X0496965Y0459395D03*
X0491965Y0469395D03*
X0481965Y0469395D03*
X0471965Y0469395D03*
X0566965Y0459395D03*
X0576965Y0459395D03*
X0586965Y0459395D03*
X0581965Y0469395D03*
X0571965Y0469395D03*
X0591965Y0469395D03*
X0596965Y0459395D03*
X0326965Y0179100D03*
X0316965Y0179100D03*
X0306965Y0179100D03*
X0296965Y0179100D03*
X0286965Y0179100D03*
X0276965Y0179100D03*
D12*
X0301965Y0469395D03*
X0401965Y0469395D03*
X0501965Y0469395D03*
X0601965Y0469395D03*
D13*
X0606965Y0494395D03*
X0561965Y0494395D03*
X0506965Y0494395D03*
X0461965Y0494395D03*
X0406965Y0494395D03*
X0361965Y0494395D03*
X0306965Y0494395D03*
X0261965Y0494395D03*
D14*
X0516965Y0249100D03*
X0526965Y0249100D03*
X0526965Y0239100D03*
X0516965Y0239100D03*
D15*
X0264465Y0423805D03*
X0351965Y0428805D03*
D16*
X0338215Y0428805D03*
X0250715Y0423805D03*
D17*
X0166965Y0271600D03*
X0146965Y0271600D03*
X0266965Y0256600D03*
X0286965Y0256600D03*
X0391965Y0256600D03*
X0411965Y0256600D03*
X0451965Y0256600D03*
X0471965Y0256600D03*
D18*
X0486965Y0256600D03*
X0496965Y0256600D03*
X0436965Y0256600D03*
X0426965Y0256600D03*
X0311965Y0256600D03*
X0301965Y0256600D03*
X0196965Y0276600D03*
X0186965Y0276600D03*
D19*
X0236670Y0396600D03*
X0276670Y0396600D03*
X0324465Y0403805D03*
X0364465Y0403805D03*
D20*
X0304165Y0316600D02*
X0297765Y0316600D01*
X0297765Y0306600D02*
X0304165Y0306600D01*
X0304165Y0296600D02*
X0297765Y0296600D01*
X0271415Y0296895D02*
X0265015Y0296895D01*
X0265015Y0306895D02*
X0271415Y0306895D01*
X0271415Y0316895D02*
X0265015Y0316895D01*
X0176965Y0254800D02*
X0176965Y0248400D01*
X0166965Y0248400D02*
X0166965Y0254800D01*
X0156965Y0254800D02*
X0156965Y0248400D01*
X0276965Y0239800D02*
X0276965Y0233400D01*
X0286965Y0233400D02*
X0286965Y0239800D01*
X0296965Y0239800D02*
X0296965Y0233400D01*
X0401965Y0233400D02*
X0401965Y0239800D01*
X0411965Y0239800D02*
X0411965Y0233400D01*
X0421965Y0233400D02*
X0421965Y0239800D01*
X0461965Y0239800D02*
X0461965Y0233400D01*
X0471965Y0233400D02*
X0471965Y0239800D01*
X0481965Y0239800D02*
X0481965Y0233400D01*
D21*
X0616965Y0241000D02*
X0616965Y0246600D01*
X0626965Y0246600D02*
X0626965Y0241000D01*
X0636965Y0241000D02*
X0636965Y0246600D01*
X0646965Y0246600D02*
X0646965Y0241000D01*
X0646965Y0276600D02*
X0646965Y0282200D01*
X0636965Y0282200D02*
X0636965Y0276600D01*
X0626965Y0276600D02*
X0626965Y0282200D01*
X0616965Y0282200D02*
X0616965Y0276600D01*
D22*
X0721486Y0279080D02*
X0728586Y0279080D01*
X0728586Y0259395D02*
X0721486Y0259395D01*
X0721486Y0239710D02*
X0728586Y0239710D01*
X0728507Y0199553D02*
X0721407Y0199553D01*
X0721407Y0179868D02*
X0728507Y0179868D01*
X0728507Y0160183D02*
X0721407Y0160183D01*
X0721407Y0140498D02*
X0728507Y0140498D01*
X0152436Y0145053D02*
X0145336Y0145053D01*
X0145336Y0164738D02*
X0152436Y0164738D01*
X0152436Y0184423D02*
X0145336Y0184423D01*
X0145336Y0204108D02*
X0152436Y0204108D01*
X0152936Y0449710D02*
X0145836Y0449710D01*
X0145836Y0469395D02*
X0152936Y0469395D01*
X0152936Y0489080D02*
X0145836Y0489080D01*
D23*
X0325715Y0359725D03*
X0360090Y0342225D03*
X0408840Y0338475D03*
X0371965Y0386600D03*
X0486965Y0401600D03*
X0486965Y0436600D03*
X0542590Y0431600D03*
X0558840Y0439725D03*
X0578215Y0446600D03*
X0542590Y0386600D03*
X0503215Y0364725D03*
X0441965Y0491600D03*
X0217590Y0355350D03*
M02*
