%
M48
M72
T01C0.02756
T02C0.03200
T03C0.03543
T04C0.03937
T05C0.04000
T06C0.04700
T07C0.11811
T08C0.12598
%
T01
X408840Y338475
X360090Y342225
X325715Y359725
X371965Y386600
X486965Y401600
X486965Y436600
X542590Y431600
X558840Y439725
X578215Y446600
X542590Y386600
X503215Y364725
X441965Y491600
X217590Y355350
T02
X196965Y276600
X186965Y276600
X166965Y271600
X146965Y271600
X266965Y256600
X286965Y256600
X301965Y256600
X311965Y256600
X391965Y256600
X411965Y256600
X426965Y256600
X436965Y256600
X451965Y256600
X471965Y256600
X486965Y256600
X496965Y256600
X616965Y246600
X626965Y246600
X636965Y246600
X646965Y246600
X646965Y276600
X636965Y276600
X626965Y276600
X616965Y276600
T03
X626965Y291600
X656965Y291600
X656965Y226600
X656965Y214100
X626965Y214100
X626965Y226600
X426965Y356895
X396965Y356895
X300965Y359100
X290965Y359100
X290965Y349100
X300965Y349100
X179465Y439395
X179465Y469395
T04
X266965Y459395
X276965Y459395
X286965Y459395
X296965Y459395
X291965Y469395
X281965Y469395
X271965Y469395
X301965Y469395
X366965Y459395
X376965Y459395
X386965Y459395
X396965Y459395
X391965Y469395
X401965Y469395
X381965Y469395
X371965Y469395
X466965Y459395
X476965Y459395
X486965Y459395
X496965Y459395
X491965Y469395
X481965Y469395
X471965Y469395
X501965Y469395
X566965Y459395
X576965Y459395
X586965Y459395
X581965Y469395
X571965Y469395
X591965Y469395
X601965Y469395
X596965Y459395
T05
X526965Y369100
X516965Y369100
X396965Y369100
X386965Y369100
X376965Y369100
X366965Y369100
X356965Y369100
X346965Y369100
X336965Y369100
X326965Y369100
X310965Y369100
X300965Y369100
X290965Y369100
X280965Y369100
X270965Y369100
X260965Y369100
X250965Y369100
X240965Y369100
X236670Y396600
X250715Y423805
X264465Y423805
X276670Y396600
X324465Y403805
X338215Y428805
X351965Y428805
X364465Y403805
X300965Y316600
X300965Y306600
X300965Y296600
X268215Y296895
X268215Y306895
X268215Y316895
X176965Y251600
X166965Y251600
X156965Y251600
X276965Y236600
X286965Y236600
X296965Y236600
X296965Y179100
X286965Y179100
X276965Y179100
X306965Y179100
X316965Y179100
X326965Y179100
X401965Y236600
X411965Y236600
X421965Y236600
X461965Y236600
X471965Y236600
X481965Y236600
X516965Y239100
X526965Y239100
X526965Y249100
X516965Y249100
X516965Y199100
X526965Y199100
T06
X724957Y199553
X724957Y179868
X724957Y160183
X724957Y140498
X725036Y239710
X725036Y259395
X725036Y279080
X149386Y449710
X149386Y469395
X149386Y489080
X148886Y204108
X148886Y184423
X148886Y164738
X148886Y145053
T07
X177044Y125970
X177044Y410616
X653816Y410616
X653816Y125970
T08
X606965Y494395
X561965Y494395
X506965Y494395
X461965Y494395
X406965Y494395
X361965Y494395
X306965Y494395
X261965Y494395
M30
