%
M48
M72
T01C0.02756
T02C0.03200
T03C0.03543
T04C0.03600
T05C0.03937
T06C0.04000
T07C0.04700
T08C0.11811
T09C0.12598
%
T01
X366965Y398293
X396965Y404543
X361965Y439543
X296965Y407043
X256965Y447043
X326965Y502043
X441965Y482043
X471965Y452043
X474465Y437043
X636965Y324543
T02
X636965Y307043
X626965Y307043
X616965Y307043
X646965Y307043
X646965Y277043
X636965Y277043
X626965Y277043
X616965Y277043
X504465Y282043
X494465Y282043
X481965Y282043
X461965Y282043
X446965Y282043
X436965Y282043
X421965Y277043
X421965Y297043
X399465Y277043
X389465Y277043
X376965Y277043
X356965Y277043
X339465Y277043
X329465Y277043
X316965Y282043
X296965Y282043
T03
X336965Y364543
X346965Y364543
X356965Y364543
X356965Y374543
X346965Y374543
X336965Y374543
X396965Y372339
X426965Y372339
X626965Y337043
X656965Y337043
X656965Y257043
X656965Y244543
X626965Y244543
X626965Y257043
X174465Y454839
X174465Y484839
T04
X365165Y341243
X422765Y343043
X422765Y358743
X489365Y461843
X441665Y491543
T05
X466965Y474839
X476965Y474839
X486965Y474839
X496965Y474839
X491965Y484839
X481965Y484839
X471965Y484839
X501965Y484839
X566965Y474839
X576965Y474839
X586965Y474839
X596965Y474839
X591965Y484839
X581965Y484839
X571965Y484839
X601965Y484839
X401965Y484839
X391965Y484839
X381965Y484839
X371965Y484839
X366965Y474839
X376965Y474839
X386965Y474839
X396965Y474839
X301965Y484839
X291965Y484839
X281965Y484839
X271965Y484839
X266965Y474839
X276965Y474839
X286965Y474839
X296965Y474839
T06
X325715Y449248
X339465Y449248
X351670Y422043
X369170Y422043
X383215Y449248
X396965Y449248
X409170Y422043
X426965Y422043
X435715Y449248
X449465Y449248
X466965Y422043
X516965Y384543
X526965Y384543
X396965Y384543
X386965Y384543
X376965Y384543
X366965Y384543
X356965Y384543
X346965Y384543
X336965Y384543
X326965Y384543
X310965Y384543
X300965Y384543
X290965Y384543
X280965Y384543
X270965Y384543
X260965Y384543
X250965Y384543
X240965Y384543
X311670Y422043
X313215Y337339
X313215Y327339
X313215Y317339
X346965Y317043
X346965Y327043
X346965Y337043
X381965Y337043
X381965Y327043
X381965Y317043
X381965Y257043
X371965Y257043
X361965Y257043
X326965Y257043
X316965Y257043
X306965Y257043
X306965Y194543
X296965Y194543
X286965Y194543
X276965Y194543
X316965Y194543
X326965Y194543
X416965Y257043
X426965Y257043
X436965Y257043
X471965Y257043
X481965Y257043
X491965Y257043
X516965Y254543
X526965Y254543
X526965Y264543
X516965Y264543
X516965Y214543
X526965Y214543
T07
X724957Y214996
X724957Y195311
X724957Y175626
X724957Y155941
X725036Y255154
X725036Y274839
X725036Y294524
X146386Y300802
X146386Y281117
X146386Y261431
X146386Y241746
X146886Y465154
X146886Y484839
X146886Y504524
T08
X177044Y141413
X177044Y426059
X653816Y426059
X653816Y141413
T09
X606965Y509839
X561965Y509839
X506965Y509839
X461965Y509839
X406965Y509839
X361965Y509839
X306965Y509839
X261965Y509839
M30
