G75*
%MOIN*%
%OFA0B0*%
%FSLAX25Y25*%
%IPPOS*%
%LPD*%
%AMOC8*
5,1,8,0,0,1.08239X$1,22.5*
%
%ADD10C,0.07400*%
%ADD11R,0.07400X0.07400*%
%ADD12OC8,0.07400*%
%ADD13C,0.07600*%
%ADD14OC8,0.07600*%
%ADD15OC8,0.06300*%
%ADD16OC8,0.05600*%
%ADD17C,0.06400*%
%ADD18C,0.05600*%
%ADD19C,0.07100*%
%ADD20OC8,0.06756*%
%ADD21C,0.01600*%
%ADD22C,0.02000*%
%ADD23C,0.04000*%
%ADD24C,0.02400*%
D10*
X0276965Y0194543D03*
X0286965Y0194543D03*
X0296965Y0194543D03*
X0306965Y0194543D03*
X0316965Y0194543D03*
X0326965Y0194543D03*
X0516965Y0214543D03*
X0526965Y0214543D03*
X0626965Y0244543D03*
X0626965Y0257043D03*
X0656965Y0257043D03*
X0656965Y0244543D03*
X0656965Y0337043D03*
X0626965Y0337043D03*
X0526965Y0384543D03*
X0516965Y0384543D03*
X0466965Y0422043D03*
X0426965Y0422043D03*
X0409170Y0422043D03*
X0369170Y0422043D03*
X0351670Y0422043D03*
X0311670Y0422043D03*
X0310965Y0384543D03*
X0300965Y0384543D03*
X0290965Y0384543D03*
X0280965Y0384543D03*
X0270965Y0384543D03*
X0260965Y0384543D03*
X0250965Y0384543D03*
X0240965Y0384543D03*
X0326965Y0384543D03*
X0336965Y0384543D03*
X0336965Y0374543D03*
X0346965Y0374543D03*
X0356965Y0374543D03*
X0356965Y0384543D03*
X0346965Y0384543D03*
X0366965Y0384543D03*
X0376965Y0384543D03*
X0386965Y0384543D03*
X0396965Y0384543D03*
X0396965Y0372339D03*
X0426965Y0372339D03*
X0356965Y0364543D03*
X0346965Y0364543D03*
X0336965Y0364543D03*
X0366965Y0474839D03*
X0376965Y0474839D03*
X0386965Y0474839D03*
X0396965Y0474839D03*
X0391965Y0484839D03*
X0381965Y0484839D03*
X0371965Y0484839D03*
X0296965Y0474839D03*
X0286965Y0474839D03*
X0276965Y0474839D03*
X0266965Y0474839D03*
X0271965Y0484839D03*
X0281965Y0484839D03*
X0291965Y0484839D03*
X0174465Y0484839D03*
X0174465Y0454839D03*
X0466965Y0474839D03*
X0476965Y0474839D03*
X0486965Y0474839D03*
X0496965Y0474839D03*
X0491965Y0484839D03*
X0481965Y0484839D03*
X0471965Y0484839D03*
X0566965Y0474839D03*
X0576965Y0474839D03*
X0586965Y0474839D03*
X0596965Y0474839D03*
X0591965Y0484839D03*
X0581965Y0484839D03*
X0571965Y0484839D03*
D11*
X0601965Y0484839D03*
X0501965Y0484839D03*
X0401965Y0484839D03*
X0301965Y0484839D03*
D12*
X0516965Y0264543D03*
X0516965Y0254543D03*
X0526965Y0254543D03*
X0526965Y0264543D03*
D13*
X0449465Y0449248D03*
X0396965Y0449248D03*
X0339465Y0449248D03*
D14*
X0325715Y0449248D03*
X0383215Y0449248D03*
X0435715Y0449248D03*
X0489365Y0461843D03*
X0441665Y0491543D03*
X0422765Y0358743D03*
X0422765Y0343043D03*
X0365165Y0341243D03*
D15*
X0421965Y0297043D03*
X0421965Y0277043D03*
X0461965Y0282043D03*
X0481965Y0282043D03*
X0376965Y0277043D03*
X0356965Y0277043D03*
X0316965Y0282043D03*
X0296965Y0282043D03*
D16*
X0329465Y0277043D03*
X0339465Y0277043D03*
X0389465Y0277043D03*
X0399465Y0277043D03*
X0436965Y0282043D03*
X0446965Y0282043D03*
X0494465Y0282043D03*
X0504465Y0282043D03*
D17*
X0491965Y0260243D02*
X0491965Y0253843D01*
X0481965Y0253843D02*
X0481965Y0260243D01*
X0471965Y0260243D02*
X0471965Y0253843D01*
X0436965Y0253843D02*
X0436965Y0260243D01*
X0426965Y0260243D02*
X0426965Y0253843D01*
X0416965Y0253843D02*
X0416965Y0260243D01*
X0381965Y0260243D02*
X0381965Y0253843D01*
X0371965Y0253843D02*
X0371965Y0260243D01*
X0361965Y0260243D02*
X0361965Y0253843D01*
X0326965Y0253843D02*
X0326965Y0260243D01*
X0316965Y0260243D02*
X0316965Y0253843D01*
X0306965Y0253843D02*
X0306965Y0260243D01*
X0310015Y0317339D02*
X0316415Y0317339D01*
X0316415Y0327339D02*
X0310015Y0327339D01*
X0310015Y0337339D02*
X0316415Y0337339D01*
X0343765Y0337043D02*
X0350165Y0337043D01*
X0350165Y0327043D02*
X0343765Y0327043D01*
X0343765Y0317043D02*
X0350165Y0317043D01*
X0378765Y0317043D02*
X0385165Y0317043D01*
X0385165Y0327043D02*
X0378765Y0327043D01*
X0378765Y0337043D02*
X0385165Y0337043D01*
D18*
X0616965Y0312643D02*
X0616965Y0307043D01*
X0626965Y0307043D02*
X0626965Y0312643D01*
X0636965Y0312643D02*
X0636965Y0307043D01*
X0646965Y0307043D02*
X0646965Y0312643D01*
X0646965Y0277043D02*
X0646965Y0271443D01*
X0636965Y0271443D02*
X0636965Y0277043D01*
X0626965Y0277043D02*
X0626965Y0271443D01*
X0616965Y0271443D02*
X0616965Y0277043D01*
D19*
X0721486Y0274839D02*
X0728586Y0274839D01*
X0728586Y0294524D02*
X0721486Y0294524D01*
X0721486Y0255154D02*
X0728586Y0255154D01*
X0728507Y0214996D02*
X0721407Y0214996D01*
X0721407Y0195311D02*
X0728507Y0195311D01*
X0728507Y0175626D02*
X0721407Y0175626D01*
X0721407Y0155941D02*
X0728507Y0155941D01*
X0149936Y0241746D02*
X0142836Y0241746D01*
X0142836Y0261431D02*
X0149936Y0261431D01*
X0149936Y0281117D02*
X0142836Y0281117D01*
X0142836Y0300802D02*
X0149936Y0300802D01*
X0150436Y0465154D02*
X0143336Y0465154D01*
X0143336Y0484839D02*
X0150436Y0484839D01*
X0150436Y0504524D02*
X0143336Y0504524D01*
D20*
X0256965Y0447043D03*
X0296965Y0407043D03*
X0361965Y0439543D03*
X0396965Y0404543D03*
X0366965Y0398293D03*
X0474465Y0437043D03*
X0471965Y0452043D03*
X0441965Y0482043D03*
X0326965Y0502043D03*
X0636965Y0324543D03*
D21*
X0636965Y0307043D01*
X0626965Y0307043D02*
X0626965Y0337043D01*
X0615715Y0310793D02*
X0600715Y0310793D01*
X0526965Y0384543D01*
X0471965Y0452043D02*
X0466965Y0452043D01*
X0455715Y0463293D01*
X0455715Y0485793D01*
X0463215Y0493293D01*
X0488215Y0493293D01*
X0491965Y0489543D01*
X0491965Y0484839D01*
X0396965Y0404543D02*
X0373215Y0404543D01*
X0366965Y0398293D01*
X0356965Y0364543D02*
X0356965Y0357043D01*
X0381965Y0337043D01*
X0346965Y0337043D02*
X0346965Y0364543D01*
X0336965Y0364543D02*
X0336965Y0356089D01*
X0313215Y0337339D01*
X0185715Y0465793D02*
X0146965Y0465793D01*
X0146886Y0465154D01*
X0146886Y0484839D02*
X0174465Y0484839D01*
X0185715Y0465793D02*
X0238215Y0518293D01*
X0310715Y0518293D01*
X0326965Y0502043D01*
X0615715Y0310793D02*
X0616965Y0307043D01*
X0616165Y0307643D01*
X0616165Y0310343D01*
X0626965Y0277043D02*
X0626965Y0257043D01*
X0626965Y0244543D01*
X0641965Y0257043D02*
X0636965Y0262043D01*
X0636965Y0277043D01*
X0641965Y0257043D02*
X0656965Y0257043D01*
X0709446Y0294524D01*
X0725036Y0294524D01*
X0725036Y0274839D02*
X0714760Y0274839D01*
X0669465Y0244543D01*
X0656965Y0244543D01*
D22*
X0680840Y0156443D02*
X0357565Y0156443D01*
X0326965Y0187043D01*
X0326965Y0194543D01*
X0326965Y0257043D02*
X0339465Y0269543D01*
X0339465Y0277043D01*
X0381965Y0257043D02*
X0399465Y0274543D01*
X0399465Y0277043D01*
X0407590Y0290168D01*
X0407590Y0421418D01*
X0409170Y0422043D01*
X0401965Y0422043D01*
X0396965Y0427043D01*
X0396965Y0449248D01*
X0383215Y0449248D02*
X0383215Y0471089D01*
X0386965Y0474839D01*
X0390265Y0468143D02*
X0396565Y0474443D01*
X0396965Y0474839D01*
X0419170Y0474839D01*
X0431965Y0462043D01*
X0431965Y0452998D01*
X0435715Y0449248D01*
X0439465Y0445498D01*
X0439465Y0432043D01*
X0429465Y0422043D01*
X0426965Y0422043D01*
X0403765Y0415043D02*
X0390265Y0428543D01*
X0390265Y0468143D01*
X0391965Y0484839D02*
X0391965Y0489543D01*
X0394465Y0492043D01*
X0431965Y0492043D01*
X0441965Y0482043D01*
X0441665Y0491543D02*
X0437165Y0496043D01*
X0374165Y0496043D01*
X0355265Y0477143D01*
X0355265Y0430343D01*
X0358865Y0426743D01*
X0358865Y0397043D01*
X0364265Y0391643D01*
X0370565Y0391643D01*
X0376865Y0385343D01*
X0376965Y0384543D01*
X0411965Y0379043D02*
X0460965Y0428043D01*
X0466965Y0422043D01*
X0468215Y0413918D02*
X0453215Y0413918D01*
X0416340Y0377043D01*
X0416365Y0377018D01*
X0416365Y0330643D01*
X0451115Y0298293D01*
X0498215Y0298293D01*
X0504465Y0282043D01*
X0504465Y0269543D01*
X0491965Y0257043D01*
X0446965Y0267043D02*
X0446965Y0282043D01*
X0446165Y0282743D01*
X0446165Y0295343D01*
X0411965Y0329543D01*
X0411965Y0379043D01*
X0422765Y0358743D02*
X0422765Y0343043D01*
X0403765Y0352043D02*
X0403765Y0415043D01*
X0383215Y0428293D02*
X0376965Y0422043D01*
X0369170Y0422043D01*
X0361965Y0429543D01*
X0361965Y0439543D01*
X0351670Y0422043D02*
X0339465Y0434248D01*
X0339465Y0449248D01*
X0339465Y0464543D01*
X0319170Y0484839D01*
X0301965Y0484839D01*
X0296965Y0474839D02*
X0314170Y0474839D01*
X0324465Y0464543D01*
X0324465Y0450498D01*
X0325715Y0449248D01*
X0325715Y0428293D01*
X0319465Y0422043D01*
X0317365Y0422043D01*
X0317365Y0376743D01*
X0298365Y0362743D01*
X0298365Y0334943D01*
X0305970Y0327339D01*
X0313215Y0327339D01*
X0346965Y0327043D02*
X0347165Y0327743D01*
X0351665Y0327743D01*
X0365165Y0341243D01*
X0381965Y0327043D02*
X0393765Y0327043D01*
X0394465Y0327743D01*
X0403765Y0352043D01*
X0468215Y0413918D02*
X0503840Y0449543D01*
X0503840Y0477043D01*
X0501965Y0478918D01*
X0501965Y0484839D01*
X0496965Y0474839D02*
X0497465Y0474443D01*
X0494765Y0471743D01*
X0494765Y0467243D01*
X0489365Y0461843D01*
X0516365Y0481643D02*
X0516365Y0385343D01*
X0516965Y0384543D01*
X0460965Y0428043D02*
X0449465Y0439543D01*
X0449465Y0449248D01*
X0449465Y0459543D01*
X0424170Y0484839D01*
X0401965Y0484839D01*
X0372365Y0499643D02*
X0498365Y0499643D01*
X0516365Y0481643D01*
X0383215Y0449248D02*
X0383215Y0428293D01*
X0317365Y0422043D02*
X0311670Y0422043D01*
X0296965Y0407043D02*
X0276965Y0427043D01*
X0276965Y0474839D01*
X0271965Y0484839D02*
X0259760Y0484839D01*
X0246965Y0472043D01*
X0246965Y0437043D01*
X0281965Y0397043D01*
X0305715Y0397043D01*
X0310715Y0392043D01*
X0310715Y0387293D01*
X0310965Y0384543D01*
X0200865Y0455543D02*
X0249065Y0502493D01*
X0301065Y0502493D01*
X0308765Y0496043D01*
X0368765Y0496043D01*
X0372365Y0499643D01*
X0200865Y0455543D02*
X0175265Y0455543D01*
X0174465Y0454839D01*
X0436965Y0257043D02*
X0446965Y0267043D01*
X0680840Y0156443D02*
X0724465Y0156418D01*
X0724957Y0155941D01*
D23*
X0724957Y0214996D02*
X0724465Y0215168D01*
X0721965Y0217668D01*
X0551965Y0217668D01*
X0534990Y0204643D01*
X0509065Y0204643D01*
X0500707Y0204588D01*
X0471965Y0233329D01*
X0471965Y0257043D01*
X0461965Y0267043D01*
X0461965Y0282043D01*
X0421965Y0277043D02*
X0416965Y0272043D01*
X0416965Y0257043D01*
X0417590Y0255168D01*
X0417590Y0233918D01*
X0446965Y0204543D01*
X0391965Y0204543D01*
X0361965Y0234543D01*
X0361965Y0257043D01*
X0356965Y0262043D01*
X0356965Y0277043D01*
X0361965Y0257043D02*
X0362590Y0250168D01*
X0306965Y0257043D02*
X0306965Y0227043D01*
X0329465Y0204543D01*
X0391965Y0204543D01*
X0446965Y0204543D02*
X0493965Y0204543D01*
X0500707Y0204588D01*
X0306965Y0257043D02*
X0296965Y0267043D01*
X0296965Y0282043D01*
X0295865Y0283643D01*
X0231965Y0347543D01*
X0231965Y0474443D01*
X0250865Y0493343D01*
X0275165Y0493343D01*
X0281465Y0487043D01*
X0281465Y0485243D01*
X0281965Y0484839D01*
D24*
X0135565Y0307643D02*
X0135565Y0130643D01*
X0738601Y0130643D01*
X0738601Y0517459D01*
X0613348Y0517455D01*
X0615357Y0515446D01*
X0616864Y0511808D01*
X0616864Y0507870D01*
X0615357Y0504231D01*
X0612573Y0501446D01*
X0608934Y0499939D01*
X0604996Y0499939D01*
X0601358Y0501446D01*
X0598573Y0504231D01*
X0597066Y0507870D01*
X0597066Y0511808D01*
X0598573Y0515446D01*
X0600582Y0517454D01*
X0568350Y0517453D01*
X0570357Y0515446D01*
X0571864Y0511808D01*
X0571864Y0507870D01*
X0570357Y0504231D01*
X0567573Y0501446D01*
X0563934Y0499939D01*
X0559996Y0499939D01*
X0556358Y0501446D01*
X0553573Y0504231D01*
X0552066Y0507870D01*
X0552066Y0511808D01*
X0553573Y0515446D01*
X0555580Y0517453D01*
X0513352Y0517452D01*
X0515357Y0515446D01*
X0516864Y0511808D01*
X0516864Y0507870D01*
X0515357Y0504231D01*
X0512573Y0501446D01*
X0508934Y0499939D01*
X0504996Y0499939D01*
X0504276Y0500238D01*
X0518971Y0485543D01*
X0518971Y0485543D01*
X0520265Y0484249D01*
X0520965Y0482558D01*
X0520965Y0390788D01*
X0521100Y0390732D01*
X0521965Y0389867D01*
X0522830Y0390732D01*
X0525513Y0391843D01*
X0528417Y0391843D01*
X0531100Y0390732D01*
X0533154Y0388678D01*
X0534265Y0385995D01*
X0534265Y0383466D01*
X0602538Y0315193D01*
X0611094Y0315193D01*
X0611540Y0316269D01*
X0613340Y0318069D01*
X0615692Y0319043D01*
X0618238Y0319043D01*
X0620591Y0318069D01*
X0621965Y0316694D01*
X0621965Y0331720D01*
X0621641Y0332043D02*
X0585688Y0332043D01*
X0586965Y0330766D02*
X0586965Y0467539D01*
X0585513Y0467539D02*
X0588417Y0467539D01*
X0591100Y0468650D01*
X0591965Y0469515D01*
X0592830Y0468650D01*
X0595513Y0467539D01*
X0598417Y0467539D01*
X0601100Y0468650D01*
X0603154Y0470703D01*
X0604265Y0473387D01*
X0604265Y0476291D01*
X0603748Y0477539D01*
X0606381Y0477539D01*
X0607704Y0478087D01*
X0608717Y0479099D01*
X0609265Y0480422D01*
X0609265Y0489255D01*
X0608717Y0490578D01*
X0607704Y0491591D01*
X0606381Y0492139D01*
X0597549Y0492139D01*
X0596226Y0491591D01*
X0595791Y0491155D01*
X0593417Y0492139D01*
X0590513Y0492139D01*
X0587830Y0491027D01*
X0586965Y0490162D01*
X0586100Y0491027D01*
X0583417Y0492139D01*
X0580513Y0492139D01*
X0577830Y0491027D01*
X0576965Y0490162D01*
X0576100Y0491027D01*
X0573417Y0492139D01*
X0570513Y0492139D01*
X0567830Y0491027D01*
X0565777Y0488974D01*
X0564665Y0486291D01*
X0564665Y0483387D01*
X0565231Y0482022D01*
X0562830Y0481027D01*
X0560777Y0478974D01*
X0559665Y0476291D01*
X0559665Y0473387D01*
X0560777Y0470703D01*
X0562830Y0468650D01*
X0565513Y0467539D01*
X0568417Y0467539D01*
X0571100Y0468650D01*
X0571965Y0469515D01*
X0572830Y0468650D01*
X0575513Y0467539D01*
X0578417Y0467539D01*
X0581100Y0468650D01*
X0581965Y0469515D01*
X0582830Y0468650D01*
X0585513Y0467539D01*
X0581965Y0469515D02*
X0581965Y0335766D01*
X0580688Y0337043D02*
X0619665Y0337043D01*
X0619665Y0338495D02*
X0619665Y0335591D01*
X0620777Y0332908D01*
X0622565Y0331120D01*
X0622565Y0317294D01*
X0621965Y0316694D01*
X0621616Y0317043D02*
X0622314Y0317043D01*
X0622565Y0322043D02*
X0595688Y0322043D01*
X0596965Y0320766D02*
X0596965Y0467539D01*
X0591965Y0469515D02*
X0591965Y0325766D01*
X0590688Y0327043D02*
X0622565Y0327043D01*
X0631365Y0328812D02*
X0631365Y0331120D01*
X0633154Y0332908D01*
X0634265Y0335591D01*
X0634265Y0338495D01*
X0633154Y0341178D01*
X0631100Y0343232D01*
X0628417Y0344343D01*
X0625513Y0344343D01*
X0622830Y0343232D01*
X0620777Y0341178D01*
X0619665Y0338495D01*
X0621641Y0342043D02*
X0575688Y0342043D01*
X0576965Y0340766D02*
X0576965Y0467539D01*
X0571965Y0469515D02*
X0571965Y0345766D01*
X0570688Y0347043D02*
X0738601Y0347043D01*
X0738601Y0342043D02*
X0660121Y0342043D01*
X0660057Y0342089D02*
X0659230Y0342511D01*
X0658347Y0342798D01*
X0657430Y0342943D01*
X0656965Y0342943D01*
X0656501Y0342943D01*
X0655584Y0342798D01*
X0654700Y0342511D01*
X0653873Y0342089D01*
X0653122Y0341544D01*
X0652465Y0340887D01*
X0651919Y0340136D01*
X0651497Y0339308D01*
X0651210Y0338425D01*
X0651065Y0337508D01*
X0651065Y0337043D01*
X0651065Y0336579D01*
X0651210Y0335662D01*
X0651497Y0334778D01*
X0651919Y0333951D01*
X0652465Y0333200D01*
X0653122Y0332543D01*
X0653873Y0331997D01*
X0654700Y0331576D01*
X0655584Y0331289D01*
X0656501Y0331143D01*
X0656965Y0331143D01*
X0656965Y0337043D01*
X0656965Y0337043D01*
X0651065Y0337043D01*
X0656965Y0337043D01*
X0656965Y0337043D01*
X0656965Y0264343D01*
X0655513Y0264343D02*
X0652830Y0263232D01*
X0651041Y0261443D01*
X0643788Y0261443D01*
X0641365Y0263866D01*
X0641365Y0266792D01*
X0641965Y0267392D01*
X0641965Y0263266D01*
X0643188Y0262043D02*
X0651641Y0262043D01*
X0651965Y0262367D02*
X0651965Y0267392D01*
X0651616Y0267043D02*
X0663397Y0267043D01*
X0661965Y0266021D02*
X0661965Y0333888D01*
X0662011Y0333951D02*
X0662433Y0334778D01*
X0662720Y0335662D01*
X0662865Y0336579D01*
X0662865Y0337043D01*
X0656965Y0337043D01*
X0634265Y0337043D01*
X0632289Y0332043D02*
X0653809Y0332043D01*
X0651965Y0333888D02*
X0651965Y0281094D01*
X0652391Y0280669D02*
X0650591Y0282469D01*
X0648238Y0283443D01*
X0645692Y0283443D01*
X0643340Y0282469D01*
X0641965Y0281094D01*
X0640591Y0282469D01*
X0638238Y0283443D01*
X0635692Y0283443D01*
X0633340Y0282469D01*
X0631965Y0281094D01*
X0630591Y0282469D01*
X0628238Y0283443D01*
X0625692Y0283443D01*
X0623340Y0282469D01*
X0621965Y0281094D01*
X0620591Y0282469D01*
X0618238Y0283443D01*
X0615692Y0283443D01*
X0613340Y0282469D01*
X0611540Y0280669D01*
X0610565Y0278316D01*
X0610565Y0270170D01*
X0611540Y0267818D01*
X0613340Y0266018D01*
X0615692Y0265043D01*
X0618238Y0265043D01*
X0620591Y0266018D01*
X0621965Y0267392D01*
X0621965Y0262367D01*
X0621641Y0262043D02*
X0534265Y0262043D01*
X0534265Y0261520D02*
X0534265Y0267567D01*
X0529989Y0271843D01*
X0523941Y0271843D01*
X0521965Y0269867D01*
X0521965Y0379220D01*
X0522830Y0378355D01*
X0525513Y0377243D01*
X0528043Y0377243D01*
X0598223Y0307063D01*
X0599840Y0306393D01*
X0610565Y0306393D01*
X0610565Y0305770D01*
X0611540Y0303418D01*
X0613340Y0301618D01*
X0615692Y0300643D01*
X0618238Y0300643D01*
X0620591Y0301618D01*
X0621965Y0302992D01*
X0621965Y0281094D01*
X0621016Y0282043D02*
X0622914Y0282043D01*
X0626965Y0283443D02*
X0626965Y0300643D01*
X0625692Y0300643D02*
X0628238Y0300643D01*
X0630591Y0301618D01*
X0631965Y0302992D01*
X0631965Y0281094D01*
X0631016Y0282043D02*
X0632914Y0282043D01*
X0636965Y0283443D02*
X0636965Y0300643D01*
X0635692Y0300643D02*
X0638238Y0300643D01*
X0640591Y0301618D01*
X0642391Y0303418D01*
X0642764Y0304319D01*
X0643151Y0303786D01*
X0643708Y0303230D01*
X0644345Y0302767D01*
X0645046Y0302410D01*
X0645794Y0302166D01*
X0646572Y0302043D01*
X0641016Y0302043D01*
X0641965Y0302992D02*
X0641965Y0281094D01*
X0641016Y0282043D02*
X0642914Y0282043D01*
X0646965Y0283443D02*
X0646965Y0307043D01*
X0646965Y0307043D01*
X0646965Y0302043D01*
X0646965Y0302043D01*
X0646572Y0302043D01*
X0646965Y0302043D02*
X0647359Y0302043D01*
X0738601Y0302043D01*
X0738601Y0297043D02*
X0735281Y0297043D01*
X0735736Y0295946D02*
X0734648Y0298574D01*
X0732636Y0300585D01*
X0730008Y0301674D01*
X0720064Y0301674D01*
X0717436Y0300585D01*
X0715774Y0298924D01*
X0709810Y0298924D01*
X0709306Y0299008D01*
X0708943Y0298924D01*
X0708570Y0298924D01*
X0708098Y0298728D01*
X0707601Y0298613D01*
X0707297Y0298396D01*
X0706953Y0298254D01*
X0706592Y0297892D01*
X0659176Y0264029D01*
X0658417Y0264343D01*
X0655513Y0264343D01*
X0652391Y0267818D02*
X0653365Y0270170D01*
X0653365Y0278316D01*
X0652391Y0280669D01*
X0651016Y0282043D02*
X0684400Y0282043D01*
X0681965Y0280305D02*
X0681965Y0517457D01*
X0676965Y0517457D02*
X0676965Y0276734D01*
X0677399Y0277043D02*
X0653365Y0277043D01*
X0653365Y0272043D02*
X0670398Y0272043D01*
X0671965Y0273163D02*
X0671965Y0517457D01*
X0666965Y0517457D02*
X0666965Y0269592D01*
X0671965Y0262349D02*
X0671965Y0251509D01*
X0672764Y0252043D02*
X0662289Y0252043D01*
X0661965Y0251720D02*
X0661965Y0249867D01*
X0661100Y0250732D02*
X0662889Y0248943D01*
X0668129Y0248943D01*
X0711955Y0278256D01*
X0712268Y0278569D01*
X0712675Y0278737D01*
X0713042Y0278982D01*
X0713476Y0279069D01*
X0713885Y0279239D01*
X0714326Y0279239D01*
X0714758Y0279325D01*
X0715193Y0279239D01*
X0715774Y0279239D01*
X0717436Y0280900D01*
X0720064Y0281989D01*
X0730008Y0281989D01*
X0732636Y0280900D01*
X0734648Y0278889D01*
X0735736Y0276261D01*
X0735736Y0273416D01*
X0734648Y0270788D01*
X0732636Y0268777D01*
X0730008Y0267689D01*
X0720064Y0267689D01*
X0717436Y0268777D01*
X0715903Y0270310D01*
X0672271Y0241126D01*
X0671958Y0240813D01*
X0671550Y0240644D01*
X0671184Y0240399D01*
X0670750Y0240313D01*
X0670340Y0240143D01*
X0669900Y0240143D01*
X0669467Y0240057D01*
X0669033Y0240143D01*
X0662889Y0240143D01*
X0661100Y0238355D01*
X0658417Y0237243D01*
X0655513Y0237243D01*
X0652830Y0238355D01*
X0650777Y0240408D01*
X0649665Y0243091D01*
X0649665Y0245995D01*
X0650777Y0248678D01*
X0652830Y0250732D01*
X0652978Y0250793D01*
X0652830Y0250855D01*
X0651041Y0252643D01*
X0641090Y0252643D01*
X0639473Y0253313D01*
X0634473Y0258313D01*
X0634247Y0258539D01*
X0634265Y0258495D01*
X0634265Y0255591D01*
X0633154Y0252908D01*
X0631365Y0251120D01*
X0631365Y0250467D01*
X0633154Y0248678D01*
X0634265Y0245995D01*
X0634265Y0243091D01*
X0633154Y0240408D01*
X0631100Y0238355D01*
X0628417Y0237243D01*
X0625513Y0237243D01*
X0622830Y0238355D01*
X0620777Y0240408D01*
X0619665Y0243091D01*
X0619665Y0245995D01*
X0620777Y0248678D01*
X0622565Y0250467D01*
X0622565Y0251120D01*
X0620777Y0252908D01*
X0619665Y0255591D01*
X0619665Y0258495D01*
X0620777Y0261178D01*
X0622565Y0262967D01*
X0622565Y0266792D01*
X0621965Y0267392D01*
X0621616Y0267043D02*
X0622314Y0267043D01*
X0616965Y0265043D02*
X0616965Y0223268D01*
X0611965Y0223268D02*
X0611965Y0267392D01*
X0612314Y0267043D02*
X0534265Y0267043D01*
X0531965Y0269867D02*
X0531965Y0373321D01*
X0533243Y0372043D02*
X0434265Y0372043D01*
X0434265Y0370887D02*
X0434265Y0373791D01*
X0433154Y0376474D01*
X0431100Y0378527D01*
X0428417Y0379639D01*
X0425513Y0379639D01*
X0425390Y0379587D01*
X0455121Y0409318D01*
X0469130Y0409318D01*
X0470821Y0410019D01*
X0472115Y0411313D01*
X0506446Y0445644D01*
X0507740Y0446938D01*
X0508440Y0448628D01*
X0508440Y0477958D01*
X0508187Y0478569D01*
X0508717Y0479099D01*
X0509265Y0480422D01*
X0509265Y0482238D01*
X0511765Y0479738D01*
X0511765Y0389667D01*
X0510777Y0388678D01*
X0509665Y0385995D01*
X0509665Y0383091D01*
X0510777Y0380408D01*
X0512830Y0378355D01*
X0515513Y0377243D01*
X0518417Y0377243D01*
X0521100Y0378355D01*
X0521965Y0379220D01*
X0516965Y0377243D02*
X0516965Y0271843D01*
X0513941Y0271843D02*
X0509665Y0267567D01*
X0509665Y0261520D01*
X0511641Y0259543D01*
X0509665Y0257567D01*
X0509665Y0251520D01*
X0513941Y0247243D01*
X0519989Y0247243D01*
X0521965Y0249220D01*
X0521965Y0217699D01*
X0521465Y0218387D01*
X0520809Y0219044D01*
X0520057Y0219589D01*
X0519230Y0220011D01*
X0518347Y0220298D01*
X0517430Y0220443D01*
X0516965Y0220443D01*
X0516501Y0220443D01*
X0515584Y0220298D01*
X0514700Y0220011D01*
X0513873Y0219589D01*
X0513122Y0219044D01*
X0512465Y0218387D01*
X0511919Y0217636D01*
X0511497Y0216808D01*
X0511210Y0215925D01*
X0511065Y0215008D01*
X0511065Y0214543D01*
X0511065Y0214079D01*
X0511210Y0213162D01*
X0511497Y0212278D01*
X0511919Y0211451D01*
X0512465Y0210700D01*
X0512921Y0210243D01*
X0510160Y0210243D01*
X0510142Y0210251D01*
X0509046Y0210243D01*
X0507951Y0210243D01*
X0507934Y0210236D01*
X0503011Y0210203D01*
X0477565Y0235649D01*
X0477565Y0249827D01*
X0477730Y0249991D01*
X0477862Y0250310D01*
X0478447Y0249724D01*
X0479135Y0249225D01*
X0479892Y0248839D01*
X0480701Y0248576D01*
X0481540Y0248443D01*
X0481965Y0248443D01*
X0481965Y0257043D01*
X0481965Y0257043D01*
X0481965Y0231249D01*
X0481171Y0232043D02*
X0738601Y0232043D01*
X0738601Y0227043D02*
X0486171Y0227043D01*
X0486965Y0226249D02*
X0486965Y0249227D01*
X0486200Y0249991D02*
X0488113Y0248079D01*
X0490613Y0247043D01*
X0477565Y0247043D01*
X0481965Y0248443D02*
X0482390Y0248443D01*
X0483230Y0248576D01*
X0484038Y0248839D01*
X0484795Y0249225D01*
X0485483Y0249724D01*
X0486069Y0250310D01*
X0486200Y0249991D01*
X0481965Y0248443D02*
X0481965Y0257043D01*
X0481965Y0265643D01*
X0481540Y0265643D01*
X0480701Y0265510D01*
X0479892Y0265248D01*
X0479135Y0264862D01*
X0478447Y0264362D01*
X0477862Y0263777D01*
X0477730Y0264095D01*
X0475817Y0266008D01*
X0473318Y0267043D01*
X0470613Y0267043D01*
X0470098Y0266830D01*
X0467565Y0269363D01*
X0467565Y0278097D01*
X0468715Y0279247D01*
X0468715Y0284839D01*
X0464761Y0288793D01*
X0459169Y0288793D01*
X0455215Y0284839D01*
X0455215Y0279247D01*
X0456365Y0278097D01*
X0456365Y0265929D01*
X0457218Y0263871D01*
X0458793Y0262296D01*
X0465165Y0255924D01*
X0465165Y0252491D01*
X0466200Y0249991D01*
X0466365Y0249827D01*
X0466365Y0232215D01*
X0467218Y0230157D01*
X0487232Y0210143D01*
X0449285Y0210143D01*
X0423190Y0236238D01*
X0423190Y0249982D01*
X0423447Y0249724D01*
X0424135Y0249225D01*
X0424892Y0248839D01*
X0425701Y0248576D01*
X0426540Y0248443D01*
X0426965Y0248443D01*
X0426965Y0257043D01*
X0426965Y0257043D01*
X0426965Y0232463D01*
X0427385Y0232043D02*
X0466437Y0232043D01*
X0466965Y0230767D02*
X0466965Y0210143D01*
X0461965Y0210143D02*
X0461965Y0259124D01*
X0464046Y0257043D02*
X0443765Y0257043D01*
X0443765Y0257338D02*
X0450865Y0264438D01*
X0451565Y0266128D01*
X0451565Y0277592D01*
X0453365Y0279392D01*
X0453365Y0284694D01*
X0450765Y0287294D01*
X0450765Y0293678D01*
X0451197Y0293693D01*
X0495056Y0293693D01*
X0498287Y0285293D01*
X0496536Y0287043D01*
X0494465Y0287043D01*
X0492394Y0287043D01*
X0489465Y0284114D01*
X0489465Y0282043D01*
X0489465Y0279972D01*
X0492394Y0277043D01*
X0484531Y0277043D01*
X0484181Y0276693D02*
X0487315Y0279827D01*
X0487315Y0282043D01*
X0481965Y0282043D01*
X0481965Y0282043D01*
X0481965Y0276693D01*
X0479749Y0276693D01*
X0476615Y0279827D01*
X0476615Y0282043D01*
X0481965Y0282043D01*
X0481965Y0282043D01*
X0481965Y0257043D01*
X0481965Y0257043D01*
X0481965Y0265643D01*
X0482390Y0265643D01*
X0483230Y0265510D01*
X0484038Y0265248D01*
X0484795Y0264862D01*
X0485483Y0264362D01*
X0486069Y0263777D01*
X0486200Y0264095D01*
X0488113Y0266008D01*
X0490613Y0267043D01*
X0493318Y0267043D01*
X0494832Y0266416D01*
X0499865Y0271449D01*
X0499865Y0277592D01*
X0498475Y0278982D01*
X0496536Y0277043D01*
X0499865Y0277043D01*
X0496965Y0277472D02*
X0496965Y0268549D01*
X0495460Y0267043D02*
X0469885Y0267043D01*
X0471965Y0267043D02*
X0471965Y0293693D01*
X0466965Y0293693D02*
X0466965Y0286589D01*
X0466511Y0287043D02*
X0479399Y0287043D01*
X0479749Y0287393D02*
X0476615Y0284259D01*
X0476615Y0282043D01*
X0481965Y0282043D01*
X0468715Y0282043D01*
X0467565Y0277043D02*
X0479399Y0277043D01*
X0481965Y0277043D02*
X0481965Y0277043D01*
X0481965Y0276693D02*
X0484181Y0276693D01*
X0481965Y0276693D02*
X0481965Y0282043D01*
X0481965Y0282043D01*
X0494465Y0282043D01*
X0494465Y0282043D01*
X0494465Y0277043D01*
X0494465Y0277043D01*
X0492394Y0277043D01*
X0491965Y0277472D02*
X0491965Y0267043D01*
X0486965Y0264860D02*
X0486965Y0279477D01*
X0486965Y0282043D02*
X0486965Y0282043D01*
X0487315Y0282043D02*
X0487315Y0284259D01*
X0484181Y0287393D01*
X0481965Y0287393D01*
X0479749Y0287393D01*
X0481965Y0287393D02*
X0481965Y0282043D01*
X0481965Y0282043D01*
X0481965Y0293693D01*
X0476965Y0293693D02*
X0476965Y0284609D01*
X0476965Y0282043D02*
X0476965Y0282043D01*
X0476965Y0279477D02*
X0476965Y0264860D01*
X0481965Y0262043D02*
X0481965Y0262043D01*
X0467565Y0272043D02*
X0499865Y0272043D01*
X0496536Y0277043D02*
X0494465Y0277043D01*
X0494465Y0282043D01*
X0489465Y0282043D01*
X0494465Y0282043D01*
X0494465Y0282043D01*
X0494465Y0287043D01*
X0494465Y0282043D01*
X0494465Y0282043D01*
X0491965Y0282043D02*
X0491965Y0282043D01*
X0491965Y0286614D02*
X0491965Y0293693D01*
X0495691Y0292043D02*
X0450765Y0292043D01*
X0451965Y0293693D02*
X0451965Y0286094D01*
X0451016Y0287043D02*
X0457419Y0287043D01*
X0456965Y0286589D02*
X0456965Y0293693D01*
X0461965Y0293693D02*
X0461965Y0288793D01*
X0455215Y0282043D02*
X0453365Y0282043D01*
X0451965Y0277992D02*
X0451965Y0210143D01*
X0447385Y0212043D02*
X0485332Y0212043D01*
X0486965Y0210410D02*
X0486965Y0210143D01*
X0481965Y0210143D02*
X0481965Y0215410D01*
X0480332Y0217043D02*
X0442385Y0217043D01*
X0441965Y0217463D02*
X0441965Y0249227D01*
X0442730Y0249991D02*
X0443765Y0252491D01*
X0443765Y0257338D01*
X0446965Y0260538D02*
X0446965Y0212463D01*
X0433446Y0210143D02*
X0394285Y0210143D01*
X0367565Y0236863D01*
X0367565Y0247391D01*
X0367605Y0247439D01*
X0368268Y0249566D01*
X0368234Y0249937D01*
X0368447Y0249724D01*
X0369135Y0249225D01*
X0369892Y0248839D01*
X0370701Y0248576D01*
X0371540Y0248443D01*
X0371965Y0248443D01*
X0371965Y0257043D01*
X0371965Y0257043D01*
X0371965Y0232463D01*
X0372385Y0232043D02*
X0412305Y0232043D01*
X0411990Y0232804D02*
X0412843Y0230746D01*
X0433446Y0210143D01*
X0431965Y0210143D02*
X0431965Y0211624D01*
X0431546Y0212043D02*
X0392385Y0212043D01*
X0391965Y0212463D02*
X0391965Y0260538D01*
X0393471Y0262043D02*
X0410351Y0262043D01*
X0410165Y0261596D02*
X0410165Y0252491D01*
X0411200Y0249991D01*
X0411990Y0249202D01*
X0411990Y0232804D01*
X0411990Y0237043D02*
X0367565Y0237043D01*
X0367565Y0242043D02*
X0411990Y0242043D01*
X0411990Y0247043D02*
X0383318Y0247043D01*
X0385817Y0248079D01*
X0387730Y0249991D01*
X0388765Y0252491D01*
X0388765Y0257338D01*
X0402071Y0270643D01*
X0402116Y0270643D01*
X0405865Y0274392D01*
X0405865Y0278642D01*
X0411220Y0287293D01*
X0411490Y0287563D01*
X0411698Y0288064D01*
X0411983Y0288525D01*
X0412044Y0288901D01*
X0412190Y0289253D01*
X0412190Y0289796D01*
X0412277Y0290331D01*
X0412190Y0290702D01*
X0412190Y0322813D01*
X0441565Y0293438D01*
X0441565Y0285694D01*
X0440975Y0285104D01*
X0439036Y0287043D01*
X0436965Y0287043D01*
X0434894Y0287043D01*
X0431965Y0284114D01*
X0431965Y0303038D01*
X0432960Y0302043D02*
X0424531Y0302043D01*
X0424181Y0302393D02*
X0421965Y0302393D01*
X0419749Y0302393D01*
X0416615Y0299259D01*
X0416615Y0297043D01*
X0416615Y0294827D01*
X0419749Y0291693D01*
X0421965Y0291693D01*
X0421965Y0297043D01*
X0421965Y0297043D01*
X0416615Y0297043D01*
X0421965Y0297043D01*
X0421965Y0297043D01*
X0421965Y0283793D01*
X0424761Y0283793D02*
X0419169Y0283793D01*
X0415215Y0279839D01*
X0415215Y0278213D01*
X0412218Y0275215D01*
X0411365Y0273157D01*
X0411365Y0264260D01*
X0411200Y0264095D01*
X0410165Y0261596D01*
X0410165Y0257043D02*
X0388765Y0257043D01*
X0388580Y0252043D02*
X0410351Y0252043D01*
X0411965Y0249227D02*
X0411965Y0210143D01*
X0406965Y0210143D02*
X0406965Y0280419D01*
X0407971Y0282043D02*
X0417419Y0282043D01*
X0416965Y0281589D02*
X0416965Y0294477D01*
X0416965Y0297043D02*
X0416965Y0297043D01*
X0416965Y0299609D02*
X0416965Y0318038D01*
X0417960Y0317043D02*
X0412190Y0317043D01*
X0412190Y0312043D02*
X0422960Y0312043D01*
X0421965Y0313038D02*
X0421965Y0297043D01*
X0412190Y0297043D01*
X0412190Y0292043D02*
X0419399Y0292043D01*
X0421965Y0292043D02*
X0421965Y0292043D01*
X0421965Y0291693D02*
X0424181Y0291693D01*
X0427315Y0294827D01*
X0427315Y0297043D01*
X0421965Y0297043D01*
X0421965Y0291693D01*
X0424531Y0292043D02*
X0441565Y0292043D01*
X0441565Y0287043D02*
X0411066Y0287043D01*
X0411965Y0288496D02*
X0411965Y0274606D01*
X0411365Y0272043D02*
X0403516Y0272043D01*
X0401965Y0270538D02*
X0401965Y0210143D01*
X0396965Y0210143D02*
X0396965Y0265538D01*
X0398471Y0267043D02*
X0411365Y0267043D01*
X0414046Y0277043D02*
X0405865Y0277043D01*
X0398017Y0283443D02*
X0396814Y0283443D01*
X0393475Y0280104D01*
X0391536Y0282043D01*
X0389465Y0282043D01*
X0387394Y0282043D01*
X0384465Y0279114D01*
X0384465Y0277043D01*
X0384465Y0274972D01*
X0387394Y0272043D01*
X0379531Y0272043D01*
X0379181Y0271693D02*
X0382315Y0274827D01*
X0382315Y0277043D01*
X0376965Y0277043D01*
X0376965Y0277043D01*
X0376965Y0271693D01*
X0374749Y0271693D01*
X0371615Y0274827D01*
X0371615Y0277043D01*
X0376965Y0277043D01*
X0376965Y0277043D01*
X0376965Y0264860D01*
X0376200Y0264095D02*
X0376069Y0263777D01*
X0375483Y0264362D01*
X0374795Y0264862D01*
X0374038Y0265248D01*
X0373230Y0265510D01*
X0372390Y0265643D01*
X0371965Y0265643D01*
X0371540Y0265643D01*
X0370701Y0265510D01*
X0369892Y0265248D01*
X0369135Y0264862D01*
X0368447Y0264362D01*
X0367862Y0263777D01*
X0367730Y0264095D01*
X0365817Y0266008D01*
X0363318Y0267043D01*
X0362565Y0267043D01*
X0362565Y0273097D01*
X0363715Y0274247D01*
X0363715Y0279839D01*
X0359761Y0283793D01*
X0354169Y0283793D01*
X0350215Y0279839D01*
X0350215Y0274247D01*
X0351365Y0273097D01*
X0351365Y0260929D01*
X0352218Y0258871D01*
X0353793Y0257296D01*
X0355165Y0255924D01*
X0355165Y0252491D01*
X0356200Y0249991D01*
X0356365Y0249827D01*
X0356365Y0233429D01*
X0357218Y0231371D01*
X0378446Y0210143D01*
X0331785Y0210143D01*
X0312565Y0229363D01*
X0312565Y0249827D01*
X0312730Y0249991D01*
X0312862Y0250310D01*
X0313447Y0249724D01*
X0314135Y0249225D01*
X0314892Y0248839D01*
X0315701Y0248576D01*
X0316540Y0248443D01*
X0316965Y0248443D01*
X0316965Y0257043D01*
X0316965Y0257043D01*
X0316965Y0224963D01*
X0314885Y0227043D02*
X0361546Y0227043D01*
X0361965Y0226624D02*
X0361965Y0210143D01*
X0356965Y0210143D02*
X0356965Y0231981D01*
X0356939Y0232043D02*
X0312565Y0232043D01*
X0312565Y0237043D02*
X0356365Y0237043D01*
X0356365Y0242043D02*
X0312565Y0242043D01*
X0312565Y0247043D02*
X0325613Y0247043D01*
X0328318Y0247043D01*
X0356365Y0247043D01*
X0355351Y0252043D02*
X0333580Y0252043D01*
X0333765Y0252491D02*
X0333765Y0257338D01*
X0342071Y0265644D01*
X0343365Y0266938D01*
X0344065Y0268628D01*
X0344065Y0272592D01*
X0345865Y0274392D01*
X0345865Y0279694D01*
X0342116Y0283443D01*
X0336814Y0283443D01*
X0333475Y0280104D01*
X0331536Y0282043D01*
X0329465Y0282043D01*
X0327394Y0282043D01*
X0324465Y0279114D01*
X0324465Y0277043D01*
X0324465Y0274972D01*
X0327394Y0272043D01*
X0302565Y0272043D01*
X0302565Y0269363D02*
X0302565Y0278097D01*
X0303715Y0279247D01*
X0303715Y0284839D01*
X0299761Y0288793D01*
X0298635Y0288793D01*
X0237565Y0349863D01*
X0237565Y0378050D01*
X0239513Y0377243D01*
X0242417Y0377243D01*
X0245100Y0378355D01*
X0245965Y0379220D01*
X0246830Y0378355D01*
X0249513Y0377243D01*
X0252417Y0377243D01*
X0255100Y0378355D01*
X0255965Y0379220D01*
X0256830Y0378355D01*
X0259513Y0377243D01*
X0262417Y0377243D01*
X0265100Y0378355D01*
X0265965Y0379220D01*
X0266830Y0378355D01*
X0269513Y0377243D01*
X0272417Y0377243D01*
X0275100Y0378355D01*
X0275965Y0379220D01*
X0276830Y0378355D01*
X0279513Y0377243D01*
X0282417Y0377243D01*
X0285100Y0378355D01*
X0285965Y0379220D01*
X0286830Y0378355D01*
X0289513Y0377243D01*
X0292417Y0377243D01*
X0295100Y0378355D01*
X0295965Y0379220D01*
X0296830Y0378355D01*
X0299513Y0377243D01*
X0302417Y0377243D01*
X0305100Y0378355D01*
X0305965Y0379220D01*
X0306830Y0378355D01*
X0309513Y0377243D01*
X0310289Y0377243D01*
X0296087Y0366779D01*
X0295760Y0366643D01*
X0295358Y0366241D01*
X0294900Y0365904D01*
X0294716Y0365600D01*
X0294466Y0365349D01*
X0294248Y0364824D01*
X0293954Y0364337D01*
X0293901Y0363986D01*
X0293765Y0363658D01*
X0293765Y0363090D01*
X0293680Y0362528D01*
X0293765Y0362183D01*
X0293765Y0334028D01*
X0294466Y0332338D01*
X0302070Y0324733D01*
X0303364Y0323439D01*
X0304959Y0322778D01*
X0306163Y0321574D01*
X0306482Y0321442D01*
X0305896Y0320856D01*
X0305397Y0320169D01*
X0305011Y0319411D01*
X0304748Y0318603D01*
X0304615Y0317764D01*
X0304615Y0317339D01*
X0313215Y0317339D01*
X0313215Y0317339D01*
X0304615Y0317339D01*
X0304615Y0316914D01*
X0304748Y0316074D01*
X0305011Y0315266D01*
X0305397Y0314508D01*
X0305896Y0313821D01*
X0306497Y0313220D01*
X0307185Y0312720D01*
X0307942Y0312334D01*
X0308751Y0312072D01*
X0309590Y0311939D01*
X0313215Y0311939D01*
X0313215Y0317338D01*
X0313215Y0317338D01*
X0313215Y0311939D01*
X0316840Y0311939D01*
X0317680Y0312072D01*
X0318488Y0312334D01*
X0319245Y0312720D01*
X0319933Y0313220D01*
X0320534Y0313821D01*
X0321034Y0314508D01*
X0321420Y0315266D01*
X0321682Y0316074D01*
X0321815Y0316914D01*
X0321815Y0317339D01*
X0321815Y0317764D01*
X0321682Y0318603D01*
X0321420Y0319411D01*
X0321034Y0320169D01*
X0320534Y0320856D01*
X0319949Y0321442D01*
X0320267Y0321574D01*
X0322180Y0323487D01*
X0323215Y0325986D01*
X0323215Y0328691D01*
X0322180Y0331190D01*
X0321032Y0332339D01*
X0322180Y0333487D01*
X0323215Y0335986D01*
X0323215Y0338691D01*
X0322923Y0339397D01*
X0339213Y0352257D01*
X0339458Y0352358D01*
X0339894Y0352795D01*
X0340379Y0353177D01*
X0340508Y0353409D01*
X0340695Y0353596D01*
X0340932Y0354166D01*
X0341233Y0354705D01*
X0341264Y0354969D01*
X0341365Y0355213D01*
X0341365Y0355831D01*
X0341437Y0356444D01*
X0341365Y0356699D01*
X0341365Y0358620D01*
X0341965Y0359220D01*
X0341965Y0343658D01*
X0342413Y0343843D02*
X0339913Y0342808D01*
X0338000Y0340895D01*
X0336965Y0338396D01*
X0336965Y0350483D01*
X0338942Y0352043D02*
X0342565Y0352043D01*
X0342565Y0347043D02*
X0332609Y0347043D01*
X0331965Y0346535D02*
X0331965Y0281614D01*
X0329465Y0282043D02*
X0329465Y0277043D01*
X0329465Y0277043D01*
X0329465Y0272043D01*
X0329465Y0272043D01*
X0327394Y0272043D01*
X0326965Y0272472D02*
X0326965Y0267043D01*
X0325613Y0267043D02*
X0328318Y0267043D01*
X0329832Y0266416D01*
X0334865Y0271449D01*
X0334865Y0272592D01*
X0333475Y0273982D01*
X0331536Y0272043D01*
X0334865Y0272043D01*
X0331965Y0272472D02*
X0331965Y0268549D01*
X0330460Y0267043D02*
X0304885Y0267043D01*
X0305098Y0266830D02*
X0302565Y0269363D01*
X0305098Y0266830D02*
X0305613Y0267043D01*
X0308318Y0267043D01*
X0310817Y0266008D01*
X0312730Y0264095D01*
X0312862Y0263777D01*
X0313447Y0264362D01*
X0314135Y0264862D01*
X0314892Y0265248D01*
X0315701Y0265510D01*
X0316540Y0265643D01*
X0316965Y0265643D01*
X0316965Y0257043D01*
X0316965Y0248443D01*
X0317390Y0248443D01*
X0318230Y0248576D01*
X0319038Y0248839D01*
X0319795Y0249225D01*
X0320483Y0249724D01*
X0321069Y0250310D01*
X0321200Y0249991D01*
X0323113Y0248079D01*
X0325613Y0247043D01*
X0326965Y0247043D02*
X0326965Y0214963D01*
X0324885Y0217043D02*
X0371546Y0217043D01*
X0371965Y0216624D02*
X0371965Y0210143D01*
X0376546Y0212043D02*
X0329885Y0212043D01*
X0331965Y0210143D02*
X0331965Y0249227D01*
X0332730Y0249991D02*
X0333765Y0252491D01*
X0332730Y0249991D02*
X0330817Y0248079D01*
X0328318Y0247043D01*
X0321965Y0249227D02*
X0321965Y0219963D01*
X0319885Y0222043D02*
X0366546Y0222043D01*
X0366965Y0221624D02*
X0366965Y0210143D01*
X0376965Y0210143D02*
X0376965Y0211624D01*
X0386965Y0217463D02*
X0386965Y0249227D01*
X0383318Y0247043D02*
X0380613Y0247043D01*
X0367565Y0247043D01*
X0371965Y0248443D02*
X0372390Y0248443D01*
X0373230Y0248576D01*
X0374038Y0248839D01*
X0374795Y0249225D01*
X0375483Y0249724D01*
X0376069Y0250310D01*
X0376200Y0249991D01*
X0378113Y0248079D01*
X0380613Y0247043D01*
X0381965Y0247043D02*
X0381965Y0222463D01*
X0382385Y0222043D02*
X0421546Y0222043D01*
X0421965Y0221624D02*
X0421965Y0210143D01*
X0416965Y0210143D02*
X0416965Y0226624D01*
X0416546Y0227043D02*
X0377385Y0227043D01*
X0376965Y0227463D02*
X0376965Y0249227D01*
X0371965Y0248443D02*
X0371965Y0257043D01*
X0371965Y0265643D01*
X0371965Y0257043D01*
X0371965Y0257043D01*
X0371965Y0274477D01*
X0371965Y0277043D02*
X0371965Y0277043D01*
X0371615Y0277043D02*
X0376965Y0277043D01*
X0363715Y0277043D01*
X0361965Y0281589D02*
X0361965Y0331538D01*
X0362471Y0332043D02*
X0374149Y0332043D01*
X0373000Y0330895D01*
X0371965Y0328396D01*
X0371965Y0335691D01*
X0373000Y0333191D01*
X0374149Y0332043D01*
X0371965Y0328396D02*
X0371965Y0325691D01*
X0371965Y0279609D01*
X0371615Y0279259D02*
X0371615Y0277043D01*
X0371615Y0279259D02*
X0374749Y0282393D01*
X0376965Y0282393D01*
X0376965Y0277043D01*
X0376965Y0271693D01*
X0379181Y0271693D01*
X0376965Y0272043D02*
X0376965Y0272043D01*
X0374399Y0272043D02*
X0362565Y0272043D01*
X0362565Y0267043D02*
X0385460Y0267043D01*
X0384832Y0266416D02*
X0383318Y0267043D01*
X0380613Y0267043D01*
X0378113Y0266008D01*
X0376200Y0264095D01*
X0371965Y0262043D02*
X0371965Y0262043D01*
X0366965Y0264860D02*
X0366965Y0333843D01*
X0368230Y0333843D02*
X0371965Y0337578D01*
X0371965Y0335691D01*
X0371965Y0337043D02*
X0371430Y0337043D01*
X0368230Y0333843D02*
X0364271Y0333843D01*
X0356965Y0326538D01*
X0356965Y0283793D01*
X0352419Y0282043D02*
X0343516Y0282043D01*
X0341965Y0283443D02*
X0341965Y0311950D01*
X0341692Y0312039D02*
X0342501Y0311776D01*
X0343340Y0311643D01*
X0346965Y0311643D01*
X0346965Y0317043D01*
X0346965Y0317043D01*
X0338365Y0317043D01*
X0338365Y0316618D01*
X0338498Y0315779D01*
X0338761Y0314970D01*
X0339147Y0314213D01*
X0339646Y0313525D01*
X0340247Y0312924D01*
X0340935Y0312425D01*
X0341692Y0312039D01*
X0341684Y0312043D02*
X0317501Y0312043D01*
X0316965Y0311958D02*
X0316965Y0282043D01*
X0316965Y0282043D01*
X0316965Y0276693D01*
X0314749Y0276693D01*
X0311615Y0279827D01*
X0311615Y0282043D01*
X0316965Y0282043D01*
X0316965Y0282043D01*
X0316965Y0257043D01*
X0316965Y0257043D01*
X0316965Y0265643D01*
X0317390Y0265643D01*
X0318230Y0265510D01*
X0319038Y0265248D01*
X0319795Y0264862D01*
X0320483Y0264362D01*
X0321069Y0263777D01*
X0321200Y0264095D01*
X0323113Y0266008D01*
X0325613Y0267043D01*
X0321965Y0264860D02*
X0321965Y0279477D01*
X0322315Y0279827D02*
X0322315Y0282043D01*
X0316965Y0282043D01*
X0303715Y0282043D01*
X0301965Y0286589D02*
X0301965Y0324838D01*
X0299760Y0327043D02*
X0260385Y0327043D01*
X0261965Y0325463D02*
X0261965Y0377243D01*
X0256965Y0378299D02*
X0256965Y0330463D01*
X0255385Y0332043D02*
X0294760Y0332043D01*
X0296965Y0329838D02*
X0296965Y0290463D01*
X0295385Y0292043D02*
X0402990Y0292043D01*
X0402990Y0291477D02*
X0398017Y0283443D01*
X0396965Y0283443D02*
X0396965Y0323738D01*
X0397117Y0323889D02*
X0397176Y0323916D01*
X0397762Y0324535D01*
X0398365Y0325138D01*
X0398390Y0325198D01*
X0398434Y0325245D01*
X0398739Y0326041D01*
X0399065Y0326828D01*
X0399065Y0326893D01*
X0402990Y0337149D01*
X0402990Y0291477D01*
X0401965Y0289821D02*
X0401965Y0334471D01*
X0401036Y0332043D02*
X0402990Y0332043D01*
X0402990Y0327043D02*
X0399123Y0327043D01*
X0397117Y0323889D02*
X0396371Y0323144D01*
X0394680Y0322443D01*
X0390182Y0322443D01*
X0389017Y0321279D01*
X0388699Y0321147D01*
X0389284Y0320561D01*
X0389784Y0319874D01*
X0390170Y0319116D01*
X0390432Y0318308D01*
X0390565Y0317468D01*
X0390565Y0317043D01*
X0381965Y0317043D01*
X0381965Y0317043D01*
X0381965Y0311643D01*
X0378340Y0311643D01*
X0377501Y0311776D01*
X0376692Y0312039D01*
X0375935Y0312425D01*
X0375247Y0312924D01*
X0374646Y0313525D01*
X0374147Y0314213D01*
X0373761Y0314970D01*
X0373498Y0315779D01*
X0373365Y0316618D01*
X0373365Y0317043D01*
X0381965Y0317043D01*
X0381965Y0317043D01*
X0381965Y0279609D01*
X0382315Y0279259D02*
X0379181Y0282393D01*
X0376965Y0282393D01*
X0376965Y0277043D01*
X0376965Y0277043D01*
X0389465Y0277043D01*
X0389465Y0277043D01*
X0389465Y0272043D01*
X0389465Y0272043D01*
X0387394Y0272043D01*
X0386965Y0272472D02*
X0386965Y0268549D01*
X0384832Y0266416D02*
X0390460Y0272043D01*
X0389465Y0272043D01*
X0389465Y0277043D01*
X0384465Y0277043D01*
X0389465Y0277043D01*
X0389465Y0277043D01*
X0389465Y0282043D01*
X0389465Y0277043D01*
X0389465Y0277043D01*
X0386965Y0277043D02*
X0386965Y0277043D01*
X0386965Y0281614D02*
X0386965Y0311950D01*
X0387238Y0312039D02*
X0387995Y0312425D01*
X0388683Y0312924D01*
X0389284Y0313525D01*
X0389784Y0314213D01*
X0390170Y0314970D01*
X0390432Y0315779D01*
X0390565Y0316618D01*
X0390565Y0317043D01*
X0381965Y0317043D01*
X0346965Y0317043D01*
X0346965Y0317043D01*
X0346965Y0210143D01*
X0341965Y0210143D02*
X0341965Y0265538D01*
X0343409Y0267043D02*
X0351365Y0267043D01*
X0351365Y0262043D02*
X0338471Y0262043D01*
X0336965Y0260538D02*
X0336965Y0210143D01*
X0351965Y0210143D02*
X0351965Y0259481D01*
X0354046Y0257043D02*
X0333765Y0257043D01*
X0316965Y0252043D02*
X0316965Y0252043D01*
X0316965Y0262043D02*
X0316965Y0262043D01*
X0311965Y0264860D02*
X0311965Y0279477D01*
X0311965Y0282043D02*
X0311965Y0282043D01*
X0311615Y0282043D02*
X0316965Y0282043D01*
X0316965Y0276693D01*
X0319181Y0276693D01*
X0322315Y0279827D01*
X0322315Y0282043D02*
X0322315Y0284259D01*
X0319181Y0287393D01*
X0316965Y0287393D01*
X0314749Y0287393D01*
X0311615Y0284259D01*
X0311615Y0282043D01*
X0311965Y0284609D02*
X0311965Y0311939D01*
X0313215Y0312043D02*
X0313215Y0312043D01*
X0308929Y0312043D02*
X0275385Y0312043D01*
X0276965Y0310463D02*
X0276965Y0378299D01*
X0271965Y0377243D02*
X0271965Y0315463D01*
X0270385Y0317043D02*
X0304615Y0317043D01*
X0306965Y0317339D02*
X0306965Y0317339D01*
X0306965Y0312880D02*
X0306965Y0267043D01*
X0302565Y0277043D02*
X0314399Y0277043D01*
X0316965Y0277043D02*
X0316965Y0277043D01*
X0319531Y0277043D02*
X0329465Y0277043D01*
X0324465Y0277043D01*
X0329465Y0277043D01*
X0329465Y0277043D01*
X0329465Y0272043D01*
X0331536Y0272043D01*
X0329465Y0277043D02*
X0329465Y0277043D01*
X0329465Y0282043D01*
X0326965Y0281614D02*
X0326965Y0342588D01*
X0326275Y0342043D02*
X0339149Y0342043D01*
X0342413Y0343843D02*
X0342565Y0343843D01*
X0342565Y0358620D01*
X0341965Y0359220D01*
X0341365Y0357043D02*
X0342565Y0357043D01*
X0336965Y0338396D02*
X0336965Y0335691D01*
X0336965Y0328396D01*
X0336965Y0325691D01*
X0336965Y0283443D01*
X0335414Y0282043D02*
X0316965Y0282043D01*
X0316965Y0282043D01*
X0316965Y0287393D01*
X0316965Y0282043D01*
X0316965Y0282043D01*
X0322315Y0282043D01*
X0321965Y0282043D02*
X0321965Y0282043D01*
X0321965Y0284609D02*
X0321965Y0323272D01*
X0320737Y0322043D02*
X0339149Y0322043D01*
X0339913Y0321279D02*
X0340232Y0321147D01*
X0339646Y0320561D01*
X0339147Y0319874D01*
X0338761Y0319116D01*
X0338498Y0318308D01*
X0338365Y0317468D01*
X0338365Y0317043D01*
X0346965Y0317043D01*
X0321815Y0317043D01*
X0321815Y0317339D02*
X0313215Y0317339D01*
X0321815Y0317339D01*
X0316965Y0317339D02*
X0316965Y0317339D01*
X0313215Y0317339D02*
X0313215Y0317339D01*
X0313215Y0317043D02*
X0313215Y0317043D01*
X0311965Y0317339D02*
X0311965Y0317339D01*
X0305694Y0322043D02*
X0265385Y0322043D01*
X0266965Y0320463D02*
X0266965Y0378299D01*
X0251965Y0377243D02*
X0251965Y0335463D01*
X0250385Y0337043D02*
X0293765Y0337043D01*
X0293765Y0342043D02*
X0245385Y0342043D01*
X0246965Y0340463D02*
X0246965Y0378299D01*
X0241965Y0377243D02*
X0241965Y0345463D01*
X0240385Y0347043D02*
X0293765Y0347043D01*
X0293765Y0352043D02*
X0237565Y0352043D01*
X0237565Y0357043D02*
X0293765Y0357043D01*
X0293765Y0362043D02*
X0237565Y0362043D01*
X0237565Y0367043D02*
X0296446Y0367043D01*
X0296965Y0367426D02*
X0296965Y0378299D01*
X0291965Y0377243D02*
X0291965Y0295463D01*
X0290385Y0297043D02*
X0402990Y0297043D01*
X0402990Y0302043D02*
X0285385Y0302043D01*
X0286965Y0300463D02*
X0286965Y0378299D01*
X0281965Y0377243D02*
X0281965Y0305463D01*
X0280385Y0307043D02*
X0402990Y0307043D01*
X0402990Y0312043D02*
X0387247Y0312043D01*
X0387238Y0312039D02*
X0386430Y0311776D01*
X0385590Y0311643D01*
X0381965Y0311643D01*
X0381965Y0317043D01*
X0373365Y0317043D01*
X0373365Y0317468D01*
X0373498Y0318308D01*
X0373761Y0319116D01*
X0374147Y0319874D01*
X0374646Y0320561D01*
X0375232Y0321147D01*
X0374913Y0321279D01*
X0373000Y0323191D01*
X0371965Y0325691D01*
X0371965Y0327043D02*
X0357471Y0327043D01*
X0356965Y0326538D02*
X0356965Y0325691D01*
X0355930Y0323191D01*
X0354017Y0321279D01*
X0353699Y0321147D01*
X0354284Y0320561D01*
X0354784Y0319874D01*
X0355170Y0319116D01*
X0355432Y0318308D01*
X0355565Y0317468D01*
X0355565Y0317043D01*
X0346965Y0317043D01*
X0346965Y0311643D01*
X0350590Y0311643D01*
X0351430Y0311776D01*
X0352238Y0312039D01*
X0352995Y0312425D01*
X0353683Y0312924D01*
X0354284Y0313525D01*
X0354784Y0314213D01*
X0355170Y0314970D01*
X0355432Y0315779D01*
X0355565Y0316618D01*
X0355565Y0317043D01*
X0346965Y0317043D01*
X0346965Y0317043D01*
X0346965Y0312043D02*
X0346965Y0312043D01*
X0351965Y0311950D02*
X0351965Y0281589D01*
X0350215Y0277043D02*
X0345865Y0277043D01*
X0344065Y0272043D02*
X0351365Y0272043D01*
X0361511Y0282043D02*
X0374399Y0282043D01*
X0376965Y0282043D02*
X0376965Y0282043D01*
X0379531Y0282043D02*
X0395414Y0282043D01*
X0391965Y0281614D02*
X0391965Y0322443D01*
X0389782Y0322043D02*
X0402990Y0322043D01*
X0402990Y0317043D02*
X0381965Y0317043D01*
X0381965Y0317043D01*
X0381965Y0312043D02*
X0381965Y0312043D01*
X0376965Y0311950D02*
X0376965Y0277043D01*
X0376965Y0277043D01*
X0382315Y0277043D01*
X0382315Y0279259D01*
X0381965Y0277043D02*
X0381965Y0277043D01*
X0381965Y0274477D02*
X0381965Y0267043D01*
X0371965Y0252043D02*
X0371965Y0252043D01*
X0326965Y0277043D02*
X0326965Y0277043D01*
X0319531Y0287043D02*
X0400246Y0287043D01*
X0412190Y0302043D02*
X0419399Y0302043D01*
X0421965Y0302043D02*
X0421965Y0302043D01*
X0421965Y0302393D02*
X0421965Y0297043D01*
X0421965Y0297043D01*
X0437960Y0297043D01*
X0436965Y0298038D02*
X0436965Y0282043D01*
X0436965Y0282043D01*
X0436965Y0277043D01*
X0436965Y0277043D01*
X0434894Y0277043D01*
X0428715Y0277043D01*
X0428715Y0274247D02*
X0428715Y0279839D01*
X0424761Y0283793D01*
X0426511Y0282043D02*
X0436965Y0282043D01*
X0431965Y0282043D01*
X0431965Y0282043D01*
X0431965Y0279972D01*
X0431965Y0264860D01*
X0431200Y0264095D02*
X0431069Y0263777D01*
X0430483Y0264362D01*
X0429795Y0264862D01*
X0429038Y0265248D01*
X0428230Y0265510D01*
X0427390Y0265643D01*
X0426965Y0265643D01*
X0426540Y0265643D01*
X0425701Y0265510D01*
X0424892Y0265248D01*
X0424135Y0264862D01*
X0423447Y0264362D01*
X0422862Y0263777D01*
X0422730Y0264095D01*
X0422565Y0264260D01*
X0422565Y0269724D01*
X0423135Y0270293D01*
X0424761Y0270293D01*
X0428715Y0274247D01*
X0426965Y0272497D02*
X0426965Y0257043D01*
X0426965Y0248443D01*
X0427390Y0248443D01*
X0428230Y0248576D01*
X0429038Y0248839D01*
X0429795Y0249225D01*
X0430483Y0249724D01*
X0431069Y0250310D01*
X0431200Y0249991D01*
X0433113Y0248079D01*
X0435613Y0247043D01*
X0423190Y0247043D01*
X0423190Y0242043D02*
X0466365Y0242043D01*
X0466365Y0237043D02*
X0423190Y0237043D01*
X0435613Y0247043D02*
X0438318Y0247043D01*
X0466365Y0247043D01*
X0465351Y0252043D02*
X0443580Y0252043D01*
X0442730Y0249991D02*
X0440817Y0248079D01*
X0438318Y0247043D01*
X0436965Y0247043D02*
X0436965Y0222463D01*
X0437385Y0222043D02*
X0475332Y0222043D01*
X0476965Y0220410D02*
X0476965Y0210143D01*
X0471965Y0210143D02*
X0471965Y0225410D01*
X0470332Y0227043D02*
X0432385Y0227043D01*
X0431965Y0227463D02*
X0431965Y0249227D01*
X0426965Y0252043D02*
X0426965Y0252043D01*
X0426965Y0257043D02*
X0426965Y0265643D01*
X0426965Y0257043D01*
X0426965Y0257043D01*
X0426965Y0262043D02*
X0426965Y0262043D01*
X0431200Y0264095D02*
X0433113Y0266008D01*
X0435613Y0267043D01*
X0438318Y0267043D01*
X0439832Y0266416D01*
X0442365Y0268949D01*
X0442365Y0277592D01*
X0440975Y0278982D01*
X0439036Y0277043D01*
X0442365Y0277043D01*
X0441965Y0277992D02*
X0441965Y0268549D01*
X0440460Y0267043D02*
X0422565Y0267043D01*
X0426511Y0272043D02*
X0442365Y0272043D01*
X0439036Y0277043D02*
X0436965Y0277043D01*
X0436965Y0282043D01*
X0436965Y0282043D01*
X0436965Y0267043D01*
X0434894Y0277043D02*
X0431965Y0279972D01*
X0431965Y0282043D02*
X0436965Y0282043D01*
X0436965Y0287043D01*
X0436965Y0282043D01*
X0436965Y0282043D01*
X0431965Y0282043D02*
X0431965Y0284114D01*
X0426965Y0281589D02*
X0426965Y0294477D01*
X0426965Y0297043D02*
X0426965Y0297043D01*
X0427315Y0297043D02*
X0427315Y0299259D01*
X0424181Y0302393D01*
X0421965Y0302393D02*
X0421965Y0297043D01*
X0421965Y0297043D01*
X0427315Y0297043D01*
X0426965Y0299609D02*
X0426965Y0308038D01*
X0427960Y0307043D02*
X0412190Y0307043D01*
X0412190Y0322043D02*
X0412960Y0322043D01*
X0426965Y0327060D02*
X0426965Y0336778D01*
X0427230Y0337043D02*
X0568243Y0337043D01*
X0566965Y0338321D02*
X0566965Y0223268D01*
X0561965Y0223268D02*
X0561965Y0343321D01*
X0563243Y0342043D02*
X0430165Y0342043D01*
X0430165Y0339978D02*
X0430165Y0346108D01*
X0427365Y0348908D01*
X0427365Y0352878D01*
X0430165Y0355678D01*
X0430165Y0361808D01*
X0426935Y0365039D01*
X0428417Y0365039D01*
X0431100Y0366150D01*
X0433154Y0368203D01*
X0434265Y0370887D01*
X0431994Y0367043D02*
X0538243Y0367043D01*
X0536965Y0368321D02*
X0536965Y0213217D01*
X0535435Y0212043D02*
X0532313Y0212043D01*
X0532433Y0212278D02*
X0532720Y0213162D01*
X0532865Y0214079D01*
X0532865Y0214543D01*
X0526965Y0214543D01*
X0521065Y0214543D01*
X0516965Y0214543D01*
X0511065Y0214543D01*
X0516965Y0214543D01*
X0516965Y0214543D01*
X0516965Y0214543D01*
X0516965Y0220443D01*
X0516965Y0214543D01*
X0516965Y0214543D01*
X0516965Y0247243D01*
X0511965Y0249220D02*
X0511965Y0217699D01*
X0511617Y0217043D02*
X0496171Y0217043D01*
X0496965Y0216249D02*
X0496965Y0249227D01*
X0497730Y0249991D02*
X0498765Y0252491D01*
X0498765Y0257338D01*
X0507071Y0265644D01*
X0508365Y0266938D01*
X0509065Y0268628D01*
X0509065Y0277592D01*
X0510865Y0279392D01*
X0510865Y0284694D01*
X0507116Y0288443D01*
X0506932Y0288443D01*
X0502815Y0299147D01*
X0502815Y0299208D01*
X0502487Y0300000D01*
X0502180Y0300799D01*
X0502138Y0300843D01*
X0502115Y0300899D01*
X0501509Y0301505D01*
X0500920Y0302125D01*
X0500864Y0302150D01*
X0500821Y0302193D01*
X0500030Y0302521D01*
X0499247Y0302868D01*
X0499186Y0302870D01*
X0499130Y0302893D01*
X0498274Y0302893D01*
X0497418Y0302915D01*
X0497361Y0302893D01*
X0452925Y0302893D01*
X0420965Y0332646D01*
X0420965Y0335643D01*
X0425830Y0335643D01*
X0430165Y0339978D01*
X0429230Y0347043D02*
X0558243Y0347043D01*
X0556965Y0348321D02*
X0556965Y0223268D01*
X0552332Y0223268D02*
X0551592Y0223366D01*
X0551228Y0223268D01*
X0550851Y0223268D01*
X0550161Y0222982D01*
X0549440Y0222789D01*
X0549141Y0222560D01*
X0548793Y0222416D01*
X0548265Y0221888D01*
X0533089Y0210243D01*
X0531009Y0210243D01*
X0531465Y0210700D01*
X0532011Y0211451D01*
X0532433Y0212278D01*
X0531965Y0211388D02*
X0531965Y0210243D01*
X0531965Y0214543D02*
X0531965Y0214543D01*
X0532865Y0214543D02*
X0532865Y0215008D01*
X0532720Y0215925D01*
X0532433Y0216808D01*
X0532011Y0217636D01*
X0531465Y0218387D01*
X0530809Y0219044D01*
X0530057Y0219589D01*
X0529230Y0220011D01*
X0528347Y0220298D01*
X0527430Y0220443D01*
X0526965Y0220443D01*
X0526501Y0220443D01*
X0525584Y0220298D01*
X0524700Y0220011D01*
X0523873Y0219589D01*
X0523122Y0219044D01*
X0522465Y0218387D01*
X0521965Y0217699D01*
X0521965Y0214543D02*
X0521965Y0214543D01*
X0516965Y0214543D02*
X0526965Y0214543D01*
X0526965Y0214543D01*
X0526965Y0214543D01*
X0526965Y0220443D01*
X0526965Y0214543D01*
X0526965Y0214543D01*
X0526965Y0247243D01*
X0523941Y0247243D02*
X0529989Y0247243D01*
X0534265Y0251520D01*
X0534265Y0257567D01*
X0532289Y0259543D01*
X0534265Y0261520D01*
X0534265Y0257043D02*
X0619665Y0257043D01*
X0621641Y0252043D02*
X0534265Y0252043D01*
X0531965Y0249220D02*
X0531965Y0217699D01*
X0532313Y0217043D02*
X0541952Y0217043D01*
X0541965Y0217054D02*
X0541965Y0363321D01*
X0543243Y0362043D02*
X0429930Y0362043D01*
X0426965Y0365008D02*
X0426965Y0365039D01*
X0431965Y0367015D02*
X0431965Y0322405D01*
X0432354Y0322043D02*
X0583243Y0322043D01*
X0581965Y0323321D02*
X0581965Y0223268D01*
X0576965Y0223268D02*
X0576965Y0328321D01*
X0578243Y0327043D02*
X0426983Y0327043D01*
X0421965Y0331715D02*
X0421965Y0335643D01*
X0421612Y0332043D02*
X0573243Y0332043D01*
X0571965Y0333321D02*
X0571965Y0223268D01*
X0586965Y0223268D02*
X0586965Y0318321D01*
X0588243Y0317043D02*
X0437725Y0317043D01*
X0436965Y0317751D02*
X0436965Y0391163D01*
X0437846Y0392043D02*
X0511765Y0392043D01*
X0511765Y0397043D02*
X0442846Y0397043D01*
X0441965Y0396163D02*
X0441965Y0313096D01*
X0443096Y0312043D02*
X0593243Y0312043D01*
X0591965Y0313321D02*
X0591965Y0223268D01*
X0596965Y0223268D02*
X0596965Y0308321D01*
X0598271Y0307043D02*
X0448467Y0307043D01*
X0446965Y0308441D02*
X0446965Y0401163D01*
X0447846Y0402043D02*
X0511765Y0402043D01*
X0511765Y0407043D02*
X0452846Y0407043D01*
X0451965Y0406163D02*
X0451965Y0303787D01*
X0456965Y0302893D02*
X0456965Y0409318D01*
X0461965Y0409318D02*
X0461965Y0302893D01*
X0466965Y0302893D02*
X0466965Y0409318D01*
X0471965Y0411163D02*
X0471965Y0302893D01*
X0476965Y0302893D02*
X0476965Y0416163D01*
X0477846Y0417043D02*
X0511765Y0417043D01*
X0511765Y0412043D02*
X0472846Y0412043D01*
X0472115Y0411313D02*
X0472115Y0411313D01*
X0481965Y0421163D02*
X0481965Y0302893D01*
X0486965Y0302893D02*
X0486965Y0426163D01*
X0487846Y0427043D02*
X0511765Y0427043D01*
X0511765Y0422043D02*
X0482846Y0422043D01*
X0476965Y0429174D02*
X0476965Y0447175D01*
X0476834Y0447043D02*
X0494835Y0447043D01*
X0496965Y0449174D02*
X0496965Y0462938D01*
X0496765Y0462738D02*
X0497371Y0463344D01*
X0498665Y0464638D01*
X0499240Y0466027D01*
X0499240Y0451449D01*
X0473393Y0425601D01*
X0473154Y0426178D01*
X0471100Y0428232D01*
X0468417Y0429343D01*
X0466171Y0429343D01*
X0463571Y0431943D01*
X0454065Y0441449D01*
X0454065Y0443383D01*
X0455739Y0445056D01*
X0456865Y0447776D01*
X0456865Y0450720D01*
X0455739Y0453440D01*
X0454065Y0455113D01*
X0454065Y0458721D01*
X0463235Y0449551D01*
X0464473Y0448313D01*
X0466090Y0447643D01*
X0466497Y0447643D01*
X0469075Y0445065D01*
X0474856Y0445065D01*
X0478943Y0449153D01*
X0478943Y0454934D01*
X0474856Y0459021D01*
X0469075Y0459021D01*
X0467642Y0457589D01*
X0460115Y0465116D01*
X0460115Y0483971D01*
X0465038Y0488893D01*
X0465743Y0488893D01*
X0464665Y0486291D01*
X0464665Y0483387D01*
X0465777Y0480703D01*
X0465845Y0480635D01*
X0465584Y0480593D01*
X0464700Y0480306D01*
X0463873Y0479885D01*
X0463122Y0479339D01*
X0462465Y0478682D01*
X0461919Y0477931D01*
X0461497Y0477103D01*
X0461210Y0476220D01*
X0461065Y0475303D01*
X0461065Y0474839D01*
X0466965Y0474839D01*
X0466965Y0474839D01*
X0461065Y0474839D01*
X0461065Y0474374D01*
X0461210Y0473457D01*
X0461497Y0472574D01*
X0461919Y0471746D01*
X0462465Y0470995D01*
X0463122Y0470338D01*
X0463873Y0469792D01*
X0464700Y0469371D01*
X0465584Y0469084D01*
X0466501Y0468939D01*
X0466965Y0468939D01*
X0466965Y0474838D01*
X0466965Y0474838D01*
X0466965Y0458266D01*
X0471965Y0459021D02*
X0471965Y0469515D01*
X0472830Y0468650D02*
X0470975Y0470505D01*
X0470809Y0470338D01*
X0470057Y0469792D01*
X0469230Y0469371D01*
X0468347Y0469084D01*
X0467430Y0468939D01*
X0466965Y0468939D01*
X0466965Y0474838D01*
X0466965Y0472043D02*
X0466965Y0472043D01*
X0461965Y0471683D02*
X0461965Y0463266D01*
X0463188Y0462043D02*
X0481965Y0462043D01*
X0481965Y0464908D02*
X0481965Y0458778D01*
X0481965Y0434174D01*
X0479835Y0432043D02*
X0463471Y0432043D01*
X0461965Y0433549D02*
X0461965Y0450821D01*
X0460743Y0452043D02*
X0456317Y0452043D01*
X0456965Y0455821D02*
X0456965Y0438549D01*
X0458471Y0437043D02*
X0484835Y0437043D01*
X0486965Y0439174D02*
X0486965Y0454443D01*
X0486300Y0454443D02*
X0492430Y0454443D01*
X0496765Y0458778D01*
X0496765Y0462738D01*
X0496765Y0462043D02*
X0499240Y0462043D01*
X0499240Y0457043D02*
X0495030Y0457043D01*
X0491965Y0454443D02*
X0491965Y0444174D01*
X0489835Y0442043D02*
X0454065Y0442043D01*
X0456562Y0447043D02*
X0467097Y0447043D01*
X0466965Y0447175D02*
X0466965Y0429343D01*
X0471965Y0427367D02*
X0471965Y0445065D01*
X0478943Y0452043D02*
X0499240Y0452043D01*
X0508440Y0452043D02*
X0511765Y0452043D01*
X0511765Y0447043D02*
X0507784Y0447043D01*
X0506965Y0446163D02*
X0506965Y0288443D01*
X0508516Y0287043D02*
X0691401Y0287043D01*
X0691965Y0287446D02*
X0691965Y0517457D01*
X0686965Y0517457D02*
X0686965Y0283876D01*
X0691965Y0276633D02*
X0691965Y0264886D01*
X0695191Y0267043D02*
X0678538Y0267043D01*
X0676965Y0265920D02*
X0676965Y0254853D01*
X0680240Y0257043D02*
X0664536Y0257043D01*
X0664265Y0256850D02*
X0710855Y0290124D01*
X0715774Y0290124D01*
X0717436Y0288462D01*
X0720064Y0287374D01*
X0730008Y0287374D01*
X0732636Y0288462D01*
X0734648Y0290473D01*
X0735736Y0293101D01*
X0735736Y0295946D01*
X0735298Y0292043D02*
X0738601Y0292043D01*
X0738601Y0287043D02*
X0706542Y0287043D01*
X0706965Y0287345D02*
X0706965Y0274918D01*
X0710142Y0277043D02*
X0692540Y0277043D01*
X0696965Y0280204D02*
X0696965Y0268230D01*
X0701965Y0271574D02*
X0701965Y0283774D01*
X0699541Y0282043D02*
X0738601Y0282043D01*
X0738601Y0277043D02*
X0735412Y0277043D01*
X0735167Y0272043D02*
X0738601Y0272043D01*
X0738601Y0267043D02*
X0711020Y0267043D01*
X0711965Y0267676D02*
X0711965Y0223268D01*
X0706965Y0223268D02*
X0706965Y0264331D01*
X0703544Y0262043D02*
X0719436Y0262043D01*
X0720064Y0262304D02*
X0717436Y0261215D01*
X0715425Y0259204D01*
X0714336Y0256576D01*
X0714336Y0253731D01*
X0715425Y0251103D01*
X0717436Y0249092D01*
X0720064Y0248004D01*
X0730008Y0248004D01*
X0732636Y0249092D01*
X0734648Y0251103D01*
X0735736Y0253731D01*
X0735736Y0256576D01*
X0734648Y0259204D01*
X0732636Y0261215D01*
X0730008Y0262304D01*
X0720064Y0262304D01*
X0721965Y0262304D02*
X0721965Y0267689D01*
X0726965Y0267689D02*
X0726965Y0262304D01*
X0730637Y0262043D02*
X0738601Y0262043D01*
X0738601Y0257043D02*
X0735542Y0257043D01*
X0735037Y0252043D02*
X0738601Y0252043D01*
X0738601Y0247043D02*
X0681117Y0247043D01*
X0681965Y0247610D02*
X0681965Y0223268D01*
X0676965Y0223268D02*
X0676965Y0244266D01*
X0673642Y0242043D02*
X0738601Y0242043D01*
X0738601Y0237043D02*
X0477565Y0237043D01*
X0477565Y0242043D02*
X0620099Y0242043D01*
X0621965Y0239220D02*
X0621965Y0223268D01*
X0626965Y0223268D02*
X0626965Y0237243D01*
X0631965Y0239220D02*
X0631965Y0223268D01*
X0636965Y0223268D02*
X0636965Y0255821D01*
X0635743Y0257043D02*
X0634265Y0257043D01*
X0632289Y0252043D02*
X0651641Y0252043D01*
X0651965Y0251720D02*
X0651965Y0249867D01*
X0650099Y0247043D02*
X0633831Y0247043D01*
X0631965Y0249867D02*
X0631965Y0251720D01*
X0633831Y0242043D02*
X0650099Y0242043D01*
X0651965Y0239220D02*
X0651965Y0223268D01*
X0646965Y0223268D02*
X0646965Y0252643D01*
X0641965Y0252643D02*
X0641965Y0223268D01*
X0641965Y0212068D02*
X0641965Y0161043D01*
X0636965Y0161043D02*
X0636965Y0212068D01*
X0631965Y0212068D02*
X0631965Y0161043D01*
X0626965Y0161043D02*
X0626965Y0212068D01*
X0621965Y0212068D02*
X0621965Y0161043D01*
X0616965Y0161043D02*
X0616965Y0212068D01*
X0611965Y0212068D02*
X0611965Y0161043D01*
X0606965Y0161043D02*
X0606965Y0212068D01*
X0601965Y0212068D02*
X0601965Y0161043D01*
X0596965Y0161043D02*
X0596965Y0212068D01*
X0591965Y0212068D02*
X0591965Y0161043D01*
X0586965Y0161043D02*
X0586965Y0212068D01*
X0581965Y0212068D02*
X0581965Y0161043D01*
X0576965Y0161043D02*
X0576965Y0212068D01*
X0571965Y0212068D02*
X0571965Y0161043D01*
X0566965Y0161043D02*
X0566965Y0212068D01*
X0561965Y0212068D02*
X0561965Y0161043D01*
X0556965Y0161043D02*
X0556965Y0212068D01*
X0553866Y0212068D02*
X0714881Y0212068D01*
X0715346Y0210946D01*
X0717357Y0208935D01*
X0719985Y0207846D01*
X0729930Y0207846D01*
X0732557Y0208935D01*
X0734569Y0210946D01*
X0735657Y0213574D01*
X0735657Y0216418D01*
X0734569Y0219046D01*
X0732557Y0221058D01*
X0729930Y0222146D01*
X0725407Y0222146D01*
X0725137Y0222416D01*
X0723079Y0223268D01*
X0552332Y0223268D01*
X0551965Y0223317D02*
X0551965Y0353321D01*
X0553243Y0352043D02*
X0427365Y0352043D01*
X0430165Y0357043D02*
X0548243Y0357043D01*
X0546965Y0358321D02*
X0546965Y0220890D01*
X0548421Y0222043D02*
X0491171Y0222043D01*
X0491965Y0221249D02*
X0491965Y0247043D01*
X0490613Y0247043D02*
X0493318Y0247043D01*
X0620099Y0247043D01*
X0621965Y0249867D02*
X0621965Y0251720D01*
X0610565Y0272043D02*
X0509065Y0272043D01*
X0511965Y0269867D02*
X0511965Y0379220D01*
X0510099Y0382043D02*
X0427846Y0382043D01*
X0426965Y0381163D02*
X0426965Y0379639D01*
X0431965Y0377662D02*
X0431965Y0386163D01*
X0432846Y0387043D02*
X0510099Y0387043D01*
X0520965Y0392043D02*
X0738601Y0392043D01*
X0738601Y0387043D02*
X0533831Y0387043D01*
X0531965Y0389867D02*
X0531965Y0517452D01*
X0526965Y0517452D02*
X0526965Y0391843D01*
X0521965Y0389867D02*
X0521965Y0517452D01*
X0516965Y0517452D02*
X0516965Y0487549D01*
X0517471Y0487043D02*
X0564977Y0487043D01*
X0566965Y0490162D02*
X0566965Y0501195D01*
X0568170Y0502043D02*
X0600761Y0502043D01*
X0601965Y0501195D02*
X0601965Y0492139D01*
X0597319Y0492043D02*
X0593647Y0492043D01*
X0591965Y0492139D02*
X0591965Y0517454D01*
X0586965Y0517454D02*
X0586965Y0490162D01*
X0583647Y0492043D02*
X0590283Y0492043D01*
X0596965Y0491897D02*
X0596965Y0517454D01*
X0600170Y0517043D02*
X0568760Y0517043D01*
X0571965Y0517454D02*
X0571965Y0492139D01*
X0570283Y0492043D02*
X0512471Y0492043D01*
X0511965Y0492549D02*
X0511965Y0501195D01*
X0513170Y0502043D02*
X0555761Y0502043D01*
X0556965Y0501195D02*
X0556965Y0360766D01*
X0555688Y0362043D02*
X0738601Y0362043D01*
X0738601Y0357043D02*
X0560688Y0357043D01*
X0561965Y0355766D02*
X0561965Y0469515D01*
X0560222Y0472043D02*
X0520965Y0472043D01*
X0520965Y0467043D02*
X0738601Y0467043D01*
X0738601Y0462043D02*
X0520965Y0462043D01*
X0520965Y0457043D02*
X0738601Y0457043D01*
X0738601Y0452043D02*
X0520965Y0452043D01*
X0520965Y0447043D02*
X0738601Y0447043D01*
X0738601Y0442043D02*
X0520965Y0442043D01*
X0520965Y0437043D02*
X0738601Y0437043D01*
X0738601Y0432043D02*
X0661274Y0432043D01*
X0661874Y0431443D02*
X0659200Y0434117D01*
X0655706Y0435565D01*
X0651925Y0435565D01*
X0648431Y0434117D01*
X0645757Y0431443D01*
X0644310Y0427950D01*
X0644310Y0424168D01*
X0645757Y0420675D01*
X0648431Y0418001D01*
X0651925Y0416554D01*
X0655706Y0416554D01*
X0659200Y0418001D01*
X0661874Y0420675D01*
X0663321Y0424168D01*
X0663321Y0427950D01*
X0661874Y0431443D01*
X0661965Y0431223D02*
X0661965Y0517456D01*
X0656965Y0517456D02*
X0656965Y0435043D01*
X0651965Y0435565D02*
X0651965Y0517456D01*
X0646965Y0517456D02*
X0646965Y0432651D01*
X0646357Y0432043D02*
X0520965Y0432043D01*
X0520965Y0427043D02*
X0644310Y0427043D01*
X0645190Y0422043D02*
X0520965Y0422043D01*
X0520965Y0417043D02*
X0650742Y0417043D01*
X0651965Y0416554D02*
X0651965Y0340199D01*
X0653809Y0342043D02*
X0632289Y0342043D01*
X0631965Y0342367D02*
X0631965Y0517455D01*
X0626965Y0517455D02*
X0626965Y0344343D01*
X0621965Y0342367D02*
X0621965Y0517455D01*
X0616965Y0517455D02*
X0616965Y0319043D01*
X0612314Y0317043D02*
X0600688Y0317043D01*
X0601965Y0315766D02*
X0601965Y0469515D01*
X0603709Y0472043D02*
X0738601Y0472043D01*
X0738601Y0477043D02*
X0603953Y0477043D01*
X0606965Y0477780D02*
X0606965Y0315193D01*
X0611965Y0316694D02*
X0611965Y0501195D01*
X0613170Y0502043D02*
X0738601Y0502043D01*
X0738601Y0497043D02*
X0507471Y0497043D01*
X0506965Y0497549D02*
X0506965Y0499939D01*
X0516522Y0507043D02*
X0552408Y0507043D01*
X0552164Y0512043D02*
X0516767Y0512043D01*
X0513760Y0517043D02*
X0555170Y0517043D01*
X0551965Y0517453D02*
X0551965Y0365766D01*
X0550688Y0367043D02*
X0738601Y0367043D01*
X0738601Y0372043D02*
X0545688Y0372043D01*
X0546965Y0370766D02*
X0546965Y0517453D01*
X0541965Y0517453D02*
X0541965Y0375766D01*
X0540688Y0377043D02*
X0738601Y0377043D01*
X0738601Y0382043D02*
X0535688Y0382043D01*
X0536965Y0380766D02*
X0536965Y0517452D01*
X0561965Y0499939D02*
X0561965Y0480162D01*
X0559977Y0477043D02*
X0520965Y0477043D01*
X0520965Y0482043D02*
X0565222Y0482043D01*
X0573647Y0492043D02*
X0580283Y0492043D01*
X0581965Y0492139D02*
X0581965Y0517454D01*
X0576965Y0517454D02*
X0576965Y0490162D01*
X0571522Y0507043D02*
X0597408Y0507043D01*
X0597164Y0512043D02*
X0571767Y0512043D01*
X0606965Y0499939D02*
X0606965Y0491897D01*
X0606611Y0492043D02*
X0738601Y0492043D01*
X0738601Y0487043D02*
X0609265Y0487043D01*
X0609265Y0482043D02*
X0738601Y0482043D01*
X0738601Y0507043D02*
X0616522Y0507043D01*
X0616767Y0512043D02*
X0738601Y0512043D01*
X0738601Y0517043D02*
X0613760Y0517043D01*
X0636965Y0517456D02*
X0636965Y0331521D01*
X0634075Y0331521D02*
X0631365Y0328812D01*
X0631965Y0329412D02*
X0631965Y0331720D01*
X0634075Y0331521D02*
X0639856Y0331521D01*
X0643943Y0327434D01*
X0643943Y0321653D01*
X0641365Y0319075D01*
X0641365Y0317294D01*
X0642391Y0316269D01*
X0642764Y0315367D01*
X0643151Y0315901D01*
X0643708Y0316457D01*
X0644345Y0316920D01*
X0645046Y0317277D01*
X0645794Y0317520D01*
X0646572Y0317643D01*
X0646965Y0317643D01*
X0646965Y0307043D01*
X0646965Y0302043D01*
X0647359Y0302043D02*
X0648136Y0302166D01*
X0648885Y0302410D01*
X0649586Y0302767D01*
X0650222Y0303230D01*
X0650779Y0303786D01*
X0651242Y0304423D01*
X0651599Y0305124D01*
X0651842Y0305872D01*
X0651965Y0306650D01*
X0651965Y0307043D01*
X0646965Y0307043D01*
X0646965Y0307043D01*
X0738601Y0307043D01*
X0738601Y0312043D02*
X0651965Y0312043D01*
X0651965Y0313037D02*
X0651842Y0313814D01*
X0651599Y0314563D01*
X0651242Y0315264D01*
X0650779Y0315901D01*
X0650222Y0316457D01*
X0649586Y0316920D01*
X0648885Y0317277D01*
X0648136Y0317520D01*
X0647359Y0317643D01*
X0646965Y0317643D01*
X0646965Y0307043D01*
X0646965Y0307043D01*
X0646965Y0419467D01*
X0656889Y0417043D02*
X0738601Y0417043D01*
X0738601Y0412043D02*
X0520965Y0412043D01*
X0520965Y0407043D02*
X0738601Y0407043D01*
X0738601Y0402043D02*
X0520965Y0402043D01*
X0520965Y0397043D02*
X0738601Y0397043D01*
X0738601Y0422043D02*
X0662441Y0422043D01*
X0661965Y0420895D02*
X0661965Y0340199D01*
X0662011Y0340136D02*
X0661465Y0340887D01*
X0660809Y0341544D01*
X0660057Y0342089D01*
X0662011Y0340136D02*
X0662433Y0339308D01*
X0662720Y0338425D01*
X0662865Y0337508D01*
X0662865Y0337043D01*
X0656965Y0337043D01*
X0656965Y0331143D01*
X0657430Y0331143D01*
X0658347Y0331289D01*
X0659230Y0331576D01*
X0660057Y0331997D01*
X0660809Y0332543D01*
X0661465Y0333200D01*
X0662011Y0333951D01*
X0660121Y0332043D02*
X0738601Y0332043D01*
X0738601Y0327043D02*
X0643943Y0327043D01*
X0641965Y0329412D02*
X0641965Y0517456D01*
X0696965Y0517458D02*
X0696965Y0291017D01*
X0698402Y0292043D02*
X0505548Y0292043D01*
X0503624Y0297043D02*
X0705403Y0297043D01*
X0706965Y0298259D02*
X0706965Y0517458D01*
X0701965Y0517458D02*
X0701965Y0294588D01*
X0711965Y0298924D02*
X0711965Y0517458D01*
X0716965Y0517458D02*
X0716965Y0300114D01*
X0721965Y0301674D02*
X0721965Y0517458D01*
X0726965Y0517459D02*
X0726965Y0301674D01*
X0731965Y0300863D02*
X0731965Y0517459D01*
X0736965Y0517459D02*
X0736965Y0130643D01*
X0738601Y0132043D02*
X0656033Y0132043D01*
X0655706Y0131908D02*
X0659200Y0133355D01*
X0661874Y0136029D01*
X0663321Y0139523D01*
X0663321Y0143304D01*
X0661874Y0146798D01*
X0659200Y0149472D01*
X0655706Y0150919D01*
X0651925Y0150919D01*
X0648431Y0149472D01*
X0645757Y0146798D01*
X0644310Y0143304D01*
X0644310Y0139523D01*
X0645757Y0136029D01*
X0648431Y0133355D01*
X0651925Y0131908D01*
X0655706Y0131908D01*
X0656965Y0132429D02*
X0656965Y0130643D01*
X0651965Y0130643D02*
X0651965Y0131908D01*
X0651598Y0132043D02*
X0179262Y0132043D01*
X0178935Y0131908D02*
X0182428Y0133355D01*
X0185102Y0136029D01*
X0186549Y0139523D01*
X0186549Y0143304D01*
X0185102Y0146798D01*
X0182428Y0149472D01*
X0178935Y0150919D01*
X0175153Y0150919D01*
X0171660Y0149472D01*
X0168986Y0146798D01*
X0167538Y0143304D01*
X0167538Y0139523D01*
X0168986Y0136029D01*
X0171660Y0133355D01*
X0175153Y0131908D01*
X0178935Y0131908D01*
X0176965Y0131908D02*
X0176965Y0130643D01*
X0174826Y0132043D02*
X0135565Y0132043D01*
X0136965Y0130643D02*
X0136965Y0237506D01*
X0136775Y0237696D02*
X0138786Y0235685D01*
X0141414Y0234596D01*
X0151359Y0234596D01*
X0153987Y0235685D01*
X0155998Y0237696D01*
X0157086Y0240324D01*
X0157086Y0243169D01*
X0155998Y0245797D01*
X0153987Y0247808D01*
X0151359Y0248896D01*
X0141414Y0248896D01*
X0138786Y0247808D01*
X0136775Y0245797D01*
X0135686Y0243169D01*
X0135686Y0240324D01*
X0136775Y0237696D01*
X0137428Y0237043D02*
X0135565Y0237043D01*
X0135565Y0232043D02*
X0301365Y0232043D01*
X0301365Y0227043D02*
X0135565Y0227043D01*
X0135565Y0222043D02*
X0304046Y0222043D01*
X0302218Y0223871D02*
X0324617Y0201472D01*
X0322830Y0200732D01*
X0320975Y0198877D01*
X0320809Y0199044D01*
X0320057Y0199589D01*
X0319230Y0200011D01*
X0318347Y0200298D01*
X0317430Y0200443D01*
X0316965Y0200443D01*
X0316501Y0200443D01*
X0315584Y0200298D01*
X0314700Y0200011D01*
X0313873Y0199589D01*
X0313122Y0199044D01*
X0312465Y0198387D01*
X0311965Y0197699D01*
X0311465Y0198387D01*
X0310809Y0199044D01*
X0310057Y0199589D01*
X0309230Y0200011D01*
X0308347Y0200298D01*
X0307430Y0200443D01*
X0306965Y0200443D01*
X0306501Y0200443D01*
X0305584Y0200298D01*
X0304700Y0200011D01*
X0303873Y0199589D01*
X0303122Y0199044D01*
X0302955Y0198877D01*
X0301100Y0200732D01*
X0298417Y0201843D01*
X0295513Y0201843D01*
X0292830Y0200732D01*
X0291965Y0199867D01*
X0291100Y0200732D01*
X0288417Y0201843D01*
X0285513Y0201843D01*
X0282830Y0200732D01*
X0281965Y0199867D01*
X0281100Y0200732D01*
X0278417Y0201843D01*
X0275513Y0201843D01*
X0272830Y0200732D01*
X0270777Y0198678D01*
X0269665Y0195995D01*
X0269665Y0193091D01*
X0270777Y0190408D01*
X0272830Y0188355D01*
X0275513Y0187243D01*
X0278417Y0187243D01*
X0281100Y0188355D01*
X0281965Y0189220D01*
X0282830Y0188355D01*
X0285513Y0187243D01*
X0288417Y0187243D01*
X0291100Y0188355D01*
X0291965Y0189220D01*
X0292830Y0188355D01*
X0295513Y0187243D01*
X0298417Y0187243D01*
X0301100Y0188355D01*
X0302955Y0190209D01*
X0303122Y0190043D01*
X0303873Y0189497D01*
X0304700Y0189076D01*
X0305584Y0188789D01*
X0306501Y0188643D01*
X0306965Y0188643D01*
X0306965Y0194543D01*
X0306965Y0194543D01*
X0306965Y0130643D01*
X0301965Y0130643D02*
X0301965Y0189220D01*
X0306965Y0188643D02*
X0307430Y0188643D01*
X0308347Y0188789D01*
X0309230Y0189076D01*
X0310057Y0189497D01*
X0310809Y0190043D01*
X0311465Y0190700D01*
X0311965Y0191388D01*
X0312465Y0190700D01*
X0313122Y0190043D01*
X0313873Y0189497D01*
X0314700Y0189076D01*
X0315584Y0188789D01*
X0316501Y0188643D01*
X0316965Y0188643D01*
X0316965Y0194543D01*
X0316965Y0194543D01*
X0311065Y0194543D01*
X0306965Y0194543D01*
X0306965Y0188643D01*
X0306965Y0192043D02*
X0306965Y0192043D01*
X0306965Y0194543D02*
X0306965Y0194543D01*
X0306965Y0200443D01*
X0306965Y0194543D01*
X0306965Y0194543D01*
X0306965Y0219124D01*
X0309046Y0217043D02*
X0135565Y0217043D01*
X0135565Y0212043D02*
X0314046Y0212043D01*
X0311965Y0214124D02*
X0311965Y0197699D01*
X0311965Y0194543D02*
X0311965Y0194543D01*
X0311965Y0191388D02*
X0311965Y0130643D01*
X0316965Y0130643D02*
X0316965Y0194543D01*
X0316965Y0194543D01*
X0316965Y0188643D01*
X0317430Y0188643D01*
X0318347Y0188789D01*
X0319230Y0189076D01*
X0320057Y0189497D01*
X0320809Y0190043D01*
X0320975Y0190209D01*
X0322365Y0188820D01*
X0322365Y0186128D01*
X0323066Y0184438D01*
X0324360Y0183144D01*
X0354960Y0152544D01*
X0356650Y0151843D01*
X0680846Y0151843D01*
X0715413Y0151823D01*
X0717357Y0149879D01*
X0719985Y0148791D01*
X0729930Y0148791D01*
X0732557Y0149879D01*
X0734569Y0151891D01*
X0735657Y0154519D01*
X0735657Y0157363D01*
X0734569Y0159991D01*
X0732557Y0162002D01*
X0729930Y0163091D01*
X0719985Y0163091D01*
X0717357Y0162002D01*
X0716378Y0161023D01*
X0681756Y0161043D01*
X0681755Y0161043D01*
X0680850Y0161043D01*
X0679928Y0161044D01*
X0679927Y0161043D01*
X0359471Y0161043D01*
X0331630Y0188884D01*
X0333154Y0190408D01*
X0334265Y0193091D01*
X0334265Y0195995D01*
X0333154Y0198678D01*
X0332889Y0198943D01*
X0492871Y0198943D01*
X0492888Y0198936D01*
X0493984Y0198943D01*
X0495079Y0198943D01*
X0495097Y0198951D01*
X0499630Y0198981D01*
X0499630Y0198981D01*
X0500726Y0198988D01*
X0501821Y0198988D01*
X0501838Y0198995D01*
X0509083Y0199043D01*
X0534623Y0199043D01*
X0535364Y0198946D01*
X0535727Y0199043D01*
X0536104Y0199043D01*
X0536794Y0199329D01*
X0537515Y0199522D01*
X0537814Y0199752D01*
X0538162Y0199896D01*
X0538690Y0200424D01*
X0553866Y0212068D01*
X0553834Y0212043D02*
X0714891Y0212043D01*
X0711965Y0212068D02*
X0711965Y0161025D01*
X0706965Y0161028D02*
X0706965Y0212068D01*
X0701965Y0212068D02*
X0701965Y0161031D01*
X0696965Y0161034D02*
X0696965Y0212068D01*
X0691965Y0212068D02*
X0691965Y0161037D01*
X0686965Y0161040D02*
X0686965Y0212068D01*
X0681965Y0212068D02*
X0681965Y0161043D01*
X0676965Y0161043D02*
X0676965Y0212068D01*
X0671965Y0212068D02*
X0671965Y0161043D01*
X0666965Y0161043D02*
X0666965Y0212068D01*
X0661965Y0212068D02*
X0661965Y0161043D01*
X0656965Y0161043D02*
X0656965Y0212068D01*
X0651965Y0212068D02*
X0651965Y0161043D01*
X0646965Y0161043D02*
X0646965Y0212068D01*
X0656965Y0223268D02*
X0656965Y0237243D01*
X0661965Y0239220D02*
X0661965Y0223268D01*
X0666965Y0223268D02*
X0666965Y0240143D01*
X0671965Y0240821D02*
X0671965Y0223268D01*
X0686965Y0223268D02*
X0686965Y0250955D01*
X0688593Y0252043D02*
X0715035Y0252043D01*
X0716965Y0249563D02*
X0716965Y0223268D01*
X0721965Y0223268D02*
X0721965Y0248004D01*
X0726965Y0248004D02*
X0726965Y0222146D01*
X0730178Y0222043D02*
X0738601Y0222043D01*
X0738601Y0217043D02*
X0735398Y0217043D01*
X0735023Y0212043D02*
X0738601Y0212043D01*
X0738601Y0207043D02*
X0547317Y0207043D01*
X0546965Y0206773D02*
X0546965Y0161043D01*
X0541965Y0161043D02*
X0541965Y0202937D01*
X0540801Y0202043D02*
X0718977Y0202043D01*
X0719985Y0202461D02*
X0717357Y0201372D01*
X0715346Y0199361D01*
X0714257Y0196733D01*
X0714257Y0193889D01*
X0715346Y0191261D01*
X0717357Y0189250D01*
X0719985Y0188161D01*
X0729930Y0188161D01*
X0732557Y0189250D01*
X0734569Y0191261D01*
X0735657Y0193889D01*
X0735657Y0196733D01*
X0734569Y0199361D01*
X0732557Y0201372D01*
X0729930Y0202461D01*
X0719985Y0202461D01*
X0721965Y0202461D02*
X0721965Y0207846D01*
X0726965Y0207846D02*
X0726965Y0202461D01*
X0730938Y0202043D02*
X0738601Y0202043D01*
X0738601Y0197043D02*
X0735529Y0197043D01*
X0734893Y0192043D02*
X0738601Y0192043D01*
X0738601Y0187043D02*
X0333471Y0187043D01*
X0331965Y0188549D02*
X0331965Y0189220D01*
X0333831Y0192043D02*
X0715022Y0192043D01*
X0716965Y0189642D02*
X0716965Y0179294D01*
X0717021Y0179372D02*
X0716490Y0178640D01*
X0716079Y0177833D01*
X0715799Y0176972D01*
X0715657Y0176079D01*
X0715657Y0175626D01*
X0715657Y0175173D01*
X0715799Y0174280D01*
X0716079Y0173419D01*
X0716490Y0172612D01*
X0717021Y0171880D01*
X0717661Y0171240D01*
X0718394Y0170708D01*
X0719200Y0170297D01*
X0720061Y0170018D01*
X0720955Y0169876D01*
X0724957Y0169876D01*
X0724957Y0175626D01*
X0724957Y0175626D01*
X0715657Y0175626D01*
X0724957Y0175626D01*
X0724957Y0181376D01*
X0720955Y0181376D01*
X0720061Y0181234D01*
X0719200Y0180955D01*
X0718394Y0180544D01*
X0717661Y0180012D01*
X0717021Y0179372D01*
X0715822Y0177043D02*
X0343471Y0177043D01*
X0341965Y0178549D02*
X0341965Y0198943D01*
X0336965Y0198943D02*
X0336965Y0183549D01*
X0338471Y0182043D02*
X0738601Y0182043D01*
X0738601Y0177043D02*
X0734093Y0177043D01*
X0734116Y0176972D02*
X0733836Y0177833D01*
X0733425Y0178640D01*
X0732893Y0179372D01*
X0732253Y0180012D01*
X0731521Y0180544D01*
X0730715Y0180955D01*
X0729854Y0181234D01*
X0728960Y0181376D01*
X0724957Y0181376D01*
X0724957Y0175626D01*
X0724957Y0175626D01*
X0724957Y0175626D01*
X0724957Y0169876D01*
X0728960Y0169876D01*
X0729854Y0170018D01*
X0730715Y0170297D01*
X0731521Y0170708D01*
X0732253Y0171240D01*
X0732893Y0171880D01*
X0733425Y0172612D01*
X0733836Y0173419D01*
X0734116Y0174280D01*
X0734257Y0175173D01*
X0734257Y0175626D01*
X0734257Y0176079D01*
X0734116Y0176972D01*
X0734257Y0175626D02*
X0724957Y0175626D01*
X0724957Y0175626D01*
X0734257Y0175626D01*
X0731965Y0175626D02*
X0731965Y0175626D01*
X0733012Y0172043D02*
X0738601Y0172043D01*
X0738601Y0167043D02*
X0353471Y0167043D01*
X0351965Y0168549D02*
X0351965Y0198943D01*
X0346965Y0198943D02*
X0346965Y0173549D01*
X0348471Y0172043D02*
X0716903Y0172043D01*
X0716965Y0171958D02*
X0716965Y0161610D01*
X0717456Y0162043D02*
X0358471Y0162043D01*
X0356965Y0163549D02*
X0356965Y0198943D01*
X0361965Y0198943D02*
X0361965Y0161043D01*
X0366965Y0161043D02*
X0366965Y0198943D01*
X0371965Y0198943D02*
X0371965Y0161043D01*
X0376965Y0161043D02*
X0376965Y0198943D01*
X0381965Y0198943D02*
X0381965Y0161043D01*
X0386965Y0161043D02*
X0386965Y0198943D01*
X0391965Y0198943D02*
X0391965Y0161043D01*
X0396965Y0161043D02*
X0396965Y0198943D01*
X0401965Y0198943D02*
X0401965Y0161043D01*
X0406965Y0161043D02*
X0406965Y0198943D01*
X0411965Y0198943D02*
X0411965Y0161043D01*
X0416965Y0161043D02*
X0416965Y0198943D01*
X0421965Y0198943D02*
X0421965Y0161043D01*
X0426965Y0161043D02*
X0426965Y0198943D01*
X0431965Y0198943D02*
X0431965Y0161043D01*
X0436965Y0161043D02*
X0436965Y0198943D01*
X0441965Y0198943D02*
X0441965Y0161043D01*
X0446965Y0161043D02*
X0446965Y0198943D01*
X0451965Y0198943D02*
X0451965Y0161043D01*
X0456965Y0161043D02*
X0456965Y0198943D01*
X0461965Y0198943D02*
X0461965Y0161043D01*
X0466965Y0161043D02*
X0466965Y0198943D01*
X0471965Y0198943D02*
X0471965Y0161043D01*
X0476965Y0161043D02*
X0476965Y0198943D01*
X0481965Y0198943D02*
X0481965Y0161043D01*
X0486965Y0161043D02*
X0486965Y0198943D01*
X0491965Y0198943D02*
X0491965Y0161043D01*
X0496965Y0161043D02*
X0496965Y0198963D01*
X0501965Y0198996D02*
X0501965Y0161043D01*
X0506965Y0161043D02*
X0506965Y0199029D01*
X0511965Y0199043D02*
X0511965Y0161043D01*
X0516965Y0161043D02*
X0516965Y0199043D01*
X0521965Y0199043D02*
X0521965Y0161043D01*
X0526965Y0161043D02*
X0526965Y0199043D01*
X0531965Y0199043D02*
X0531965Y0161043D01*
X0536965Y0161043D02*
X0536965Y0199375D01*
X0532865Y0214543D02*
X0526965Y0214543D01*
X0526965Y0217043D02*
X0526965Y0217043D01*
X0516965Y0217043D02*
X0516965Y0217043D01*
X0511965Y0214543D02*
X0511965Y0214543D01*
X0511617Y0212043D02*
X0501171Y0212043D01*
X0501965Y0211249D02*
X0501965Y0260538D01*
X0503471Y0262043D02*
X0509665Y0262043D01*
X0506965Y0265538D02*
X0506965Y0210230D01*
X0511965Y0210243D02*
X0511965Y0211388D01*
X0551965Y0210610D02*
X0551965Y0161043D01*
X0551965Y0151843D02*
X0551965Y0130643D01*
X0546965Y0130643D02*
X0546965Y0151843D01*
X0541965Y0151843D02*
X0541965Y0130643D01*
X0536965Y0130643D02*
X0536965Y0151843D01*
X0531965Y0151843D02*
X0531965Y0130643D01*
X0526965Y0130643D02*
X0526965Y0151843D01*
X0521965Y0151843D02*
X0521965Y0130643D01*
X0516965Y0130643D02*
X0516965Y0151843D01*
X0511965Y0151843D02*
X0511965Y0130643D01*
X0506965Y0130643D02*
X0506965Y0151843D01*
X0501965Y0151843D02*
X0501965Y0130643D01*
X0496965Y0130643D02*
X0496965Y0151843D01*
X0491965Y0151843D02*
X0491965Y0130643D01*
X0486965Y0130643D02*
X0486965Y0151843D01*
X0481965Y0151843D02*
X0481965Y0130643D01*
X0476965Y0130643D02*
X0476965Y0151843D01*
X0471965Y0151843D02*
X0471965Y0130643D01*
X0466965Y0130643D02*
X0466965Y0151843D01*
X0461965Y0151843D02*
X0461965Y0130643D01*
X0456965Y0130643D02*
X0456965Y0151843D01*
X0451965Y0151843D02*
X0451965Y0130643D01*
X0446965Y0130643D02*
X0446965Y0151843D01*
X0441965Y0151843D02*
X0441965Y0130643D01*
X0436965Y0130643D02*
X0436965Y0151843D01*
X0431965Y0151843D02*
X0431965Y0130643D01*
X0426965Y0130643D02*
X0426965Y0151843D01*
X0421965Y0151843D02*
X0421965Y0130643D01*
X0416965Y0130643D02*
X0416965Y0151843D01*
X0411965Y0151843D02*
X0411965Y0130643D01*
X0406965Y0130643D02*
X0406965Y0151843D01*
X0401965Y0151843D02*
X0401965Y0130643D01*
X0396965Y0130643D02*
X0396965Y0151843D01*
X0391965Y0151843D02*
X0391965Y0130643D01*
X0386965Y0130643D02*
X0386965Y0151843D01*
X0381965Y0151843D02*
X0381965Y0130643D01*
X0376965Y0130643D02*
X0376965Y0151843D01*
X0371965Y0151843D02*
X0371965Y0130643D01*
X0366965Y0130643D02*
X0366965Y0151843D01*
X0361965Y0151843D02*
X0361965Y0130643D01*
X0356965Y0130643D02*
X0356965Y0151843D01*
X0356167Y0152043D02*
X0135565Y0152043D01*
X0135565Y0147043D02*
X0169231Y0147043D01*
X0171965Y0149598D02*
X0171965Y0307643D01*
X0166965Y0307643D02*
X0166965Y0130643D01*
X0161965Y0130643D02*
X0161965Y0307643D01*
X0156965Y0307643D02*
X0156965Y0302517D01*
X0157086Y0302224D02*
X0155998Y0304852D01*
X0153987Y0306863D01*
X0152103Y0307643D01*
X0185340Y0307643D01*
X0186958Y0308313D01*
X0188195Y0309551D01*
X0188865Y0311168D01*
X0188865Y0357919D01*
X0188195Y0359536D01*
X0186958Y0360773D01*
X0185340Y0361443D01*
X0135565Y0361443D01*
X0135565Y0517439D01*
X0231142Y0517443D01*
X0183893Y0470193D01*
X0155508Y0470193D01*
X0154487Y0471215D01*
X0151859Y0472304D01*
X0141914Y0472304D01*
X0139286Y0471215D01*
X0137275Y0469204D01*
X0136186Y0466576D01*
X0136186Y0463731D01*
X0137275Y0461103D01*
X0139286Y0459092D01*
X0141914Y0458004D01*
X0151859Y0458004D01*
X0154487Y0459092D01*
X0156498Y0461103D01*
X0156618Y0461393D01*
X0171214Y0461393D01*
X0170330Y0461027D01*
X0168277Y0458974D01*
X0167165Y0456291D01*
X0167165Y0453387D01*
X0168277Y0450703D01*
X0170330Y0448650D01*
X0173013Y0447539D01*
X0175917Y0447539D01*
X0178600Y0448650D01*
X0180654Y0450703D01*
X0180753Y0450943D01*
X0200835Y0450943D01*
X0201720Y0450932D01*
X0201749Y0450943D01*
X0201780Y0450943D01*
X0202597Y0451282D01*
X0203419Y0451610D01*
X0203442Y0451632D01*
X0203471Y0451644D01*
X0204096Y0452269D01*
X0226365Y0473960D01*
X0226365Y0346429D01*
X0227218Y0344371D01*
X0290215Y0281374D01*
X0290215Y0279247D01*
X0291365Y0278097D01*
X0291365Y0265929D01*
X0292218Y0263871D01*
X0293793Y0262296D01*
X0300165Y0255924D01*
X0300165Y0252491D01*
X0301200Y0249991D01*
X0301365Y0249827D01*
X0301365Y0225929D01*
X0302218Y0223871D01*
X0301965Y0224481D02*
X0301965Y0199867D01*
X0296965Y0201843D02*
X0296965Y0259124D01*
X0299046Y0257043D02*
X0155660Y0257043D01*
X0155998Y0257381D02*
X0157086Y0260009D01*
X0157086Y0262854D01*
X0155998Y0265482D01*
X0153987Y0267493D01*
X0151359Y0268581D01*
X0141414Y0268581D01*
X0138786Y0267493D01*
X0136775Y0265482D01*
X0135686Y0262854D01*
X0135686Y0260009D01*
X0136775Y0257381D01*
X0138786Y0255370D01*
X0141414Y0254281D01*
X0151359Y0254281D01*
X0153987Y0255370D01*
X0155998Y0257381D01*
X0156965Y0259717D02*
X0156965Y0243461D01*
X0157086Y0242043D02*
X0301365Y0242043D01*
X0301365Y0237043D02*
X0155345Y0237043D01*
X0156965Y0240031D02*
X0156965Y0130643D01*
X0151965Y0130643D02*
X0151965Y0234848D01*
X0146965Y0234596D02*
X0146965Y0130643D01*
X0141965Y0130643D02*
X0141965Y0234596D01*
X0135686Y0242043D02*
X0135565Y0242043D01*
X0136965Y0245987D02*
X0136965Y0257191D01*
X0137113Y0257043D02*
X0135565Y0257043D01*
X0135565Y0252043D02*
X0300351Y0252043D01*
X0301365Y0247043D02*
X0154751Y0247043D01*
X0151965Y0248645D02*
X0151965Y0254533D01*
X0146965Y0254281D02*
X0146965Y0248896D01*
X0141965Y0248896D02*
X0141965Y0254281D01*
X0135686Y0262043D02*
X0135565Y0262043D01*
X0136965Y0265672D02*
X0136965Y0276876D01*
X0136798Y0277043D02*
X0135565Y0277043D01*
X0136775Y0277066D02*
X0138786Y0275055D01*
X0141414Y0273967D01*
X0151359Y0273967D01*
X0153987Y0275055D01*
X0155998Y0277066D01*
X0157086Y0279694D01*
X0157086Y0282539D01*
X0155998Y0285167D01*
X0153987Y0287178D01*
X0151359Y0288267D01*
X0141414Y0288267D01*
X0138786Y0287178D01*
X0136775Y0285167D01*
X0135686Y0282539D01*
X0135686Y0279694D01*
X0136775Y0277066D01*
X0135686Y0282043D02*
X0135565Y0282043D01*
X0136965Y0285357D02*
X0136965Y0296561D01*
X0136775Y0296751D02*
X0138786Y0294740D01*
X0141414Y0293652D01*
X0151359Y0293652D01*
X0153987Y0294740D01*
X0155998Y0296751D01*
X0157086Y0299379D01*
X0157086Y0302224D01*
X0157086Y0302043D02*
X0269546Y0302043D01*
X0271965Y0299624D02*
X0271965Y0199867D01*
X0270099Y0197043D02*
X0135565Y0197043D01*
X0135565Y0192043D02*
X0270099Y0192043D01*
X0271965Y0189220D02*
X0271965Y0130643D01*
X0266965Y0130643D02*
X0266965Y0304624D01*
X0264546Y0307043D02*
X0153551Y0307043D01*
X0156965Y0299087D02*
X0156965Y0282831D01*
X0157086Y0282043D02*
X0289546Y0282043D01*
X0286965Y0284624D02*
X0286965Y0201843D01*
X0281965Y0199867D02*
X0281965Y0289624D01*
X0279546Y0292043D02*
X0135565Y0292043D01*
X0136775Y0296751D02*
X0135686Y0299379D01*
X0135686Y0302224D01*
X0136775Y0304852D01*
X0138786Y0306863D01*
X0140670Y0307643D01*
X0135565Y0307643D01*
X0135565Y0307043D02*
X0139222Y0307043D01*
X0136965Y0307643D02*
X0136965Y0305042D01*
X0135686Y0302043D02*
X0135565Y0302043D01*
X0135565Y0297043D02*
X0136654Y0297043D01*
X0141965Y0293652D02*
X0141965Y0288267D01*
X0138652Y0287043D02*
X0135565Y0287043D01*
X0146965Y0288267D02*
X0146965Y0293652D01*
X0151965Y0293903D02*
X0151965Y0288015D01*
X0154121Y0287043D02*
X0284546Y0287043D01*
X0276965Y0294624D02*
X0276965Y0201843D01*
X0281965Y0189220D02*
X0281965Y0130643D01*
X0276965Y0130643D02*
X0276965Y0187243D01*
X0286965Y0187243D02*
X0286965Y0130643D01*
X0291965Y0130643D02*
X0291965Y0189220D01*
X0296965Y0187243D02*
X0296965Y0130643D01*
X0321965Y0130643D02*
X0321965Y0189220D01*
X0322365Y0187043D02*
X0135565Y0187043D01*
X0135565Y0182043D02*
X0325460Y0182043D01*
X0326965Y0180538D02*
X0326965Y0130643D01*
X0331965Y0130643D02*
X0331965Y0175538D01*
X0330460Y0177043D02*
X0135565Y0177043D01*
X0135565Y0172043D02*
X0335460Y0172043D01*
X0336965Y0170538D02*
X0336965Y0130643D01*
X0341965Y0130643D02*
X0341965Y0165538D01*
X0340460Y0167043D02*
X0135565Y0167043D01*
X0135565Y0162043D02*
X0345460Y0162043D01*
X0346965Y0160538D02*
X0346965Y0130643D01*
X0351965Y0130643D02*
X0351965Y0155538D01*
X0350460Y0157043D02*
X0135565Y0157043D01*
X0135565Y0142043D02*
X0167538Y0142043D01*
X0168565Y0137043D02*
X0135565Y0137043D01*
X0171965Y0133228D02*
X0171965Y0130643D01*
X0181965Y0130643D02*
X0181965Y0133163D01*
X0185522Y0137043D02*
X0645337Y0137043D01*
X0646965Y0134821D02*
X0646965Y0130643D01*
X0641965Y0130643D02*
X0641965Y0151843D01*
X0636965Y0151843D02*
X0636965Y0130643D01*
X0631965Y0130643D02*
X0631965Y0151843D01*
X0626965Y0151843D02*
X0626965Y0130643D01*
X0621965Y0130643D02*
X0621965Y0151843D01*
X0616965Y0151843D02*
X0616965Y0130643D01*
X0611965Y0130643D02*
X0611965Y0151843D01*
X0606965Y0151843D02*
X0606965Y0130643D01*
X0601965Y0130643D02*
X0601965Y0151843D01*
X0596965Y0151843D02*
X0596965Y0130643D01*
X0591965Y0130643D02*
X0591965Y0151843D01*
X0586965Y0151843D02*
X0586965Y0130643D01*
X0581965Y0130643D02*
X0581965Y0151843D01*
X0576965Y0151843D02*
X0576965Y0130643D01*
X0571965Y0130643D02*
X0571965Y0151843D01*
X0566965Y0151843D02*
X0566965Y0130643D01*
X0561965Y0130643D02*
X0561965Y0151843D01*
X0556965Y0151843D02*
X0556965Y0130643D01*
X0644310Y0142043D02*
X0186549Y0142043D01*
X0184857Y0147043D02*
X0646003Y0147043D01*
X0646965Y0148006D02*
X0646965Y0151843D01*
X0651965Y0151843D02*
X0651965Y0150919D01*
X0656965Y0150397D02*
X0656965Y0151843D01*
X0661965Y0151843D02*
X0661965Y0146578D01*
X0661629Y0147043D02*
X0738601Y0147043D01*
X0738601Y0142043D02*
X0663321Y0142043D01*
X0662294Y0137043D02*
X0738601Y0137043D01*
X0731965Y0130643D02*
X0731965Y0149634D01*
X0734632Y0152043D02*
X0738601Y0152043D01*
X0738601Y0157043D02*
X0735657Y0157043D01*
X0738601Y0162043D02*
X0732459Y0162043D01*
X0731965Y0162248D02*
X0731965Y0171031D01*
X0726965Y0169876D02*
X0726965Y0163091D01*
X0721965Y0163091D02*
X0721965Y0169876D01*
X0724957Y0172043D02*
X0724957Y0172043D01*
X0726965Y0175626D02*
X0726965Y0175626D01*
X0724957Y0177043D02*
X0724957Y0177043D01*
X0721965Y0175626D02*
X0721965Y0175626D01*
X0716965Y0175626D02*
X0716965Y0175626D01*
X0721965Y0181376D02*
X0721965Y0188161D01*
X0726965Y0188161D02*
X0726965Y0181376D01*
X0731965Y0180221D02*
X0731965Y0189004D01*
X0731965Y0201618D02*
X0731965Y0208689D01*
X0731965Y0221303D02*
X0731965Y0248814D01*
X0731965Y0261493D02*
X0731965Y0268499D01*
X0731965Y0281178D02*
X0731965Y0288184D01*
X0726965Y0287374D02*
X0726965Y0281989D01*
X0721965Y0281989D02*
X0721965Y0287374D01*
X0716965Y0288933D02*
X0716965Y0280429D01*
X0711965Y0278266D02*
X0711965Y0290124D01*
X0702667Y0272043D02*
X0685539Y0272043D01*
X0686965Y0273062D02*
X0686965Y0261541D01*
X0687716Y0262043D02*
X0671537Y0262043D01*
X0666965Y0258778D02*
X0666965Y0248943D01*
X0663154Y0252908D02*
X0664265Y0255591D01*
X0664265Y0256850D01*
X0663154Y0252908D02*
X0661100Y0250855D01*
X0660952Y0250793D01*
X0661100Y0250732D01*
X0646965Y0261443D02*
X0646965Y0265043D01*
X0645692Y0265043D02*
X0648238Y0265043D01*
X0650591Y0266018D01*
X0652391Y0267818D01*
X0645692Y0265043D02*
X0643340Y0266018D01*
X0641965Y0267392D01*
X0641616Y0267043D02*
X0642314Y0267043D01*
X0616965Y0283443D02*
X0616965Y0300643D01*
X0612914Y0302043D02*
X0500997Y0302043D01*
X0501965Y0301049D02*
X0501965Y0441163D01*
X0502846Y0442043D02*
X0511765Y0442043D01*
X0511765Y0437043D02*
X0497846Y0437043D01*
X0496965Y0436163D02*
X0496965Y0302893D01*
X0491965Y0302893D02*
X0491965Y0431163D01*
X0492846Y0432043D02*
X0511765Y0432043D01*
X0506446Y0445644D02*
X0506446Y0445644D01*
X0508440Y0457043D02*
X0511765Y0457043D01*
X0511765Y0462043D02*
X0508440Y0462043D01*
X0508440Y0467043D02*
X0511765Y0467043D01*
X0511765Y0472043D02*
X0508440Y0472043D01*
X0508440Y0477043D02*
X0511765Y0477043D01*
X0509460Y0482043D02*
X0509265Y0482043D01*
X0484864Y0467807D02*
X0481965Y0464908D01*
X0481965Y0469515D01*
X0482830Y0468650D01*
X0484864Y0467807D01*
X0484100Y0467043D02*
X0460115Y0467043D01*
X0460115Y0472043D02*
X0461768Y0472043D01*
X0461965Y0474839D02*
X0461965Y0474839D01*
X0461478Y0477043D02*
X0460115Y0477043D01*
X0461965Y0477994D02*
X0461965Y0485821D01*
X0463188Y0487043D02*
X0464977Y0487043D01*
X0465222Y0482043D02*
X0460115Y0482043D01*
X0481100Y0468650D02*
X0481965Y0469515D01*
X0481100Y0468650D02*
X0478417Y0467539D01*
X0475513Y0467539D01*
X0472830Y0468650D01*
X0476965Y0467539D02*
X0476965Y0456912D01*
X0476834Y0457043D02*
X0483700Y0457043D01*
X0481965Y0458778D02*
X0486300Y0454443D01*
X0474835Y0427043D02*
X0472289Y0427043D01*
X0455743Y0457043D02*
X0454065Y0457043D01*
X0566965Y0467539D02*
X0566965Y0350766D01*
X0565688Y0352043D02*
X0738601Y0352043D01*
X0738601Y0337043D02*
X0656965Y0337043D01*
X0656965Y0337043D01*
X0656965Y0342943D01*
X0656965Y0337043D01*
X0656965Y0337043D01*
X0656965Y0417075D01*
X0663321Y0427043D02*
X0738601Y0427043D01*
X0656965Y0342043D02*
X0656965Y0342043D01*
X0651965Y0337043D02*
X0651965Y0337043D01*
X0656965Y0332043D02*
X0656965Y0332043D01*
X0661965Y0337043D02*
X0661965Y0337043D01*
X0643943Y0322043D02*
X0738601Y0322043D01*
X0738601Y0317043D02*
X0649343Y0317043D01*
X0646965Y0317043D02*
X0646965Y0317043D01*
X0644587Y0317043D02*
X0641616Y0317043D01*
X0641965Y0316694D02*
X0641965Y0319675D01*
X0646965Y0312043D02*
X0646965Y0312043D01*
X0646965Y0307043D02*
X0651965Y0307043D01*
X0651965Y0313037D01*
X0635692Y0300643D02*
X0633340Y0301618D01*
X0631965Y0302992D01*
X0631016Y0302043D02*
X0632914Y0302043D01*
X0625692Y0300643D02*
X0623340Y0301618D01*
X0621965Y0302992D01*
X0621016Y0302043D02*
X0622914Y0302043D01*
X0611965Y0302992D02*
X0611965Y0281094D01*
X0612914Y0282043D02*
X0510865Y0282043D01*
X0509065Y0277043D02*
X0610565Y0277043D01*
X0606965Y0306393D02*
X0606965Y0223268D01*
X0601965Y0223268D02*
X0601965Y0306393D01*
X0526965Y0271843D02*
X0526965Y0377243D01*
X0528243Y0377043D02*
X0432584Y0377043D01*
X0402990Y0337043D02*
X0402950Y0337043D01*
X0386965Y0317043D02*
X0386965Y0317043D01*
X0376965Y0317043D02*
X0376965Y0317043D01*
X0376684Y0312043D02*
X0352247Y0312043D01*
X0351965Y0317043D02*
X0351965Y0317043D01*
X0354782Y0322043D02*
X0374149Y0322043D01*
X0341965Y0317043D02*
X0341965Y0317043D01*
X0339913Y0321279D02*
X0338000Y0323191D01*
X0336965Y0325691D01*
X0336965Y0327043D02*
X0323215Y0327043D01*
X0321965Y0331405D02*
X0321965Y0333272D01*
X0321327Y0332043D02*
X0339149Y0332043D01*
X0338000Y0330895D01*
X0336965Y0328396D01*
X0339149Y0332043D02*
X0338000Y0333191D01*
X0336965Y0335691D01*
X0336965Y0337043D02*
X0323215Y0337043D01*
X0301965Y0371110D02*
X0301965Y0377243D01*
X0306965Y0378299D02*
X0306965Y0374794D01*
X0310018Y0377043D02*
X0237565Y0377043D01*
X0237565Y0372043D02*
X0303232Y0372043D01*
X0292497Y0401643D02*
X0284053Y0401643D01*
X0251565Y0438772D01*
X0251565Y0470138D01*
X0261666Y0480239D01*
X0264567Y0480239D01*
X0263873Y0479885D01*
X0263122Y0479339D01*
X0262465Y0478682D01*
X0261919Y0477931D01*
X0261497Y0477103D01*
X0261210Y0476220D01*
X0261065Y0475303D01*
X0261065Y0474839D01*
X0266965Y0474839D01*
X0266965Y0474839D01*
X0261065Y0474839D01*
X0261065Y0474374D01*
X0261210Y0473457D01*
X0261497Y0472574D01*
X0261919Y0471746D01*
X0262465Y0470995D01*
X0263122Y0470338D01*
X0263873Y0469792D01*
X0264700Y0469371D01*
X0265584Y0469084D01*
X0266501Y0468939D01*
X0266965Y0468939D01*
X0266965Y0474838D01*
X0266965Y0474838D01*
X0266965Y0421172D01*
X0266203Y0422043D02*
X0275460Y0422043D01*
X0276965Y0420538D02*
X0276965Y0409743D01*
X0274953Y0412043D02*
X0285460Y0412043D01*
X0286965Y0410538D02*
X0286965Y0401643D01*
X0283703Y0402043D02*
X0292097Y0402043D01*
X0291965Y0402175D02*
X0291965Y0401643D01*
X0292497Y0401643D02*
X0289987Y0404153D01*
X0289987Y0407516D01*
X0273066Y0424438D01*
X0272365Y0426128D01*
X0272365Y0469115D01*
X0270975Y0470505D01*
X0270809Y0470338D01*
X0270057Y0469792D01*
X0269230Y0469371D01*
X0268347Y0469084D01*
X0267430Y0468939D01*
X0266965Y0468939D01*
X0266965Y0474838D01*
X0266965Y0472043D02*
X0266965Y0472043D01*
X0261965Y0471683D02*
X0261965Y0426886D01*
X0261828Y0427043D02*
X0272365Y0427043D01*
X0272365Y0432043D02*
X0257453Y0432043D01*
X0256965Y0432600D02*
X0256965Y0475538D01*
X0258471Y0477043D02*
X0261478Y0477043D01*
X0261965Y0477994D02*
X0261965Y0480239D01*
X0261965Y0474839D02*
X0261965Y0474839D01*
X0261768Y0472043D02*
X0253471Y0472043D01*
X0251965Y0470538D02*
X0251965Y0438315D01*
X0253078Y0437043D02*
X0272365Y0437043D01*
X0272365Y0442043D02*
X0251565Y0442043D01*
X0251565Y0447043D02*
X0272365Y0447043D01*
X0272365Y0452043D02*
X0251565Y0452043D01*
X0251565Y0457043D02*
X0272365Y0457043D01*
X0272365Y0462043D02*
X0251565Y0462043D01*
X0251565Y0467043D02*
X0272365Y0467043D01*
X0271965Y0469515D02*
X0271965Y0415457D01*
X0270578Y0417043D02*
X0280460Y0417043D01*
X0281965Y0415538D02*
X0281965Y0404029D01*
X0279328Y0407043D02*
X0289987Y0407043D01*
X0226365Y0407043D02*
X0135565Y0407043D01*
X0135565Y0402043D02*
X0226365Y0402043D01*
X0226365Y0397043D02*
X0135565Y0397043D01*
X0135565Y0392043D02*
X0226365Y0392043D01*
X0226365Y0387043D02*
X0135565Y0387043D01*
X0135565Y0382043D02*
X0226365Y0382043D01*
X0226365Y0377043D02*
X0135565Y0377043D01*
X0135565Y0372043D02*
X0226365Y0372043D01*
X0226365Y0367043D02*
X0135565Y0367043D01*
X0135565Y0362043D02*
X0226365Y0362043D01*
X0226365Y0357043D02*
X0188865Y0357043D01*
X0186965Y0360766D02*
X0186965Y0450943D01*
X0181965Y0450943D02*
X0181965Y0434309D01*
X0182428Y0434117D02*
X0178935Y0435565D01*
X0175153Y0435565D01*
X0171660Y0434117D01*
X0168986Y0431443D01*
X0167538Y0427950D01*
X0167538Y0424168D01*
X0168986Y0420675D01*
X0171660Y0418001D01*
X0175153Y0416554D01*
X0178935Y0416554D01*
X0182428Y0418001D01*
X0185102Y0420675D01*
X0186549Y0424168D01*
X0186549Y0427950D01*
X0185102Y0431443D01*
X0182428Y0434117D01*
X0184503Y0432043D02*
X0226365Y0432043D01*
X0226365Y0427043D02*
X0186549Y0427043D01*
X0185669Y0422043D02*
X0226365Y0422043D01*
X0226365Y0417043D02*
X0180117Y0417043D01*
X0181965Y0417809D02*
X0181965Y0361443D01*
X0176965Y0361443D02*
X0176965Y0416554D01*
X0173971Y0417043D02*
X0135565Y0417043D01*
X0135565Y0412043D02*
X0226365Y0412043D01*
X0226365Y0437043D02*
X0135565Y0437043D01*
X0135565Y0432043D02*
X0169585Y0432043D01*
X0171965Y0434244D02*
X0171965Y0447973D01*
X0176965Y0447973D02*
X0176965Y0435565D01*
X0167538Y0427043D02*
X0135565Y0427043D01*
X0135565Y0422043D02*
X0168419Y0422043D01*
X0171965Y0417874D02*
X0171965Y0361443D01*
X0166965Y0361443D02*
X0166965Y0461393D01*
X0167477Y0457043D02*
X0135565Y0457043D01*
X0135565Y0452043D02*
X0167722Y0452043D01*
X0161965Y0461393D02*
X0161965Y0361443D01*
X0156965Y0361443D02*
X0156965Y0461393D01*
X0151965Y0458048D02*
X0151965Y0361443D01*
X0146965Y0361443D02*
X0146965Y0458004D01*
X0141965Y0458004D02*
X0141965Y0361443D01*
X0136965Y0361443D02*
X0136965Y0461851D01*
X0136886Y0462043D02*
X0135565Y0462043D01*
X0135565Y0467043D02*
X0136380Y0467043D01*
X0136965Y0468456D02*
X0136965Y0481536D01*
X0136755Y0482043D02*
X0135565Y0482043D01*
X0136186Y0483416D02*
X0137275Y0480788D01*
X0139286Y0478777D01*
X0141914Y0477689D01*
X0151859Y0477689D01*
X0154487Y0478777D01*
X0156148Y0480439D01*
X0168541Y0480439D01*
X0170330Y0478650D01*
X0173013Y0477539D01*
X0175917Y0477539D01*
X0178600Y0478650D01*
X0180654Y0480703D01*
X0181765Y0483387D01*
X0181765Y0486291D01*
X0180654Y0488974D01*
X0178600Y0491027D01*
X0175917Y0492139D01*
X0173013Y0492139D01*
X0170330Y0491027D01*
X0168541Y0489239D01*
X0156148Y0489239D01*
X0154487Y0490900D01*
X0151859Y0491989D01*
X0141914Y0491989D01*
X0139286Y0490900D01*
X0137275Y0488889D01*
X0136186Y0486261D01*
X0136186Y0483416D01*
X0136511Y0487043D02*
X0135565Y0487043D01*
X0136965Y0488141D02*
X0136965Y0517440D01*
X0135565Y0517043D02*
X0230743Y0517043D01*
X0226965Y0517442D02*
X0226965Y0513266D01*
X0225743Y0512043D02*
X0135565Y0512043D01*
X0135565Y0507043D02*
X0138167Y0507043D01*
X0138008Y0506731D02*
X0138419Y0507537D01*
X0138951Y0508269D01*
X0139591Y0508909D01*
X0140323Y0509441D01*
X0141129Y0509852D01*
X0141990Y0510132D01*
X0142884Y0510274D01*
X0146886Y0510274D01*
X0146886Y0504524D01*
X0146886Y0504524D01*
X0137586Y0504524D01*
X0137586Y0504976D01*
X0137728Y0505870D01*
X0138008Y0506731D01*
X0137586Y0504524D02*
X0137586Y0504071D01*
X0137728Y0503177D01*
X0138008Y0502316D01*
X0138419Y0501510D01*
X0138951Y0500778D01*
X0139591Y0500138D01*
X0140323Y0499606D01*
X0141129Y0499195D01*
X0141990Y0498915D01*
X0142884Y0498774D01*
X0146886Y0498774D01*
X0146886Y0504523D01*
X0146887Y0504523D01*
X0146887Y0498774D01*
X0150889Y0498774D01*
X0151783Y0498915D01*
X0152644Y0499195D01*
X0153450Y0499606D01*
X0154182Y0500138D01*
X0154822Y0500778D01*
X0155354Y0501510D01*
X0155765Y0502316D01*
X0156045Y0503177D01*
X0156186Y0504071D01*
X0156186Y0504524D01*
X0156186Y0504976D01*
X0156045Y0505870D01*
X0155765Y0506731D01*
X0155354Y0507537D01*
X0154822Y0508269D01*
X0154182Y0508909D01*
X0153450Y0509441D01*
X0152644Y0509852D01*
X0151783Y0510132D01*
X0150889Y0510274D01*
X0146887Y0510274D01*
X0146887Y0504524D01*
X0156186Y0504524D01*
X0146887Y0504524D01*
X0146887Y0504524D01*
X0146886Y0504524D01*
X0137586Y0504524D01*
X0138147Y0502043D02*
X0135565Y0502043D01*
X0135565Y0497043D02*
X0210743Y0497043D01*
X0211965Y0498266D02*
X0211965Y0517442D01*
X0206965Y0517442D02*
X0206965Y0493266D01*
X0205743Y0492043D02*
X0176147Y0492043D01*
X0176965Y0491704D02*
X0176965Y0517441D01*
X0171965Y0517441D02*
X0171965Y0491705D01*
X0172783Y0492043D02*
X0135565Y0492043D01*
X0141965Y0491989D02*
X0141965Y0498923D01*
X0146965Y0498774D02*
X0146965Y0491989D01*
X0151965Y0491944D02*
X0151965Y0498974D01*
X0155626Y0502043D02*
X0215743Y0502043D01*
X0216965Y0503266D02*
X0216965Y0517442D01*
X0221965Y0517442D02*
X0221965Y0508266D01*
X0220743Y0507043D02*
X0155606Y0507043D01*
X0151965Y0504524D02*
X0151965Y0504524D01*
X0146965Y0504524D02*
X0146965Y0504524D01*
X0146886Y0502043D02*
X0146887Y0502043D01*
X0146886Y0507043D02*
X0146887Y0507043D01*
X0146965Y0510274D02*
X0146965Y0517440D01*
X0141965Y0517440D02*
X0141965Y0510124D01*
X0141965Y0504524D02*
X0141965Y0504524D01*
X0151965Y0510073D02*
X0151965Y0517440D01*
X0156965Y0517440D02*
X0156965Y0489239D01*
X0161965Y0489239D02*
X0161965Y0517440D01*
X0166965Y0517441D02*
X0166965Y0489239D01*
X0166965Y0480439D02*
X0166965Y0470193D01*
X0161965Y0470193D02*
X0161965Y0480439D01*
X0156965Y0480439D02*
X0156965Y0470193D01*
X0152487Y0472043D02*
X0185743Y0472043D01*
X0186965Y0473266D02*
X0186965Y0517441D01*
X0181965Y0517441D02*
X0181965Y0470193D01*
X0176965Y0470193D02*
X0176965Y0477973D01*
X0171965Y0477973D02*
X0171965Y0470193D01*
X0181209Y0482043D02*
X0195743Y0482043D01*
X0196965Y0483266D02*
X0196965Y0517441D01*
X0191965Y0517441D02*
X0191965Y0478266D01*
X0190743Y0477043D02*
X0135565Y0477043D01*
X0135565Y0472043D02*
X0141286Y0472043D01*
X0141965Y0472304D02*
X0141965Y0477689D01*
X0146965Y0477689D02*
X0146965Y0472304D01*
X0151965Y0472259D02*
X0151965Y0477733D01*
X0181453Y0487043D02*
X0200743Y0487043D01*
X0201965Y0488266D02*
X0201965Y0517442D01*
X0224397Y0472043D02*
X0226365Y0472043D01*
X0221965Y0469675D02*
X0221965Y0130643D01*
X0216965Y0130643D02*
X0216965Y0464804D01*
X0219264Y0467043D02*
X0226365Y0467043D01*
X0226365Y0462043D02*
X0214131Y0462043D01*
X0211965Y0459934D02*
X0211965Y0130643D01*
X0206965Y0130643D02*
X0206965Y0455064D01*
X0208998Y0457043D02*
X0226365Y0457043D01*
X0226365Y0452043D02*
X0203871Y0452043D01*
X0201965Y0451020D02*
X0201965Y0130643D01*
X0196965Y0130643D02*
X0196965Y0450943D01*
X0191965Y0450943D02*
X0191965Y0130643D01*
X0186965Y0130643D02*
X0186965Y0308321D01*
X0188865Y0312043D02*
X0259546Y0312043D01*
X0261965Y0309624D02*
X0261965Y0130643D01*
X0256965Y0130643D02*
X0256965Y0314624D01*
X0254546Y0317043D02*
X0188865Y0317043D01*
X0188865Y0322043D02*
X0249546Y0322043D01*
X0251965Y0319624D02*
X0251965Y0130643D01*
X0246965Y0130643D02*
X0246965Y0324624D01*
X0244546Y0327043D02*
X0188865Y0327043D01*
X0188865Y0332043D02*
X0239546Y0332043D01*
X0241965Y0329624D02*
X0241965Y0130643D01*
X0236965Y0130643D02*
X0236965Y0334624D01*
X0234546Y0337043D02*
X0188865Y0337043D01*
X0188865Y0342043D02*
X0229546Y0342043D01*
X0231965Y0339624D02*
X0231965Y0130643D01*
X0226965Y0130643D02*
X0226965Y0344981D01*
X0226365Y0347043D02*
X0188865Y0347043D01*
X0188865Y0352043D02*
X0226365Y0352043D01*
X0181965Y0307643D02*
X0181965Y0149664D01*
X0176965Y0150919D02*
X0176965Y0307643D01*
X0156119Y0297043D02*
X0274546Y0297043D01*
X0291365Y0277043D02*
X0155975Y0277043D01*
X0156965Y0279402D02*
X0156965Y0263146D01*
X0157086Y0262043D02*
X0294046Y0262043D01*
X0291965Y0264481D02*
X0291965Y0199867D01*
X0306965Y0197043D02*
X0306965Y0197043D01*
X0306965Y0194543D02*
X0316965Y0194543D01*
X0316965Y0200443D01*
X0316965Y0194543D01*
X0316965Y0194543D01*
X0316965Y0209124D01*
X0319046Y0207043D02*
X0135565Y0207043D01*
X0135565Y0202043D02*
X0324046Y0202043D01*
X0321965Y0204124D02*
X0321965Y0199867D01*
X0316965Y0197043D02*
X0316965Y0197043D01*
X0316965Y0192043D02*
X0316965Y0192043D01*
X0333831Y0197043D02*
X0714386Y0197043D01*
X0716965Y0200981D02*
X0716965Y0209327D01*
X0701965Y0223268D02*
X0701965Y0260987D01*
X0696965Y0257643D02*
X0696965Y0223268D01*
X0691965Y0223268D02*
X0691965Y0254299D01*
X0696069Y0257043D02*
X0714530Y0257043D01*
X0716965Y0260744D02*
X0716965Y0269248D01*
X0681965Y0269491D02*
X0681965Y0258197D01*
X0681965Y0151843D02*
X0681965Y0130643D01*
X0676965Y0130643D02*
X0676965Y0151843D01*
X0671965Y0151843D02*
X0671965Y0130643D01*
X0666965Y0130643D02*
X0666965Y0151843D01*
X0661965Y0136249D02*
X0661965Y0130643D01*
X0686965Y0130643D02*
X0686965Y0151840D01*
X0691965Y0151837D02*
X0691965Y0130643D01*
X0696965Y0130643D02*
X0696965Y0151834D01*
X0701965Y0151831D02*
X0701965Y0130643D01*
X0706965Y0130643D02*
X0706965Y0151828D01*
X0711965Y0151825D02*
X0711965Y0130643D01*
X0716965Y0130643D02*
X0716965Y0150271D01*
X0721965Y0148791D02*
X0721965Y0130643D01*
X0726965Y0130643D02*
X0726965Y0148791D01*
X0523941Y0247243D02*
X0521965Y0249220D01*
X0509665Y0252043D02*
X0498580Y0252043D01*
X0497730Y0249991D02*
X0495817Y0248079D01*
X0493318Y0247043D01*
X0481965Y0252043D02*
X0481965Y0252043D01*
X0498765Y0257043D02*
X0509665Y0257043D01*
X0509665Y0267043D02*
X0508409Y0267043D01*
X0513941Y0271843D02*
X0519989Y0271843D01*
X0521965Y0269867D01*
X0497614Y0287043D02*
X0484531Y0287043D01*
X0481965Y0287043D02*
X0481965Y0287043D01*
X0481965Y0287393D02*
X0481965Y0282043D01*
X0487315Y0282043D01*
X0486965Y0284609D02*
X0486965Y0293693D01*
X0496965Y0288729D02*
X0496965Y0286614D01*
X0459046Y0262043D02*
X0448471Y0262043D01*
X0451565Y0267043D02*
X0456365Y0267043D01*
X0456965Y0264481D02*
X0456965Y0210143D01*
X0426965Y0210143D02*
X0426965Y0216624D01*
X0426546Y0217043D02*
X0387385Y0217043D01*
X0451565Y0272043D02*
X0456365Y0272043D01*
X0456365Y0277043D02*
X0451565Y0277043D01*
X0316965Y0287043D02*
X0316965Y0287043D01*
X0314399Y0287043D02*
X0301511Y0287043D01*
X0291365Y0272043D02*
X0135565Y0272043D01*
X0135565Y0267043D02*
X0138337Y0267043D01*
X0141965Y0268581D02*
X0141965Y0273967D01*
X0146965Y0273967D02*
X0146965Y0268581D01*
X0151965Y0268330D02*
X0151965Y0274218D01*
X0154436Y0267043D02*
X0291365Y0267043D01*
X0138022Y0247043D02*
X0135565Y0247043D01*
X0135565Y0442043D02*
X0226365Y0442043D01*
X0226365Y0447043D02*
X0135565Y0447043D01*
M02*
