G75*
%MOIN*%
%OFA0B0*%
%FSLAX25Y25*%
%IPPOS*%
%LPD*%
%AMOC8*
5,1,8,0,0,1.08239X$1,22.5*
%
%ADD10C,0.12611*%
%ADD11C,0.08200*%
%ADD12R,0.08200X0.08200*%
%ADD13C,0.13398*%
%ADD14OC8,0.08200*%
%ADD15C,0.06400*%
%ADD16C,0.07900*%
%ADD17C,0.07200*%
%ADD18OC8,0.07100*%
%ADD19OC8,0.06400*%
%ADD20OC8,0.08400*%
%ADD21OC8,0.07556*%
D10*
X0177044Y0125970D03*
X0177044Y0410616D03*
X0653816Y0410616D03*
X0653816Y0125970D03*
D11*
X0656965Y0214100D03*
X0656965Y0226600D03*
X0626965Y0226600D03*
X0626965Y0214100D03*
X0526965Y0199100D03*
X0516965Y0199100D03*
X0626965Y0301600D03*
X0656965Y0301600D03*
X0526965Y0369100D03*
X0516965Y0369100D03*
X0426965Y0356895D03*
X0396965Y0356895D03*
X0396965Y0369100D03*
X0386965Y0369100D03*
X0376965Y0369100D03*
X0366965Y0369100D03*
X0356965Y0369100D03*
X0346965Y0369100D03*
X0336965Y0369100D03*
X0326965Y0369100D03*
X0310965Y0369100D03*
X0300965Y0369100D03*
X0290965Y0369100D03*
X0280965Y0369100D03*
X0270965Y0369100D03*
X0260965Y0369100D03*
X0250965Y0369100D03*
X0240965Y0369100D03*
X0189465Y0439395D03*
X0189465Y0469395D03*
X0266965Y0459395D03*
X0276965Y0459395D03*
X0286965Y0459395D03*
X0296965Y0459395D03*
X0291965Y0469395D03*
X0281965Y0469395D03*
X0271965Y0469395D03*
X0366965Y0459395D03*
X0376965Y0459395D03*
X0386965Y0459395D03*
X0396965Y0459395D03*
X0391965Y0469395D03*
X0381965Y0469395D03*
X0371965Y0469395D03*
X0466965Y0459395D03*
X0476965Y0459395D03*
X0486965Y0459395D03*
X0496965Y0459395D03*
X0491965Y0469395D03*
X0481965Y0469395D03*
X0471965Y0469395D03*
X0566965Y0459395D03*
X0576965Y0459395D03*
X0586965Y0459395D03*
X0581965Y0469395D03*
X0571965Y0469395D03*
X0591965Y0469395D03*
X0596965Y0459395D03*
X0326965Y0179100D03*
X0316965Y0179100D03*
X0306965Y0179100D03*
X0296965Y0179100D03*
X0286965Y0179100D03*
X0276965Y0179100D03*
D12*
X0301965Y0469395D03*
X0401965Y0469395D03*
X0501965Y0469395D03*
X0601965Y0469395D03*
D13*
X0606965Y0494395D03*
X0561965Y0494395D03*
X0506965Y0494395D03*
X0461965Y0494395D03*
X0406965Y0494395D03*
X0361965Y0494395D03*
X0306965Y0494395D03*
X0261965Y0494395D03*
D14*
X0516965Y0249100D03*
X0526965Y0249100D03*
X0526965Y0239100D03*
X0516965Y0239100D03*
D15*
X0616965Y0241000D02*
X0616965Y0246600D01*
X0626965Y0246600D02*
X0626965Y0241000D01*
X0636965Y0241000D02*
X0636965Y0246600D01*
X0646965Y0246600D02*
X0646965Y0241000D01*
X0646965Y0276600D02*
X0646965Y0282200D01*
X0636965Y0282200D02*
X0636965Y0276600D01*
X0626965Y0276600D02*
X0626965Y0282200D01*
X0616965Y0282200D02*
X0616965Y0276600D01*
D16*
X0721486Y0279080D02*
X0728586Y0279080D01*
X0728586Y0259395D02*
X0721486Y0259395D01*
X0721486Y0239710D02*
X0728586Y0239710D01*
X0728507Y0199553D02*
X0721407Y0199553D01*
X0721407Y0179868D02*
X0728507Y0179868D01*
X0728507Y0160183D02*
X0721407Y0160183D01*
X0721407Y0140498D02*
X0728507Y0140498D01*
X0152436Y0221303D02*
X0145336Y0221303D01*
X0145336Y0240988D02*
X0152436Y0240988D01*
X0152436Y0260673D02*
X0145336Y0260673D01*
X0145336Y0280358D02*
X0152436Y0280358D01*
X0152936Y0449710D02*
X0145836Y0449710D01*
X0145836Y0469395D02*
X0152936Y0469395D01*
X0152936Y0489080D02*
X0145836Y0489080D01*
D17*
X0371965Y0224800D02*
X0371965Y0218400D01*
X0381965Y0218400D02*
X0381965Y0224800D01*
X0391965Y0224800D02*
X0391965Y0218400D01*
X0436965Y0218400D02*
X0436965Y0224800D01*
X0446965Y0224800D02*
X0446965Y0218400D01*
X0456965Y0218400D02*
X0456965Y0224800D01*
D18*
X0446965Y0246600D03*
X0426965Y0246600D03*
X0381965Y0246600D03*
X0361965Y0246600D03*
D19*
X0396965Y0246600D03*
X0406965Y0246600D03*
X0461965Y0246600D03*
X0471965Y0246600D03*
D20*
X0418215Y0325975D03*
X0411340Y0342225D03*
X0408215Y0436600D03*
X0386965Y0436600D03*
X0355090Y0436600D03*
X0212590Y0373475D03*
D21*
X0261965Y0426600D03*
X0334465Y0459100D03*
M02*
