G75*
%MOIN*%
%OFA0B0*%
%FSLAX25Y25*%
%IPPOS*%
%LPD*%
%AMOC8*
5,1,8,0,0,1.08239X$1,22.5*
%
%ADD10C,0.01300*%
%ADD11C,0.02000*%
%ADD12C,0.00787*%
%ADD13C,0.00400*%
%ADD14C,0.00800*%
%ADD15C,0.01600*%
%ADD16C,0.00600*%
%ADD17C,0.01200*%
%ADD18C,0.00500*%
%ADD19C,0.02000*%
%ADD20R,0.07500X0.05000*%
%ADD21R,0.07000X0.03000*%
%ADD22R,0.03000X0.05000*%
D10*
X0263615Y0220000D02*
X0263617Y0220052D01*
X0263623Y0220104D01*
X0263633Y0220156D01*
X0263646Y0220206D01*
X0263663Y0220256D01*
X0263684Y0220304D01*
X0263709Y0220350D01*
X0263737Y0220394D01*
X0263768Y0220436D01*
X0263802Y0220476D01*
X0263839Y0220513D01*
X0263879Y0220547D01*
X0263921Y0220578D01*
X0263965Y0220606D01*
X0264011Y0220631D01*
X0264059Y0220652D01*
X0264109Y0220669D01*
X0264159Y0220682D01*
X0264211Y0220692D01*
X0264263Y0220698D01*
X0264315Y0220700D01*
X0264367Y0220698D01*
X0264419Y0220692D01*
X0264471Y0220682D01*
X0264521Y0220669D01*
X0264571Y0220652D01*
X0264619Y0220631D01*
X0264665Y0220606D01*
X0264709Y0220578D01*
X0264751Y0220547D01*
X0264791Y0220513D01*
X0264828Y0220476D01*
X0264862Y0220436D01*
X0264893Y0220394D01*
X0264921Y0220350D01*
X0264946Y0220304D01*
X0264967Y0220256D01*
X0264984Y0220206D01*
X0264997Y0220156D01*
X0265007Y0220104D01*
X0265013Y0220052D01*
X0265015Y0220000D01*
X0265013Y0219948D01*
X0265007Y0219896D01*
X0264997Y0219844D01*
X0264984Y0219794D01*
X0264967Y0219744D01*
X0264946Y0219696D01*
X0264921Y0219650D01*
X0264893Y0219606D01*
X0264862Y0219564D01*
X0264828Y0219524D01*
X0264791Y0219487D01*
X0264751Y0219453D01*
X0264709Y0219422D01*
X0264665Y0219394D01*
X0264619Y0219369D01*
X0264571Y0219348D01*
X0264521Y0219331D01*
X0264471Y0219318D01*
X0264419Y0219308D01*
X0264367Y0219302D01*
X0264315Y0219300D01*
X0264263Y0219302D01*
X0264211Y0219308D01*
X0264159Y0219318D01*
X0264109Y0219331D01*
X0264059Y0219348D01*
X0264011Y0219369D01*
X0263965Y0219394D01*
X0263921Y0219422D01*
X0263879Y0219453D01*
X0263839Y0219487D01*
X0263802Y0219524D01*
X0263768Y0219564D01*
X0263737Y0219606D01*
X0263709Y0219650D01*
X0263684Y0219696D01*
X0263663Y0219744D01*
X0263646Y0219794D01*
X0263633Y0219844D01*
X0263623Y0219896D01*
X0263617Y0219948D01*
X0263615Y0220000D01*
X0335965Y0220350D02*
X0335967Y0220402D01*
X0335973Y0220454D01*
X0335983Y0220506D01*
X0335996Y0220556D01*
X0336013Y0220606D01*
X0336034Y0220654D01*
X0336059Y0220700D01*
X0336087Y0220744D01*
X0336118Y0220786D01*
X0336152Y0220826D01*
X0336189Y0220863D01*
X0336229Y0220897D01*
X0336271Y0220928D01*
X0336315Y0220956D01*
X0336361Y0220981D01*
X0336409Y0221002D01*
X0336459Y0221019D01*
X0336509Y0221032D01*
X0336561Y0221042D01*
X0336613Y0221048D01*
X0336665Y0221050D01*
X0336717Y0221048D01*
X0336769Y0221042D01*
X0336821Y0221032D01*
X0336871Y0221019D01*
X0336921Y0221002D01*
X0336969Y0220981D01*
X0337015Y0220956D01*
X0337059Y0220928D01*
X0337101Y0220897D01*
X0337141Y0220863D01*
X0337178Y0220826D01*
X0337212Y0220786D01*
X0337243Y0220744D01*
X0337271Y0220700D01*
X0337296Y0220654D01*
X0337317Y0220606D01*
X0337334Y0220556D01*
X0337347Y0220506D01*
X0337357Y0220454D01*
X0337363Y0220402D01*
X0337365Y0220350D01*
X0337363Y0220298D01*
X0337357Y0220246D01*
X0337347Y0220194D01*
X0337334Y0220144D01*
X0337317Y0220094D01*
X0337296Y0220046D01*
X0337271Y0220000D01*
X0337243Y0219956D01*
X0337212Y0219914D01*
X0337178Y0219874D01*
X0337141Y0219837D01*
X0337101Y0219803D01*
X0337059Y0219772D01*
X0337015Y0219744D01*
X0336969Y0219719D01*
X0336921Y0219698D01*
X0336871Y0219681D01*
X0336821Y0219668D01*
X0336769Y0219658D01*
X0336717Y0219652D01*
X0336665Y0219650D01*
X0336613Y0219652D01*
X0336561Y0219658D01*
X0336509Y0219668D01*
X0336459Y0219681D01*
X0336409Y0219698D01*
X0336361Y0219719D01*
X0336315Y0219744D01*
X0336271Y0219772D01*
X0336229Y0219803D01*
X0336189Y0219837D01*
X0336152Y0219874D01*
X0336118Y0219914D01*
X0336087Y0219956D01*
X0336059Y0220000D01*
X0336034Y0220046D01*
X0336013Y0220094D01*
X0335996Y0220144D01*
X0335983Y0220194D01*
X0335973Y0220246D01*
X0335967Y0220298D01*
X0335965Y0220350D01*
X0402765Y0221100D02*
X0402767Y0221152D01*
X0402773Y0221204D01*
X0402783Y0221256D01*
X0402796Y0221306D01*
X0402813Y0221356D01*
X0402834Y0221404D01*
X0402859Y0221450D01*
X0402887Y0221494D01*
X0402918Y0221536D01*
X0402952Y0221576D01*
X0402989Y0221613D01*
X0403029Y0221647D01*
X0403071Y0221678D01*
X0403115Y0221706D01*
X0403161Y0221731D01*
X0403209Y0221752D01*
X0403259Y0221769D01*
X0403309Y0221782D01*
X0403361Y0221792D01*
X0403413Y0221798D01*
X0403465Y0221800D01*
X0403517Y0221798D01*
X0403569Y0221792D01*
X0403621Y0221782D01*
X0403671Y0221769D01*
X0403721Y0221752D01*
X0403769Y0221731D01*
X0403815Y0221706D01*
X0403859Y0221678D01*
X0403901Y0221647D01*
X0403941Y0221613D01*
X0403978Y0221576D01*
X0404012Y0221536D01*
X0404043Y0221494D01*
X0404071Y0221450D01*
X0404096Y0221404D01*
X0404117Y0221356D01*
X0404134Y0221306D01*
X0404147Y0221256D01*
X0404157Y0221204D01*
X0404163Y0221152D01*
X0404165Y0221100D01*
X0404163Y0221048D01*
X0404157Y0220996D01*
X0404147Y0220944D01*
X0404134Y0220894D01*
X0404117Y0220844D01*
X0404096Y0220796D01*
X0404071Y0220750D01*
X0404043Y0220706D01*
X0404012Y0220664D01*
X0403978Y0220624D01*
X0403941Y0220587D01*
X0403901Y0220553D01*
X0403859Y0220522D01*
X0403815Y0220494D01*
X0403769Y0220469D01*
X0403721Y0220448D01*
X0403671Y0220431D01*
X0403621Y0220418D01*
X0403569Y0220408D01*
X0403517Y0220402D01*
X0403465Y0220400D01*
X0403413Y0220402D01*
X0403361Y0220408D01*
X0403309Y0220418D01*
X0403259Y0220431D01*
X0403209Y0220448D01*
X0403161Y0220469D01*
X0403115Y0220494D01*
X0403071Y0220522D01*
X0403029Y0220553D01*
X0402989Y0220587D01*
X0402952Y0220624D01*
X0402918Y0220664D01*
X0402887Y0220706D01*
X0402859Y0220750D01*
X0402834Y0220796D01*
X0402813Y0220844D01*
X0402796Y0220894D01*
X0402783Y0220944D01*
X0402773Y0220996D01*
X0402767Y0221048D01*
X0402765Y0221100D01*
X0466015Y0221850D02*
X0466017Y0221902D01*
X0466023Y0221954D01*
X0466033Y0222006D01*
X0466046Y0222056D01*
X0466063Y0222106D01*
X0466084Y0222154D01*
X0466109Y0222200D01*
X0466137Y0222244D01*
X0466168Y0222286D01*
X0466202Y0222326D01*
X0466239Y0222363D01*
X0466279Y0222397D01*
X0466321Y0222428D01*
X0466365Y0222456D01*
X0466411Y0222481D01*
X0466459Y0222502D01*
X0466509Y0222519D01*
X0466559Y0222532D01*
X0466611Y0222542D01*
X0466663Y0222548D01*
X0466715Y0222550D01*
X0466767Y0222548D01*
X0466819Y0222542D01*
X0466871Y0222532D01*
X0466921Y0222519D01*
X0466971Y0222502D01*
X0467019Y0222481D01*
X0467065Y0222456D01*
X0467109Y0222428D01*
X0467151Y0222397D01*
X0467191Y0222363D01*
X0467228Y0222326D01*
X0467262Y0222286D01*
X0467293Y0222244D01*
X0467321Y0222200D01*
X0467346Y0222154D01*
X0467367Y0222106D01*
X0467384Y0222056D01*
X0467397Y0222006D01*
X0467407Y0221954D01*
X0467413Y0221902D01*
X0467415Y0221850D01*
X0467413Y0221798D01*
X0467407Y0221746D01*
X0467397Y0221694D01*
X0467384Y0221644D01*
X0467367Y0221594D01*
X0467346Y0221546D01*
X0467321Y0221500D01*
X0467293Y0221456D01*
X0467262Y0221414D01*
X0467228Y0221374D01*
X0467191Y0221337D01*
X0467151Y0221303D01*
X0467109Y0221272D01*
X0467065Y0221244D01*
X0467019Y0221219D01*
X0466971Y0221198D01*
X0466921Y0221181D01*
X0466871Y0221168D01*
X0466819Y0221158D01*
X0466767Y0221152D01*
X0466715Y0221150D01*
X0466663Y0221152D01*
X0466611Y0221158D01*
X0466559Y0221168D01*
X0466509Y0221181D01*
X0466459Y0221198D01*
X0466411Y0221219D01*
X0466365Y0221244D01*
X0466321Y0221272D01*
X0466279Y0221303D01*
X0466239Y0221337D01*
X0466202Y0221374D01*
X0466168Y0221414D01*
X0466137Y0221456D01*
X0466109Y0221500D01*
X0466084Y0221546D01*
X0466063Y0221594D01*
X0466046Y0221644D01*
X0466033Y0221694D01*
X0466023Y0221746D01*
X0466017Y0221798D01*
X0466015Y0221850D01*
D11*
X0650950Y0125970D02*
X0650952Y0126077D01*
X0650958Y0126183D01*
X0650968Y0126289D01*
X0650982Y0126395D01*
X0650999Y0126500D01*
X0651021Y0126604D01*
X0651047Y0126707D01*
X0651076Y0126810D01*
X0651109Y0126911D01*
X0651146Y0127011D01*
X0651186Y0127110D01*
X0651231Y0127207D01*
X0651278Y0127302D01*
X0651330Y0127395D01*
X0651384Y0127487D01*
X0651442Y0127576D01*
X0651504Y0127663D01*
X0651568Y0127748D01*
X0651636Y0127830D01*
X0651706Y0127910D01*
X0651780Y0127987D01*
X0651856Y0128061D01*
X0651936Y0128133D01*
X0652017Y0128201D01*
X0652101Y0128267D01*
X0652188Y0128329D01*
X0652277Y0128388D01*
X0652368Y0128443D01*
X0652461Y0128495D01*
X0652555Y0128544D01*
X0652652Y0128589D01*
X0652750Y0128630D01*
X0652850Y0128668D01*
X0652951Y0128702D01*
X0653053Y0128733D01*
X0653156Y0128759D01*
X0653260Y0128782D01*
X0653365Y0128800D01*
X0653471Y0128815D01*
X0653577Y0128826D01*
X0653683Y0128833D01*
X0653789Y0128836D01*
X0653896Y0128835D01*
X0654002Y0128830D01*
X0654109Y0128821D01*
X0654214Y0128808D01*
X0654320Y0128791D01*
X0654424Y0128771D01*
X0654528Y0128746D01*
X0654630Y0128718D01*
X0654732Y0128686D01*
X0654832Y0128650D01*
X0654931Y0128610D01*
X0655029Y0128567D01*
X0655124Y0128520D01*
X0655218Y0128470D01*
X0655310Y0128416D01*
X0655400Y0128359D01*
X0655488Y0128298D01*
X0655573Y0128234D01*
X0655656Y0128167D01*
X0655736Y0128097D01*
X0655814Y0128025D01*
X0655889Y0127949D01*
X0655961Y0127871D01*
X0656030Y0127789D01*
X0656096Y0127706D01*
X0656159Y0127620D01*
X0656219Y0127532D01*
X0656276Y0127441D01*
X0656329Y0127349D01*
X0656378Y0127254D01*
X0656424Y0127158D01*
X0656466Y0127061D01*
X0656505Y0126961D01*
X0656540Y0126861D01*
X0656571Y0126759D01*
X0656599Y0126656D01*
X0656622Y0126552D01*
X0656642Y0126447D01*
X0656658Y0126342D01*
X0656670Y0126236D01*
X0656678Y0126130D01*
X0656682Y0126023D01*
X0656682Y0125917D01*
X0656678Y0125810D01*
X0656670Y0125704D01*
X0656658Y0125598D01*
X0656642Y0125493D01*
X0656622Y0125388D01*
X0656599Y0125284D01*
X0656571Y0125181D01*
X0656540Y0125079D01*
X0656505Y0124979D01*
X0656466Y0124879D01*
X0656424Y0124782D01*
X0656378Y0124686D01*
X0656329Y0124591D01*
X0656276Y0124499D01*
X0656219Y0124408D01*
X0656159Y0124320D01*
X0656096Y0124234D01*
X0656030Y0124151D01*
X0655961Y0124069D01*
X0655889Y0123991D01*
X0655814Y0123915D01*
X0655736Y0123843D01*
X0655656Y0123773D01*
X0655573Y0123706D01*
X0655488Y0123642D01*
X0655400Y0123581D01*
X0655310Y0123524D01*
X0655218Y0123470D01*
X0655124Y0123420D01*
X0655029Y0123373D01*
X0654931Y0123330D01*
X0654832Y0123290D01*
X0654732Y0123254D01*
X0654630Y0123222D01*
X0654528Y0123194D01*
X0654424Y0123169D01*
X0654320Y0123149D01*
X0654214Y0123132D01*
X0654109Y0123119D01*
X0654002Y0123110D01*
X0653896Y0123105D01*
X0653789Y0123104D01*
X0653683Y0123107D01*
X0653577Y0123114D01*
X0653471Y0123125D01*
X0653365Y0123140D01*
X0653260Y0123158D01*
X0653156Y0123181D01*
X0653053Y0123207D01*
X0652951Y0123238D01*
X0652850Y0123272D01*
X0652750Y0123310D01*
X0652652Y0123351D01*
X0652555Y0123396D01*
X0652461Y0123445D01*
X0652368Y0123497D01*
X0652277Y0123552D01*
X0652188Y0123611D01*
X0652101Y0123673D01*
X0652017Y0123739D01*
X0651936Y0123807D01*
X0651856Y0123879D01*
X0651780Y0123953D01*
X0651706Y0124030D01*
X0651636Y0124110D01*
X0651568Y0124192D01*
X0651504Y0124277D01*
X0651442Y0124364D01*
X0651384Y0124453D01*
X0651330Y0124545D01*
X0651278Y0124638D01*
X0651231Y0124733D01*
X0651186Y0124830D01*
X0651146Y0124929D01*
X0651109Y0125029D01*
X0651076Y0125130D01*
X0651047Y0125233D01*
X0651021Y0125336D01*
X0650999Y0125440D01*
X0650982Y0125545D01*
X0650968Y0125651D01*
X0650958Y0125757D01*
X0650952Y0125863D01*
X0650950Y0125970D01*
X0650950Y0410616D02*
X0650952Y0410723D01*
X0650958Y0410829D01*
X0650968Y0410935D01*
X0650982Y0411041D01*
X0650999Y0411146D01*
X0651021Y0411250D01*
X0651047Y0411353D01*
X0651076Y0411456D01*
X0651109Y0411557D01*
X0651146Y0411657D01*
X0651186Y0411756D01*
X0651231Y0411853D01*
X0651278Y0411948D01*
X0651330Y0412041D01*
X0651384Y0412133D01*
X0651442Y0412222D01*
X0651504Y0412309D01*
X0651568Y0412394D01*
X0651636Y0412476D01*
X0651706Y0412556D01*
X0651780Y0412633D01*
X0651856Y0412707D01*
X0651936Y0412779D01*
X0652017Y0412847D01*
X0652101Y0412913D01*
X0652188Y0412975D01*
X0652277Y0413034D01*
X0652368Y0413089D01*
X0652461Y0413141D01*
X0652555Y0413190D01*
X0652652Y0413235D01*
X0652750Y0413276D01*
X0652850Y0413314D01*
X0652951Y0413348D01*
X0653053Y0413379D01*
X0653156Y0413405D01*
X0653260Y0413428D01*
X0653365Y0413446D01*
X0653471Y0413461D01*
X0653577Y0413472D01*
X0653683Y0413479D01*
X0653789Y0413482D01*
X0653896Y0413481D01*
X0654002Y0413476D01*
X0654109Y0413467D01*
X0654214Y0413454D01*
X0654320Y0413437D01*
X0654424Y0413417D01*
X0654528Y0413392D01*
X0654630Y0413364D01*
X0654732Y0413332D01*
X0654832Y0413296D01*
X0654931Y0413256D01*
X0655029Y0413213D01*
X0655124Y0413166D01*
X0655218Y0413116D01*
X0655310Y0413062D01*
X0655400Y0413005D01*
X0655488Y0412944D01*
X0655573Y0412880D01*
X0655656Y0412813D01*
X0655736Y0412743D01*
X0655814Y0412671D01*
X0655889Y0412595D01*
X0655961Y0412517D01*
X0656030Y0412435D01*
X0656096Y0412352D01*
X0656159Y0412266D01*
X0656219Y0412178D01*
X0656276Y0412087D01*
X0656329Y0411995D01*
X0656378Y0411900D01*
X0656424Y0411804D01*
X0656466Y0411707D01*
X0656505Y0411607D01*
X0656540Y0411507D01*
X0656571Y0411405D01*
X0656599Y0411302D01*
X0656622Y0411198D01*
X0656642Y0411093D01*
X0656658Y0410988D01*
X0656670Y0410882D01*
X0656678Y0410776D01*
X0656682Y0410669D01*
X0656682Y0410563D01*
X0656678Y0410456D01*
X0656670Y0410350D01*
X0656658Y0410244D01*
X0656642Y0410139D01*
X0656622Y0410034D01*
X0656599Y0409930D01*
X0656571Y0409827D01*
X0656540Y0409725D01*
X0656505Y0409625D01*
X0656466Y0409525D01*
X0656424Y0409428D01*
X0656378Y0409332D01*
X0656329Y0409237D01*
X0656276Y0409145D01*
X0656219Y0409054D01*
X0656159Y0408966D01*
X0656096Y0408880D01*
X0656030Y0408797D01*
X0655961Y0408715D01*
X0655889Y0408637D01*
X0655814Y0408561D01*
X0655736Y0408489D01*
X0655656Y0408419D01*
X0655573Y0408352D01*
X0655488Y0408288D01*
X0655400Y0408227D01*
X0655310Y0408170D01*
X0655218Y0408116D01*
X0655124Y0408066D01*
X0655029Y0408019D01*
X0654931Y0407976D01*
X0654832Y0407936D01*
X0654732Y0407900D01*
X0654630Y0407868D01*
X0654528Y0407840D01*
X0654424Y0407815D01*
X0654320Y0407795D01*
X0654214Y0407778D01*
X0654109Y0407765D01*
X0654002Y0407756D01*
X0653896Y0407751D01*
X0653789Y0407750D01*
X0653683Y0407753D01*
X0653577Y0407760D01*
X0653471Y0407771D01*
X0653365Y0407786D01*
X0653260Y0407804D01*
X0653156Y0407827D01*
X0653053Y0407853D01*
X0652951Y0407884D01*
X0652850Y0407918D01*
X0652750Y0407956D01*
X0652652Y0407997D01*
X0652555Y0408042D01*
X0652461Y0408091D01*
X0652368Y0408143D01*
X0652277Y0408198D01*
X0652188Y0408257D01*
X0652101Y0408319D01*
X0652017Y0408385D01*
X0651936Y0408453D01*
X0651856Y0408525D01*
X0651780Y0408599D01*
X0651706Y0408676D01*
X0651636Y0408756D01*
X0651568Y0408838D01*
X0651504Y0408923D01*
X0651442Y0409010D01*
X0651384Y0409099D01*
X0651330Y0409191D01*
X0651278Y0409284D01*
X0651231Y0409379D01*
X0651186Y0409476D01*
X0651146Y0409575D01*
X0651109Y0409675D01*
X0651076Y0409776D01*
X0651047Y0409879D01*
X0651021Y0409982D01*
X0650999Y0410086D01*
X0650982Y0410191D01*
X0650968Y0410297D01*
X0650958Y0410403D01*
X0650952Y0410509D01*
X0650950Y0410616D01*
X0602044Y0494400D02*
X0602046Y0494540D01*
X0602052Y0494680D01*
X0602062Y0494819D01*
X0602076Y0494958D01*
X0602094Y0495097D01*
X0602115Y0495235D01*
X0602141Y0495373D01*
X0602171Y0495510D01*
X0602204Y0495645D01*
X0602242Y0495780D01*
X0602283Y0495914D01*
X0602328Y0496047D01*
X0602376Y0496178D01*
X0602429Y0496307D01*
X0602485Y0496436D01*
X0602544Y0496562D01*
X0602608Y0496687D01*
X0602674Y0496810D01*
X0602745Y0496931D01*
X0602818Y0497050D01*
X0602895Y0497167D01*
X0602976Y0497281D01*
X0603059Y0497393D01*
X0603146Y0497503D01*
X0603236Y0497611D01*
X0603328Y0497715D01*
X0603424Y0497817D01*
X0603523Y0497917D01*
X0603624Y0498013D01*
X0603728Y0498107D01*
X0603835Y0498197D01*
X0603944Y0498284D01*
X0604056Y0498369D01*
X0604170Y0498450D01*
X0604286Y0498528D01*
X0604404Y0498602D01*
X0604525Y0498673D01*
X0604647Y0498741D01*
X0604772Y0498805D01*
X0604898Y0498866D01*
X0605025Y0498923D01*
X0605155Y0498976D01*
X0605286Y0499026D01*
X0605418Y0499071D01*
X0605551Y0499114D01*
X0605686Y0499152D01*
X0605821Y0499186D01*
X0605958Y0499217D01*
X0606095Y0499244D01*
X0606233Y0499266D01*
X0606372Y0499285D01*
X0606511Y0499300D01*
X0606650Y0499311D01*
X0606790Y0499318D01*
X0606930Y0499321D01*
X0607070Y0499320D01*
X0607210Y0499315D01*
X0607349Y0499306D01*
X0607489Y0499293D01*
X0607628Y0499276D01*
X0607766Y0499255D01*
X0607904Y0499231D01*
X0608041Y0499202D01*
X0608177Y0499170D01*
X0608312Y0499133D01*
X0608446Y0499093D01*
X0608579Y0499049D01*
X0608710Y0499001D01*
X0608840Y0498950D01*
X0608969Y0498895D01*
X0609096Y0498836D01*
X0609221Y0498773D01*
X0609344Y0498708D01*
X0609466Y0498638D01*
X0609585Y0498565D01*
X0609703Y0498489D01*
X0609818Y0498410D01*
X0609931Y0498327D01*
X0610041Y0498241D01*
X0610149Y0498152D01*
X0610254Y0498060D01*
X0610357Y0497965D01*
X0610457Y0497867D01*
X0610554Y0497767D01*
X0610648Y0497663D01*
X0610740Y0497557D01*
X0610828Y0497449D01*
X0610913Y0497338D01*
X0610995Y0497224D01*
X0611074Y0497108D01*
X0611149Y0496991D01*
X0611221Y0496871D01*
X0611289Y0496749D01*
X0611354Y0496625D01*
X0611416Y0496499D01*
X0611474Y0496372D01*
X0611528Y0496243D01*
X0611579Y0496112D01*
X0611625Y0495980D01*
X0611668Y0495847D01*
X0611708Y0495713D01*
X0611743Y0495578D01*
X0611775Y0495441D01*
X0611802Y0495304D01*
X0611826Y0495166D01*
X0611846Y0495028D01*
X0611862Y0494889D01*
X0611874Y0494749D01*
X0611882Y0494610D01*
X0611886Y0494470D01*
X0611886Y0494330D01*
X0611882Y0494190D01*
X0611874Y0494051D01*
X0611862Y0493911D01*
X0611846Y0493772D01*
X0611826Y0493634D01*
X0611802Y0493496D01*
X0611775Y0493359D01*
X0611743Y0493222D01*
X0611708Y0493087D01*
X0611668Y0492953D01*
X0611625Y0492820D01*
X0611579Y0492688D01*
X0611528Y0492557D01*
X0611474Y0492428D01*
X0611416Y0492301D01*
X0611354Y0492175D01*
X0611289Y0492051D01*
X0611221Y0491929D01*
X0611149Y0491809D01*
X0611074Y0491692D01*
X0610995Y0491576D01*
X0610913Y0491462D01*
X0610828Y0491351D01*
X0610740Y0491243D01*
X0610648Y0491137D01*
X0610554Y0491033D01*
X0610457Y0490933D01*
X0610357Y0490835D01*
X0610254Y0490740D01*
X0610149Y0490648D01*
X0610041Y0490559D01*
X0609931Y0490473D01*
X0609818Y0490390D01*
X0609703Y0490311D01*
X0609585Y0490235D01*
X0609466Y0490162D01*
X0609344Y0490092D01*
X0609221Y0490027D01*
X0609096Y0489964D01*
X0608969Y0489905D01*
X0608840Y0489850D01*
X0608710Y0489799D01*
X0608579Y0489751D01*
X0608446Y0489707D01*
X0608312Y0489667D01*
X0608177Y0489630D01*
X0608041Y0489598D01*
X0607904Y0489569D01*
X0607766Y0489545D01*
X0607628Y0489524D01*
X0607489Y0489507D01*
X0607349Y0489494D01*
X0607210Y0489485D01*
X0607070Y0489480D01*
X0606930Y0489479D01*
X0606790Y0489482D01*
X0606650Y0489489D01*
X0606511Y0489500D01*
X0606372Y0489515D01*
X0606233Y0489534D01*
X0606095Y0489556D01*
X0605958Y0489583D01*
X0605821Y0489614D01*
X0605686Y0489648D01*
X0605551Y0489686D01*
X0605418Y0489729D01*
X0605286Y0489774D01*
X0605155Y0489824D01*
X0605025Y0489877D01*
X0604898Y0489934D01*
X0604772Y0489995D01*
X0604647Y0490059D01*
X0604525Y0490127D01*
X0604404Y0490198D01*
X0604286Y0490272D01*
X0604170Y0490350D01*
X0604056Y0490431D01*
X0603944Y0490516D01*
X0603835Y0490603D01*
X0603728Y0490693D01*
X0603624Y0490787D01*
X0603523Y0490883D01*
X0603424Y0490983D01*
X0603328Y0491085D01*
X0603236Y0491189D01*
X0603146Y0491297D01*
X0603059Y0491407D01*
X0602976Y0491519D01*
X0602895Y0491633D01*
X0602818Y0491750D01*
X0602745Y0491869D01*
X0602674Y0491990D01*
X0602608Y0492113D01*
X0602544Y0492238D01*
X0602485Y0492364D01*
X0602429Y0492493D01*
X0602376Y0492622D01*
X0602328Y0492753D01*
X0602283Y0492886D01*
X0602242Y0493020D01*
X0602204Y0493155D01*
X0602171Y0493290D01*
X0602141Y0493427D01*
X0602115Y0493565D01*
X0602094Y0493703D01*
X0602076Y0493842D01*
X0602062Y0493981D01*
X0602052Y0494120D01*
X0602046Y0494260D01*
X0602044Y0494400D01*
X0557044Y0494400D02*
X0557046Y0494540D01*
X0557052Y0494680D01*
X0557062Y0494819D01*
X0557076Y0494958D01*
X0557094Y0495097D01*
X0557115Y0495235D01*
X0557141Y0495373D01*
X0557171Y0495510D01*
X0557204Y0495645D01*
X0557242Y0495780D01*
X0557283Y0495914D01*
X0557328Y0496047D01*
X0557376Y0496178D01*
X0557429Y0496307D01*
X0557485Y0496436D01*
X0557544Y0496562D01*
X0557608Y0496687D01*
X0557674Y0496810D01*
X0557745Y0496931D01*
X0557818Y0497050D01*
X0557895Y0497167D01*
X0557976Y0497281D01*
X0558059Y0497393D01*
X0558146Y0497503D01*
X0558236Y0497611D01*
X0558328Y0497715D01*
X0558424Y0497817D01*
X0558523Y0497917D01*
X0558624Y0498013D01*
X0558728Y0498107D01*
X0558835Y0498197D01*
X0558944Y0498284D01*
X0559056Y0498369D01*
X0559170Y0498450D01*
X0559286Y0498528D01*
X0559404Y0498602D01*
X0559525Y0498673D01*
X0559647Y0498741D01*
X0559772Y0498805D01*
X0559898Y0498866D01*
X0560025Y0498923D01*
X0560155Y0498976D01*
X0560286Y0499026D01*
X0560418Y0499071D01*
X0560551Y0499114D01*
X0560686Y0499152D01*
X0560821Y0499186D01*
X0560958Y0499217D01*
X0561095Y0499244D01*
X0561233Y0499266D01*
X0561372Y0499285D01*
X0561511Y0499300D01*
X0561650Y0499311D01*
X0561790Y0499318D01*
X0561930Y0499321D01*
X0562070Y0499320D01*
X0562210Y0499315D01*
X0562349Y0499306D01*
X0562489Y0499293D01*
X0562628Y0499276D01*
X0562766Y0499255D01*
X0562904Y0499231D01*
X0563041Y0499202D01*
X0563177Y0499170D01*
X0563312Y0499133D01*
X0563446Y0499093D01*
X0563579Y0499049D01*
X0563710Y0499001D01*
X0563840Y0498950D01*
X0563969Y0498895D01*
X0564096Y0498836D01*
X0564221Y0498773D01*
X0564344Y0498708D01*
X0564466Y0498638D01*
X0564585Y0498565D01*
X0564703Y0498489D01*
X0564818Y0498410D01*
X0564931Y0498327D01*
X0565041Y0498241D01*
X0565149Y0498152D01*
X0565254Y0498060D01*
X0565357Y0497965D01*
X0565457Y0497867D01*
X0565554Y0497767D01*
X0565648Y0497663D01*
X0565740Y0497557D01*
X0565828Y0497449D01*
X0565913Y0497338D01*
X0565995Y0497224D01*
X0566074Y0497108D01*
X0566149Y0496991D01*
X0566221Y0496871D01*
X0566289Y0496749D01*
X0566354Y0496625D01*
X0566416Y0496499D01*
X0566474Y0496372D01*
X0566528Y0496243D01*
X0566579Y0496112D01*
X0566625Y0495980D01*
X0566668Y0495847D01*
X0566708Y0495713D01*
X0566743Y0495578D01*
X0566775Y0495441D01*
X0566802Y0495304D01*
X0566826Y0495166D01*
X0566846Y0495028D01*
X0566862Y0494889D01*
X0566874Y0494749D01*
X0566882Y0494610D01*
X0566886Y0494470D01*
X0566886Y0494330D01*
X0566882Y0494190D01*
X0566874Y0494051D01*
X0566862Y0493911D01*
X0566846Y0493772D01*
X0566826Y0493634D01*
X0566802Y0493496D01*
X0566775Y0493359D01*
X0566743Y0493222D01*
X0566708Y0493087D01*
X0566668Y0492953D01*
X0566625Y0492820D01*
X0566579Y0492688D01*
X0566528Y0492557D01*
X0566474Y0492428D01*
X0566416Y0492301D01*
X0566354Y0492175D01*
X0566289Y0492051D01*
X0566221Y0491929D01*
X0566149Y0491809D01*
X0566074Y0491692D01*
X0565995Y0491576D01*
X0565913Y0491462D01*
X0565828Y0491351D01*
X0565740Y0491243D01*
X0565648Y0491137D01*
X0565554Y0491033D01*
X0565457Y0490933D01*
X0565357Y0490835D01*
X0565254Y0490740D01*
X0565149Y0490648D01*
X0565041Y0490559D01*
X0564931Y0490473D01*
X0564818Y0490390D01*
X0564703Y0490311D01*
X0564585Y0490235D01*
X0564466Y0490162D01*
X0564344Y0490092D01*
X0564221Y0490027D01*
X0564096Y0489964D01*
X0563969Y0489905D01*
X0563840Y0489850D01*
X0563710Y0489799D01*
X0563579Y0489751D01*
X0563446Y0489707D01*
X0563312Y0489667D01*
X0563177Y0489630D01*
X0563041Y0489598D01*
X0562904Y0489569D01*
X0562766Y0489545D01*
X0562628Y0489524D01*
X0562489Y0489507D01*
X0562349Y0489494D01*
X0562210Y0489485D01*
X0562070Y0489480D01*
X0561930Y0489479D01*
X0561790Y0489482D01*
X0561650Y0489489D01*
X0561511Y0489500D01*
X0561372Y0489515D01*
X0561233Y0489534D01*
X0561095Y0489556D01*
X0560958Y0489583D01*
X0560821Y0489614D01*
X0560686Y0489648D01*
X0560551Y0489686D01*
X0560418Y0489729D01*
X0560286Y0489774D01*
X0560155Y0489824D01*
X0560025Y0489877D01*
X0559898Y0489934D01*
X0559772Y0489995D01*
X0559647Y0490059D01*
X0559525Y0490127D01*
X0559404Y0490198D01*
X0559286Y0490272D01*
X0559170Y0490350D01*
X0559056Y0490431D01*
X0558944Y0490516D01*
X0558835Y0490603D01*
X0558728Y0490693D01*
X0558624Y0490787D01*
X0558523Y0490883D01*
X0558424Y0490983D01*
X0558328Y0491085D01*
X0558236Y0491189D01*
X0558146Y0491297D01*
X0558059Y0491407D01*
X0557976Y0491519D01*
X0557895Y0491633D01*
X0557818Y0491750D01*
X0557745Y0491869D01*
X0557674Y0491990D01*
X0557608Y0492113D01*
X0557544Y0492238D01*
X0557485Y0492364D01*
X0557429Y0492493D01*
X0557376Y0492622D01*
X0557328Y0492753D01*
X0557283Y0492886D01*
X0557242Y0493020D01*
X0557204Y0493155D01*
X0557171Y0493290D01*
X0557141Y0493427D01*
X0557115Y0493565D01*
X0557094Y0493703D01*
X0557076Y0493842D01*
X0557062Y0493981D01*
X0557052Y0494120D01*
X0557046Y0494260D01*
X0557044Y0494400D01*
X0502044Y0494400D02*
X0502046Y0494540D01*
X0502052Y0494680D01*
X0502062Y0494819D01*
X0502076Y0494958D01*
X0502094Y0495097D01*
X0502115Y0495235D01*
X0502141Y0495373D01*
X0502171Y0495510D01*
X0502204Y0495645D01*
X0502242Y0495780D01*
X0502283Y0495914D01*
X0502328Y0496047D01*
X0502376Y0496178D01*
X0502429Y0496307D01*
X0502485Y0496436D01*
X0502544Y0496562D01*
X0502608Y0496687D01*
X0502674Y0496810D01*
X0502745Y0496931D01*
X0502818Y0497050D01*
X0502895Y0497167D01*
X0502976Y0497281D01*
X0503059Y0497393D01*
X0503146Y0497503D01*
X0503236Y0497611D01*
X0503328Y0497715D01*
X0503424Y0497817D01*
X0503523Y0497917D01*
X0503624Y0498013D01*
X0503728Y0498107D01*
X0503835Y0498197D01*
X0503944Y0498284D01*
X0504056Y0498369D01*
X0504170Y0498450D01*
X0504286Y0498528D01*
X0504404Y0498602D01*
X0504525Y0498673D01*
X0504647Y0498741D01*
X0504772Y0498805D01*
X0504898Y0498866D01*
X0505025Y0498923D01*
X0505155Y0498976D01*
X0505286Y0499026D01*
X0505418Y0499071D01*
X0505551Y0499114D01*
X0505686Y0499152D01*
X0505821Y0499186D01*
X0505958Y0499217D01*
X0506095Y0499244D01*
X0506233Y0499266D01*
X0506372Y0499285D01*
X0506511Y0499300D01*
X0506650Y0499311D01*
X0506790Y0499318D01*
X0506930Y0499321D01*
X0507070Y0499320D01*
X0507210Y0499315D01*
X0507349Y0499306D01*
X0507489Y0499293D01*
X0507628Y0499276D01*
X0507766Y0499255D01*
X0507904Y0499231D01*
X0508041Y0499202D01*
X0508177Y0499170D01*
X0508312Y0499133D01*
X0508446Y0499093D01*
X0508579Y0499049D01*
X0508710Y0499001D01*
X0508840Y0498950D01*
X0508969Y0498895D01*
X0509096Y0498836D01*
X0509221Y0498773D01*
X0509344Y0498708D01*
X0509466Y0498638D01*
X0509585Y0498565D01*
X0509703Y0498489D01*
X0509818Y0498410D01*
X0509931Y0498327D01*
X0510041Y0498241D01*
X0510149Y0498152D01*
X0510254Y0498060D01*
X0510357Y0497965D01*
X0510457Y0497867D01*
X0510554Y0497767D01*
X0510648Y0497663D01*
X0510740Y0497557D01*
X0510828Y0497449D01*
X0510913Y0497338D01*
X0510995Y0497224D01*
X0511074Y0497108D01*
X0511149Y0496991D01*
X0511221Y0496871D01*
X0511289Y0496749D01*
X0511354Y0496625D01*
X0511416Y0496499D01*
X0511474Y0496372D01*
X0511528Y0496243D01*
X0511579Y0496112D01*
X0511625Y0495980D01*
X0511668Y0495847D01*
X0511708Y0495713D01*
X0511743Y0495578D01*
X0511775Y0495441D01*
X0511802Y0495304D01*
X0511826Y0495166D01*
X0511846Y0495028D01*
X0511862Y0494889D01*
X0511874Y0494749D01*
X0511882Y0494610D01*
X0511886Y0494470D01*
X0511886Y0494330D01*
X0511882Y0494190D01*
X0511874Y0494051D01*
X0511862Y0493911D01*
X0511846Y0493772D01*
X0511826Y0493634D01*
X0511802Y0493496D01*
X0511775Y0493359D01*
X0511743Y0493222D01*
X0511708Y0493087D01*
X0511668Y0492953D01*
X0511625Y0492820D01*
X0511579Y0492688D01*
X0511528Y0492557D01*
X0511474Y0492428D01*
X0511416Y0492301D01*
X0511354Y0492175D01*
X0511289Y0492051D01*
X0511221Y0491929D01*
X0511149Y0491809D01*
X0511074Y0491692D01*
X0510995Y0491576D01*
X0510913Y0491462D01*
X0510828Y0491351D01*
X0510740Y0491243D01*
X0510648Y0491137D01*
X0510554Y0491033D01*
X0510457Y0490933D01*
X0510357Y0490835D01*
X0510254Y0490740D01*
X0510149Y0490648D01*
X0510041Y0490559D01*
X0509931Y0490473D01*
X0509818Y0490390D01*
X0509703Y0490311D01*
X0509585Y0490235D01*
X0509466Y0490162D01*
X0509344Y0490092D01*
X0509221Y0490027D01*
X0509096Y0489964D01*
X0508969Y0489905D01*
X0508840Y0489850D01*
X0508710Y0489799D01*
X0508579Y0489751D01*
X0508446Y0489707D01*
X0508312Y0489667D01*
X0508177Y0489630D01*
X0508041Y0489598D01*
X0507904Y0489569D01*
X0507766Y0489545D01*
X0507628Y0489524D01*
X0507489Y0489507D01*
X0507349Y0489494D01*
X0507210Y0489485D01*
X0507070Y0489480D01*
X0506930Y0489479D01*
X0506790Y0489482D01*
X0506650Y0489489D01*
X0506511Y0489500D01*
X0506372Y0489515D01*
X0506233Y0489534D01*
X0506095Y0489556D01*
X0505958Y0489583D01*
X0505821Y0489614D01*
X0505686Y0489648D01*
X0505551Y0489686D01*
X0505418Y0489729D01*
X0505286Y0489774D01*
X0505155Y0489824D01*
X0505025Y0489877D01*
X0504898Y0489934D01*
X0504772Y0489995D01*
X0504647Y0490059D01*
X0504525Y0490127D01*
X0504404Y0490198D01*
X0504286Y0490272D01*
X0504170Y0490350D01*
X0504056Y0490431D01*
X0503944Y0490516D01*
X0503835Y0490603D01*
X0503728Y0490693D01*
X0503624Y0490787D01*
X0503523Y0490883D01*
X0503424Y0490983D01*
X0503328Y0491085D01*
X0503236Y0491189D01*
X0503146Y0491297D01*
X0503059Y0491407D01*
X0502976Y0491519D01*
X0502895Y0491633D01*
X0502818Y0491750D01*
X0502745Y0491869D01*
X0502674Y0491990D01*
X0502608Y0492113D01*
X0502544Y0492238D01*
X0502485Y0492364D01*
X0502429Y0492493D01*
X0502376Y0492622D01*
X0502328Y0492753D01*
X0502283Y0492886D01*
X0502242Y0493020D01*
X0502204Y0493155D01*
X0502171Y0493290D01*
X0502141Y0493427D01*
X0502115Y0493565D01*
X0502094Y0493703D01*
X0502076Y0493842D01*
X0502062Y0493981D01*
X0502052Y0494120D01*
X0502046Y0494260D01*
X0502044Y0494400D01*
X0457044Y0494400D02*
X0457046Y0494540D01*
X0457052Y0494680D01*
X0457062Y0494819D01*
X0457076Y0494958D01*
X0457094Y0495097D01*
X0457115Y0495235D01*
X0457141Y0495373D01*
X0457171Y0495510D01*
X0457204Y0495645D01*
X0457242Y0495780D01*
X0457283Y0495914D01*
X0457328Y0496047D01*
X0457376Y0496178D01*
X0457429Y0496307D01*
X0457485Y0496436D01*
X0457544Y0496562D01*
X0457608Y0496687D01*
X0457674Y0496810D01*
X0457745Y0496931D01*
X0457818Y0497050D01*
X0457895Y0497167D01*
X0457976Y0497281D01*
X0458059Y0497393D01*
X0458146Y0497503D01*
X0458236Y0497611D01*
X0458328Y0497715D01*
X0458424Y0497817D01*
X0458523Y0497917D01*
X0458624Y0498013D01*
X0458728Y0498107D01*
X0458835Y0498197D01*
X0458944Y0498284D01*
X0459056Y0498369D01*
X0459170Y0498450D01*
X0459286Y0498528D01*
X0459404Y0498602D01*
X0459525Y0498673D01*
X0459647Y0498741D01*
X0459772Y0498805D01*
X0459898Y0498866D01*
X0460025Y0498923D01*
X0460155Y0498976D01*
X0460286Y0499026D01*
X0460418Y0499071D01*
X0460551Y0499114D01*
X0460686Y0499152D01*
X0460821Y0499186D01*
X0460958Y0499217D01*
X0461095Y0499244D01*
X0461233Y0499266D01*
X0461372Y0499285D01*
X0461511Y0499300D01*
X0461650Y0499311D01*
X0461790Y0499318D01*
X0461930Y0499321D01*
X0462070Y0499320D01*
X0462210Y0499315D01*
X0462349Y0499306D01*
X0462489Y0499293D01*
X0462628Y0499276D01*
X0462766Y0499255D01*
X0462904Y0499231D01*
X0463041Y0499202D01*
X0463177Y0499170D01*
X0463312Y0499133D01*
X0463446Y0499093D01*
X0463579Y0499049D01*
X0463710Y0499001D01*
X0463840Y0498950D01*
X0463969Y0498895D01*
X0464096Y0498836D01*
X0464221Y0498773D01*
X0464344Y0498708D01*
X0464466Y0498638D01*
X0464585Y0498565D01*
X0464703Y0498489D01*
X0464818Y0498410D01*
X0464931Y0498327D01*
X0465041Y0498241D01*
X0465149Y0498152D01*
X0465254Y0498060D01*
X0465357Y0497965D01*
X0465457Y0497867D01*
X0465554Y0497767D01*
X0465648Y0497663D01*
X0465740Y0497557D01*
X0465828Y0497449D01*
X0465913Y0497338D01*
X0465995Y0497224D01*
X0466074Y0497108D01*
X0466149Y0496991D01*
X0466221Y0496871D01*
X0466289Y0496749D01*
X0466354Y0496625D01*
X0466416Y0496499D01*
X0466474Y0496372D01*
X0466528Y0496243D01*
X0466579Y0496112D01*
X0466625Y0495980D01*
X0466668Y0495847D01*
X0466708Y0495713D01*
X0466743Y0495578D01*
X0466775Y0495441D01*
X0466802Y0495304D01*
X0466826Y0495166D01*
X0466846Y0495028D01*
X0466862Y0494889D01*
X0466874Y0494749D01*
X0466882Y0494610D01*
X0466886Y0494470D01*
X0466886Y0494330D01*
X0466882Y0494190D01*
X0466874Y0494051D01*
X0466862Y0493911D01*
X0466846Y0493772D01*
X0466826Y0493634D01*
X0466802Y0493496D01*
X0466775Y0493359D01*
X0466743Y0493222D01*
X0466708Y0493087D01*
X0466668Y0492953D01*
X0466625Y0492820D01*
X0466579Y0492688D01*
X0466528Y0492557D01*
X0466474Y0492428D01*
X0466416Y0492301D01*
X0466354Y0492175D01*
X0466289Y0492051D01*
X0466221Y0491929D01*
X0466149Y0491809D01*
X0466074Y0491692D01*
X0465995Y0491576D01*
X0465913Y0491462D01*
X0465828Y0491351D01*
X0465740Y0491243D01*
X0465648Y0491137D01*
X0465554Y0491033D01*
X0465457Y0490933D01*
X0465357Y0490835D01*
X0465254Y0490740D01*
X0465149Y0490648D01*
X0465041Y0490559D01*
X0464931Y0490473D01*
X0464818Y0490390D01*
X0464703Y0490311D01*
X0464585Y0490235D01*
X0464466Y0490162D01*
X0464344Y0490092D01*
X0464221Y0490027D01*
X0464096Y0489964D01*
X0463969Y0489905D01*
X0463840Y0489850D01*
X0463710Y0489799D01*
X0463579Y0489751D01*
X0463446Y0489707D01*
X0463312Y0489667D01*
X0463177Y0489630D01*
X0463041Y0489598D01*
X0462904Y0489569D01*
X0462766Y0489545D01*
X0462628Y0489524D01*
X0462489Y0489507D01*
X0462349Y0489494D01*
X0462210Y0489485D01*
X0462070Y0489480D01*
X0461930Y0489479D01*
X0461790Y0489482D01*
X0461650Y0489489D01*
X0461511Y0489500D01*
X0461372Y0489515D01*
X0461233Y0489534D01*
X0461095Y0489556D01*
X0460958Y0489583D01*
X0460821Y0489614D01*
X0460686Y0489648D01*
X0460551Y0489686D01*
X0460418Y0489729D01*
X0460286Y0489774D01*
X0460155Y0489824D01*
X0460025Y0489877D01*
X0459898Y0489934D01*
X0459772Y0489995D01*
X0459647Y0490059D01*
X0459525Y0490127D01*
X0459404Y0490198D01*
X0459286Y0490272D01*
X0459170Y0490350D01*
X0459056Y0490431D01*
X0458944Y0490516D01*
X0458835Y0490603D01*
X0458728Y0490693D01*
X0458624Y0490787D01*
X0458523Y0490883D01*
X0458424Y0490983D01*
X0458328Y0491085D01*
X0458236Y0491189D01*
X0458146Y0491297D01*
X0458059Y0491407D01*
X0457976Y0491519D01*
X0457895Y0491633D01*
X0457818Y0491750D01*
X0457745Y0491869D01*
X0457674Y0491990D01*
X0457608Y0492113D01*
X0457544Y0492238D01*
X0457485Y0492364D01*
X0457429Y0492493D01*
X0457376Y0492622D01*
X0457328Y0492753D01*
X0457283Y0492886D01*
X0457242Y0493020D01*
X0457204Y0493155D01*
X0457171Y0493290D01*
X0457141Y0493427D01*
X0457115Y0493565D01*
X0457094Y0493703D01*
X0457076Y0493842D01*
X0457062Y0493981D01*
X0457052Y0494120D01*
X0457046Y0494260D01*
X0457044Y0494400D01*
X0402044Y0494400D02*
X0402046Y0494540D01*
X0402052Y0494680D01*
X0402062Y0494819D01*
X0402076Y0494958D01*
X0402094Y0495097D01*
X0402115Y0495235D01*
X0402141Y0495373D01*
X0402171Y0495510D01*
X0402204Y0495645D01*
X0402242Y0495780D01*
X0402283Y0495914D01*
X0402328Y0496047D01*
X0402376Y0496178D01*
X0402429Y0496307D01*
X0402485Y0496436D01*
X0402544Y0496562D01*
X0402608Y0496687D01*
X0402674Y0496810D01*
X0402745Y0496931D01*
X0402818Y0497050D01*
X0402895Y0497167D01*
X0402976Y0497281D01*
X0403059Y0497393D01*
X0403146Y0497503D01*
X0403236Y0497611D01*
X0403328Y0497715D01*
X0403424Y0497817D01*
X0403523Y0497917D01*
X0403624Y0498013D01*
X0403728Y0498107D01*
X0403835Y0498197D01*
X0403944Y0498284D01*
X0404056Y0498369D01*
X0404170Y0498450D01*
X0404286Y0498528D01*
X0404404Y0498602D01*
X0404525Y0498673D01*
X0404647Y0498741D01*
X0404772Y0498805D01*
X0404898Y0498866D01*
X0405025Y0498923D01*
X0405155Y0498976D01*
X0405286Y0499026D01*
X0405418Y0499071D01*
X0405551Y0499114D01*
X0405686Y0499152D01*
X0405821Y0499186D01*
X0405958Y0499217D01*
X0406095Y0499244D01*
X0406233Y0499266D01*
X0406372Y0499285D01*
X0406511Y0499300D01*
X0406650Y0499311D01*
X0406790Y0499318D01*
X0406930Y0499321D01*
X0407070Y0499320D01*
X0407210Y0499315D01*
X0407349Y0499306D01*
X0407489Y0499293D01*
X0407628Y0499276D01*
X0407766Y0499255D01*
X0407904Y0499231D01*
X0408041Y0499202D01*
X0408177Y0499170D01*
X0408312Y0499133D01*
X0408446Y0499093D01*
X0408579Y0499049D01*
X0408710Y0499001D01*
X0408840Y0498950D01*
X0408969Y0498895D01*
X0409096Y0498836D01*
X0409221Y0498773D01*
X0409344Y0498708D01*
X0409466Y0498638D01*
X0409585Y0498565D01*
X0409703Y0498489D01*
X0409818Y0498410D01*
X0409931Y0498327D01*
X0410041Y0498241D01*
X0410149Y0498152D01*
X0410254Y0498060D01*
X0410357Y0497965D01*
X0410457Y0497867D01*
X0410554Y0497767D01*
X0410648Y0497663D01*
X0410740Y0497557D01*
X0410828Y0497449D01*
X0410913Y0497338D01*
X0410995Y0497224D01*
X0411074Y0497108D01*
X0411149Y0496991D01*
X0411221Y0496871D01*
X0411289Y0496749D01*
X0411354Y0496625D01*
X0411416Y0496499D01*
X0411474Y0496372D01*
X0411528Y0496243D01*
X0411579Y0496112D01*
X0411625Y0495980D01*
X0411668Y0495847D01*
X0411708Y0495713D01*
X0411743Y0495578D01*
X0411775Y0495441D01*
X0411802Y0495304D01*
X0411826Y0495166D01*
X0411846Y0495028D01*
X0411862Y0494889D01*
X0411874Y0494749D01*
X0411882Y0494610D01*
X0411886Y0494470D01*
X0411886Y0494330D01*
X0411882Y0494190D01*
X0411874Y0494051D01*
X0411862Y0493911D01*
X0411846Y0493772D01*
X0411826Y0493634D01*
X0411802Y0493496D01*
X0411775Y0493359D01*
X0411743Y0493222D01*
X0411708Y0493087D01*
X0411668Y0492953D01*
X0411625Y0492820D01*
X0411579Y0492688D01*
X0411528Y0492557D01*
X0411474Y0492428D01*
X0411416Y0492301D01*
X0411354Y0492175D01*
X0411289Y0492051D01*
X0411221Y0491929D01*
X0411149Y0491809D01*
X0411074Y0491692D01*
X0410995Y0491576D01*
X0410913Y0491462D01*
X0410828Y0491351D01*
X0410740Y0491243D01*
X0410648Y0491137D01*
X0410554Y0491033D01*
X0410457Y0490933D01*
X0410357Y0490835D01*
X0410254Y0490740D01*
X0410149Y0490648D01*
X0410041Y0490559D01*
X0409931Y0490473D01*
X0409818Y0490390D01*
X0409703Y0490311D01*
X0409585Y0490235D01*
X0409466Y0490162D01*
X0409344Y0490092D01*
X0409221Y0490027D01*
X0409096Y0489964D01*
X0408969Y0489905D01*
X0408840Y0489850D01*
X0408710Y0489799D01*
X0408579Y0489751D01*
X0408446Y0489707D01*
X0408312Y0489667D01*
X0408177Y0489630D01*
X0408041Y0489598D01*
X0407904Y0489569D01*
X0407766Y0489545D01*
X0407628Y0489524D01*
X0407489Y0489507D01*
X0407349Y0489494D01*
X0407210Y0489485D01*
X0407070Y0489480D01*
X0406930Y0489479D01*
X0406790Y0489482D01*
X0406650Y0489489D01*
X0406511Y0489500D01*
X0406372Y0489515D01*
X0406233Y0489534D01*
X0406095Y0489556D01*
X0405958Y0489583D01*
X0405821Y0489614D01*
X0405686Y0489648D01*
X0405551Y0489686D01*
X0405418Y0489729D01*
X0405286Y0489774D01*
X0405155Y0489824D01*
X0405025Y0489877D01*
X0404898Y0489934D01*
X0404772Y0489995D01*
X0404647Y0490059D01*
X0404525Y0490127D01*
X0404404Y0490198D01*
X0404286Y0490272D01*
X0404170Y0490350D01*
X0404056Y0490431D01*
X0403944Y0490516D01*
X0403835Y0490603D01*
X0403728Y0490693D01*
X0403624Y0490787D01*
X0403523Y0490883D01*
X0403424Y0490983D01*
X0403328Y0491085D01*
X0403236Y0491189D01*
X0403146Y0491297D01*
X0403059Y0491407D01*
X0402976Y0491519D01*
X0402895Y0491633D01*
X0402818Y0491750D01*
X0402745Y0491869D01*
X0402674Y0491990D01*
X0402608Y0492113D01*
X0402544Y0492238D01*
X0402485Y0492364D01*
X0402429Y0492493D01*
X0402376Y0492622D01*
X0402328Y0492753D01*
X0402283Y0492886D01*
X0402242Y0493020D01*
X0402204Y0493155D01*
X0402171Y0493290D01*
X0402141Y0493427D01*
X0402115Y0493565D01*
X0402094Y0493703D01*
X0402076Y0493842D01*
X0402062Y0493981D01*
X0402052Y0494120D01*
X0402046Y0494260D01*
X0402044Y0494400D01*
X0357044Y0494400D02*
X0357046Y0494540D01*
X0357052Y0494680D01*
X0357062Y0494819D01*
X0357076Y0494958D01*
X0357094Y0495097D01*
X0357115Y0495235D01*
X0357141Y0495373D01*
X0357171Y0495510D01*
X0357204Y0495645D01*
X0357242Y0495780D01*
X0357283Y0495914D01*
X0357328Y0496047D01*
X0357376Y0496178D01*
X0357429Y0496307D01*
X0357485Y0496436D01*
X0357544Y0496562D01*
X0357608Y0496687D01*
X0357674Y0496810D01*
X0357745Y0496931D01*
X0357818Y0497050D01*
X0357895Y0497167D01*
X0357976Y0497281D01*
X0358059Y0497393D01*
X0358146Y0497503D01*
X0358236Y0497611D01*
X0358328Y0497715D01*
X0358424Y0497817D01*
X0358523Y0497917D01*
X0358624Y0498013D01*
X0358728Y0498107D01*
X0358835Y0498197D01*
X0358944Y0498284D01*
X0359056Y0498369D01*
X0359170Y0498450D01*
X0359286Y0498528D01*
X0359404Y0498602D01*
X0359525Y0498673D01*
X0359647Y0498741D01*
X0359772Y0498805D01*
X0359898Y0498866D01*
X0360025Y0498923D01*
X0360155Y0498976D01*
X0360286Y0499026D01*
X0360418Y0499071D01*
X0360551Y0499114D01*
X0360686Y0499152D01*
X0360821Y0499186D01*
X0360958Y0499217D01*
X0361095Y0499244D01*
X0361233Y0499266D01*
X0361372Y0499285D01*
X0361511Y0499300D01*
X0361650Y0499311D01*
X0361790Y0499318D01*
X0361930Y0499321D01*
X0362070Y0499320D01*
X0362210Y0499315D01*
X0362349Y0499306D01*
X0362489Y0499293D01*
X0362628Y0499276D01*
X0362766Y0499255D01*
X0362904Y0499231D01*
X0363041Y0499202D01*
X0363177Y0499170D01*
X0363312Y0499133D01*
X0363446Y0499093D01*
X0363579Y0499049D01*
X0363710Y0499001D01*
X0363840Y0498950D01*
X0363969Y0498895D01*
X0364096Y0498836D01*
X0364221Y0498773D01*
X0364344Y0498708D01*
X0364466Y0498638D01*
X0364585Y0498565D01*
X0364703Y0498489D01*
X0364818Y0498410D01*
X0364931Y0498327D01*
X0365041Y0498241D01*
X0365149Y0498152D01*
X0365254Y0498060D01*
X0365357Y0497965D01*
X0365457Y0497867D01*
X0365554Y0497767D01*
X0365648Y0497663D01*
X0365740Y0497557D01*
X0365828Y0497449D01*
X0365913Y0497338D01*
X0365995Y0497224D01*
X0366074Y0497108D01*
X0366149Y0496991D01*
X0366221Y0496871D01*
X0366289Y0496749D01*
X0366354Y0496625D01*
X0366416Y0496499D01*
X0366474Y0496372D01*
X0366528Y0496243D01*
X0366579Y0496112D01*
X0366625Y0495980D01*
X0366668Y0495847D01*
X0366708Y0495713D01*
X0366743Y0495578D01*
X0366775Y0495441D01*
X0366802Y0495304D01*
X0366826Y0495166D01*
X0366846Y0495028D01*
X0366862Y0494889D01*
X0366874Y0494749D01*
X0366882Y0494610D01*
X0366886Y0494470D01*
X0366886Y0494330D01*
X0366882Y0494190D01*
X0366874Y0494051D01*
X0366862Y0493911D01*
X0366846Y0493772D01*
X0366826Y0493634D01*
X0366802Y0493496D01*
X0366775Y0493359D01*
X0366743Y0493222D01*
X0366708Y0493087D01*
X0366668Y0492953D01*
X0366625Y0492820D01*
X0366579Y0492688D01*
X0366528Y0492557D01*
X0366474Y0492428D01*
X0366416Y0492301D01*
X0366354Y0492175D01*
X0366289Y0492051D01*
X0366221Y0491929D01*
X0366149Y0491809D01*
X0366074Y0491692D01*
X0365995Y0491576D01*
X0365913Y0491462D01*
X0365828Y0491351D01*
X0365740Y0491243D01*
X0365648Y0491137D01*
X0365554Y0491033D01*
X0365457Y0490933D01*
X0365357Y0490835D01*
X0365254Y0490740D01*
X0365149Y0490648D01*
X0365041Y0490559D01*
X0364931Y0490473D01*
X0364818Y0490390D01*
X0364703Y0490311D01*
X0364585Y0490235D01*
X0364466Y0490162D01*
X0364344Y0490092D01*
X0364221Y0490027D01*
X0364096Y0489964D01*
X0363969Y0489905D01*
X0363840Y0489850D01*
X0363710Y0489799D01*
X0363579Y0489751D01*
X0363446Y0489707D01*
X0363312Y0489667D01*
X0363177Y0489630D01*
X0363041Y0489598D01*
X0362904Y0489569D01*
X0362766Y0489545D01*
X0362628Y0489524D01*
X0362489Y0489507D01*
X0362349Y0489494D01*
X0362210Y0489485D01*
X0362070Y0489480D01*
X0361930Y0489479D01*
X0361790Y0489482D01*
X0361650Y0489489D01*
X0361511Y0489500D01*
X0361372Y0489515D01*
X0361233Y0489534D01*
X0361095Y0489556D01*
X0360958Y0489583D01*
X0360821Y0489614D01*
X0360686Y0489648D01*
X0360551Y0489686D01*
X0360418Y0489729D01*
X0360286Y0489774D01*
X0360155Y0489824D01*
X0360025Y0489877D01*
X0359898Y0489934D01*
X0359772Y0489995D01*
X0359647Y0490059D01*
X0359525Y0490127D01*
X0359404Y0490198D01*
X0359286Y0490272D01*
X0359170Y0490350D01*
X0359056Y0490431D01*
X0358944Y0490516D01*
X0358835Y0490603D01*
X0358728Y0490693D01*
X0358624Y0490787D01*
X0358523Y0490883D01*
X0358424Y0490983D01*
X0358328Y0491085D01*
X0358236Y0491189D01*
X0358146Y0491297D01*
X0358059Y0491407D01*
X0357976Y0491519D01*
X0357895Y0491633D01*
X0357818Y0491750D01*
X0357745Y0491869D01*
X0357674Y0491990D01*
X0357608Y0492113D01*
X0357544Y0492238D01*
X0357485Y0492364D01*
X0357429Y0492493D01*
X0357376Y0492622D01*
X0357328Y0492753D01*
X0357283Y0492886D01*
X0357242Y0493020D01*
X0357204Y0493155D01*
X0357171Y0493290D01*
X0357141Y0493427D01*
X0357115Y0493565D01*
X0357094Y0493703D01*
X0357076Y0493842D01*
X0357062Y0493981D01*
X0357052Y0494120D01*
X0357046Y0494260D01*
X0357044Y0494400D01*
X0302044Y0494400D02*
X0302046Y0494540D01*
X0302052Y0494680D01*
X0302062Y0494819D01*
X0302076Y0494958D01*
X0302094Y0495097D01*
X0302115Y0495235D01*
X0302141Y0495373D01*
X0302171Y0495510D01*
X0302204Y0495645D01*
X0302242Y0495780D01*
X0302283Y0495914D01*
X0302328Y0496047D01*
X0302376Y0496178D01*
X0302429Y0496307D01*
X0302485Y0496436D01*
X0302544Y0496562D01*
X0302608Y0496687D01*
X0302674Y0496810D01*
X0302745Y0496931D01*
X0302818Y0497050D01*
X0302895Y0497167D01*
X0302976Y0497281D01*
X0303059Y0497393D01*
X0303146Y0497503D01*
X0303236Y0497611D01*
X0303328Y0497715D01*
X0303424Y0497817D01*
X0303523Y0497917D01*
X0303624Y0498013D01*
X0303728Y0498107D01*
X0303835Y0498197D01*
X0303944Y0498284D01*
X0304056Y0498369D01*
X0304170Y0498450D01*
X0304286Y0498528D01*
X0304404Y0498602D01*
X0304525Y0498673D01*
X0304647Y0498741D01*
X0304772Y0498805D01*
X0304898Y0498866D01*
X0305025Y0498923D01*
X0305155Y0498976D01*
X0305286Y0499026D01*
X0305418Y0499071D01*
X0305551Y0499114D01*
X0305686Y0499152D01*
X0305821Y0499186D01*
X0305958Y0499217D01*
X0306095Y0499244D01*
X0306233Y0499266D01*
X0306372Y0499285D01*
X0306511Y0499300D01*
X0306650Y0499311D01*
X0306790Y0499318D01*
X0306930Y0499321D01*
X0307070Y0499320D01*
X0307210Y0499315D01*
X0307349Y0499306D01*
X0307489Y0499293D01*
X0307628Y0499276D01*
X0307766Y0499255D01*
X0307904Y0499231D01*
X0308041Y0499202D01*
X0308177Y0499170D01*
X0308312Y0499133D01*
X0308446Y0499093D01*
X0308579Y0499049D01*
X0308710Y0499001D01*
X0308840Y0498950D01*
X0308969Y0498895D01*
X0309096Y0498836D01*
X0309221Y0498773D01*
X0309344Y0498708D01*
X0309466Y0498638D01*
X0309585Y0498565D01*
X0309703Y0498489D01*
X0309818Y0498410D01*
X0309931Y0498327D01*
X0310041Y0498241D01*
X0310149Y0498152D01*
X0310254Y0498060D01*
X0310357Y0497965D01*
X0310457Y0497867D01*
X0310554Y0497767D01*
X0310648Y0497663D01*
X0310740Y0497557D01*
X0310828Y0497449D01*
X0310913Y0497338D01*
X0310995Y0497224D01*
X0311074Y0497108D01*
X0311149Y0496991D01*
X0311221Y0496871D01*
X0311289Y0496749D01*
X0311354Y0496625D01*
X0311416Y0496499D01*
X0311474Y0496372D01*
X0311528Y0496243D01*
X0311579Y0496112D01*
X0311625Y0495980D01*
X0311668Y0495847D01*
X0311708Y0495713D01*
X0311743Y0495578D01*
X0311775Y0495441D01*
X0311802Y0495304D01*
X0311826Y0495166D01*
X0311846Y0495028D01*
X0311862Y0494889D01*
X0311874Y0494749D01*
X0311882Y0494610D01*
X0311886Y0494470D01*
X0311886Y0494330D01*
X0311882Y0494190D01*
X0311874Y0494051D01*
X0311862Y0493911D01*
X0311846Y0493772D01*
X0311826Y0493634D01*
X0311802Y0493496D01*
X0311775Y0493359D01*
X0311743Y0493222D01*
X0311708Y0493087D01*
X0311668Y0492953D01*
X0311625Y0492820D01*
X0311579Y0492688D01*
X0311528Y0492557D01*
X0311474Y0492428D01*
X0311416Y0492301D01*
X0311354Y0492175D01*
X0311289Y0492051D01*
X0311221Y0491929D01*
X0311149Y0491809D01*
X0311074Y0491692D01*
X0310995Y0491576D01*
X0310913Y0491462D01*
X0310828Y0491351D01*
X0310740Y0491243D01*
X0310648Y0491137D01*
X0310554Y0491033D01*
X0310457Y0490933D01*
X0310357Y0490835D01*
X0310254Y0490740D01*
X0310149Y0490648D01*
X0310041Y0490559D01*
X0309931Y0490473D01*
X0309818Y0490390D01*
X0309703Y0490311D01*
X0309585Y0490235D01*
X0309466Y0490162D01*
X0309344Y0490092D01*
X0309221Y0490027D01*
X0309096Y0489964D01*
X0308969Y0489905D01*
X0308840Y0489850D01*
X0308710Y0489799D01*
X0308579Y0489751D01*
X0308446Y0489707D01*
X0308312Y0489667D01*
X0308177Y0489630D01*
X0308041Y0489598D01*
X0307904Y0489569D01*
X0307766Y0489545D01*
X0307628Y0489524D01*
X0307489Y0489507D01*
X0307349Y0489494D01*
X0307210Y0489485D01*
X0307070Y0489480D01*
X0306930Y0489479D01*
X0306790Y0489482D01*
X0306650Y0489489D01*
X0306511Y0489500D01*
X0306372Y0489515D01*
X0306233Y0489534D01*
X0306095Y0489556D01*
X0305958Y0489583D01*
X0305821Y0489614D01*
X0305686Y0489648D01*
X0305551Y0489686D01*
X0305418Y0489729D01*
X0305286Y0489774D01*
X0305155Y0489824D01*
X0305025Y0489877D01*
X0304898Y0489934D01*
X0304772Y0489995D01*
X0304647Y0490059D01*
X0304525Y0490127D01*
X0304404Y0490198D01*
X0304286Y0490272D01*
X0304170Y0490350D01*
X0304056Y0490431D01*
X0303944Y0490516D01*
X0303835Y0490603D01*
X0303728Y0490693D01*
X0303624Y0490787D01*
X0303523Y0490883D01*
X0303424Y0490983D01*
X0303328Y0491085D01*
X0303236Y0491189D01*
X0303146Y0491297D01*
X0303059Y0491407D01*
X0302976Y0491519D01*
X0302895Y0491633D01*
X0302818Y0491750D01*
X0302745Y0491869D01*
X0302674Y0491990D01*
X0302608Y0492113D01*
X0302544Y0492238D01*
X0302485Y0492364D01*
X0302429Y0492493D01*
X0302376Y0492622D01*
X0302328Y0492753D01*
X0302283Y0492886D01*
X0302242Y0493020D01*
X0302204Y0493155D01*
X0302171Y0493290D01*
X0302141Y0493427D01*
X0302115Y0493565D01*
X0302094Y0493703D01*
X0302076Y0493842D01*
X0302062Y0493981D01*
X0302052Y0494120D01*
X0302046Y0494260D01*
X0302044Y0494400D01*
X0257044Y0494400D02*
X0257046Y0494540D01*
X0257052Y0494680D01*
X0257062Y0494819D01*
X0257076Y0494958D01*
X0257094Y0495097D01*
X0257115Y0495235D01*
X0257141Y0495373D01*
X0257171Y0495510D01*
X0257204Y0495645D01*
X0257242Y0495780D01*
X0257283Y0495914D01*
X0257328Y0496047D01*
X0257376Y0496178D01*
X0257429Y0496307D01*
X0257485Y0496436D01*
X0257544Y0496562D01*
X0257608Y0496687D01*
X0257674Y0496810D01*
X0257745Y0496931D01*
X0257818Y0497050D01*
X0257895Y0497167D01*
X0257976Y0497281D01*
X0258059Y0497393D01*
X0258146Y0497503D01*
X0258236Y0497611D01*
X0258328Y0497715D01*
X0258424Y0497817D01*
X0258523Y0497917D01*
X0258624Y0498013D01*
X0258728Y0498107D01*
X0258835Y0498197D01*
X0258944Y0498284D01*
X0259056Y0498369D01*
X0259170Y0498450D01*
X0259286Y0498528D01*
X0259404Y0498602D01*
X0259525Y0498673D01*
X0259647Y0498741D01*
X0259772Y0498805D01*
X0259898Y0498866D01*
X0260025Y0498923D01*
X0260155Y0498976D01*
X0260286Y0499026D01*
X0260418Y0499071D01*
X0260551Y0499114D01*
X0260686Y0499152D01*
X0260821Y0499186D01*
X0260958Y0499217D01*
X0261095Y0499244D01*
X0261233Y0499266D01*
X0261372Y0499285D01*
X0261511Y0499300D01*
X0261650Y0499311D01*
X0261790Y0499318D01*
X0261930Y0499321D01*
X0262070Y0499320D01*
X0262210Y0499315D01*
X0262349Y0499306D01*
X0262489Y0499293D01*
X0262628Y0499276D01*
X0262766Y0499255D01*
X0262904Y0499231D01*
X0263041Y0499202D01*
X0263177Y0499170D01*
X0263312Y0499133D01*
X0263446Y0499093D01*
X0263579Y0499049D01*
X0263710Y0499001D01*
X0263840Y0498950D01*
X0263969Y0498895D01*
X0264096Y0498836D01*
X0264221Y0498773D01*
X0264344Y0498708D01*
X0264466Y0498638D01*
X0264585Y0498565D01*
X0264703Y0498489D01*
X0264818Y0498410D01*
X0264931Y0498327D01*
X0265041Y0498241D01*
X0265149Y0498152D01*
X0265254Y0498060D01*
X0265357Y0497965D01*
X0265457Y0497867D01*
X0265554Y0497767D01*
X0265648Y0497663D01*
X0265740Y0497557D01*
X0265828Y0497449D01*
X0265913Y0497338D01*
X0265995Y0497224D01*
X0266074Y0497108D01*
X0266149Y0496991D01*
X0266221Y0496871D01*
X0266289Y0496749D01*
X0266354Y0496625D01*
X0266416Y0496499D01*
X0266474Y0496372D01*
X0266528Y0496243D01*
X0266579Y0496112D01*
X0266625Y0495980D01*
X0266668Y0495847D01*
X0266708Y0495713D01*
X0266743Y0495578D01*
X0266775Y0495441D01*
X0266802Y0495304D01*
X0266826Y0495166D01*
X0266846Y0495028D01*
X0266862Y0494889D01*
X0266874Y0494749D01*
X0266882Y0494610D01*
X0266886Y0494470D01*
X0266886Y0494330D01*
X0266882Y0494190D01*
X0266874Y0494051D01*
X0266862Y0493911D01*
X0266846Y0493772D01*
X0266826Y0493634D01*
X0266802Y0493496D01*
X0266775Y0493359D01*
X0266743Y0493222D01*
X0266708Y0493087D01*
X0266668Y0492953D01*
X0266625Y0492820D01*
X0266579Y0492688D01*
X0266528Y0492557D01*
X0266474Y0492428D01*
X0266416Y0492301D01*
X0266354Y0492175D01*
X0266289Y0492051D01*
X0266221Y0491929D01*
X0266149Y0491809D01*
X0266074Y0491692D01*
X0265995Y0491576D01*
X0265913Y0491462D01*
X0265828Y0491351D01*
X0265740Y0491243D01*
X0265648Y0491137D01*
X0265554Y0491033D01*
X0265457Y0490933D01*
X0265357Y0490835D01*
X0265254Y0490740D01*
X0265149Y0490648D01*
X0265041Y0490559D01*
X0264931Y0490473D01*
X0264818Y0490390D01*
X0264703Y0490311D01*
X0264585Y0490235D01*
X0264466Y0490162D01*
X0264344Y0490092D01*
X0264221Y0490027D01*
X0264096Y0489964D01*
X0263969Y0489905D01*
X0263840Y0489850D01*
X0263710Y0489799D01*
X0263579Y0489751D01*
X0263446Y0489707D01*
X0263312Y0489667D01*
X0263177Y0489630D01*
X0263041Y0489598D01*
X0262904Y0489569D01*
X0262766Y0489545D01*
X0262628Y0489524D01*
X0262489Y0489507D01*
X0262349Y0489494D01*
X0262210Y0489485D01*
X0262070Y0489480D01*
X0261930Y0489479D01*
X0261790Y0489482D01*
X0261650Y0489489D01*
X0261511Y0489500D01*
X0261372Y0489515D01*
X0261233Y0489534D01*
X0261095Y0489556D01*
X0260958Y0489583D01*
X0260821Y0489614D01*
X0260686Y0489648D01*
X0260551Y0489686D01*
X0260418Y0489729D01*
X0260286Y0489774D01*
X0260155Y0489824D01*
X0260025Y0489877D01*
X0259898Y0489934D01*
X0259772Y0489995D01*
X0259647Y0490059D01*
X0259525Y0490127D01*
X0259404Y0490198D01*
X0259286Y0490272D01*
X0259170Y0490350D01*
X0259056Y0490431D01*
X0258944Y0490516D01*
X0258835Y0490603D01*
X0258728Y0490693D01*
X0258624Y0490787D01*
X0258523Y0490883D01*
X0258424Y0490983D01*
X0258328Y0491085D01*
X0258236Y0491189D01*
X0258146Y0491297D01*
X0258059Y0491407D01*
X0257976Y0491519D01*
X0257895Y0491633D01*
X0257818Y0491750D01*
X0257745Y0491869D01*
X0257674Y0491990D01*
X0257608Y0492113D01*
X0257544Y0492238D01*
X0257485Y0492364D01*
X0257429Y0492493D01*
X0257376Y0492622D01*
X0257328Y0492753D01*
X0257283Y0492886D01*
X0257242Y0493020D01*
X0257204Y0493155D01*
X0257171Y0493290D01*
X0257141Y0493427D01*
X0257115Y0493565D01*
X0257094Y0493703D01*
X0257076Y0493842D01*
X0257062Y0493981D01*
X0257052Y0494120D01*
X0257046Y0494260D01*
X0257044Y0494400D01*
X0174178Y0410616D02*
X0174180Y0410723D01*
X0174186Y0410829D01*
X0174196Y0410935D01*
X0174210Y0411041D01*
X0174227Y0411146D01*
X0174249Y0411250D01*
X0174275Y0411353D01*
X0174304Y0411456D01*
X0174337Y0411557D01*
X0174374Y0411657D01*
X0174414Y0411756D01*
X0174459Y0411853D01*
X0174506Y0411948D01*
X0174558Y0412041D01*
X0174612Y0412133D01*
X0174670Y0412222D01*
X0174732Y0412309D01*
X0174796Y0412394D01*
X0174864Y0412476D01*
X0174934Y0412556D01*
X0175008Y0412633D01*
X0175084Y0412707D01*
X0175164Y0412779D01*
X0175245Y0412847D01*
X0175329Y0412913D01*
X0175416Y0412975D01*
X0175505Y0413034D01*
X0175596Y0413089D01*
X0175689Y0413141D01*
X0175783Y0413190D01*
X0175880Y0413235D01*
X0175978Y0413276D01*
X0176078Y0413314D01*
X0176179Y0413348D01*
X0176281Y0413379D01*
X0176384Y0413405D01*
X0176488Y0413428D01*
X0176593Y0413446D01*
X0176699Y0413461D01*
X0176805Y0413472D01*
X0176911Y0413479D01*
X0177017Y0413482D01*
X0177124Y0413481D01*
X0177230Y0413476D01*
X0177337Y0413467D01*
X0177442Y0413454D01*
X0177548Y0413437D01*
X0177652Y0413417D01*
X0177756Y0413392D01*
X0177858Y0413364D01*
X0177960Y0413332D01*
X0178060Y0413296D01*
X0178159Y0413256D01*
X0178257Y0413213D01*
X0178352Y0413166D01*
X0178446Y0413116D01*
X0178538Y0413062D01*
X0178628Y0413005D01*
X0178716Y0412944D01*
X0178801Y0412880D01*
X0178884Y0412813D01*
X0178964Y0412743D01*
X0179042Y0412671D01*
X0179117Y0412595D01*
X0179189Y0412517D01*
X0179258Y0412435D01*
X0179324Y0412352D01*
X0179387Y0412266D01*
X0179447Y0412178D01*
X0179504Y0412087D01*
X0179557Y0411995D01*
X0179606Y0411900D01*
X0179652Y0411804D01*
X0179694Y0411707D01*
X0179733Y0411607D01*
X0179768Y0411507D01*
X0179799Y0411405D01*
X0179827Y0411302D01*
X0179850Y0411198D01*
X0179870Y0411093D01*
X0179886Y0410988D01*
X0179898Y0410882D01*
X0179906Y0410776D01*
X0179910Y0410669D01*
X0179910Y0410563D01*
X0179906Y0410456D01*
X0179898Y0410350D01*
X0179886Y0410244D01*
X0179870Y0410139D01*
X0179850Y0410034D01*
X0179827Y0409930D01*
X0179799Y0409827D01*
X0179768Y0409725D01*
X0179733Y0409625D01*
X0179694Y0409525D01*
X0179652Y0409428D01*
X0179606Y0409332D01*
X0179557Y0409237D01*
X0179504Y0409145D01*
X0179447Y0409054D01*
X0179387Y0408966D01*
X0179324Y0408880D01*
X0179258Y0408797D01*
X0179189Y0408715D01*
X0179117Y0408637D01*
X0179042Y0408561D01*
X0178964Y0408489D01*
X0178884Y0408419D01*
X0178801Y0408352D01*
X0178716Y0408288D01*
X0178628Y0408227D01*
X0178538Y0408170D01*
X0178446Y0408116D01*
X0178352Y0408066D01*
X0178257Y0408019D01*
X0178159Y0407976D01*
X0178060Y0407936D01*
X0177960Y0407900D01*
X0177858Y0407868D01*
X0177756Y0407840D01*
X0177652Y0407815D01*
X0177548Y0407795D01*
X0177442Y0407778D01*
X0177337Y0407765D01*
X0177230Y0407756D01*
X0177124Y0407751D01*
X0177017Y0407750D01*
X0176911Y0407753D01*
X0176805Y0407760D01*
X0176699Y0407771D01*
X0176593Y0407786D01*
X0176488Y0407804D01*
X0176384Y0407827D01*
X0176281Y0407853D01*
X0176179Y0407884D01*
X0176078Y0407918D01*
X0175978Y0407956D01*
X0175880Y0407997D01*
X0175783Y0408042D01*
X0175689Y0408091D01*
X0175596Y0408143D01*
X0175505Y0408198D01*
X0175416Y0408257D01*
X0175329Y0408319D01*
X0175245Y0408385D01*
X0175164Y0408453D01*
X0175084Y0408525D01*
X0175008Y0408599D01*
X0174934Y0408676D01*
X0174864Y0408756D01*
X0174796Y0408838D01*
X0174732Y0408923D01*
X0174670Y0409010D01*
X0174612Y0409099D01*
X0174558Y0409191D01*
X0174506Y0409284D01*
X0174459Y0409379D01*
X0174414Y0409476D01*
X0174374Y0409575D01*
X0174337Y0409675D01*
X0174304Y0409776D01*
X0174275Y0409879D01*
X0174249Y0409982D01*
X0174227Y0410086D01*
X0174210Y0410191D01*
X0174196Y0410297D01*
X0174186Y0410403D01*
X0174180Y0410509D01*
X0174178Y0410616D01*
X0174178Y0125970D02*
X0174180Y0126077D01*
X0174186Y0126183D01*
X0174196Y0126289D01*
X0174210Y0126395D01*
X0174227Y0126500D01*
X0174249Y0126604D01*
X0174275Y0126707D01*
X0174304Y0126810D01*
X0174337Y0126911D01*
X0174374Y0127011D01*
X0174414Y0127110D01*
X0174459Y0127207D01*
X0174506Y0127302D01*
X0174558Y0127395D01*
X0174612Y0127487D01*
X0174670Y0127576D01*
X0174732Y0127663D01*
X0174796Y0127748D01*
X0174864Y0127830D01*
X0174934Y0127910D01*
X0175008Y0127987D01*
X0175084Y0128061D01*
X0175164Y0128133D01*
X0175245Y0128201D01*
X0175329Y0128267D01*
X0175416Y0128329D01*
X0175505Y0128388D01*
X0175596Y0128443D01*
X0175689Y0128495D01*
X0175783Y0128544D01*
X0175880Y0128589D01*
X0175978Y0128630D01*
X0176078Y0128668D01*
X0176179Y0128702D01*
X0176281Y0128733D01*
X0176384Y0128759D01*
X0176488Y0128782D01*
X0176593Y0128800D01*
X0176699Y0128815D01*
X0176805Y0128826D01*
X0176911Y0128833D01*
X0177017Y0128836D01*
X0177124Y0128835D01*
X0177230Y0128830D01*
X0177337Y0128821D01*
X0177442Y0128808D01*
X0177548Y0128791D01*
X0177652Y0128771D01*
X0177756Y0128746D01*
X0177858Y0128718D01*
X0177960Y0128686D01*
X0178060Y0128650D01*
X0178159Y0128610D01*
X0178257Y0128567D01*
X0178352Y0128520D01*
X0178446Y0128470D01*
X0178538Y0128416D01*
X0178628Y0128359D01*
X0178716Y0128298D01*
X0178801Y0128234D01*
X0178884Y0128167D01*
X0178964Y0128097D01*
X0179042Y0128025D01*
X0179117Y0127949D01*
X0179189Y0127871D01*
X0179258Y0127789D01*
X0179324Y0127706D01*
X0179387Y0127620D01*
X0179447Y0127532D01*
X0179504Y0127441D01*
X0179557Y0127349D01*
X0179606Y0127254D01*
X0179652Y0127158D01*
X0179694Y0127061D01*
X0179733Y0126961D01*
X0179768Y0126861D01*
X0179799Y0126759D01*
X0179827Y0126656D01*
X0179850Y0126552D01*
X0179870Y0126447D01*
X0179886Y0126342D01*
X0179898Y0126236D01*
X0179906Y0126130D01*
X0179910Y0126023D01*
X0179910Y0125917D01*
X0179906Y0125810D01*
X0179898Y0125704D01*
X0179886Y0125598D01*
X0179870Y0125493D01*
X0179850Y0125388D01*
X0179827Y0125284D01*
X0179799Y0125181D01*
X0179768Y0125079D01*
X0179733Y0124979D01*
X0179694Y0124879D01*
X0179652Y0124782D01*
X0179606Y0124686D01*
X0179557Y0124591D01*
X0179504Y0124499D01*
X0179447Y0124408D01*
X0179387Y0124320D01*
X0179324Y0124234D01*
X0179258Y0124151D01*
X0179189Y0124069D01*
X0179117Y0123991D01*
X0179042Y0123915D01*
X0178964Y0123843D01*
X0178884Y0123773D01*
X0178801Y0123706D01*
X0178716Y0123642D01*
X0178628Y0123581D01*
X0178538Y0123524D01*
X0178446Y0123470D01*
X0178352Y0123420D01*
X0178257Y0123373D01*
X0178159Y0123330D01*
X0178060Y0123290D01*
X0177960Y0123254D01*
X0177858Y0123222D01*
X0177756Y0123194D01*
X0177652Y0123169D01*
X0177548Y0123149D01*
X0177442Y0123132D01*
X0177337Y0123119D01*
X0177230Y0123110D01*
X0177124Y0123105D01*
X0177017Y0123104D01*
X0176911Y0123107D01*
X0176805Y0123114D01*
X0176699Y0123125D01*
X0176593Y0123140D01*
X0176488Y0123158D01*
X0176384Y0123181D01*
X0176281Y0123207D01*
X0176179Y0123238D01*
X0176078Y0123272D01*
X0175978Y0123310D01*
X0175880Y0123351D01*
X0175783Y0123396D01*
X0175689Y0123445D01*
X0175596Y0123497D01*
X0175505Y0123552D01*
X0175416Y0123611D01*
X0175329Y0123673D01*
X0175245Y0123739D01*
X0175164Y0123807D01*
X0175084Y0123879D01*
X0175008Y0123953D01*
X0174934Y0124030D01*
X0174864Y0124110D01*
X0174796Y0124192D01*
X0174732Y0124277D01*
X0174670Y0124364D01*
X0174612Y0124453D01*
X0174558Y0124545D01*
X0174506Y0124638D01*
X0174459Y0124733D01*
X0174414Y0124830D01*
X0174374Y0124929D01*
X0174337Y0125029D01*
X0174304Y0125130D01*
X0174275Y0125233D01*
X0174249Y0125336D01*
X0174227Y0125440D01*
X0174210Y0125545D01*
X0174196Y0125651D01*
X0174186Y0125757D01*
X0174180Y0125863D01*
X0174178Y0125970D01*
D12*
X0177044Y0129907D02*
X0177044Y0122033D01*
X0173107Y0125970D02*
X0180981Y0125970D01*
X0177044Y0406679D02*
X0177044Y0414553D01*
X0173107Y0410616D02*
X0180981Y0410616D01*
X0262016Y0489079D02*
X0262016Y0499453D01*
X0257279Y0494616D02*
X0267053Y0494616D01*
X0302279Y0494616D02*
X0312053Y0494616D01*
X0307016Y0499453D02*
X0307016Y0489079D01*
X0357279Y0494616D02*
X0367053Y0494616D01*
X0362016Y0499453D02*
X0362016Y0489079D01*
X0402279Y0494616D02*
X0412053Y0494616D01*
X0407016Y0499453D02*
X0407016Y0489079D01*
X0457279Y0494616D02*
X0467053Y0494616D01*
X0462016Y0499453D02*
X0462016Y0489079D01*
X0502279Y0494616D02*
X0512053Y0494616D01*
X0507016Y0499453D02*
X0507016Y0489079D01*
X0557279Y0494616D02*
X0567053Y0494616D01*
X0562016Y0499453D02*
X0562016Y0489079D01*
X0602279Y0494616D02*
X0612053Y0494616D01*
X0607016Y0499453D02*
X0607016Y0489079D01*
X0653816Y0414553D02*
X0653816Y0406679D01*
X0649879Y0410616D02*
X0657753Y0410616D01*
X0653816Y0129907D02*
X0653816Y0122033D01*
X0649879Y0125970D02*
X0657753Y0125970D01*
D13*
X0545165Y0484896D02*
X0542096Y0489500D01*
X0542096Y0484896D01*
X0540561Y0484896D02*
X0540561Y0488733D01*
X0539794Y0489500D01*
X0538259Y0489500D01*
X0537492Y0488733D01*
X0537492Y0484896D01*
X0535957Y0484896D02*
X0535957Y0489500D01*
X0532888Y0489500D01*
X0531353Y0489500D02*
X0528284Y0489500D01*
X0531353Y0489500D02*
X0531353Y0484896D01*
X0545165Y0484896D02*
X0545165Y0489500D01*
X0444265Y0491400D02*
X0444265Y0486796D01*
X0441196Y0491400D01*
X0441196Y0486796D01*
X0439661Y0486796D02*
X0439661Y0490633D01*
X0438894Y0491400D01*
X0437359Y0491400D01*
X0436592Y0490633D01*
X0436592Y0486796D01*
X0435057Y0486796D02*
X0435057Y0491400D01*
X0431988Y0491400D01*
X0430453Y0491400D02*
X0427384Y0491400D01*
X0430453Y0491400D02*
X0430453Y0486796D01*
X0347965Y0486096D02*
X0347965Y0490700D01*
X0344896Y0490700D01*
X0343361Y0490700D02*
X0341827Y0490700D01*
X0342594Y0490700D02*
X0342594Y0486096D01*
X0343361Y0486096D02*
X0341827Y0486096D01*
X0340292Y0486863D02*
X0340292Y0489933D01*
X0339525Y0490700D01*
X0337990Y0490700D01*
X0337223Y0489933D01*
X0337223Y0488398D01*
X0338757Y0488398D01*
X0337223Y0486863D02*
X0337990Y0486096D01*
X0339525Y0486096D01*
X0340292Y0486863D01*
X0335688Y0486096D02*
X0335688Y0490700D01*
X0335688Y0488398D02*
X0332619Y0488398D01*
X0332619Y0486096D02*
X0332619Y0490700D01*
X0329550Y0490700D02*
X0329550Y0486096D01*
X0331084Y0486096D02*
X0328015Y0486096D01*
X0326480Y0486863D02*
X0326480Y0487631D01*
X0325713Y0488398D01*
X0324178Y0488398D01*
X0323411Y0489165D01*
X0323411Y0489933D01*
X0324178Y0490700D01*
X0325713Y0490700D01*
X0326480Y0489933D01*
X0326480Y0486863D02*
X0325713Y0486096D01*
X0324178Y0486096D01*
X0323411Y0486863D01*
X0239265Y0486796D02*
X0236963Y0486796D01*
X0236196Y0487563D01*
X0236196Y0489098D01*
X0236963Y0489865D01*
X0239265Y0489865D01*
X0239265Y0491400D02*
X0239265Y0486796D01*
X0234661Y0486796D02*
X0234661Y0491400D01*
X0231592Y0491400D01*
X0230057Y0491400D02*
X0230057Y0486796D01*
X0226988Y0491400D01*
X0226988Y0486796D01*
X0225453Y0486796D02*
X0223151Y0486796D01*
X0222384Y0487563D01*
X0222384Y0490633D01*
X0223151Y0491400D01*
X0225453Y0491400D01*
X0225453Y0486796D01*
X0220850Y0486796D02*
X0220850Y0490633D01*
X0220082Y0491400D01*
X0218548Y0491400D01*
X0217780Y0490633D01*
X0217780Y0486796D01*
X0216246Y0486796D02*
X0216246Y0491400D01*
X0213176Y0491400D01*
X0211642Y0490633D02*
X0210874Y0491400D01*
X0209340Y0491400D01*
X0208572Y0490633D01*
X0208572Y0486796D01*
X0207038Y0486796D02*
X0205503Y0488331D01*
X0203968Y0486796D01*
X0203968Y0491400D01*
X0207038Y0491400D02*
X0207038Y0486796D01*
X0211642Y0486796D02*
X0211642Y0490633D01*
X0231592Y0486796D02*
X0234661Y0486796D01*
X0234661Y0489098D02*
X0233127Y0489098D01*
D14*
X0254465Y0506206D02*
X0254465Y0455025D01*
X0314465Y0455025D01*
X0314465Y0506206D01*
X0254465Y0506206D01*
X0192465Y0464395D02*
X0192465Y0444395D01*
X0189465Y0444395D01*
X0189465Y0443395D01*
X0189465Y0444395D02*
X0186465Y0444395D01*
X0186465Y0464395D01*
X0189465Y0464395D01*
X0189465Y0465395D01*
X0189465Y0464395D02*
X0192465Y0464395D01*
X0195615Y0452679D02*
X0197750Y0450544D01*
X0198284Y0450544D01*
X0198818Y0451078D01*
X0198818Y0452146D01*
X0198284Y0452679D01*
X0195615Y0452679D02*
X0195615Y0450544D01*
X0195615Y0448996D02*
X0197750Y0446861D01*
X0198284Y0446861D01*
X0198818Y0447395D01*
X0198818Y0448463D01*
X0198284Y0448996D01*
X0195615Y0448996D02*
X0195615Y0446861D01*
X0196149Y0445313D02*
X0195615Y0444779D01*
X0195615Y0443712D01*
X0196149Y0443178D01*
X0198284Y0443178D01*
X0196149Y0445313D01*
X0198284Y0445313D01*
X0198818Y0444779D01*
X0198818Y0443712D01*
X0198284Y0443178D01*
X0238465Y0374100D02*
X0235965Y0371600D01*
X0235965Y0366600D01*
X0238465Y0364100D01*
X0243465Y0364100D01*
X0245965Y0366600D01*
X0248465Y0364100D01*
X0253465Y0364100D01*
X0255965Y0366600D01*
X0258465Y0364100D01*
X0263465Y0364100D01*
X0265965Y0366600D01*
X0268465Y0364100D01*
X0273465Y0364100D01*
X0275965Y0366600D01*
X0278465Y0364100D01*
X0283465Y0364100D01*
X0285965Y0366600D01*
X0288465Y0364100D01*
X0293465Y0364100D01*
X0295965Y0366600D01*
X0298465Y0364100D01*
X0303465Y0364100D01*
X0305965Y0366600D01*
X0308465Y0364100D01*
X0313465Y0364100D01*
X0315965Y0366600D01*
X0315965Y0371600D01*
X0313465Y0374100D01*
X0308465Y0374100D01*
X0305965Y0371600D01*
X0303465Y0374100D01*
X0298465Y0374100D01*
X0295965Y0371600D01*
X0293465Y0374100D01*
X0288465Y0374100D01*
X0285965Y0371600D01*
X0283465Y0374100D01*
X0278465Y0374100D01*
X0275965Y0371600D01*
X0273465Y0374100D01*
X0268465Y0374100D01*
X0265965Y0371600D01*
X0263465Y0374100D01*
X0258465Y0374100D01*
X0255965Y0371600D01*
X0253465Y0374100D01*
X0248465Y0374100D01*
X0245965Y0371600D01*
X0243465Y0374100D01*
X0238465Y0374100D01*
X0321965Y0371600D02*
X0321965Y0366600D01*
X0324465Y0364100D01*
X0329465Y0364100D01*
X0331965Y0366600D01*
X0334465Y0364100D01*
X0339465Y0364100D01*
X0341965Y0366600D01*
X0344465Y0364100D01*
X0349465Y0364100D01*
X0351965Y0366600D01*
X0354465Y0364100D01*
X0359465Y0364100D01*
X0361965Y0366600D01*
X0364465Y0364100D01*
X0369465Y0364100D01*
X0371965Y0366600D01*
X0374465Y0364100D01*
X0379465Y0364100D01*
X0381965Y0366600D01*
X0384465Y0364100D01*
X0389465Y0364100D01*
X0391965Y0366600D01*
X0394465Y0364100D01*
X0399465Y0364100D01*
X0401965Y0366600D01*
X0401965Y0371600D01*
X0399465Y0374100D01*
X0394465Y0374100D01*
X0391965Y0371600D01*
X0389465Y0374100D01*
X0384465Y0374100D01*
X0381965Y0371600D01*
X0379465Y0374100D01*
X0374465Y0374100D01*
X0371965Y0371600D01*
X0369465Y0374100D01*
X0364465Y0374100D01*
X0361965Y0371600D01*
X0359465Y0374100D01*
X0354465Y0374100D01*
X0351965Y0371600D01*
X0349465Y0374100D01*
X0344465Y0374100D01*
X0341965Y0371600D01*
X0339465Y0374100D01*
X0334465Y0374100D01*
X0331965Y0371600D01*
X0329465Y0374100D01*
X0324465Y0374100D01*
X0321965Y0371600D01*
X0400965Y0356895D02*
X0401965Y0356895D01*
X0401965Y0359895D01*
X0421965Y0359895D01*
X0421965Y0356895D01*
X0422965Y0356895D01*
X0421965Y0356895D02*
X0421965Y0353895D01*
X0401965Y0353895D01*
X0401965Y0356895D01*
X0407374Y0351998D02*
X0406841Y0351464D01*
X0407374Y0351998D02*
X0408442Y0351998D01*
X0408976Y0351464D01*
X0408976Y0350930D01*
X0406841Y0348795D01*
X0408976Y0348795D01*
X0410524Y0348795D02*
X0412659Y0350930D01*
X0412659Y0351464D01*
X0412125Y0351998D01*
X0411057Y0351998D01*
X0410524Y0351464D01*
X0410524Y0348795D02*
X0412659Y0348795D01*
X0414207Y0349329D02*
X0416342Y0351464D01*
X0416342Y0349329D01*
X0415808Y0348795D01*
X0414741Y0348795D01*
X0414207Y0349329D01*
X0414207Y0351464D01*
X0414741Y0351998D01*
X0415808Y0351998D01*
X0416342Y0351464D01*
X0414465Y0364100D02*
X0419465Y0364100D01*
X0421965Y0366600D01*
X0424465Y0364100D01*
X0429465Y0364100D01*
X0431965Y0366600D01*
X0434465Y0364100D01*
X0439465Y0364100D01*
X0441965Y0366600D01*
X0444465Y0364100D01*
X0449465Y0364100D01*
X0451965Y0366600D01*
X0454465Y0364100D01*
X0459465Y0364100D01*
X0461965Y0366600D01*
X0464465Y0364100D01*
X0469465Y0364100D01*
X0471965Y0366600D01*
X0474465Y0364100D01*
X0479465Y0364100D01*
X0481965Y0366600D01*
X0484465Y0364100D01*
X0489465Y0364100D01*
X0491965Y0366600D01*
X0491965Y0371600D01*
X0489465Y0374100D01*
X0484465Y0374100D01*
X0481965Y0371600D01*
X0479465Y0374100D01*
X0474465Y0374100D01*
X0471965Y0371600D01*
X0469465Y0374100D01*
X0464465Y0374100D01*
X0461965Y0371600D01*
X0459465Y0374100D01*
X0454465Y0374100D01*
X0451965Y0371600D01*
X0449465Y0374100D01*
X0444465Y0374100D01*
X0441965Y0371600D01*
X0439465Y0374100D01*
X0434465Y0374100D01*
X0431965Y0371600D01*
X0429465Y0374100D01*
X0424465Y0374100D01*
X0421965Y0371600D01*
X0419465Y0374100D01*
X0414465Y0374100D01*
X0411965Y0371600D01*
X0411965Y0366600D01*
X0414465Y0364100D01*
X0511965Y0366600D02*
X0514465Y0364100D01*
X0529465Y0364100D01*
X0531965Y0366600D01*
X0531965Y0371600D01*
X0529465Y0374100D01*
X0514465Y0374100D01*
X0511965Y0371600D01*
X0511965Y0366600D01*
X0631965Y0304600D02*
X0631965Y0301600D01*
X0630965Y0301600D01*
X0631965Y0301600D02*
X0631965Y0298600D01*
X0651965Y0298600D01*
X0651965Y0301600D01*
X0652965Y0301600D01*
X0651965Y0301600D02*
X0651965Y0304600D01*
X0631965Y0304600D01*
X0644341Y0311851D02*
X0646476Y0311851D01*
X0648024Y0311318D02*
X0650159Y0313453D01*
X0651707Y0313453D02*
X0653842Y0313453D01*
X0653842Y0312919D01*
X0651707Y0310784D01*
X0651707Y0310250D01*
X0650159Y0310250D02*
X0648557Y0311851D01*
X0648024Y0310250D02*
X0648024Y0313453D01*
X0645942Y0313453D02*
X0644341Y0311851D01*
X0645942Y0310250D02*
X0645942Y0313453D01*
X0543224Y0251404D02*
X0540022Y0251404D01*
X0540022Y0249002D01*
X0541623Y0249803D01*
X0542424Y0249803D01*
X0543224Y0249002D01*
X0543224Y0247401D01*
X0542424Y0246600D01*
X0540822Y0246600D01*
X0540022Y0247401D01*
X0538068Y0249002D02*
X0534865Y0249002D01*
X0537267Y0251404D01*
X0537267Y0246600D01*
X0537267Y0241404D02*
X0534865Y0239002D01*
X0538068Y0239002D01*
X0540022Y0237401D02*
X0540022Y0236600D01*
X0540022Y0237401D02*
X0543224Y0240603D01*
X0543224Y0241404D01*
X0540022Y0241404D01*
X0537267Y0241404D02*
X0537267Y0236600D01*
X0529465Y0204100D02*
X0514465Y0204100D01*
X0511965Y0201600D01*
X0511965Y0196600D01*
X0514465Y0194100D01*
X0529465Y0194100D01*
X0531965Y0196600D01*
X0531965Y0201600D01*
X0529465Y0204100D01*
X0509465Y0184100D02*
X0511965Y0181600D01*
X0511965Y0176600D01*
X0509465Y0174100D01*
X0504465Y0174100D01*
X0501965Y0176600D01*
X0499465Y0174100D01*
X0494465Y0174100D01*
X0491965Y0176600D01*
X0489465Y0174100D01*
X0484465Y0174100D01*
X0481965Y0176600D01*
X0479465Y0174100D01*
X0474465Y0174100D01*
X0471965Y0176600D01*
X0469465Y0174100D01*
X0464465Y0174100D01*
X0461965Y0176600D01*
X0459465Y0174100D01*
X0454465Y0174100D01*
X0451965Y0176600D01*
X0449465Y0174100D01*
X0444465Y0174100D01*
X0441965Y0176600D01*
X0439465Y0174100D01*
X0434465Y0174100D01*
X0431965Y0176600D01*
X0431965Y0181600D01*
X0434465Y0184100D01*
X0439465Y0184100D01*
X0441965Y0181600D01*
X0444465Y0184100D01*
X0449465Y0184100D01*
X0451965Y0181600D01*
X0454465Y0184100D01*
X0459465Y0184100D01*
X0461965Y0181600D01*
X0464465Y0184100D01*
X0469465Y0184100D01*
X0471965Y0181600D01*
X0474465Y0184100D01*
X0479465Y0184100D01*
X0481965Y0181600D01*
X0484465Y0184100D01*
X0489465Y0184100D01*
X0491965Y0181600D01*
X0494465Y0184100D01*
X0499465Y0184100D01*
X0501965Y0181600D01*
X0504465Y0184100D01*
X0509465Y0184100D01*
X0421965Y0181600D02*
X0421965Y0176600D01*
X0419465Y0174100D01*
X0414465Y0174100D01*
X0411965Y0176600D01*
X0409465Y0174100D01*
X0404465Y0174100D01*
X0401965Y0176600D01*
X0399465Y0174100D01*
X0394465Y0174100D01*
X0391965Y0176600D01*
X0389465Y0174100D01*
X0384465Y0174100D01*
X0381965Y0176600D01*
X0379465Y0174100D01*
X0374465Y0174100D01*
X0371965Y0176600D01*
X0369465Y0174100D01*
X0364465Y0174100D01*
X0361965Y0176600D01*
X0359465Y0174100D01*
X0354465Y0174100D01*
X0351965Y0176600D01*
X0349465Y0174100D01*
X0344465Y0174100D01*
X0341965Y0176600D01*
X0341965Y0181600D01*
X0344465Y0184100D01*
X0349465Y0184100D01*
X0351965Y0181600D01*
X0354465Y0184100D01*
X0359465Y0184100D01*
X0361965Y0181600D01*
X0364465Y0184100D01*
X0369465Y0184100D01*
X0371965Y0181600D01*
X0374465Y0184100D01*
X0379465Y0184100D01*
X0381965Y0181600D01*
X0384465Y0184100D01*
X0389465Y0184100D01*
X0391965Y0181600D01*
X0394465Y0184100D01*
X0399465Y0184100D01*
X0401965Y0181600D01*
X0404465Y0184100D01*
X0409465Y0184100D01*
X0411965Y0181600D01*
X0414465Y0184100D01*
X0419465Y0184100D01*
X0421965Y0181600D01*
X0409839Y0241482D02*
X0394091Y0241482D01*
X0394091Y0241481D02*
X0394005Y0241483D01*
X0393919Y0241488D01*
X0393834Y0241498D01*
X0393749Y0241511D01*
X0393665Y0241528D01*
X0393581Y0241548D01*
X0393499Y0241572D01*
X0393418Y0241600D01*
X0393337Y0241631D01*
X0393259Y0241665D01*
X0393182Y0241703D01*
X0393107Y0241745D01*
X0393033Y0241789D01*
X0392962Y0241837D01*
X0392892Y0241888D01*
X0392825Y0241942D01*
X0392761Y0241998D01*
X0392699Y0242058D01*
X0392639Y0242120D01*
X0392583Y0242184D01*
X0392529Y0242251D01*
X0392478Y0242321D01*
X0392430Y0242392D01*
X0392386Y0242466D01*
X0392344Y0242541D01*
X0392306Y0242618D01*
X0392272Y0242696D01*
X0392241Y0242777D01*
X0392213Y0242858D01*
X0392189Y0242940D01*
X0392169Y0243024D01*
X0392152Y0243108D01*
X0392139Y0243193D01*
X0392129Y0243278D01*
X0392124Y0243364D01*
X0392122Y0243450D01*
X0392123Y0243450D02*
X0392123Y0249750D01*
X0392122Y0249750D02*
X0392124Y0249836D01*
X0392129Y0249922D01*
X0392139Y0250007D01*
X0392152Y0250092D01*
X0392169Y0250176D01*
X0392189Y0250260D01*
X0392213Y0250342D01*
X0392241Y0250423D01*
X0392272Y0250504D01*
X0392306Y0250582D01*
X0392344Y0250659D01*
X0392386Y0250735D01*
X0392430Y0250808D01*
X0392478Y0250879D01*
X0392529Y0250949D01*
X0392583Y0251016D01*
X0392639Y0251080D01*
X0392699Y0251142D01*
X0392761Y0251202D01*
X0392825Y0251258D01*
X0392892Y0251312D01*
X0392962Y0251363D01*
X0393033Y0251411D01*
X0393107Y0251455D01*
X0393182Y0251497D01*
X0393259Y0251535D01*
X0393337Y0251569D01*
X0393418Y0251600D01*
X0393499Y0251628D01*
X0393581Y0251652D01*
X0393665Y0251672D01*
X0393749Y0251689D01*
X0393834Y0251702D01*
X0393919Y0251712D01*
X0394005Y0251717D01*
X0394091Y0251719D01*
X0394091Y0251718D02*
X0409839Y0251718D01*
X0409839Y0251719D02*
X0409925Y0251717D01*
X0410011Y0251712D01*
X0410096Y0251702D01*
X0410181Y0251689D01*
X0410265Y0251672D01*
X0410349Y0251652D01*
X0410431Y0251628D01*
X0410512Y0251600D01*
X0410593Y0251569D01*
X0410671Y0251535D01*
X0410748Y0251497D01*
X0410824Y0251455D01*
X0410897Y0251411D01*
X0410968Y0251363D01*
X0411038Y0251312D01*
X0411105Y0251258D01*
X0411169Y0251202D01*
X0411231Y0251142D01*
X0411291Y0251080D01*
X0411347Y0251016D01*
X0411401Y0250949D01*
X0411452Y0250879D01*
X0411500Y0250808D01*
X0411544Y0250735D01*
X0411586Y0250659D01*
X0411624Y0250582D01*
X0411658Y0250504D01*
X0411689Y0250423D01*
X0411717Y0250342D01*
X0411741Y0250260D01*
X0411761Y0250176D01*
X0411778Y0250092D01*
X0411791Y0250007D01*
X0411801Y0249922D01*
X0411806Y0249836D01*
X0411808Y0249750D01*
X0411808Y0243450D01*
X0411806Y0243364D01*
X0411801Y0243278D01*
X0411791Y0243193D01*
X0411778Y0243108D01*
X0411761Y0243024D01*
X0411741Y0242940D01*
X0411717Y0242858D01*
X0411689Y0242777D01*
X0411658Y0242696D01*
X0411624Y0242618D01*
X0411586Y0242541D01*
X0411544Y0242466D01*
X0411500Y0242392D01*
X0411452Y0242321D01*
X0411401Y0242251D01*
X0411347Y0242184D01*
X0411291Y0242120D01*
X0411231Y0242058D01*
X0411169Y0241998D01*
X0411105Y0241942D01*
X0411038Y0241888D01*
X0410968Y0241837D01*
X0410897Y0241789D01*
X0410824Y0241745D01*
X0410748Y0241703D01*
X0410671Y0241665D01*
X0410593Y0241631D01*
X0410512Y0241600D01*
X0410431Y0241572D01*
X0410349Y0241548D01*
X0410265Y0241528D01*
X0410181Y0241511D01*
X0410096Y0241498D01*
X0410011Y0241488D01*
X0409925Y0241483D01*
X0409839Y0241481D01*
X0457123Y0243450D02*
X0457123Y0249750D01*
X0457122Y0249750D02*
X0457124Y0249836D01*
X0457129Y0249922D01*
X0457139Y0250007D01*
X0457152Y0250092D01*
X0457169Y0250176D01*
X0457189Y0250260D01*
X0457213Y0250342D01*
X0457241Y0250423D01*
X0457272Y0250504D01*
X0457306Y0250582D01*
X0457344Y0250659D01*
X0457386Y0250735D01*
X0457430Y0250808D01*
X0457478Y0250879D01*
X0457529Y0250949D01*
X0457583Y0251016D01*
X0457639Y0251080D01*
X0457699Y0251142D01*
X0457761Y0251202D01*
X0457825Y0251258D01*
X0457892Y0251312D01*
X0457962Y0251363D01*
X0458033Y0251411D01*
X0458107Y0251455D01*
X0458182Y0251497D01*
X0458259Y0251535D01*
X0458337Y0251569D01*
X0458418Y0251600D01*
X0458499Y0251628D01*
X0458581Y0251652D01*
X0458665Y0251672D01*
X0458749Y0251689D01*
X0458834Y0251702D01*
X0458919Y0251712D01*
X0459005Y0251717D01*
X0459091Y0251719D01*
X0459091Y0251718D02*
X0474839Y0251718D01*
X0474839Y0251719D02*
X0474925Y0251717D01*
X0475011Y0251712D01*
X0475096Y0251702D01*
X0475181Y0251689D01*
X0475265Y0251672D01*
X0475349Y0251652D01*
X0475431Y0251628D01*
X0475512Y0251600D01*
X0475593Y0251569D01*
X0475671Y0251535D01*
X0475748Y0251497D01*
X0475824Y0251455D01*
X0475897Y0251411D01*
X0475968Y0251363D01*
X0476038Y0251312D01*
X0476105Y0251258D01*
X0476169Y0251202D01*
X0476231Y0251142D01*
X0476291Y0251080D01*
X0476347Y0251016D01*
X0476401Y0250949D01*
X0476452Y0250879D01*
X0476500Y0250808D01*
X0476544Y0250735D01*
X0476586Y0250659D01*
X0476624Y0250582D01*
X0476658Y0250504D01*
X0476689Y0250423D01*
X0476717Y0250342D01*
X0476741Y0250260D01*
X0476761Y0250176D01*
X0476778Y0250092D01*
X0476791Y0250007D01*
X0476801Y0249922D01*
X0476806Y0249836D01*
X0476808Y0249750D01*
X0476808Y0243450D01*
X0476806Y0243364D01*
X0476801Y0243278D01*
X0476791Y0243193D01*
X0476778Y0243108D01*
X0476761Y0243024D01*
X0476741Y0242940D01*
X0476717Y0242858D01*
X0476689Y0242777D01*
X0476658Y0242696D01*
X0476624Y0242618D01*
X0476586Y0242541D01*
X0476544Y0242466D01*
X0476500Y0242392D01*
X0476452Y0242321D01*
X0476401Y0242251D01*
X0476347Y0242184D01*
X0476291Y0242120D01*
X0476231Y0242058D01*
X0476169Y0241998D01*
X0476105Y0241942D01*
X0476038Y0241888D01*
X0475968Y0241837D01*
X0475897Y0241789D01*
X0475824Y0241745D01*
X0475748Y0241703D01*
X0475671Y0241665D01*
X0475593Y0241631D01*
X0475512Y0241600D01*
X0475431Y0241572D01*
X0475349Y0241548D01*
X0475265Y0241528D01*
X0475181Y0241511D01*
X0475096Y0241498D01*
X0475011Y0241488D01*
X0474925Y0241483D01*
X0474839Y0241481D01*
X0474839Y0241482D02*
X0459091Y0241482D01*
X0459091Y0241481D02*
X0459005Y0241483D01*
X0458919Y0241488D01*
X0458834Y0241498D01*
X0458749Y0241511D01*
X0458665Y0241528D01*
X0458581Y0241548D01*
X0458499Y0241572D01*
X0458418Y0241600D01*
X0458337Y0241631D01*
X0458259Y0241665D01*
X0458182Y0241703D01*
X0458107Y0241745D01*
X0458033Y0241789D01*
X0457962Y0241837D01*
X0457892Y0241888D01*
X0457825Y0241942D01*
X0457761Y0241998D01*
X0457699Y0242058D01*
X0457639Y0242120D01*
X0457583Y0242184D01*
X0457529Y0242251D01*
X0457478Y0242321D01*
X0457430Y0242392D01*
X0457386Y0242466D01*
X0457344Y0242541D01*
X0457306Y0242618D01*
X0457272Y0242696D01*
X0457241Y0242777D01*
X0457213Y0242858D01*
X0457189Y0242940D01*
X0457169Y0243024D01*
X0457152Y0243108D01*
X0457139Y0243193D01*
X0457129Y0243278D01*
X0457124Y0243364D01*
X0457122Y0243450D01*
X0331965Y0181600D02*
X0331965Y0176600D01*
X0329465Y0174100D01*
X0324465Y0174100D01*
X0321965Y0176600D01*
X0319465Y0174100D01*
X0314465Y0174100D01*
X0311965Y0176600D01*
X0309465Y0174100D01*
X0304465Y0174100D01*
X0301965Y0176600D01*
X0299465Y0174100D01*
X0294465Y0174100D01*
X0291965Y0176600D01*
X0289465Y0174100D01*
X0284465Y0174100D01*
X0281965Y0176600D01*
X0279465Y0174100D01*
X0274465Y0174100D01*
X0271965Y0176600D01*
X0271965Y0181600D01*
X0274465Y0184100D01*
X0279465Y0184100D01*
X0281965Y0181600D01*
X0284465Y0184100D01*
X0289465Y0184100D01*
X0291965Y0181600D01*
X0294465Y0184100D01*
X0299465Y0184100D01*
X0301965Y0181600D01*
X0304465Y0184100D01*
X0309465Y0184100D01*
X0311965Y0181600D01*
X0314465Y0184100D01*
X0319465Y0184100D01*
X0321965Y0181600D01*
X0324465Y0184100D01*
X0329465Y0184100D01*
X0331965Y0181600D01*
X0630965Y0214100D02*
X0631965Y0214100D01*
X0631965Y0217100D01*
X0651965Y0217100D01*
X0651965Y0214100D01*
X0652965Y0214100D01*
X0651965Y0214100D02*
X0651965Y0211100D01*
X0631965Y0211100D01*
X0631965Y0214100D01*
X0637374Y0208453D02*
X0636841Y0207919D01*
X0637374Y0208453D02*
X0638442Y0208453D01*
X0638976Y0207919D01*
X0638976Y0207385D01*
X0636841Y0205250D01*
X0638976Y0205250D01*
X0640524Y0205250D02*
X0642659Y0207385D01*
X0642659Y0207919D01*
X0642125Y0208453D01*
X0641057Y0208453D01*
X0640524Y0207919D01*
X0640524Y0205250D02*
X0642659Y0205250D01*
X0644207Y0205784D02*
X0646342Y0207919D01*
X0646342Y0205784D01*
X0645808Y0205250D01*
X0644741Y0205250D01*
X0644207Y0205784D01*
X0644207Y0207919D01*
X0644741Y0208453D01*
X0645808Y0208453D01*
X0646342Y0207919D01*
X0651965Y0223600D02*
X0631965Y0223600D01*
X0631965Y0226600D01*
X0630965Y0226600D01*
X0631965Y0226600D02*
X0631965Y0229600D01*
X0651965Y0229600D01*
X0651965Y0226600D01*
X0652965Y0226600D01*
X0651965Y0226600D02*
X0651965Y0223600D01*
X0644500Y0231534D02*
X0643967Y0231000D01*
X0642899Y0231000D01*
X0642365Y0231534D01*
X0643433Y0232601D02*
X0643967Y0232601D01*
X0644500Y0232068D01*
X0644500Y0231534D01*
X0643967Y0232601D02*
X0644500Y0233135D01*
X0644500Y0233669D01*
X0643967Y0234203D01*
X0642899Y0234203D01*
X0642365Y0233669D01*
X0640817Y0233669D02*
X0640283Y0234203D01*
X0638682Y0234203D01*
X0638682Y0231000D01*
X0640283Y0231000D01*
X0640817Y0231534D01*
X0640817Y0233669D01*
X0634465Y0229100D02*
X0634465Y0224100D01*
X0614465Y0455025D02*
X0554465Y0455025D01*
X0554465Y0506206D01*
X0614465Y0506206D01*
X0614465Y0455025D01*
X0514465Y0455025D02*
X0514465Y0506206D01*
X0454465Y0506206D01*
X0454465Y0455025D01*
X0514465Y0455025D01*
X0414465Y0455025D02*
X0414465Y0506206D01*
X0354465Y0506206D01*
X0354465Y0455025D01*
X0414465Y0455025D01*
D15*
X0441466Y0494400D02*
X0443602Y0494400D01*
X0444669Y0495468D01*
X0441466Y0494400D02*
X0440399Y0495468D01*
X0440399Y0499738D01*
X0441466Y0500805D01*
X0443602Y0500805D01*
X0444669Y0499738D01*
X0540399Y0500805D02*
X0540399Y0494400D01*
X0543602Y0494400D01*
X0544669Y0495468D01*
X0544669Y0499738D01*
X0543602Y0500805D01*
X0540399Y0500805D01*
X0344669Y0499738D02*
X0344669Y0498670D01*
X0343602Y0497603D01*
X0340399Y0497603D01*
X0340399Y0500805D02*
X0340399Y0494400D01*
X0343602Y0494400D01*
X0344669Y0495468D01*
X0344669Y0496535D01*
X0343602Y0497603D01*
X0344669Y0499738D02*
X0343602Y0500805D01*
X0340399Y0500805D01*
X0244669Y0498670D02*
X0244669Y0494400D01*
X0244669Y0497603D02*
X0240399Y0497603D01*
X0240399Y0498670D02*
X0242534Y0500805D01*
X0244669Y0498670D01*
X0240399Y0498670D02*
X0240399Y0494400D01*
D16*
X0169087Y0498880D02*
X0168288Y0498880D01*
X0168288Y0439880D01*
X0142288Y0439880D01*
X0132886Y0439880D01*
X0132886Y0498880D01*
X0142288Y0498880D01*
X0168288Y0498880D01*
X0169087Y0498880D02*
X0169087Y0439880D01*
X0168288Y0439880D01*
X0161086Y0449680D02*
X0161088Y0449769D01*
X0161094Y0449858D01*
X0161104Y0449947D01*
X0161118Y0450035D01*
X0161135Y0450122D01*
X0161157Y0450208D01*
X0161183Y0450294D01*
X0161212Y0450378D01*
X0161245Y0450461D01*
X0161281Y0450542D01*
X0161322Y0450622D01*
X0161365Y0450699D01*
X0161412Y0450775D01*
X0161463Y0450848D01*
X0161516Y0450919D01*
X0161573Y0450988D01*
X0161633Y0451054D01*
X0161696Y0451118D01*
X0161761Y0451178D01*
X0161829Y0451236D01*
X0161900Y0451290D01*
X0161973Y0451341D01*
X0162048Y0451389D01*
X0162125Y0451434D01*
X0162204Y0451475D01*
X0162285Y0451512D01*
X0162367Y0451546D01*
X0162451Y0451577D01*
X0162536Y0451603D01*
X0162622Y0451626D01*
X0162709Y0451644D01*
X0162797Y0451659D01*
X0162886Y0451670D01*
X0162975Y0451677D01*
X0163064Y0451680D01*
X0163153Y0451679D01*
X0163242Y0451674D01*
X0163330Y0451665D01*
X0163419Y0451652D01*
X0163506Y0451635D01*
X0163593Y0451615D01*
X0163679Y0451590D01*
X0163763Y0451562D01*
X0163846Y0451530D01*
X0163928Y0451494D01*
X0164008Y0451455D01*
X0164086Y0451412D01*
X0164162Y0451366D01*
X0164236Y0451316D01*
X0164308Y0451263D01*
X0164377Y0451207D01*
X0164444Y0451148D01*
X0164508Y0451086D01*
X0164569Y0451022D01*
X0164628Y0450954D01*
X0164683Y0450884D01*
X0164735Y0450812D01*
X0164784Y0450737D01*
X0164829Y0450661D01*
X0164871Y0450582D01*
X0164909Y0450502D01*
X0164944Y0450420D01*
X0164975Y0450336D01*
X0165003Y0450251D01*
X0165026Y0450165D01*
X0165046Y0450078D01*
X0165062Y0449991D01*
X0165074Y0449902D01*
X0165082Y0449814D01*
X0165086Y0449725D01*
X0165086Y0449635D01*
X0165082Y0449546D01*
X0165074Y0449458D01*
X0165062Y0449369D01*
X0165046Y0449282D01*
X0165026Y0449195D01*
X0165003Y0449109D01*
X0164975Y0449024D01*
X0164944Y0448940D01*
X0164909Y0448858D01*
X0164871Y0448778D01*
X0164829Y0448699D01*
X0164784Y0448623D01*
X0164735Y0448548D01*
X0164683Y0448476D01*
X0164628Y0448406D01*
X0164569Y0448338D01*
X0164508Y0448274D01*
X0164444Y0448212D01*
X0164377Y0448153D01*
X0164308Y0448097D01*
X0164236Y0448044D01*
X0164162Y0447994D01*
X0164086Y0447948D01*
X0164008Y0447905D01*
X0163928Y0447866D01*
X0163846Y0447830D01*
X0163763Y0447798D01*
X0163679Y0447770D01*
X0163593Y0447745D01*
X0163506Y0447725D01*
X0163419Y0447708D01*
X0163330Y0447695D01*
X0163242Y0447686D01*
X0163153Y0447681D01*
X0163064Y0447680D01*
X0162975Y0447683D01*
X0162886Y0447690D01*
X0162797Y0447701D01*
X0162709Y0447716D01*
X0162622Y0447734D01*
X0162536Y0447757D01*
X0162451Y0447783D01*
X0162367Y0447814D01*
X0162285Y0447848D01*
X0162204Y0447885D01*
X0162125Y0447926D01*
X0162048Y0447971D01*
X0161973Y0448019D01*
X0161900Y0448070D01*
X0161829Y0448124D01*
X0161761Y0448182D01*
X0161696Y0448242D01*
X0161633Y0448306D01*
X0161573Y0448372D01*
X0161516Y0448441D01*
X0161463Y0448512D01*
X0161412Y0448585D01*
X0161365Y0448661D01*
X0161322Y0448738D01*
X0161281Y0448818D01*
X0161245Y0448899D01*
X0161212Y0448982D01*
X0161183Y0449066D01*
X0161157Y0449152D01*
X0161135Y0449238D01*
X0161118Y0449325D01*
X0161104Y0449413D01*
X0161094Y0449502D01*
X0161088Y0449591D01*
X0161086Y0449680D01*
X0142288Y0453179D02*
X0142288Y0465880D01*
X0142288Y0472880D02*
X0142288Y0485580D01*
X0142288Y0492580D02*
X0142288Y0498880D01*
X0161086Y0489080D02*
X0161088Y0489169D01*
X0161094Y0489258D01*
X0161104Y0489347D01*
X0161118Y0489435D01*
X0161135Y0489522D01*
X0161157Y0489608D01*
X0161183Y0489694D01*
X0161212Y0489778D01*
X0161245Y0489861D01*
X0161281Y0489942D01*
X0161322Y0490022D01*
X0161365Y0490099D01*
X0161412Y0490175D01*
X0161463Y0490248D01*
X0161516Y0490319D01*
X0161573Y0490388D01*
X0161633Y0490454D01*
X0161696Y0490518D01*
X0161761Y0490578D01*
X0161829Y0490636D01*
X0161900Y0490690D01*
X0161973Y0490741D01*
X0162048Y0490789D01*
X0162125Y0490834D01*
X0162204Y0490875D01*
X0162285Y0490912D01*
X0162367Y0490946D01*
X0162451Y0490977D01*
X0162536Y0491003D01*
X0162622Y0491026D01*
X0162709Y0491044D01*
X0162797Y0491059D01*
X0162886Y0491070D01*
X0162975Y0491077D01*
X0163064Y0491080D01*
X0163153Y0491079D01*
X0163242Y0491074D01*
X0163330Y0491065D01*
X0163419Y0491052D01*
X0163506Y0491035D01*
X0163593Y0491015D01*
X0163679Y0490990D01*
X0163763Y0490962D01*
X0163846Y0490930D01*
X0163928Y0490894D01*
X0164008Y0490855D01*
X0164086Y0490812D01*
X0164162Y0490766D01*
X0164236Y0490716D01*
X0164308Y0490663D01*
X0164377Y0490607D01*
X0164444Y0490548D01*
X0164508Y0490486D01*
X0164569Y0490422D01*
X0164628Y0490354D01*
X0164683Y0490284D01*
X0164735Y0490212D01*
X0164784Y0490137D01*
X0164829Y0490061D01*
X0164871Y0489982D01*
X0164909Y0489902D01*
X0164944Y0489820D01*
X0164975Y0489736D01*
X0165003Y0489651D01*
X0165026Y0489565D01*
X0165046Y0489478D01*
X0165062Y0489391D01*
X0165074Y0489302D01*
X0165082Y0489214D01*
X0165086Y0489125D01*
X0165086Y0489035D01*
X0165082Y0488946D01*
X0165074Y0488858D01*
X0165062Y0488769D01*
X0165046Y0488682D01*
X0165026Y0488595D01*
X0165003Y0488509D01*
X0164975Y0488424D01*
X0164944Y0488340D01*
X0164909Y0488258D01*
X0164871Y0488178D01*
X0164829Y0488099D01*
X0164784Y0488023D01*
X0164735Y0487948D01*
X0164683Y0487876D01*
X0164628Y0487806D01*
X0164569Y0487738D01*
X0164508Y0487674D01*
X0164444Y0487612D01*
X0164377Y0487553D01*
X0164308Y0487497D01*
X0164236Y0487444D01*
X0164162Y0487394D01*
X0164086Y0487348D01*
X0164008Y0487305D01*
X0163928Y0487266D01*
X0163846Y0487230D01*
X0163763Y0487198D01*
X0163679Y0487170D01*
X0163593Y0487145D01*
X0163506Y0487125D01*
X0163419Y0487108D01*
X0163330Y0487095D01*
X0163242Y0487086D01*
X0163153Y0487081D01*
X0163064Y0487080D01*
X0162975Y0487083D01*
X0162886Y0487090D01*
X0162797Y0487101D01*
X0162709Y0487116D01*
X0162622Y0487134D01*
X0162536Y0487157D01*
X0162451Y0487183D01*
X0162367Y0487214D01*
X0162285Y0487248D01*
X0162204Y0487285D01*
X0162125Y0487326D01*
X0162048Y0487371D01*
X0161973Y0487419D01*
X0161900Y0487470D01*
X0161829Y0487524D01*
X0161761Y0487582D01*
X0161696Y0487642D01*
X0161633Y0487706D01*
X0161573Y0487772D01*
X0161516Y0487841D01*
X0161463Y0487912D01*
X0161412Y0487985D01*
X0161365Y0488061D01*
X0161322Y0488138D01*
X0161281Y0488218D01*
X0161245Y0488299D01*
X0161212Y0488382D01*
X0161183Y0488466D01*
X0161157Y0488552D01*
X0161135Y0488638D01*
X0161118Y0488725D01*
X0161104Y0488813D01*
X0161094Y0488902D01*
X0161088Y0488991D01*
X0161086Y0489080D01*
X0161086Y0469380D02*
X0161088Y0469469D01*
X0161094Y0469558D01*
X0161104Y0469647D01*
X0161118Y0469735D01*
X0161135Y0469822D01*
X0161157Y0469908D01*
X0161183Y0469994D01*
X0161212Y0470078D01*
X0161245Y0470161D01*
X0161281Y0470242D01*
X0161322Y0470322D01*
X0161365Y0470399D01*
X0161412Y0470475D01*
X0161463Y0470548D01*
X0161516Y0470619D01*
X0161573Y0470688D01*
X0161633Y0470754D01*
X0161696Y0470818D01*
X0161761Y0470878D01*
X0161829Y0470936D01*
X0161900Y0470990D01*
X0161973Y0471041D01*
X0162048Y0471089D01*
X0162125Y0471134D01*
X0162204Y0471175D01*
X0162285Y0471212D01*
X0162367Y0471246D01*
X0162451Y0471277D01*
X0162536Y0471303D01*
X0162622Y0471326D01*
X0162709Y0471344D01*
X0162797Y0471359D01*
X0162886Y0471370D01*
X0162975Y0471377D01*
X0163064Y0471380D01*
X0163153Y0471379D01*
X0163242Y0471374D01*
X0163330Y0471365D01*
X0163419Y0471352D01*
X0163506Y0471335D01*
X0163593Y0471315D01*
X0163679Y0471290D01*
X0163763Y0471262D01*
X0163846Y0471230D01*
X0163928Y0471194D01*
X0164008Y0471155D01*
X0164086Y0471112D01*
X0164162Y0471066D01*
X0164236Y0471016D01*
X0164308Y0470963D01*
X0164377Y0470907D01*
X0164444Y0470848D01*
X0164508Y0470786D01*
X0164569Y0470722D01*
X0164628Y0470654D01*
X0164683Y0470584D01*
X0164735Y0470512D01*
X0164784Y0470437D01*
X0164829Y0470361D01*
X0164871Y0470282D01*
X0164909Y0470202D01*
X0164944Y0470120D01*
X0164975Y0470036D01*
X0165003Y0469951D01*
X0165026Y0469865D01*
X0165046Y0469778D01*
X0165062Y0469691D01*
X0165074Y0469602D01*
X0165082Y0469514D01*
X0165086Y0469425D01*
X0165086Y0469335D01*
X0165082Y0469246D01*
X0165074Y0469158D01*
X0165062Y0469069D01*
X0165046Y0468982D01*
X0165026Y0468895D01*
X0165003Y0468809D01*
X0164975Y0468724D01*
X0164944Y0468640D01*
X0164909Y0468558D01*
X0164871Y0468478D01*
X0164829Y0468399D01*
X0164784Y0468323D01*
X0164735Y0468248D01*
X0164683Y0468176D01*
X0164628Y0468106D01*
X0164569Y0468038D01*
X0164508Y0467974D01*
X0164444Y0467912D01*
X0164377Y0467853D01*
X0164308Y0467797D01*
X0164236Y0467744D01*
X0164162Y0467694D01*
X0164086Y0467648D01*
X0164008Y0467605D01*
X0163928Y0467566D01*
X0163846Y0467530D01*
X0163763Y0467498D01*
X0163679Y0467470D01*
X0163593Y0467445D01*
X0163506Y0467425D01*
X0163419Y0467408D01*
X0163330Y0467395D01*
X0163242Y0467386D01*
X0163153Y0467381D01*
X0163064Y0467380D01*
X0162975Y0467383D01*
X0162886Y0467390D01*
X0162797Y0467401D01*
X0162709Y0467416D01*
X0162622Y0467434D01*
X0162536Y0467457D01*
X0162451Y0467483D01*
X0162367Y0467514D01*
X0162285Y0467548D01*
X0162204Y0467585D01*
X0162125Y0467626D01*
X0162048Y0467671D01*
X0161973Y0467719D01*
X0161900Y0467770D01*
X0161829Y0467824D01*
X0161761Y0467882D01*
X0161696Y0467942D01*
X0161633Y0468006D01*
X0161573Y0468072D01*
X0161516Y0468141D01*
X0161463Y0468212D01*
X0161412Y0468285D01*
X0161365Y0468361D01*
X0161322Y0468438D01*
X0161281Y0468518D01*
X0161245Y0468599D01*
X0161212Y0468682D01*
X0161183Y0468766D01*
X0161157Y0468852D01*
X0161135Y0468938D01*
X0161118Y0469025D01*
X0161104Y0469113D01*
X0161094Y0469202D01*
X0161088Y0469291D01*
X0161086Y0469380D01*
X0142288Y0446179D02*
X0142288Y0439880D01*
X0141788Y0290157D02*
X0132386Y0290157D01*
X0132386Y0211457D01*
X0141788Y0211457D01*
X0167788Y0211457D01*
X0167788Y0290157D01*
X0168587Y0290157D01*
X0168587Y0211457D01*
X0167788Y0211457D01*
X0160586Y0221258D02*
X0160588Y0221347D01*
X0160594Y0221436D01*
X0160604Y0221525D01*
X0160618Y0221613D01*
X0160635Y0221700D01*
X0160657Y0221786D01*
X0160683Y0221872D01*
X0160712Y0221956D01*
X0160745Y0222039D01*
X0160781Y0222120D01*
X0160822Y0222200D01*
X0160865Y0222277D01*
X0160912Y0222353D01*
X0160963Y0222426D01*
X0161016Y0222497D01*
X0161073Y0222566D01*
X0161133Y0222632D01*
X0161196Y0222696D01*
X0161261Y0222756D01*
X0161329Y0222814D01*
X0161400Y0222868D01*
X0161473Y0222919D01*
X0161548Y0222967D01*
X0161625Y0223012D01*
X0161704Y0223053D01*
X0161785Y0223090D01*
X0161867Y0223124D01*
X0161951Y0223155D01*
X0162036Y0223181D01*
X0162122Y0223204D01*
X0162209Y0223222D01*
X0162297Y0223237D01*
X0162386Y0223248D01*
X0162475Y0223255D01*
X0162564Y0223258D01*
X0162653Y0223257D01*
X0162742Y0223252D01*
X0162830Y0223243D01*
X0162919Y0223230D01*
X0163006Y0223213D01*
X0163093Y0223193D01*
X0163179Y0223168D01*
X0163263Y0223140D01*
X0163346Y0223108D01*
X0163428Y0223072D01*
X0163508Y0223033D01*
X0163586Y0222990D01*
X0163662Y0222944D01*
X0163736Y0222894D01*
X0163808Y0222841D01*
X0163877Y0222785D01*
X0163944Y0222726D01*
X0164008Y0222664D01*
X0164069Y0222600D01*
X0164128Y0222532D01*
X0164183Y0222462D01*
X0164235Y0222390D01*
X0164284Y0222315D01*
X0164329Y0222239D01*
X0164371Y0222160D01*
X0164409Y0222080D01*
X0164444Y0221998D01*
X0164475Y0221914D01*
X0164503Y0221829D01*
X0164526Y0221743D01*
X0164546Y0221656D01*
X0164562Y0221569D01*
X0164574Y0221480D01*
X0164582Y0221392D01*
X0164586Y0221303D01*
X0164586Y0221213D01*
X0164582Y0221124D01*
X0164574Y0221036D01*
X0164562Y0220947D01*
X0164546Y0220860D01*
X0164526Y0220773D01*
X0164503Y0220687D01*
X0164475Y0220602D01*
X0164444Y0220518D01*
X0164409Y0220436D01*
X0164371Y0220356D01*
X0164329Y0220277D01*
X0164284Y0220201D01*
X0164235Y0220126D01*
X0164183Y0220054D01*
X0164128Y0219984D01*
X0164069Y0219916D01*
X0164008Y0219852D01*
X0163944Y0219790D01*
X0163877Y0219731D01*
X0163808Y0219675D01*
X0163736Y0219622D01*
X0163662Y0219572D01*
X0163586Y0219526D01*
X0163508Y0219483D01*
X0163428Y0219444D01*
X0163346Y0219408D01*
X0163263Y0219376D01*
X0163179Y0219348D01*
X0163093Y0219323D01*
X0163006Y0219303D01*
X0162919Y0219286D01*
X0162830Y0219273D01*
X0162742Y0219264D01*
X0162653Y0219259D01*
X0162564Y0219258D01*
X0162475Y0219261D01*
X0162386Y0219268D01*
X0162297Y0219279D01*
X0162209Y0219294D01*
X0162122Y0219312D01*
X0162036Y0219335D01*
X0161951Y0219361D01*
X0161867Y0219392D01*
X0161785Y0219426D01*
X0161704Y0219463D01*
X0161625Y0219504D01*
X0161548Y0219549D01*
X0161473Y0219597D01*
X0161400Y0219648D01*
X0161329Y0219702D01*
X0161261Y0219760D01*
X0161196Y0219820D01*
X0161133Y0219884D01*
X0161073Y0219950D01*
X0161016Y0220019D01*
X0160963Y0220090D01*
X0160912Y0220163D01*
X0160865Y0220239D01*
X0160822Y0220316D01*
X0160781Y0220396D01*
X0160745Y0220477D01*
X0160712Y0220560D01*
X0160683Y0220644D01*
X0160657Y0220730D01*
X0160635Y0220816D01*
X0160618Y0220903D01*
X0160604Y0220991D01*
X0160594Y0221080D01*
X0160588Y0221169D01*
X0160586Y0221258D01*
X0141788Y0217760D02*
X0141788Y0211457D01*
X0141788Y0224760D02*
X0141788Y0237457D01*
X0141788Y0244457D02*
X0141788Y0257157D01*
X0141788Y0264157D02*
X0141788Y0276858D01*
X0141788Y0283858D02*
X0141788Y0290157D01*
X0167788Y0290157D01*
X0160586Y0280358D02*
X0160588Y0280447D01*
X0160594Y0280536D01*
X0160604Y0280625D01*
X0160618Y0280713D01*
X0160635Y0280800D01*
X0160657Y0280886D01*
X0160683Y0280972D01*
X0160712Y0281056D01*
X0160745Y0281139D01*
X0160781Y0281220D01*
X0160822Y0281300D01*
X0160865Y0281377D01*
X0160912Y0281453D01*
X0160963Y0281526D01*
X0161016Y0281597D01*
X0161073Y0281666D01*
X0161133Y0281732D01*
X0161196Y0281796D01*
X0161261Y0281856D01*
X0161329Y0281914D01*
X0161400Y0281968D01*
X0161473Y0282019D01*
X0161548Y0282067D01*
X0161625Y0282112D01*
X0161704Y0282153D01*
X0161785Y0282190D01*
X0161867Y0282224D01*
X0161951Y0282255D01*
X0162036Y0282281D01*
X0162122Y0282304D01*
X0162209Y0282322D01*
X0162297Y0282337D01*
X0162386Y0282348D01*
X0162475Y0282355D01*
X0162564Y0282358D01*
X0162653Y0282357D01*
X0162742Y0282352D01*
X0162830Y0282343D01*
X0162919Y0282330D01*
X0163006Y0282313D01*
X0163093Y0282293D01*
X0163179Y0282268D01*
X0163263Y0282240D01*
X0163346Y0282208D01*
X0163428Y0282172D01*
X0163508Y0282133D01*
X0163586Y0282090D01*
X0163662Y0282044D01*
X0163736Y0281994D01*
X0163808Y0281941D01*
X0163877Y0281885D01*
X0163944Y0281826D01*
X0164008Y0281764D01*
X0164069Y0281700D01*
X0164128Y0281632D01*
X0164183Y0281562D01*
X0164235Y0281490D01*
X0164284Y0281415D01*
X0164329Y0281339D01*
X0164371Y0281260D01*
X0164409Y0281180D01*
X0164444Y0281098D01*
X0164475Y0281014D01*
X0164503Y0280929D01*
X0164526Y0280843D01*
X0164546Y0280756D01*
X0164562Y0280669D01*
X0164574Y0280580D01*
X0164582Y0280492D01*
X0164586Y0280403D01*
X0164586Y0280313D01*
X0164582Y0280224D01*
X0164574Y0280136D01*
X0164562Y0280047D01*
X0164546Y0279960D01*
X0164526Y0279873D01*
X0164503Y0279787D01*
X0164475Y0279702D01*
X0164444Y0279618D01*
X0164409Y0279536D01*
X0164371Y0279456D01*
X0164329Y0279377D01*
X0164284Y0279301D01*
X0164235Y0279226D01*
X0164183Y0279154D01*
X0164128Y0279084D01*
X0164069Y0279016D01*
X0164008Y0278952D01*
X0163944Y0278890D01*
X0163877Y0278831D01*
X0163808Y0278775D01*
X0163736Y0278722D01*
X0163662Y0278672D01*
X0163586Y0278626D01*
X0163508Y0278583D01*
X0163428Y0278544D01*
X0163346Y0278508D01*
X0163263Y0278476D01*
X0163179Y0278448D01*
X0163093Y0278423D01*
X0163006Y0278403D01*
X0162919Y0278386D01*
X0162830Y0278373D01*
X0162742Y0278364D01*
X0162653Y0278359D01*
X0162564Y0278358D01*
X0162475Y0278361D01*
X0162386Y0278368D01*
X0162297Y0278379D01*
X0162209Y0278394D01*
X0162122Y0278412D01*
X0162036Y0278435D01*
X0161951Y0278461D01*
X0161867Y0278492D01*
X0161785Y0278526D01*
X0161704Y0278563D01*
X0161625Y0278604D01*
X0161548Y0278649D01*
X0161473Y0278697D01*
X0161400Y0278748D01*
X0161329Y0278802D01*
X0161261Y0278860D01*
X0161196Y0278920D01*
X0161133Y0278984D01*
X0161073Y0279050D01*
X0161016Y0279119D01*
X0160963Y0279190D01*
X0160912Y0279263D01*
X0160865Y0279339D01*
X0160822Y0279416D01*
X0160781Y0279496D01*
X0160745Y0279577D01*
X0160712Y0279660D01*
X0160683Y0279744D01*
X0160657Y0279830D01*
X0160635Y0279916D01*
X0160618Y0280003D01*
X0160604Y0280091D01*
X0160594Y0280180D01*
X0160588Y0280269D01*
X0160586Y0280358D01*
X0160586Y0260658D02*
X0160588Y0260747D01*
X0160594Y0260836D01*
X0160604Y0260925D01*
X0160618Y0261013D01*
X0160635Y0261100D01*
X0160657Y0261186D01*
X0160683Y0261272D01*
X0160712Y0261356D01*
X0160745Y0261439D01*
X0160781Y0261520D01*
X0160822Y0261600D01*
X0160865Y0261677D01*
X0160912Y0261753D01*
X0160963Y0261826D01*
X0161016Y0261897D01*
X0161073Y0261966D01*
X0161133Y0262032D01*
X0161196Y0262096D01*
X0161261Y0262156D01*
X0161329Y0262214D01*
X0161400Y0262268D01*
X0161473Y0262319D01*
X0161548Y0262367D01*
X0161625Y0262412D01*
X0161704Y0262453D01*
X0161785Y0262490D01*
X0161867Y0262524D01*
X0161951Y0262555D01*
X0162036Y0262581D01*
X0162122Y0262604D01*
X0162209Y0262622D01*
X0162297Y0262637D01*
X0162386Y0262648D01*
X0162475Y0262655D01*
X0162564Y0262658D01*
X0162653Y0262657D01*
X0162742Y0262652D01*
X0162830Y0262643D01*
X0162919Y0262630D01*
X0163006Y0262613D01*
X0163093Y0262593D01*
X0163179Y0262568D01*
X0163263Y0262540D01*
X0163346Y0262508D01*
X0163428Y0262472D01*
X0163508Y0262433D01*
X0163586Y0262390D01*
X0163662Y0262344D01*
X0163736Y0262294D01*
X0163808Y0262241D01*
X0163877Y0262185D01*
X0163944Y0262126D01*
X0164008Y0262064D01*
X0164069Y0262000D01*
X0164128Y0261932D01*
X0164183Y0261862D01*
X0164235Y0261790D01*
X0164284Y0261715D01*
X0164329Y0261639D01*
X0164371Y0261560D01*
X0164409Y0261480D01*
X0164444Y0261398D01*
X0164475Y0261314D01*
X0164503Y0261229D01*
X0164526Y0261143D01*
X0164546Y0261056D01*
X0164562Y0260969D01*
X0164574Y0260880D01*
X0164582Y0260792D01*
X0164586Y0260703D01*
X0164586Y0260613D01*
X0164582Y0260524D01*
X0164574Y0260436D01*
X0164562Y0260347D01*
X0164546Y0260260D01*
X0164526Y0260173D01*
X0164503Y0260087D01*
X0164475Y0260002D01*
X0164444Y0259918D01*
X0164409Y0259836D01*
X0164371Y0259756D01*
X0164329Y0259677D01*
X0164284Y0259601D01*
X0164235Y0259526D01*
X0164183Y0259454D01*
X0164128Y0259384D01*
X0164069Y0259316D01*
X0164008Y0259252D01*
X0163944Y0259190D01*
X0163877Y0259131D01*
X0163808Y0259075D01*
X0163736Y0259022D01*
X0163662Y0258972D01*
X0163586Y0258926D01*
X0163508Y0258883D01*
X0163428Y0258844D01*
X0163346Y0258808D01*
X0163263Y0258776D01*
X0163179Y0258748D01*
X0163093Y0258723D01*
X0163006Y0258703D01*
X0162919Y0258686D01*
X0162830Y0258673D01*
X0162742Y0258664D01*
X0162653Y0258659D01*
X0162564Y0258658D01*
X0162475Y0258661D01*
X0162386Y0258668D01*
X0162297Y0258679D01*
X0162209Y0258694D01*
X0162122Y0258712D01*
X0162036Y0258735D01*
X0161951Y0258761D01*
X0161867Y0258792D01*
X0161785Y0258826D01*
X0161704Y0258863D01*
X0161625Y0258904D01*
X0161548Y0258949D01*
X0161473Y0258997D01*
X0161400Y0259048D01*
X0161329Y0259102D01*
X0161261Y0259160D01*
X0161196Y0259220D01*
X0161133Y0259284D01*
X0161073Y0259350D01*
X0161016Y0259419D01*
X0160963Y0259490D01*
X0160912Y0259563D01*
X0160865Y0259639D01*
X0160822Y0259716D01*
X0160781Y0259796D01*
X0160745Y0259877D01*
X0160712Y0259960D01*
X0160683Y0260044D01*
X0160657Y0260130D01*
X0160635Y0260216D01*
X0160618Y0260303D01*
X0160604Y0260391D01*
X0160594Y0260480D01*
X0160588Y0260569D01*
X0160586Y0260658D01*
X0160586Y0240958D02*
X0160588Y0241047D01*
X0160594Y0241136D01*
X0160604Y0241225D01*
X0160618Y0241313D01*
X0160635Y0241400D01*
X0160657Y0241486D01*
X0160683Y0241572D01*
X0160712Y0241656D01*
X0160745Y0241739D01*
X0160781Y0241820D01*
X0160822Y0241900D01*
X0160865Y0241977D01*
X0160912Y0242053D01*
X0160963Y0242126D01*
X0161016Y0242197D01*
X0161073Y0242266D01*
X0161133Y0242332D01*
X0161196Y0242396D01*
X0161261Y0242456D01*
X0161329Y0242514D01*
X0161400Y0242568D01*
X0161473Y0242619D01*
X0161548Y0242667D01*
X0161625Y0242712D01*
X0161704Y0242753D01*
X0161785Y0242790D01*
X0161867Y0242824D01*
X0161951Y0242855D01*
X0162036Y0242881D01*
X0162122Y0242904D01*
X0162209Y0242922D01*
X0162297Y0242937D01*
X0162386Y0242948D01*
X0162475Y0242955D01*
X0162564Y0242958D01*
X0162653Y0242957D01*
X0162742Y0242952D01*
X0162830Y0242943D01*
X0162919Y0242930D01*
X0163006Y0242913D01*
X0163093Y0242893D01*
X0163179Y0242868D01*
X0163263Y0242840D01*
X0163346Y0242808D01*
X0163428Y0242772D01*
X0163508Y0242733D01*
X0163586Y0242690D01*
X0163662Y0242644D01*
X0163736Y0242594D01*
X0163808Y0242541D01*
X0163877Y0242485D01*
X0163944Y0242426D01*
X0164008Y0242364D01*
X0164069Y0242300D01*
X0164128Y0242232D01*
X0164183Y0242162D01*
X0164235Y0242090D01*
X0164284Y0242015D01*
X0164329Y0241939D01*
X0164371Y0241860D01*
X0164409Y0241780D01*
X0164444Y0241698D01*
X0164475Y0241614D01*
X0164503Y0241529D01*
X0164526Y0241443D01*
X0164546Y0241356D01*
X0164562Y0241269D01*
X0164574Y0241180D01*
X0164582Y0241092D01*
X0164586Y0241003D01*
X0164586Y0240913D01*
X0164582Y0240824D01*
X0164574Y0240736D01*
X0164562Y0240647D01*
X0164546Y0240560D01*
X0164526Y0240473D01*
X0164503Y0240387D01*
X0164475Y0240302D01*
X0164444Y0240218D01*
X0164409Y0240136D01*
X0164371Y0240056D01*
X0164329Y0239977D01*
X0164284Y0239901D01*
X0164235Y0239826D01*
X0164183Y0239754D01*
X0164128Y0239684D01*
X0164069Y0239616D01*
X0164008Y0239552D01*
X0163944Y0239490D01*
X0163877Y0239431D01*
X0163808Y0239375D01*
X0163736Y0239322D01*
X0163662Y0239272D01*
X0163586Y0239226D01*
X0163508Y0239183D01*
X0163428Y0239144D01*
X0163346Y0239108D01*
X0163263Y0239076D01*
X0163179Y0239048D01*
X0163093Y0239023D01*
X0163006Y0239003D01*
X0162919Y0238986D01*
X0162830Y0238973D01*
X0162742Y0238964D01*
X0162653Y0238959D01*
X0162564Y0238958D01*
X0162475Y0238961D01*
X0162386Y0238968D01*
X0162297Y0238979D01*
X0162209Y0238994D01*
X0162122Y0239012D01*
X0162036Y0239035D01*
X0161951Y0239061D01*
X0161867Y0239092D01*
X0161785Y0239126D01*
X0161704Y0239163D01*
X0161625Y0239204D01*
X0161548Y0239249D01*
X0161473Y0239297D01*
X0161400Y0239348D01*
X0161329Y0239402D01*
X0161261Y0239460D01*
X0161196Y0239520D01*
X0161133Y0239584D01*
X0161073Y0239650D01*
X0161016Y0239719D01*
X0160963Y0239790D01*
X0160912Y0239863D01*
X0160865Y0239939D01*
X0160822Y0240016D01*
X0160781Y0240096D01*
X0160745Y0240177D01*
X0160712Y0240260D01*
X0160683Y0240344D01*
X0160657Y0240430D01*
X0160635Y0240516D01*
X0160618Y0240603D01*
X0160604Y0240691D01*
X0160594Y0240780D01*
X0160588Y0240869D01*
X0160586Y0240958D01*
X0140165Y0166353D02*
X0138564Y0166353D01*
X0137763Y0165552D01*
X0138564Y0164751D01*
X0140165Y0164751D01*
X0138964Y0164751D02*
X0138964Y0166353D01*
X0138964Y0163590D02*
X0138964Y0162790D01*
X0138964Y0163590D02*
X0139765Y0163590D01*
X0140165Y0163190D01*
X0140165Y0162389D01*
X0139765Y0161989D01*
X0138164Y0161989D01*
X0137763Y0162389D01*
X0137763Y0163190D01*
X0138164Y0163590D01*
X0137763Y0160828D02*
X0137763Y0159227D01*
X0140165Y0159227D01*
X0140165Y0160828D01*
X0138964Y0160027D02*
X0138964Y0159227D01*
X0137763Y0158066D02*
X0140165Y0158066D01*
X0140165Y0156464D02*
X0137763Y0156464D01*
X0138564Y0157265D01*
X0137763Y0158066D01*
X0138164Y0152541D02*
X0137763Y0152141D01*
X0137763Y0151340D01*
X0138164Y0150940D01*
X0139765Y0150940D01*
X0140165Y0151340D01*
X0140165Y0152141D01*
X0139765Y0152541D01*
X0138164Y0152541D01*
X0137763Y0149779D02*
X0140165Y0149779D01*
X0137763Y0148177D01*
X0140165Y0148177D01*
X0140165Y0147136D02*
X0140165Y0146336D01*
X0140165Y0146736D02*
X0137763Y0146736D01*
X0137763Y0146336D02*
X0137763Y0147136D01*
X0137763Y0145175D02*
X0139765Y0145175D01*
X0140165Y0144774D01*
X0140165Y0143974D01*
X0139765Y0143573D01*
X0137763Y0143573D01*
X0138164Y0142412D02*
X0137763Y0142012D01*
X0137763Y0140811D01*
X0140165Y0140811D01*
X0140165Y0142012D01*
X0139765Y0142412D01*
X0138164Y0142412D01*
X0138164Y0139650D02*
X0138964Y0139650D01*
X0139365Y0139250D01*
X0139365Y0138049D01*
X0140165Y0138049D02*
X0137763Y0138049D01*
X0137763Y0139250D01*
X0138164Y0139650D01*
X0139365Y0138849D02*
X0140165Y0139650D01*
X0140165Y0136888D02*
X0138564Y0136888D01*
X0137763Y0136087D01*
X0138564Y0135286D01*
X0140165Y0135286D01*
X0138964Y0135286D02*
X0138964Y0136888D01*
X0305262Y0160818D02*
X0305829Y0160251D01*
X0308098Y0160251D01*
X0308665Y0160818D01*
X0308665Y0161952D01*
X0308098Y0162519D01*
X0306964Y0162519D01*
X0306964Y0161385D01*
X0305829Y0162519D02*
X0305262Y0161952D01*
X0305262Y0160818D01*
X0305262Y0163934D02*
X0308665Y0166202D01*
X0305262Y0166202D01*
X0305262Y0167617D02*
X0305262Y0169318D01*
X0305829Y0169885D01*
X0308098Y0169885D01*
X0308665Y0169318D01*
X0308665Y0167617D01*
X0305262Y0167617D01*
X0305262Y0163934D02*
X0308665Y0163934D01*
X0315262Y0163934D02*
X0318665Y0166202D01*
X0315262Y0166202D01*
X0315262Y0167617D02*
X0315262Y0169318D01*
X0315829Y0169885D01*
X0318098Y0169885D01*
X0318665Y0169318D01*
X0318665Y0167617D01*
X0315262Y0167617D01*
X0315262Y0163934D02*
X0318665Y0163934D01*
X0318098Y0162519D02*
X0316964Y0162519D01*
X0316964Y0161385D01*
X0318098Y0162519D02*
X0318665Y0161952D01*
X0318665Y0160818D01*
X0318098Y0160251D01*
X0315829Y0160251D01*
X0315262Y0160818D01*
X0315262Y0161952D01*
X0315829Y0162519D01*
X0324695Y0165729D02*
X0325262Y0165729D01*
X0326397Y0165729D02*
X0328665Y0165729D01*
X0328665Y0166296D02*
X0328665Y0165161D01*
X0327531Y0163747D02*
X0325262Y0163747D01*
X0326397Y0165161D02*
X0326397Y0165729D01*
X0326397Y0167617D02*
X0326397Y0169318D01*
X0326964Y0169885D01*
X0328665Y0169885D01*
X0328665Y0167617D02*
X0326397Y0167617D01*
X0327531Y0163747D02*
X0328665Y0162613D01*
X0327531Y0161478D01*
X0325262Y0161478D01*
X0362965Y0214600D02*
X0361965Y0215600D01*
X0361965Y0227100D01*
X0362965Y0214600D02*
X0400965Y0214600D01*
X0401965Y0215600D01*
X0401965Y0227100D01*
X0385465Y0240600D02*
X0358465Y0240600D01*
X0358405Y0240602D01*
X0358344Y0240607D01*
X0358285Y0240616D01*
X0358226Y0240629D01*
X0358167Y0240645D01*
X0358110Y0240665D01*
X0358055Y0240688D01*
X0358000Y0240715D01*
X0357948Y0240744D01*
X0357897Y0240777D01*
X0357848Y0240813D01*
X0357802Y0240851D01*
X0357758Y0240893D01*
X0357716Y0240937D01*
X0357678Y0240983D01*
X0357642Y0241032D01*
X0357609Y0241083D01*
X0357580Y0241135D01*
X0357553Y0241190D01*
X0357530Y0241245D01*
X0357510Y0241302D01*
X0357494Y0241361D01*
X0357481Y0241420D01*
X0357472Y0241479D01*
X0357467Y0241540D01*
X0357465Y0241600D01*
X0357465Y0251600D01*
X0357467Y0251660D01*
X0357472Y0251721D01*
X0357481Y0251780D01*
X0357494Y0251839D01*
X0357510Y0251898D01*
X0357530Y0251955D01*
X0357553Y0252010D01*
X0357580Y0252065D01*
X0357609Y0252117D01*
X0357642Y0252168D01*
X0357678Y0252217D01*
X0357716Y0252263D01*
X0357758Y0252307D01*
X0357802Y0252349D01*
X0357848Y0252387D01*
X0357897Y0252423D01*
X0357948Y0252456D01*
X0358000Y0252485D01*
X0358055Y0252512D01*
X0358110Y0252535D01*
X0358167Y0252555D01*
X0358226Y0252571D01*
X0358285Y0252584D01*
X0358344Y0252593D01*
X0358405Y0252598D01*
X0358465Y0252600D01*
X0385465Y0252600D01*
X0385525Y0252598D01*
X0385586Y0252593D01*
X0385645Y0252584D01*
X0385704Y0252571D01*
X0385763Y0252555D01*
X0385820Y0252535D01*
X0385875Y0252512D01*
X0385930Y0252485D01*
X0385982Y0252456D01*
X0386033Y0252423D01*
X0386082Y0252387D01*
X0386128Y0252349D01*
X0386172Y0252307D01*
X0386214Y0252263D01*
X0386252Y0252217D01*
X0386288Y0252168D01*
X0386321Y0252117D01*
X0386350Y0252065D01*
X0386377Y0252010D01*
X0386400Y0251955D01*
X0386420Y0251898D01*
X0386436Y0251839D01*
X0386449Y0251780D01*
X0386458Y0251721D01*
X0386463Y0251660D01*
X0386465Y0251600D01*
X0386465Y0241600D01*
X0386463Y0241540D01*
X0386458Y0241479D01*
X0386449Y0241420D01*
X0386436Y0241361D01*
X0386420Y0241302D01*
X0386400Y0241245D01*
X0386377Y0241190D01*
X0386350Y0241135D01*
X0386321Y0241083D01*
X0386288Y0241032D01*
X0386252Y0240983D01*
X0386214Y0240937D01*
X0386172Y0240893D01*
X0386128Y0240851D01*
X0386082Y0240813D01*
X0386033Y0240777D01*
X0385982Y0240744D01*
X0385930Y0240715D01*
X0385875Y0240688D01*
X0385820Y0240665D01*
X0385763Y0240645D01*
X0385704Y0240629D01*
X0385645Y0240616D01*
X0385586Y0240607D01*
X0385525Y0240602D01*
X0385465Y0240600D01*
X0377965Y0246600D02*
X0373265Y0246600D01*
X0370765Y0246600D02*
X0365965Y0246600D01*
X0422465Y0251600D02*
X0422465Y0241600D01*
X0422467Y0241540D01*
X0422472Y0241479D01*
X0422481Y0241420D01*
X0422494Y0241361D01*
X0422510Y0241302D01*
X0422530Y0241245D01*
X0422553Y0241190D01*
X0422580Y0241135D01*
X0422609Y0241083D01*
X0422642Y0241032D01*
X0422678Y0240983D01*
X0422716Y0240937D01*
X0422758Y0240893D01*
X0422802Y0240851D01*
X0422848Y0240813D01*
X0422897Y0240777D01*
X0422948Y0240744D01*
X0423000Y0240715D01*
X0423055Y0240688D01*
X0423110Y0240665D01*
X0423167Y0240645D01*
X0423226Y0240629D01*
X0423285Y0240616D01*
X0423344Y0240607D01*
X0423405Y0240602D01*
X0423465Y0240600D01*
X0450465Y0240600D01*
X0450525Y0240602D01*
X0450586Y0240607D01*
X0450645Y0240616D01*
X0450704Y0240629D01*
X0450763Y0240645D01*
X0450820Y0240665D01*
X0450875Y0240688D01*
X0450930Y0240715D01*
X0450982Y0240744D01*
X0451033Y0240777D01*
X0451082Y0240813D01*
X0451128Y0240851D01*
X0451172Y0240893D01*
X0451214Y0240937D01*
X0451252Y0240983D01*
X0451288Y0241032D01*
X0451321Y0241083D01*
X0451350Y0241135D01*
X0451377Y0241190D01*
X0451400Y0241245D01*
X0451420Y0241302D01*
X0451436Y0241361D01*
X0451449Y0241420D01*
X0451458Y0241479D01*
X0451463Y0241540D01*
X0451465Y0241600D01*
X0451465Y0251600D01*
X0451463Y0251660D01*
X0451458Y0251721D01*
X0451449Y0251780D01*
X0451436Y0251839D01*
X0451420Y0251898D01*
X0451400Y0251955D01*
X0451377Y0252010D01*
X0451350Y0252065D01*
X0451321Y0252117D01*
X0451288Y0252168D01*
X0451252Y0252217D01*
X0451214Y0252263D01*
X0451172Y0252307D01*
X0451128Y0252349D01*
X0451082Y0252387D01*
X0451033Y0252423D01*
X0450982Y0252456D01*
X0450930Y0252485D01*
X0450875Y0252512D01*
X0450820Y0252535D01*
X0450763Y0252555D01*
X0450704Y0252571D01*
X0450645Y0252584D01*
X0450586Y0252593D01*
X0450525Y0252598D01*
X0450465Y0252600D01*
X0423465Y0252600D01*
X0423405Y0252598D01*
X0423344Y0252593D01*
X0423285Y0252584D01*
X0423226Y0252571D01*
X0423167Y0252555D01*
X0423110Y0252535D01*
X0423055Y0252512D01*
X0423000Y0252485D01*
X0422948Y0252456D01*
X0422897Y0252423D01*
X0422848Y0252387D01*
X0422802Y0252349D01*
X0422758Y0252307D01*
X0422716Y0252263D01*
X0422678Y0252217D01*
X0422642Y0252168D01*
X0422609Y0252117D01*
X0422580Y0252065D01*
X0422553Y0252010D01*
X0422530Y0251955D01*
X0422510Y0251898D01*
X0422494Y0251839D01*
X0422481Y0251780D01*
X0422472Y0251721D01*
X0422467Y0251660D01*
X0422465Y0251600D01*
X0430965Y0246600D02*
X0435765Y0246600D01*
X0438265Y0246600D02*
X0442965Y0246600D01*
X0426965Y0227100D02*
X0426965Y0215600D01*
X0427965Y0214600D01*
X0465965Y0214600D01*
X0466965Y0215600D01*
X0466965Y0227100D01*
X0511965Y0226600D02*
X0511965Y0231600D01*
X0514465Y0234100D01*
X0529465Y0234100D01*
X0531965Y0236600D01*
X0531965Y0241600D01*
X0529465Y0244100D01*
X0514465Y0244100D01*
X0511965Y0246600D01*
X0511965Y0251600D01*
X0514465Y0254100D01*
X0529465Y0254100D01*
X0531965Y0256600D01*
X0531965Y0261600D01*
X0529465Y0264100D01*
X0514465Y0264100D01*
X0511965Y0266600D01*
X0511965Y0271600D01*
X0514465Y0274100D01*
X0529465Y0274100D01*
X0531965Y0271600D01*
X0531965Y0266600D01*
X0529465Y0264100D01*
X0529465Y0254100D02*
X0531965Y0251600D01*
X0531965Y0246600D01*
X0529465Y0244100D01*
X0514465Y0244100D02*
X0511965Y0241600D01*
X0511965Y0236600D01*
X0514465Y0234100D01*
X0511965Y0226600D02*
X0514465Y0224100D01*
X0529465Y0224100D01*
X0531965Y0226600D01*
X0531965Y0231600D01*
X0529465Y0234100D01*
X0529465Y0224100D02*
X0531965Y0221600D01*
X0531965Y0216600D01*
X0529465Y0214100D01*
X0514465Y0214100D01*
X0511965Y0216600D01*
X0511965Y0221600D01*
X0514465Y0224100D01*
X0514465Y0214100D02*
X0511965Y0211600D01*
X0511965Y0206600D01*
X0514465Y0204100D01*
X0529465Y0204100D02*
X0531965Y0206600D01*
X0531965Y0211600D01*
X0529465Y0214100D01*
X0535332Y0199903D02*
X0534765Y0199336D01*
X0534765Y0197067D01*
X0535332Y0196500D01*
X0536467Y0196500D01*
X0537034Y0197067D01*
X0537034Y0198201D01*
X0535900Y0198201D01*
X0537034Y0199336D02*
X0536467Y0199903D01*
X0535332Y0199903D01*
X0538448Y0199903D02*
X0540717Y0196500D01*
X0540717Y0199903D01*
X0542132Y0199903D02*
X0543833Y0199903D01*
X0544400Y0199336D01*
X0544400Y0197067D01*
X0543833Y0196500D01*
X0542132Y0196500D01*
X0542132Y0199903D01*
X0538448Y0199903D02*
X0538448Y0196500D01*
X0611965Y0250100D02*
X0611965Y0257600D01*
X0612091Y0257602D01*
X0612216Y0257608D01*
X0612341Y0257618D01*
X0612466Y0257632D01*
X0612591Y0257649D01*
X0612715Y0257671D01*
X0612838Y0257696D01*
X0612960Y0257726D01*
X0613081Y0257759D01*
X0613201Y0257796D01*
X0613320Y0257836D01*
X0613437Y0257881D01*
X0613554Y0257929D01*
X0613668Y0257981D01*
X0613781Y0258036D01*
X0613892Y0258095D01*
X0614001Y0258157D01*
X0614108Y0258223D01*
X0614213Y0258292D01*
X0614316Y0258364D01*
X0614417Y0258439D01*
X0614515Y0258518D01*
X0614610Y0258600D01*
X0614703Y0258684D01*
X0614793Y0258772D01*
X0614881Y0258862D01*
X0614965Y0258955D01*
X0615047Y0259050D01*
X0615126Y0259148D01*
X0615201Y0259249D01*
X0615273Y0259352D01*
X0615342Y0259457D01*
X0615408Y0259564D01*
X0615470Y0259673D01*
X0615529Y0259784D01*
X0615584Y0259897D01*
X0615636Y0260011D01*
X0615684Y0260128D01*
X0615729Y0260245D01*
X0615769Y0260364D01*
X0615806Y0260484D01*
X0615839Y0260605D01*
X0615869Y0260727D01*
X0615894Y0260850D01*
X0615916Y0260974D01*
X0615933Y0261099D01*
X0615947Y0261224D01*
X0615957Y0261349D01*
X0615963Y0261474D01*
X0615965Y0261600D01*
X0615963Y0261726D01*
X0615957Y0261851D01*
X0615947Y0261976D01*
X0615933Y0262101D01*
X0615916Y0262226D01*
X0615894Y0262350D01*
X0615869Y0262473D01*
X0615839Y0262595D01*
X0615806Y0262716D01*
X0615769Y0262836D01*
X0615729Y0262955D01*
X0615684Y0263072D01*
X0615636Y0263189D01*
X0615584Y0263303D01*
X0615529Y0263416D01*
X0615470Y0263527D01*
X0615408Y0263636D01*
X0615342Y0263743D01*
X0615273Y0263848D01*
X0615201Y0263951D01*
X0615126Y0264052D01*
X0615047Y0264150D01*
X0614965Y0264245D01*
X0614881Y0264338D01*
X0614793Y0264428D01*
X0614703Y0264516D01*
X0614610Y0264600D01*
X0614515Y0264682D01*
X0614417Y0264761D01*
X0614316Y0264836D01*
X0614213Y0264908D01*
X0614108Y0264977D01*
X0614001Y0265043D01*
X0613892Y0265105D01*
X0613781Y0265164D01*
X0613668Y0265219D01*
X0613554Y0265271D01*
X0613437Y0265319D01*
X0613320Y0265364D01*
X0613201Y0265404D01*
X0613081Y0265441D01*
X0612960Y0265474D01*
X0612838Y0265504D01*
X0612715Y0265529D01*
X0612591Y0265551D01*
X0612466Y0265568D01*
X0612341Y0265582D01*
X0612216Y0265592D01*
X0612091Y0265598D01*
X0611965Y0265600D01*
X0611965Y0273100D01*
X0651965Y0273100D01*
X0651965Y0250100D01*
X0611965Y0250100D01*
X0531965Y0276600D02*
X0531965Y0281600D01*
X0529465Y0284100D01*
X0514465Y0284100D01*
X0511965Y0281600D01*
X0511965Y0276600D01*
X0514465Y0274100D01*
X0514465Y0284100D02*
X0511965Y0286600D01*
X0511965Y0291600D01*
X0514465Y0294100D01*
X0529465Y0294100D01*
X0531965Y0296600D01*
X0531965Y0301600D01*
X0529465Y0304100D01*
X0514465Y0304100D01*
X0511965Y0306600D01*
X0511965Y0311600D01*
X0514465Y0314100D01*
X0529465Y0314100D01*
X0531965Y0316600D01*
X0531965Y0321600D01*
X0529465Y0324100D01*
X0514465Y0324100D01*
X0511965Y0326600D01*
X0511965Y0331600D01*
X0514465Y0334100D01*
X0529465Y0334100D01*
X0531965Y0336600D01*
X0531965Y0341600D01*
X0529465Y0344100D01*
X0514465Y0344100D01*
X0511965Y0346600D01*
X0511965Y0351600D01*
X0514465Y0354100D01*
X0529465Y0354100D01*
X0531965Y0351600D01*
X0531965Y0346600D01*
X0529465Y0344100D01*
X0529465Y0334100D02*
X0531965Y0331600D01*
X0531965Y0326600D01*
X0529465Y0324100D01*
X0514465Y0324100D02*
X0511965Y0321600D01*
X0511965Y0316600D01*
X0514465Y0314100D01*
X0514465Y0304100D02*
X0511965Y0301600D01*
X0511965Y0296600D01*
X0514465Y0294100D01*
X0529465Y0294100D02*
X0531965Y0291600D01*
X0531965Y0286600D01*
X0529465Y0284100D01*
X0531965Y0276600D02*
X0529465Y0274100D01*
X0514465Y0264100D02*
X0511965Y0261600D01*
X0511965Y0256600D01*
X0514465Y0254100D01*
X0529465Y0304100D02*
X0531965Y0306600D01*
X0531965Y0311600D01*
X0529465Y0314100D01*
X0514465Y0334100D02*
X0511965Y0336600D01*
X0511965Y0341600D01*
X0514465Y0344100D01*
X0514465Y0354100D02*
X0511965Y0356600D01*
X0511965Y0361600D01*
X0514465Y0364100D01*
X0529465Y0364100D02*
X0531965Y0361600D01*
X0531965Y0356600D01*
X0529465Y0354100D01*
X0705335Y0288911D02*
X0705335Y0229911D01*
X0706135Y0229911D01*
X0706135Y0288911D01*
X0732135Y0288911D01*
X0741536Y0288911D01*
X0741536Y0229911D01*
X0732135Y0229911D01*
X0706135Y0229911D01*
X0709336Y0239710D02*
X0709338Y0239799D01*
X0709344Y0239888D01*
X0709354Y0239977D01*
X0709368Y0240065D01*
X0709385Y0240152D01*
X0709407Y0240238D01*
X0709433Y0240324D01*
X0709462Y0240408D01*
X0709495Y0240491D01*
X0709531Y0240572D01*
X0709572Y0240652D01*
X0709615Y0240729D01*
X0709662Y0240805D01*
X0709713Y0240878D01*
X0709766Y0240949D01*
X0709823Y0241018D01*
X0709883Y0241084D01*
X0709946Y0241148D01*
X0710011Y0241208D01*
X0710079Y0241266D01*
X0710150Y0241320D01*
X0710223Y0241371D01*
X0710298Y0241419D01*
X0710375Y0241464D01*
X0710454Y0241505D01*
X0710535Y0241542D01*
X0710617Y0241576D01*
X0710701Y0241607D01*
X0710786Y0241633D01*
X0710872Y0241656D01*
X0710959Y0241674D01*
X0711047Y0241689D01*
X0711136Y0241700D01*
X0711225Y0241707D01*
X0711314Y0241710D01*
X0711403Y0241709D01*
X0711492Y0241704D01*
X0711580Y0241695D01*
X0711669Y0241682D01*
X0711756Y0241665D01*
X0711843Y0241645D01*
X0711929Y0241620D01*
X0712013Y0241592D01*
X0712096Y0241560D01*
X0712178Y0241524D01*
X0712258Y0241485D01*
X0712336Y0241442D01*
X0712412Y0241396D01*
X0712486Y0241346D01*
X0712558Y0241293D01*
X0712627Y0241237D01*
X0712694Y0241178D01*
X0712758Y0241116D01*
X0712819Y0241052D01*
X0712878Y0240984D01*
X0712933Y0240914D01*
X0712985Y0240842D01*
X0713034Y0240767D01*
X0713079Y0240691D01*
X0713121Y0240612D01*
X0713159Y0240532D01*
X0713194Y0240450D01*
X0713225Y0240366D01*
X0713253Y0240281D01*
X0713276Y0240195D01*
X0713296Y0240108D01*
X0713312Y0240021D01*
X0713324Y0239932D01*
X0713332Y0239844D01*
X0713336Y0239755D01*
X0713336Y0239665D01*
X0713332Y0239576D01*
X0713324Y0239488D01*
X0713312Y0239399D01*
X0713296Y0239312D01*
X0713276Y0239225D01*
X0713253Y0239139D01*
X0713225Y0239054D01*
X0713194Y0238970D01*
X0713159Y0238888D01*
X0713121Y0238808D01*
X0713079Y0238729D01*
X0713034Y0238653D01*
X0712985Y0238578D01*
X0712933Y0238506D01*
X0712878Y0238436D01*
X0712819Y0238368D01*
X0712758Y0238304D01*
X0712694Y0238242D01*
X0712627Y0238183D01*
X0712558Y0238127D01*
X0712486Y0238074D01*
X0712412Y0238024D01*
X0712336Y0237978D01*
X0712258Y0237935D01*
X0712178Y0237896D01*
X0712096Y0237860D01*
X0712013Y0237828D01*
X0711929Y0237800D01*
X0711843Y0237775D01*
X0711756Y0237755D01*
X0711669Y0237738D01*
X0711580Y0237725D01*
X0711492Y0237716D01*
X0711403Y0237711D01*
X0711314Y0237710D01*
X0711225Y0237713D01*
X0711136Y0237720D01*
X0711047Y0237731D01*
X0710959Y0237746D01*
X0710872Y0237764D01*
X0710786Y0237787D01*
X0710701Y0237813D01*
X0710617Y0237844D01*
X0710535Y0237878D01*
X0710454Y0237915D01*
X0710375Y0237956D01*
X0710298Y0238001D01*
X0710223Y0238049D01*
X0710150Y0238100D01*
X0710079Y0238154D01*
X0710011Y0238212D01*
X0709946Y0238272D01*
X0709883Y0238336D01*
X0709823Y0238402D01*
X0709766Y0238471D01*
X0709713Y0238542D01*
X0709662Y0238615D01*
X0709615Y0238691D01*
X0709572Y0238768D01*
X0709531Y0238848D01*
X0709495Y0238929D01*
X0709462Y0239012D01*
X0709433Y0239096D01*
X0709407Y0239182D01*
X0709385Y0239268D01*
X0709368Y0239355D01*
X0709354Y0239443D01*
X0709344Y0239532D01*
X0709338Y0239621D01*
X0709336Y0239710D01*
X0732135Y0236210D02*
X0732135Y0229911D01*
X0732135Y0243210D02*
X0732135Y0255911D01*
X0732135Y0262911D02*
X0732135Y0275612D01*
X0732135Y0282612D02*
X0732135Y0288911D01*
X0709336Y0279110D02*
X0709338Y0279199D01*
X0709344Y0279288D01*
X0709354Y0279377D01*
X0709368Y0279465D01*
X0709385Y0279552D01*
X0709407Y0279638D01*
X0709433Y0279724D01*
X0709462Y0279808D01*
X0709495Y0279891D01*
X0709531Y0279972D01*
X0709572Y0280052D01*
X0709615Y0280129D01*
X0709662Y0280205D01*
X0709713Y0280278D01*
X0709766Y0280349D01*
X0709823Y0280418D01*
X0709883Y0280484D01*
X0709946Y0280548D01*
X0710011Y0280608D01*
X0710079Y0280666D01*
X0710150Y0280720D01*
X0710223Y0280771D01*
X0710298Y0280819D01*
X0710375Y0280864D01*
X0710454Y0280905D01*
X0710535Y0280942D01*
X0710617Y0280976D01*
X0710701Y0281007D01*
X0710786Y0281033D01*
X0710872Y0281056D01*
X0710959Y0281074D01*
X0711047Y0281089D01*
X0711136Y0281100D01*
X0711225Y0281107D01*
X0711314Y0281110D01*
X0711403Y0281109D01*
X0711492Y0281104D01*
X0711580Y0281095D01*
X0711669Y0281082D01*
X0711756Y0281065D01*
X0711843Y0281045D01*
X0711929Y0281020D01*
X0712013Y0280992D01*
X0712096Y0280960D01*
X0712178Y0280924D01*
X0712258Y0280885D01*
X0712336Y0280842D01*
X0712412Y0280796D01*
X0712486Y0280746D01*
X0712558Y0280693D01*
X0712627Y0280637D01*
X0712694Y0280578D01*
X0712758Y0280516D01*
X0712819Y0280452D01*
X0712878Y0280384D01*
X0712933Y0280314D01*
X0712985Y0280242D01*
X0713034Y0280167D01*
X0713079Y0280091D01*
X0713121Y0280012D01*
X0713159Y0279932D01*
X0713194Y0279850D01*
X0713225Y0279766D01*
X0713253Y0279681D01*
X0713276Y0279595D01*
X0713296Y0279508D01*
X0713312Y0279421D01*
X0713324Y0279332D01*
X0713332Y0279244D01*
X0713336Y0279155D01*
X0713336Y0279065D01*
X0713332Y0278976D01*
X0713324Y0278888D01*
X0713312Y0278799D01*
X0713296Y0278712D01*
X0713276Y0278625D01*
X0713253Y0278539D01*
X0713225Y0278454D01*
X0713194Y0278370D01*
X0713159Y0278288D01*
X0713121Y0278208D01*
X0713079Y0278129D01*
X0713034Y0278053D01*
X0712985Y0277978D01*
X0712933Y0277906D01*
X0712878Y0277836D01*
X0712819Y0277768D01*
X0712758Y0277704D01*
X0712694Y0277642D01*
X0712627Y0277583D01*
X0712558Y0277527D01*
X0712486Y0277474D01*
X0712412Y0277424D01*
X0712336Y0277378D01*
X0712258Y0277335D01*
X0712178Y0277296D01*
X0712096Y0277260D01*
X0712013Y0277228D01*
X0711929Y0277200D01*
X0711843Y0277175D01*
X0711756Y0277155D01*
X0711669Y0277138D01*
X0711580Y0277125D01*
X0711492Y0277116D01*
X0711403Y0277111D01*
X0711314Y0277110D01*
X0711225Y0277113D01*
X0711136Y0277120D01*
X0711047Y0277131D01*
X0710959Y0277146D01*
X0710872Y0277164D01*
X0710786Y0277187D01*
X0710701Y0277213D01*
X0710617Y0277244D01*
X0710535Y0277278D01*
X0710454Y0277315D01*
X0710375Y0277356D01*
X0710298Y0277401D01*
X0710223Y0277449D01*
X0710150Y0277500D01*
X0710079Y0277554D01*
X0710011Y0277612D01*
X0709946Y0277672D01*
X0709883Y0277736D01*
X0709823Y0277802D01*
X0709766Y0277871D01*
X0709713Y0277942D01*
X0709662Y0278015D01*
X0709615Y0278091D01*
X0709572Y0278168D01*
X0709531Y0278248D01*
X0709495Y0278329D01*
X0709462Y0278412D01*
X0709433Y0278496D01*
X0709407Y0278582D01*
X0709385Y0278668D01*
X0709368Y0278755D01*
X0709354Y0278843D01*
X0709344Y0278932D01*
X0709338Y0279021D01*
X0709336Y0279110D01*
X0706135Y0288911D02*
X0705335Y0288911D01*
X0709336Y0259410D02*
X0709338Y0259499D01*
X0709344Y0259588D01*
X0709354Y0259677D01*
X0709368Y0259765D01*
X0709385Y0259852D01*
X0709407Y0259938D01*
X0709433Y0260024D01*
X0709462Y0260108D01*
X0709495Y0260191D01*
X0709531Y0260272D01*
X0709572Y0260352D01*
X0709615Y0260429D01*
X0709662Y0260505D01*
X0709713Y0260578D01*
X0709766Y0260649D01*
X0709823Y0260718D01*
X0709883Y0260784D01*
X0709946Y0260848D01*
X0710011Y0260908D01*
X0710079Y0260966D01*
X0710150Y0261020D01*
X0710223Y0261071D01*
X0710298Y0261119D01*
X0710375Y0261164D01*
X0710454Y0261205D01*
X0710535Y0261242D01*
X0710617Y0261276D01*
X0710701Y0261307D01*
X0710786Y0261333D01*
X0710872Y0261356D01*
X0710959Y0261374D01*
X0711047Y0261389D01*
X0711136Y0261400D01*
X0711225Y0261407D01*
X0711314Y0261410D01*
X0711403Y0261409D01*
X0711492Y0261404D01*
X0711580Y0261395D01*
X0711669Y0261382D01*
X0711756Y0261365D01*
X0711843Y0261345D01*
X0711929Y0261320D01*
X0712013Y0261292D01*
X0712096Y0261260D01*
X0712178Y0261224D01*
X0712258Y0261185D01*
X0712336Y0261142D01*
X0712412Y0261096D01*
X0712486Y0261046D01*
X0712558Y0260993D01*
X0712627Y0260937D01*
X0712694Y0260878D01*
X0712758Y0260816D01*
X0712819Y0260752D01*
X0712878Y0260684D01*
X0712933Y0260614D01*
X0712985Y0260542D01*
X0713034Y0260467D01*
X0713079Y0260391D01*
X0713121Y0260312D01*
X0713159Y0260232D01*
X0713194Y0260150D01*
X0713225Y0260066D01*
X0713253Y0259981D01*
X0713276Y0259895D01*
X0713296Y0259808D01*
X0713312Y0259721D01*
X0713324Y0259632D01*
X0713332Y0259544D01*
X0713336Y0259455D01*
X0713336Y0259365D01*
X0713332Y0259276D01*
X0713324Y0259188D01*
X0713312Y0259099D01*
X0713296Y0259012D01*
X0713276Y0258925D01*
X0713253Y0258839D01*
X0713225Y0258754D01*
X0713194Y0258670D01*
X0713159Y0258588D01*
X0713121Y0258508D01*
X0713079Y0258429D01*
X0713034Y0258353D01*
X0712985Y0258278D01*
X0712933Y0258206D01*
X0712878Y0258136D01*
X0712819Y0258068D01*
X0712758Y0258004D01*
X0712694Y0257942D01*
X0712627Y0257883D01*
X0712558Y0257827D01*
X0712486Y0257774D01*
X0712412Y0257724D01*
X0712336Y0257678D01*
X0712258Y0257635D01*
X0712178Y0257596D01*
X0712096Y0257560D01*
X0712013Y0257528D01*
X0711929Y0257500D01*
X0711843Y0257475D01*
X0711756Y0257455D01*
X0711669Y0257438D01*
X0711580Y0257425D01*
X0711492Y0257416D01*
X0711403Y0257411D01*
X0711314Y0257410D01*
X0711225Y0257413D01*
X0711136Y0257420D01*
X0711047Y0257431D01*
X0710959Y0257446D01*
X0710872Y0257464D01*
X0710786Y0257487D01*
X0710701Y0257513D01*
X0710617Y0257544D01*
X0710535Y0257578D01*
X0710454Y0257615D01*
X0710375Y0257656D01*
X0710298Y0257701D01*
X0710223Y0257749D01*
X0710150Y0257800D01*
X0710079Y0257854D01*
X0710011Y0257912D01*
X0709946Y0257972D01*
X0709883Y0258036D01*
X0709823Y0258102D01*
X0709766Y0258171D01*
X0709713Y0258242D01*
X0709662Y0258315D01*
X0709615Y0258391D01*
X0709572Y0258468D01*
X0709531Y0258548D01*
X0709495Y0258629D01*
X0709462Y0258712D01*
X0709433Y0258796D01*
X0709407Y0258882D01*
X0709385Y0258968D01*
X0709368Y0259055D01*
X0709354Y0259143D01*
X0709344Y0259232D01*
X0709338Y0259321D01*
X0709336Y0259410D01*
X0706056Y0209399D02*
X0732056Y0209399D01*
X0741457Y0209399D01*
X0741457Y0130698D01*
X0732056Y0130698D01*
X0706056Y0130698D01*
X0705257Y0130698D01*
X0705257Y0209399D01*
X0706056Y0209399D01*
X0706056Y0130698D01*
X0709257Y0140498D02*
X0709259Y0140587D01*
X0709265Y0140676D01*
X0709275Y0140765D01*
X0709289Y0140853D01*
X0709306Y0140940D01*
X0709328Y0141026D01*
X0709354Y0141112D01*
X0709383Y0141196D01*
X0709416Y0141279D01*
X0709452Y0141360D01*
X0709493Y0141440D01*
X0709536Y0141517D01*
X0709583Y0141593D01*
X0709634Y0141666D01*
X0709687Y0141737D01*
X0709744Y0141806D01*
X0709804Y0141872D01*
X0709867Y0141936D01*
X0709932Y0141996D01*
X0710000Y0142054D01*
X0710071Y0142108D01*
X0710144Y0142159D01*
X0710219Y0142207D01*
X0710296Y0142252D01*
X0710375Y0142293D01*
X0710456Y0142330D01*
X0710538Y0142364D01*
X0710622Y0142395D01*
X0710707Y0142421D01*
X0710793Y0142444D01*
X0710880Y0142462D01*
X0710968Y0142477D01*
X0711057Y0142488D01*
X0711146Y0142495D01*
X0711235Y0142498D01*
X0711324Y0142497D01*
X0711413Y0142492D01*
X0711501Y0142483D01*
X0711590Y0142470D01*
X0711677Y0142453D01*
X0711764Y0142433D01*
X0711850Y0142408D01*
X0711934Y0142380D01*
X0712017Y0142348D01*
X0712099Y0142312D01*
X0712179Y0142273D01*
X0712257Y0142230D01*
X0712333Y0142184D01*
X0712407Y0142134D01*
X0712479Y0142081D01*
X0712548Y0142025D01*
X0712615Y0141966D01*
X0712679Y0141904D01*
X0712740Y0141840D01*
X0712799Y0141772D01*
X0712854Y0141702D01*
X0712906Y0141630D01*
X0712955Y0141555D01*
X0713000Y0141479D01*
X0713042Y0141400D01*
X0713080Y0141320D01*
X0713115Y0141238D01*
X0713146Y0141154D01*
X0713174Y0141069D01*
X0713197Y0140983D01*
X0713217Y0140896D01*
X0713233Y0140809D01*
X0713245Y0140720D01*
X0713253Y0140632D01*
X0713257Y0140543D01*
X0713257Y0140453D01*
X0713253Y0140364D01*
X0713245Y0140276D01*
X0713233Y0140187D01*
X0713217Y0140100D01*
X0713197Y0140013D01*
X0713174Y0139927D01*
X0713146Y0139842D01*
X0713115Y0139758D01*
X0713080Y0139676D01*
X0713042Y0139596D01*
X0713000Y0139517D01*
X0712955Y0139441D01*
X0712906Y0139366D01*
X0712854Y0139294D01*
X0712799Y0139224D01*
X0712740Y0139156D01*
X0712679Y0139092D01*
X0712615Y0139030D01*
X0712548Y0138971D01*
X0712479Y0138915D01*
X0712407Y0138862D01*
X0712333Y0138812D01*
X0712257Y0138766D01*
X0712179Y0138723D01*
X0712099Y0138684D01*
X0712017Y0138648D01*
X0711934Y0138616D01*
X0711850Y0138588D01*
X0711764Y0138563D01*
X0711677Y0138543D01*
X0711590Y0138526D01*
X0711501Y0138513D01*
X0711413Y0138504D01*
X0711324Y0138499D01*
X0711235Y0138498D01*
X0711146Y0138501D01*
X0711057Y0138508D01*
X0710968Y0138519D01*
X0710880Y0138534D01*
X0710793Y0138552D01*
X0710707Y0138575D01*
X0710622Y0138601D01*
X0710538Y0138632D01*
X0710456Y0138666D01*
X0710375Y0138703D01*
X0710296Y0138744D01*
X0710219Y0138789D01*
X0710144Y0138837D01*
X0710071Y0138888D01*
X0710000Y0138942D01*
X0709932Y0139000D01*
X0709867Y0139060D01*
X0709804Y0139124D01*
X0709744Y0139190D01*
X0709687Y0139259D01*
X0709634Y0139330D01*
X0709583Y0139403D01*
X0709536Y0139479D01*
X0709493Y0139556D01*
X0709452Y0139636D01*
X0709416Y0139717D01*
X0709383Y0139800D01*
X0709354Y0139884D01*
X0709328Y0139970D01*
X0709306Y0140056D01*
X0709289Y0140143D01*
X0709275Y0140231D01*
X0709265Y0140320D01*
X0709259Y0140409D01*
X0709257Y0140498D01*
X0732056Y0143998D02*
X0732056Y0156698D01*
X0732056Y0163698D02*
X0732056Y0176399D01*
X0732056Y0183399D02*
X0732056Y0196096D01*
X0732056Y0203096D02*
X0732056Y0209399D01*
X0709257Y0199598D02*
X0709259Y0199687D01*
X0709265Y0199776D01*
X0709275Y0199865D01*
X0709289Y0199953D01*
X0709306Y0200040D01*
X0709328Y0200126D01*
X0709354Y0200212D01*
X0709383Y0200296D01*
X0709416Y0200379D01*
X0709452Y0200460D01*
X0709493Y0200540D01*
X0709536Y0200617D01*
X0709583Y0200693D01*
X0709634Y0200766D01*
X0709687Y0200837D01*
X0709744Y0200906D01*
X0709804Y0200972D01*
X0709867Y0201036D01*
X0709932Y0201096D01*
X0710000Y0201154D01*
X0710071Y0201208D01*
X0710144Y0201259D01*
X0710219Y0201307D01*
X0710296Y0201352D01*
X0710375Y0201393D01*
X0710456Y0201430D01*
X0710538Y0201464D01*
X0710622Y0201495D01*
X0710707Y0201521D01*
X0710793Y0201544D01*
X0710880Y0201562D01*
X0710968Y0201577D01*
X0711057Y0201588D01*
X0711146Y0201595D01*
X0711235Y0201598D01*
X0711324Y0201597D01*
X0711413Y0201592D01*
X0711501Y0201583D01*
X0711590Y0201570D01*
X0711677Y0201553D01*
X0711764Y0201533D01*
X0711850Y0201508D01*
X0711934Y0201480D01*
X0712017Y0201448D01*
X0712099Y0201412D01*
X0712179Y0201373D01*
X0712257Y0201330D01*
X0712333Y0201284D01*
X0712407Y0201234D01*
X0712479Y0201181D01*
X0712548Y0201125D01*
X0712615Y0201066D01*
X0712679Y0201004D01*
X0712740Y0200940D01*
X0712799Y0200872D01*
X0712854Y0200802D01*
X0712906Y0200730D01*
X0712955Y0200655D01*
X0713000Y0200579D01*
X0713042Y0200500D01*
X0713080Y0200420D01*
X0713115Y0200338D01*
X0713146Y0200254D01*
X0713174Y0200169D01*
X0713197Y0200083D01*
X0713217Y0199996D01*
X0713233Y0199909D01*
X0713245Y0199820D01*
X0713253Y0199732D01*
X0713257Y0199643D01*
X0713257Y0199553D01*
X0713253Y0199464D01*
X0713245Y0199376D01*
X0713233Y0199287D01*
X0713217Y0199200D01*
X0713197Y0199113D01*
X0713174Y0199027D01*
X0713146Y0198942D01*
X0713115Y0198858D01*
X0713080Y0198776D01*
X0713042Y0198696D01*
X0713000Y0198617D01*
X0712955Y0198541D01*
X0712906Y0198466D01*
X0712854Y0198394D01*
X0712799Y0198324D01*
X0712740Y0198256D01*
X0712679Y0198192D01*
X0712615Y0198130D01*
X0712548Y0198071D01*
X0712479Y0198015D01*
X0712407Y0197962D01*
X0712333Y0197912D01*
X0712257Y0197866D01*
X0712179Y0197823D01*
X0712099Y0197784D01*
X0712017Y0197748D01*
X0711934Y0197716D01*
X0711850Y0197688D01*
X0711764Y0197663D01*
X0711677Y0197643D01*
X0711590Y0197626D01*
X0711501Y0197613D01*
X0711413Y0197604D01*
X0711324Y0197599D01*
X0711235Y0197598D01*
X0711146Y0197601D01*
X0711057Y0197608D01*
X0710968Y0197619D01*
X0710880Y0197634D01*
X0710793Y0197652D01*
X0710707Y0197675D01*
X0710622Y0197701D01*
X0710538Y0197732D01*
X0710456Y0197766D01*
X0710375Y0197803D01*
X0710296Y0197844D01*
X0710219Y0197889D01*
X0710144Y0197937D01*
X0710071Y0197988D01*
X0710000Y0198042D01*
X0709932Y0198100D01*
X0709867Y0198160D01*
X0709804Y0198224D01*
X0709744Y0198290D01*
X0709687Y0198359D01*
X0709634Y0198430D01*
X0709583Y0198503D01*
X0709536Y0198579D01*
X0709493Y0198656D01*
X0709452Y0198736D01*
X0709416Y0198817D01*
X0709383Y0198900D01*
X0709354Y0198984D01*
X0709328Y0199070D01*
X0709306Y0199156D01*
X0709289Y0199243D01*
X0709275Y0199331D01*
X0709265Y0199420D01*
X0709259Y0199509D01*
X0709257Y0199598D01*
X0709257Y0179898D02*
X0709259Y0179987D01*
X0709265Y0180076D01*
X0709275Y0180165D01*
X0709289Y0180253D01*
X0709306Y0180340D01*
X0709328Y0180426D01*
X0709354Y0180512D01*
X0709383Y0180596D01*
X0709416Y0180679D01*
X0709452Y0180760D01*
X0709493Y0180840D01*
X0709536Y0180917D01*
X0709583Y0180993D01*
X0709634Y0181066D01*
X0709687Y0181137D01*
X0709744Y0181206D01*
X0709804Y0181272D01*
X0709867Y0181336D01*
X0709932Y0181396D01*
X0710000Y0181454D01*
X0710071Y0181508D01*
X0710144Y0181559D01*
X0710219Y0181607D01*
X0710296Y0181652D01*
X0710375Y0181693D01*
X0710456Y0181730D01*
X0710538Y0181764D01*
X0710622Y0181795D01*
X0710707Y0181821D01*
X0710793Y0181844D01*
X0710880Y0181862D01*
X0710968Y0181877D01*
X0711057Y0181888D01*
X0711146Y0181895D01*
X0711235Y0181898D01*
X0711324Y0181897D01*
X0711413Y0181892D01*
X0711501Y0181883D01*
X0711590Y0181870D01*
X0711677Y0181853D01*
X0711764Y0181833D01*
X0711850Y0181808D01*
X0711934Y0181780D01*
X0712017Y0181748D01*
X0712099Y0181712D01*
X0712179Y0181673D01*
X0712257Y0181630D01*
X0712333Y0181584D01*
X0712407Y0181534D01*
X0712479Y0181481D01*
X0712548Y0181425D01*
X0712615Y0181366D01*
X0712679Y0181304D01*
X0712740Y0181240D01*
X0712799Y0181172D01*
X0712854Y0181102D01*
X0712906Y0181030D01*
X0712955Y0180955D01*
X0713000Y0180879D01*
X0713042Y0180800D01*
X0713080Y0180720D01*
X0713115Y0180638D01*
X0713146Y0180554D01*
X0713174Y0180469D01*
X0713197Y0180383D01*
X0713217Y0180296D01*
X0713233Y0180209D01*
X0713245Y0180120D01*
X0713253Y0180032D01*
X0713257Y0179943D01*
X0713257Y0179853D01*
X0713253Y0179764D01*
X0713245Y0179676D01*
X0713233Y0179587D01*
X0713217Y0179500D01*
X0713197Y0179413D01*
X0713174Y0179327D01*
X0713146Y0179242D01*
X0713115Y0179158D01*
X0713080Y0179076D01*
X0713042Y0178996D01*
X0713000Y0178917D01*
X0712955Y0178841D01*
X0712906Y0178766D01*
X0712854Y0178694D01*
X0712799Y0178624D01*
X0712740Y0178556D01*
X0712679Y0178492D01*
X0712615Y0178430D01*
X0712548Y0178371D01*
X0712479Y0178315D01*
X0712407Y0178262D01*
X0712333Y0178212D01*
X0712257Y0178166D01*
X0712179Y0178123D01*
X0712099Y0178084D01*
X0712017Y0178048D01*
X0711934Y0178016D01*
X0711850Y0177988D01*
X0711764Y0177963D01*
X0711677Y0177943D01*
X0711590Y0177926D01*
X0711501Y0177913D01*
X0711413Y0177904D01*
X0711324Y0177899D01*
X0711235Y0177898D01*
X0711146Y0177901D01*
X0711057Y0177908D01*
X0710968Y0177919D01*
X0710880Y0177934D01*
X0710793Y0177952D01*
X0710707Y0177975D01*
X0710622Y0178001D01*
X0710538Y0178032D01*
X0710456Y0178066D01*
X0710375Y0178103D01*
X0710296Y0178144D01*
X0710219Y0178189D01*
X0710144Y0178237D01*
X0710071Y0178288D01*
X0710000Y0178342D01*
X0709932Y0178400D01*
X0709867Y0178460D01*
X0709804Y0178524D01*
X0709744Y0178590D01*
X0709687Y0178659D01*
X0709634Y0178730D01*
X0709583Y0178803D01*
X0709536Y0178879D01*
X0709493Y0178956D01*
X0709452Y0179036D01*
X0709416Y0179117D01*
X0709383Y0179200D01*
X0709354Y0179284D01*
X0709328Y0179370D01*
X0709306Y0179456D01*
X0709289Y0179543D01*
X0709275Y0179631D01*
X0709265Y0179720D01*
X0709259Y0179809D01*
X0709257Y0179898D01*
X0709257Y0160198D02*
X0709259Y0160287D01*
X0709265Y0160376D01*
X0709275Y0160465D01*
X0709289Y0160553D01*
X0709306Y0160640D01*
X0709328Y0160726D01*
X0709354Y0160812D01*
X0709383Y0160896D01*
X0709416Y0160979D01*
X0709452Y0161060D01*
X0709493Y0161140D01*
X0709536Y0161217D01*
X0709583Y0161293D01*
X0709634Y0161366D01*
X0709687Y0161437D01*
X0709744Y0161506D01*
X0709804Y0161572D01*
X0709867Y0161636D01*
X0709932Y0161696D01*
X0710000Y0161754D01*
X0710071Y0161808D01*
X0710144Y0161859D01*
X0710219Y0161907D01*
X0710296Y0161952D01*
X0710375Y0161993D01*
X0710456Y0162030D01*
X0710538Y0162064D01*
X0710622Y0162095D01*
X0710707Y0162121D01*
X0710793Y0162144D01*
X0710880Y0162162D01*
X0710968Y0162177D01*
X0711057Y0162188D01*
X0711146Y0162195D01*
X0711235Y0162198D01*
X0711324Y0162197D01*
X0711413Y0162192D01*
X0711501Y0162183D01*
X0711590Y0162170D01*
X0711677Y0162153D01*
X0711764Y0162133D01*
X0711850Y0162108D01*
X0711934Y0162080D01*
X0712017Y0162048D01*
X0712099Y0162012D01*
X0712179Y0161973D01*
X0712257Y0161930D01*
X0712333Y0161884D01*
X0712407Y0161834D01*
X0712479Y0161781D01*
X0712548Y0161725D01*
X0712615Y0161666D01*
X0712679Y0161604D01*
X0712740Y0161540D01*
X0712799Y0161472D01*
X0712854Y0161402D01*
X0712906Y0161330D01*
X0712955Y0161255D01*
X0713000Y0161179D01*
X0713042Y0161100D01*
X0713080Y0161020D01*
X0713115Y0160938D01*
X0713146Y0160854D01*
X0713174Y0160769D01*
X0713197Y0160683D01*
X0713217Y0160596D01*
X0713233Y0160509D01*
X0713245Y0160420D01*
X0713253Y0160332D01*
X0713257Y0160243D01*
X0713257Y0160153D01*
X0713253Y0160064D01*
X0713245Y0159976D01*
X0713233Y0159887D01*
X0713217Y0159800D01*
X0713197Y0159713D01*
X0713174Y0159627D01*
X0713146Y0159542D01*
X0713115Y0159458D01*
X0713080Y0159376D01*
X0713042Y0159296D01*
X0713000Y0159217D01*
X0712955Y0159141D01*
X0712906Y0159066D01*
X0712854Y0158994D01*
X0712799Y0158924D01*
X0712740Y0158856D01*
X0712679Y0158792D01*
X0712615Y0158730D01*
X0712548Y0158671D01*
X0712479Y0158615D01*
X0712407Y0158562D01*
X0712333Y0158512D01*
X0712257Y0158466D01*
X0712179Y0158423D01*
X0712099Y0158384D01*
X0712017Y0158348D01*
X0711934Y0158316D01*
X0711850Y0158288D01*
X0711764Y0158263D01*
X0711677Y0158243D01*
X0711590Y0158226D01*
X0711501Y0158213D01*
X0711413Y0158204D01*
X0711324Y0158199D01*
X0711235Y0158198D01*
X0711146Y0158201D01*
X0711057Y0158208D01*
X0710968Y0158219D01*
X0710880Y0158234D01*
X0710793Y0158252D01*
X0710707Y0158275D01*
X0710622Y0158301D01*
X0710538Y0158332D01*
X0710456Y0158366D01*
X0710375Y0158403D01*
X0710296Y0158444D01*
X0710219Y0158489D01*
X0710144Y0158537D01*
X0710071Y0158588D01*
X0710000Y0158642D01*
X0709932Y0158700D01*
X0709867Y0158760D01*
X0709804Y0158824D01*
X0709744Y0158890D01*
X0709687Y0158959D01*
X0709634Y0159030D01*
X0709583Y0159103D01*
X0709536Y0159179D01*
X0709493Y0159256D01*
X0709452Y0159336D01*
X0709416Y0159417D01*
X0709383Y0159500D01*
X0709354Y0159584D01*
X0709328Y0159670D01*
X0709306Y0159756D01*
X0709289Y0159843D01*
X0709275Y0159931D01*
X0709265Y0160020D01*
X0709259Y0160109D01*
X0709257Y0160198D01*
X0732056Y0136998D02*
X0732056Y0130698D01*
D17*
X0543765Y0194100D02*
X0531965Y0194100D01*
X0526965Y0193900D02*
X0526965Y0190900D01*
X0516965Y0190900D01*
X0516965Y0193800D01*
X0438265Y0244100D02*
X0438265Y0246600D01*
X0438265Y0249100D01*
X0435765Y0249100D02*
X0435765Y0246600D01*
X0435765Y0244100D01*
X0373265Y0244100D02*
X0373265Y0246600D01*
X0373265Y0249100D01*
X0370765Y0249100D02*
X0370765Y0246600D01*
X0370765Y0244100D01*
X0513965Y0376900D02*
X0516965Y0376900D01*
X0526965Y0376900D01*
X0526965Y0374300D01*
X0516965Y0374400D02*
X0516965Y0376900D01*
D18*
X0512440Y0377353D02*
X0512440Y0375351D01*
X0511439Y0374350D01*
X0510438Y0375351D01*
X0510438Y0377353D01*
X0509217Y0377353D02*
X0507215Y0377353D01*
X0507215Y0375851D01*
X0508216Y0376352D01*
X0508716Y0376352D01*
X0509217Y0375851D01*
X0509217Y0374850D01*
X0508716Y0374350D01*
X0507716Y0374350D01*
X0507215Y0374850D01*
X0653653Y0254603D02*
X0653653Y0251601D01*
X0654404Y0250850D01*
X0655905Y0250850D01*
X0656656Y0251601D01*
X0656656Y0254603D01*
X0655905Y0255354D01*
X0654404Y0255354D01*
X0653653Y0254603D01*
X0658257Y0255354D02*
X0658257Y0250850D01*
X0658257Y0252351D02*
X0661260Y0255354D01*
X0662861Y0253853D02*
X0664363Y0255354D01*
X0664363Y0250850D01*
X0665864Y0250850D02*
X0662861Y0250850D01*
X0661260Y0250850D02*
X0659008Y0253102D01*
X0692341Y0254051D02*
X0696844Y0257054D01*
X0696844Y0258655D02*
X0696844Y0260156D01*
X0696844Y0259406D02*
X0692341Y0259406D01*
X0692341Y0260156D02*
X0692341Y0258655D01*
X0692341Y0257054D02*
X0696844Y0254051D01*
X0696844Y0261724D02*
X0692341Y0261724D01*
X0696844Y0264727D01*
X0692341Y0264727D01*
X0695054Y0189631D02*
X0699557Y0189631D01*
X0695054Y0186629D01*
X0699557Y0186629D01*
X0699557Y0185061D02*
X0699557Y0183559D01*
X0699557Y0184310D02*
X0695054Y0184310D01*
X0695054Y0183559D02*
X0695054Y0185061D01*
X0695804Y0181958D02*
X0697305Y0181958D01*
X0698056Y0181207D01*
X0698056Y0178955D01*
X0699557Y0178955D02*
X0695054Y0178955D01*
X0695054Y0181207D01*
X0695804Y0181958D01*
X0698056Y0180457D02*
X0699557Y0181958D01*
X0699557Y0177354D02*
X0695054Y0177354D01*
X0695054Y0174352D02*
X0699557Y0174352D01*
X0698056Y0175853D01*
X0699557Y0177354D01*
X0697305Y0172750D02*
X0698056Y0172000D01*
X0698056Y0169748D01*
X0699557Y0169748D02*
X0695054Y0169748D01*
X0695054Y0172000D01*
X0695804Y0172750D01*
X0697305Y0172750D01*
X0468002Y0208551D02*
X0467252Y0207800D01*
X0465750Y0207800D01*
X0465000Y0208551D01*
X0463398Y0208551D02*
X0462648Y0207800D01*
X0461147Y0207800D01*
X0460396Y0208551D01*
X0460396Y0211553D01*
X0461147Y0212304D01*
X0462648Y0212304D01*
X0463398Y0211553D01*
X0465000Y0211553D02*
X0465750Y0212304D01*
X0467252Y0212304D01*
X0468002Y0211553D01*
X0468002Y0210803D01*
X0467252Y0210052D01*
X0468002Y0209301D01*
X0468002Y0208551D01*
X0467252Y0210052D02*
X0466501Y0210052D01*
X0458828Y0212304D02*
X0457327Y0212304D01*
X0458077Y0212304D02*
X0458077Y0207800D01*
X0457327Y0207800D02*
X0458828Y0207800D01*
X0401252Y0210302D02*
X0398250Y0210302D01*
X0400502Y0212554D01*
X0400502Y0208050D01*
X0396648Y0208801D02*
X0395898Y0208050D01*
X0394397Y0208050D01*
X0393646Y0208801D01*
X0393646Y0211803D01*
X0394397Y0212554D01*
X0395898Y0212554D01*
X0396648Y0211803D01*
X0392078Y0212554D02*
X0390577Y0212554D01*
X0391327Y0212554D02*
X0391327Y0208050D01*
X0390577Y0208050D02*
X0392078Y0208050D01*
X0176790Y0237798D02*
X0176790Y0240800D01*
X0176790Y0239299D02*
X0172286Y0239299D01*
X0173037Y0242402D02*
X0176790Y0242402D01*
X0176790Y0245404D02*
X0173037Y0245404D01*
X0172286Y0244654D01*
X0172286Y0243152D01*
X0173037Y0242402D01*
X0173037Y0247006D02*
X0176040Y0247006D01*
X0176790Y0247756D01*
X0176790Y0249258D01*
X0176040Y0250008D01*
X0173037Y0250008D01*
X0172286Y0249258D01*
X0172286Y0247756D01*
X0173037Y0247006D01*
X0172286Y0251610D02*
X0173788Y0253111D01*
X0173788Y0252360D02*
X0173788Y0254612D01*
X0172286Y0254612D02*
X0176790Y0254612D01*
X0176790Y0252360D01*
X0176040Y0251610D01*
X0174538Y0251610D01*
X0173788Y0252360D01*
X0172286Y0256214D02*
X0176790Y0256214D01*
X0176790Y0259216D02*
X0172286Y0259216D01*
X0173788Y0257715D01*
X0172286Y0256214D01*
X0174538Y0260818D02*
X0173788Y0261568D01*
X0173788Y0263820D01*
X0172286Y0263820D02*
X0176790Y0263820D01*
X0176790Y0261568D01*
X0176040Y0260818D01*
X0174538Y0260818D01*
X0179840Y0480966D02*
X0179840Y0483969D01*
X0179840Y0482467D02*
X0175336Y0482467D01*
X0176087Y0485570D02*
X0179840Y0485570D01*
X0179840Y0488572D02*
X0176087Y0488572D01*
X0175336Y0487822D01*
X0175336Y0486321D01*
X0176087Y0485570D01*
X0176087Y0490174D02*
X0179090Y0490174D01*
X0179840Y0490924D01*
X0179840Y0492426D01*
X0179090Y0493176D01*
X0176087Y0493176D01*
X0175336Y0492426D01*
X0175336Y0490924D01*
X0176087Y0490174D01*
X0175336Y0494778D02*
X0179840Y0497780D01*
X0179840Y0494778D02*
X0175336Y0497780D01*
D19*
X0363765Y0217000D03*
X0428765Y0217000D03*
D20*
X0429715Y0229100D03*
X0464215Y0229100D03*
X0399215Y0229100D03*
X0364715Y0229100D03*
D21*
X0371965Y0230100D03*
X0381965Y0230100D03*
X0391965Y0230100D03*
X0436965Y0230100D03*
X0446965Y0230100D03*
X0456965Y0230100D03*
D22*
X0451965Y0229100D03*
X0441965Y0229100D03*
X0386965Y0229100D03*
X0376965Y0229100D03*
M02*
