%
M48
M72
T01C0.02756
T02C0.03200
T03C0.03543
T04C0.03600
T05C0.03937
T06C0.04000
T07C0.04700
T08C0.11811
T09C0.12598
%
T01
X261965Y426600
X334465Y459100
T02
X616965Y276600
X626965Y276600
X636965Y276600
X646965Y276600
X646965Y246600
X636965Y246600
X626965Y246600
X616965Y246600
X471965Y246600
X461965Y246600
X446965Y246600
X426965Y246600
X406965Y246600
X396965Y246600
X381965Y246600
X361965Y246600
T03
X396965Y356895
X426965Y356895
X626965Y301600
X656965Y301600
X656965Y226600
X656965Y214100
X626965Y214100
X626965Y226600
X189465Y439395
X189465Y469395
T04
X212590Y373475
X355090Y436600
X386965Y436600
X408215Y436600
X411340Y342225
X418215Y325975
T05
X396965Y459395
X386965Y459395
X376965Y459395
X366965Y459395
X371965Y469395
X381965Y469395
X391965Y469395
X401965Y469395
X466965Y459395
X476965Y459395
X486965Y459395
X496965Y459395
X491965Y469395
X481965Y469395
X471965Y469395
X501965Y469395
X566965Y459395
X576965Y459395
X586965Y459395
X581965Y469395
X571965Y469395
X591965Y469395
X601965Y469395
X596965Y459395
X301965Y469395
X291965Y469395
X281965Y469395
X271965Y469395
X266965Y459395
X276965Y459395
X286965Y459395
X296965Y459395
T06
X300965Y369100
X290965Y369100
X280965Y369100
X270965Y369100
X260965Y369100
X250965Y369100
X240965Y369100
X310965Y369100
X326965Y369100
X336965Y369100
X346965Y369100
X356965Y369100
X366965Y369100
X376965Y369100
X386965Y369100
X396965Y369100
X516965Y369100
X526965Y369100
X526965Y249100
X516965Y249100
X516965Y239100
X526965Y239100
X526965Y199100
X516965Y199100
X456965Y221600
X446965Y221600
X436965Y221600
X391965Y221600
X381965Y221600
X371965Y221600
X326965Y179100
X316965Y179100
X306965Y179100
X296965Y179100
X286965Y179100
X276965Y179100
T07
X148886Y221303
X148886Y240988
X148886Y260673
X148886Y280358
X149386Y449710
X149386Y469395
X149386Y489080
X725036Y279080
X725036Y259395
X725036Y239710
X724957Y199553
X724957Y179868
X724957Y160183
X724957Y140498
T08
X177044Y125970
X177044Y410616
X653816Y410616
X653816Y125970
T09
X606965Y494395
X561965Y494395
X506965Y494395
X461965Y494395
X406965Y494395
X361965Y494395
X306965Y494395
X261965Y494395
M30
