G75*
%MOIN*%
%OFA0B0*%
%FSLAX25Y25*%
%IPPOS*%
%LPD*%
%AMOC8*
5,1,8,0,0,1.08239X$1,22.5*
%
%ADD10C,0.07400*%
%ADD11R,0.07400X0.07400*%
%ADD12OC8,0.07400*%
%ADD13C,0.05600*%
%ADD14C,0.07100*%
%ADD15C,0.06400*%
%ADD16OC8,0.06300*%
%ADD17OC8,0.05600*%
%ADD18C,0.02000*%
%ADD19OC8,0.07600*%
%ADD20C,0.01600*%
%ADD21C,0.04000*%
%ADD22C,0.02400*%
%ADD23OC8,0.06756*%
D10*
X0276965Y0179100D03*
X0286965Y0179100D03*
X0296965Y0179100D03*
X0306965Y0179100D03*
X0316965Y0179100D03*
X0326965Y0179100D03*
X0516965Y0199100D03*
X0526965Y0199100D03*
X0626965Y0214100D03*
X0626965Y0226600D03*
X0656965Y0226600D03*
X0656965Y0214100D03*
X0656965Y0301600D03*
X0626965Y0301600D03*
X0526965Y0369100D03*
X0516965Y0369100D03*
X0426965Y0356895D03*
X0396965Y0356895D03*
X0396965Y0369100D03*
X0386965Y0369100D03*
X0376965Y0369100D03*
X0366965Y0369100D03*
X0356965Y0369100D03*
X0346965Y0369100D03*
X0336965Y0369100D03*
X0326965Y0369100D03*
X0310965Y0369100D03*
X0300965Y0369100D03*
X0290965Y0369100D03*
X0280965Y0369100D03*
X0270965Y0369100D03*
X0260965Y0369100D03*
X0250965Y0369100D03*
X0240965Y0369100D03*
X0189465Y0439395D03*
X0189465Y0469395D03*
X0266965Y0459395D03*
X0276965Y0459395D03*
X0286965Y0459395D03*
X0296965Y0459395D03*
X0291965Y0469395D03*
X0281965Y0469395D03*
X0271965Y0469395D03*
X0366965Y0459395D03*
X0376965Y0459395D03*
X0386965Y0459395D03*
X0396965Y0459395D03*
X0391965Y0469395D03*
X0381965Y0469395D03*
X0371965Y0469395D03*
X0466965Y0459395D03*
X0476965Y0459395D03*
X0486965Y0459395D03*
X0496965Y0459395D03*
X0491965Y0469395D03*
X0481965Y0469395D03*
X0471965Y0469395D03*
X0566965Y0459395D03*
X0576965Y0459395D03*
X0586965Y0459395D03*
X0581965Y0469395D03*
X0571965Y0469395D03*
X0591965Y0469395D03*
X0596965Y0459395D03*
D11*
X0601965Y0469395D03*
X0501965Y0469395D03*
X0401965Y0469395D03*
X0301965Y0469395D03*
D12*
X0516965Y0249100D03*
X0526965Y0249100D03*
X0526965Y0239100D03*
X0516965Y0239100D03*
D13*
X0616965Y0241000D02*
X0616965Y0246600D01*
X0626965Y0246600D02*
X0626965Y0241000D01*
X0636965Y0241000D02*
X0636965Y0246600D01*
X0646965Y0246600D02*
X0646965Y0241000D01*
X0646965Y0276600D02*
X0646965Y0282200D01*
X0636965Y0282200D02*
X0636965Y0276600D01*
X0626965Y0276600D02*
X0626965Y0282200D01*
X0616965Y0282200D02*
X0616965Y0276600D01*
D14*
X0721486Y0279080D02*
X0728586Y0279080D01*
X0728586Y0259395D02*
X0721486Y0259395D01*
X0721486Y0239710D02*
X0728586Y0239710D01*
X0728507Y0199553D02*
X0721407Y0199553D01*
X0721407Y0179868D02*
X0728507Y0179868D01*
X0728507Y0160183D02*
X0721407Y0160183D01*
X0721407Y0140498D02*
X0728507Y0140498D01*
X0152436Y0221303D02*
X0145336Y0221303D01*
X0145336Y0240988D02*
X0152436Y0240988D01*
X0152436Y0260673D02*
X0145336Y0260673D01*
X0145336Y0280358D02*
X0152436Y0280358D01*
X0152936Y0449710D02*
X0145836Y0449710D01*
X0145836Y0469395D02*
X0152936Y0469395D01*
X0152936Y0489080D02*
X0145836Y0489080D01*
D15*
X0371965Y0224800D02*
X0371965Y0218400D01*
X0381965Y0218400D02*
X0381965Y0224800D01*
X0391965Y0224800D02*
X0391965Y0218400D01*
X0436965Y0218400D02*
X0436965Y0224800D01*
X0446965Y0224800D02*
X0446965Y0218400D01*
X0456965Y0218400D02*
X0456965Y0224800D01*
D16*
X0446965Y0246600D03*
X0426965Y0246600D03*
X0381965Y0246600D03*
X0361965Y0246600D03*
D17*
X0396965Y0246600D03*
X0406965Y0246600D03*
X0461965Y0246600D03*
X0471965Y0246600D03*
D18*
X0471965Y0236600D01*
X0456965Y0221600D01*
X0406965Y0236600D02*
X0406965Y0246600D01*
X0406340Y0247225D01*
X0406340Y0328475D01*
X0411340Y0338475D01*
X0411340Y0342225D01*
X0399465Y0345350D02*
X0415090Y0370975D01*
X0415090Y0467850D01*
X0406965Y0477225D01*
X0396965Y0477225D01*
X0391965Y0470975D01*
X0391965Y0469395D01*
X0401965Y0469395D02*
X0408215Y0463145D01*
X0408215Y0436600D01*
X0386965Y0436600D02*
X0386965Y0459395D01*
X0376965Y0459395D02*
X0376965Y0434100D01*
X0346965Y0404100D01*
X0346965Y0369100D01*
X0366965Y0369100D02*
X0380715Y0345350D01*
X0399465Y0345350D01*
X0376965Y0369100D02*
X0376965Y0386600D01*
X0396965Y0406600D01*
X0396965Y0459395D01*
X0396965Y0459100D01*
X0381965Y0469395D02*
X0381965Y0469725D01*
X0375715Y0478475D01*
X0364465Y0478475D01*
X0355090Y0461600D01*
X0355090Y0436600D01*
X0376965Y0459100D02*
X0376965Y0459395D01*
X0406965Y0236600D02*
X0391965Y0221600D01*
X0326965Y0179100D02*
X0365090Y0140975D01*
X0724465Y0140975D01*
X0724957Y0140498D01*
D19*
X0418215Y0325975D03*
X0411340Y0342225D03*
X0408215Y0436600D03*
X0386965Y0436600D03*
X0355090Y0436600D03*
X0212590Y0373475D03*
D20*
X0211965Y0374100D01*
X0168215Y0374100D01*
X0149386Y0392929D01*
X0149386Y0449710D01*
X0149386Y0469395D02*
X0189465Y0469395D01*
X0246965Y0456600D02*
X0246965Y0421600D01*
X0284465Y0384100D01*
X0311965Y0384100D01*
X0326965Y0369100D01*
X0336965Y0369100D02*
X0276965Y0429100D01*
X0276965Y0459395D01*
X0271965Y0469395D02*
X0259760Y0469395D01*
X0246965Y0456600D01*
X0418215Y0325975D02*
X0483215Y0265975D01*
X0629465Y0265975D01*
X0635090Y0271600D01*
X0636965Y0276600D01*
X0626965Y0276600D02*
X0626965Y0301600D01*
X0616965Y0279100D02*
X0526965Y0369100D01*
X0616965Y0279100D02*
X0616965Y0276600D01*
X0626965Y0246600D02*
X0626965Y0226600D01*
X0626965Y0214100D01*
X0641965Y0226600D02*
X0636965Y0231600D01*
X0636965Y0246600D01*
X0641965Y0226600D02*
X0656965Y0226600D01*
X0709446Y0279080D01*
X0725036Y0279080D01*
X0725036Y0259395D02*
X0724741Y0259100D01*
X0713215Y0259100D01*
X0668215Y0214100D01*
X0656965Y0214100D01*
D21*
X0724957Y0199553D02*
X0567418Y0199553D01*
X0546965Y0189100D01*
X0456965Y0189100D01*
X0436965Y0206600D01*
X0436965Y0221600D01*
X0426965Y0231600D01*
X0426965Y0246600D01*
X0371965Y0221600D02*
X0371965Y0206600D01*
X0391965Y0189100D01*
X0456965Y0189100D01*
X0371965Y0221600D02*
X0361965Y0231600D01*
X0361965Y0246600D01*
X0266965Y0246600D01*
X0226965Y0284100D01*
X0226965Y0451600D01*
X0256965Y0481600D01*
X0276965Y0481600D01*
X0281965Y0476600D01*
X0281965Y0469395D01*
D22*
X0136365Y0291400D02*
X0136365Y0116000D01*
X0174435Y0116000D01*
X0173066Y0116367D01*
X0170716Y0117724D01*
X0168797Y0119642D01*
X0167441Y0121992D01*
X0166738Y0124613D01*
X0166738Y0127327D01*
X0167441Y0129948D01*
X0168797Y0132298D01*
X0170716Y0134217D01*
X0173066Y0135573D01*
X0175687Y0136276D01*
X0178401Y0136276D01*
X0181022Y0135573D01*
X0183372Y0134217D01*
X0185290Y0132298D01*
X0186647Y0129948D01*
X0187349Y0127327D01*
X0187349Y0124613D01*
X0186647Y0121992D01*
X0185290Y0119642D01*
X0183372Y0117724D01*
X0181022Y0116367D01*
X0179652Y0116000D01*
X0651207Y0116000D01*
X0649838Y0116367D01*
X0647488Y0117724D01*
X0645569Y0119642D01*
X0644212Y0121992D01*
X0643510Y0124613D01*
X0643510Y0127327D01*
X0644212Y0129948D01*
X0645569Y0132298D01*
X0647488Y0134217D01*
X0649838Y0135573D01*
X0649844Y0135575D01*
X0364016Y0135575D01*
X0362031Y0136397D01*
X0327428Y0171000D01*
X0325354Y0171000D01*
X0322377Y0172233D01*
X0320346Y0174264D01*
X0320057Y0174054D01*
X0319230Y0173632D01*
X0318347Y0173345D01*
X0317430Y0173200D01*
X0316965Y0173200D01*
X0316965Y0179100D01*
X0316965Y0179100D01*
X0306965Y0179100D01*
X0306965Y0185000D01*
X0306501Y0185000D01*
X0305584Y0184855D01*
X0304700Y0184568D01*
X0303873Y0184146D01*
X0303584Y0183936D01*
X0301553Y0185967D01*
X0298576Y0187200D01*
X0295354Y0187200D01*
X0292377Y0185967D01*
X0291965Y0185555D01*
X0291553Y0185967D01*
X0288576Y0187200D01*
X0285354Y0187200D01*
X0282377Y0185967D01*
X0281965Y0185555D01*
X0281553Y0185967D01*
X0278576Y0187200D01*
X0275354Y0187200D01*
X0272377Y0185967D01*
X0270098Y0183688D01*
X0268865Y0180711D01*
X0268865Y0177489D01*
X0270098Y0174512D01*
X0272377Y0172233D01*
X0275354Y0171000D01*
X0278576Y0171000D01*
X0281553Y0172233D01*
X0281965Y0172645D01*
X0282377Y0172233D01*
X0285354Y0171000D01*
X0288576Y0171000D01*
X0291553Y0172233D01*
X0291965Y0172645D01*
X0292377Y0172233D01*
X0295354Y0171000D01*
X0298576Y0171000D01*
X0301553Y0172233D01*
X0303584Y0174264D01*
X0303873Y0174054D01*
X0304700Y0173632D01*
X0305584Y0173345D01*
X0306501Y0173200D01*
X0306965Y0173200D01*
X0306965Y0179100D01*
X0306965Y0179100D01*
X0306965Y0179100D01*
X0306965Y0240200D01*
X0301965Y0240200D02*
X0301965Y0185555D01*
X0300025Y0186600D02*
X0323906Y0186600D01*
X0325354Y0187200D02*
X0322377Y0185967D01*
X0320346Y0183936D01*
X0320057Y0184146D01*
X0319230Y0184568D01*
X0318347Y0184855D01*
X0317430Y0185000D01*
X0316965Y0185000D01*
X0316501Y0185000D01*
X0315584Y0184855D01*
X0314700Y0184568D01*
X0313873Y0184146D01*
X0313122Y0183600D01*
X0312465Y0182944D01*
X0311965Y0182256D01*
X0311965Y0240200D01*
X0316965Y0240200D02*
X0316965Y0179100D01*
X0311065Y0179100D01*
X0306965Y0179100D01*
X0306965Y0116000D01*
X0301965Y0116000D02*
X0301965Y0172645D01*
X0300025Y0171600D02*
X0323905Y0171600D01*
X0321965Y0172645D02*
X0321965Y0116000D01*
X0316965Y0116000D02*
X0316965Y0179100D01*
X0316965Y0185000D01*
X0316965Y0179100D01*
X0316965Y0179100D01*
X0316965Y0179100D01*
X0316965Y0173200D01*
X0316501Y0173200D01*
X0315584Y0173345D01*
X0314700Y0173632D01*
X0313873Y0174054D01*
X0313122Y0174600D01*
X0312465Y0175256D01*
X0311965Y0175944D01*
X0311965Y0116000D01*
X0296965Y0116000D02*
X0296965Y0171000D01*
X0293905Y0171600D02*
X0290025Y0171600D01*
X0291965Y0172645D02*
X0291965Y0116000D01*
X0286965Y0116000D02*
X0286965Y0171000D01*
X0283905Y0171600D02*
X0280025Y0171600D01*
X0281965Y0172645D02*
X0281965Y0116000D01*
X0276965Y0116000D02*
X0276965Y0171000D01*
X0273905Y0171600D02*
X0136365Y0171600D01*
X0136365Y0166600D02*
X0331828Y0166600D01*
X0331965Y0166463D02*
X0331965Y0116000D01*
X0326965Y0116000D02*
X0326965Y0171000D01*
X0335065Y0178637D02*
X0335065Y0180711D01*
X0333832Y0183688D01*
X0331553Y0185967D01*
X0328576Y0187200D01*
X0325354Y0187200D01*
X0326965Y0187200D02*
X0326965Y0240200D01*
X0321965Y0240200D02*
X0321965Y0185555D01*
X0316965Y0181600D02*
X0316965Y0181600D01*
X0316965Y0176600D02*
X0316965Y0176600D01*
X0311965Y0175944D02*
X0311465Y0175256D01*
X0310809Y0174600D01*
X0310057Y0174054D01*
X0309230Y0173632D01*
X0308347Y0173345D01*
X0307430Y0173200D01*
X0306965Y0173200D01*
X0306965Y0179100D01*
X0306965Y0185000D01*
X0307430Y0185000D01*
X0308347Y0184855D01*
X0309230Y0184568D01*
X0310057Y0184146D01*
X0310809Y0183600D01*
X0311465Y0182944D01*
X0311965Y0182256D01*
X0311965Y0179100D02*
X0311965Y0179100D01*
X0306965Y0179100D02*
X0306965Y0179100D01*
X0306965Y0176600D02*
X0306965Y0176600D01*
X0306965Y0181600D02*
X0306965Y0181600D01*
X0296965Y0187200D02*
X0296965Y0240200D01*
X0291965Y0240200D02*
X0291965Y0185555D01*
X0290025Y0186600D02*
X0293906Y0186600D01*
X0286965Y0187200D02*
X0286965Y0240200D01*
X0281965Y0240200D02*
X0281965Y0185555D01*
X0280025Y0186600D02*
X0283906Y0186600D01*
X0276965Y0187200D02*
X0276965Y0240200D01*
X0271965Y0240200D02*
X0271965Y0185555D01*
X0273906Y0186600D02*
X0136365Y0186600D01*
X0136365Y0191600D02*
X0379389Y0191600D01*
X0376965Y0193721D02*
X0376965Y0146375D01*
X0371965Y0146375D02*
X0371965Y0198096D01*
X0373675Y0196600D02*
X0136365Y0196600D01*
X0136365Y0201600D02*
X0367914Y0201600D01*
X0367590Y0201924D02*
X0368340Y0201174D01*
X0368543Y0201090D01*
X0387590Y0184424D01*
X0388340Y0183674D01*
X0388543Y0183590D01*
X0388709Y0183445D01*
X0389713Y0183106D01*
X0390692Y0182700D01*
X0390912Y0182700D01*
X0391121Y0182629D01*
X0392178Y0182700D01*
X0455912Y0182700D01*
X0456121Y0182629D01*
X0457178Y0182700D01*
X0545956Y0182700D01*
X0546206Y0182619D01*
X0547221Y0182700D01*
X0548238Y0182700D01*
X0548482Y0182801D01*
X0548744Y0182822D01*
X0549650Y0183285D01*
X0550591Y0183674D01*
X0550777Y0183861D01*
X0568959Y0193153D01*
X0716564Y0193153D01*
X0716904Y0192813D01*
X0719826Y0191603D01*
X0730089Y0191603D01*
X0733011Y0192813D01*
X0735247Y0195049D01*
X0736457Y0197971D01*
X0736457Y0201134D01*
X0735247Y0204056D01*
X0733011Y0206292D01*
X0730089Y0207503D01*
X0719826Y0207503D01*
X0716904Y0206292D01*
X0716564Y0205953D01*
X0568428Y0205953D01*
X0568177Y0206034D01*
X0567163Y0205953D01*
X0566145Y0205953D01*
X0565902Y0205852D01*
X0565639Y0205831D01*
X0564733Y0205368D01*
X0563793Y0204978D01*
X0563606Y0204792D01*
X0545425Y0195500D01*
X0531642Y0195500D01*
X0532011Y0196008D01*
X0532433Y0196835D01*
X0532720Y0197718D01*
X0532865Y0198636D01*
X0532865Y0199100D01*
X0532865Y0199564D01*
X0532720Y0200482D01*
X0532433Y0201365D01*
X0532011Y0202192D01*
X0531465Y0202944D01*
X0530809Y0203600D01*
X0530057Y0204146D01*
X0529230Y0204568D01*
X0528347Y0204855D01*
X0527430Y0205000D01*
X0526965Y0205000D01*
X0526501Y0205000D01*
X0525584Y0204855D01*
X0524700Y0204568D01*
X0523873Y0204146D01*
X0523122Y0203600D01*
X0522465Y0202944D01*
X0521965Y0202256D01*
X0521965Y0232645D01*
X0523610Y0231000D01*
X0530320Y0231000D01*
X0535065Y0235745D01*
X0535065Y0242455D01*
X0533420Y0244100D01*
X0535065Y0245745D01*
X0535065Y0252455D01*
X0530320Y0257200D01*
X0523610Y0257200D01*
X0521965Y0255555D01*
X0521965Y0260775D01*
X0520320Y0257200D02*
X0513610Y0257200D01*
X0508865Y0252455D01*
X0508865Y0245745D01*
X0510510Y0244100D01*
X0508865Y0242455D01*
X0508865Y0235745D01*
X0513610Y0231000D01*
X0520320Y0231000D01*
X0521965Y0232645D01*
X0520920Y0231600D02*
X0523010Y0231600D01*
X0526965Y0231000D02*
X0526965Y0199100D01*
X0526965Y0199100D01*
X0516965Y0199100D01*
X0516965Y0199100D01*
X0511065Y0199100D01*
X0511065Y0198636D01*
X0511210Y0197718D01*
X0511497Y0196835D01*
X0511919Y0196008D01*
X0512288Y0195500D01*
X0459370Y0195500D01*
X0443365Y0209504D01*
X0443365Y0214052D01*
X0443408Y0214095D01*
X0443477Y0214260D01*
X0444135Y0213782D01*
X0444892Y0213396D01*
X0445701Y0213133D01*
X0446540Y0213000D01*
X0446965Y0213000D01*
X0446965Y0221600D01*
X0446965Y0230200D01*
X0446540Y0230200D01*
X0445701Y0230067D01*
X0444892Y0229804D01*
X0444135Y0229418D01*
X0443477Y0228940D01*
X0443408Y0229105D01*
X0441270Y0231243D01*
X0438477Y0232400D01*
X0435453Y0232400D01*
X0435286Y0232330D01*
X0433365Y0234251D01*
X0433365Y0242323D01*
X0434515Y0243473D01*
X0434515Y0249727D01*
X0430093Y0254150D01*
X0423838Y0254150D01*
X0419415Y0249727D01*
X0419415Y0243473D01*
X0420565Y0242323D01*
X0420565Y0230327D01*
X0421540Y0227975D01*
X0423340Y0226174D01*
X0429365Y0220149D01*
X0429365Y0216888D01*
X0430522Y0214095D01*
X0430565Y0214052D01*
X0430565Y0207653D01*
X0430495Y0207445D01*
X0430565Y0206387D01*
X0430565Y0205327D01*
X0430649Y0205124D01*
X0430664Y0204904D01*
X0431134Y0203954D01*
X0431540Y0202975D01*
X0431695Y0202819D01*
X0431793Y0202622D01*
X0432590Y0201924D01*
X0433340Y0201174D01*
X0433543Y0201090D01*
X0439932Y0195500D01*
X0394370Y0195500D01*
X0378365Y0209504D01*
X0378365Y0214052D01*
X0378408Y0214095D01*
X0378477Y0214260D01*
X0379135Y0213782D01*
X0379892Y0213396D01*
X0380701Y0213133D01*
X0381540Y0213000D01*
X0381965Y0213000D01*
X0381965Y0221600D01*
X0381965Y0230200D01*
X0381540Y0230200D01*
X0380701Y0230067D01*
X0379892Y0229804D01*
X0379135Y0229418D01*
X0378477Y0228940D01*
X0378408Y0229105D01*
X0376270Y0231243D01*
X0373477Y0232400D01*
X0370453Y0232400D01*
X0370286Y0232330D01*
X0368365Y0234251D01*
X0368365Y0242323D01*
X0369515Y0243473D01*
X0369515Y0249727D01*
X0365093Y0254150D01*
X0358838Y0254150D01*
X0357688Y0253000D01*
X0269496Y0253000D01*
X0233365Y0286873D01*
X0233365Y0366282D01*
X0234098Y0364512D01*
X0236377Y0362233D01*
X0239354Y0361000D01*
X0242576Y0361000D01*
X0245553Y0362233D01*
X0245965Y0362645D01*
X0246377Y0362233D01*
X0249354Y0361000D01*
X0252576Y0361000D01*
X0255553Y0362233D01*
X0255965Y0362645D01*
X0256377Y0362233D01*
X0259354Y0361000D01*
X0262576Y0361000D01*
X0265553Y0362233D01*
X0265965Y0362645D01*
X0266377Y0362233D01*
X0269354Y0361000D01*
X0272576Y0361000D01*
X0275553Y0362233D01*
X0275965Y0362645D01*
X0276377Y0362233D01*
X0279354Y0361000D01*
X0282576Y0361000D01*
X0285553Y0362233D01*
X0285965Y0362645D01*
X0286377Y0362233D01*
X0289354Y0361000D01*
X0292576Y0361000D01*
X0295553Y0362233D01*
X0295965Y0362645D01*
X0296377Y0362233D01*
X0299354Y0361000D01*
X0302576Y0361000D01*
X0305553Y0362233D01*
X0305965Y0362645D01*
X0306377Y0362233D01*
X0309354Y0361000D01*
X0312576Y0361000D01*
X0315553Y0362233D01*
X0317832Y0364512D01*
X0318965Y0367247D01*
X0320098Y0364512D01*
X0322377Y0362233D01*
X0325354Y0361000D01*
X0328576Y0361000D01*
X0331553Y0362233D01*
X0331965Y0362645D01*
X0331965Y0253000D01*
X0326965Y0253000D02*
X0326965Y0361000D01*
X0323905Y0361600D02*
X0314025Y0361600D01*
X0311965Y0361000D02*
X0311965Y0253000D01*
X0306965Y0253000D02*
X0306965Y0361989D01*
X0307905Y0361600D02*
X0304025Y0361600D01*
X0301965Y0361000D02*
X0301965Y0253000D01*
X0296965Y0253000D02*
X0296965Y0361989D01*
X0297905Y0361600D02*
X0294025Y0361600D01*
X0291965Y0361000D02*
X0291965Y0253000D01*
X0286965Y0253000D02*
X0286965Y0361989D01*
X0287905Y0361600D02*
X0284025Y0361600D01*
X0281965Y0361000D02*
X0281965Y0253000D01*
X0276965Y0253000D02*
X0276965Y0361989D01*
X0277905Y0361600D02*
X0274025Y0361600D01*
X0271965Y0361000D02*
X0271965Y0253000D01*
X0266965Y0255373D02*
X0266965Y0361989D01*
X0267905Y0361600D02*
X0264025Y0361600D01*
X0261965Y0361000D02*
X0261965Y0260060D01*
X0260323Y0261600D02*
X0400940Y0261600D01*
X0400940Y0256600D02*
X0265656Y0256600D01*
X0256965Y0264748D02*
X0256965Y0361989D01*
X0257905Y0361600D02*
X0254025Y0361600D01*
X0251965Y0361000D02*
X0251965Y0269435D01*
X0249656Y0271600D02*
X0400940Y0271600D01*
X0400940Y0266600D02*
X0254989Y0266600D01*
X0246965Y0274123D02*
X0246965Y0361989D01*
X0247905Y0361600D02*
X0244025Y0361600D01*
X0241965Y0361000D02*
X0241965Y0278810D01*
X0244323Y0276600D02*
X0400940Y0276600D01*
X0400940Y0281600D02*
X0238989Y0281600D01*
X0236965Y0283498D02*
X0236965Y0361989D01*
X0237905Y0361600D02*
X0233365Y0361600D01*
X0233365Y0356600D02*
X0367962Y0356600D01*
X0366965Y0358322D02*
X0366965Y0252277D01*
X0367643Y0251600D02*
X0379399Y0251600D01*
X0379749Y0251950D02*
X0376615Y0248816D01*
X0376615Y0246600D01*
X0376615Y0244384D01*
X0379749Y0241250D01*
X0381965Y0241250D01*
X0381965Y0246600D01*
X0369515Y0246600D01*
X0368365Y0241600D02*
X0379399Y0241600D01*
X0381965Y0241600D02*
X0381965Y0241600D01*
X0381965Y0241250D02*
X0384181Y0241250D01*
X0387315Y0244384D01*
X0387315Y0246600D01*
X0387315Y0248816D01*
X0384181Y0251950D01*
X0381965Y0251950D01*
X0379749Y0251950D01*
X0381965Y0251950D02*
X0381965Y0246600D01*
X0381965Y0246600D01*
X0376615Y0246600D01*
X0381965Y0246600D01*
X0381965Y0246600D01*
X0381965Y0246600D01*
X0381965Y0339950D01*
X0381072Y0339950D02*
X0399046Y0339950D01*
X0399694Y0339849D01*
X0400110Y0339950D01*
X0400539Y0339950D01*
X0401145Y0340201D01*
X0401781Y0340355D01*
X0402128Y0340608D01*
X0402524Y0340772D01*
X0402987Y0341235D01*
X0403140Y0341347D01*
X0403140Y0338828D01*
X0404700Y0337269D01*
X0401902Y0331674D01*
X0401762Y0331534D01*
X0401425Y0330719D01*
X0401030Y0329929D01*
X0401016Y0329732D01*
X0400940Y0329549D01*
X0400940Y0328667D01*
X0400878Y0327786D01*
X0400940Y0327599D01*
X0400940Y0250757D01*
X0400410Y0250227D01*
X0399036Y0251600D01*
X0396965Y0251600D01*
X0394894Y0251600D01*
X0391965Y0248671D01*
X0391965Y0339950D01*
X0386965Y0339950D02*
X0386965Y0249166D01*
X0386965Y0246600D02*
X0386965Y0246600D01*
X0387315Y0246600D02*
X0381965Y0246600D01*
X0381965Y0221600D01*
X0381965Y0221600D01*
X0381965Y0221600D01*
X0381965Y0206354D01*
X0381684Y0206600D02*
X0430551Y0206600D01*
X0431965Y0202471D02*
X0431965Y0195500D01*
X0426965Y0195500D02*
X0426965Y0222549D01*
X0427914Y0221600D02*
X0399602Y0221600D01*
X0399565Y0221563D02*
X0410024Y0232022D01*
X0411543Y0233541D01*
X0412365Y0235526D01*
X0412365Y0241818D01*
X0414165Y0243618D01*
X0414165Y0249582D01*
X0411740Y0252007D01*
X0411740Y0320853D01*
X0414819Y0317775D01*
X0419432Y0317775D01*
X0479612Y0262225D01*
X0480270Y0261567D01*
X0480369Y0261525D01*
X0480448Y0261452D01*
X0481321Y0261131D01*
X0482181Y0260775D01*
X0482289Y0260775D01*
X0482390Y0260738D01*
X0483319Y0260775D01*
X0630500Y0260775D01*
X0632411Y0261567D01*
X0633874Y0263029D01*
X0638100Y0267256D01*
X0638184Y0267294D01*
X0638829Y0267985D01*
X0639499Y0268654D01*
X0639534Y0268739D01*
X0639596Y0268806D01*
X0639928Y0269692D01*
X0640099Y0270105D01*
X0641044Y0270496D01*
X0643069Y0272522D01*
X0643334Y0273160D01*
X0643708Y0272786D01*
X0644345Y0272324D01*
X0645046Y0271966D01*
X0645794Y0271723D01*
X0646572Y0271600D01*
X0642148Y0271600D01*
X0641965Y0271418D02*
X0641965Y0251782D01*
X0641044Y0252704D01*
X0638397Y0253800D01*
X0635533Y0253800D01*
X0632887Y0252704D01*
X0631965Y0251782D01*
X0631044Y0252704D01*
X0628397Y0253800D01*
X0625533Y0253800D01*
X0622887Y0252704D01*
X0621965Y0251782D01*
X0621965Y0260775D01*
X0616965Y0260775D02*
X0616965Y0253800D01*
X0615533Y0253800D02*
X0612887Y0252704D01*
X0610861Y0250678D01*
X0609765Y0248032D01*
X0609765Y0239568D01*
X0610861Y0236922D01*
X0612887Y0234896D01*
X0615533Y0233800D01*
X0618397Y0233800D01*
X0621044Y0234896D01*
X0621765Y0235618D01*
X0621765Y0232855D01*
X0620098Y0231188D01*
X0618865Y0228211D01*
X0618865Y0224989D01*
X0620098Y0222012D01*
X0621760Y0220350D01*
X0620098Y0218688D01*
X0618865Y0215711D01*
X0618865Y0212489D01*
X0620098Y0209512D01*
X0622377Y0207233D01*
X0625354Y0206000D01*
X0628576Y0206000D01*
X0631553Y0207233D01*
X0633832Y0209512D01*
X0635065Y0212489D01*
X0635065Y0215711D01*
X0633832Y0218688D01*
X0632170Y0220350D01*
X0633832Y0222012D01*
X0635065Y0224989D01*
X0635065Y0226146D01*
X0639020Y0222192D01*
X0640931Y0221400D01*
X0650710Y0221400D01*
X0651760Y0220350D01*
X0650098Y0218688D01*
X0648865Y0215711D01*
X0648865Y0212489D01*
X0650098Y0209512D01*
X0652377Y0207233D01*
X0655354Y0206000D01*
X0658576Y0206000D01*
X0661553Y0207233D01*
X0663220Y0208900D01*
X0669250Y0208900D01*
X0671161Y0209692D01*
X0715369Y0253900D01*
X0715738Y0253900D01*
X0716983Y0252656D01*
X0719905Y0251445D01*
X0730167Y0251445D01*
X0733089Y0252656D01*
X0735326Y0254892D01*
X0736536Y0257814D01*
X0736536Y0260977D01*
X0735326Y0263899D01*
X0733089Y0266135D01*
X0730167Y0267345D01*
X0719905Y0267345D01*
X0716983Y0266135D01*
X0715148Y0264300D01*
X0712181Y0264300D01*
X0710270Y0263508D01*
X0708807Y0262046D01*
X0708807Y0262046D01*
X0666061Y0219300D01*
X0663220Y0219300D01*
X0662170Y0220350D01*
X0663832Y0222012D01*
X0665065Y0224989D01*
X0665065Y0227346D01*
X0711599Y0273880D01*
X0715443Y0273880D01*
X0716983Y0272341D01*
X0719905Y0271130D01*
X0730167Y0271130D01*
X0733089Y0272341D01*
X0735326Y0274577D01*
X0736536Y0277499D01*
X0736536Y0280662D01*
X0735326Y0283584D01*
X0733089Y0285820D01*
X0730167Y0287030D01*
X0719905Y0287030D01*
X0716983Y0285820D01*
X0715443Y0284280D01*
X0708411Y0284280D01*
X0706500Y0283489D01*
X0705037Y0282026D01*
X0657711Y0234700D01*
X0655354Y0234700D01*
X0652377Y0233467D01*
X0650710Y0231800D01*
X0644119Y0231800D01*
X0642165Y0233754D01*
X0642165Y0235618D01*
X0642887Y0234896D01*
X0645533Y0233800D01*
X0648397Y0233800D01*
X0651044Y0234896D01*
X0653069Y0236922D01*
X0654165Y0239568D01*
X0654165Y0248032D01*
X0653069Y0250678D01*
X0651044Y0252704D01*
X0648397Y0253800D01*
X0645533Y0253800D01*
X0642887Y0252704D01*
X0641965Y0251782D01*
X0636965Y0253800D02*
X0636965Y0266121D01*
X0637444Y0266600D02*
X0689611Y0266600D01*
X0691965Y0268954D02*
X0691965Y0501214D01*
X0686965Y0501214D02*
X0686965Y0263954D01*
X0684611Y0261600D02*
X0632444Y0261600D01*
X0631965Y0261382D02*
X0631965Y0251782D01*
X0626965Y0253800D02*
X0626965Y0260775D01*
X0621044Y0252704D02*
X0618397Y0253800D01*
X0615533Y0253800D01*
X0611965Y0251782D02*
X0611965Y0260775D01*
X0606965Y0260775D02*
X0606965Y0205953D01*
X0601965Y0205953D02*
X0601965Y0260775D01*
X0596965Y0260775D02*
X0596965Y0205953D01*
X0591965Y0205953D02*
X0591965Y0260775D01*
X0586965Y0260775D02*
X0586965Y0205953D01*
X0581965Y0205953D02*
X0581965Y0260775D01*
X0576965Y0260775D02*
X0576965Y0205953D01*
X0571965Y0205953D02*
X0571965Y0260775D01*
X0566965Y0260775D02*
X0566965Y0205953D01*
X0561965Y0203953D02*
X0561965Y0260775D01*
X0556965Y0260775D02*
X0556965Y0201398D01*
X0557360Y0201600D02*
X0532313Y0201600D01*
X0531965Y0202256D02*
X0531965Y0232645D01*
X0530920Y0231600D02*
X0620510Y0231600D01*
X0616965Y0233800D02*
X0616965Y0205953D01*
X0611965Y0205953D02*
X0611965Y0235818D01*
X0611183Y0236600D02*
X0535065Y0236600D01*
X0535065Y0241600D02*
X0609765Y0241600D01*
X0609765Y0246600D02*
X0535065Y0246600D01*
X0535065Y0251600D02*
X0611783Y0251600D01*
X0621044Y0252704D02*
X0621965Y0251782D01*
X0612208Y0271175D02*
X0485248Y0271175D01*
X0426415Y0325482D01*
X0426415Y0329372D01*
X0421612Y0334175D01*
X0415228Y0334175D01*
X0415568Y0334857D01*
X0419540Y0338828D01*
X0419540Y0345622D01*
X0414737Y0350425D01*
X0408884Y0350425D01*
X0419365Y0367613D01*
X0419668Y0367916D01*
X0419919Y0368521D01*
X0420260Y0369081D01*
X0420326Y0369505D01*
X0420490Y0369901D01*
X0420490Y0370556D01*
X0420591Y0371203D01*
X0420490Y0371620D01*
X0420490Y0467657D01*
X0420553Y0468537D01*
X0420490Y0468725D01*
X0420490Y0468924D01*
X0420153Y0469739D01*
X0419874Y0470575D01*
X0419744Y0470725D01*
X0419668Y0470909D01*
X0419045Y0471532D01*
X0411619Y0480100D01*
X0411543Y0480284D01*
X0410920Y0480907D01*
X0410342Y0481573D01*
X0410165Y0481662D01*
X0410024Y0481803D01*
X0409210Y0482140D01*
X0408421Y0482535D01*
X0408223Y0482549D01*
X0408039Y0482625D01*
X0407158Y0482625D01*
X0406279Y0482688D01*
X0406090Y0482625D01*
X0397732Y0482625D01*
X0397436Y0482711D01*
X0396666Y0482625D01*
X0395891Y0482625D01*
X0395607Y0482507D01*
X0395301Y0482473D01*
X0394622Y0482100D01*
X0393906Y0481803D01*
X0393689Y0481585D01*
X0393420Y0481437D01*
X0392935Y0480832D01*
X0392387Y0480284D01*
X0392270Y0480000D01*
X0390222Y0477441D01*
X0387377Y0476262D01*
X0386965Y0475850D01*
X0386553Y0476262D01*
X0383576Y0477495D01*
X0383051Y0477495D01*
X0380468Y0481112D01*
X0380293Y0481534D01*
X0379850Y0481977D01*
X0379485Y0482488D01*
X0379097Y0482730D01*
X0378774Y0483053D01*
X0378195Y0483293D01*
X0377662Y0483625D01*
X0377212Y0483700D01*
X0376789Y0483875D01*
X0376162Y0483875D01*
X0375543Y0483978D01*
X0375098Y0483875D01*
X0364774Y0483875D01*
X0364261Y0483934D01*
X0366095Y0484425D01*
X0368535Y0485834D01*
X0370527Y0487826D01*
X0371935Y0490266D01*
X0372664Y0492987D01*
X0372664Y0495804D01*
X0371935Y0498525D01*
X0370527Y0500965D01*
X0370288Y0501204D01*
X0398644Y0501205D01*
X0398404Y0500965D01*
X0396995Y0498525D01*
X0396266Y0495804D01*
X0396266Y0492987D01*
X0396995Y0490266D01*
X0398404Y0487826D01*
X0400396Y0485834D01*
X0402835Y0484425D01*
X0405557Y0483696D01*
X0408374Y0483696D01*
X0411095Y0484425D01*
X0413535Y0485834D01*
X0415527Y0487826D01*
X0416935Y0490266D01*
X0417664Y0492987D01*
X0417664Y0495804D01*
X0416935Y0498525D01*
X0415527Y0500965D01*
X0415286Y0501205D01*
X0453645Y0501206D01*
X0453404Y0500965D01*
X0451995Y0498525D01*
X0451266Y0495804D01*
X0451266Y0492987D01*
X0451995Y0490266D01*
X0453404Y0487826D01*
X0455396Y0485834D01*
X0457835Y0484425D01*
X0460557Y0483696D01*
X0463374Y0483696D01*
X0466095Y0484425D01*
X0468535Y0485834D01*
X0470527Y0487826D01*
X0471935Y0490266D01*
X0472664Y0492987D01*
X0472664Y0495804D01*
X0471935Y0498525D01*
X0470527Y0500965D01*
X0470284Y0501207D01*
X0498647Y0501208D01*
X0498404Y0500965D01*
X0496995Y0498525D01*
X0496266Y0495804D01*
X0496266Y0492987D01*
X0496995Y0490266D01*
X0498404Y0487826D01*
X0500396Y0485834D01*
X0502835Y0484425D01*
X0505557Y0483696D01*
X0508374Y0483696D01*
X0511095Y0484425D01*
X0513535Y0485834D01*
X0515527Y0487826D01*
X0516935Y0490266D01*
X0517664Y0492987D01*
X0517664Y0495804D01*
X0516935Y0498525D01*
X0515527Y0500965D01*
X0515283Y0501208D01*
X0553649Y0501210D01*
X0553404Y0500965D01*
X0551995Y0498525D01*
X0551266Y0495804D01*
X0551266Y0492987D01*
X0551995Y0490266D01*
X0553404Y0487826D01*
X0555396Y0485834D01*
X0557835Y0484425D01*
X0560557Y0483696D01*
X0563374Y0483696D01*
X0566095Y0484425D01*
X0568535Y0485834D01*
X0570527Y0487826D01*
X0571935Y0490266D01*
X0572664Y0492987D01*
X0572664Y0495804D01*
X0571935Y0498525D01*
X0570527Y0500965D01*
X0570281Y0501210D01*
X0598650Y0501211D01*
X0598404Y0500965D01*
X0596995Y0498525D01*
X0596266Y0495804D01*
X0596266Y0492987D01*
X0596995Y0490266D01*
X0598404Y0487826D01*
X0600396Y0485834D01*
X0602835Y0484425D01*
X0605557Y0483696D01*
X0608374Y0483696D01*
X0611095Y0484425D01*
X0613535Y0485834D01*
X0615527Y0487826D01*
X0616935Y0490266D01*
X0617664Y0492987D01*
X0617664Y0495804D01*
X0616935Y0498525D01*
X0615527Y0500965D01*
X0615280Y0501212D01*
X0737801Y0501216D01*
X0737801Y0116000D01*
X0656424Y0116000D01*
X0657793Y0116367D01*
X0660143Y0117724D01*
X0662062Y0119642D01*
X0663419Y0121992D01*
X0664121Y0124613D01*
X0664121Y0127327D01*
X0663419Y0129948D01*
X0662062Y0132298D01*
X0660143Y0134217D01*
X0657793Y0135573D01*
X0657787Y0135575D01*
X0715087Y0135575D01*
X0716904Y0133758D01*
X0719826Y0132548D01*
X0730089Y0132548D01*
X0733011Y0133758D01*
X0735247Y0135994D01*
X0736457Y0138916D01*
X0736457Y0142079D01*
X0735247Y0145001D01*
X0733011Y0147237D01*
X0730089Y0148448D01*
X0719826Y0148448D01*
X0716904Y0147237D01*
X0716042Y0146375D01*
X0367327Y0146375D01*
X0335065Y0178637D01*
X0336965Y0176737D02*
X0336965Y0240200D01*
X0331965Y0240200D02*
X0331965Y0185555D01*
X0330025Y0186600D02*
X0385103Y0186600D01*
X0386965Y0184971D02*
X0386965Y0146375D01*
X0381965Y0146375D02*
X0381965Y0189346D01*
X0391965Y0182686D02*
X0391965Y0146375D01*
X0396965Y0146375D02*
X0396965Y0182700D01*
X0401965Y0182700D02*
X0401965Y0146375D01*
X0406965Y0146375D02*
X0406965Y0182700D01*
X0411965Y0182700D02*
X0411965Y0146375D01*
X0416965Y0146375D02*
X0416965Y0182700D01*
X0421965Y0182700D02*
X0421965Y0146375D01*
X0426965Y0146375D02*
X0426965Y0182700D01*
X0431965Y0182700D02*
X0431965Y0146375D01*
X0436965Y0146375D02*
X0436965Y0182700D01*
X0441965Y0182700D02*
X0441965Y0146375D01*
X0446965Y0146375D02*
X0446965Y0182700D01*
X0451965Y0182700D02*
X0451965Y0146375D01*
X0456965Y0146375D02*
X0456965Y0182686D01*
X0461965Y0182700D02*
X0461965Y0146375D01*
X0466965Y0146375D02*
X0466965Y0182700D01*
X0471965Y0182700D02*
X0471965Y0146375D01*
X0476965Y0146375D02*
X0476965Y0182700D01*
X0481965Y0182700D02*
X0481965Y0146375D01*
X0486965Y0146375D02*
X0486965Y0182700D01*
X0491965Y0182700D02*
X0491965Y0146375D01*
X0496965Y0146375D02*
X0496965Y0182700D01*
X0501965Y0182700D02*
X0501965Y0146375D01*
X0506965Y0146375D02*
X0506965Y0182700D01*
X0511965Y0182700D02*
X0511965Y0146375D01*
X0516965Y0146375D02*
X0516965Y0182700D01*
X0521965Y0182700D02*
X0521965Y0146375D01*
X0526965Y0146375D02*
X0526965Y0182700D01*
X0531965Y0182700D02*
X0531965Y0146375D01*
X0536965Y0146375D02*
X0536965Y0182700D01*
X0541965Y0182700D02*
X0541965Y0146375D01*
X0546965Y0146375D02*
X0546965Y0182680D01*
X0551965Y0184468D02*
X0551965Y0146375D01*
X0556965Y0146375D02*
X0556965Y0187023D01*
X0556137Y0186600D02*
X0716897Y0186600D01*
X0716904Y0186607D02*
X0714668Y0184371D01*
X0713457Y0181449D01*
X0713457Y0178286D01*
X0714668Y0175364D01*
X0716904Y0173128D01*
X0719826Y0171918D01*
X0730089Y0171918D01*
X0733011Y0173128D01*
X0735247Y0175364D01*
X0736457Y0178286D01*
X0736457Y0181449D01*
X0735247Y0184371D01*
X0733011Y0186607D01*
X0730089Y0187818D01*
X0719826Y0187818D01*
X0716904Y0186607D01*
X0716965Y0186633D02*
X0716965Y0192788D01*
X0711965Y0193153D02*
X0711965Y0146375D01*
X0716267Y0146600D02*
X0367102Y0146600D01*
X0366965Y0146737D02*
X0366965Y0202471D01*
X0366793Y0202622D02*
X0367590Y0201924D01*
X0366793Y0202622D02*
X0366695Y0202819D01*
X0366540Y0202975D01*
X0366134Y0203954D01*
X0365664Y0204904D01*
X0365649Y0205124D01*
X0365565Y0205327D01*
X0365565Y0206387D01*
X0365495Y0207445D01*
X0365565Y0207653D01*
X0365565Y0214052D01*
X0365522Y0214095D01*
X0364365Y0216888D01*
X0364365Y0220149D01*
X0358340Y0226174D01*
X0356540Y0227975D01*
X0355565Y0230327D01*
X0355565Y0240200D01*
X0267068Y0240200D01*
X0265899Y0240162D01*
X0265799Y0240200D01*
X0265692Y0240200D01*
X0264611Y0240648D01*
X0263517Y0241060D01*
X0263439Y0241133D01*
X0263340Y0241174D01*
X0262513Y0242002D01*
X0223439Y0278633D01*
X0223340Y0278674D01*
X0222513Y0279502D01*
X0221659Y0280302D01*
X0221615Y0280399D01*
X0221540Y0280475D01*
X0221092Y0281556D01*
X0220610Y0282621D01*
X0220606Y0282728D01*
X0220565Y0282827D01*
X0220565Y0283997D01*
X0220527Y0285166D01*
X0220565Y0285266D01*
X0220565Y0369853D01*
X0215987Y0365275D01*
X0209194Y0365275D01*
X0205569Y0368900D01*
X0167181Y0368900D01*
X0165270Y0369692D01*
X0146441Y0388520D01*
X0144978Y0389983D01*
X0144186Y0391894D01*
X0144186Y0441789D01*
X0141333Y0442971D01*
X0139097Y0445207D01*
X0137886Y0448129D01*
X0137886Y0451292D01*
X0139097Y0454214D01*
X0141333Y0456450D01*
X0144255Y0457660D01*
X0154518Y0457660D01*
X0157440Y0456450D01*
X0159676Y0454214D01*
X0160886Y0451292D01*
X0160886Y0448129D01*
X0159676Y0445207D01*
X0157440Y0442971D01*
X0154586Y0441789D01*
X0154586Y0395083D01*
X0170369Y0379300D01*
X0206819Y0379300D01*
X0209194Y0381675D01*
X0215987Y0381675D01*
X0220565Y0377097D01*
X0220565Y0452873D01*
X0221540Y0455225D01*
X0251540Y0485225D01*
X0253340Y0487026D01*
X0253951Y0487279D01*
X0253404Y0487826D01*
X0251995Y0490266D01*
X0251266Y0492987D01*
X0251266Y0495804D01*
X0251995Y0498525D01*
X0253404Y0500965D01*
X0253639Y0501200D01*
X0136365Y0501196D01*
X0136365Y0346800D01*
X0185500Y0346800D01*
X0187411Y0346008D01*
X0188874Y0344546D01*
X0189665Y0342634D01*
X0189665Y0295566D01*
X0188874Y0293654D01*
X0187411Y0292192D01*
X0185500Y0291400D01*
X0136365Y0291400D01*
X0136965Y0291400D02*
X0136965Y0116000D01*
X0136365Y0116600D02*
X0172662Y0116600D01*
X0171965Y0117003D02*
X0171965Y0116000D01*
X0166965Y0116000D02*
X0166965Y0123767D01*
X0167667Y0121600D02*
X0136365Y0121600D01*
X0136365Y0126600D02*
X0166738Y0126600D01*
X0166965Y0128173D02*
X0166965Y0291400D01*
X0161965Y0291400D02*
X0161965Y0116000D01*
X0156965Y0116000D02*
X0156965Y0214589D01*
X0156940Y0214563D02*
X0159176Y0216800D01*
X0160386Y0219722D01*
X0160386Y0222884D01*
X0159176Y0225806D01*
X0156940Y0228043D01*
X0154018Y0229253D01*
X0143755Y0229253D01*
X0140833Y0228043D01*
X0138597Y0225806D01*
X0137386Y0222884D01*
X0137386Y0219722D01*
X0138597Y0216800D01*
X0140833Y0214563D01*
X0143755Y0213353D01*
X0154018Y0213353D01*
X0156940Y0214563D01*
X0158976Y0216600D02*
X0364485Y0216600D01*
X0365565Y0211600D02*
X0136365Y0211600D01*
X0136365Y0206600D02*
X0365551Y0206600D01*
X0378365Y0211600D02*
X0388522Y0211600D01*
X0387660Y0211957D02*
X0390453Y0210800D01*
X0393477Y0210800D01*
X0396270Y0211957D01*
X0398408Y0214095D01*
X0399565Y0216888D01*
X0399565Y0221563D01*
X0401965Y0223963D02*
X0401965Y0195500D01*
X0396965Y0195500D02*
X0396965Y0212652D01*
X0395408Y0211600D02*
X0430565Y0211600D01*
X0429485Y0216600D02*
X0399446Y0216600D01*
X0391965Y0210800D02*
X0391965Y0197604D01*
X0393113Y0196600D02*
X0438675Y0196600D01*
X0436965Y0195500D02*
X0436965Y0198096D01*
X0432914Y0201600D02*
X0387398Y0201600D01*
X0386965Y0201979D02*
X0386965Y0212652D01*
X0387660Y0211957D02*
X0385522Y0214095D01*
X0385454Y0214260D01*
X0384795Y0213782D01*
X0384038Y0213396D01*
X0383230Y0213133D01*
X0382390Y0213000D01*
X0381965Y0213000D01*
X0381965Y0221600D01*
X0381965Y0230200D01*
X0382390Y0230200D01*
X0383230Y0230067D01*
X0384038Y0229804D01*
X0384795Y0229418D01*
X0385454Y0228940D01*
X0385522Y0229105D01*
X0387660Y0231243D01*
X0390453Y0232400D01*
X0393477Y0232400D01*
X0394645Y0231916D01*
X0401565Y0238837D01*
X0401565Y0241818D01*
X0400410Y0242973D01*
X0399036Y0241600D01*
X0401565Y0241600D01*
X0399036Y0241600D02*
X0396965Y0241600D01*
X0396965Y0241600D01*
X0396965Y0246600D01*
X0381965Y0246600D01*
X0381965Y0241250D01*
X0384531Y0241600D02*
X0394894Y0241600D01*
X0396965Y0241600D01*
X0396965Y0246600D01*
X0396965Y0246600D01*
X0391965Y0246600D01*
X0391965Y0246600D01*
X0391965Y0244529D01*
X0391965Y0232400D01*
X0388522Y0231600D02*
X0375408Y0231600D01*
X0376965Y0230548D02*
X0376965Y0244034D01*
X0376965Y0246600D02*
X0376965Y0246600D01*
X0376965Y0249166D02*
X0376965Y0341420D01*
X0377149Y0341279D02*
X0377656Y0340772D01*
X0377995Y0340632D01*
X0378286Y0340409D01*
X0378979Y0340224D01*
X0379641Y0339950D01*
X0380008Y0339950D01*
X0380362Y0339856D01*
X0381072Y0339950D01*
X0377149Y0341279D02*
X0376580Y0341715D01*
X0376396Y0342032D01*
X0376137Y0342291D01*
X0375863Y0342954D01*
X0365415Y0361000D01*
X0365354Y0361000D01*
X0362377Y0362233D01*
X0361965Y0362645D01*
X0361553Y0362233D01*
X0358576Y0361000D01*
X0355354Y0361000D01*
X0352377Y0362233D01*
X0351965Y0362645D01*
X0351553Y0362233D01*
X0348576Y0361000D01*
X0345354Y0361000D01*
X0342377Y0362233D01*
X0341965Y0362645D01*
X0341553Y0362233D01*
X0338576Y0361000D01*
X0335354Y0361000D01*
X0332377Y0362233D01*
X0331965Y0362645D01*
X0330025Y0361600D02*
X0333905Y0361600D01*
X0336965Y0361000D02*
X0336965Y0253000D01*
X0341965Y0253000D02*
X0341965Y0362645D01*
X0340025Y0361600D02*
X0343905Y0361600D01*
X0346965Y0361000D02*
X0346965Y0253000D01*
X0351965Y0253000D02*
X0351965Y0362645D01*
X0350025Y0361600D02*
X0353905Y0361600D01*
X0356965Y0361000D02*
X0356965Y0253000D01*
X0361965Y0254150D02*
X0361965Y0362645D01*
X0360025Y0361600D02*
X0363905Y0361600D01*
X0370857Y0351600D02*
X0233365Y0351600D01*
X0233365Y0346600D02*
X0373752Y0346600D01*
X0371965Y0349686D02*
X0371965Y0232400D01*
X0368365Y0236600D02*
X0399328Y0236600D01*
X0396965Y0234237D02*
X0396965Y0246600D01*
X0391965Y0246600D01*
X0391965Y0248671D01*
X0391965Y0244529D02*
X0394894Y0241600D01*
X0396965Y0246600D02*
X0396965Y0246600D01*
X0396965Y0251600D01*
X0396965Y0246600D01*
X0396965Y0246600D01*
X0396965Y0339950D01*
X0401965Y0340489D02*
X0401965Y0331800D01*
X0401828Y0331600D02*
X0233365Y0331600D01*
X0233365Y0326600D02*
X0400940Y0326600D01*
X0400940Y0321600D02*
X0233365Y0321600D01*
X0233365Y0316600D02*
X0400940Y0316600D01*
X0400940Y0311600D02*
X0233365Y0311600D01*
X0233365Y0306600D02*
X0400940Y0306600D01*
X0400940Y0301600D02*
X0233365Y0301600D01*
X0233365Y0296600D02*
X0400940Y0296600D01*
X0400940Y0291600D02*
X0233365Y0291600D01*
X0233656Y0286600D02*
X0400940Y0286600D01*
X0411740Y0286600D02*
X0453205Y0286600D01*
X0451965Y0287744D02*
X0451965Y0249166D01*
X0452315Y0248816D02*
X0449181Y0251950D01*
X0446965Y0251950D01*
X0444749Y0251950D01*
X0441615Y0248816D01*
X0441615Y0246600D01*
X0441615Y0244384D01*
X0444749Y0241250D01*
X0446965Y0241250D01*
X0446965Y0246600D01*
X0434515Y0246600D01*
X0433365Y0241600D02*
X0444399Y0241600D01*
X0446965Y0241600D02*
X0446965Y0241600D01*
X0446965Y0241250D02*
X0449181Y0241250D01*
X0452315Y0244384D01*
X0452315Y0246600D01*
X0452315Y0248816D01*
X0452315Y0246600D02*
X0446965Y0246600D01*
X0446965Y0246600D01*
X0441615Y0246600D01*
X0446965Y0246600D01*
X0446965Y0251950D01*
X0446965Y0246600D01*
X0446965Y0246600D01*
X0446965Y0246600D01*
X0446965Y0292360D01*
X0447788Y0291600D02*
X0411740Y0291600D01*
X0411740Y0296600D02*
X0442372Y0296600D01*
X0441965Y0296975D02*
X0441965Y0249166D01*
X0441965Y0246600D02*
X0441965Y0246600D01*
X0441965Y0244034D02*
X0441965Y0230548D01*
X0440408Y0231600D02*
X0453522Y0231600D01*
X0452660Y0231243D02*
X0450522Y0229105D01*
X0450454Y0228940D01*
X0449795Y0229418D01*
X0449038Y0229804D01*
X0448230Y0230067D01*
X0447390Y0230200D01*
X0446965Y0230200D01*
X0446965Y0221600D01*
X0446965Y0221600D01*
X0446965Y0221600D01*
X0446965Y0246600D01*
X0446965Y0241250D01*
X0449531Y0241600D02*
X0459894Y0241600D01*
X0461965Y0241600D01*
X0461965Y0241600D01*
X0461965Y0246600D01*
X0446965Y0246600D01*
X0446965Y0246600D01*
X0452315Y0246600D01*
X0451965Y0246600D02*
X0451965Y0246600D01*
X0451965Y0244034D02*
X0451965Y0230548D01*
X0452660Y0231243D02*
X0455453Y0232400D01*
X0458477Y0232400D01*
X0459645Y0231916D01*
X0466565Y0238837D01*
X0466565Y0241818D01*
X0465410Y0242973D01*
X0464036Y0241600D01*
X0466565Y0241600D01*
X0464036Y0241600D02*
X0461965Y0241600D01*
X0461965Y0246600D01*
X0461965Y0246600D01*
X0456965Y0246600D01*
X0456965Y0246600D01*
X0456965Y0244529D01*
X0456965Y0232400D01*
X0461965Y0234237D02*
X0461965Y0246600D01*
X0456965Y0246600D01*
X0456965Y0248671D01*
X0456965Y0283129D01*
X0458622Y0281600D02*
X0411740Y0281600D01*
X0411740Y0276600D02*
X0464038Y0276600D01*
X0461965Y0278514D02*
X0461965Y0246600D01*
X0461965Y0251600D01*
X0459894Y0251600D01*
X0456965Y0248671D01*
X0456965Y0244529D02*
X0459894Y0241600D01*
X0461965Y0246600D02*
X0461965Y0246600D01*
X0461965Y0246600D01*
X0461965Y0251600D01*
X0464036Y0251600D01*
X0465410Y0250227D01*
X0468983Y0253800D01*
X0474948Y0253800D01*
X0479165Y0249582D01*
X0479165Y0243618D01*
X0477365Y0241818D01*
X0477365Y0235526D01*
X0476543Y0233541D01*
X0475024Y0232022D01*
X0464565Y0221563D01*
X0464565Y0216888D01*
X0463408Y0214095D01*
X0461270Y0211957D01*
X0458477Y0210800D01*
X0455453Y0210800D01*
X0452660Y0211957D01*
X0450522Y0214095D01*
X0450454Y0214260D01*
X0449795Y0213782D01*
X0449038Y0213396D01*
X0448230Y0213133D01*
X0447390Y0213000D01*
X0446965Y0213000D01*
X0446965Y0221600D01*
X0446965Y0206354D01*
X0446684Y0206600D02*
X0623905Y0206600D01*
X0621965Y0205953D02*
X0621965Y0207645D01*
X0619233Y0211600D02*
X0460408Y0211600D01*
X0461965Y0212652D02*
X0461965Y0195500D01*
X0458113Y0196600D02*
X0511617Y0196600D01*
X0511965Y0195944D02*
X0511965Y0195500D01*
X0511965Y0199100D02*
X0511965Y0199100D01*
X0511065Y0199100D02*
X0516965Y0199100D01*
X0516965Y0205000D01*
X0516501Y0205000D01*
X0515584Y0204855D01*
X0514700Y0204568D01*
X0513873Y0204146D01*
X0513122Y0203600D01*
X0512465Y0202944D01*
X0511919Y0202192D01*
X0511497Y0201365D01*
X0511210Y0200482D01*
X0511065Y0199564D01*
X0511065Y0199100D01*
X0511617Y0201600D02*
X0452398Y0201600D01*
X0451965Y0201979D02*
X0451965Y0212652D01*
X0453522Y0211600D02*
X0443365Y0211600D01*
X0446965Y0216600D02*
X0446965Y0216600D01*
X0446965Y0226600D02*
X0446965Y0226600D01*
X0436965Y0232400D02*
X0436965Y0301591D01*
X0436955Y0301600D02*
X0411740Y0301600D01*
X0411740Y0306600D02*
X0431538Y0306600D01*
X0431965Y0306206D02*
X0431965Y0252277D01*
X0432643Y0251600D02*
X0444399Y0251600D01*
X0446965Y0251600D02*
X0446965Y0251600D01*
X0449531Y0251600D02*
X0466783Y0251600D01*
X0466965Y0251782D02*
X0466965Y0273898D01*
X0469455Y0271600D02*
X0411740Y0271600D01*
X0411740Y0266600D02*
X0474872Y0266600D01*
X0476965Y0264668D02*
X0476965Y0251782D01*
X0477148Y0251600D02*
X0508865Y0251600D01*
X0508865Y0246600D02*
X0479165Y0246600D01*
X0477365Y0241600D02*
X0508865Y0241600D01*
X0508865Y0236600D02*
X0477365Y0236600D01*
X0476965Y0234560D02*
X0476965Y0195500D01*
X0471965Y0195500D02*
X0471965Y0228963D01*
X0469602Y0226600D02*
X0618865Y0226600D01*
X0620510Y0221600D02*
X0464602Y0221600D01*
X0466965Y0223963D02*
X0466965Y0195500D01*
X0456965Y0197604D02*
X0456965Y0210800D01*
X0464446Y0216600D02*
X0619233Y0216600D01*
X0633420Y0221600D02*
X0640448Y0221600D01*
X0641965Y0221400D02*
X0641965Y0205953D01*
X0636965Y0205953D02*
X0636965Y0224246D01*
X0634697Y0216600D02*
X0649233Y0216600D01*
X0649233Y0211600D02*
X0634697Y0211600D01*
X0631965Y0207645D02*
X0631965Y0205953D01*
X0630025Y0206600D02*
X0653905Y0206600D01*
X0651965Y0205953D02*
X0651965Y0207645D01*
X0656965Y0206000D02*
X0656965Y0205953D01*
X0660025Y0206600D02*
X0717647Y0206600D01*
X0716965Y0206318D02*
X0716965Y0232988D01*
X0716983Y0232971D02*
X0719905Y0231760D01*
X0730167Y0231760D01*
X0733089Y0232971D01*
X0735326Y0235207D01*
X0736536Y0238129D01*
X0736536Y0241292D01*
X0735326Y0244214D01*
X0733089Y0246450D01*
X0730167Y0247660D01*
X0719905Y0247660D01*
X0716983Y0246450D01*
X0714746Y0244214D01*
X0713536Y0241292D01*
X0713536Y0238129D01*
X0714746Y0235207D01*
X0716983Y0232971D01*
X0714169Y0236600D02*
X0698069Y0236600D01*
X0696965Y0235496D02*
X0696965Y0205953D01*
X0691965Y0205953D02*
X0691965Y0230496D01*
X0693069Y0231600D02*
X0737801Y0231600D01*
X0737801Y0236600D02*
X0735903Y0236600D01*
X0736408Y0241600D02*
X0737801Y0241600D01*
X0737801Y0246600D02*
X0732727Y0246600D01*
X0731965Y0246916D02*
X0731965Y0252190D01*
X0730541Y0251600D02*
X0737801Y0251600D01*
X0737801Y0256600D02*
X0736033Y0256600D01*
X0736278Y0261600D02*
X0737801Y0261600D01*
X0737801Y0266600D02*
X0731967Y0266600D01*
X0731965Y0266601D02*
X0731965Y0271875D01*
X0731301Y0271600D02*
X0737801Y0271600D01*
X0737801Y0276600D02*
X0736164Y0276600D01*
X0736147Y0281600D02*
X0737801Y0281600D01*
X0737801Y0286600D02*
X0731206Y0286600D01*
X0731965Y0286286D02*
X0731965Y0501215D01*
X0726965Y0501215D02*
X0726965Y0287030D01*
X0721965Y0287030D02*
X0721965Y0501215D01*
X0716965Y0501215D02*
X0716965Y0285802D01*
X0718866Y0286600D02*
X0649343Y0286600D01*
X0649586Y0286476D02*
X0648885Y0286834D01*
X0648136Y0287077D01*
X0647359Y0287200D01*
X0646965Y0287200D01*
X0646572Y0287200D01*
X0645794Y0287077D01*
X0645046Y0286834D01*
X0644345Y0286476D01*
X0643708Y0286014D01*
X0643334Y0285640D01*
X0643069Y0286278D01*
X0641044Y0288304D01*
X0638397Y0289400D01*
X0635533Y0289400D01*
X0632887Y0288304D01*
X0632165Y0287582D01*
X0632165Y0295345D01*
X0633832Y0297012D01*
X0635065Y0299989D01*
X0635065Y0303211D01*
X0633832Y0306188D01*
X0631553Y0308467D01*
X0628576Y0309700D01*
X0625354Y0309700D01*
X0622377Y0308467D01*
X0620098Y0306188D01*
X0618865Y0303211D01*
X0618865Y0299989D01*
X0620098Y0297012D01*
X0621765Y0295345D01*
X0621765Y0287582D01*
X0621044Y0288304D01*
X0618397Y0289400D01*
X0615533Y0289400D01*
X0614463Y0288957D01*
X0535065Y0368354D01*
X0535065Y0370711D01*
X0533832Y0373688D01*
X0531553Y0375967D01*
X0528576Y0377200D01*
X0525354Y0377200D01*
X0522377Y0375967D01*
X0521965Y0375555D01*
X0521553Y0375967D01*
X0518576Y0377200D01*
X0515354Y0377200D01*
X0512377Y0375967D01*
X0510098Y0373688D01*
X0508865Y0370711D01*
X0508865Y0367489D01*
X0510098Y0364512D01*
X0512377Y0362233D01*
X0515354Y0361000D01*
X0518576Y0361000D01*
X0521553Y0362233D01*
X0521965Y0362645D01*
X0522377Y0362233D01*
X0525354Y0361000D01*
X0527711Y0361000D01*
X0609765Y0278946D01*
X0609765Y0275168D01*
X0610861Y0272522D01*
X0612208Y0271175D01*
X0611965Y0271175D02*
X0611965Y0271418D01*
X0611783Y0271600D02*
X0484788Y0271600D01*
X0486965Y0271175D02*
X0486965Y0451295D01*
X0485354Y0451295D02*
X0488576Y0451295D01*
X0491553Y0452528D01*
X0491965Y0452940D01*
X0492377Y0452528D01*
X0495354Y0451295D01*
X0498576Y0451295D01*
X0501553Y0452528D01*
X0503832Y0454807D01*
X0505065Y0457784D01*
X0505065Y0461006D01*
X0504946Y0461295D01*
X0506540Y0461295D01*
X0508158Y0461965D01*
X0509395Y0463203D01*
X0510065Y0464820D01*
X0510065Y0473970D01*
X0509395Y0475588D01*
X0508158Y0476825D01*
X0506540Y0477495D01*
X0497390Y0477495D01*
X0495773Y0476825D01*
X0495603Y0476656D01*
X0493576Y0477495D01*
X0490354Y0477495D01*
X0487377Y0476262D01*
X0486965Y0475850D01*
X0486553Y0476262D01*
X0483576Y0477495D01*
X0480354Y0477495D01*
X0477377Y0476262D01*
X0476965Y0475850D01*
X0476553Y0476262D01*
X0473576Y0477495D01*
X0470354Y0477495D01*
X0467377Y0476262D01*
X0465098Y0473984D01*
X0463865Y0471006D01*
X0463865Y0467784D01*
X0464185Y0467011D01*
X0462377Y0466262D01*
X0460098Y0463984D01*
X0458865Y0461006D01*
X0458865Y0457784D01*
X0460098Y0454807D01*
X0462377Y0452528D01*
X0465354Y0451295D01*
X0468576Y0451295D01*
X0471553Y0452528D01*
X0471965Y0452940D01*
X0472377Y0452528D01*
X0475354Y0451295D01*
X0478576Y0451295D01*
X0481553Y0452528D01*
X0481965Y0452940D01*
X0482377Y0452528D01*
X0485354Y0451295D01*
X0484618Y0451600D02*
X0479312Y0451600D01*
X0476965Y0451295D02*
X0476965Y0278821D01*
X0479371Y0276600D02*
X0609765Y0276600D01*
X0607111Y0281600D02*
X0473955Y0281600D01*
X0471965Y0283436D02*
X0471965Y0452940D01*
X0469312Y0451600D02*
X0474618Y0451600D01*
X0481965Y0452940D02*
X0481965Y0274206D01*
X0491965Y0271175D02*
X0491965Y0452940D01*
X0489312Y0451600D02*
X0494618Y0451600D01*
X0496965Y0451295D02*
X0496965Y0271175D01*
X0501965Y0271175D02*
X0501965Y0452940D01*
X0499312Y0451600D02*
X0564618Y0451600D01*
X0565354Y0451295D02*
X0568576Y0451295D01*
X0571553Y0452528D01*
X0571965Y0452940D01*
X0572377Y0452528D01*
X0575354Y0451295D01*
X0578576Y0451295D01*
X0581553Y0452528D01*
X0581965Y0452940D01*
X0582377Y0452528D01*
X0585354Y0451295D01*
X0588576Y0451295D01*
X0591553Y0452528D01*
X0591965Y0452940D01*
X0592377Y0452528D01*
X0595354Y0451295D01*
X0598576Y0451295D01*
X0601553Y0452528D01*
X0603832Y0454807D01*
X0605065Y0457784D01*
X0605065Y0461006D01*
X0604946Y0461295D01*
X0606540Y0461295D01*
X0608158Y0461965D01*
X0609395Y0463203D01*
X0610065Y0464820D01*
X0610065Y0473970D01*
X0609395Y0475588D01*
X0608158Y0476825D01*
X0606540Y0477495D01*
X0597390Y0477495D01*
X0595773Y0476825D01*
X0595603Y0476656D01*
X0593576Y0477495D01*
X0590354Y0477495D01*
X0587377Y0476262D01*
X0586965Y0475850D01*
X0586553Y0476262D01*
X0583576Y0477495D01*
X0580354Y0477495D01*
X0577377Y0476262D01*
X0576965Y0475850D01*
X0576553Y0476262D01*
X0573576Y0477495D01*
X0570354Y0477495D01*
X0567377Y0476262D01*
X0565098Y0473984D01*
X0563865Y0471006D01*
X0563865Y0467784D01*
X0564185Y0467011D01*
X0562377Y0466262D01*
X0560098Y0463984D01*
X0558865Y0461006D01*
X0558865Y0457784D01*
X0560098Y0454807D01*
X0562377Y0452528D01*
X0565354Y0451295D01*
X0566965Y0451295D02*
X0566965Y0336454D01*
X0566819Y0336600D02*
X0737801Y0336600D01*
X0737801Y0331600D02*
X0571819Y0331600D01*
X0571965Y0331454D02*
X0571965Y0452940D01*
X0569312Y0451600D02*
X0574618Y0451600D01*
X0576965Y0451295D02*
X0576965Y0326454D01*
X0576819Y0326600D02*
X0737801Y0326600D01*
X0737801Y0321600D02*
X0581819Y0321600D01*
X0581965Y0321454D02*
X0581965Y0452940D01*
X0579312Y0451600D02*
X0584618Y0451600D01*
X0586965Y0451295D02*
X0586965Y0316454D01*
X0586819Y0316600D02*
X0737801Y0316600D01*
X0737801Y0311600D02*
X0591819Y0311600D01*
X0591965Y0311454D02*
X0591965Y0452940D01*
X0589312Y0451600D02*
X0594618Y0451600D01*
X0596965Y0451295D02*
X0596965Y0306454D01*
X0596819Y0306600D02*
X0620510Y0306600D01*
X0621965Y0308055D02*
X0621965Y0501212D01*
X0616965Y0501212D02*
X0616965Y0498413D01*
X0617451Y0496600D02*
X0737801Y0496600D01*
X0736965Y0501216D02*
X0736965Y0116000D01*
X0737801Y0116600D02*
X0658197Y0116600D01*
X0656965Y0116145D02*
X0656965Y0116000D01*
X0661965Y0116000D02*
X0661965Y0119545D01*
X0663192Y0121600D02*
X0737801Y0121600D01*
X0737801Y0126600D02*
X0664121Y0126600D01*
X0662465Y0131600D02*
X0737801Y0131600D01*
X0737801Y0136600D02*
X0735498Y0136600D01*
X0731965Y0133325D02*
X0731965Y0116000D01*
X0726965Y0116000D02*
X0726965Y0132548D01*
X0721965Y0132548D02*
X0721965Y0116000D01*
X0716965Y0116000D02*
X0716965Y0133733D01*
X0711965Y0135575D02*
X0711965Y0116000D01*
X0706965Y0116000D02*
X0706965Y0135575D01*
X0701965Y0135575D02*
X0701965Y0116000D01*
X0696965Y0116000D02*
X0696965Y0135575D01*
X0691965Y0135575D02*
X0691965Y0116000D01*
X0686965Y0116000D02*
X0686965Y0135575D01*
X0681965Y0135575D02*
X0681965Y0116000D01*
X0676965Y0116000D02*
X0676965Y0135575D01*
X0671965Y0135575D02*
X0671965Y0116000D01*
X0666965Y0116000D02*
X0666965Y0135575D01*
X0661965Y0135575D02*
X0661965Y0132395D01*
X0661965Y0146375D02*
X0661965Y0193153D01*
X0656965Y0193153D02*
X0656965Y0146375D01*
X0651965Y0146375D02*
X0651965Y0193153D01*
X0646965Y0193153D02*
X0646965Y0146375D01*
X0641965Y0146375D02*
X0641965Y0193153D01*
X0636965Y0193153D02*
X0636965Y0146375D01*
X0631965Y0146375D02*
X0631965Y0193153D01*
X0626965Y0193153D02*
X0626965Y0146375D01*
X0621965Y0146375D02*
X0621965Y0193153D01*
X0616965Y0193153D02*
X0616965Y0146375D01*
X0611965Y0146375D02*
X0611965Y0193153D01*
X0606965Y0193153D02*
X0606965Y0146375D01*
X0601965Y0146375D02*
X0601965Y0193153D01*
X0596965Y0193153D02*
X0596965Y0146375D01*
X0591965Y0146375D02*
X0591965Y0193153D01*
X0586965Y0193153D02*
X0586965Y0146375D01*
X0581965Y0146375D02*
X0581965Y0193153D01*
X0576965Y0193153D02*
X0576965Y0146375D01*
X0571965Y0146375D02*
X0571965Y0193153D01*
X0566965Y0192134D02*
X0566965Y0146375D01*
X0561965Y0146375D02*
X0561965Y0189579D01*
X0565920Y0191600D02*
X0737801Y0191600D01*
X0737801Y0186600D02*
X0733018Y0186600D01*
X0731965Y0187040D02*
X0731965Y0192380D01*
X0726965Y0191603D02*
X0726965Y0187818D01*
X0721965Y0187818D02*
X0721965Y0191603D01*
X0713520Y0181600D02*
X0334697Y0181600D01*
X0337102Y0176600D02*
X0714156Y0176600D01*
X0716965Y0173103D02*
X0716965Y0163851D01*
X0717021Y0163929D02*
X0716490Y0163196D01*
X0716079Y0162390D01*
X0715799Y0161529D01*
X0715657Y0160635D01*
X0715657Y0160183D01*
X0724957Y0160183D01*
X0724957Y0165933D01*
X0720955Y0165933D01*
X0720061Y0165791D01*
X0719200Y0165511D01*
X0718394Y0165101D01*
X0717661Y0164569D01*
X0717021Y0163929D01*
X0715822Y0161600D02*
X0352102Y0161600D01*
X0351965Y0161737D02*
X0351965Y0240200D01*
X0346965Y0240200D02*
X0346965Y0166737D01*
X0347102Y0166600D02*
X0737801Y0166600D01*
X0737801Y0161600D02*
X0734093Y0161600D01*
X0734116Y0161529D02*
X0733836Y0162390D01*
X0733425Y0163196D01*
X0732893Y0163929D01*
X0732253Y0164569D01*
X0731521Y0165101D01*
X0730715Y0165511D01*
X0729854Y0165791D01*
X0728960Y0165933D01*
X0724957Y0165933D01*
X0724957Y0160183D01*
X0724957Y0160183D01*
X0724957Y0160183D01*
X0715657Y0160183D01*
X0715657Y0159730D01*
X0715799Y0158836D01*
X0716079Y0157975D01*
X0716490Y0157169D01*
X0717021Y0156437D01*
X0717661Y0155797D01*
X0718394Y0155265D01*
X0719200Y0154854D01*
X0720061Y0154574D01*
X0720955Y0154433D01*
X0724957Y0154433D01*
X0724957Y0160183D01*
X0734257Y0160183D01*
X0734257Y0160635D01*
X0734116Y0161529D01*
X0734257Y0160183D02*
X0724957Y0160183D01*
X0724957Y0160183D01*
X0724957Y0160183D01*
X0724957Y0154433D01*
X0728960Y0154433D01*
X0729854Y0154574D01*
X0730715Y0154854D01*
X0731521Y0155265D01*
X0732253Y0155797D01*
X0732893Y0156437D01*
X0733425Y0157169D01*
X0733836Y0157975D01*
X0734116Y0158836D01*
X0734257Y0159730D01*
X0734257Y0160183D01*
X0731965Y0160183D02*
X0731965Y0160183D01*
X0733012Y0156600D02*
X0737801Y0156600D01*
X0737801Y0151600D02*
X0362102Y0151600D01*
X0361965Y0151737D02*
X0361965Y0222549D01*
X0362914Y0221600D02*
X0160386Y0221600D01*
X0158383Y0226600D02*
X0357914Y0226600D01*
X0356965Y0227549D02*
X0356965Y0156737D01*
X0357102Y0156600D02*
X0716903Y0156600D01*
X0716965Y0156514D02*
X0716965Y0147263D01*
X0721965Y0148448D02*
X0721965Y0154433D01*
X0724957Y0156600D02*
X0724957Y0156600D01*
X0726965Y0154433D02*
X0726965Y0148448D01*
X0731965Y0147670D02*
X0731965Y0155588D01*
X0726965Y0160183D02*
X0726965Y0160183D01*
X0724957Y0161600D02*
X0724957Y0161600D01*
X0721965Y0160183D02*
X0721965Y0160183D01*
X0716965Y0160183D02*
X0716965Y0160183D01*
X0721965Y0165933D02*
X0721965Y0171918D01*
X0726965Y0171918D02*
X0726965Y0165933D01*
X0731965Y0164778D02*
X0731965Y0172695D01*
X0735759Y0176600D02*
X0737801Y0176600D01*
X0737801Y0171600D02*
X0342102Y0171600D01*
X0341965Y0171737D02*
X0341965Y0240200D01*
X0355565Y0236600D02*
X0159224Y0236600D01*
X0159176Y0236485D02*
X0160386Y0239407D01*
X0160386Y0242570D01*
X0159176Y0245491D01*
X0156940Y0247728D01*
X0154018Y0248938D01*
X0143755Y0248938D01*
X0140833Y0247728D01*
X0138597Y0245491D01*
X0137386Y0242570D01*
X0137386Y0239407D01*
X0138597Y0236485D01*
X0140833Y0234248D01*
X0143755Y0233038D01*
X0154018Y0233038D01*
X0156940Y0234248D01*
X0159176Y0236485D01*
X0156965Y0234274D02*
X0156965Y0228017D01*
X0151965Y0229253D02*
X0151965Y0233038D01*
X0146965Y0233038D02*
X0146965Y0229253D01*
X0141965Y0228512D02*
X0141965Y0233780D01*
X0138549Y0236600D02*
X0136365Y0236600D01*
X0136365Y0231600D02*
X0355565Y0231600D01*
X0381965Y0226600D02*
X0381965Y0226600D01*
X0386965Y0230548D02*
X0386965Y0244034D01*
X0387315Y0246600D02*
X0381965Y0246600D01*
X0381965Y0251950D01*
X0381965Y0251600D02*
X0381965Y0251600D01*
X0384531Y0251600D02*
X0400940Y0251600D01*
X0411965Y0251782D02*
X0411965Y0320628D01*
X0411740Y0316600D02*
X0420705Y0316600D01*
X0421965Y0315437D02*
X0421965Y0252277D01*
X0421288Y0251600D02*
X0412148Y0251600D01*
X0411740Y0256600D02*
X0513010Y0256600D01*
X0511965Y0255555D02*
X0511965Y0260775D01*
X0506965Y0260775D02*
X0506965Y0195500D01*
X0501965Y0195500D02*
X0501965Y0260775D01*
X0496965Y0260775D02*
X0496965Y0195500D01*
X0491965Y0195500D02*
X0491965Y0260775D01*
X0486965Y0260775D02*
X0486965Y0195500D01*
X0481965Y0195500D02*
X0481965Y0260864D01*
X0480236Y0261600D02*
X0411740Y0261600D01*
X0426965Y0254150D02*
X0426965Y0310821D01*
X0426122Y0311600D02*
X0411740Y0311600D01*
X0416965Y0317775D02*
X0416965Y0195500D01*
X0411965Y0195500D02*
X0411965Y0234560D01*
X0412365Y0236600D02*
X0420565Y0236600D01*
X0420565Y0241600D02*
X0412365Y0241600D01*
X0414165Y0246600D02*
X0419415Y0246600D01*
X0433365Y0236600D02*
X0464328Y0236600D01*
X0474602Y0231600D02*
X0513010Y0231600D01*
X0511965Y0232645D02*
X0511965Y0202256D01*
X0516965Y0201600D02*
X0516965Y0201600D01*
X0516965Y0199100D02*
X0516965Y0231000D01*
X0521965Y0255555D02*
X0520320Y0257200D01*
X0520920Y0256600D02*
X0523010Y0256600D01*
X0526965Y0257200D02*
X0526965Y0260775D01*
X0531965Y0260775D02*
X0531965Y0255555D01*
X0530920Y0256600D02*
X0679611Y0256600D01*
X0681965Y0258954D02*
X0681965Y0501214D01*
X0676965Y0501214D02*
X0676965Y0253954D01*
X0674611Y0251600D02*
X0652148Y0251600D01*
X0651965Y0251782D02*
X0651965Y0298444D01*
X0651919Y0298508D02*
X0652465Y0297756D01*
X0653122Y0297100D01*
X0653873Y0296554D01*
X0654700Y0296132D01*
X0655584Y0295845D01*
X0656501Y0295700D01*
X0656965Y0295700D01*
X0656965Y0301600D01*
X0635065Y0301600D01*
X0633420Y0296600D02*
X0653809Y0296600D01*
X0651919Y0298508D02*
X0651497Y0299335D01*
X0651210Y0300218D01*
X0651065Y0301136D01*
X0651065Y0301600D01*
X0656965Y0301600D01*
X0656965Y0301600D01*
X0651065Y0301600D01*
X0651065Y0302064D01*
X0651210Y0302982D01*
X0651497Y0303865D01*
X0651919Y0304692D01*
X0652465Y0305444D01*
X0653122Y0306100D01*
X0653873Y0306646D01*
X0654700Y0307068D01*
X0655584Y0307355D01*
X0656501Y0307500D01*
X0656965Y0307500D01*
X0656965Y0301600D01*
X0656965Y0301600D01*
X0656965Y0301600D01*
X0656965Y0400791D01*
X0657793Y0401013D02*
X0660143Y0402369D01*
X0662062Y0404288D01*
X0663419Y0406638D01*
X0664121Y0409259D01*
X0664121Y0411972D01*
X0663419Y0414594D01*
X0662062Y0416943D01*
X0660143Y0418862D01*
X0657793Y0420219D01*
X0655172Y0420921D01*
X0652459Y0420921D01*
X0649838Y0420219D01*
X0647488Y0418862D01*
X0645569Y0416943D01*
X0644212Y0414594D01*
X0643510Y0411972D01*
X0643510Y0409259D01*
X0644212Y0406638D01*
X0645569Y0404288D01*
X0647488Y0402369D01*
X0649838Y0401013D01*
X0652459Y0400310D01*
X0655172Y0400310D01*
X0657793Y0401013D01*
X0658811Y0401600D02*
X0737801Y0401600D01*
X0737801Y0396600D02*
X0420490Y0396600D01*
X0420490Y0401600D02*
X0648820Y0401600D01*
X0646965Y0402892D02*
X0646965Y0276600D01*
X0646965Y0287200D01*
X0646965Y0276600D01*
X0646965Y0276600D01*
X0646965Y0276600D01*
X0646965Y0271600D01*
X0646965Y0271600D01*
X0646572Y0271600D01*
X0646965Y0271600D02*
X0647359Y0271600D01*
X0694611Y0271600D01*
X0696965Y0273954D02*
X0696965Y0501214D01*
X0701965Y0501214D02*
X0701965Y0278954D01*
X0699611Y0276600D02*
X0646965Y0276600D01*
X0646965Y0253800D01*
X0654165Y0246600D02*
X0669611Y0246600D01*
X0671965Y0248954D02*
X0671965Y0501213D01*
X0666965Y0501213D02*
X0666965Y0243954D01*
X0664611Y0241600D02*
X0654165Y0241600D01*
X0652748Y0236600D02*
X0659611Y0236600D01*
X0656965Y0234700D02*
X0656965Y0301600D01*
X0656965Y0295700D01*
X0657430Y0295700D01*
X0658347Y0295845D01*
X0659230Y0296132D01*
X0660057Y0296554D01*
X0660809Y0297100D01*
X0661465Y0297756D01*
X0662011Y0298508D01*
X0662433Y0299335D01*
X0662720Y0300218D01*
X0662865Y0301136D01*
X0662865Y0301600D01*
X0662865Y0302064D01*
X0662720Y0302982D01*
X0662433Y0303865D01*
X0662011Y0304692D01*
X0661465Y0305444D01*
X0660809Y0306100D01*
X0660057Y0306646D01*
X0659230Y0307068D01*
X0658347Y0307355D01*
X0657430Y0307500D01*
X0656965Y0307500D01*
X0656965Y0301600D01*
X0737801Y0301600D01*
X0737801Y0296600D02*
X0660121Y0296600D01*
X0661965Y0298444D02*
X0661965Y0238954D01*
X0669319Y0231600D02*
X0678361Y0231600D01*
X0676965Y0230204D02*
X0676965Y0239246D01*
X0679319Y0241600D02*
X0688361Y0241600D01*
X0686965Y0240204D02*
X0686965Y0249246D01*
X0689319Y0251600D02*
X0698361Y0251600D01*
X0696965Y0250204D02*
X0696965Y0259246D01*
X0699319Y0261600D02*
X0708361Y0261600D01*
X0706965Y0260204D02*
X0706965Y0269246D01*
X0709319Y0271600D02*
X0718771Y0271600D01*
X0716965Y0272358D02*
X0716965Y0266117D01*
X0718105Y0266600D02*
X0704319Y0266600D01*
X0701965Y0264246D02*
X0701965Y0255204D01*
X0703361Y0256600D02*
X0694319Y0256600D01*
X0691965Y0254246D02*
X0691965Y0245204D01*
X0693361Y0246600D02*
X0684319Y0246600D01*
X0681965Y0244246D02*
X0681965Y0235204D01*
X0683361Y0236600D02*
X0674319Y0236600D01*
X0671965Y0234246D02*
X0671965Y0225204D01*
X0673361Y0226600D02*
X0665065Y0226600D01*
X0666965Y0229246D02*
X0666965Y0220204D01*
X0668361Y0221600D02*
X0663420Y0221600D01*
X0673069Y0211600D02*
X0737801Y0211600D01*
X0737801Y0206600D02*
X0732268Y0206600D01*
X0731965Y0206725D02*
X0731965Y0232505D01*
X0726965Y0231760D02*
X0726965Y0207503D01*
X0721965Y0207503D02*
X0721965Y0231760D01*
X0713664Y0241600D02*
X0703069Y0241600D01*
X0701965Y0240496D02*
X0701965Y0205953D01*
X0706965Y0205953D02*
X0706965Y0245496D01*
X0708069Y0246600D02*
X0717345Y0246600D01*
X0716965Y0246432D02*
X0716965Y0252673D01*
X0719531Y0251600D02*
X0713069Y0251600D01*
X0711965Y0250496D02*
X0711965Y0205953D01*
X0706965Y0193153D02*
X0706965Y0146375D01*
X0701965Y0146375D02*
X0701965Y0193153D01*
X0696965Y0193153D02*
X0696965Y0146375D01*
X0691965Y0146375D02*
X0691965Y0193153D01*
X0686965Y0193153D02*
X0686965Y0146375D01*
X0681965Y0146375D02*
X0681965Y0193153D01*
X0676965Y0193153D02*
X0676965Y0146375D01*
X0671965Y0146375D02*
X0671965Y0193153D01*
X0666965Y0193153D02*
X0666965Y0146375D01*
X0646965Y0135575D02*
X0646965Y0133694D01*
X0645166Y0131600D02*
X0185693Y0131600D01*
X0186965Y0128761D02*
X0186965Y0292007D01*
X0185982Y0291600D02*
X0220565Y0291600D01*
X0220565Y0296600D02*
X0189665Y0296600D01*
X0189665Y0301600D02*
X0220565Y0301600D01*
X0220565Y0306600D02*
X0189665Y0306600D01*
X0189665Y0311600D02*
X0220565Y0311600D01*
X0220565Y0316600D02*
X0189665Y0316600D01*
X0189665Y0321600D02*
X0220565Y0321600D01*
X0220565Y0326600D02*
X0189665Y0326600D01*
X0189665Y0331600D02*
X0220565Y0331600D01*
X0220565Y0336600D02*
X0189665Y0336600D01*
X0189665Y0341600D02*
X0220565Y0341600D01*
X0220565Y0346600D02*
X0185982Y0346600D01*
X0186965Y0346193D02*
X0186965Y0368900D01*
X0181965Y0368900D02*
X0181965Y0346800D01*
X0176965Y0346800D02*
X0176965Y0368900D01*
X0171965Y0368900D02*
X0171965Y0346800D01*
X0166965Y0346800D02*
X0166965Y0368989D01*
X0163361Y0371600D02*
X0136365Y0371600D01*
X0136365Y0376600D02*
X0158361Y0376600D01*
X0156965Y0377996D02*
X0156965Y0346800D01*
X0151965Y0346800D02*
X0151965Y0382996D01*
X0153361Y0381600D02*
X0136365Y0381600D01*
X0136365Y0386600D02*
X0148361Y0386600D01*
X0146965Y0387996D02*
X0146965Y0346800D01*
X0141965Y0346800D02*
X0141965Y0442709D01*
X0144186Y0441600D02*
X0136365Y0441600D01*
X0136365Y0436600D02*
X0144186Y0436600D01*
X0144186Y0431600D02*
X0136365Y0431600D01*
X0136365Y0426600D02*
X0144186Y0426600D01*
X0144186Y0421600D02*
X0136365Y0421600D01*
X0136365Y0416600D02*
X0144186Y0416600D01*
X0144186Y0411600D02*
X0136365Y0411600D01*
X0136365Y0406600D02*
X0144186Y0406600D01*
X0144186Y0401600D02*
X0136365Y0401600D01*
X0136365Y0396600D02*
X0144186Y0396600D01*
X0144308Y0391600D02*
X0136365Y0391600D01*
X0154586Y0396600D02*
X0220565Y0396600D01*
X0220565Y0401600D02*
X0182039Y0401600D01*
X0181965Y0401557D02*
X0181965Y0379300D01*
X0176965Y0379300D02*
X0176965Y0400310D01*
X0175687Y0400310D02*
X0178401Y0400310D01*
X0181022Y0401013D01*
X0183372Y0402369D01*
X0185290Y0404288D01*
X0186647Y0406638D01*
X0187349Y0409259D01*
X0187349Y0411972D01*
X0186647Y0414594D01*
X0185290Y0416943D01*
X0183372Y0418862D01*
X0181022Y0420219D01*
X0178401Y0420921D01*
X0175687Y0420921D01*
X0173066Y0420219D01*
X0170716Y0418862D01*
X0168797Y0416943D01*
X0167441Y0414594D01*
X0166738Y0411972D01*
X0166738Y0409259D01*
X0167441Y0406638D01*
X0168797Y0404288D01*
X0170716Y0402369D01*
X0173066Y0401013D01*
X0175687Y0400310D01*
X0172049Y0401600D02*
X0154586Y0401600D01*
X0154586Y0406600D02*
X0167463Y0406600D01*
X0166965Y0408413D02*
X0166965Y0382704D01*
X0168069Y0381600D02*
X0209119Y0381600D01*
X0211965Y0381675D02*
X0211965Y0501199D01*
X0206965Y0501198D02*
X0206965Y0379447D01*
X0201965Y0379300D02*
X0201965Y0501198D01*
X0196965Y0501198D02*
X0196965Y0472455D01*
X0197319Y0471600D02*
X0237914Y0471600D01*
X0236965Y0470651D02*
X0236965Y0501199D01*
X0231965Y0501199D02*
X0231965Y0465651D01*
X0232914Y0466600D02*
X0197075Y0466600D01*
X0196965Y0466336D02*
X0196965Y0442455D01*
X0197319Y0441600D02*
X0220565Y0441600D01*
X0220565Y0436600D02*
X0197075Y0436600D01*
X0196965Y0436336D02*
X0196965Y0379300D01*
X0191965Y0379300D02*
X0191965Y0431663D01*
X0191812Y0431600D02*
X0220565Y0431600D01*
X0220565Y0426600D02*
X0154586Y0426600D01*
X0154586Y0431600D02*
X0187118Y0431600D01*
X0186965Y0431663D02*
X0186965Y0413406D01*
X0187349Y0411600D02*
X0220565Y0411600D01*
X0220565Y0406600D02*
X0186625Y0406600D01*
X0186965Y0407825D02*
X0186965Y0379300D01*
X0191965Y0368900D02*
X0191965Y0116000D01*
X0186965Y0116000D02*
X0186965Y0123179D01*
X0186421Y0121600D02*
X0644439Y0121600D01*
X0646965Y0118246D02*
X0646965Y0116000D01*
X0649434Y0116600D02*
X0181426Y0116600D01*
X0181965Y0116912D02*
X0181965Y0116000D01*
X0187349Y0126600D02*
X0643510Y0126600D01*
X0641965Y0135575D02*
X0641965Y0116000D01*
X0636965Y0116000D02*
X0636965Y0135575D01*
X0631965Y0135575D02*
X0631965Y0116000D01*
X0626965Y0116000D02*
X0626965Y0135575D01*
X0621965Y0135575D02*
X0621965Y0116000D01*
X0616965Y0116000D02*
X0616965Y0135575D01*
X0611965Y0135575D02*
X0611965Y0116000D01*
X0606965Y0116000D02*
X0606965Y0135575D01*
X0601965Y0135575D02*
X0601965Y0116000D01*
X0596965Y0116000D02*
X0596965Y0135575D01*
X0591965Y0135575D02*
X0591965Y0116000D01*
X0586965Y0116000D02*
X0586965Y0135575D01*
X0581965Y0135575D02*
X0581965Y0116000D01*
X0576965Y0116000D02*
X0576965Y0135575D01*
X0571965Y0135575D02*
X0571965Y0116000D01*
X0566965Y0116000D02*
X0566965Y0135575D01*
X0561965Y0135575D02*
X0561965Y0116000D01*
X0556965Y0116000D02*
X0556965Y0135575D01*
X0551965Y0135575D02*
X0551965Y0116000D01*
X0546965Y0116000D02*
X0546965Y0135575D01*
X0541965Y0135575D02*
X0541965Y0116000D01*
X0536965Y0116000D02*
X0536965Y0135575D01*
X0531965Y0135575D02*
X0531965Y0116000D01*
X0526965Y0116000D02*
X0526965Y0135575D01*
X0521965Y0135575D02*
X0521965Y0116000D01*
X0516965Y0116000D02*
X0516965Y0135575D01*
X0511965Y0135575D02*
X0511965Y0116000D01*
X0506965Y0116000D02*
X0506965Y0135575D01*
X0501965Y0135575D02*
X0501965Y0116000D01*
X0496965Y0116000D02*
X0496965Y0135575D01*
X0491965Y0135575D02*
X0491965Y0116000D01*
X0486965Y0116000D02*
X0486965Y0135575D01*
X0481965Y0135575D02*
X0481965Y0116000D01*
X0476965Y0116000D02*
X0476965Y0135575D01*
X0471965Y0135575D02*
X0471965Y0116000D01*
X0466965Y0116000D02*
X0466965Y0135575D01*
X0461965Y0135575D02*
X0461965Y0116000D01*
X0456965Y0116000D02*
X0456965Y0135575D01*
X0451965Y0135575D02*
X0451965Y0116000D01*
X0446965Y0116000D02*
X0446965Y0135575D01*
X0441965Y0135575D02*
X0441965Y0116000D01*
X0436965Y0116000D02*
X0436965Y0135575D01*
X0431965Y0135575D02*
X0431965Y0116000D01*
X0426965Y0116000D02*
X0426965Y0135575D01*
X0421965Y0135575D02*
X0421965Y0116000D01*
X0416965Y0116000D02*
X0416965Y0135575D01*
X0411965Y0135575D02*
X0411965Y0116000D01*
X0406965Y0116000D02*
X0406965Y0135575D01*
X0401965Y0135575D02*
X0401965Y0116000D01*
X0396965Y0116000D02*
X0396965Y0135575D01*
X0391965Y0135575D02*
X0391965Y0116000D01*
X0386965Y0116000D02*
X0386965Y0135575D01*
X0381965Y0135575D02*
X0381965Y0116000D01*
X0376965Y0116000D02*
X0376965Y0135575D01*
X0371965Y0135575D02*
X0371965Y0116000D01*
X0366965Y0116000D02*
X0366965Y0135575D01*
X0361965Y0136463D02*
X0361965Y0116000D01*
X0356965Y0116000D02*
X0356965Y0141463D01*
X0356828Y0141600D02*
X0136365Y0141600D01*
X0136365Y0136600D02*
X0361828Y0136600D01*
X0351965Y0146463D02*
X0351965Y0116000D01*
X0346965Y0116000D02*
X0346965Y0151463D01*
X0346828Y0151600D02*
X0136365Y0151600D01*
X0136365Y0146600D02*
X0351828Y0146600D01*
X0341965Y0156463D02*
X0341965Y0116000D01*
X0336965Y0116000D02*
X0336965Y0161463D01*
X0336828Y0161600D02*
X0136365Y0161600D01*
X0136365Y0156600D02*
X0341828Y0156600D01*
X0271965Y0172645D02*
X0271965Y0116000D01*
X0266965Y0116000D02*
X0266965Y0240197D01*
X0262914Y0241600D02*
X0160386Y0241600D01*
X0158068Y0246600D02*
X0257608Y0246600D01*
X0256965Y0247202D02*
X0256965Y0116000D01*
X0251965Y0116000D02*
X0251965Y0251890D01*
X0252274Y0251600D02*
X0136365Y0251600D01*
X0136365Y0246600D02*
X0139705Y0246600D01*
X0141965Y0248197D02*
X0141965Y0253465D01*
X0140833Y0253934D02*
X0143755Y0252723D01*
X0154018Y0252723D01*
X0156940Y0253934D01*
X0159176Y0256170D01*
X0160386Y0259092D01*
X0160386Y0262255D01*
X0159176Y0265177D01*
X0156940Y0267413D01*
X0154018Y0268623D01*
X0143755Y0268623D01*
X0140833Y0267413D01*
X0138597Y0265177D01*
X0137386Y0262255D01*
X0137386Y0259092D01*
X0138597Y0256170D01*
X0140833Y0253934D01*
X0138419Y0256600D02*
X0136365Y0256600D01*
X0136365Y0261600D02*
X0137386Y0261600D01*
X0136365Y0266600D02*
X0140020Y0266600D01*
X0141965Y0267882D02*
X0141965Y0273150D01*
X0140833Y0273619D02*
X0143755Y0272408D01*
X0154018Y0272408D01*
X0156940Y0273619D01*
X0159176Y0275855D01*
X0160386Y0278777D01*
X0160386Y0281940D01*
X0159176Y0284862D01*
X0156940Y0287098D01*
X0154018Y0288308D01*
X0143755Y0288308D01*
X0140833Y0287098D01*
X0138597Y0284862D01*
X0137386Y0281940D01*
X0137386Y0278777D01*
X0138597Y0275855D01*
X0140833Y0273619D01*
X0138288Y0276600D02*
X0136365Y0276600D01*
X0136365Y0271600D02*
X0230941Y0271600D01*
X0231965Y0270640D02*
X0231965Y0116000D01*
X0226965Y0116000D02*
X0226965Y0275327D01*
X0225608Y0276600D02*
X0159485Y0276600D01*
X0156965Y0273644D02*
X0156965Y0267387D01*
X0157753Y0266600D02*
X0236274Y0266600D01*
X0236965Y0265952D02*
X0236965Y0116000D01*
X0241965Y0116000D02*
X0241965Y0261265D01*
X0241608Y0261600D02*
X0160386Y0261600D01*
X0159354Y0256600D02*
X0246941Y0256600D01*
X0246965Y0256577D02*
X0246965Y0116000D01*
X0261965Y0116000D02*
X0261965Y0242515D01*
X0221965Y0280015D02*
X0221965Y0116000D01*
X0216965Y0116000D02*
X0216965Y0366253D01*
X0217312Y0366600D02*
X0220565Y0366600D01*
X0220565Y0361600D02*
X0136365Y0361600D01*
X0136365Y0356600D02*
X0220565Y0356600D01*
X0220565Y0351600D02*
X0136365Y0351600D01*
X0136965Y0346800D02*
X0136965Y0501196D01*
X0136365Y0496600D02*
X0251479Y0496600D01*
X0251965Y0498413D02*
X0251965Y0501200D01*
X0246965Y0501200D02*
X0246965Y0480651D01*
X0247914Y0481600D02*
X0136365Y0481600D01*
X0136365Y0476600D02*
X0142456Y0476600D01*
X0141965Y0476397D02*
X0141965Y0484820D01*
X0142091Y0484694D02*
X0142823Y0484162D01*
X0143629Y0483752D01*
X0144490Y0483472D01*
X0145384Y0483330D01*
X0149386Y0483330D01*
X0149386Y0489080D01*
X0140086Y0489080D01*
X0140086Y0488628D01*
X0140228Y0487734D01*
X0140508Y0486873D01*
X0140919Y0486067D01*
X0141451Y0485334D01*
X0142091Y0484694D01*
X0140647Y0486600D02*
X0136365Y0486600D01*
X0140086Y0489080D02*
X0149386Y0489080D01*
X0149386Y0489080D01*
X0149387Y0489080D01*
X0149387Y0489080D01*
X0158686Y0489080D01*
X0158686Y0488628D01*
X0158545Y0487734D01*
X0158265Y0486873D01*
X0157854Y0486067D01*
X0157322Y0485334D01*
X0156682Y0484694D01*
X0155950Y0484162D01*
X0155144Y0483752D01*
X0154283Y0483472D01*
X0153389Y0483330D01*
X0149387Y0483330D01*
X0149387Y0489080D01*
X0158686Y0489080D01*
X0158686Y0489533D01*
X0158545Y0490427D01*
X0158265Y0491288D01*
X0157854Y0492094D01*
X0157322Y0492826D01*
X0156682Y0493466D01*
X0155950Y0493998D01*
X0155144Y0494409D01*
X0154283Y0494689D01*
X0153389Y0494830D01*
X0149387Y0494830D01*
X0149387Y0489080D01*
X0149386Y0489080D01*
X0149386Y0494830D01*
X0145384Y0494830D01*
X0144490Y0494689D01*
X0143629Y0494409D01*
X0142823Y0493998D01*
X0142091Y0493466D01*
X0141451Y0492826D01*
X0140919Y0492094D01*
X0140508Y0491288D01*
X0140228Y0490427D01*
X0140086Y0489533D01*
X0140086Y0489080D01*
X0141965Y0489080D02*
X0141965Y0489080D01*
X0140667Y0491600D02*
X0136365Y0491600D01*
X0141965Y0493341D02*
X0141965Y0501196D01*
X0146965Y0501197D02*
X0146965Y0494830D01*
X0149386Y0491600D02*
X0149387Y0491600D01*
X0146965Y0489080D02*
X0146965Y0489080D01*
X0149386Y0486600D02*
X0149387Y0486600D01*
X0151965Y0489080D02*
X0151965Y0489080D01*
X0156965Y0489080D02*
X0156965Y0489080D01*
X0158126Y0486600D02*
X0252914Y0486600D01*
X0251965Y0485651D02*
X0251965Y0490377D01*
X0251638Y0491600D02*
X0158106Y0491600D01*
X0156965Y0493183D02*
X0156965Y0501197D01*
X0151965Y0501197D02*
X0151965Y0494830D01*
X0161965Y0501197D02*
X0161965Y0474595D01*
X0158979Y0474595D02*
X0157440Y0476135D01*
X0154518Y0477345D01*
X0144255Y0477345D01*
X0141333Y0476135D01*
X0139097Y0473899D01*
X0137886Y0470977D01*
X0137886Y0467814D01*
X0139097Y0464892D01*
X0141333Y0462656D01*
X0144255Y0461445D01*
X0154518Y0461445D01*
X0157440Y0462656D01*
X0158979Y0464195D01*
X0183210Y0464195D01*
X0184877Y0462528D01*
X0187854Y0461295D01*
X0191076Y0461295D01*
X0194053Y0462528D01*
X0196332Y0464807D01*
X0197565Y0467784D01*
X0197565Y0471006D01*
X0196332Y0473984D01*
X0194053Y0476262D01*
X0191076Y0477495D01*
X0187854Y0477495D01*
X0184877Y0476262D01*
X0183210Y0474595D01*
X0158979Y0474595D01*
X0156965Y0476332D02*
X0156965Y0484977D01*
X0151965Y0483330D02*
X0151965Y0477345D01*
X0156317Y0476600D02*
X0185693Y0476600D01*
X0186965Y0477127D02*
X0186965Y0501198D01*
X0181965Y0501198D02*
X0181965Y0474595D01*
X0176965Y0474595D02*
X0176965Y0501198D01*
X0171965Y0501197D02*
X0171965Y0474595D01*
X0166965Y0474595D02*
X0166965Y0501197D01*
X0191965Y0501198D02*
X0191965Y0477127D01*
X0193238Y0476600D02*
X0242914Y0476600D01*
X0241965Y0475651D02*
X0241965Y0501200D01*
X0226965Y0501199D02*
X0226965Y0460651D01*
X0227914Y0461600D02*
X0191812Y0461600D01*
X0191965Y0461663D02*
X0191965Y0447127D01*
X0191076Y0447495D02*
X0187854Y0447495D01*
X0184877Y0446262D01*
X0182598Y0443984D01*
X0181365Y0441006D01*
X0181365Y0437784D01*
X0182598Y0434807D01*
X0184877Y0432528D01*
X0187854Y0431295D01*
X0191076Y0431295D01*
X0194053Y0432528D01*
X0196332Y0434807D01*
X0197565Y0437784D01*
X0197565Y0441006D01*
X0196332Y0443984D01*
X0194053Y0446262D01*
X0191076Y0447495D01*
X0193238Y0446600D02*
X0220565Y0446600D01*
X0220565Y0451600D02*
X0160759Y0451600D01*
X0160253Y0446600D02*
X0185693Y0446600D01*
X0186965Y0447127D02*
X0186965Y0461663D01*
X0187118Y0461600D02*
X0154891Y0461600D01*
X0156965Y0462459D02*
X0156965Y0456646D01*
X0157077Y0456600D02*
X0222914Y0456600D01*
X0221965Y0455651D02*
X0221965Y0501199D01*
X0216965Y0501199D02*
X0216965Y0380697D01*
X0216062Y0381600D02*
X0220565Y0381600D01*
X0220565Y0386600D02*
X0163069Y0386600D01*
X0161965Y0387704D02*
X0161965Y0464195D01*
X0166965Y0464195D02*
X0166965Y0412819D01*
X0166738Y0411600D02*
X0154586Y0411600D01*
X0154586Y0416600D02*
X0168599Y0416600D01*
X0171965Y0419583D02*
X0171965Y0464195D01*
X0176965Y0464195D02*
X0176965Y0420921D01*
X0181965Y0419674D02*
X0181965Y0436336D01*
X0181856Y0436600D02*
X0154586Y0436600D01*
X0154586Y0441600D02*
X0181611Y0441600D01*
X0181965Y0442455D02*
X0181965Y0464195D01*
X0151965Y0461445D02*
X0151965Y0457660D01*
X0146965Y0457660D02*
X0146965Y0461445D01*
X0143882Y0461600D02*
X0136365Y0461600D01*
X0136365Y0456600D02*
X0141696Y0456600D01*
X0141965Y0456712D02*
X0141965Y0462394D01*
X0138389Y0466600D02*
X0136365Y0466600D01*
X0136365Y0471600D02*
X0138145Y0471600D01*
X0146965Y0477345D02*
X0146965Y0483330D01*
X0138014Y0451600D02*
X0136365Y0451600D01*
X0136365Y0446600D02*
X0138520Y0446600D01*
X0156965Y0442774D02*
X0156965Y0392704D01*
X0158069Y0391600D02*
X0220565Y0391600D01*
X0220565Y0416600D02*
X0185489Y0416600D01*
X0171965Y0401648D02*
X0171965Y0379300D01*
X0161965Y0372996D02*
X0161965Y0346800D01*
X0136365Y0366600D02*
X0207869Y0366600D01*
X0206965Y0367503D02*
X0206965Y0116000D01*
X0201965Y0116000D02*
X0201965Y0368900D01*
X0196965Y0368900D02*
X0196965Y0116000D01*
X0211965Y0116000D02*
X0211965Y0365275D01*
X0233365Y0341600D02*
X0376730Y0341600D01*
X0404365Y0336600D02*
X0233365Y0336600D01*
X0181965Y0291400D02*
X0181965Y0135029D01*
X0176965Y0136276D02*
X0176965Y0291400D01*
X0171965Y0291400D02*
X0171965Y0134938D01*
X0168395Y0131600D02*
X0136365Y0131600D01*
X0141965Y0116000D02*
X0141965Y0214095D01*
X0138797Y0216600D02*
X0136365Y0216600D01*
X0136365Y0221600D02*
X0137386Y0221600D01*
X0136365Y0226600D02*
X0139390Y0226600D01*
X0146965Y0213353D02*
X0146965Y0116000D01*
X0151965Y0116000D02*
X0151965Y0213353D01*
X0137386Y0241600D02*
X0136365Y0241600D01*
X0146965Y0248938D02*
X0146965Y0252723D01*
X0151965Y0252723D02*
X0151965Y0248938D01*
X0156965Y0247702D02*
X0156965Y0253959D01*
X0151965Y0268623D02*
X0151965Y0272408D01*
X0146965Y0272408D02*
X0146965Y0268623D01*
X0137386Y0281600D02*
X0136365Y0281600D01*
X0136365Y0286600D02*
X0140335Y0286600D01*
X0141965Y0287567D02*
X0141965Y0291400D01*
X0146965Y0291400D02*
X0146965Y0288308D01*
X0151965Y0288308D02*
X0151965Y0291400D01*
X0156965Y0291400D02*
X0156965Y0287073D01*
X0157438Y0286600D02*
X0220565Y0286600D01*
X0221072Y0281600D02*
X0160386Y0281600D01*
X0136365Y0181600D02*
X0269233Y0181600D01*
X0269233Y0176600D02*
X0136365Y0176600D01*
X0316965Y0253000D02*
X0316965Y0363645D01*
X0318697Y0366600D02*
X0319233Y0366600D01*
X0321965Y0362645D02*
X0321965Y0253000D01*
X0381965Y0246600D02*
X0381965Y0246600D01*
X0404602Y0226600D02*
X0422914Y0226600D01*
X0421965Y0227549D02*
X0421965Y0195500D01*
X0406965Y0195500D02*
X0406965Y0228963D01*
X0409602Y0231600D02*
X0420565Y0231600D01*
X0381965Y0216600D02*
X0381965Y0216600D01*
X0471965Y0253800D02*
X0471965Y0269283D01*
X0468538Y0286600D02*
X0602111Y0286600D01*
X0601965Y0286746D02*
X0601965Y0271175D01*
X0596965Y0271175D02*
X0596965Y0291746D01*
X0597111Y0291600D02*
X0463121Y0291600D01*
X0461965Y0292667D02*
X0461965Y0452940D01*
X0464618Y0451600D02*
X0420490Y0451600D01*
X0420490Y0456600D02*
X0459356Y0456600D01*
X0459111Y0461600D02*
X0420490Y0461600D01*
X0420490Y0466600D02*
X0463193Y0466600D01*
X0461965Y0465850D02*
X0461965Y0483696D01*
X0456965Y0484928D02*
X0456965Y0297282D01*
X0457705Y0296600D02*
X0592111Y0296600D01*
X0591965Y0296746D02*
X0591965Y0271175D01*
X0586965Y0271175D02*
X0586965Y0301746D01*
X0587111Y0301600D02*
X0452288Y0301600D01*
X0451965Y0301898D02*
X0451965Y0490377D01*
X0451638Y0491600D02*
X0417293Y0491600D01*
X0416965Y0490377D02*
X0416965Y0473932D01*
X0418986Y0471600D02*
X0464111Y0471600D01*
X0466965Y0475850D02*
X0466965Y0484928D01*
X0469301Y0486600D02*
X0499630Y0486600D01*
X0501965Y0484928D02*
X0501965Y0477495D01*
X0496965Y0477319D02*
X0496965Y0490377D01*
X0496638Y0491600D02*
X0472293Y0491600D01*
X0471965Y0490377D02*
X0471965Y0477495D01*
X0468193Y0476600D02*
X0414653Y0476600D01*
X0411965Y0479701D02*
X0411965Y0484928D01*
X0414301Y0486600D02*
X0454630Y0486600D01*
X0451479Y0496600D02*
X0417451Y0496600D01*
X0416965Y0498413D02*
X0416965Y0501205D01*
X0421965Y0501205D02*
X0421965Y0363350D01*
X0422377Y0363762D02*
X0420098Y0361484D01*
X0418865Y0358506D01*
X0418865Y0355284D01*
X0420098Y0352307D01*
X0422377Y0350028D01*
X0425354Y0348795D01*
X0428576Y0348795D01*
X0431553Y0350028D01*
X0433832Y0352307D01*
X0435065Y0355284D01*
X0435065Y0358506D01*
X0433832Y0361484D01*
X0431553Y0363762D01*
X0428576Y0364995D01*
X0425354Y0364995D01*
X0422377Y0363762D01*
X0420215Y0361600D02*
X0415698Y0361600D01*
X0416965Y0363678D02*
X0416965Y0348197D01*
X0418562Y0346600D02*
X0542111Y0346600D01*
X0541965Y0346746D02*
X0541965Y0271175D01*
X0536965Y0271175D02*
X0536965Y0351746D01*
X0537111Y0351600D02*
X0433125Y0351600D01*
X0431965Y0350440D02*
X0431965Y0320359D01*
X0430621Y0321600D02*
X0567111Y0321600D01*
X0566965Y0321746D02*
X0566965Y0271175D01*
X0561965Y0271175D02*
X0561965Y0326746D01*
X0562111Y0326600D02*
X0426415Y0326600D01*
X0426965Y0324975D02*
X0426965Y0348795D01*
X0421965Y0350440D02*
X0421965Y0333822D01*
X0424187Y0331600D02*
X0557111Y0331600D01*
X0556965Y0331746D02*
X0556965Y0271175D01*
X0551965Y0271175D02*
X0551965Y0336746D01*
X0552111Y0336600D02*
X0417312Y0336600D01*
X0416965Y0336253D02*
X0416965Y0334175D01*
X0419540Y0341600D02*
X0547111Y0341600D01*
X0546965Y0341746D02*
X0546965Y0271175D01*
X0546965Y0260775D02*
X0546965Y0196287D01*
X0547577Y0196600D02*
X0532313Y0196600D01*
X0531965Y0195944D02*
X0531965Y0195500D01*
X0531965Y0199100D02*
X0531965Y0199100D01*
X0532865Y0199100D02*
X0526965Y0199100D01*
X0521065Y0199100D01*
X0516965Y0199100D01*
X0516965Y0199100D01*
X0516965Y0205000D01*
X0517430Y0205000D01*
X0518347Y0204855D01*
X0519230Y0204568D01*
X0520057Y0204146D01*
X0520809Y0203600D01*
X0521465Y0202944D01*
X0521965Y0202256D01*
X0521965Y0199100D02*
X0521965Y0199100D01*
X0516965Y0199100D02*
X0516965Y0199100D01*
X0526965Y0199100D02*
X0526965Y0205000D01*
X0526965Y0199100D01*
X0526965Y0199100D01*
X0526965Y0199100D01*
X0532865Y0199100D01*
X0536965Y0195500D02*
X0536965Y0260775D01*
X0541965Y0260775D02*
X0541965Y0195500D01*
X0551965Y0198843D02*
X0551965Y0260775D01*
X0531965Y0271175D02*
X0531965Y0356746D01*
X0532111Y0356600D02*
X0435065Y0356600D01*
X0433716Y0361600D02*
X0513905Y0361600D01*
X0511965Y0362645D02*
X0511965Y0271175D01*
X0506965Y0271175D02*
X0506965Y0461471D01*
X0507276Y0461600D02*
X0559111Y0461600D01*
X0559356Y0456600D02*
X0504575Y0456600D01*
X0510065Y0466600D02*
X0563193Y0466600D01*
X0561965Y0465850D02*
X0561965Y0483696D01*
X0556965Y0484928D02*
X0556965Y0346454D01*
X0556819Y0346600D02*
X0737801Y0346600D01*
X0737801Y0351600D02*
X0551819Y0351600D01*
X0551965Y0351454D02*
X0551965Y0490377D01*
X0551638Y0491600D02*
X0517293Y0491600D01*
X0516965Y0490377D02*
X0516965Y0377200D01*
X0513906Y0376600D02*
X0420490Y0376600D01*
X0420495Y0371600D02*
X0509233Y0371600D01*
X0511965Y0375555D02*
X0511965Y0484928D01*
X0514301Y0486600D02*
X0554630Y0486600D01*
X0566965Y0484928D02*
X0566965Y0475850D01*
X0568193Y0476600D02*
X0508383Y0476600D01*
X0506965Y0477319D02*
X0506965Y0483696D01*
X0510065Y0471600D02*
X0564111Y0471600D01*
X0571965Y0477495D02*
X0571965Y0490377D01*
X0572293Y0491600D02*
X0596638Y0491600D01*
X0596965Y0490377D02*
X0596965Y0477319D01*
X0591965Y0477495D02*
X0591965Y0501211D01*
X0586965Y0501211D02*
X0586965Y0475850D01*
X0585738Y0476600D02*
X0588193Y0476600D01*
X0581965Y0477495D02*
X0581965Y0501211D01*
X0576965Y0501210D02*
X0576965Y0475850D01*
X0575738Y0476600D02*
X0578193Y0476600D01*
X0569301Y0486600D02*
X0599630Y0486600D01*
X0601965Y0484928D02*
X0601965Y0477495D01*
X0606965Y0477319D02*
X0606965Y0483696D01*
X0611965Y0484928D02*
X0611965Y0291454D01*
X0611819Y0291600D02*
X0621765Y0291600D01*
X0620510Y0296600D02*
X0606819Y0296600D01*
X0606965Y0296454D02*
X0606965Y0461471D01*
X0607276Y0461600D02*
X0737801Y0461600D01*
X0737801Y0456600D02*
X0604575Y0456600D01*
X0601965Y0452940D02*
X0601965Y0301454D01*
X0601819Y0301600D02*
X0618865Y0301600D01*
X0631965Y0308055D02*
X0631965Y0501212D01*
X0626965Y0501212D02*
X0626965Y0309700D01*
X0633420Y0306600D02*
X0653809Y0306600D01*
X0651965Y0304756D02*
X0651965Y0400443D01*
X0644234Y0406600D02*
X0420490Y0406600D01*
X0420490Y0411600D02*
X0643510Y0411600D01*
X0645371Y0416600D02*
X0420490Y0416600D01*
X0420490Y0421600D02*
X0737801Y0421600D01*
X0737801Y0416600D02*
X0662260Y0416600D01*
X0661965Y0417040D02*
X0661965Y0501213D01*
X0656965Y0501213D02*
X0656965Y0420441D01*
X0651965Y0420789D02*
X0651965Y0501213D01*
X0646965Y0501213D02*
X0646965Y0418340D01*
X0664121Y0411600D02*
X0737801Y0411600D01*
X0737801Y0406600D02*
X0663397Y0406600D01*
X0661965Y0404191D02*
X0661965Y0304756D01*
X0660121Y0306600D02*
X0737801Y0306600D01*
X0737801Y0291600D02*
X0632165Y0291600D01*
X0636965Y0289400D02*
X0636965Y0501212D01*
X0641965Y0501213D02*
X0641965Y0287382D01*
X0642748Y0286600D02*
X0644587Y0286600D01*
X0646965Y0286600D02*
X0646965Y0286600D01*
X0649586Y0286476D02*
X0650222Y0286014D01*
X0650779Y0285457D01*
X0651242Y0284821D01*
X0651599Y0284119D01*
X0651842Y0283371D01*
X0651965Y0282594D01*
X0651965Y0276600D01*
X0646965Y0276600D01*
X0646965Y0271600D01*
X0647359Y0271600D02*
X0648136Y0271723D01*
X0648885Y0271966D01*
X0649586Y0272324D01*
X0650222Y0272786D01*
X0650779Y0273343D01*
X0651242Y0273979D01*
X0651599Y0274681D01*
X0651842Y0275429D01*
X0651965Y0276206D01*
X0651965Y0276600D01*
X0646965Y0276600D01*
X0646965Y0276600D01*
X0646965Y0281600D02*
X0646965Y0281600D01*
X0651965Y0281600D02*
X0704611Y0281600D01*
X0706965Y0283681D02*
X0706965Y0501215D01*
X0711965Y0501215D02*
X0711965Y0284280D01*
X0711965Y0273880D02*
X0711965Y0264211D01*
X0721965Y0267345D02*
X0721965Y0271130D01*
X0726965Y0271130D02*
X0726965Y0267345D01*
X0726965Y0251445D02*
X0726965Y0247660D01*
X0721965Y0247660D02*
X0721965Y0251445D01*
X0737801Y0226600D02*
X0688069Y0226600D01*
X0686965Y0225496D02*
X0686965Y0205953D01*
X0681965Y0205953D02*
X0681965Y0220496D01*
X0683069Y0221600D02*
X0737801Y0221600D01*
X0737801Y0216600D02*
X0678069Y0216600D01*
X0676965Y0215496D02*
X0676965Y0205953D01*
X0671965Y0205953D02*
X0671965Y0210496D01*
X0666965Y0208900D02*
X0666965Y0205953D01*
X0661965Y0205953D02*
X0661965Y0207645D01*
X0646965Y0205953D02*
X0646965Y0221400D01*
X0646965Y0231800D02*
X0646965Y0233800D01*
X0651965Y0233055D02*
X0651965Y0235818D01*
X0626965Y0206000D02*
X0626965Y0205953D01*
X0606965Y0271175D02*
X0606965Y0281746D01*
X0616965Y0289400D02*
X0616965Y0490377D01*
X0617293Y0491600D02*
X0737801Y0491600D01*
X0737801Y0486600D02*
X0614301Y0486600D01*
X0608383Y0476600D02*
X0737801Y0476600D01*
X0737801Y0481600D02*
X0410289Y0481600D01*
X0406965Y0482639D02*
X0406965Y0483696D01*
X0401965Y0482625D02*
X0401965Y0484928D01*
X0399630Y0486600D02*
X0369301Y0486600D01*
X0366965Y0484928D02*
X0366965Y0483875D01*
X0362959Y0483696D02*
X0362684Y0483582D01*
X0361949Y0483372D01*
X0361700Y0483175D01*
X0361406Y0483053D01*
X0360865Y0482512D01*
X0360266Y0482036D01*
X0360112Y0481759D01*
X0359887Y0481534D01*
X0359595Y0480827D01*
X0350737Y0464884D01*
X0350512Y0464659D01*
X0350220Y0463952D01*
X0349848Y0463284D01*
X0349812Y0462968D01*
X0349690Y0462674D01*
X0349690Y0461909D01*
X0349603Y0461149D01*
X0349690Y0460844D01*
X0349690Y0442797D01*
X0346890Y0439997D01*
X0346890Y0433203D01*
X0351694Y0428400D01*
X0358487Y0428400D01*
X0363290Y0433203D01*
X0363290Y0439997D01*
X0360490Y0442797D01*
X0360490Y0460201D01*
X0364223Y0466920D01*
X0365031Y0464970D01*
X0364700Y0464863D01*
X0363873Y0464441D01*
X0363122Y0463896D01*
X0362465Y0463239D01*
X0361919Y0462488D01*
X0361497Y0461660D01*
X0361210Y0460777D01*
X0361065Y0459860D01*
X0361065Y0459395D01*
X0361065Y0458931D01*
X0361210Y0458014D01*
X0361497Y0457130D01*
X0361919Y0456303D01*
X0362465Y0455552D01*
X0363122Y0454895D01*
X0363873Y0454349D01*
X0364700Y0453928D01*
X0365584Y0453641D01*
X0366501Y0453495D01*
X0366965Y0453495D01*
X0366965Y0459395D01*
X0366965Y0459395D01*
X0361065Y0459395D01*
X0366965Y0459395D01*
X0366965Y0459395D01*
X0366965Y0431737D01*
X0366828Y0431600D02*
X0361687Y0431600D01*
X0361965Y0431878D02*
X0361965Y0426737D01*
X0361828Y0426600D02*
X0286819Y0426600D01*
X0286965Y0426454D02*
X0286965Y0451295D01*
X0285354Y0451295D02*
X0288576Y0451295D01*
X0291553Y0452528D01*
X0291965Y0452940D01*
X0292377Y0452528D01*
X0295354Y0451295D01*
X0298576Y0451295D01*
X0301553Y0452528D01*
X0303832Y0454807D01*
X0305065Y0457784D01*
X0305065Y0461006D01*
X0304946Y0461295D01*
X0306540Y0461295D01*
X0308158Y0461965D01*
X0309395Y0463203D01*
X0310065Y0464820D01*
X0310065Y0473970D01*
X0309395Y0475588D01*
X0308158Y0476825D01*
X0306540Y0477495D01*
X0297390Y0477495D01*
X0295773Y0476825D01*
X0295603Y0476656D01*
X0293576Y0477495D01*
X0290354Y0477495D01*
X0288365Y0476671D01*
X0288365Y0477873D01*
X0287391Y0480225D01*
X0285591Y0482026D01*
X0280591Y0487026D01*
X0278238Y0488000D01*
X0270627Y0488000D01*
X0271935Y0490266D01*
X0272664Y0492987D01*
X0272664Y0495804D01*
X0271935Y0498525D01*
X0270527Y0500965D01*
X0270291Y0501201D01*
X0298640Y0501201D01*
X0298404Y0500965D01*
X0296995Y0498525D01*
X0296266Y0495804D01*
X0296266Y0492987D01*
X0296995Y0490266D01*
X0298404Y0487826D01*
X0300396Y0485834D01*
X0302835Y0484425D01*
X0305557Y0483696D01*
X0308374Y0483696D01*
X0311095Y0484425D01*
X0313535Y0485834D01*
X0315527Y0487826D01*
X0316935Y0490266D01*
X0317664Y0492987D01*
X0317664Y0495804D01*
X0316935Y0498525D01*
X0315527Y0500965D01*
X0315289Y0501202D01*
X0353642Y0501203D01*
X0353404Y0500965D01*
X0351995Y0498525D01*
X0351266Y0495804D01*
X0351266Y0492987D01*
X0351995Y0490266D01*
X0353404Y0487826D01*
X0355396Y0485834D01*
X0357835Y0484425D01*
X0360557Y0483696D01*
X0362959Y0483696D01*
X0361965Y0483696D02*
X0361965Y0483377D01*
X0359953Y0481600D02*
X0286016Y0481600D01*
X0286965Y0480651D02*
X0286965Y0501201D01*
X0281965Y0501201D02*
X0281965Y0485651D01*
X0281016Y0486600D02*
X0299630Y0486600D01*
X0301965Y0484928D02*
X0301965Y0477495D01*
X0296965Y0477319D02*
X0296965Y0490377D01*
X0296638Y0491600D02*
X0272293Y0491600D01*
X0271965Y0490377D02*
X0271965Y0488000D01*
X0276965Y0488000D02*
X0276965Y0501201D01*
X0271965Y0501201D02*
X0271965Y0498413D01*
X0272451Y0496600D02*
X0296479Y0496600D01*
X0296965Y0498413D02*
X0296965Y0501201D01*
X0291965Y0501201D02*
X0291965Y0477495D01*
X0306965Y0477319D02*
X0306965Y0483696D01*
X0311965Y0484928D02*
X0311965Y0401454D01*
X0311819Y0401600D02*
X0341565Y0401600D01*
X0341565Y0405174D02*
X0341565Y0375955D01*
X0341553Y0375967D01*
X0338576Y0377200D01*
X0336219Y0377200D01*
X0282165Y0431254D01*
X0282165Y0452740D01*
X0282377Y0452528D01*
X0285354Y0451295D01*
X0284618Y0451600D02*
X0282165Y0451600D01*
X0282165Y0446600D02*
X0349690Y0446600D01*
X0349690Y0451600D02*
X0299312Y0451600D01*
X0296965Y0451295D02*
X0296965Y0416454D01*
X0296819Y0416600D02*
X0351828Y0416600D01*
X0351965Y0416737D02*
X0351965Y0428400D01*
X0348494Y0431600D02*
X0282165Y0431600D01*
X0282165Y0436600D02*
X0346890Y0436600D01*
X0346965Y0440072D02*
X0346965Y0501203D01*
X0341965Y0501203D02*
X0341965Y0406140D01*
X0342156Y0406600D02*
X0306819Y0406600D01*
X0306965Y0406454D02*
X0306965Y0461471D01*
X0307276Y0461600D02*
X0349655Y0461600D01*
X0349690Y0456600D02*
X0304575Y0456600D01*
X0301965Y0452940D02*
X0301965Y0411454D01*
X0301819Y0411600D02*
X0346828Y0411600D01*
X0346965Y0411737D02*
X0346965Y0433128D01*
X0348494Y0441600D02*
X0282165Y0441600D01*
X0271765Y0441600D02*
X0252165Y0441600D01*
X0252165Y0436600D02*
X0271765Y0436600D01*
X0271765Y0431600D02*
X0252165Y0431600D01*
X0252165Y0426600D02*
X0272372Y0426600D01*
X0272557Y0426154D02*
X0271765Y0428066D01*
X0271765Y0453140D01*
X0270346Y0454559D01*
X0270057Y0454349D01*
X0269230Y0453928D01*
X0268347Y0453641D01*
X0267430Y0453495D01*
X0266965Y0453495D01*
X0266965Y0459395D01*
X0266965Y0459395D01*
X0261065Y0459395D01*
X0261065Y0458931D01*
X0261210Y0458014D01*
X0261497Y0457130D01*
X0261919Y0456303D01*
X0262465Y0455552D01*
X0263122Y0454895D01*
X0263873Y0454349D01*
X0264700Y0453928D01*
X0265584Y0453641D01*
X0266501Y0453495D01*
X0266965Y0453495D01*
X0266965Y0459395D01*
X0266965Y0459395D01*
X0266965Y0408954D01*
X0269319Y0406600D02*
X0292111Y0406600D01*
X0291965Y0406746D02*
X0291965Y0389300D01*
X0286965Y0389300D02*
X0286965Y0411746D01*
X0287111Y0411600D02*
X0264319Y0411600D01*
X0261965Y0413954D02*
X0261965Y0456239D01*
X0261768Y0456600D02*
X0254319Y0456600D01*
X0252165Y0454446D02*
X0261914Y0464195D01*
X0263534Y0464195D01*
X0263122Y0463896D01*
X0262465Y0463239D01*
X0261919Y0462488D01*
X0261497Y0461660D01*
X0261210Y0460777D01*
X0261065Y0459860D01*
X0261065Y0459395D01*
X0266965Y0459395D01*
X0266965Y0456600D02*
X0266965Y0456600D01*
X0261965Y0459395D02*
X0261965Y0459395D01*
X0261478Y0461600D02*
X0259319Y0461600D01*
X0261965Y0462551D02*
X0261965Y0464195D01*
X0256965Y0459246D02*
X0256965Y0418954D01*
X0259319Y0416600D02*
X0282111Y0416600D01*
X0281965Y0416746D02*
X0281965Y0393954D01*
X0284319Y0391600D02*
X0307111Y0391600D01*
X0306965Y0391746D02*
X0306965Y0389300D01*
X0309411Y0389300D02*
X0286619Y0389300D01*
X0252165Y0423754D01*
X0252165Y0454446D01*
X0252165Y0451600D02*
X0271765Y0451600D01*
X0271765Y0446600D02*
X0252165Y0446600D01*
X0271965Y0427583D02*
X0271965Y0403954D01*
X0274319Y0401600D02*
X0297111Y0401600D01*
X0296965Y0401746D02*
X0296965Y0389300D01*
X0301965Y0389300D02*
X0301965Y0396746D01*
X0302111Y0396600D02*
X0279319Y0396600D01*
X0276965Y0398954D02*
X0276965Y0421746D01*
X0277111Y0421600D02*
X0254319Y0421600D01*
X0272557Y0426154D02*
X0274020Y0424692D01*
X0309411Y0389300D01*
X0321819Y0391600D02*
X0341565Y0391600D01*
X0341565Y0386600D02*
X0326819Y0386600D01*
X0326965Y0386454D02*
X0326965Y0501202D01*
X0321965Y0501202D02*
X0321965Y0391454D01*
X0316965Y0396454D02*
X0316965Y0490377D01*
X0317293Y0491600D02*
X0351638Y0491600D01*
X0351965Y0490377D02*
X0351965Y0467094D01*
X0351691Y0466600D02*
X0310065Y0466600D01*
X0310065Y0471600D02*
X0354468Y0471600D01*
X0356965Y0476094D02*
X0356965Y0484928D01*
X0354630Y0486600D02*
X0314301Y0486600D01*
X0308383Y0476600D02*
X0357246Y0476600D01*
X0371965Y0483875D02*
X0371965Y0490377D01*
X0372293Y0491600D02*
X0396638Y0491600D01*
X0396965Y0490377D02*
X0396965Y0482658D01*
X0393703Y0481600D02*
X0380227Y0481600D01*
X0381965Y0479015D02*
X0381965Y0501204D01*
X0376965Y0501204D02*
X0376965Y0483802D01*
X0385738Y0476600D02*
X0388193Y0476600D01*
X0386965Y0475850D02*
X0386965Y0501204D01*
X0391965Y0501204D02*
X0391965Y0479619D01*
X0396479Y0496600D02*
X0372451Y0496600D01*
X0371965Y0498413D02*
X0371965Y0501204D01*
X0351965Y0501203D02*
X0351965Y0498413D01*
X0351479Y0496600D02*
X0317451Y0496600D01*
X0316965Y0498413D02*
X0316965Y0501202D01*
X0331965Y0501203D02*
X0331965Y0381454D01*
X0331819Y0381600D02*
X0341565Y0381600D01*
X0341565Y0376600D02*
X0340025Y0376600D01*
X0336965Y0377200D02*
X0336965Y0501203D01*
X0364045Y0466600D02*
X0364356Y0466600D01*
X0361965Y0462856D02*
X0361965Y0462551D01*
X0361478Y0461600D02*
X0361268Y0461600D01*
X0361965Y0459395D02*
X0361965Y0459395D01*
X0361768Y0456600D02*
X0360490Y0456600D01*
X0361965Y0456239D02*
X0361965Y0441322D01*
X0361687Y0441600D02*
X0371565Y0441600D01*
X0371565Y0436600D02*
X0363290Y0436600D01*
X0371565Y0436337D02*
X0342387Y0407159D01*
X0341565Y0405174D01*
X0341565Y0396600D02*
X0316819Y0396600D01*
X0291965Y0421454D02*
X0291965Y0452940D01*
X0289312Y0451600D02*
X0294618Y0451600D01*
X0291819Y0421600D02*
X0356828Y0421600D01*
X0356965Y0421737D02*
X0356965Y0428400D01*
X0371565Y0436337D02*
X0371565Y0453340D01*
X0370346Y0454559D01*
X0370057Y0454349D01*
X0369230Y0453928D01*
X0368347Y0453641D01*
X0367430Y0453495D01*
X0366965Y0453495D01*
X0366965Y0459395D01*
X0366965Y0456600D02*
X0366965Y0456600D01*
X0371565Y0451600D02*
X0360490Y0451600D01*
X0360490Y0446600D02*
X0371565Y0446600D01*
X0420490Y0446600D02*
X0737801Y0446600D01*
X0737801Y0441600D02*
X0420490Y0441600D01*
X0420490Y0436600D02*
X0737801Y0436600D01*
X0737801Y0431600D02*
X0420490Y0431600D01*
X0420490Y0426600D02*
X0737801Y0426600D01*
X0737801Y0451600D02*
X0599312Y0451600D01*
X0610065Y0466600D02*
X0737801Y0466600D01*
X0737801Y0471600D02*
X0610065Y0471600D01*
X0596479Y0496600D02*
X0572451Y0496600D01*
X0571965Y0498413D02*
X0571965Y0501210D01*
X0551965Y0501210D02*
X0551965Y0498413D01*
X0551479Y0496600D02*
X0517451Y0496600D01*
X0516965Y0498413D02*
X0516965Y0501208D01*
X0521965Y0501209D02*
X0521965Y0375555D01*
X0520025Y0376600D02*
X0523906Y0376600D01*
X0526965Y0377200D02*
X0526965Y0501209D01*
X0531965Y0501209D02*
X0531965Y0375555D01*
X0530025Y0376600D02*
X0737801Y0376600D01*
X0737801Y0371600D02*
X0534697Y0371600D01*
X0536819Y0366600D02*
X0737801Y0366600D01*
X0737801Y0361600D02*
X0541819Y0361600D01*
X0541965Y0361454D02*
X0541965Y0501209D01*
X0536965Y0501209D02*
X0536965Y0366454D01*
X0526965Y0361000D02*
X0526965Y0271175D01*
X0521965Y0271175D02*
X0521965Y0362645D01*
X0520025Y0361600D02*
X0523905Y0361600D01*
X0516965Y0361000D02*
X0516965Y0271175D01*
X0516965Y0260775D02*
X0516965Y0257200D01*
X0466965Y0288052D02*
X0466965Y0451295D01*
X0476965Y0475850D02*
X0476965Y0501207D01*
X0471965Y0501207D02*
X0471965Y0498413D01*
X0472451Y0496600D02*
X0496479Y0496600D01*
X0496965Y0498413D02*
X0496965Y0501208D01*
X0491965Y0501208D02*
X0491965Y0477495D01*
X0488193Y0476600D02*
X0485738Y0476600D01*
X0486965Y0475850D02*
X0486965Y0501208D01*
X0481965Y0501207D02*
X0481965Y0477495D01*
X0478193Y0476600D02*
X0475738Y0476600D01*
X0451965Y0498413D02*
X0451965Y0501206D01*
X0446965Y0501206D02*
X0446965Y0306513D01*
X0446871Y0306600D02*
X0582111Y0306600D01*
X0581965Y0306746D02*
X0581965Y0271175D01*
X0576965Y0271175D02*
X0576965Y0311746D01*
X0577111Y0311600D02*
X0441455Y0311600D01*
X0441965Y0311129D02*
X0441965Y0501206D01*
X0436965Y0501206D02*
X0436965Y0315744D01*
X0436038Y0316600D02*
X0572111Y0316600D01*
X0571965Y0316746D02*
X0571965Y0271175D01*
X0651965Y0301600D02*
X0651965Y0301600D01*
X0656965Y0301600D02*
X0662865Y0301600D01*
X0656965Y0301600D01*
X0656965Y0301600D01*
X0656965Y0296600D02*
X0656965Y0296600D01*
X0661965Y0301600D02*
X0661965Y0301600D01*
X0656965Y0306600D02*
X0656965Y0306600D01*
X0737801Y0341600D02*
X0561819Y0341600D01*
X0561965Y0341454D02*
X0561965Y0452940D01*
X0596965Y0498413D02*
X0596965Y0501211D01*
X0546965Y0501209D02*
X0546965Y0356454D01*
X0546819Y0356600D02*
X0737801Y0356600D01*
X0737801Y0381600D02*
X0420490Y0381600D01*
X0420490Y0386600D02*
X0737801Y0386600D01*
X0737801Y0391600D02*
X0420490Y0391600D01*
X0418747Y0366600D02*
X0509233Y0366600D01*
X0431965Y0363350D02*
X0431965Y0501206D01*
X0426965Y0501206D02*
X0426965Y0364995D01*
X0418865Y0356600D02*
X0412650Y0356600D01*
X0411965Y0355478D02*
X0411965Y0350425D01*
X0409601Y0351600D02*
X0420805Y0351600D01*
X0220565Y0421600D02*
X0154586Y0421600D01*
X0396965Y0498413D02*
X0396965Y0501205D01*
X0526965Y0201600D02*
X0526965Y0201600D01*
X0735889Y0196600D02*
X0737801Y0196600D01*
X0737801Y0201600D02*
X0736264Y0201600D01*
X0736395Y0181600D02*
X0737801Y0181600D01*
X0737801Y0146600D02*
X0733648Y0146600D01*
X0736457Y0141600D02*
X0737801Y0141600D01*
D23*
X0261965Y0426600D03*
X0334465Y0459100D03*
M02*
