G75*
%MOIN*%
%OFA0B0*%
%FSLAX25Y25*%
%IPPOS*%
%LPD*%
%AMOC8*
5,1,8,0,0,1.08239X$1,22.5*
%
%ADD10C,0.12611*%
%ADD11C,0.06706*%
%ADD12C,0.08200*%
%ADD13R,0.08200X0.08200*%
%ADD14C,0.13398*%
%ADD15OC8,0.08200*%
%ADD16C,0.06400*%
%ADD17OC8,0.07100*%
%ADD18OC8,0.06400*%
%ADD19C,0.07800*%
%ADD20C,0.07200*%
%ADD21C,0.07900*%
%ADD22OC8,0.07556*%
D10*
X0177044Y0133303D03*
X0177044Y0417949D03*
X0653816Y0417949D03*
X0653816Y0133303D03*
D11*
X0891965Y0143933D03*
X0891965Y0488933D03*
X0071965Y0323933D03*
D12*
X0240965Y0376433D03*
X0250965Y0376433D03*
X0260965Y0376433D03*
X0270965Y0376433D03*
X0280965Y0376433D03*
X0290965Y0376433D03*
X0300965Y0376433D03*
X0310965Y0376433D03*
X0310965Y0363933D03*
X0310965Y0353933D03*
X0326965Y0353933D03*
X0336965Y0353933D03*
X0346965Y0353933D03*
X0356965Y0353933D03*
X0366965Y0353933D03*
X0376965Y0356433D03*
X0376965Y0366433D03*
X0366965Y0363933D03*
X0356965Y0363933D03*
X0346965Y0363933D03*
X0336965Y0363933D03*
X0326965Y0363933D03*
X0326965Y0376433D03*
X0336965Y0376433D03*
X0346965Y0376433D03*
X0356965Y0376433D03*
X0366965Y0376433D03*
X0376965Y0376433D03*
X0386965Y0376433D03*
X0396965Y0376433D03*
X0396965Y0366728D03*
X0426965Y0366728D03*
X0516965Y0376433D03*
X0526965Y0376433D03*
X0496965Y0466728D03*
X0486965Y0466728D03*
X0476965Y0466728D03*
X0466965Y0466728D03*
X0471965Y0476728D03*
X0481965Y0476728D03*
X0491965Y0476728D03*
X0566965Y0466728D03*
X0576965Y0466728D03*
X0586965Y0466728D03*
X0596965Y0466728D03*
X0591965Y0476728D03*
X0581965Y0476728D03*
X0571965Y0476728D03*
X0396965Y0466728D03*
X0386965Y0466728D03*
X0376965Y0466728D03*
X0366965Y0466728D03*
X0371965Y0476728D03*
X0381965Y0476728D03*
X0391965Y0476728D03*
X0296965Y0466728D03*
X0286965Y0466728D03*
X0276965Y0466728D03*
X0266965Y0466728D03*
X0271965Y0476728D03*
X0281965Y0476728D03*
X0291965Y0476728D03*
X0176965Y0470478D03*
X0176965Y0440478D03*
X0516965Y0206433D03*
X0526965Y0206433D03*
X0626965Y0193933D03*
X0626965Y0181433D03*
X0656965Y0181433D03*
X0656965Y0193933D03*
X0656965Y0283933D03*
X0626965Y0283933D03*
X0326965Y0186433D03*
X0316965Y0186433D03*
X0306965Y0186433D03*
X0296965Y0186433D03*
X0286965Y0186433D03*
X0276965Y0186433D03*
D13*
X0301965Y0476728D03*
X0401965Y0476728D03*
X0501965Y0476728D03*
X0601965Y0476728D03*
D14*
X0606965Y0501728D03*
X0561965Y0501728D03*
X0506965Y0501728D03*
X0461965Y0501728D03*
X0406965Y0501728D03*
X0361965Y0501728D03*
X0306965Y0501728D03*
X0261965Y0501728D03*
D15*
X0516965Y0256433D03*
X0516965Y0246433D03*
X0526965Y0246433D03*
X0526965Y0256433D03*
D16*
X0616965Y0249533D02*
X0616965Y0243933D01*
X0626965Y0243933D02*
X0626965Y0249533D01*
X0636965Y0249533D02*
X0636965Y0243933D01*
X0646965Y0243933D02*
X0646965Y0249533D01*
X0646965Y0213933D02*
X0646965Y0208333D01*
X0636965Y0208333D02*
X0636965Y0213933D01*
X0626965Y0213933D02*
X0626965Y0208333D01*
X0616965Y0208333D02*
X0616965Y0213933D01*
X0421965Y0441133D02*
X0421965Y0446733D01*
X0414465Y0446733D02*
X0414465Y0441133D01*
X0380715Y0441133D02*
X0380715Y0446733D01*
X0373215Y0446733D02*
X0373215Y0441133D01*
X0340340Y0470183D02*
X0334740Y0470183D01*
X0334740Y0477683D02*
X0340340Y0477683D01*
X0305715Y0446733D02*
X0305715Y0441133D01*
X0298215Y0441133D02*
X0298215Y0446733D01*
X0260715Y0444708D02*
X0260715Y0439108D01*
X0253215Y0439108D02*
X0253215Y0444708D01*
X0229765Y0470183D02*
X0224165Y0470183D01*
X0224165Y0477683D02*
X0229765Y0477683D01*
X0431665Y0477683D02*
X0437265Y0477683D01*
X0437265Y0470183D02*
X0431665Y0470183D01*
D17*
X0446965Y0268933D03*
X0466965Y0268933D03*
X0461965Y0228933D03*
X0481965Y0228933D03*
X0411965Y0223933D03*
X0391965Y0223933D03*
X0384465Y0263933D03*
X0404465Y0263933D03*
X0331965Y0263933D03*
X0311965Y0263933D03*
X0261965Y0268933D03*
X0241965Y0268933D03*
X0251965Y0223933D03*
X0271965Y0223933D03*
D18*
X0284465Y0223933D03*
X0294465Y0223933D03*
X0284465Y0268933D03*
X0274465Y0268933D03*
X0344465Y0263933D03*
X0354465Y0263933D03*
X0414465Y0263933D03*
X0424465Y0263933D03*
X0479465Y0268933D03*
X0489465Y0268933D03*
X0494465Y0233933D03*
X0504465Y0233933D03*
X0434465Y0223933D03*
X0424465Y0223933D03*
D19*
X0406965Y0408933D03*
X0418990Y0423933D03*
X0458990Y0423933D03*
X0476965Y0408933D03*
X0476965Y0448933D03*
X0366965Y0408933D03*
X0339465Y0408933D03*
X0320715Y0416908D03*
X0280715Y0416908D03*
X0271965Y0408933D03*
X0231965Y0408933D03*
X0206965Y0423933D03*
X0206965Y0463933D03*
X0339465Y0448933D03*
D20*
X0340165Y0323933D02*
X0333765Y0323933D01*
X0333765Y0313933D02*
X0340165Y0313933D01*
X0340165Y0303933D02*
X0333765Y0303933D01*
X0305165Y0303933D02*
X0298765Y0303933D01*
X0298765Y0313933D02*
X0305165Y0313933D01*
X0305165Y0323933D02*
X0298765Y0323933D01*
X0265165Y0323933D02*
X0258765Y0323933D01*
X0258765Y0313933D02*
X0265165Y0313933D01*
X0265165Y0303933D02*
X0258765Y0303933D01*
X0254465Y0254633D02*
X0254465Y0248233D01*
X0264465Y0248233D02*
X0264465Y0254633D01*
X0274465Y0254633D02*
X0274465Y0248233D01*
X0324465Y0249633D02*
X0324465Y0243233D01*
X0334465Y0243233D02*
X0334465Y0249633D01*
X0344465Y0249633D02*
X0344465Y0243233D01*
X0394465Y0243233D02*
X0394465Y0249633D01*
X0404465Y0249633D02*
X0404465Y0243233D01*
X0414465Y0243233D02*
X0414465Y0249633D01*
X0459465Y0249633D02*
X0459465Y0243233D01*
X0469465Y0243233D02*
X0469465Y0249633D01*
X0479465Y0249633D02*
X0479465Y0243233D01*
X0474465Y0209633D02*
X0474465Y0203233D01*
X0484465Y0203233D02*
X0484465Y0209633D01*
X0494465Y0209633D02*
X0494465Y0203233D01*
X0424465Y0203233D02*
X0424465Y0209633D01*
X0414465Y0209633D02*
X0414465Y0203233D01*
X0404465Y0203233D02*
X0404465Y0209633D01*
X0284465Y0209633D02*
X0284465Y0203233D01*
X0274465Y0203233D02*
X0274465Y0209633D01*
X0264465Y0209633D02*
X0264465Y0203233D01*
X0368765Y0303933D02*
X0375165Y0303933D01*
X0375165Y0313933D02*
X0368765Y0313933D01*
X0368765Y0323933D02*
X0375165Y0323933D01*
X0403765Y0323933D02*
X0410165Y0323933D01*
X0410165Y0313933D02*
X0403765Y0313933D01*
X0403765Y0303933D02*
X0410165Y0303933D01*
X0438765Y0303933D02*
X0445165Y0303933D01*
X0445165Y0313933D02*
X0438765Y0313933D01*
X0438765Y0323933D02*
X0445165Y0323933D01*
X0473765Y0323933D02*
X0480165Y0323933D01*
X0480165Y0313933D02*
X0473765Y0313933D01*
X0473765Y0303933D02*
X0480165Y0303933D01*
D21*
X0721486Y0286413D02*
X0728586Y0286413D01*
X0728586Y0266728D02*
X0721486Y0266728D01*
X0721486Y0247043D02*
X0728586Y0247043D01*
X0728507Y0206886D02*
X0721407Y0206886D01*
X0721407Y0187201D02*
X0728507Y0187201D01*
X0728507Y0167516D02*
X0721407Y0167516D01*
X0721407Y0147831D02*
X0728507Y0147831D01*
X0151186Y0218636D02*
X0144086Y0218636D01*
X0144086Y0238321D02*
X0151186Y0238321D01*
X0151186Y0258006D02*
X0144086Y0258006D01*
X0144086Y0277691D02*
X0151186Y0277691D01*
X0152936Y0455793D02*
X0145836Y0455793D01*
X0145836Y0475478D02*
X0152936Y0475478D01*
X0152936Y0495163D02*
X0145836Y0495163D01*
D22*
X0244465Y0485183D03*
X0279465Y0450183D03*
X0321390Y0455183D03*
X0322640Y0483933D03*
X0421865Y0489508D03*
X0431365Y0407433D03*
X0386915Y0389833D03*
X0441665Y0345233D03*
X0468215Y0366433D03*
X0476965Y0358933D03*
X0505715Y0396433D03*
X0392165Y0329533D03*
X0436865Y0284033D03*
X0320615Y0320758D03*
X0299015Y0396358D03*
X0586565Y0227733D03*
X0616940Y0259333D03*
X0626965Y0258933D03*
M02*
