%
M48
M72
T01C0.02756
T02C0.03200
T03C0.03543
T04C0.03937
T05C0.04000
T06C0.04700
T07C0.05906
T08C0.11811
T09C0.12598
%
T01
X436865Y284033
X392165Y329533
X441665Y345233
X468215Y366433
X476965Y358933
X505715Y396433
X431365Y407433
X386915Y389833
X299015Y396358
X279465Y450183
X321390Y455183
X322640Y483933
X244465Y485183
X421865Y489508
X320615Y320758
X586565Y227733
X616940Y259333
X626965Y258933
T02
X626965Y243933
X616965Y243933
X636965Y243933
X646965Y243933
X646965Y213933
X636965Y213933
X626965Y213933
X616965Y213933
X504465Y233933
X494465Y233933
X481965Y228933
X461965Y228933
X434465Y223933
X424465Y223933
X411965Y223933
X391965Y223933
X384465Y263933
X404465Y263933
X414465Y263933
X424465Y263933
X446965Y268933
X466965Y268933
X479465Y268933
X489465Y268933
X354465Y263933
X344465Y263933
X331965Y263933
X311965Y263933
X284465Y268933
X274465Y268933
X261965Y268933
X241965Y268933
X251965Y223933
X271965Y223933
X284465Y223933
X294465Y223933
X298215Y443933
X305715Y443933
X337540Y470183
X337540Y477683
X373215Y443933
X380715Y443933
X414465Y443933
X421965Y443933
X434465Y470183
X434465Y477683
X260715Y441908
X253215Y441908
X226965Y470183
X226965Y477683
T03
X176965Y470478
X176965Y440478
X310965Y363933
X310965Y353933
X326965Y353933
X336965Y353933
X346965Y353933
X356965Y353933
X366965Y353933
X376965Y356433
X376965Y366433
X366965Y363933
X356965Y363933
X346965Y363933
X336965Y363933
X326965Y363933
X396965Y366728
X426965Y366728
X626965Y283933
X656965Y283933
X656965Y193933
X656965Y181433
X626965Y181433
X626965Y193933
T04
X596965Y466728
X586965Y466728
X576965Y466728
X566965Y466728
X571965Y476728
X581965Y476728
X591965Y476728
X601965Y476728
X501965Y476728
X491965Y476728
X481965Y476728
X471965Y476728
X466965Y466728
X476965Y466728
X486965Y466728
X496965Y466728
X401965Y476728
X391965Y476728
X381965Y476728
X371965Y476728
X366965Y466728
X376965Y466728
X386965Y466728
X396965Y466728
X301965Y476728
X291965Y476728
X281965Y476728
X271965Y476728
X266965Y466728
X276965Y466728
X286965Y466728
X296965Y466728
T05
X339465Y448933
X320715Y416908
X339465Y408933
X366965Y408933
X406965Y408933
X418990Y423933
X458990Y423933
X476965Y408933
X516965Y376433
X526965Y376433
X476965Y323933
X476965Y313933
X476965Y303933
X441965Y303933
X441965Y313933
X441965Y323933
X406965Y323933
X406965Y313933
X406965Y303933
X371965Y303933
X371965Y313933
X371965Y323933
X336965Y323933
X336965Y313933
X336965Y303933
X301965Y303933
X301965Y313933
X301965Y323933
X261965Y323933
X261965Y313933
X261965Y303933
X264465Y251433
X254465Y251433
X274465Y251433
X324465Y246433
X334465Y246433
X344465Y246433
X394465Y246433
X404465Y246433
X414465Y246433
X459465Y246433
X469465Y246433
X479465Y246433
X516965Y246433
X516965Y256433
X526965Y256433
X526965Y246433
X526965Y206433
X516965Y206433
X494465Y206433
X484465Y206433
X474465Y206433
X424465Y206433
X414465Y206433
X404465Y206433
X326965Y186433
X316965Y186433
X306965Y186433
X296965Y186433
X286965Y186433
X276965Y186433
X274465Y206433
X264465Y206433
X284465Y206433
X280965Y376433
X270965Y376433
X260965Y376433
X250965Y376433
X240965Y376433
X231965Y408933
X206965Y423933
X206965Y463933
X280715Y416908
X271965Y408933
X290965Y376433
X300965Y376433
X310965Y376433
X326965Y376433
X336965Y376433
X346965Y376433
X356965Y376433
X366965Y376433
X376965Y376433
X386965Y376433
X396965Y376433
X476965Y448933
T06
X725036Y286413
X725036Y266728
X725036Y247043
X724957Y206886
X724957Y187201
X724957Y167516
X724957Y147831
X149386Y455793
X149386Y475478
X149386Y495163
X147636Y277691
X147636Y258006
X147636Y238321
X147636Y218636
T07
X71965Y323933
X891965Y488933
X891965Y143933
T08
X177044Y133303
X177044Y417949
X653816Y417949
X653816Y133303
T09
X606965Y501728
X561965Y501728
X506965Y501728
X461965Y501728
X406965Y501728
X361965Y501728
X306965Y501728
X261965Y501728
M30
