%
M48
M72
T01C0.02756
T02C0.03200
T03C0.03543
T04C0.03937
T05C0.04000
T06C0.04700
T07C0.11811
T08C0.12598
%
T01
X291965Y190350
X345715Y256600
X345715Y279100
X355715Y306600
X326965Y311600
X296965Y311600
X265715Y316600
X239465Y321600
X200715Y321600
X185715Y289100
X186965Y371600
X225715Y385350
X234465Y380350
X276965Y384100
X301965Y386600
X339465Y394100
X369465Y382850
X400715Y394100
X418215Y380350
X433215Y382850
X471965Y359100
X498215Y377850
X506965Y361600
X534465Y380350
X564465Y382850
X555715Y417850
X520715Y442850
X474465Y444100
X466965Y430350
X424465Y441600
X416965Y415350
X381965Y444100
X351965Y441600
X331965Y451600
X329465Y476600
X239465Y475350
X239465Y454100
X194465Y420350
X319465Y340350
X385715Y301600
X415715Y306600
X446965Y311600
X475715Y316600
X506965Y321600
X539465Y289100
X539465Y265350
X605715Y276600
X603215Y311600
X696965Y199100
X404465Y190350
X391965Y156600
X424465Y471600
X530715Y491600
X541965Y480350
T02
X538215Y428805
X545715Y428805
X568215Y428805
X575715Y428805
X515715Y428805
X508215Y428805
X490715Y428805
X483215Y428805
X495715Y277555
X495715Y267555
X482260Y269100
X462260Y269100
X445715Y266305
X445715Y276305
X432260Y271600
X412260Y271600
X394465Y275055
X394465Y265055
X381010Y271600
X361010Y271600
X334465Y275055
X321010Y269100
X334465Y265055
X301010Y269100
X283215Y265055
X283215Y275055
X269760Y269100
X249760Y269100
X231965Y265055
X218510Y269100
X231965Y275055
X198510Y269100
X251010Y221600
X271010Y221600
X284465Y217555
X284465Y227555
X301010Y221600
X321010Y221600
X336010Y222850
X346010Y222850
X361010Y221600
X381010Y221600
X394465Y217555
X394465Y227555
X412260Y221600
X432260Y221600
X445715Y217555
X445715Y227555
X462260Y221600
X482260Y221600
X495715Y217555
X495715Y227555
X616965Y246600
X626965Y246600
X636965Y246600
X646965Y246600
X646965Y276600
X636965Y276600
X626965Y276600
X616965Y276600
T03
X626965Y301600
X656965Y301600
X656965Y226600
X656965Y214100
X626965Y214100
X626965Y226600
X426965Y354395
X396965Y354395
X376965Y359100
X366965Y359100
X356965Y359100
X346965Y359100
X336965Y359100
X326965Y359100
X326965Y349100
X336965Y349100
X346965Y349100
X356965Y349100
X366965Y349100
X376965Y349100
X310965Y349100
X300965Y349100
X290965Y349100
X280965Y349100
X270965Y349100
X270965Y359100
X280965Y359100
X290965Y359100
X300965Y359100
X310965Y359100
X174465Y439395
X174465Y469395
T04
X266965Y459395
X276965Y459395
X286965Y459395
X296965Y459395
X291965Y469395
X281965Y469395
X271965Y469395
X301965Y469395
X366965Y459395
X376965Y459395
X386965Y459395
X396965Y459395
X391965Y469395
X401965Y469395
X381965Y469395
X371965Y469395
X466965Y459395
X476965Y459395
X486965Y459395
X496965Y459395
X491965Y469395
X481965Y469395
X471965Y469395
X501965Y469395
X566965Y459395
X576965Y459395
X586965Y459395
X581965Y469395
X571965Y469395
X591965Y469395
X601965Y469395
X596965Y459395
T05
X609465Y406305
X571965Y393805
X569465Y406305
X554465Y406305
X531965Y393805
X521965Y393805
X514465Y406305
X481965Y393805
X474170Y406600
X449465Y393805
X434170Y406600
X421965Y406305
X409465Y393805
X391965Y393805
X381965Y406305
X376965Y426305
X363215Y426305
X341965Y428805
X328215Y428805
X316670Y409100
X291670Y395350
X276670Y409100
X251670Y395350
X250965Y369100
X240965Y369100
X260965Y369100
X270965Y369100
X280965Y369100
X290965Y369100
X300965Y369100
X310965Y369100
X326965Y369100
X336965Y369100
X346965Y369100
X356965Y369100
X366965Y369100
X376965Y369100
X386965Y369100
X396965Y369100
X351965Y393805
X398215Y433805
X411965Y433805
X438215Y433805
X451965Y433805
X516965Y369100
X526965Y369100
X491965Y331600
X491965Y321600
X491965Y311600
X461965Y306600
X461965Y316600
X461965Y326600
X431965Y321600
X431965Y311600
X431965Y301600
X401965Y296600
X401965Y306600
X401965Y316600
X371965Y311600
X371965Y301600
X371965Y291600
X341965Y296600
X341965Y306600
X341965Y316600
X311965Y311600
X311965Y301600
X281965Y301600
X281965Y311600
X281965Y321600
X311965Y321600
X251965Y316600
X251965Y326600
X251965Y306600
X221965Y311600
X221965Y321600
X221965Y331600
X201965Y351600
X201965Y361600
X201965Y371600
X216670Y391600
X176670Y391600
X240715Y428805
X254465Y428805
X285715Y433805
X299465Y433805
X224465Y453805
X210715Y453805
X206010Y247850
X216010Y247850
X226010Y247850
X257260Y246600
X267260Y246600
X277260Y246600
X308510Y246600
X318510Y246600
X328510Y246600
X368510Y246600
X378510Y246600
X388510Y246600
X419760Y246600
X429760Y246600
X439760Y246600
X469760Y246600
X479760Y246600
X489760Y246600
X516965Y249100
X526965Y249100
X526965Y239100
X516965Y239100
X516965Y199100
X526965Y199100
X489760Y199100
X479760Y199100
X469760Y199100
X439760Y199100
X429760Y199100
X419760Y199100
X388510Y199100
X378510Y199100
X368510Y199100
X328215Y199100
X318215Y199100
X308215Y199100
X306965Y179100
X296965Y179100
X286965Y179100
X276965Y179100
X277260Y199100
X267260Y199100
X257260Y199100
X316965Y179100
X326965Y179100
T06
X148886Y226303
X148886Y245988
X148886Y265673
X148886Y285358
X146886Y449710
X146886Y469395
X146886Y489080
X725036Y279080
X725036Y259395
X725036Y239710
X724957Y199553
X724957Y179868
X724957Y160183
X724957Y140498
T07
X177044Y125970
X177044Y410616
X653816Y410616
X653816Y125970
T08
X606965Y494395
X561965Y494395
X506965Y494395
X461965Y494395
X406965Y494395
X361965Y494395
X306965Y494395
X261965Y494395
M30
