G75*
%MOIN*%
%OFA0B0*%
%FSLAX25Y25*%
%IPPOS*%
%LPD*%
%AMOC8*
5,1,8,0,0,1.08239X$1,22.5*
%
%ADD10C,0.12611*%
%ADD11C,0.08200*%
%ADD12R,0.08200X0.08200*%
%ADD13C,0.13398*%
%ADD14OC8,0.08200*%
%ADD15C,0.08400*%
%ADD16OC8,0.08400*%
%ADD17C,0.06400*%
%ADD18OC8,0.07100*%
%ADD19OC8,0.06400*%
%ADD20C,0.04000*%
%ADD21C,0.07200*%
%ADD22C,0.07900*%
%ADD23OC8,0.07556*%
D10*
X0177044Y0125970D03*
X0177044Y0410616D03*
X0653816Y0410616D03*
X0653816Y0125970D03*
D11*
X0656965Y0214100D03*
X0656965Y0226600D03*
X0626965Y0226600D03*
X0626965Y0214100D03*
X0526965Y0199100D03*
X0516965Y0199100D03*
X0626965Y0301600D03*
X0656965Y0301600D03*
X0526965Y0369100D03*
X0516965Y0369100D03*
X0426965Y0354395D03*
X0396965Y0354395D03*
X0396965Y0369100D03*
X0386965Y0369100D03*
X0376965Y0369100D03*
X0366965Y0369100D03*
X0356965Y0369100D03*
X0346965Y0369100D03*
X0336965Y0369100D03*
X0326965Y0369100D03*
X0326965Y0359100D03*
X0336965Y0359100D03*
X0346965Y0359100D03*
X0356965Y0359100D03*
X0366965Y0359100D03*
X0376965Y0359100D03*
X0376965Y0349100D03*
X0366965Y0349100D03*
X0356965Y0349100D03*
X0346965Y0349100D03*
X0336965Y0349100D03*
X0326965Y0349100D03*
X0310965Y0349100D03*
X0300965Y0349100D03*
X0290965Y0349100D03*
X0280965Y0349100D03*
X0270965Y0349100D03*
X0270965Y0359100D03*
X0270965Y0369100D03*
X0260965Y0369100D03*
X0250965Y0369100D03*
X0240965Y0369100D03*
X0280965Y0369100D03*
X0280965Y0359100D03*
X0290965Y0359100D03*
X0290965Y0369100D03*
X0300965Y0369100D03*
X0300965Y0359100D03*
X0310965Y0359100D03*
X0310965Y0369100D03*
X0296965Y0459395D03*
X0286965Y0459395D03*
X0276965Y0459395D03*
X0266965Y0459395D03*
X0271965Y0469395D03*
X0281965Y0469395D03*
X0291965Y0469395D03*
X0366965Y0459395D03*
X0376965Y0459395D03*
X0386965Y0459395D03*
X0396965Y0459395D03*
X0391965Y0469395D03*
X0381965Y0469395D03*
X0371965Y0469395D03*
X0466965Y0459395D03*
X0476965Y0459395D03*
X0486965Y0459395D03*
X0496965Y0459395D03*
X0491965Y0469395D03*
X0481965Y0469395D03*
X0471965Y0469395D03*
X0566965Y0459395D03*
X0576965Y0459395D03*
X0586965Y0459395D03*
X0581965Y0469395D03*
X0571965Y0469395D03*
X0591965Y0469395D03*
X0596965Y0459395D03*
X0326965Y0179100D03*
X0316965Y0179100D03*
X0306965Y0179100D03*
X0296965Y0179100D03*
X0286965Y0179100D03*
X0276965Y0179100D03*
X0174465Y0439395D03*
X0174465Y0469395D03*
D12*
X0301965Y0469395D03*
X0401965Y0469395D03*
X0501965Y0469395D03*
X0601965Y0469395D03*
D13*
X0606965Y0494395D03*
X0561965Y0494395D03*
X0506965Y0494395D03*
X0461965Y0494395D03*
X0406965Y0494395D03*
X0361965Y0494395D03*
X0306965Y0494395D03*
X0261965Y0494395D03*
D14*
X0516965Y0249100D03*
X0526965Y0249100D03*
X0526965Y0239100D03*
X0516965Y0239100D03*
D15*
X0376965Y0426305D03*
X0341965Y0428805D03*
X0299465Y0433805D03*
X0254465Y0428805D03*
X0224465Y0453805D03*
X0411965Y0433805D03*
X0451965Y0433805D03*
D16*
X0438215Y0433805D03*
X0398215Y0433805D03*
X0363215Y0426305D03*
X0328215Y0428805D03*
X0285715Y0433805D03*
X0240715Y0428805D03*
X0210715Y0453805D03*
D17*
X0483215Y0431605D02*
X0483215Y0426005D01*
X0490715Y0426005D02*
X0490715Y0431605D01*
X0508215Y0431605D02*
X0508215Y0426005D01*
X0515715Y0426005D02*
X0515715Y0431605D01*
X0538215Y0431605D02*
X0538215Y0426005D01*
X0545715Y0426005D02*
X0545715Y0431605D01*
X0568215Y0431605D02*
X0568215Y0426005D01*
X0575715Y0426005D02*
X0575715Y0431605D01*
X0616965Y0282200D02*
X0616965Y0276600D01*
X0626965Y0276600D02*
X0626965Y0282200D01*
X0636965Y0282200D02*
X0636965Y0276600D01*
X0646965Y0276600D02*
X0646965Y0282200D01*
X0646965Y0246600D02*
X0646965Y0241000D01*
X0636965Y0241000D02*
X0636965Y0246600D01*
X0626965Y0246600D02*
X0626965Y0241000D01*
X0616965Y0241000D02*
X0616965Y0246600D01*
D18*
X0482260Y0269100D03*
X0462260Y0269100D03*
X0432260Y0271600D03*
X0412260Y0271600D03*
X0381010Y0271600D03*
X0361010Y0271600D03*
X0321010Y0269100D03*
X0301010Y0269100D03*
X0269760Y0269100D03*
X0249760Y0269100D03*
X0218510Y0269100D03*
X0198510Y0269100D03*
X0251010Y0221600D03*
X0271010Y0221600D03*
X0301010Y0221600D03*
X0321010Y0221600D03*
X0361010Y0221600D03*
X0381010Y0221600D03*
X0412260Y0221600D03*
X0432260Y0221600D03*
X0462260Y0221600D03*
X0482260Y0221600D03*
D19*
X0495715Y0217555D03*
X0495715Y0227555D03*
X0445715Y0227555D03*
X0445715Y0217555D03*
X0394465Y0217555D03*
X0394465Y0227555D03*
X0346010Y0222850D03*
X0336010Y0222850D03*
X0334465Y0265055D03*
X0334465Y0275055D03*
X0283215Y0275055D03*
X0283215Y0265055D03*
X0284465Y0227555D03*
X0284465Y0217555D03*
X0231965Y0265055D03*
X0231965Y0275055D03*
X0394465Y0275055D03*
X0394465Y0265055D03*
X0445715Y0266305D03*
X0445715Y0276305D03*
X0495715Y0277555D03*
X0495715Y0267555D03*
D20*
X0481965Y0393805D03*
X0474170Y0406600D03*
X0449465Y0393805D03*
X0434170Y0406600D03*
X0421965Y0406305D03*
X0409465Y0393805D03*
X0391965Y0393805D03*
X0381965Y0406305D03*
X0351965Y0393805D03*
X0316670Y0409100D03*
X0291670Y0395350D03*
X0276670Y0409100D03*
X0251670Y0395350D03*
X0216670Y0391600D03*
X0176670Y0391600D03*
X0514465Y0406305D03*
X0521965Y0393805D03*
X0531965Y0393805D03*
X0554465Y0406305D03*
X0569465Y0406305D03*
X0571965Y0393805D03*
X0609465Y0406305D03*
D21*
X0495165Y0331600D02*
X0488765Y0331600D01*
X0488765Y0321600D02*
X0495165Y0321600D01*
X0495165Y0311600D02*
X0488765Y0311600D01*
X0465165Y0306600D02*
X0458765Y0306600D01*
X0458765Y0316600D02*
X0465165Y0316600D01*
X0465165Y0326600D02*
X0458765Y0326600D01*
X0435165Y0321600D02*
X0428765Y0321600D01*
X0428765Y0311600D02*
X0435165Y0311600D01*
X0435165Y0301600D02*
X0428765Y0301600D01*
X0405165Y0296600D02*
X0398765Y0296600D01*
X0398765Y0306600D02*
X0405165Y0306600D01*
X0405165Y0316600D02*
X0398765Y0316600D01*
X0375165Y0311600D02*
X0368765Y0311600D01*
X0368765Y0301600D02*
X0375165Y0301600D01*
X0375165Y0291600D02*
X0368765Y0291600D01*
X0345165Y0296600D02*
X0338765Y0296600D01*
X0338765Y0306600D02*
X0345165Y0306600D01*
X0345165Y0316600D02*
X0338765Y0316600D01*
X0315165Y0311600D02*
X0308765Y0311600D01*
X0308765Y0301600D02*
X0315165Y0301600D01*
X0285165Y0301600D02*
X0278765Y0301600D01*
X0278765Y0311600D02*
X0285165Y0311600D01*
X0285165Y0321600D02*
X0278765Y0321600D01*
X0255165Y0316600D02*
X0248765Y0316600D01*
X0248765Y0326600D02*
X0255165Y0326600D01*
X0255165Y0306600D02*
X0248765Y0306600D01*
X0225165Y0311600D02*
X0218765Y0311600D01*
X0218765Y0321600D02*
X0225165Y0321600D01*
X0225165Y0331600D02*
X0218765Y0331600D01*
X0205165Y0351600D02*
X0198765Y0351600D01*
X0198765Y0361600D02*
X0205165Y0361600D01*
X0205165Y0371600D02*
X0198765Y0371600D01*
X0308765Y0321600D02*
X0315165Y0321600D01*
X0318510Y0249800D02*
X0318510Y0243400D01*
X0308510Y0243400D02*
X0308510Y0249800D01*
X0328510Y0249800D02*
X0328510Y0243400D01*
X0368510Y0243400D02*
X0368510Y0249800D01*
X0378510Y0249800D02*
X0378510Y0243400D01*
X0388510Y0243400D02*
X0388510Y0249800D01*
X0419760Y0249800D02*
X0419760Y0243400D01*
X0429760Y0243400D02*
X0429760Y0249800D01*
X0439760Y0249800D02*
X0439760Y0243400D01*
X0469760Y0243400D02*
X0469760Y0249800D01*
X0479760Y0249800D02*
X0479760Y0243400D01*
X0489760Y0243400D02*
X0489760Y0249800D01*
X0489760Y0202300D02*
X0489760Y0195900D01*
X0479760Y0195900D02*
X0479760Y0202300D01*
X0469760Y0202300D02*
X0469760Y0195900D01*
X0439760Y0195900D02*
X0439760Y0202300D01*
X0429760Y0202300D02*
X0429760Y0195900D01*
X0419760Y0195900D02*
X0419760Y0202300D01*
X0388510Y0202300D02*
X0388510Y0195900D01*
X0378510Y0195900D02*
X0378510Y0202300D01*
X0368510Y0202300D02*
X0368510Y0195900D01*
X0328215Y0195900D02*
X0328215Y0202300D01*
X0318215Y0202300D02*
X0318215Y0195900D01*
X0308215Y0195900D02*
X0308215Y0202300D01*
X0277260Y0202300D02*
X0277260Y0195900D01*
X0267260Y0195900D02*
X0267260Y0202300D01*
X0257260Y0202300D02*
X0257260Y0195900D01*
X0257260Y0243400D02*
X0257260Y0249800D01*
X0267260Y0249800D02*
X0267260Y0243400D01*
X0277260Y0243400D02*
X0277260Y0249800D01*
X0226010Y0251050D02*
X0226010Y0244650D01*
X0216010Y0244650D02*
X0216010Y0251050D01*
X0206010Y0251050D02*
X0206010Y0244650D01*
D22*
X0152436Y0245988D02*
X0145336Y0245988D01*
X0145336Y0226303D02*
X0152436Y0226303D01*
X0152436Y0265673D02*
X0145336Y0265673D01*
X0145336Y0285358D02*
X0152436Y0285358D01*
X0150436Y0449710D02*
X0143336Y0449710D01*
X0143336Y0469395D02*
X0150436Y0469395D01*
X0150436Y0489080D02*
X0143336Y0489080D01*
X0721486Y0279080D02*
X0728586Y0279080D01*
X0728586Y0259395D02*
X0721486Y0259395D01*
X0721486Y0239710D02*
X0728586Y0239710D01*
X0728507Y0199553D02*
X0721407Y0199553D01*
X0721407Y0179868D02*
X0728507Y0179868D01*
X0728507Y0160183D02*
X0721407Y0160183D01*
X0721407Y0140498D02*
X0728507Y0140498D01*
D23*
X0696965Y0199100D03*
X0605715Y0276600D03*
X0603215Y0311600D03*
X0539465Y0289100D03*
X0539465Y0265350D03*
X0475715Y0316600D03*
X0506965Y0321600D03*
X0506965Y0361600D03*
X0498215Y0377850D03*
X0471965Y0359100D03*
X0433215Y0382850D03*
X0418215Y0380350D03*
X0400715Y0394100D03*
X0416965Y0415350D03*
X0424465Y0441600D03*
X0424465Y0471600D03*
X0381965Y0444100D03*
X0351965Y0441600D03*
X0331965Y0451600D03*
X0329465Y0476600D03*
X0239465Y0475350D03*
X0239465Y0454100D03*
X0194465Y0420350D03*
X0225715Y0385350D03*
X0234465Y0380350D03*
X0276965Y0384100D03*
X0301965Y0386600D03*
X0339465Y0394100D03*
X0369465Y0382850D03*
X0319465Y0340350D03*
X0326965Y0311600D03*
X0355715Y0306600D03*
X0385715Y0301600D03*
X0415715Y0306600D03*
X0446965Y0311600D03*
X0345715Y0279100D03*
X0345715Y0256600D03*
X0296965Y0311600D03*
X0265715Y0316600D03*
X0239465Y0321600D03*
X0200715Y0321600D03*
X0185715Y0289100D03*
X0186965Y0371600D03*
X0291965Y0190350D03*
X0391965Y0156600D03*
X0404465Y0190350D03*
X0534465Y0380350D03*
X0564465Y0382850D03*
X0555715Y0417850D03*
X0520715Y0442850D03*
X0474465Y0444100D03*
X0466965Y0430350D03*
X0541965Y0480350D03*
X0530715Y0491600D03*
M02*
