G75*
%MOIN*%
%OFA0B0*%
%FSLAX25Y25*%
%IPPOS*%
%LPD*%
%AMOC8*
5,1,8,0,0,1.08239X$1,22.5*
%
%ADD10C,0.00000*%
%ADD11C,0.00600*%
%ADD12C,0.07400*%
%ADD13R,0.07400X0.07400*%
%ADD14OC8,0.07400*%
%ADD15C,0.05600*%
%ADD16OC8,0.06300*%
%ADD17OC8,0.05600*%
%ADD18C,0.06400*%
%ADD19C,0.07100*%
%ADD20C,0.07600*%
%ADD21OC8,0.07600*%
%ADD22C,0.01600*%
%ADD23OC8,0.06756*%
%ADD24C,0.04000*%
%ADD25C,0.02400*%
%ADD26C,0.02000*%
D10*
X0131965Y0118933D02*
X0131965Y0512929D01*
X0742201Y0512949D01*
X0742201Y0118933D01*
X0131965Y0118933D01*
X0171138Y0133303D02*
X0171140Y0133456D01*
X0171146Y0133610D01*
X0171156Y0133763D01*
X0171170Y0133915D01*
X0171188Y0134068D01*
X0171210Y0134219D01*
X0171235Y0134370D01*
X0171265Y0134521D01*
X0171299Y0134671D01*
X0171336Y0134819D01*
X0171377Y0134967D01*
X0171422Y0135113D01*
X0171471Y0135259D01*
X0171524Y0135403D01*
X0171580Y0135545D01*
X0171640Y0135686D01*
X0171704Y0135826D01*
X0171771Y0135964D01*
X0171842Y0136100D01*
X0171917Y0136234D01*
X0171994Y0136366D01*
X0172076Y0136496D01*
X0172160Y0136624D01*
X0172248Y0136750D01*
X0172339Y0136873D01*
X0172433Y0136994D01*
X0172531Y0137112D01*
X0172631Y0137228D01*
X0172735Y0137341D01*
X0172841Y0137452D01*
X0172950Y0137560D01*
X0173062Y0137665D01*
X0173176Y0137766D01*
X0173294Y0137865D01*
X0173413Y0137961D01*
X0173535Y0138054D01*
X0173660Y0138143D01*
X0173787Y0138230D01*
X0173916Y0138312D01*
X0174047Y0138392D01*
X0174180Y0138468D01*
X0174315Y0138541D01*
X0174452Y0138610D01*
X0174591Y0138675D01*
X0174731Y0138737D01*
X0174873Y0138795D01*
X0175016Y0138850D01*
X0175161Y0138901D01*
X0175307Y0138948D01*
X0175454Y0138991D01*
X0175602Y0139030D01*
X0175751Y0139066D01*
X0175901Y0139097D01*
X0176052Y0139125D01*
X0176203Y0139149D01*
X0176356Y0139169D01*
X0176508Y0139185D01*
X0176661Y0139197D01*
X0176814Y0139205D01*
X0176967Y0139209D01*
X0177121Y0139209D01*
X0177274Y0139205D01*
X0177427Y0139197D01*
X0177580Y0139185D01*
X0177732Y0139169D01*
X0177885Y0139149D01*
X0178036Y0139125D01*
X0178187Y0139097D01*
X0178337Y0139066D01*
X0178486Y0139030D01*
X0178634Y0138991D01*
X0178781Y0138948D01*
X0178927Y0138901D01*
X0179072Y0138850D01*
X0179215Y0138795D01*
X0179357Y0138737D01*
X0179497Y0138675D01*
X0179636Y0138610D01*
X0179773Y0138541D01*
X0179908Y0138468D01*
X0180041Y0138392D01*
X0180172Y0138312D01*
X0180301Y0138230D01*
X0180428Y0138143D01*
X0180553Y0138054D01*
X0180675Y0137961D01*
X0180794Y0137865D01*
X0180912Y0137766D01*
X0181026Y0137665D01*
X0181138Y0137560D01*
X0181247Y0137452D01*
X0181353Y0137341D01*
X0181457Y0137228D01*
X0181557Y0137112D01*
X0181655Y0136994D01*
X0181749Y0136873D01*
X0181840Y0136750D01*
X0181928Y0136624D01*
X0182012Y0136496D01*
X0182094Y0136366D01*
X0182171Y0136234D01*
X0182246Y0136100D01*
X0182317Y0135964D01*
X0182384Y0135826D01*
X0182448Y0135686D01*
X0182508Y0135545D01*
X0182564Y0135403D01*
X0182617Y0135259D01*
X0182666Y0135113D01*
X0182711Y0134967D01*
X0182752Y0134819D01*
X0182789Y0134671D01*
X0182823Y0134521D01*
X0182853Y0134370D01*
X0182878Y0134219D01*
X0182900Y0134068D01*
X0182918Y0133915D01*
X0182932Y0133763D01*
X0182942Y0133610D01*
X0182948Y0133456D01*
X0182950Y0133303D01*
X0182948Y0133150D01*
X0182942Y0132996D01*
X0182932Y0132843D01*
X0182918Y0132691D01*
X0182900Y0132538D01*
X0182878Y0132387D01*
X0182853Y0132236D01*
X0182823Y0132085D01*
X0182789Y0131935D01*
X0182752Y0131787D01*
X0182711Y0131639D01*
X0182666Y0131493D01*
X0182617Y0131347D01*
X0182564Y0131203D01*
X0182508Y0131061D01*
X0182448Y0130920D01*
X0182384Y0130780D01*
X0182317Y0130642D01*
X0182246Y0130506D01*
X0182171Y0130372D01*
X0182094Y0130240D01*
X0182012Y0130110D01*
X0181928Y0129982D01*
X0181840Y0129856D01*
X0181749Y0129733D01*
X0181655Y0129612D01*
X0181557Y0129494D01*
X0181457Y0129378D01*
X0181353Y0129265D01*
X0181247Y0129154D01*
X0181138Y0129046D01*
X0181026Y0128941D01*
X0180912Y0128840D01*
X0180794Y0128741D01*
X0180675Y0128645D01*
X0180553Y0128552D01*
X0180428Y0128463D01*
X0180301Y0128376D01*
X0180172Y0128294D01*
X0180041Y0128214D01*
X0179908Y0128138D01*
X0179773Y0128065D01*
X0179636Y0127996D01*
X0179497Y0127931D01*
X0179357Y0127869D01*
X0179215Y0127811D01*
X0179072Y0127756D01*
X0178927Y0127705D01*
X0178781Y0127658D01*
X0178634Y0127615D01*
X0178486Y0127576D01*
X0178337Y0127540D01*
X0178187Y0127509D01*
X0178036Y0127481D01*
X0177885Y0127457D01*
X0177732Y0127437D01*
X0177580Y0127421D01*
X0177427Y0127409D01*
X0177274Y0127401D01*
X0177121Y0127397D01*
X0176967Y0127397D01*
X0176814Y0127401D01*
X0176661Y0127409D01*
X0176508Y0127421D01*
X0176356Y0127437D01*
X0176203Y0127457D01*
X0176052Y0127481D01*
X0175901Y0127509D01*
X0175751Y0127540D01*
X0175602Y0127576D01*
X0175454Y0127615D01*
X0175307Y0127658D01*
X0175161Y0127705D01*
X0175016Y0127756D01*
X0174873Y0127811D01*
X0174731Y0127869D01*
X0174591Y0127931D01*
X0174452Y0127996D01*
X0174315Y0128065D01*
X0174180Y0128138D01*
X0174047Y0128214D01*
X0173916Y0128294D01*
X0173787Y0128376D01*
X0173660Y0128463D01*
X0173535Y0128552D01*
X0173413Y0128645D01*
X0173294Y0128741D01*
X0173176Y0128840D01*
X0173062Y0128941D01*
X0172950Y0129046D01*
X0172841Y0129154D01*
X0172735Y0129265D01*
X0172631Y0129378D01*
X0172531Y0129494D01*
X0172433Y0129612D01*
X0172339Y0129733D01*
X0172248Y0129856D01*
X0172160Y0129982D01*
X0172076Y0130110D01*
X0171994Y0130240D01*
X0171917Y0130372D01*
X0171842Y0130506D01*
X0171771Y0130642D01*
X0171704Y0130780D01*
X0171640Y0130920D01*
X0171580Y0131061D01*
X0171524Y0131203D01*
X0171471Y0131347D01*
X0171422Y0131493D01*
X0171377Y0131639D01*
X0171336Y0131787D01*
X0171299Y0131935D01*
X0171265Y0132085D01*
X0171235Y0132236D01*
X0171210Y0132387D01*
X0171188Y0132538D01*
X0171170Y0132691D01*
X0171156Y0132843D01*
X0171146Y0132996D01*
X0171140Y0133150D01*
X0171138Y0133303D01*
X0069012Y0323933D02*
X0069014Y0324041D01*
X0069020Y0324150D01*
X0069030Y0324258D01*
X0069044Y0324365D01*
X0069062Y0324472D01*
X0069083Y0324579D01*
X0069109Y0324684D01*
X0069139Y0324789D01*
X0069172Y0324892D01*
X0069209Y0324994D01*
X0069250Y0325094D01*
X0069294Y0325193D01*
X0069343Y0325291D01*
X0069394Y0325386D01*
X0069449Y0325479D01*
X0069508Y0325571D01*
X0069570Y0325660D01*
X0069635Y0325747D01*
X0069703Y0325831D01*
X0069774Y0325913D01*
X0069848Y0325992D01*
X0069925Y0326068D01*
X0070005Y0326142D01*
X0070088Y0326212D01*
X0070173Y0326280D01*
X0070260Y0326344D01*
X0070350Y0326405D01*
X0070442Y0326463D01*
X0070536Y0326517D01*
X0070632Y0326568D01*
X0070729Y0326615D01*
X0070829Y0326659D01*
X0070930Y0326699D01*
X0071032Y0326735D01*
X0071135Y0326767D01*
X0071240Y0326796D01*
X0071346Y0326820D01*
X0071452Y0326841D01*
X0071559Y0326858D01*
X0071667Y0326871D01*
X0071775Y0326880D01*
X0071884Y0326885D01*
X0071992Y0326886D01*
X0072101Y0326883D01*
X0072209Y0326876D01*
X0072317Y0326865D01*
X0072424Y0326850D01*
X0072531Y0326831D01*
X0072637Y0326808D01*
X0072742Y0326782D01*
X0072847Y0326751D01*
X0072949Y0326717D01*
X0073051Y0326679D01*
X0073151Y0326637D01*
X0073250Y0326592D01*
X0073347Y0326543D01*
X0073441Y0326490D01*
X0073534Y0326434D01*
X0073625Y0326375D01*
X0073714Y0326312D01*
X0073800Y0326247D01*
X0073884Y0326178D01*
X0073965Y0326106D01*
X0074043Y0326031D01*
X0074119Y0325953D01*
X0074192Y0325872D01*
X0074262Y0325789D01*
X0074328Y0325704D01*
X0074392Y0325616D01*
X0074452Y0325525D01*
X0074509Y0325433D01*
X0074562Y0325338D01*
X0074612Y0325242D01*
X0074658Y0325144D01*
X0074701Y0325044D01*
X0074740Y0324943D01*
X0074775Y0324840D01*
X0074807Y0324737D01*
X0074834Y0324632D01*
X0074858Y0324526D01*
X0074878Y0324419D01*
X0074894Y0324312D01*
X0074906Y0324204D01*
X0074914Y0324096D01*
X0074918Y0323987D01*
X0074918Y0323879D01*
X0074914Y0323770D01*
X0074906Y0323662D01*
X0074894Y0323554D01*
X0074878Y0323447D01*
X0074858Y0323340D01*
X0074834Y0323234D01*
X0074807Y0323129D01*
X0074775Y0323026D01*
X0074740Y0322923D01*
X0074701Y0322822D01*
X0074658Y0322722D01*
X0074612Y0322624D01*
X0074562Y0322528D01*
X0074509Y0322433D01*
X0074452Y0322341D01*
X0074392Y0322250D01*
X0074328Y0322162D01*
X0074262Y0322077D01*
X0074192Y0321994D01*
X0074119Y0321913D01*
X0074043Y0321835D01*
X0073965Y0321760D01*
X0073884Y0321688D01*
X0073800Y0321619D01*
X0073714Y0321554D01*
X0073625Y0321491D01*
X0073534Y0321432D01*
X0073442Y0321376D01*
X0073347Y0321323D01*
X0073250Y0321274D01*
X0073151Y0321229D01*
X0073051Y0321187D01*
X0072949Y0321149D01*
X0072847Y0321115D01*
X0072742Y0321084D01*
X0072637Y0321058D01*
X0072531Y0321035D01*
X0072424Y0321016D01*
X0072317Y0321001D01*
X0072209Y0320990D01*
X0072101Y0320983D01*
X0071992Y0320980D01*
X0071884Y0320981D01*
X0071775Y0320986D01*
X0071667Y0320995D01*
X0071559Y0321008D01*
X0071452Y0321025D01*
X0071346Y0321046D01*
X0071240Y0321070D01*
X0071135Y0321099D01*
X0071032Y0321131D01*
X0070930Y0321167D01*
X0070829Y0321207D01*
X0070729Y0321251D01*
X0070632Y0321298D01*
X0070536Y0321349D01*
X0070442Y0321403D01*
X0070350Y0321461D01*
X0070260Y0321522D01*
X0070173Y0321586D01*
X0070088Y0321654D01*
X0070005Y0321724D01*
X0069925Y0321798D01*
X0069848Y0321874D01*
X0069774Y0321953D01*
X0069703Y0322035D01*
X0069635Y0322119D01*
X0069570Y0322206D01*
X0069508Y0322295D01*
X0069449Y0322387D01*
X0069394Y0322480D01*
X0069343Y0322575D01*
X0069294Y0322673D01*
X0069250Y0322772D01*
X0069209Y0322872D01*
X0069172Y0322974D01*
X0069139Y0323077D01*
X0069109Y0323182D01*
X0069083Y0323287D01*
X0069062Y0323394D01*
X0069044Y0323501D01*
X0069030Y0323608D01*
X0069020Y0323716D01*
X0069014Y0323825D01*
X0069012Y0323933D01*
X0171138Y0417949D02*
X0171140Y0418102D01*
X0171146Y0418256D01*
X0171156Y0418409D01*
X0171170Y0418561D01*
X0171188Y0418714D01*
X0171210Y0418865D01*
X0171235Y0419016D01*
X0171265Y0419167D01*
X0171299Y0419317D01*
X0171336Y0419465D01*
X0171377Y0419613D01*
X0171422Y0419759D01*
X0171471Y0419905D01*
X0171524Y0420049D01*
X0171580Y0420191D01*
X0171640Y0420332D01*
X0171704Y0420472D01*
X0171771Y0420610D01*
X0171842Y0420746D01*
X0171917Y0420880D01*
X0171994Y0421012D01*
X0172076Y0421142D01*
X0172160Y0421270D01*
X0172248Y0421396D01*
X0172339Y0421519D01*
X0172433Y0421640D01*
X0172531Y0421758D01*
X0172631Y0421874D01*
X0172735Y0421987D01*
X0172841Y0422098D01*
X0172950Y0422206D01*
X0173062Y0422311D01*
X0173176Y0422412D01*
X0173294Y0422511D01*
X0173413Y0422607D01*
X0173535Y0422700D01*
X0173660Y0422789D01*
X0173787Y0422876D01*
X0173916Y0422958D01*
X0174047Y0423038D01*
X0174180Y0423114D01*
X0174315Y0423187D01*
X0174452Y0423256D01*
X0174591Y0423321D01*
X0174731Y0423383D01*
X0174873Y0423441D01*
X0175016Y0423496D01*
X0175161Y0423547D01*
X0175307Y0423594D01*
X0175454Y0423637D01*
X0175602Y0423676D01*
X0175751Y0423712D01*
X0175901Y0423743D01*
X0176052Y0423771D01*
X0176203Y0423795D01*
X0176356Y0423815D01*
X0176508Y0423831D01*
X0176661Y0423843D01*
X0176814Y0423851D01*
X0176967Y0423855D01*
X0177121Y0423855D01*
X0177274Y0423851D01*
X0177427Y0423843D01*
X0177580Y0423831D01*
X0177732Y0423815D01*
X0177885Y0423795D01*
X0178036Y0423771D01*
X0178187Y0423743D01*
X0178337Y0423712D01*
X0178486Y0423676D01*
X0178634Y0423637D01*
X0178781Y0423594D01*
X0178927Y0423547D01*
X0179072Y0423496D01*
X0179215Y0423441D01*
X0179357Y0423383D01*
X0179497Y0423321D01*
X0179636Y0423256D01*
X0179773Y0423187D01*
X0179908Y0423114D01*
X0180041Y0423038D01*
X0180172Y0422958D01*
X0180301Y0422876D01*
X0180428Y0422789D01*
X0180553Y0422700D01*
X0180675Y0422607D01*
X0180794Y0422511D01*
X0180912Y0422412D01*
X0181026Y0422311D01*
X0181138Y0422206D01*
X0181247Y0422098D01*
X0181353Y0421987D01*
X0181457Y0421874D01*
X0181557Y0421758D01*
X0181655Y0421640D01*
X0181749Y0421519D01*
X0181840Y0421396D01*
X0181928Y0421270D01*
X0182012Y0421142D01*
X0182094Y0421012D01*
X0182171Y0420880D01*
X0182246Y0420746D01*
X0182317Y0420610D01*
X0182384Y0420472D01*
X0182448Y0420332D01*
X0182508Y0420191D01*
X0182564Y0420049D01*
X0182617Y0419905D01*
X0182666Y0419759D01*
X0182711Y0419613D01*
X0182752Y0419465D01*
X0182789Y0419317D01*
X0182823Y0419167D01*
X0182853Y0419016D01*
X0182878Y0418865D01*
X0182900Y0418714D01*
X0182918Y0418561D01*
X0182932Y0418409D01*
X0182942Y0418256D01*
X0182948Y0418102D01*
X0182950Y0417949D01*
X0182948Y0417796D01*
X0182942Y0417642D01*
X0182932Y0417489D01*
X0182918Y0417337D01*
X0182900Y0417184D01*
X0182878Y0417033D01*
X0182853Y0416882D01*
X0182823Y0416731D01*
X0182789Y0416581D01*
X0182752Y0416433D01*
X0182711Y0416285D01*
X0182666Y0416139D01*
X0182617Y0415993D01*
X0182564Y0415849D01*
X0182508Y0415707D01*
X0182448Y0415566D01*
X0182384Y0415426D01*
X0182317Y0415288D01*
X0182246Y0415152D01*
X0182171Y0415018D01*
X0182094Y0414886D01*
X0182012Y0414756D01*
X0181928Y0414628D01*
X0181840Y0414502D01*
X0181749Y0414379D01*
X0181655Y0414258D01*
X0181557Y0414140D01*
X0181457Y0414024D01*
X0181353Y0413911D01*
X0181247Y0413800D01*
X0181138Y0413692D01*
X0181026Y0413587D01*
X0180912Y0413486D01*
X0180794Y0413387D01*
X0180675Y0413291D01*
X0180553Y0413198D01*
X0180428Y0413109D01*
X0180301Y0413022D01*
X0180172Y0412940D01*
X0180041Y0412860D01*
X0179908Y0412784D01*
X0179773Y0412711D01*
X0179636Y0412642D01*
X0179497Y0412577D01*
X0179357Y0412515D01*
X0179215Y0412457D01*
X0179072Y0412402D01*
X0178927Y0412351D01*
X0178781Y0412304D01*
X0178634Y0412261D01*
X0178486Y0412222D01*
X0178337Y0412186D01*
X0178187Y0412155D01*
X0178036Y0412127D01*
X0177885Y0412103D01*
X0177732Y0412083D01*
X0177580Y0412067D01*
X0177427Y0412055D01*
X0177274Y0412047D01*
X0177121Y0412043D01*
X0176967Y0412043D01*
X0176814Y0412047D01*
X0176661Y0412055D01*
X0176508Y0412067D01*
X0176356Y0412083D01*
X0176203Y0412103D01*
X0176052Y0412127D01*
X0175901Y0412155D01*
X0175751Y0412186D01*
X0175602Y0412222D01*
X0175454Y0412261D01*
X0175307Y0412304D01*
X0175161Y0412351D01*
X0175016Y0412402D01*
X0174873Y0412457D01*
X0174731Y0412515D01*
X0174591Y0412577D01*
X0174452Y0412642D01*
X0174315Y0412711D01*
X0174180Y0412784D01*
X0174047Y0412860D01*
X0173916Y0412940D01*
X0173787Y0413022D01*
X0173660Y0413109D01*
X0173535Y0413198D01*
X0173413Y0413291D01*
X0173294Y0413387D01*
X0173176Y0413486D01*
X0173062Y0413587D01*
X0172950Y0413692D01*
X0172841Y0413800D01*
X0172735Y0413911D01*
X0172631Y0414024D01*
X0172531Y0414140D01*
X0172433Y0414258D01*
X0172339Y0414379D01*
X0172248Y0414502D01*
X0172160Y0414628D01*
X0172076Y0414756D01*
X0171994Y0414886D01*
X0171917Y0415018D01*
X0171842Y0415152D01*
X0171771Y0415288D01*
X0171704Y0415426D01*
X0171640Y0415566D01*
X0171580Y0415707D01*
X0171524Y0415849D01*
X0171471Y0415993D01*
X0171422Y0416139D01*
X0171377Y0416285D01*
X0171336Y0416433D01*
X0171299Y0416581D01*
X0171265Y0416731D01*
X0171235Y0416882D01*
X0171210Y0417033D01*
X0171188Y0417184D01*
X0171170Y0417337D01*
X0171156Y0417489D01*
X0171146Y0417642D01*
X0171140Y0417796D01*
X0171138Y0417949D01*
X0255666Y0501728D02*
X0255668Y0501886D01*
X0255674Y0502044D01*
X0255684Y0502202D01*
X0255698Y0502360D01*
X0255716Y0502517D01*
X0255737Y0502674D01*
X0255763Y0502830D01*
X0255793Y0502986D01*
X0255826Y0503141D01*
X0255864Y0503294D01*
X0255905Y0503447D01*
X0255950Y0503599D01*
X0255999Y0503750D01*
X0256052Y0503899D01*
X0256108Y0504047D01*
X0256168Y0504193D01*
X0256232Y0504338D01*
X0256300Y0504481D01*
X0256371Y0504623D01*
X0256445Y0504763D01*
X0256523Y0504900D01*
X0256605Y0505036D01*
X0256689Y0505170D01*
X0256778Y0505301D01*
X0256869Y0505430D01*
X0256964Y0505557D01*
X0257061Y0505682D01*
X0257162Y0505804D01*
X0257266Y0505923D01*
X0257373Y0506040D01*
X0257483Y0506154D01*
X0257596Y0506265D01*
X0257711Y0506374D01*
X0257829Y0506479D01*
X0257950Y0506581D01*
X0258073Y0506681D01*
X0258199Y0506777D01*
X0258327Y0506870D01*
X0258457Y0506960D01*
X0258590Y0507046D01*
X0258725Y0507130D01*
X0258861Y0507209D01*
X0259000Y0507286D01*
X0259141Y0507358D01*
X0259283Y0507428D01*
X0259427Y0507493D01*
X0259573Y0507555D01*
X0259720Y0507613D01*
X0259869Y0507668D01*
X0260019Y0507719D01*
X0260170Y0507766D01*
X0260322Y0507809D01*
X0260475Y0507848D01*
X0260630Y0507884D01*
X0260785Y0507915D01*
X0260941Y0507943D01*
X0261097Y0507967D01*
X0261254Y0507987D01*
X0261412Y0508003D01*
X0261569Y0508015D01*
X0261728Y0508023D01*
X0261886Y0508027D01*
X0262044Y0508027D01*
X0262202Y0508023D01*
X0262361Y0508015D01*
X0262518Y0508003D01*
X0262676Y0507987D01*
X0262833Y0507967D01*
X0262989Y0507943D01*
X0263145Y0507915D01*
X0263300Y0507884D01*
X0263455Y0507848D01*
X0263608Y0507809D01*
X0263760Y0507766D01*
X0263911Y0507719D01*
X0264061Y0507668D01*
X0264210Y0507613D01*
X0264357Y0507555D01*
X0264503Y0507493D01*
X0264647Y0507428D01*
X0264789Y0507358D01*
X0264930Y0507286D01*
X0265069Y0507209D01*
X0265205Y0507130D01*
X0265340Y0507046D01*
X0265473Y0506960D01*
X0265603Y0506870D01*
X0265731Y0506777D01*
X0265857Y0506681D01*
X0265980Y0506581D01*
X0266101Y0506479D01*
X0266219Y0506374D01*
X0266334Y0506265D01*
X0266447Y0506154D01*
X0266557Y0506040D01*
X0266664Y0505923D01*
X0266768Y0505804D01*
X0266869Y0505682D01*
X0266966Y0505557D01*
X0267061Y0505430D01*
X0267152Y0505301D01*
X0267241Y0505170D01*
X0267325Y0505036D01*
X0267407Y0504900D01*
X0267485Y0504763D01*
X0267559Y0504623D01*
X0267630Y0504481D01*
X0267698Y0504338D01*
X0267762Y0504193D01*
X0267822Y0504047D01*
X0267878Y0503899D01*
X0267931Y0503750D01*
X0267980Y0503599D01*
X0268025Y0503447D01*
X0268066Y0503294D01*
X0268104Y0503141D01*
X0268137Y0502986D01*
X0268167Y0502830D01*
X0268193Y0502674D01*
X0268214Y0502517D01*
X0268232Y0502360D01*
X0268246Y0502202D01*
X0268256Y0502044D01*
X0268262Y0501886D01*
X0268264Y0501728D01*
X0268262Y0501570D01*
X0268256Y0501412D01*
X0268246Y0501254D01*
X0268232Y0501096D01*
X0268214Y0500939D01*
X0268193Y0500782D01*
X0268167Y0500626D01*
X0268137Y0500470D01*
X0268104Y0500315D01*
X0268066Y0500162D01*
X0268025Y0500009D01*
X0267980Y0499857D01*
X0267931Y0499706D01*
X0267878Y0499557D01*
X0267822Y0499409D01*
X0267762Y0499263D01*
X0267698Y0499118D01*
X0267630Y0498975D01*
X0267559Y0498833D01*
X0267485Y0498693D01*
X0267407Y0498556D01*
X0267325Y0498420D01*
X0267241Y0498286D01*
X0267152Y0498155D01*
X0267061Y0498026D01*
X0266966Y0497899D01*
X0266869Y0497774D01*
X0266768Y0497652D01*
X0266664Y0497533D01*
X0266557Y0497416D01*
X0266447Y0497302D01*
X0266334Y0497191D01*
X0266219Y0497082D01*
X0266101Y0496977D01*
X0265980Y0496875D01*
X0265857Y0496775D01*
X0265731Y0496679D01*
X0265603Y0496586D01*
X0265473Y0496496D01*
X0265340Y0496410D01*
X0265205Y0496326D01*
X0265069Y0496247D01*
X0264930Y0496170D01*
X0264789Y0496098D01*
X0264647Y0496028D01*
X0264503Y0495963D01*
X0264357Y0495901D01*
X0264210Y0495843D01*
X0264061Y0495788D01*
X0263911Y0495737D01*
X0263760Y0495690D01*
X0263608Y0495647D01*
X0263455Y0495608D01*
X0263300Y0495572D01*
X0263145Y0495541D01*
X0262989Y0495513D01*
X0262833Y0495489D01*
X0262676Y0495469D01*
X0262518Y0495453D01*
X0262361Y0495441D01*
X0262202Y0495433D01*
X0262044Y0495429D01*
X0261886Y0495429D01*
X0261728Y0495433D01*
X0261569Y0495441D01*
X0261412Y0495453D01*
X0261254Y0495469D01*
X0261097Y0495489D01*
X0260941Y0495513D01*
X0260785Y0495541D01*
X0260630Y0495572D01*
X0260475Y0495608D01*
X0260322Y0495647D01*
X0260170Y0495690D01*
X0260019Y0495737D01*
X0259869Y0495788D01*
X0259720Y0495843D01*
X0259573Y0495901D01*
X0259427Y0495963D01*
X0259283Y0496028D01*
X0259141Y0496098D01*
X0259000Y0496170D01*
X0258861Y0496247D01*
X0258725Y0496326D01*
X0258590Y0496410D01*
X0258457Y0496496D01*
X0258327Y0496586D01*
X0258199Y0496679D01*
X0258073Y0496775D01*
X0257950Y0496875D01*
X0257829Y0496977D01*
X0257711Y0497082D01*
X0257596Y0497191D01*
X0257483Y0497302D01*
X0257373Y0497416D01*
X0257266Y0497533D01*
X0257162Y0497652D01*
X0257061Y0497774D01*
X0256964Y0497899D01*
X0256869Y0498026D01*
X0256778Y0498155D01*
X0256689Y0498286D01*
X0256605Y0498420D01*
X0256523Y0498556D01*
X0256445Y0498693D01*
X0256371Y0498833D01*
X0256300Y0498975D01*
X0256232Y0499118D01*
X0256168Y0499263D01*
X0256108Y0499409D01*
X0256052Y0499557D01*
X0255999Y0499706D01*
X0255950Y0499857D01*
X0255905Y0500009D01*
X0255864Y0500162D01*
X0255826Y0500315D01*
X0255793Y0500470D01*
X0255763Y0500626D01*
X0255737Y0500782D01*
X0255716Y0500939D01*
X0255698Y0501096D01*
X0255684Y0501254D01*
X0255674Y0501412D01*
X0255668Y0501570D01*
X0255666Y0501728D01*
X0300666Y0501728D02*
X0300668Y0501886D01*
X0300674Y0502044D01*
X0300684Y0502202D01*
X0300698Y0502360D01*
X0300716Y0502517D01*
X0300737Y0502674D01*
X0300763Y0502830D01*
X0300793Y0502986D01*
X0300826Y0503141D01*
X0300864Y0503294D01*
X0300905Y0503447D01*
X0300950Y0503599D01*
X0300999Y0503750D01*
X0301052Y0503899D01*
X0301108Y0504047D01*
X0301168Y0504193D01*
X0301232Y0504338D01*
X0301300Y0504481D01*
X0301371Y0504623D01*
X0301445Y0504763D01*
X0301523Y0504900D01*
X0301605Y0505036D01*
X0301689Y0505170D01*
X0301778Y0505301D01*
X0301869Y0505430D01*
X0301964Y0505557D01*
X0302061Y0505682D01*
X0302162Y0505804D01*
X0302266Y0505923D01*
X0302373Y0506040D01*
X0302483Y0506154D01*
X0302596Y0506265D01*
X0302711Y0506374D01*
X0302829Y0506479D01*
X0302950Y0506581D01*
X0303073Y0506681D01*
X0303199Y0506777D01*
X0303327Y0506870D01*
X0303457Y0506960D01*
X0303590Y0507046D01*
X0303725Y0507130D01*
X0303861Y0507209D01*
X0304000Y0507286D01*
X0304141Y0507358D01*
X0304283Y0507428D01*
X0304427Y0507493D01*
X0304573Y0507555D01*
X0304720Y0507613D01*
X0304869Y0507668D01*
X0305019Y0507719D01*
X0305170Y0507766D01*
X0305322Y0507809D01*
X0305475Y0507848D01*
X0305630Y0507884D01*
X0305785Y0507915D01*
X0305941Y0507943D01*
X0306097Y0507967D01*
X0306254Y0507987D01*
X0306412Y0508003D01*
X0306569Y0508015D01*
X0306728Y0508023D01*
X0306886Y0508027D01*
X0307044Y0508027D01*
X0307202Y0508023D01*
X0307361Y0508015D01*
X0307518Y0508003D01*
X0307676Y0507987D01*
X0307833Y0507967D01*
X0307989Y0507943D01*
X0308145Y0507915D01*
X0308300Y0507884D01*
X0308455Y0507848D01*
X0308608Y0507809D01*
X0308760Y0507766D01*
X0308911Y0507719D01*
X0309061Y0507668D01*
X0309210Y0507613D01*
X0309357Y0507555D01*
X0309503Y0507493D01*
X0309647Y0507428D01*
X0309789Y0507358D01*
X0309930Y0507286D01*
X0310069Y0507209D01*
X0310205Y0507130D01*
X0310340Y0507046D01*
X0310473Y0506960D01*
X0310603Y0506870D01*
X0310731Y0506777D01*
X0310857Y0506681D01*
X0310980Y0506581D01*
X0311101Y0506479D01*
X0311219Y0506374D01*
X0311334Y0506265D01*
X0311447Y0506154D01*
X0311557Y0506040D01*
X0311664Y0505923D01*
X0311768Y0505804D01*
X0311869Y0505682D01*
X0311966Y0505557D01*
X0312061Y0505430D01*
X0312152Y0505301D01*
X0312241Y0505170D01*
X0312325Y0505036D01*
X0312407Y0504900D01*
X0312485Y0504763D01*
X0312559Y0504623D01*
X0312630Y0504481D01*
X0312698Y0504338D01*
X0312762Y0504193D01*
X0312822Y0504047D01*
X0312878Y0503899D01*
X0312931Y0503750D01*
X0312980Y0503599D01*
X0313025Y0503447D01*
X0313066Y0503294D01*
X0313104Y0503141D01*
X0313137Y0502986D01*
X0313167Y0502830D01*
X0313193Y0502674D01*
X0313214Y0502517D01*
X0313232Y0502360D01*
X0313246Y0502202D01*
X0313256Y0502044D01*
X0313262Y0501886D01*
X0313264Y0501728D01*
X0313262Y0501570D01*
X0313256Y0501412D01*
X0313246Y0501254D01*
X0313232Y0501096D01*
X0313214Y0500939D01*
X0313193Y0500782D01*
X0313167Y0500626D01*
X0313137Y0500470D01*
X0313104Y0500315D01*
X0313066Y0500162D01*
X0313025Y0500009D01*
X0312980Y0499857D01*
X0312931Y0499706D01*
X0312878Y0499557D01*
X0312822Y0499409D01*
X0312762Y0499263D01*
X0312698Y0499118D01*
X0312630Y0498975D01*
X0312559Y0498833D01*
X0312485Y0498693D01*
X0312407Y0498556D01*
X0312325Y0498420D01*
X0312241Y0498286D01*
X0312152Y0498155D01*
X0312061Y0498026D01*
X0311966Y0497899D01*
X0311869Y0497774D01*
X0311768Y0497652D01*
X0311664Y0497533D01*
X0311557Y0497416D01*
X0311447Y0497302D01*
X0311334Y0497191D01*
X0311219Y0497082D01*
X0311101Y0496977D01*
X0310980Y0496875D01*
X0310857Y0496775D01*
X0310731Y0496679D01*
X0310603Y0496586D01*
X0310473Y0496496D01*
X0310340Y0496410D01*
X0310205Y0496326D01*
X0310069Y0496247D01*
X0309930Y0496170D01*
X0309789Y0496098D01*
X0309647Y0496028D01*
X0309503Y0495963D01*
X0309357Y0495901D01*
X0309210Y0495843D01*
X0309061Y0495788D01*
X0308911Y0495737D01*
X0308760Y0495690D01*
X0308608Y0495647D01*
X0308455Y0495608D01*
X0308300Y0495572D01*
X0308145Y0495541D01*
X0307989Y0495513D01*
X0307833Y0495489D01*
X0307676Y0495469D01*
X0307518Y0495453D01*
X0307361Y0495441D01*
X0307202Y0495433D01*
X0307044Y0495429D01*
X0306886Y0495429D01*
X0306728Y0495433D01*
X0306569Y0495441D01*
X0306412Y0495453D01*
X0306254Y0495469D01*
X0306097Y0495489D01*
X0305941Y0495513D01*
X0305785Y0495541D01*
X0305630Y0495572D01*
X0305475Y0495608D01*
X0305322Y0495647D01*
X0305170Y0495690D01*
X0305019Y0495737D01*
X0304869Y0495788D01*
X0304720Y0495843D01*
X0304573Y0495901D01*
X0304427Y0495963D01*
X0304283Y0496028D01*
X0304141Y0496098D01*
X0304000Y0496170D01*
X0303861Y0496247D01*
X0303725Y0496326D01*
X0303590Y0496410D01*
X0303457Y0496496D01*
X0303327Y0496586D01*
X0303199Y0496679D01*
X0303073Y0496775D01*
X0302950Y0496875D01*
X0302829Y0496977D01*
X0302711Y0497082D01*
X0302596Y0497191D01*
X0302483Y0497302D01*
X0302373Y0497416D01*
X0302266Y0497533D01*
X0302162Y0497652D01*
X0302061Y0497774D01*
X0301964Y0497899D01*
X0301869Y0498026D01*
X0301778Y0498155D01*
X0301689Y0498286D01*
X0301605Y0498420D01*
X0301523Y0498556D01*
X0301445Y0498693D01*
X0301371Y0498833D01*
X0301300Y0498975D01*
X0301232Y0499118D01*
X0301168Y0499263D01*
X0301108Y0499409D01*
X0301052Y0499557D01*
X0300999Y0499706D01*
X0300950Y0499857D01*
X0300905Y0500009D01*
X0300864Y0500162D01*
X0300826Y0500315D01*
X0300793Y0500470D01*
X0300763Y0500626D01*
X0300737Y0500782D01*
X0300716Y0500939D01*
X0300698Y0501096D01*
X0300684Y0501254D01*
X0300674Y0501412D01*
X0300668Y0501570D01*
X0300666Y0501728D01*
X0355666Y0501728D02*
X0355668Y0501886D01*
X0355674Y0502044D01*
X0355684Y0502202D01*
X0355698Y0502360D01*
X0355716Y0502517D01*
X0355737Y0502674D01*
X0355763Y0502830D01*
X0355793Y0502986D01*
X0355826Y0503141D01*
X0355864Y0503294D01*
X0355905Y0503447D01*
X0355950Y0503599D01*
X0355999Y0503750D01*
X0356052Y0503899D01*
X0356108Y0504047D01*
X0356168Y0504193D01*
X0356232Y0504338D01*
X0356300Y0504481D01*
X0356371Y0504623D01*
X0356445Y0504763D01*
X0356523Y0504900D01*
X0356605Y0505036D01*
X0356689Y0505170D01*
X0356778Y0505301D01*
X0356869Y0505430D01*
X0356964Y0505557D01*
X0357061Y0505682D01*
X0357162Y0505804D01*
X0357266Y0505923D01*
X0357373Y0506040D01*
X0357483Y0506154D01*
X0357596Y0506265D01*
X0357711Y0506374D01*
X0357829Y0506479D01*
X0357950Y0506581D01*
X0358073Y0506681D01*
X0358199Y0506777D01*
X0358327Y0506870D01*
X0358457Y0506960D01*
X0358590Y0507046D01*
X0358725Y0507130D01*
X0358861Y0507209D01*
X0359000Y0507286D01*
X0359141Y0507358D01*
X0359283Y0507428D01*
X0359427Y0507493D01*
X0359573Y0507555D01*
X0359720Y0507613D01*
X0359869Y0507668D01*
X0360019Y0507719D01*
X0360170Y0507766D01*
X0360322Y0507809D01*
X0360475Y0507848D01*
X0360630Y0507884D01*
X0360785Y0507915D01*
X0360941Y0507943D01*
X0361097Y0507967D01*
X0361254Y0507987D01*
X0361412Y0508003D01*
X0361569Y0508015D01*
X0361728Y0508023D01*
X0361886Y0508027D01*
X0362044Y0508027D01*
X0362202Y0508023D01*
X0362361Y0508015D01*
X0362518Y0508003D01*
X0362676Y0507987D01*
X0362833Y0507967D01*
X0362989Y0507943D01*
X0363145Y0507915D01*
X0363300Y0507884D01*
X0363455Y0507848D01*
X0363608Y0507809D01*
X0363760Y0507766D01*
X0363911Y0507719D01*
X0364061Y0507668D01*
X0364210Y0507613D01*
X0364357Y0507555D01*
X0364503Y0507493D01*
X0364647Y0507428D01*
X0364789Y0507358D01*
X0364930Y0507286D01*
X0365069Y0507209D01*
X0365205Y0507130D01*
X0365340Y0507046D01*
X0365473Y0506960D01*
X0365603Y0506870D01*
X0365731Y0506777D01*
X0365857Y0506681D01*
X0365980Y0506581D01*
X0366101Y0506479D01*
X0366219Y0506374D01*
X0366334Y0506265D01*
X0366447Y0506154D01*
X0366557Y0506040D01*
X0366664Y0505923D01*
X0366768Y0505804D01*
X0366869Y0505682D01*
X0366966Y0505557D01*
X0367061Y0505430D01*
X0367152Y0505301D01*
X0367241Y0505170D01*
X0367325Y0505036D01*
X0367407Y0504900D01*
X0367485Y0504763D01*
X0367559Y0504623D01*
X0367630Y0504481D01*
X0367698Y0504338D01*
X0367762Y0504193D01*
X0367822Y0504047D01*
X0367878Y0503899D01*
X0367931Y0503750D01*
X0367980Y0503599D01*
X0368025Y0503447D01*
X0368066Y0503294D01*
X0368104Y0503141D01*
X0368137Y0502986D01*
X0368167Y0502830D01*
X0368193Y0502674D01*
X0368214Y0502517D01*
X0368232Y0502360D01*
X0368246Y0502202D01*
X0368256Y0502044D01*
X0368262Y0501886D01*
X0368264Y0501728D01*
X0368262Y0501570D01*
X0368256Y0501412D01*
X0368246Y0501254D01*
X0368232Y0501096D01*
X0368214Y0500939D01*
X0368193Y0500782D01*
X0368167Y0500626D01*
X0368137Y0500470D01*
X0368104Y0500315D01*
X0368066Y0500162D01*
X0368025Y0500009D01*
X0367980Y0499857D01*
X0367931Y0499706D01*
X0367878Y0499557D01*
X0367822Y0499409D01*
X0367762Y0499263D01*
X0367698Y0499118D01*
X0367630Y0498975D01*
X0367559Y0498833D01*
X0367485Y0498693D01*
X0367407Y0498556D01*
X0367325Y0498420D01*
X0367241Y0498286D01*
X0367152Y0498155D01*
X0367061Y0498026D01*
X0366966Y0497899D01*
X0366869Y0497774D01*
X0366768Y0497652D01*
X0366664Y0497533D01*
X0366557Y0497416D01*
X0366447Y0497302D01*
X0366334Y0497191D01*
X0366219Y0497082D01*
X0366101Y0496977D01*
X0365980Y0496875D01*
X0365857Y0496775D01*
X0365731Y0496679D01*
X0365603Y0496586D01*
X0365473Y0496496D01*
X0365340Y0496410D01*
X0365205Y0496326D01*
X0365069Y0496247D01*
X0364930Y0496170D01*
X0364789Y0496098D01*
X0364647Y0496028D01*
X0364503Y0495963D01*
X0364357Y0495901D01*
X0364210Y0495843D01*
X0364061Y0495788D01*
X0363911Y0495737D01*
X0363760Y0495690D01*
X0363608Y0495647D01*
X0363455Y0495608D01*
X0363300Y0495572D01*
X0363145Y0495541D01*
X0362989Y0495513D01*
X0362833Y0495489D01*
X0362676Y0495469D01*
X0362518Y0495453D01*
X0362361Y0495441D01*
X0362202Y0495433D01*
X0362044Y0495429D01*
X0361886Y0495429D01*
X0361728Y0495433D01*
X0361569Y0495441D01*
X0361412Y0495453D01*
X0361254Y0495469D01*
X0361097Y0495489D01*
X0360941Y0495513D01*
X0360785Y0495541D01*
X0360630Y0495572D01*
X0360475Y0495608D01*
X0360322Y0495647D01*
X0360170Y0495690D01*
X0360019Y0495737D01*
X0359869Y0495788D01*
X0359720Y0495843D01*
X0359573Y0495901D01*
X0359427Y0495963D01*
X0359283Y0496028D01*
X0359141Y0496098D01*
X0359000Y0496170D01*
X0358861Y0496247D01*
X0358725Y0496326D01*
X0358590Y0496410D01*
X0358457Y0496496D01*
X0358327Y0496586D01*
X0358199Y0496679D01*
X0358073Y0496775D01*
X0357950Y0496875D01*
X0357829Y0496977D01*
X0357711Y0497082D01*
X0357596Y0497191D01*
X0357483Y0497302D01*
X0357373Y0497416D01*
X0357266Y0497533D01*
X0357162Y0497652D01*
X0357061Y0497774D01*
X0356964Y0497899D01*
X0356869Y0498026D01*
X0356778Y0498155D01*
X0356689Y0498286D01*
X0356605Y0498420D01*
X0356523Y0498556D01*
X0356445Y0498693D01*
X0356371Y0498833D01*
X0356300Y0498975D01*
X0356232Y0499118D01*
X0356168Y0499263D01*
X0356108Y0499409D01*
X0356052Y0499557D01*
X0355999Y0499706D01*
X0355950Y0499857D01*
X0355905Y0500009D01*
X0355864Y0500162D01*
X0355826Y0500315D01*
X0355793Y0500470D01*
X0355763Y0500626D01*
X0355737Y0500782D01*
X0355716Y0500939D01*
X0355698Y0501096D01*
X0355684Y0501254D01*
X0355674Y0501412D01*
X0355668Y0501570D01*
X0355666Y0501728D01*
X0400666Y0501728D02*
X0400668Y0501886D01*
X0400674Y0502044D01*
X0400684Y0502202D01*
X0400698Y0502360D01*
X0400716Y0502517D01*
X0400737Y0502674D01*
X0400763Y0502830D01*
X0400793Y0502986D01*
X0400826Y0503141D01*
X0400864Y0503294D01*
X0400905Y0503447D01*
X0400950Y0503599D01*
X0400999Y0503750D01*
X0401052Y0503899D01*
X0401108Y0504047D01*
X0401168Y0504193D01*
X0401232Y0504338D01*
X0401300Y0504481D01*
X0401371Y0504623D01*
X0401445Y0504763D01*
X0401523Y0504900D01*
X0401605Y0505036D01*
X0401689Y0505170D01*
X0401778Y0505301D01*
X0401869Y0505430D01*
X0401964Y0505557D01*
X0402061Y0505682D01*
X0402162Y0505804D01*
X0402266Y0505923D01*
X0402373Y0506040D01*
X0402483Y0506154D01*
X0402596Y0506265D01*
X0402711Y0506374D01*
X0402829Y0506479D01*
X0402950Y0506581D01*
X0403073Y0506681D01*
X0403199Y0506777D01*
X0403327Y0506870D01*
X0403457Y0506960D01*
X0403590Y0507046D01*
X0403725Y0507130D01*
X0403861Y0507209D01*
X0404000Y0507286D01*
X0404141Y0507358D01*
X0404283Y0507428D01*
X0404427Y0507493D01*
X0404573Y0507555D01*
X0404720Y0507613D01*
X0404869Y0507668D01*
X0405019Y0507719D01*
X0405170Y0507766D01*
X0405322Y0507809D01*
X0405475Y0507848D01*
X0405630Y0507884D01*
X0405785Y0507915D01*
X0405941Y0507943D01*
X0406097Y0507967D01*
X0406254Y0507987D01*
X0406412Y0508003D01*
X0406569Y0508015D01*
X0406728Y0508023D01*
X0406886Y0508027D01*
X0407044Y0508027D01*
X0407202Y0508023D01*
X0407361Y0508015D01*
X0407518Y0508003D01*
X0407676Y0507987D01*
X0407833Y0507967D01*
X0407989Y0507943D01*
X0408145Y0507915D01*
X0408300Y0507884D01*
X0408455Y0507848D01*
X0408608Y0507809D01*
X0408760Y0507766D01*
X0408911Y0507719D01*
X0409061Y0507668D01*
X0409210Y0507613D01*
X0409357Y0507555D01*
X0409503Y0507493D01*
X0409647Y0507428D01*
X0409789Y0507358D01*
X0409930Y0507286D01*
X0410069Y0507209D01*
X0410205Y0507130D01*
X0410340Y0507046D01*
X0410473Y0506960D01*
X0410603Y0506870D01*
X0410731Y0506777D01*
X0410857Y0506681D01*
X0410980Y0506581D01*
X0411101Y0506479D01*
X0411219Y0506374D01*
X0411334Y0506265D01*
X0411447Y0506154D01*
X0411557Y0506040D01*
X0411664Y0505923D01*
X0411768Y0505804D01*
X0411869Y0505682D01*
X0411966Y0505557D01*
X0412061Y0505430D01*
X0412152Y0505301D01*
X0412241Y0505170D01*
X0412325Y0505036D01*
X0412407Y0504900D01*
X0412485Y0504763D01*
X0412559Y0504623D01*
X0412630Y0504481D01*
X0412698Y0504338D01*
X0412762Y0504193D01*
X0412822Y0504047D01*
X0412878Y0503899D01*
X0412931Y0503750D01*
X0412980Y0503599D01*
X0413025Y0503447D01*
X0413066Y0503294D01*
X0413104Y0503141D01*
X0413137Y0502986D01*
X0413167Y0502830D01*
X0413193Y0502674D01*
X0413214Y0502517D01*
X0413232Y0502360D01*
X0413246Y0502202D01*
X0413256Y0502044D01*
X0413262Y0501886D01*
X0413264Y0501728D01*
X0413262Y0501570D01*
X0413256Y0501412D01*
X0413246Y0501254D01*
X0413232Y0501096D01*
X0413214Y0500939D01*
X0413193Y0500782D01*
X0413167Y0500626D01*
X0413137Y0500470D01*
X0413104Y0500315D01*
X0413066Y0500162D01*
X0413025Y0500009D01*
X0412980Y0499857D01*
X0412931Y0499706D01*
X0412878Y0499557D01*
X0412822Y0499409D01*
X0412762Y0499263D01*
X0412698Y0499118D01*
X0412630Y0498975D01*
X0412559Y0498833D01*
X0412485Y0498693D01*
X0412407Y0498556D01*
X0412325Y0498420D01*
X0412241Y0498286D01*
X0412152Y0498155D01*
X0412061Y0498026D01*
X0411966Y0497899D01*
X0411869Y0497774D01*
X0411768Y0497652D01*
X0411664Y0497533D01*
X0411557Y0497416D01*
X0411447Y0497302D01*
X0411334Y0497191D01*
X0411219Y0497082D01*
X0411101Y0496977D01*
X0410980Y0496875D01*
X0410857Y0496775D01*
X0410731Y0496679D01*
X0410603Y0496586D01*
X0410473Y0496496D01*
X0410340Y0496410D01*
X0410205Y0496326D01*
X0410069Y0496247D01*
X0409930Y0496170D01*
X0409789Y0496098D01*
X0409647Y0496028D01*
X0409503Y0495963D01*
X0409357Y0495901D01*
X0409210Y0495843D01*
X0409061Y0495788D01*
X0408911Y0495737D01*
X0408760Y0495690D01*
X0408608Y0495647D01*
X0408455Y0495608D01*
X0408300Y0495572D01*
X0408145Y0495541D01*
X0407989Y0495513D01*
X0407833Y0495489D01*
X0407676Y0495469D01*
X0407518Y0495453D01*
X0407361Y0495441D01*
X0407202Y0495433D01*
X0407044Y0495429D01*
X0406886Y0495429D01*
X0406728Y0495433D01*
X0406569Y0495441D01*
X0406412Y0495453D01*
X0406254Y0495469D01*
X0406097Y0495489D01*
X0405941Y0495513D01*
X0405785Y0495541D01*
X0405630Y0495572D01*
X0405475Y0495608D01*
X0405322Y0495647D01*
X0405170Y0495690D01*
X0405019Y0495737D01*
X0404869Y0495788D01*
X0404720Y0495843D01*
X0404573Y0495901D01*
X0404427Y0495963D01*
X0404283Y0496028D01*
X0404141Y0496098D01*
X0404000Y0496170D01*
X0403861Y0496247D01*
X0403725Y0496326D01*
X0403590Y0496410D01*
X0403457Y0496496D01*
X0403327Y0496586D01*
X0403199Y0496679D01*
X0403073Y0496775D01*
X0402950Y0496875D01*
X0402829Y0496977D01*
X0402711Y0497082D01*
X0402596Y0497191D01*
X0402483Y0497302D01*
X0402373Y0497416D01*
X0402266Y0497533D01*
X0402162Y0497652D01*
X0402061Y0497774D01*
X0401964Y0497899D01*
X0401869Y0498026D01*
X0401778Y0498155D01*
X0401689Y0498286D01*
X0401605Y0498420D01*
X0401523Y0498556D01*
X0401445Y0498693D01*
X0401371Y0498833D01*
X0401300Y0498975D01*
X0401232Y0499118D01*
X0401168Y0499263D01*
X0401108Y0499409D01*
X0401052Y0499557D01*
X0400999Y0499706D01*
X0400950Y0499857D01*
X0400905Y0500009D01*
X0400864Y0500162D01*
X0400826Y0500315D01*
X0400793Y0500470D01*
X0400763Y0500626D01*
X0400737Y0500782D01*
X0400716Y0500939D01*
X0400698Y0501096D01*
X0400684Y0501254D01*
X0400674Y0501412D01*
X0400668Y0501570D01*
X0400666Y0501728D01*
X0455666Y0501728D02*
X0455668Y0501886D01*
X0455674Y0502044D01*
X0455684Y0502202D01*
X0455698Y0502360D01*
X0455716Y0502517D01*
X0455737Y0502674D01*
X0455763Y0502830D01*
X0455793Y0502986D01*
X0455826Y0503141D01*
X0455864Y0503294D01*
X0455905Y0503447D01*
X0455950Y0503599D01*
X0455999Y0503750D01*
X0456052Y0503899D01*
X0456108Y0504047D01*
X0456168Y0504193D01*
X0456232Y0504338D01*
X0456300Y0504481D01*
X0456371Y0504623D01*
X0456445Y0504763D01*
X0456523Y0504900D01*
X0456605Y0505036D01*
X0456689Y0505170D01*
X0456778Y0505301D01*
X0456869Y0505430D01*
X0456964Y0505557D01*
X0457061Y0505682D01*
X0457162Y0505804D01*
X0457266Y0505923D01*
X0457373Y0506040D01*
X0457483Y0506154D01*
X0457596Y0506265D01*
X0457711Y0506374D01*
X0457829Y0506479D01*
X0457950Y0506581D01*
X0458073Y0506681D01*
X0458199Y0506777D01*
X0458327Y0506870D01*
X0458457Y0506960D01*
X0458590Y0507046D01*
X0458725Y0507130D01*
X0458861Y0507209D01*
X0459000Y0507286D01*
X0459141Y0507358D01*
X0459283Y0507428D01*
X0459427Y0507493D01*
X0459573Y0507555D01*
X0459720Y0507613D01*
X0459869Y0507668D01*
X0460019Y0507719D01*
X0460170Y0507766D01*
X0460322Y0507809D01*
X0460475Y0507848D01*
X0460630Y0507884D01*
X0460785Y0507915D01*
X0460941Y0507943D01*
X0461097Y0507967D01*
X0461254Y0507987D01*
X0461412Y0508003D01*
X0461569Y0508015D01*
X0461728Y0508023D01*
X0461886Y0508027D01*
X0462044Y0508027D01*
X0462202Y0508023D01*
X0462361Y0508015D01*
X0462518Y0508003D01*
X0462676Y0507987D01*
X0462833Y0507967D01*
X0462989Y0507943D01*
X0463145Y0507915D01*
X0463300Y0507884D01*
X0463455Y0507848D01*
X0463608Y0507809D01*
X0463760Y0507766D01*
X0463911Y0507719D01*
X0464061Y0507668D01*
X0464210Y0507613D01*
X0464357Y0507555D01*
X0464503Y0507493D01*
X0464647Y0507428D01*
X0464789Y0507358D01*
X0464930Y0507286D01*
X0465069Y0507209D01*
X0465205Y0507130D01*
X0465340Y0507046D01*
X0465473Y0506960D01*
X0465603Y0506870D01*
X0465731Y0506777D01*
X0465857Y0506681D01*
X0465980Y0506581D01*
X0466101Y0506479D01*
X0466219Y0506374D01*
X0466334Y0506265D01*
X0466447Y0506154D01*
X0466557Y0506040D01*
X0466664Y0505923D01*
X0466768Y0505804D01*
X0466869Y0505682D01*
X0466966Y0505557D01*
X0467061Y0505430D01*
X0467152Y0505301D01*
X0467241Y0505170D01*
X0467325Y0505036D01*
X0467407Y0504900D01*
X0467485Y0504763D01*
X0467559Y0504623D01*
X0467630Y0504481D01*
X0467698Y0504338D01*
X0467762Y0504193D01*
X0467822Y0504047D01*
X0467878Y0503899D01*
X0467931Y0503750D01*
X0467980Y0503599D01*
X0468025Y0503447D01*
X0468066Y0503294D01*
X0468104Y0503141D01*
X0468137Y0502986D01*
X0468167Y0502830D01*
X0468193Y0502674D01*
X0468214Y0502517D01*
X0468232Y0502360D01*
X0468246Y0502202D01*
X0468256Y0502044D01*
X0468262Y0501886D01*
X0468264Y0501728D01*
X0468262Y0501570D01*
X0468256Y0501412D01*
X0468246Y0501254D01*
X0468232Y0501096D01*
X0468214Y0500939D01*
X0468193Y0500782D01*
X0468167Y0500626D01*
X0468137Y0500470D01*
X0468104Y0500315D01*
X0468066Y0500162D01*
X0468025Y0500009D01*
X0467980Y0499857D01*
X0467931Y0499706D01*
X0467878Y0499557D01*
X0467822Y0499409D01*
X0467762Y0499263D01*
X0467698Y0499118D01*
X0467630Y0498975D01*
X0467559Y0498833D01*
X0467485Y0498693D01*
X0467407Y0498556D01*
X0467325Y0498420D01*
X0467241Y0498286D01*
X0467152Y0498155D01*
X0467061Y0498026D01*
X0466966Y0497899D01*
X0466869Y0497774D01*
X0466768Y0497652D01*
X0466664Y0497533D01*
X0466557Y0497416D01*
X0466447Y0497302D01*
X0466334Y0497191D01*
X0466219Y0497082D01*
X0466101Y0496977D01*
X0465980Y0496875D01*
X0465857Y0496775D01*
X0465731Y0496679D01*
X0465603Y0496586D01*
X0465473Y0496496D01*
X0465340Y0496410D01*
X0465205Y0496326D01*
X0465069Y0496247D01*
X0464930Y0496170D01*
X0464789Y0496098D01*
X0464647Y0496028D01*
X0464503Y0495963D01*
X0464357Y0495901D01*
X0464210Y0495843D01*
X0464061Y0495788D01*
X0463911Y0495737D01*
X0463760Y0495690D01*
X0463608Y0495647D01*
X0463455Y0495608D01*
X0463300Y0495572D01*
X0463145Y0495541D01*
X0462989Y0495513D01*
X0462833Y0495489D01*
X0462676Y0495469D01*
X0462518Y0495453D01*
X0462361Y0495441D01*
X0462202Y0495433D01*
X0462044Y0495429D01*
X0461886Y0495429D01*
X0461728Y0495433D01*
X0461569Y0495441D01*
X0461412Y0495453D01*
X0461254Y0495469D01*
X0461097Y0495489D01*
X0460941Y0495513D01*
X0460785Y0495541D01*
X0460630Y0495572D01*
X0460475Y0495608D01*
X0460322Y0495647D01*
X0460170Y0495690D01*
X0460019Y0495737D01*
X0459869Y0495788D01*
X0459720Y0495843D01*
X0459573Y0495901D01*
X0459427Y0495963D01*
X0459283Y0496028D01*
X0459141Y0496098D01*
X0459000Y0496170D01*
X0458861Y0496247D01*
X0458725Y0496326D01*
X0458590Y0496410D01*
X0458457Y0496496D01*
X0458327Y0496586D01*
X0458199Y0496679D01*
X0458073Y0496775D01*
X0457950Y0496875D01*
X0457829Y0496977D01*
X0457711Y0497082D01*
X0457596Y0497191D01*
X0457483Y0497302D01*
X0457373Y0497416D01*
X0457266Y0497533D01*
X0457162Y0497652D01*
X0457061Y0497774D01*
X0456964Y0497899D01*
X0456869Y0498026D01*
X0456778Y0498155D01*
X0456689Y0498286D01*
X0456605Y0498420D01*
X0456523Y0498556D01*
X0456445Y0498693D01*
X0456371Y0498833D01*
X0456300Y0498975D01*
X0456232Y0499118D01*
X0456168Y0499263D01*
X0456108Y0499409D01*
X0456052Y0499557D01*
X0455999Y0499706D01*
X0455950Y0499857D01*
X0455905Y0500009D01*
X0455864Y0500162D01*
X0455826Y0500315D01*
X0455793Y0500470D01*
X0455763Y0500626D01*
X0455737Y0500782D01*
X0455716Y0500939D01*
X0455698Y0501096D01*
X0455684Y0501254D01*
X0455674Y0501412D01*
X0455668Y0501570D01*
X0455666Y0501728D01*
X0500666Y0501728D02*
X0500668Y0501886D01*
X0500674Y0502044D01*
X0500684Y0502202D01*
X0500698Y0502360D01*
X0500716Y0502517D01*
X0500737Y0502674D01*
X0500763Y0502830D01*
X0500793Y0502986D01*
X0500826Y0503141D01*
X0500864Y0503294D01*
X0500905Y0503447D01*
X0500950Y0503599D01*
X0500999Y0503750D01*
X0501052Y0503899D01*
X0501108Y0504047D01*
X0501168Y0504193D01*
X0501232Y0504338D01*
X0501300Y0504481D01*
X0501371Y0504623D01*
X0501445Y0504763D01*
X0501523Y0504900D01*
X0501605Y0505036D01*
X0501689Y0505170D01*
X0501778Y0505301D01*
X0501869Y0505430D01*
X0501964Y0505557D01*
X0502061Y0505682D01*
X0502162Y0505804D01*
X0502266Y0505923D01*
X0502373Y0506040D01*
X0502483Y0506154D01*
X0502596Y0506265D01*
X0502711Y0506374D01*
X0502829Y0506479D01*
X0502950Y0506581D01*
X0503073Y0506681D01*
X0503199Y0506777D01*
X0503327Y0506870D01*
X0503457Y0506960D01*
X0503590Y0507046D01*
X0503725Y0507130D01*
X0503861Y0507209D01*
X0504000Y0507286D01*
X0504141Y0507358D01*
X0504283Y0507428D01*
X0504427Y0507493D01*
X0504573Y0507555D01*
X0504720Y0507613D01*
X0504869Y0507668D01*
X0505019Y0507719D01*
X0505170Y0507766D01*
X0505322Y0507809D01*
X0505475Y0507848D01*
X0505630Y0507884D01*
X0505785Y0507915D01*
X0505941Y0507943D01*
X0506097Y0507967D01*
X0506254Y0507987D01*
X0506412Y0508003D01*
X0506569Y0508015D01*
X0506728Y0508023D01*
X0506886Y0508027D01*
X0507044Y0508027D01*
X0507202Y0508023D01*
X0507361Y0508015D01*
X0507518Y0508003D01*
X0507676Y0507987D01*
X0507833Y0507967D01*
X0507989Y0507943D01*
X0508145Y0507915D01*
X0508300Y0507884D01*
X0508455Y0507848D01*
X0508608Y0507809D01*
X0508760Y0507766D01*
X0508911Y0507719D01*
X0509061Y0507668D01*
X0509210Y0507613D01*
X0509357Y0507555D01*
X0509503Y0507493D01*
X0509647Y0507428D01*
X0509789Y0507358D01*
X0509930Y0507286D01*
X0510069Y0507209D01*
X0510205Y0507130D01*
X0510340Y0507046D01*
X0510473Y0506960D01*
X0510603Y0506870D01*
X0510731Y0506777D01*
X0510857Y0506681D01*
X0510980Y0506581D01*
X0511101Y0506479D01*
X0511219Y0506374D01*
X0511334Y0506265D01*
X0511447Y0506154D01*
X0511557Y0506040D01*
X0511664Y0505923D01*
X0511768Y0505804D01*
X0511869Y0505682D01*
X0511966Y0505557D01*
X0512061Y0505430D01*
X0512152Y0505301D01*
X0512241Y0505170D01*
X0512325Y0505036D01*
X0512407Y0504900D01*
X0512485Y0504763D01*
X0512559Y0504623D01*
X0512630Y0504481D01*
X0512698Y0504338D01*
X0512762Y0504193D01*
X0512822Y0504047D01*
X0512878Y0503899D01*
X0512931Y0503750D01*
X0512980Y0503599D01*
X0513025Y0503447D01*
X0513066Y0503294D01*
X0513104Y0503141D01*
X0513137Y0502986D01*
X0513167Y0502830D01*
X0513193Y0502674D01*
X0513214Y0502517D01*
X0513232Y0502360D01*
X0513246Y0502202D01*
X0513256Y0502044D01*
X0513262Y0501886D01*
X0513264Y0501728D01*
X0513262Y0501570D01*
X0513256Y0501412D01*
X0513246Y0501254D01*
X0513232Y0501096D01*
X0513214Y0500939D01*
X0513193Y0500782D01*
X0513167Y0500626D01*
X0513137Y0500470D01*
X0513104Y0500315D01*
X0513066Y0500162D01*
X0513025Y0500009D01*
X0512980Y0499857D01*
X0512931Y0499706D01*
X0512878Y0499557D01*
X0512822Y0499409D01*
X0512762Y0499263D01*
X0512698Y0499118D01*
X0512630Y0498975D01*
X0512559Y0498833D01*
X0512485Y0498693D01*
X0512407Y0498556D01*
X0512325Y0498420D01*
X0512241Y0498286D01*
X0512152Y0498155D01*
X0512061Y0498026D01*
X0511966Y0497899D01*
X0511869Y0497774D01*
X0511768Y0497652D01*
X0511664Y0497533D01*
X0511557Y0497416D01*
X0511447Y0497302D01*
X0511334Y0497191D01*
X0511219Y0497082D01*
X0511101Y0496977D01*
X0510980Y0496875D01*
X0510857Y0496775D01*
X0510731Y0496679D01*
X0510603Y0496586D01*
X0510473Y0496496D01*
X0510340Y0496410D01*
X0510205Y0496326D01*
X0510069Y0496247D01*
X0509930Y0496170D01*
X0509789Y0496098D01*
X0509647Y0496028D01*
X0509503Y0495963D01*
X0509357Y0495901D01*
X0509210Y0495843D01*
X0509061Y0495788D01*
X0508911Y0495737D01*
X0508760Y0495690D01*
X0508608Y0495647D01*
X0508455Y0495608D01*
X0508300Y0495572D01*
X0508145Y0495541D01*
X0507989Y0495513D01*
X0507833Y0495489D01*
X0507676Y0495469D01*
X0507518Y0495453D01*
X0507361Y0495441D01*
X0507202Y0495433D01*
X0507044Y0495429D01*
X0506886Y0495429D01*
X0506728Y0495433D01*
X0506569Y0495441D01*
X0506412Y0495453D01*
X0506254Y0495469D01*
X0506097Y0495489D01*
X0505941Y0495513D01*
X0505785Y0495541D01*
X0505630Y0495572D01*
X0505475Y0495608D01*
X0505322Y0495647D01*
X0505170Y0495690D01*
X0505019Y0495737D01*
X0504869Y0495788D01*
X0504720Y0495843D01*
X0504573Y0495901D01*
X0504427Y0495963D01*
X0504283Y0496028D01*
X0504141Y0496098D01*
X0504000Y0496170D01*
X0503861Y0496247D01*
X0503725Y0496326D01*
X0503590Y0496410D01*
X0503457Y0496496D01*
X0503327Y0496586D01*
X0503199Y0496679D01*
X0503073Y0496775D01*
X0502950Y0496875D01*
X0502829Y0496977D01*
X0502711Y0497082D01*
X0502596Y0497191D01*
X0502483Y0497302D01*
X0502373Y0497416D01*
X0502266Y0497533D01*
X0502162Y0497652D01*
X0502061Y0497774D01*
X0501964Y0497899D01*
X0501869Y0498026D01*
X0501778Y0498155D01*
X0501689Y0498286D01*
X0501605Y0498420D01*
X0501523Y0498556D01*
X0501445Y0498693D01*
X0501371Y0498833D01*
X0501300Y0498975D01*
X0501232Y0499118D01*
X0501168Y0499263D01*
X0501108Y0499409D01*
X0501052Y0499557D01*
X0500999Y0499706D01*
X0500950Y0499857D01*
X0500905Y0500009D01*
X0500864Y0500162D01*
X0500826Y0500315D01*
X0500793Y0500470D01*
X0500763Y0500626D01*
X0500737Y0500782D01*
X0500716Y0500939D01*
X0500698Y0501096D01*
X0500684Y0501254D01*
X0500674Y0501412D01*
X0500668Y0501570D01*
X0500666Y0501728D01*
X0555666Y0501728D02*
X0555668Y0501886D01*
X0555674Y0502044D01*
X0555684Y0502202D01*
X0555698Y0502360D01*
X0555716Y0502517D01*
X0555737Y0502674D01*
X0555763Y0502830D01*
X0555793Y0502986D01*
X0555826Y0503141D01*
X0555864Y0503294D01*
X0555905Y0503447D01*
X0555950Y0503599D01*
X0555999Y0503750D01*
X0556052Y0503899D01*
X0556108Y0504047D01*
X0556168Y0504193D01*
X0556232Y0504338D01*
X0556300Y0504481D01*
X0556371Y0504623D01*
X0556445Y0504763D01*
X0556523Y0504900D01*
X0556605Y0505036D01*
X0556689Y0505170D01*
X0556778Y0505301D01*
X0556869Y0505430D01*
X0556964Y0505557D01*
X0557061Y0505682D01*
X0557162Y0505804D01*
X0557266Y0505923D01*
X0557373Y0506040D01*
X0557483Y0506154D01*
X0557596Y0506265D01*
X0557711Y0506374D01*
X0557829Y0506479D01*
X0557950Y0506581D01*
X0558073Y0506681D01*
X0558199Y0506777D01*
X0558327Y0506870D01*
X0558457Y0506960D01*
X0558590Y0507046D01*
X0558725Y0507130D01*
X0558861Y0507209D01*
X0559000Y0507286D01*
X0559141Y0507358D01*
X0559283Y0507428D01*
X0559427Y0507493D01*
X0559573Y0507555D01*
X0559720Y0507613D01*
X0559869Y0507668D01*
X0560019Y0507719D01*
X0560170Y0507766D01*
X0560322Y0507809D01*
X0560475Y0507848D01*
X0560630Y0507884D01*
X0560785Y0507915D01*
X0560941Y0507943D01*
X0561097Y0507967D01*
X0561254Y0507987D01*
X0561412Y0508003D01*
X0561569Y0508015D01*
X0561728Y0508023D01*
X0561886Y0508027D01*
X0562044Y0508027D01*
X0562202Y0508023D01*
X0562361Y0508015D01*
X0562518Y0508003D01*
X0562676Y0507987D01*
X0562833Y0507967D01*
X0562989Y0507943D01*
X0563145Y0507915D01*
X0563300Y0507884D01*
X0563455Y0507848D01*
X0563608Y0507809D01*
X0563760Y0507766D01*
X0563911Y0507719D01*
X0564061Y0507668D01*
X0564210Y0507613D01*
X0564357Y0507555D01*
X0564503Y0507493D01*
X0564647Y0507428D01*
X0564789Y0507358D01*
X0564930Y0507286D01*
X0565069Y0507209D01*
X0565205Y0507130D01*
X0565340Y0507046D01*
X0565473Y0506960D01*
X0565603Y0506870D01*
X0565731Y0506777D01*
X0565857Y0506681D01*
X0565980Y0506581D01*
X0566101Y0506479D01*
X0566219Y0506374D01*
X0566334Y0506265D01*
X0566447Y0506154D01*
X0566557Y0506040D01*
X0566664Y0505923D01*
X0566768Y0505804D01*
X0566869Y0505682D01*
X0566966Y0505557D01*
X0567061Y0505430D01*
X0567152Y0505301D01*
X0567241Y0505170D01*
X0567325Y0505036D01*
X0567407Y0504900D01*
X0567485Y0504763D01*
X0567559Y0504623D01*
X0567630Y0504481D01*
X0567698Y0504338D01*
X0567762Y0504193D01*
X0567822Y0504047D01*
X0567878Y0503899D01*
X0567931Y0503750D01*
X0567980Y0503599D01*
X0568025Y0503447D01*
X0568066Y0503294D01*
X0568104Y0503141D01*
X0568137Y0502986D01*
X0568167Y0502830D01*
X0568193Y0502674D01*
X0568214Y0502517D01*
X0568232Y0502360D01*
X0568246Y0502202D01*
X0568256Y0502044D01*
X0568262Y0501886D01*
X0568264Y0501728D01*
X0568262Y0501570D01*
X0568256Y0501412D01*
X0568246Y0501254D01*
X0568232Y0501096D01*
X0568214Y0500939D01*
X0568193Y0500782D01*
X0568167Y0500626D01*
X0568137Y0500470D01*
X0568104Y0500315D01*
X0568066Y0500162D01*
X0568025Y0500009D01*
X0567980Y0499857D01*
X0567931Y0499706D01*
X0567878Y0499557D01*
X0567822Y0499409D01*
X0567762Y0499263D01*
X0567698Y0499118D01*
X0567630Y0498975D01*
X0567559Y0498833D01*
X0567485Y0498693D01*
X0567407Y0498556D01*
X0567325Y0498420D01*
X0567241Y0498286D01*
X0567152Y0498155D01*
X0567061Y0498026D01*
X0566966Y0497899D01*
X0566869Y0497774D01*
X0566768Y0497652D01*
X0566664Y0497533D01*
X0566557Y0497416D01*
X0566447Y0497302D01*
X0566334Y0497191D01*
X0566219Y0497082D01*
X0566101Y0496977D01*
X0565980Y0496875D01*
X0565857Y0496775D01*
X0565731Y0496679D01*
X0565603Y0496586D01*
X0565473Y0496496D01*
X0565340Y0496410D01*
X0565205Y0496326D01*
X0565069Y0496247D01*
X0564930Y0496170D01*
X0564789Y0496098D01*
X0564647Y0496028D01*
X0564503Y0495963D01*
X0564357Y0495901D01*
X0564210Y0495843D01*
X0564061Y0495788D01*
X0563911Y0495737D01*
X0563760Y0495690D01*
X0563608Y0495647D01*
X0563455Y0495608D01*
X0563300Y0495572D01*
X0563145Y0495541D01*
X0562989Y0495513D01*
X0562833Y0495489D01*
X0562676Y0495469D01*
X0562518Y0495453D01*
X0562361Y0495441D01*
X0562202Y0495433D01*
X0562044Y0495429D01*
X0561886Y0495429D01*
X0561728Y0495433D01*
X0561569Y0495441D01*
X0561412Y0495453D01*
X0561254Y0495469D01*
X0561097Y0495489D01*
X0560941Y0495513D01*
X0560785Y0495541D01*
X0560630Y0495572D01*
X0560475Y0495608D01*
X0560322Y0495647D01*
X0560170Y0495690D01*
X0560019Y0495737D01*
X0559869Y0495788D01*
X0559720Y0495843D01*
X0559573Y0495901D01*
X0559427Y0495963D01*
X0559283Y0496028D01*
X0559141Y0496098D01*
X0559000Y0496170D01*
X0558861Y0496247D01*
X0558725Y0496326D01*
X0558590Y0496410D01*
X0558457Y0496496D01*
X0558327Y0496586D01*
X0558199Y0496679D01*
X0558073Y0496775D01*
X0557950Y0496875D01*
X0557829Y0496977D01*
X0557711Y0497082D01*
X0557596Y0497191D01*
X0557483Y0497302D01*
X0557373Y0497416D01*
X0557266Y0497533D01*
X0557162Y0497652D01*
X0557061Y0497774D01*
X0556964Y0497899D01*
X0556869Y0498026D01*
X0556778Y0498155D01*
X0556689Y0498286D01*
X0556605Y0498420D01*
X0556523Y0498556D01*
X0556445Y0498693D01*
X0556371Y0498833D01*
X0556300Y0498975D01*
X0556232Y0499118D01*
X0556168Y0499263D01*
X0556108Y0499409D01*
X0556052Y0499557D01*
X0555999Y0499706D01*
X0555950Y0499857D01*
X0555905Y0500009D01*
X0555864Y0500162D01*
X0555826Y0500315D01*
X0555793Y0500470D01*
X0555763Y0500626D01*
X0555737Y0500782D01*
X0555716Y0500939D01*
X0555698Y0501096D01*
X0555684Y0501254D01*
X0555674Y0501412D01*
X0555668Y0501570D01*
X0555666Y0501728D01*
X0600666Y0501728D02*
X0600668Y0501886D01*
X0600674Y0502044D01*
X0600684Y0502202D01*
X0600698Y0502360D01*
X0600716Y0502517D01*
X0600737Y0502674D01*
X0600763Y0502830D01*
X0600793Y0502986D01*
X0600826Y0503141D01*
X0600864Y0503294D01*
X0600905Y0503447D01*
X0600950Y0503599D01*
X0600999Y0503750D01*
X0601052Y0503899D01*
X0601108Y0504047D01*
X0601168Y0504193D01*
X0601232Y0504338D01*
X0601300Y0504481D01*
X0601371Y0504623D01*
X0601445Y0504763D01*
X0601523Y0504900D01*
X0601605Y0505036D01*
X0601689Y0505170D01*
X0601778Y0505301D01*
X0601869Y0505430D01*
X0601964Y0505557D01*
X0602061Y0505682D01*
X0602162Y0505804D01*
X0602266Y0505923D01*
X0602373Y0506040D01*
X0602483Y0506154D01*
X0602596Y0506265D01*
X0602711Y0506374D01*
X0602829Y0506479D01*
X0602950Y0506581D01*
X0603073Y0506681D01*
X0603199Y0506777D01*
X0603327Y0506870D01*
X0603457Y0506960D01*
X0603590Y0507046D01*
X0603725Y0507130D01*
X0603861Y0507209D01*
X0604000Y0507286D01*
X0604141Y0507358D01*
X0604283Y0507428D01*
X0604427Y0507493D01*
X0604573Y0507555D01*
X0604720Y0507613D01*
X0604869Y0507668D01*
X0605019Y0507719D01*
X0605170Y0507766D01*
X0605322Y0507809D01*
X0605475Y0507848D01*
X0605630Y0507884D01*
X0605785Y0507915D01*
X0605941Y0507943D01*
X0606097Y0507967D01*
X0606254Y0507987D01*
X0606412Y0508003D01*
X0606569Y0508015D01*
X0606728Y0508023D01*
X0606886Y0508027D01*
X0607044Y0508027D01*
X0607202Y0508023D01*
X0607361Y0508015D01*
X0607518Y0508003D01*
X0607676Y0507987D01*
X0607833Y0507967D01*
X0607989Y0507943D01*
X0608145Y0507915D01*
X0608300Y0507884D01*
X0608455Y0507848D01*
X0608608Y0507809D01*
X0608760Y0507766D01*
X0608911Y0507719D01*
X0609061Y0507668D01*
X0609210Y0507613D01*
X0609357Y0507555D01*
X0609503Y0507493D01*
X0609647Y0507428D01*
X0609789Y0507358D01*
X0609930Y0507286D01*
X0610069Y0507209D01*
X0610205Y0507130D01*
X0610340Y0507046D01*
X0610473Y0506960D01*
X0610603Y0506870D01*
X0610731Y0506777D01*
X0610857Y0506681D01*
X0610980Y0506581D01*
X0611101Y0506479D01*
X0611219Y0506374D01*
X0611334Y0506265D01*
X0611447Y0506154D01*
X0611557Y0506040D01*
X0611664Y0505923D01*
X0611768Y0505804D01*
X0611869Y0505682D01*
X0611966Y0505557D01*
X0612061Y0505430D01*
X0612152Y0505301D01*
X0612241Y0505170D01*
X0612325Y0505036D01*
X0612407Y0504900D01*
X0612485Y0504763D01*
X0612559Y0504623D01*
X0612630Y0504481D01*
X0612698Y0504338D01*
X0612762Y0504193D01*
X0612822Y0504047D01*
X0612878Y0503899D01*
X0612931Y0503750D01*
X0612980Y0503599D01*
X0613025Y0503447D01*
X0613066Y0503294D01*
X0613104Y0503141D01*
X0613137Y0502986D01*
X0613167Y0502830D01*
X0613193Y0502674D01*
X0613214Y0502517D01*
X0613232Y0502360D01*
X0613246Y0502202D01*
X0613256Y0502044D01*
X0613262Y0501886D01*
X0613264Y0501728D01*
X0613262Y0501570D01*
X0613256Y0501412D01*
X0613246Y0501254D01*
X0613232Y0501096D01*
X0613214Y0500939D01*
X0613193Y0500782D01*
X0613167Y0500626D01*
X0613137Y0500470D01*
X0613104Y0500315D01*
X0613066Y0500162D01*
X0613025Y0500009D01*
X0612980Y0499857D01*
X0612931Y0499706D01*
X0612878Y0499557D01*
X0612822Y0499409D01*
X0612762Y0499263D01*
X0612698Y0499118D01*
X0612630Y0498975D01*
X0612559Y0498833D01*
X0612485Y0498693D01*
X0612407Y0498556D01*
X0612325Y0498420D01*
X0612241Y0498286D01*
X0612152Y0498155D01*
X0612061Y0498026D01*
X0611966Y0497899D01*
X0611869Y0497774D01*
X0611768Y0497652D01*
X0611664Y0497533D01*
X0611557Y0497416D01*
X0611447Y0497302D01*
X0611334Y0497191D01*
X0611219Y0497082D01*
X0611101Y0496977D01*
X0610980Y0496875D01*
X0610857Y0496775D01*
X0610731Y0496679D01*
X0610603Y0496586D01*
X0610473Y0496496D01*
X0610340Y0496410D01*
X0610205Y0496326D01*
X0610069Y0496247D01*
X0609930Y0496170D01*
X0609789Y0496098D01*
X0609647Y0496028D01*
X0609503Y0495963D01*
X0609357Y0495901D01*
X0609210Y0495843D01*
X0609061Y0495788D01*
X0608911Y0495737D01*
X0608760Y0495690D01*
X0608608Y0495647D01*
X0608455Y0495608D01*
X0608300Y0495572D01*
X0608145Y0495541D01*
X0607989Y0495513D01*
X0607833Y0495489D01*
X0607676Y0495469D01*
X0607518Y0495453D01*
X0607361Y0495441D01*
X0607202Y0495433D01*
X0607044Y0495429D01*
X0606886Y0495429D01*
X0606728Y0495433D01*
X0606569Y0495441D01*
X0606412Y0495453D01*
X0606254Y0495469D01*
X0606097Y0495489D01*
X0605941Y0495513D01*
X0605785Y0495541D01*
X0605630Y0495572D01*
X0605475Y0495608D01*
X0605322Y0495647D01*
X0605170Y0495690D01*
X0605019Y0495737D01*
X0604869Y0495788D01*
X0604720Y0495843D01*
X0604573Y0495901D01*
X0604427Y0495963D01*
X0604283Y0496028D01*
X0604141Y0496098D01*
X0604000Y0496170D01*
X0603861Y0496247D01*
X0603725Y0496326D01*
X0603590Y0496410D01*
X0603457Y0496496D01*
X0603327Y0496586D01*
X0603199Y0496679D01*
X0603073Y0496775D01*
X0602950Y0496875D01*
X0602829Y0496977D01*
X0602711Y0497082D01*
X0602596Y0497191D01*
X0602483Y0497302D01*
X0602373Y0497416D01*
X0602266Y0497533D01*
X0602162Y0497652D01*
X0602061Y0497774D01*
X0601964Y0497899D01*
X0601869Y0498026D01*
X0601778Y0498155D01*
X0601689Y0498286D01*
X0601605Y0498420D01*
X0601523Y0498556D01*
X0601445Y0498693D01*
X0601371Y0498833D01*
X0601300Y0498975D01*
X0601232Y0499118D01*
X0601168Y0499263D01*
X0601108Y0499409D01*
X0601052Y0499557D01*
X0600999Y0499706D01*
X0600950Y0499857D01*
X0600905Y0500009D01*
X0600864Y0500162D01*
X0600826Y0500315D01*
X0600793Y0500470D01*
X0600763Y0500626D01*
X0600737Y0500782D01*
X0600716Y0500939D01*
X0600698Y0501096D01*
X0600684Y0501254D01*
X0600674Y0501412D01*
X0600668Y0501570D01*
X0600666Y0501728D01*
X0647910Y0417949D02*
X0647912Y0418102D01*
X0647918Y0418256D01*
X0647928Y0418409D01*
X0647942Y0418561D01*
X0647960Y0418714D01*
X0647982Y0418865D01*
X0648007Y0419016D01*
X0648037Y0419167D01*
X0648071Y0419317D01*
X0648108Y0419465D01*
X0648149Y0419613D01*
X0648194Y0419759D01*
X0648243Y0419905D01*
X0648296Y0420049D01*
X0648352Y0420191D01*
X0648412Y0420332D01*
X0648476Y0420472D01*
X0648543Y0420610D01*
X0648614Y0420746D01*
X0648689Y0420880D01*
X0648766Y0421012D01*
X0648848Y0421142D01*
X0648932Y0421270D01*
X0649020Y0421396D01*
X0649111Y0421519D01*
X0649205Y0421640D01*
X0649303Y0421758D01*
X0649403Y0421874D01*
X0649507Y0421987D01*
X0649613Y0422098D01*
X0649722Y0422206D01*
X0649834Y0422311D01*
X0649948Y0422412D01*
X0650066Y0422511D01*
X0650185Y0422607D01*
X0650307Y0422700D01*
X0650432Y0422789D01*
X0650559Y0422876D01*
X0650688Y0422958D01*
X0650819Y0423038D01*
X0650952Y0423114D01*
X0651087Y0423187D01*
X0651224Y0423256D01*
X0651363Y0423321D01*
X0651503Y0423383D01*
X0651645Y0423441D01*
X0651788Y0423496D01*
X0651933Y0423547D01*
X0652079Y0423594D01*
X0652226Y0423637D01*
X0652374Y0423676D01*
X0652523Y0423712D01*
X0652673Y0423743D01*
X0652824Y0423771D01*
X0652975Y0423795D01*
X0653128Y0423815D01*
X0653280Y0423831D01*
X0653433Y0423843D01*
X0653586Y0423851D01*
X0653739Y0423855D01*
X0653893Y0423855D01*
X0654046Y0423851D01*
X0654199Y0423843D01*
X0654352Y0423831D01*
X0654504Y0423815D01*
X0654657Y0423795D01*
X0654808Y0423771D01*
X0654959Y0423743D01*
X0655109Y0423712D01*
X0655258Y0423676D01*
X0655406Y0423637D01*
X0655553Y0423594D01*
X0655699Y0423547D01*
X0655844Y0423496D01*
X0655987Y0423441D01*
X0656129Y0423383D01*
X0656269Y0423321D01*
X0656408Y0423256D01*
X0656545Y0423187D01*
X0656680Y0423114D01*
X0656813Y0423038D01*
X0656944Y0422958D01*
X0657073Y0422876D01*
X0657200Y0422789D01*
X0657325Y0422700D01*
X0657447Y0422607D01*
X0657566Y0422511D01*
X0657684Y0422412D01*
X0657798Y0422311D01*
X0657910Y0422206D01*
X0658019Y0422098D01*
X0658125Y0421987D01*
X0658229Y0421874D01*
X0658329Y0421758D01*
X0658427Y0421640D01*
X0658521Y0421519D01*
X0658612Y0421396D01*
X0658700Y0421270D01*
X0658784Y0421142D01*
X0658866Y0421012D01*
X0658943Y0420880D01*
X0659018Y0420746D01*
X0659089Y0420610D01*
X0659156Y0420472D01*
X0659220Y0420332D01*
X0659280Y0420191D01*
X0659336Y0420049D01*
X0659389Y0419905D01*
X0659438Y0419759D01*
X0659483Y0419613D01*
X0659524Y0419465D01*
X0659561Y0419317D01*
X0659595Y0419167D01*
X0659625Y0419016D01*
X0659650Y0418865D01*
X0659672Y0418714D01*
X0659690Y0418561D01*
X0659704Y0418409D01*
X0659714Y0418256D01*
X0659720Y0418102D01*
X0659722Y0417949D01*
X0659720Y0417796D01*
X0659714Y0417642D01*
X0659704Y0417489D01*
X0659690Y0417337D01*
X0659672Y0417184D01*
X0659650Y0417033D01*
X0659625Y0416882D01*
X0659595Y0416731D01*
X0659561Y0416581D01*
X0659524Y0416433D01*
X0659483Y0416285D01*
X0659438Y0416139D01*
X0659389Y0415993D01*
X0659336Y0415849D01*
X0659280Y0415707D01*
X0659220Y0415566D01*
X0659156Y0415426D01*
X0659089Y0415288D01*
X0659018Y0415152D01*
X0658943Y0415018D01*
X0658866Y0414886D01*
X0658784Y0414756D01*
X0658700Y0414628D01*
X0658612Y0414502D01*
X0658521Y0414379D01*
X0658427Y0414258D01*
X0658329Y0414140D01*
X0658229Y0414024D01*
X0658125Y0413911D01*
X0658019Y0413800D01*
X0657910Y0413692D01*
X0657798Y0413587D01*
X0657684Y0413486D01*
X0657566Y0413387D01*
X0657447Y0413291D01*
X0657325Y0413198D01*
X0657200Y0413109D01*
X0657073Y0413022D01*
X0656944Y0412940D01*
X0656813Y0412860D01*
X0656680Y0412784D01*
X0656545Y0412711D01*
X0656408Y0412642D01*
X0656269Y0412577D01*
X0656129Y0412515D01*
X0655987Y0412457D01*
X0655844Y0412402D01*
X0655699Y0412351D01*
X0655553Y0412304D01*
X0655406Y0412261D01*
X0655258Y0412222D01*
X0655109Y0412186D01*
X0654959Y0412155D01*
X0654808Y0412127D01*
X0654657Y0412103D01*
X0654504Y0412083D01*
X0654352Y0412067D01*
X0654199Y0412055D01*
X0654046Y0412047D01*
X0653893Y0412043D01*
X0653739Y0412043D01*
X0653586Y0412047D01*
X0653433Y0412055D01*
X0653280Y0412067D01*
X0653128Y0412083D01*
X0652975Y0412103D01*
X0652824Y0412127D01*
X0652673Y0412155D01*
X0652523Y0412186D01*
X0652374Y0412222D01*
X0652226Y0412261D01*
X0652079Y0412304D01*
X0651933Y0412351D01*
X0651788Y0412402D01*
X0651645Y0412457D01*
X0651503Y0412515D01*
X0651363Y0412577D01*
X0651224Y0412642D01*
X0651087Y0412711D01*
X0650952Y0412784D01*
X0650819Y0412860D01*
X0650688Y0412940D01*
X0650559Y0413022D01*
X0650432Y0413109D01*
X0650307Y0413198D01*
X0650185Y0413291D01*
X0650066Y0413387D01*
X0649948Y0413486D01*
X0649834Y0413587D01*
X0649722Y0413692D01*
X0649613Y0413800D01*
X0649507Y0413911D01*
X0649403Y0414024D01*
X0649303Y0414140D01*
X0649205Y0414258D01*
X0649111Y0414379D01*
X0649020Y0414502D01*
X0648932Y0414628D01*
X0648848Y0414756D01*
X0648766Y0414886D01*
X0648689Y0415018D01*
X0648614Y0415152D01*
X0648543Y0415288D01*
X0648476Y0415426D01*
X0648412Y0415566D01*
X0648352Y0415707D01*
X0648296Y0415849D01*
X0648243Y0415993D01*
X0648194Y0416139D01*
X0648149Y0416285D01*
X0648108Y0416433D01*
X0648071Y0416581D01*
X0648037Y0416731D01*
X0648007Y0416882D01*
X0647982Y0417033D01*
X0647960Y0417184D01*
X0647942Y0417337D01*
X0647928Y0417489D01*
X0647918Y0417642D01*
X0647912Y0417796D01*
X0647910Y0417949D01*
X0889012Y0488933D02*
X0889014Y0489041D01*
X0889020Y0489150D01*
X0889030Y0489258D01*
X0889044Y0489365D01*
X0889062Y0489472D01*
X0889083Y0489579D01*
X0889109Y0489684D01*
X0889139Y0489789D01*
X0889172Y0489892D01*
X0889209Y0489994D01*
X0889250Y0490094D01*
X0889294Y0490193D01*
X0889343Y0490291D01*
X0889394Y0490386D01*
X0889449Y0490479D01*
X0889508Y0490571D01*
X0889570Y0490660D01*
X0889635Y0490747D01*
X0889703Y0490831D01*
X0889774Y0490913D01*
X0889848Y0490992D01*
X0889925Y0491068D01*
X0890005Y0491142D01*
X0890088Y0491212D01*
X0890173Y0491280D01*
X0890260Y0491344D01*
X0890350Y0491405D01*
X0890442Y0491463D01*
X0890536Y0491517D01*
X0890632Y0491568D01*
X0890729Y0491615D01*
X0890829Y0491659D01*
X0890930Y0491699D01*
X0891032Y0491735D01*
X0891135Y0491767D01*
X0891240Y0491796D01*
X0891346Y0491820D01*
X0891452Y0491841D01*
X0891559Y0491858D01*
X0891667Y0491871D01*
X0891775Y0491880D01*
X0891884Y0491885D01*
X0891992Y0491886D01*
X0892101Y0491883D01*
X0892209Y0491876D01*
X0892317Y0491865D01*
X0892424Y0491850D01*
X0892531Y0491831D01*
X0892637Y0491808D01*
X0892742Y0491782D01*
X0892847Y0491751D01*
X0892949Y0491717D01*
X0893051Y0491679D01*
X0893151Y0491637D01*
X0893250Y0491592D01*
X0893347Y0491543D01*
X0893441Y0491490D01*
X0893534Y0491434D01*
X0893625Y0491375D01*
X0893714Y0491312D01*
X0893800Y0491247D01*
X0893884Y0491178D01*
X0893965Y0491106D01*
X0894043Y0491031D01*
X0894119Y0490953D01*
X0894192Y0490872D01*
X0894262Y0490789D01*
X0894328Y0490704D01*
X0894392Y0490616D01*
X0894452Y0490525D01*
X0894509Y0490433D01*
X0894562Y0490338D01*
X0894612Y0490242D01*
X0894658Y0490144D01*
X0894701Y0490044D01*
X0894740Y0489943D01*
X0894775Y0489840D01*
X0894807Y0489737D01*
X0894834Y0489632D01*
X0894858Y0489526D01*
X0894878Y0489419D01*
X0894894Y0489312D01*
X0894906Y0489204D01*
X0894914Y0489096D01*
X0894918Y0488987D01*
X0894918Y0488879D01*
X0894914Y0488770D01*
X0894906Y0488662D01*
X0894894Y0488554D01*
X0894878Y0488447D01*
X0894858Y0488340D01*
X0894834Y0488234D01*
X0894807Y0488129D01*
X0894775Y0488026D01*
X0894740Y0487923D01*
X0894701Y0487822D01*
X0894658Y0487722D01*
X0894612Y0487624D01*
X0894562Y0487528D01*
X0894509Y0487433D01*
X0894452Y0487341D01*
X0894392Y0487250D01*
X0894328Y0487162D01*
X0894262Y0487077D01*
X0894192Y0486994D01*
X0894119Y0486913D01*
X0894043Y0486835D01*
X0893965Y0486760D01*
X0893884Y0486688D01*
X0893800Y0486619D01*
X0893714Y0486554D01*
X0893625Y0486491D01*
X0893534Y0486432D01*
X0893442Y0486376D01*
X0893347Y0486323D01*
X0893250Y0486274D01*
X0893151Y0486229D01*
X0893051Y0486187D01*
X0892949Y0486149D01*
X0892847Y0486115D01*
X0892742Y0486084D01*
X0892637Y0486058D01*
X0892531Y0486035D01*
X0892424Y0486016D01*
X0892317Y0486001D01*
X0892209Y0485990D01*
X0892101Y0485983D01*
X0891992Y0485980D01*
X0891884Y0485981D01*
X0891775Y0485986D01*
X0891667Y0485995D01*
X0891559Y0486008D01*
X0891452Y0486025D01*
X0891346Y0486046D01*
X0891240Y0486070D01*
X0891135Y0486099D01*
X0891032Y0486131D01*
X0890930Y0486167D01*
X0890829Y0486207D01*
X0890729Y0486251D01*
X0890632Y0486298D01*
X0890536Y0486349D01*
X0890442Y0486403D01*
X0890350Y0486461D01*
X0890260Y0486522D01*
X0890173Y0486586D01*
X0890088Y0486654D01*
X0890005Y0486724D01*
X0889925Y0486798D01*
X0889848Y0486874D01*
X0889774Y0486953D01*
X0889703Y0487035D01*
X0889635Y0487119D01*
X0889570Y0487206D01*
X0889508Y0487295D01*
X0889449Y0487387D01*
X0889394Y0487480D01*
X0889343Y0487575D01*
X0889294Y0487673D01*
X0889250Y0487772D01*
X0889209Y0487872D01*
X0889172Y0487974D01*
X0889139Y0488077D01*
X0889109Y0488182D01*
X0889083Y0488287D01*
X0889062Y0488394D01*
X0889044Y0488501D01*
X0889030Y0488608D01*
X0889020Y0488716D01*
X0889014Y0488825D01*
X0889012Y0488933D01*
X0889012Y0143933D02*
X0889014Y0144041D01*
X0889020Y0144150D01*
X0889030Y0144258D01*
X0889044Y0144365D01*
X0889062Y0144472D01*
X0889083Y0144579D01*
X0889109Y0144684D01*
X0889139Y0144789D01*
X0889172Y0144892D01*
X0889209Y0144994D01*
X0889250Y0145094D01*
X0889294Y0145193D01*
X0889343Y0145291D01*
X0889394Y0145386D01*
X0889449Y0145479D01*
X0889508Y0145571D01*
X0889570Y0145660D01*
X0889635Y0145747D01*
X0889703Y0145831D01*
X0889774Y0145913D01*
X0889848Y0145992D01*
X0889925Y0146068D01*
X0890005Y0146142D01*
X0890088Y0146212D01*
X0890173Y0146280D01*
X0890260Y0146344D01*
X0890350Y0146405D01*
X0890442Y0146463D01*
X0890536Y0146517D01*
X0890632Y0146568D01*
X0890729Y0146615D01*
X0890829Y0146659D01*
X0890930Y0146699D01*
X0891032Y0146735D01*
X0891135Y0146767D01*
X0891240Y0146796D01*
X0891346Y0146820D01*
X0891452Y0146841D01*
X0891559Y0146858D01*
X0891667Y0146871D01*
X0891775Y0146880D01*
X0891884Y0146885D01*
X0891992Y0146886D01*
X0892101Y0146883D01*
X0892209Y0146876D01*
X0892317Y0146865D01*
X0892424Y0146850D01*
X0892531Y0146831D01*
X0892637Y0146808D01*
X0892742Y0146782D01*
X0892847Y0146751D01*
X0892949Y0146717D01*
X0893051Y0146679D01*
X0893151Y0146637D01*
X0893250Y0146592D01*
X0893347Y0146543D01*
X0893441Y0146490D01*
X0893534Y0146434D01*
X0893625Y0146375D01*
X0893714Y0146312D01*
X0893800Y0146247D01*
X0893884Y0146178D01*
X0893965Y0146106D01*
X0894043Y0146031D01*
X0894119Y0145953D01*
X0894192Y0145872D01*
X0894262Y0145789D01*
X0894328Y0145704D01*
X0894392Y0145616D01*
X0894452Y0145525D01*
X0894509Y0145433D01*
X0894562Y0145338D01*
X0894612Y0145242D01*
X0894658Y0145144D01*
X0894701Y0145044D01*
X0894740Y0144943D01*
X0894775Y0144840D01*
X0894807Y0144737D01*
X0894834Y0144632D01*
X0894858Y0144526D01*
X0894878Y0144419D01*
X0894894Y0144312D01*
X0894906Y0144204D01*
X0894914Y0144096D01*
X0894918Y0143987D01*
X0894918Y0143879D01*
X0894914Y0143770D01*
X0894906Y0143662D01*
X0894894Y0143554D01*
X0894878Y0143447D01*
X0894858Y0143340D01*
X0894834Y0143234D01*
X0894807Y0143129D01*
X0894775Y0143026D01*
X0894740Y0142923D01*
X0894701Y0142822D01*
X0894658Y0142722D01*
X0894612Y0142624D01*
X0894562Y0142528D01*
X0894509Y0142433D01*
X0894452Y0142341D01*
X0894392Y0142250D01*
X0894328Y0142162D01*
X0894262Y0142077D01*
X0894192Y0141994D01*
X0894119Y0141913D01*
X0894043Y0141835D01*
X0893965Y0141760D01*
X0893884Y0141688D01*
X0893800Y0141619D01*
X0893714Y0141554D01*
X0893625Y0141491D01*
X0893534Y0141432D01*
X0893442Y0141376D01*
X0893347Y0141323D01*
X0893250Y0141274D01*
X0893151Y0141229D01*
X0893051Y0141187D01*
X0892949Y0141149D01*
X0892847Y0141115D01*
X0892742Y0141084D01*
X0892637Y0141058D01*
X0892531Y0141035D01*
X0892424Y0141016D01*
X0892317Y0141001D01*
X0892209Y0140990D01*
X0892101Y0140983D01*
X0891992Y0140980D01*
X0891884Y0140981D01*
X0891775Y0140986D01*
X0891667Y0140995D01*
X0891559Y0141008D01*
X0891452Y0141025D01*
X0891346Y0141046D01*
X0891240Y0141070D01*
X0891135Y0141099D01*
X0891032Y0141131D01*
X0890930Y0141167D01*
X0890829Y0141207D01*
X0890729Y0141251D01*
X0890632Y0141298D01*
X0890536Y0141349D01*
X0890442Y0141403D01*
X0890350Y0141461D01*
X0890260Y0141522D01*
X0890173Y0141586D01*
X0890088Y0141654D01*
X0890005Y0141724D01*
X0889925Y0141798D01*
X0889848Y0141874D01*
X0889774Y0141953D01*
X0889703Y0142035D01*
X0889635Y0142119D01*
X0889570Y0142206D01*
X0889508Y0142295D01*
X0889449Y0142387D01*
X0889394Y0142480D01*
X0889343Y0142575D01*
X0889294Y0142673D01*
X0889250Y0142772D01*
X0889209Y0142872D01*
X0889172Y0142974D01*
X0889139Y0143077D01*
X0889109Y0143182D01*
X0889083Y0143287D01*
X0889062Y0143394D01*
X0889044Y0143501D01*
X0889030Y0143608D01*
X0889020Y0143716D01*
X0889014Y0143825D01*
X0889012Y0143933D01*
X0647910Y0133303D02*
X0647912Y0133456D01*
X0647918Y0133610D01*
X0647928Y0133763D01*
X0647942Y0133915D01*
X0647960Y0134068D01*
X0647982Y0134219D01*
X0648007Y0134370D01*
X0648037Y0134521D01*
X0648071Y0134671D01*
X0648108Y0134819D01*
X0648149Y0134967D01*
X0648194Y0135113D01*
X0648243Y0135259D01*
X0648296Y0135403D01*
X0648352Y0135545D01*
X0648412Y0135686D01*
X0648476Y0135826D01*
X0648543Y0135964D01*
X0648614Y0136100D01*
X0648689Y0136234D01*
X0648766Y0136366D01*
X0648848Y0136496D01*
X0648932Y0136624D01*
X0649020Y0136750D01*
X0649111Y0136873D01*
X0649205Y0136994D01*
X0649303Y0137112D01*
X0649403Y0137228D01*
X0649507Y0137341D01*
X0649613Y0137452D01*
X0649722Y0137560D01*
X0649834Y0137665D01*
X0649948Y0137766D01*
X0650066Y0137865D01*
X0650185Y0137961D01*
X0650307Y0138054D01*
X0650432Y0138143D01*
X0650559Y0138230D01*
X0650688Y0138312D01*
X0650819Y0138392D01*
X0650952Y0138468D01*
X0651087Y0138541D01*
X0651224Y0138610D01*
X0651363Y0138675D01*
X0651503Y0138737D01*
X0651645Y0138795D01*
X0651788Y0138850D01*
X0651933Y0138901D01*
X0652079Y0138948D01*
X0652226Y0138991D01*
X0652374Y0139030D01*
X0652523Y0139066D01*
X0652673Y0139097D01*
X0652824Y0139125D01*
X0652975Y0139149D01*
X0653128Y0139169D01*
X0653280Y0139185D01*
X0653433Y0139197D01*
X0653586Y0139205D01*
X0653739Y0139209D01*
X0653893Y0139209D01*
X0654046Y0139205D01*
X0654199Y0139197D01*
X0654352Y0139185D01*
X0654504Y0139169D01*
X0654657Y0139149D01*
X0654808Y0139125D01*
X0654959Y0139097D01*
X0655109Y0139066D01*
X0655258Y0139030D01*
X0655406Y0138991D01*
X0655553Y0138948D01*
X0655699Y0138901D01*
X0655844Y0138850D01*
X0655987Y0138795D01*
X0656129Y0138737D01*
X0656269Y0138675D01*
X0656408Y0138610D01*
X0656545Y0138541D01*
X0656680Y0138468D01*
X0656813Y0138392D01*
X0656944Y0138312D01*
X0657073Y0138230D01*
X0657200Y0138143D01*
X0657325Y0138054D01*
X0657447Y0137961D01*
X0657566Y0137865D01*
X0657684Y0137766D01*
X0657798Y0137665D01*
X0657910Y0137560D01*
X0658019Y0137452D01*
X0658125Y0137341D01*
X0658229Y0137228D01*
X0658329Y0137112D01*
X0658427Y0136994D01*
X0658521Y0136873D01*
X0658612Y0136750D01*
X0658700Y0136624D01*
X0658784Y0136496D01*
X0658866Y0136366D01*
X0658943Y0136234D01*
X0659018Y0136100D01*
X0659089Y0135964D01*
X0659156Y0135826D01*
X0659220Y0135686D01*
X0659280Y0135545D01*
X0659336Y0135403D01*
X0659389Y0135259D01*
X0659438Y0135113D01*
X0659483Y0134967D01*
X0659524Y0134819D01*
X0659561Y0134671D01*
X0659595Y0134521D01*
X0659625Y0134370D01*
X0659650Y0134219D01*
X0659672Y0134068D01*
X0659690Y0133915D01*
X0659704Y0133763D01*
X0659714Y0133610D01*
X0659720Y0133456D01*
X0659722Y0133303D01*
X0659720Y0133150D01*
X0659714Y0132996D01*
X0659704Y0132843D01*
X0659690Y0132691D01*
X0659672Y0132538D01*
X0659650Y0132387D01*
X0659625Y0132236D01*
X0659595Y0132085D01*
X0659561Y0131935D01*
X0659524Y0131787D01*
X0659483Y0131639D01*
X0659438Y0131493D01*
X0659389Y0131347D01*
X0659336Y0131203D01*
X0659280Y0131061D01*
X0659220Y0130920D01*
X0659156Y0130780D01*
X0659089Y0130642D01*
X0659018Y0130506D01*
X0658943Y0130372D01*
X0658866Y0130240D01*
X0658784Y0130110D01*
X0658700Y0129982D01*
X0658612Y0129856D01*
X0658521Y0129733D01*
X0658427Y0129612D01*
X0658329Y0129494D01*
X0658229Y0129378D01*
X0658125Y0129265D01*
X0658019Y0129154D01*
X0657910Y0129046D01*
X0657798Y0128941D01*
X0657684Y0128840D01*
X0657566Y0128741D01*
X0657447Y0128645D01*
X0657325Y0128552D01*
X0657200Y0128463D01*
X0657073Y0128376D01*
X0656944Y0128294D01*
X0656813Y0128214D01*
X0656680Y0128138D01*
X0656545Y0128065D01*
X0656408Y0127996D01*
X0656269Y0127931D01*
X0656129Y0127869D01*
X0655987Y0127811D01*
X0655844Y0127756D01*
X0655699Y0127705D01*
X0655553Y0127658D01*
X0655406Y0127615D01*
X0655258Y0127576D01*
X0655109Y0127540D01*
X0654959Y0127509D01*
X0654808Y0127481D01*
X0654657Y0127457D01*
X0654504Y0127437D01*
X0654352Y0127421D01*
X0654199Y0127409D01*
X0654046Y0127401D01*
X0653893Y0127397D01*
X0653739Y0127397D01*
X0653586Y0127401D01*
X0653433Y0127409D01*
X0653280Y0127421D01*
X0653128Y0127437D01*
X0652975Y0127457D01*
X0652824Y0127481D01*
X0652673Y0127509D01*
X0652523Y0127540D01*
X0652374Y0127576D01*
X0652226Y0127615D01*
X0652079Y0127658D01*
X0651933Y0127705D01*
X0651788Y0127756D01*
X0651645Y0127811D01*
X0651503Y0127869D01*
X0651363Y0127931D01*
X0651224Y0127996D01*
X0651087Y0128065D01*
X0650952Y0128138D01*
X0650819Y0128214D01*
X0650688Y0128294D01*
X0650559Y0128376D01*
X0650432Y0128463D01*
X0650307Y0128552D01*
X0650185Y0128645D01*
X0650066Y0128741D01*
X0649948Y0128840D01*
X0649834Y0128941D01*
X0649722Y0129046D01*
X0649613Y0129154D01*
X0649507Y0129265D01*
X0649403Y0129378D01*
X0649303Y0129494D01*
X0649205Y0129612D01*
X0649111Y0129733D01*
X0649020Y0129856D01*
X0648932Y0129982D01*
X0648848Y0130110D01*
X0648766Y0130240D01*
X0648689Y0130372D01*
X0648614Y0130506D01*
X0648543Y0130642D01*
X0648476Y0130780D01*
X0648412Y0130920D01*
X0648352Y0131061D01*
X0648296Y0131203D01*
X0648243Y0131347D01*
X0648194Y0131493D01*
X0648149Y0131639D01*
X0648108Y0131787D01*
X0648071Y0131935D01*
X0648037Y0132085D01*
X0648007Y0132236D01*
X0647982Y0132387D01*
X0647960Y0132538D01*
X0647942Y0132691D01*
X0647928Y0132843D01*
X0647918Y0132996D01*
X0647912Y0133150D01*
X0647910Y0133303D01*
D11*
X0502027Y0131686D02*
X0502027Y0128483D01*
X0502027Y0131686D02*
X0500959Y0132753D01*
X0498824Y0132753D01*
X0497756Y0131686D01*
X0497756Y0134889D02*
X0497756Y0128483D01*
X0495581Y0128483D02*
X0491311Y0128483D01*
X0493446Y0128483D02*
X0493446Y0134889D01*
X0491311Y0132753D01*
X0489156Y0129551D02*
X0489156Y0128483D01*
X0488088Y0128483D01*
X0488088Y0129551D01*
X0489156Y0129551D01*
X0485913Y0128483D02*
X0481643Y0128483D01*
X0483778Y0128483D02*
X0483778Y0134889D01*
X0481643Y0132753D01*
X0479467Y0132753D02*
X0477332Y0128483D01*
X0475197Y0132753D01*
X0466576Y0131686D02*
X0466576Y0128483D01*
X0466576Y0131686D02*
X0465509Y0132753D01*
X0462306Y0132753D01*
X0462306Y0128483D01*
X0460131Y0130618D02*
X0455861Y0130618D01*
X0455861Y0129551D02*
X0455861Y0131686D01*
X0456928Y0132753D01*
X0459063Y0132753D01*
X0460131Y0131686D01*
X0460131Y0130618D01*
X0459063Y0128483D02*
X0456928Y0128483D01*
X0455861Y0129551D01*
X0453685Y0132753D02*
X0451550Y0128483D01*
X0449415Y0132753D01*
X0447240Y0131686D02*
X0447240Y0130618D01*
X0442970Y0130618D01*
X0442970Y0129551D02*
X0442970Y0131686D01*
X0444037Y0132753D01*
X0446172Y0132753D01*
X0447240Y0131686D01*
X0446172Y0128483D02*
X0444037Y0128483D01*
X0442970Y0129551D01*
X0440794Y0129551D02*
X0439727Y0128483D01*
X0437592Y0128483D01*
X0436524Y0129551D01*
X0437592Y0131686D02*
X0439727Y0131686D01*
X0440794Y0130618D01*
X0440794Y0129551D01*
X0437592Y0131686D02*
X0436524Y0132753D01*
X0436524Y0133821D01*
X0437592Y0134889D01*
X0439727Y0134889D01*
X0440794Y0133821D01*
X0434349Y0131686D02*
X0434349Y0130618D01*
X0430079Y0130618D01*
X0430079Y0129551D02*
X0430079Y0131686D01*
X0431146Y0132753D01*
X0433281Y0132753D01*
X0434349Y0131686D01*
X0433281Y0128483D02*
X0431146Y0128483D01*
X0430079Y0129551D01*
X0427917Y0128483D02*
X0425782Y0128483D01*
X0426849Y0128483D02*
X0426849Y0134889D01*
X0425782Y0134889D01*
X0423606Y0131686D02*
X0422539Y0132753D01*
X0419336Y0132753D01*
X0419336Y0134889D02*
X0419336Y0128483D01*
X0422539Y0128483D01*
X0423606Y0129551D01*
X0423606Y0131686D01*
X0417161Y0131686D02*
X0417161Y0128483D01*
X0415026Y0128483D02*
X0415026Y0131686D01*
X0416093Y0132753D01*
X0417161Y0131686D01*
X0415026Y0131686D02*
X0413958Y0132753D01*
X0412891Y0132753D01*
X0412891Y0128483D01*
X0410716Y0130618D02*
X0406445Y0130618D01*
X0406445Y0129551D02*
X0406445Y0131686D01*
X0407513Y0132753D01*
X0409648Y0132753D01*
X0410716Y0131686D01*
X0410716Y0130618D01*
X0409648Y0128483D02*
X0407513Y0128483D01*
X0406445Y0129551D01*
X0404270Y0129551D02*
X0403202Y0130618D01*
X0401067Y0130618D01*
X0400000Y0131686D01*
X0401067Y0132753D01*
X0404270Y0132753D01*
X0404270Y0129551D02*
X0403202Y0128483D01*
X0400000Y0128483D01*
X0397825Y0128483D02*
X0397825Y0131686D01*
X0396757Y0132753D01*
X0393554Y0132753D01*
X0393554Y0128483D01*
X0391379Y0128483D02*
X0387109Y0128483D01*
X0387109Y0134889D01*
X0391379Y0134889D01*
X0389244Y0131686D02*
X0387109Y0131686D01*
X0378488Y0130618D02*
X0378488Y0129551D01*
X0377420Y0128483D01*
X0375285Y0128483D01*
X0374218Y0129551D01*
X0372043Y0129551D02*
X0372043Y0133821D01*
X0370975Y0134889D01*
X0368840Y0134889D01*
X0367772Y0133821D01*
X0367772Y0129551D01*
X0368840Y0128483D01*
X0370975Y0128483D01*
X0372043Y0129551D01*
X0374218Y0132753D02*
X0375285Y0131686D01*
X0377420Y0131686D01*
X0378488Y0130618D01*
X0378488Y0133821D02*
X0377420Y0134889D01*
X0375285Y0134889D01*
X0374218Y0133821D01*
X0374218Y0132753D01*
X0365597Y0132753D02*
X0364529Y0131686D01*
X0361327Y0131686D01*
X0359152Y0133821D02*
X0358084Y0134889D01*
X0355949Y0134889D01*
X0354881Y0133821D01*
X0354881Y0129551D01*
X0355949Y0128483D01*
X0358084Y0128483D01*
X0359152Y0129551D01*
X0359152Y0133821D01*
X0361327Y0134889D02*
X0364529Y0134889D01*
X0365597Y0133821D01*
X0365597Y0132753D01*
X0364529Y0131686D02*
X0365597Y0130618D01*
X0365597Y0129551D01*
X0364529Y0128483D01*
X0361327Y0128483D01*
X0361327Y0134889D01*
X0352706Y0134889D02*
X0352706Y0128483D01*
X0352706Y0131686D02*
X0348436Y0131686D01*
X0346261Y0131686D02*
X0345193Y0130618D01*
X0341990Y0130618D01*
X0341990Y0128483D02*
X0341990Y0134889D01*
X0345193Y0134889D01*
X0346261Y0133821D01*
X0346261Y0131686D01*
X0348436Y0128483D02*
X0348436Y0134889D01*
D12*
X0326965Y0186433D03*
X0316965Y0186433D03*
X0306965Y0186433D03*
X0296965Y0186433D03*
X0286965Y0186433D03*
X0276965Y0186433D03*
X0516965Y0206433D03*
X0526965Y0206433D03*
X0539465Y0265433D03*
X0549465Y0265433D03*
X0626965Y0283933D03*
X0656965Y0283933D03*
X0656965Y0193933D03*
X0656965Y0181433D03*
X0626965Y0181433D03*
X0626965Y0193933D03*
X0426965Y0366728D03*
X0396965Y0366728D03*
X0396965Y0376433D03*
X0386965Y0376433D03*
X0376965Y0376433D03*
X0366965Y0376433D03*
X0356965Y0376433D03*
X0346965Y0376433D03*
X0336965Y0376433D03*
X0326965Y0376433D03*
X0326965Y0363933D03*
X0336965Y0363933D03*
X0346965Y0363933D03*
X0356965Y0363933D03*
X0366965Y0363933D03*
X0376965Y0366433D03*
X0376965Y0356433D03*
X0366965Y0353933D03*
X0356965Y0353933D03*
X0346965Y0353933D03*
X0336965Y0353933D03*
X0326965Y0353933D03*
X0310965Y0353933D03*
X0300965Y0353933D03*
X0290965Y0353933D03*
X0290965Y0363933D03*
X0300965Y0363933D03*
X0310965Y0363933D03*
X0310965Y0376433D03*
X0300965Y0376433D03*
X0290965Y0376433D03*
X0280965Y0376433D03*
X0270965Y0376433D03*
X0260965Y0376433D03*
X0250965Y0376433D03*
X0240965Y0376433D03*
X0223665Y0403908D03*
X0263665Y0403908D03*
X0281965Y0403933D03*
X0321965Y0403933D03*
X0350565Y0418633D03*
X0356670Y0436433D03*
X0390565Y0418633D03*
X0406965Y0413933D03*
X0420090Y0438208D03*
X0446965Y0413933D03*
X0464940Y0418933D03*
X0460090Y0438208D03*
X0466965Y0466728D03*
X0476965Y0466728D03*
X0486965Y0466728D03*
X0496965Y0466728D03*
X0491965Y0476728D03*
X0481965Y0476728D03*
X0471965Y0476728D03*
X0530815Y0444138D03*
X0566965Y0466728D03*
X0576965Y0466728D03*
X0586965Y0466728D03*
X0596965Y0466728D03*
X0591965Y0476728D03*
X0581965Y0476728D03*
X0571965Y0476728D03*
X0570815Y0444138D03*
X0561965Y0413933D03*
X0521965Y0413933D03*
X0504940Y0418933D03*
X0516965Y0376433D03*
X0526965Y0376433D03*
X0396965Y0466728D03*
X0386965Y0466728D03*
X0376965Y0466728D03*
X0366965Y0466728D03*
X0371965Y0476728D03*
X0381965Y0476728D03*
X0391965Y0476728D03*
X0316670Y0436433D03*
X0296965Y0466728D03*
X0286965Y0466728D03*
X0276965Y0466728D03*
X0266965Y0466728D03*
X0271965Y0476728D03*
X0281965Y0476728D03*
X0291965Y0476728D03*
X0236965Y0453933D03*
X0196965Y0453933D03*
X0174465Y0441728D03*
X0174465Y0471728D03*
D13*
X0301965Y0476728D03*
X0401965Y0476728D03*
X0501965Y0476728D03*
X0601965Y0476728D03*
D14*
X0526965Y0256433D03*
X0516965Y0256433D03*
X0516965Y0246433D03*
X0526965Y0246433D03*
D15*
X0616965Y0243933D02*
X0616965Y0249533D01*
X0626965Y0249533D02*
X0626965Y0243933D01*
X0636965Y0243933D02*
X0636965Y0249533D01*
X0646965Y0249533D02*
X0646965Y0243933D01*
X0646965Y0213933D02*
X0646965Y0208333D01*
X0636965Y0208333D02*
X0636965Y0213933D01*
X0626965Y0213933D02*
X0626965Y0208333D01*
X0616965Y0208333D02*
X0616965Y0213933D01*
X0515715Y0436133D02*
X0515715Y0441733D01*
X0508215Y0441733D02*
X0508215Y0436133D01*
X0486965Y0436133D02*
X0486965Y0441733D01*
X0479465Y0441733D02*
X0479465Y0436133D01*
X0525715Y0468338D02*
X0525715Y0473938D01*
X0533215Y0473938D02*
X0533215Y0468338D01*
X0432560Y0472683D02*
X0426960Y0472683D01*
X0426960Y0480183D02*
X0432560Y0480183D01*
X0405715Y0447408D02*
X0405715Y0441808D01*
X0398215Y0441808D02*
X0398215Y0447408D01*
X0380715Y0443083D02*
X0380715Y0437483D01*
X0373215Y0437483D02*
X0373215Y0443083D01*
X0338215Y0468338D02*
X0338215Y0473938D01*
X0330715Y0473938D02*
X0330715Y0468338D01*
X0295715Y0436733D02*
X0295715Y0431133D01*
X0288215Y0431133D02*
X0288215Y0436733D01*
D16*
X0216965Y0308933D03*
X0196965Y0308933D03*
X0241965Y0268933D03*
X0261965Y0268933D03*
X0311965Y0273933D03*
X0331965Y0273933D03*
X0384465Y0273933D03*
X0404465Y0273933D03*
X0446965Y0268933D03*
X0466965Y0268933D03*
X0461965Y0228933D03*
X0481965Y0228933D03*
X0411965Y0223933D03*
X0391965Y0223933D03*
X0341965Y0223933D03*
X0321965Y0223933D03*
X0271965Y0223933D03*
X0251965Y0223933D03*
X0221965Y0193933D03*
X0201965Y0193933D03*
D17*
X0234465Y0193933D03*
X0244465Y0193933D03*
X0284465Y0223933D03*
X0294465Y0223933D03*
X0284465Y0268933D03*
X0274465Y0268933D03*
X0239465Y0308933D03*
X0229465Y0308933D03*
X0344465Y0273933D03*
X0354465Y0273933D03*
X0414465Y0273933D03*
X0424465Y0273933D03*
X0479465Y0268933D03*
X0489465Y0268933D03*
X0494465Y0233933D03*
X0504465Y0233933D03*
X0434465Y0223933D03*
X0424465Y0223933D03*
X0364465Y0223933D03*
X0354465Y0223933D03*
D18*
X0354465Y0209633D02*
X0354465Y0203233D01*
X0344465Y0203233D02*
X0344465Y0209633D01*
X0334465Y0209633D02*
X0334465Y0203233D01*
X0284465Y0203233D02*
X0284465Y0209633D01*
X0274465Y0209633D02*
X0274465Y0203233D01*
X0264465Y0203233D02*
X0264465Y0209633D01*
X0234465Y0179633D02*
X0234465Y0173233D01*
X0224465Y0173233D02*
X0224465Y0179633D01*
X0214465Y0179633D02*
X0214465Y0173233D01*
X0254465Y0248233D02*
X0254465Y0254633D01*
X0264465Y0254633D02*
X0264465Y0248233D01*
X0274465Y0248233D02*
X0274465Y0254633D01*
X0324465Y0253233D02*
X0324465Y0259633D01*
X0334465Y0259633D02*
X0334465Y0253233D01*
X0344465Y0253233D02*
X0344465Y0259633D01*
X0394465Y0259633D02*
X0394465Y0253233D01*
X0404465Y0253233D02*
X0404465Y0259633D01*
X0414465Y0259633D02*
X0414465Y0253233D01*
X0459465Y0249633D02*
X0459465Y0243233D01*
X0469465Y0243233D02*
X0469465Y0249633D01*
X0479465Y0249633D02*
X0479465Y0243233D01*
X0474465Y0209633D02*
X0474465Y0203233D01*
X0484465Y0203233D02*
X0484465Y0209633D01*
X0494465Y0209633D02*
X0494465Y0203233D01*
X0424465Y0203233D02*
X0424465Y0209633D01*
X0414465Y0209633D02*
X0414465Y0203233D01*
X0404465Y0203233D02*
X0404465Y0209633D01*
X0403765Y0303933D02*
X0410165Y0303933D01*
X0410165Y0313933D02*
X0403765Y0313933D01*
X0403765Y0323933D02*
X0410165Y0323933D01*
X0433765Y0323933D02*
X0440165Y0323933D01*
X0440165Y0313933D02*
X0433765Y0313933D01*
X0433765Y0303933D02*
X0440165Y0303933D01*
X0463765Y0303933D02*
X0470165Y0303933D01*
X0470165Y0313933D02*
X0463765Y0313933D01*
X0463765Y0323933D02*
X0470165Y0323933D01*
X0377465Y0323258D02*
X0371065Y0323258D01*
X0371065Y0313258D02*
X0377465Y0313258D01*
X0377465Y0303258D02*
X0371065Y0303258D01*
X0347565Y0303333D02*
X0341165Y0303333D01*
X0341165Y0313333D02*
X0347565Y0313333D01*
X0347565Y0323333D02*
X0341165Y0323333D01*
X0325165Y0323933D02*
X0318765Y0323933D01*
X0318765Y0313933D02*
X0325165Y0313933D01*
X0325165Y0303933D02*
X0318765Y0303933D01*
X0295165Y0303933D02*
X0288765Y0303933D01*
X0288765Y0313933D02*
X0295165Y0313933D01*
X0295165Y0323933D02*
X0288765Y0323933D01*
X0265165Y0323933D02*
X0258765Y0323933D01*
X0258765Y0313933D02*
X0265165Y0313933D01*
X0265165Y0333933D02*
X0258765Y0333933D01*
X0235165Y0338933D02*
X0228765Y0338933D01*
X0228765Y0348933D02*
X0235165Y0348933D01*
X0235165Y0358933D02*
X0228765Y0358933D01*
X0229465Y0294633D02*
X0229465Y0288233D01*
X0219465Y0288233D02*
X0219465Y0294633D01*
X0209465Y0294633D02*
X0209465Y0288233D01*
X0568765Y0368933D02*
X0575165Y0368933D01*
X0575165Y0378933D02*
X0568765Y0378933D01*
X0568765Y0388933D02*
X0575165Y0388933D01*
D19*
X0721486Y0286413D02*
X0728586Y0286413D01*
X0728586Y0266728D02*
X0721486Y0266728D01*
X0721486Y0247043D02*
X0728586Y0247043D01*
X0728507Y0206886D02*
X0721407Y0206886D01*
X0721407Y0187201D02*
X0728507Y0187201D01*
X0728507Y0167516D02*
X0721407Y0167516D01*
X0721407Y0147831D02*
X0728507Y0147831D01*
X0150436Y0457043D02*
X0143336Y0457043D01*
X0143336Y0476728D02*
X0150436Y0476728D01*
X0150436Y0496413D02*
X0143336Y0496413D01*
X0140336Y0292691D02*
X0147436Y0292691D01*
X0147436Y0273006D02*
X0140336Y0273006D01*
X0140336Y0253321D02*
X0147436Y0253321D01*
X0147436Y0233636D02*
X0140336Y0233636D01*
D20*
X0244465Y0428933D03*
X0219760Y0486433D03*
D21*
X0219760Y0472683D03*
X0258215Y0428933D03*
D22*
X0290965Y0376433D02*
X0290965Y0363933D01*
X0300965Y0363933D02*
X0300965Y0376433D01*
X0310965Y0376433D02*
X0310965Y0363933D01*
X0326965Y0363933D02*
X0326965Y0376433D01*
X0336965Y0376433D02*
X0336965Y0363933D01*
X0346965Y0363933D02*
X0346965Y0376433D01*
X0356965Y0376433D02*
X0356965Y0363933D01*
X0366965Y0363933D02*
X0366965Y0376433D01*
X0376965Y0376433D02*
X0376965Y0366433D01*
X0426965Y0366728D02*
X0468665Y0366728D01*
X0497535Y0366728D01*
X0507240Y0376433D01*
X0516965Y0376433D01*
X0526965Y0376433D01*
X0530215Y0376433D01*
X0530540Y0376108D01*
X0537290Y0370033D01*
X0537290Y0335908D01*
X0613865Y0259333D01*
X0616940Y0259333D01*
X0626965Y0258933D02*
X0626965Y0283933D01*
X0661965Y0273933D02*
X0666965Y0278933D01*
X0666965Y0408933D01*
X0641965Y0433933D01*
X0609465Y0433933D01*
X0604465Y0438933D01*
X0661965Y0273933D02*
X0661965Y0243933D01*
X0651965Y0233933D01*
X0521965Y0233933D01*
X0516965Y0238933D01*
X0516965Y0246433D01*
X0516965Y0256433D02*
X0516965Y0261958D01*
X0520415Y0265408D01*
X0539440Y0265408D01*
X0539465Y0265433D01*
D23*
X0497690Y0258633D03*
X0459665Y0287008D03*
X0389465Y0324133D03*
X0411965Y0339433D03*
X0392165Y0358333D03*
X0434015Y0360583D03*
X0454040Y0355858D03*
X0500165Y0360133D03*
X0533465Y0390733D03*
X0554465Y0378933D03*
X0596965Y0388933D03*
X0604465Y0438933D03*
X0544265Y0453733D03*
X0544265Y0479833D03*
X0465965Y0451033D03*
X0446165Y0451933D03*
X0421865Y0460933D03*
X0447065Y0485233D03*
X0434240Y0426058D03*
X0468665Y0401533D03*
X0413765Y0396133D03*
X0360665Y0447433D03*
X0336365Y0451933D03*
X0326465Y0451033D03*
X0316565Y0450133D03*
X0319265Y0426733D03*
X0309365Y0415933D03*
X0234440Y0392983D03*
X0247265Y0365533D03*
X0247265Y0336733D03*
X0278215Y0307683D03*
X0278215Y0286433D03*
X0360440Y0313333D03*
X0365515Y0287283D03*
X0192365Y0394333D03*
X0210365Y0424033D03*
X0165365Y0432133D03*
X0176965Y0496433D03*
X0347165Y0483433D03*
X0613065Y0279133D03*
X0616940Y0259333D03*
X0626965Y0258933D03*
X0691965Y0228933D03*
X0595715Y0186433D03*
X0601965Y0158933D03*
X0669465Y0486433D03*
D24*
X0691965Y0466433D01*
X0691965Y0228933D01*
D25*
X0595715Y0186433D02*
X0595715Y0165183D01*
X0601965Y0158933D01*
D26*
X0601965Y0151355D02*
X0601965Y0123133D01*
X0596965Y0123133D02*
X0596965Y0153216D01*
X0596248Y0153933D02*
X0136165Y0153933D01*
X0136165Y0148933D02*
X0700315Y0148933D01*
X0700315Y0143933D02*
X0136165Y0143933D01*
X0136165Y0138933D02*
X0168626Y0138933D01*
X0168958Y0139508D02*
X0167627Y0137204D01*
X0166938Y0134634D01*
X0166938Y0131973D01*
X0167627Y0129403D01*
X0168958Y0127098D01*
X0170839Y0125217D01*
X0173143Y0123886D01*
X0175714Y0123198D01*
X0178374Y0123198D01*
X0180945Y0123886D01*
X0183249Y0125217D01*
X0185130Y0127098D01*
X0186461Y0129403D01*
X0187149Y0131973D01*
X0187149Y0134634D01*
X0186461Y0137204D01*
X0185130Y0139508D01*
X0183249Y0141390D01*
X0180945Y0142720D01*
X0178374Y0143409D01*
X0175714Y0143409D01*
X0173143Y0142720D01*
X0170839Y0141390D01*
X0168958Y0139508D01*
X0171965Y0142040D02*
X0171965Y0267783D01*
X0170803Y0268933D02*
X0168615Y0268933D01*
X0168615Y0271098D02*
X0238465Y0201963D01*
X0238465Y0197833D01*
X0237910Y0197277D01*
X0236453Y0198733D01*
X0234465Y0198733D01*
X0232477Y0198733D01*
X0232165Y0198421D01*
X0232165Y0201217D01*
X0231374Y0203129D01*
X0229911Y0204591D01*
X0228000Y0205383D01*
X0195931Y0205383D01*
X0194020Y0204591D01*
X0192557Y0203129D01*
X0191765Y0201217D01*
X0191765Y0186649D01*
X0192557Y0184737D01*
X0194020Y0183275D01*
X0195931Y0182483D01*
X0199165Y0182483D01*
X0199165Y0168534D01*
X0199987Y0166549D01*
X0201506Y0165030D01*
X0203491Y0164208D01*
X0244389Y0164208D01*
X0246374Y0165030D01*
X0247893Y0166549D01*
X0248715Y0168534D01*
X0248715Y0185682D01*
X0247953Y0187522D01*
X0251465Y0191034D01*
X0251465Y0196796D01*
X0252656Y0195605D01*
X0254641Y0194783D01*
X0293039Y0194783D01*
X0295024Y0195605D01*
X0296543Y0197124D01*
X0297365Y0199109D01*
X0297365Y0215007D01*
X0296567Y0216933D01*
X0297365Y0216933D01*
X0301465Y0221034D01*
X0301465Y0225606D01*
X0305989Y0234653D01*
X0306124Y0234787D01*
X0306449Y0235573D01*
X0306829Y0236333D01*
X0306842Y0236523D01*
X0306915Y0236699D01*
X0306915Y0237549D01*
X0306975Y0238396D01*
X0306915Y0238577D01*
X0306915Y0262483D01*
X0308000Y0262483D01*
X0310315Y0262483D01*
X0310315Y0247859D01*
X0311137Y0245874D01*
X0312656Y0244355D01*
X0314641Y0243533D01*
X0354289Y0243533D01*
X0356274Y0244355D01*
X0357793Y0245874D01*
X0358615Y0247859D01*
X0358615Y0265007D01*
X0357793Y0266992D01*
X0357608Y0267177D01*
X0359465Y0269033D01*
X0366200Y0269033D01*
X0368111Y0269825D01*
X0369574Y0271288D01*
X0374265Y0275979D01*
X0374265Y0266649D01*
X0375057Y0264738D01*
X0376520Y0263275D01*
X0378431Y0262483D01*
X0379065Y0262483D01*
X0379065Y0247859D01*
X0379887Y0245874D01*
X0381406Y0244355D01*
X0383391Y0243533D01*
X0417967Y0243533D01*
X0411682Y0237533D01*
X0372231Y0237533D01*
X0370320Y0236741D01*
X0364511Y0230933D01*
X0361566Y0230933D01*
X0357910Y0227277D01*
X0356453Y0228733D01*
X0354465Y0228733D01*
X0352477Y0228733D01*
X0352165Y0228421D01*
X0352165Y0231217D01*
X0351374Y0233129D01*
X0349911Y0234591D01*
X0348000Y0235383D01*
X0315931Y0235383D01*
X0314020Y0234591D01*
X0312557Y0233129D01*
X0311765Y0231217D01*
X0311765Y0216649D01*
X0312557Y0214737D01*
X0314020Y0213275D01*
X0315931Y0212483D01*
X0321565Y0212483D01*
X0321565Y0199109D01*
X0322387Y0197124D01*
X0323906Y0195605D01*
X0325891Y0194783D01*
X0363039Y0194783D01*
X0365024Y0195605D01*
X0366543Y0197124D01*
X0367365Y0199109D01*
X0367365Y0216257D01*
X0367085Y0216933D01*
X0367365Y0216933D01*
X0371465Y0221034D01*
X0371465Y0223179D01*
X0375419Y0227133D01*
X0381765Y0227133D01*
X0381765Y0216649D01*
X0382557Y0214737D01*
X0384020Y0213275D01*
X0385931Y0212483D01*
X0389065Y0212483D01*
X0389065Y0199884D01*
X0389887Y0197899D01*
X0391406Y0196380D01*
X0393391Y0195558D01*
X0435539Y0195558D01*
X0437524Y0196380D01*
X0439043Y0197899D01*
X0439865Y0199884D01*
X0439865Y0216257D01*
X0439088Y0218133D01*
X0447362Y0218133D01*
X0450369Y0215926D01*
X0450820Y0215475D01*
X0451195Y0215319D01*
X0451522Y0215079D01*
X0452142Y0214927D01*
X0452731Y0214683D01*
X0453137Y0214683D01*
X0453531Y0214586D01*
X0454162Y0214683D01*
X0461565Y0214683D01*
X0461565Y0200284D01*
X0462387Y0198299D01*
X0463906Y0196780D01*
X0465891Y0195958D01*
X0472691Y0195958D01*
X0472993Y0195833D01*
X0475937Y0195833D01*
X0476239Y0195958D01*
X0492691Y0195958D01*
X0492993Y0195833D01*
X0495937Y0195833D01*
X0496239Y0195958D01*
X0503039Y0195958D01*
X0505024Y0196780D01*
X0506543Y0198299D01*
X0507365Y0200284D01*
X0507365Y0214855D01*
X0508861Y0215475D01*
X0513011Y0219625D01*
X0514474Y0221087D01*
X0515265Y0222999D01*
X0515265Y0233562D01*
X0517726Y0231101D01*
X0519133Y0229694D01*
X0520971Y0228933D01*
X0515265Y0228933D01*
X0516965Y0231862D02*
X0516965Y0206433D01*
X0511265Y0206433D01*
X0511265Y0205984D01*
X0511406Y0205098D01*
X0511683Y0204245D01*
X0512090Y0203446D01*
X0512617Y0202720D01*
X0513252Y0202085D01*
X0513978Y0201558D01*
X0514777Y0201151D01*
X0515630Y0200873D01*
X0516517Y0200733D01*
X0516965Y0200733D01*
X0516965Y0206433D01*
X0516965Y0206433D01*
X0511265Y0206433D01*
X0511265Y0206882D01*
X0511406Y0207768D01*
X0511683Y0208621D01*
X0512090Y0209421D01*
X0512617Y0210146D01*
X0513252Y0210781D01*
X0513978Y0211308D01*
X0514777Y0211715D01*
X0515630Y0211993D01*
X0516517Y0212133D01*
X0516965Y0212133D01*
X0516965Y0206433D01*
X0516965Y0206433D01*
X0516965Y0123133D01*
X0512690Y0123133D02*
X0332690Y0123133D01*
X0332690Y0141683D01*
X0512690Y0141683D01*
X0512690Y0123133D01*
X0511965Y0123133D02*
X0511965Y0203691D01*
X0511842Y0203933D02*
X0507365Y0203933D01*
X0506965Y0199318D02*
X0506965Y0123133D01*
X0504836Y0124929D02*
X0512690Y0124929D01*
X0512690Y0126927D02*
X0506253Y0126927D01*
X0506527Y0127588D02*
X0506527Y0132581D01*
X0505842Y0134235D01*
X0504576Y0135501D01*
X0503508Y0136568D01*
X0501854Y0137253D01*
X0501648Y0137253D01*
X0501571Y0137438D01*
X0500305Y0138703D01*
X0498652Y0139389D01*
X0496861Y0139389D01*
X0495601Y0138867D01*
X0494341Y0139389D01*
X0492551Y0139389D01*
X0490897Y0138703D01*
X0489631Y0137438D01*
X0488190Y0135996D01*
X0487593Y0137438D01*
X0486327Y0138703D01*
X0484673Y0139389D01*
X0482883Y0139389D01*
X0481229Y0138703D01*
X0479963Y0137438D01*
X0479769Y0137243D01*
X0478894Y0137305D01*
X0477332Y0136785D01*
X0475771Y0137305D01*
X0473985Y0137179D01*
X0472384Y0136378D01*
X0471211Y0135026D01*
X0470700Y0133491D01*
X0470391Y0134235D01*
X0469126Y0135501D01*
X0468058Y0136568D01*
X0466404Y0137253D01*
X0461411Y0137253D01*
X0460685Y0136953D01*
X0459959Y0137253D01*
X0456033Y0137253D01*
X0455330Y0136962D01*
X0454897Y0137179D01*
X0453112Y0137305D01*
X0451550Y0136785D01*
X0449989Y0137305D01*
X0448203Y0137179D01*
X0447770Y0136962D01*
X0447068Y0137253D01*
X0443726Y0137253D01*
X0443461Y0137519D01*
X0442276Y0138703D01*
X0442276Y0138703D01*
X0442276Y0138703D01*
X0442276Y0138703D01*
X0442276Y0138703D01*
X0443461Y0137519D01*
X0443726Y0137253D01*
X0447068Y0137253D01*
X0447770Y0136962D01*
X0448203Y0137179D01*
X0449989Y0137305D01*
X0451550Y0136785D01*
X0453112Y0137305D01*
X0454897Y0137179D01*
X0455330Y0136962D01*
X0456033Y0137253D01*
X0459959Y0137253D01*
X0460685Y0136953D01*
X0461411Y0137253D01*
X0466404Y0137253D01*
X0468058Y0136568D01*
X0469126Y0135501D01*
X0470391Y0134235D01*
X0470700Y0133491D01*
X0471211Y0135026D01*
X0472384Y0136378D01*
X0473985Y0137179D01*
X0475771Y0137305D01*
X0477332Y0136785D01*
X0478894Y0137305D01*
X0479769Y0137243D01*
X0479963Y0137438D01*
X0481229Y0138703D01*
X0482883Y0139389D01*
X0484673Y0139389D01*
X0486327Y0138703D01*
X0487593Y0137438D01*
X0488190Y0135996D01*
X0489631Y0137438D01*
X0490897Y0138703D01*
X0492551Y0139389D01*
X0494341Y0139389D01*
X0495601Y0138867D01*
X0496861Y0139389D01*
X0498652Y0139389D01*
X0500305Y0138703D01*
X0501571Y0137438D01*
X0501648Y0137253D01*
X0501854Y0137253D01*
X0503508Y0136568D01*
X0504576Y0135501D01*
X0505842Y0134235D01*
X0506527Y0132581D01*
X0506527Y0127588D01*
X0505842Y0125934D01*
X0504576Y0124668D01*
X0502922Y0123983D01*
X0501132Y0123983D01*
X0499892Y0124497D01*
X0498652Y0123983D01*
X0496861Y0123983D01*
X0496669Y0124063D01*
X0496476Y0123983D01*
X0490416Y0123983D01*
X0490233Y0124059D01*
X0490051Y0123983D01*
X0487193Y0123983D01*
X0487001Y0124063D01*
X0486808Y0123983D01*
X0480748Y0123983D01*
X0479550Y0124479D01*
X0479059Y0124315D01*
X0478544Y0124058D01*
X0478217Y0124035D01*
X0477906Y0123931D01*
X0477332Y0123972D01*
X0476758Y0123931D01*
X0476447Y0124035D01*
X0476120Y0124058D01*
X0475606Y0124315D01*
X0475060Y0124497D01*
X0474812Y0124712D01*
X0474519Y0124858D01*
X0474142Y0125293D01*
X0473708Y0125670D01*
X0473561Y0125963D01*
X0473346Y0126211D01*
X0473164Y0126757D01*
X0471076Y0130932D01*
X0471076Y0127588D01*
X0470391Y0125934D01*
X0469126Y0124668D01*
X0467472Y0123983D01*
X0465681Y0123983D01*
X0464441Y0124497D01*
X0463201Y0123983D01*
X0461411Y0123983D01*
X0460685Y0124284D01*
X0459959Y0123983D01*
X0456033Y0123983D01*
X0454379Y0124668D01*
X0454247Y0124800D01*
X0454070Y0124712D01*
X0453823Y0124497D01*
X0453277Y0124315D01*
X0452762Y0124058D01*
X0452435Y0124035D01*
X0452124Y0123931D01*
X0451550Y0123972D01*
X0450976Y0123931D01*
X0450665Y0124035D01*
X0450338Y0124058D01*
X0449824Y0124315D01*
X0449278Y0124497D01*
X0449030Y0124712D01*
X0448854Y0124800D01*
X0448721Y0124668D01*
X0447068Y0123983D01*
X0443142Y0123983D01*
X0441882Y0124505D01*
X0440622Y0123983D01*
X0436697Y0123983D01*
X0435437Y0124505D01*
X0434177Y0123983D01*
X0430251Y0123983D01*
X0429532Y0124281D01*
X0428812Y0123983D01*
X0424887Y0123983D01*
X0424160Y0124284D01*
X0423434Y0123983D01*
X0418441Y0123983D01*
X0418249Y0124063D01*
X0418056Y0123983D01*
X0416266Y0123983D01*
X0416093Y0124055D01*
X0415921Y0123983D01*
X0414131Y0123983D01*
X0413958Y0124055D01*
X0413786Y0123983D01*
X0411996Y0123983D01*
X0411269Y0124284D01*
X0410543Y0123983D01*
X0406618Y0123983D01*
X0405358Y0124505D01*
X0404098Y0123983D01*
X0399105Y0123983D01*
X0398912Y0124063D01*
X0398720Y0123983D01*
X0396929Y0123983D01*
X0395689Y0124497D01*
X0394449Y0123983D01*
X0392659Y0123983D01*
X0392467Y0124063D01*
X0392274Y0123983D01*
X0386214Y0123983D01*
X0384560Y0124668D01*
X0383294Y0125934D01*
X0382609Y0127588D01*
X0382609Y0127740D01*
X0382303Y0127002D01*
X0382303Y0127002D01*
X0382609Y0127740D01*
X0382609Y0127588D01*
X0383294Y0125934D01*
X0384560Y0124668D01*
X0386214Y0123983D01*
X0392274Y0123983D01*
X0392467Y0124063D01*
X0392659Y0123983D01*
X0394449Y0123983D01*
X0395689Y0124497D01*
X0396929Y0123983D01*
X0398720Y0123983D01*
X0398912Y0124063D01*
X0399105Y0123983D01*
X0404098Y0123983D01*
X0405358Y0124505D01*
X0406618Y0123983D01*
X0410543Y0123983D01*
X0411269Y0124284D01*
X0411996Y0123983D01*
X0413786Y0123983D01*
X0413958Y0124055D01*
X0414131Y0123983D01*
X0415921Y0123983D01*
X0416093Y0124055D01*
X0416266Y0123983D01*
X0418056Y0123983D01*
X0418249Y0124063D01*
X0418441Y0123983D01*
X0423434Y0123983D01*
X0424160Y0124284D01*
X0424887Y0123983D01*
X0428812Y0123983D01*
X0429532Y0124281D01*
X0430251Y0123983D01*
X0434177Y0123983D01*
X0435437Y0124505D01*
X0436697Y0123983D01*
X0440622Y0123983D01*
X0441882Y0124505D01*
X0443142Y0123983D01*
X0447068Y0123983D01*
X0448721Y0124668D01*
X0448854Y0124800D01*
X0449030Y0124712D01*
X0449278Y0124497D01*
X0449824Y0124315D01*
X0450338Y0124058D01*
X0450665Y0124035D01*
X0450976Y0123931D01*
X0451550Y0123972D01*
X0452124Y0123931D01*
X0452435Y0124035D01*
X0452762Y0124058D01*
X0453277Y0124315D01*
X0453823Y0124497D01*
X0454070Y0124712D01*
X0454247Y0124800D01*
X0454379Y0124668D01*
X0456033Y0123983D01*
X0459959Y0123983D01*
X0460685Y0124284D01*
X0461411Y0123983D01*
X0463201Y0123983D01*
X0464441Y0124497D01*
X0465681Y0123983D01*
X0467472Y0123983D01*
X0469126Y0124668D01*
X0470391Y0125934D01*
X0471076Y0127588D01*
X0471076Y0130932D01*
X0473164Y0126757D01*
X0473346Y0126211D01*
X0473561Y0125963D01*
X0473708Y0125670D01*
X0474142Y0125293D01*
X0474519Y0124858D01*
X0474812Y0124712D01*
X0475060Y0124497D01*
X0475606Y0124315D01*
X0476120Y0124058D01*
X0476447Y0124035D01*
X0476758Y0123931D01*
X0477332Y0123972D01*
X0477906Y0123931D01*
X0478217Y0124035D01*
X0478544Y0124058D01*
X0479059Y0124315D01*
X0479550Y0124479D01*
X0480748Y0123983D01*
X0486808Y0123983D01*
X0487001Y0124063D01*
X0487193Y0123983D01*
X0490051Y0123983D01*
X0490233Y0124059D01*
X0490416Y0123983D01*
X0496476Y0123983D01*
X0496669Y0124063D01*
X0496861Y0123983D01*
X0498652Y0123983D01*
X0499892Y0124497D01*
X0501132Y0123983D01*
X0502922Y0123983D01*
X0504576Y0124668D01*
X0505842Y0125934D01*
X0506527Y0127588D01*
X0506527Y0128926D02*
X0512690Y0128926D01*
X0512690Y0130924D02*
X0506527Y0130924D01*
X0506527Y0128933D02*
X0644670Y0128933D01*
X0644399Y0129403D02*
X0645729Y0127098D01*
X0647611Y0125217D01*
X0649915Y0123886D01*
X0652485Y0123198D01*
X0655146Y0123198D01*
X0657716Y0123886D01*
X0660021Y0125217D01*
X0661902Y0127098D01*
X0663232Y0129403D01*
X0663921Y0131973D01*
X0663921Y0134634D01*
X0663232Y0137204D01*
X0661902Y0139508D01*
X0660021Y0141390D01*
X0657716Y0142720D01*
X0655146Y0143409D01*
X0652485Y0143409D01*
X0649915Y0142720D01*
X0647611Y0141390D01*
X0645729Y0139508D01*
X0644399Y0137204D01*
X0643710Y0134634D01*
X0643710Y0131973D01*
X0644399Y0129403D01*
X0646965Y0125862D02*
X0646965Y0123133D01*
X0649834Y0123933D02*
X0477913Y0123933D01*
X0477876Y0123933D02*
X0476788Y0123933D01*
X0476752Y0123933D02*
X0452131Y0123933D01*
X0452094Y0123933D02*
X0451006Y0123933D01*
X0450970Y0123933D02*
X0181026Y0123933D01*
X0181965Y0124476D02*
X0181965Y0123133D01*
X0176965Y0123133D02*
X0176965Y0123198D01*
X0173062Y0123933D02*
X0136165Y0123933D01*
X0136165Y0123133D02*
X0136165Y0219783D01*
X0164289Y0219783D01*
X0166274Y0220605D01*
X0167793Y0222124D01*
X0168615Y0224109D01*
X0168615Y0271098D01*
X0168615Y0263933D02*
X0175855Y0263933D01*
X0176965Y0262834D02*
X0176965Y0143409D01*
X0181965Y0142131D02*
X0181965Y0257885D01*
X0180906Y0258933D02*
X0168615Y0258933D01*
X0168615Y0253933D02*
X0185958Y0253933D01*
X0186965Y0252936D02*
X0186965Y0135321D01*
X0187149Y0133933D02*
X0337490Y0133933D01*
X0337490Y0134921D02*
X0332690Y0134921D01*
X0332690Y0132923D02*
X0337490Y0132923D01*
X0337490Y0130924D02*
X0332690Y0130924D01*
X0332690Y0128926D02*
X0337490Y0128926D01*
X0337490Y0128933D02*
X0186190Y0128933D01*
X0186965Y0131285D02*
X0186965Y0123133D01*
X0191965Y0123133D02*
X0191965Y0186166D01*
X0193361Y0183933D02*
X0136165Y0183933D01*
X0136165Y0178933D02*
X0199165Y0178933D01*
X0196965Y0182483D02*
X0196965Y0123133D01*
X0201965Y0123133D02*
X0201965Y0164840D01*
X0199165Y0168933D02*
X0136165Y0168933D01*
X0136165Y0163933D02*
X0590388Y0163933D01*
X0590315Y0164109D02*
X0591137Y0162124D01*
X0592656Y0160605D01*
X0594387Y0158874D01*
X0594387Y0155794D01*
X0598826Y0151355D01*
X0605104Y0151355D01*
X0609543Y0155794D01*
X0609543Y0162072D01*
X0605104Y0166511D01*
X0602024Y0166511D01*
X0601115Y0167420D01*
X0601115Y0181116D01*
X0603293Y0183294D01*
X0603293Y0189572D01*
X0598854Y0194011D01*
X0592576Y0194011D01*
X0588137Y0189572D01*
X0588137Y0183294D01*
X0590315Y0181116D01*
X0590315Y0164109D01*
X0591965Y0161296D02*
X0591965Y0123133D01*
X0586965Y0123133D02*
X0586965Y0228933D01*
X0581965Y0228933D02*
X0581965Y0123133D01*
X0576965Y0123133D02*
X0576965Y0228933D01*
X0571965Y0228933D02*
X0571965Y0123133D01*
X0566965Y0123133D02*
X0566965Y0228933D01*
X0561965Y0228933D02*
X0561965Y0123133D01*
X0556965Y0123133D02*
X0556965Y0228933D01*
X0551965Y0228933D02*
X0551965Y0123133D01*
X0546965Y0123133D02*
X0546965Y0228933D01*
X0541965Y0228933D02*
X0541965Y0123133D01*
X0536965Y0123133D02*
X0536965Y0228933D01*
X0531965Y0228933D02*
X0531965Y0209175D01*
X0532089Y0208933D02*
X0609965Y0208933D01*
X0609965Y0206941D02*
X0611031Y0204368D01*
X0613000Y0202399D01*
X0615573Y0201333D01*
X0618358Y0201333D01*
X0620930Y0202399D01*
X0621965Y0203434D01*
X0623000Y0202399D01*
X0624880Y0201620D01*
X0622490Y0200630D01*
X0620268Y0198408D01*
X0619065Y0195504D01*
X0619065Y0192362D01*
X0620268Y0189458D01*
X0622043Y0187683D01*
X0620268Y0185908D01*
X0619065Y0183004D01*
X0619065Y0179862D01*
X0620268Y0176958D01*
X0622490Y0174736D01*
X0625394Y0173533D01*
X0628537Y0173533D01*
X0631440Y0174736D01*
X0633663Y0176958D01*
X0634865Y0179862D01*
X0634865Y0183004D01*
X0633663Y0185908D01*
X0631887Y0187683D01*
X0633663Y0189458D01*
X0634865Y0192362D01*
X0634865Y0195504D01*
X0633663Y0198408D01*
X0631440Y0200630D01*
X0629051Y0201620D01*
X0630930Y0202399D01*
X0631965Y0203434D01*
X0633000Y0202399D01*
X0635573Y0201333D01*
X0638358Y0201333D01*
X0640930Y0202399D01*
X0641965Y0203434D01*
X0643000Y0202399D01*
X0645573Y0201333D01*
X0648358Y0201333D01*
X0650930Y0202399D01*
X0652900Y0204368D01*
X0653965Y0206941D01*
X0653965Y0215325D01*
X0652900Y0217898D01*
X0650930Y0219867D01*
X0648358Y0220933D01*
X0645573Y0220933D01*
X0643000Y0219867D01*
X0641965Y0218833D01*
X0641965Y0228933D01*
X0636965Y0228933D02*
X0636965Y0220933D01*
X0635573Y0220933D02*
X0633000Y0219867D01*
X0631965Y0218833D01*
X0631965Y0228933D01*
X0626965Y0228933D02*
X0626965Y0220933D01*
X0625573Y0220933D02*
X0623000Y0219867D01*
X0621965Y0218833D01*
X0621965Y0228933D01*
X0616965Y0228933D02*
X0616965Y0220933D01*
X0615573Y0220933D02*
X0613000Y0219867D01*
X0611031Y0217898D01*
X0609965Y0215325D01*
X0609965Y0206941D01*
X0611466Y0203933D02*
X0532089Y0203933D01*
X0531965Y0203691D02*
X0531965Y0123133D01*
X0526965Y0123133D02*
X0526965Y0206433D01*
X0521265Y0206433D01*
X0516965Y0206433D01*
X0516965Y0206433D01*
X0516965Y0200733D01*
X0517414Y0200733D01*
X0518300Y0200873D01*
X0519153Y0201151D01*
X0519953Y0201558D01*
X0520679Y0202085D01*
X0521313Y0202720D01*
X0521840Y0203446D01*
X0521965Y0203691D01*
X0522090Y0203446D01*
X0522617Y0202720D01*
X0523252Y0202085D01*
X0523978Y0201558D01*
X0524777Y0201151D01*
X0525630Y0200873D01*
X0526517Y0200733D01*
X0526965Y0200733D01*
X0526965Y0206433D01*
X0526965Y0206433D01*
X0516965Y0206433D01*
X0516965Y0212133D01*
X0517414Y0212133D01*
X0518300Y0211993D01*
X0519153Y0211715D01*
X0519953Y0211308D01*
X0520679Y0210781D01*
X0521313Y0210146D01*
X0521840Y0209421D01*
X0521965Y0209175D01*
X0522090Y0209421D01*
X0522617Y0210146D01*
X0523252Y0210781D01*
X0523978Y0211308D01*
X0524777Y0211715D01*
X0525630Y0211993D01*
X0526517Y0212133D01*
X0526965Y0212133D01*
X0526965Y0206433D01*
X0526965Y0206433D01*
X0526965Y0206433D01*
X0526965Y0200733D01*
X0527414Y0200733D01*
X0528300Y0200873D01*
X0529153Y0201151D01*
X0529953Y0201558D01*
X0530679Y0202085D01*
X0531313Y0202720D01*
X0531840Y0203446D01*
X0532248Y0204245D01*
X0532525Y0205098D01*
X0532665Y0205984D01*
X0532665Y0206433D01*
X0526965Y0206433D01*
X0526965Y0228933D01*
X0521965Y0228933D02*
X0521965Y0209175D01*
X0521965Y0206433D02*
X0521965Y0206433D01*
X0521965Y0203691D02*
X0521965Y0123133D01*
X0512690Y0132923D02*
X0506385Y0132923D01*
X0505967Y0133933D02*
X0643710Y0133933D01*
X0645397Y0138933D02*
X0499751Y0138933D01*
X0499787Y0138918D02*
X0512690Y0138918D01*
X0512690Y0136920D02*
X0502660Y0136920D01*
X0501965Y0137207D02*
X0501965Y0195958D01*
X0496965Y0195958D02*
X0496965Y0139389D01*
X0495762Y0138933D02*
X0495441Y0138933D01*
X0495477Y0138918D02*
X0495726Y0138918D01*
X0491965Y0139146D02*
X0491965Y0195958D01*
X0486965Y0195958D02*
X0486965Y0138065D01*
X0487807Y0136920D02*
X0489113Y0136920D01*
X0491415Y0138918D02*
X0485808Y0138918D01*
X0485772Y0138933D02*
X0491451Y0138933D01*
X0481965Y0139009D02*
X0481965Y0195958D01*
X0476965Y0195958D02*
X0476965Y0136907D01*
X0476928Y0136920D02*
X0477736Y0136920D01*
X0473467Y0136920D02*
X0467210Y0136920D01*
X0466965Y0137021D02*
X0466965Y0195958D01*
X0471965Y0195958D02*
X0471965Y0135895D01*
X0471176Y0134921D02*
X0469705Y0134921D01*
X0470516Y0133933D02*
X0470847Y0133933D01*
X0471076Y0130924D02*
X0471081Y0130924D01*
X0471965Y0129155D02*
X0471965Y0123133D01*
X0474458Y0124929D02*
X0469386Y0124929D01*
X0470803Y0126927D02*
X0473079Y0126927D01*
X0472080Y0128926D02*
X0471076Y0128926D01*
X0471076Y0128933D02*
X0472076Y0128933D01*
X0476965Y0123946D02*
X0476965Y0123133D01*
X0481965Y0123133D02*
X0481965Y0123983D01*
X0486965Y0124048D02*
X0486965Y0123133D01*
X0491965Y0123133D02*
X0491965Y0123983D01*
X0496965Y0123983D02*
X0496965Y0123133D01*
X0501965Y0123133D02*
X0501965Y0123983D01*
X0505155Y0134921D02*
X0512690Y0134921D01*
X0512690Y0140917D02*
X0332690Y0140917D01*
X0332690Y0138918D02*
X0339960Y0138918D01*
X0339996Y0138933D02*
X0185462Y0138933D01*
X0166965Y0134733D02*
X0166965Y0221296D01*
X0168542Y0223933D02*
X0216268Y0223933D01*
X0216965Y0223243D02*
X0216965Y0205383D01*
X0211965Y0205383D02*
X0211965Y0228192D01*
X0211217Y0228933D02*
X0168615Y0228933D01*
X0168615Y0233933D02*
X0206165Y0233933D01*
X0206965Y0233141D02*
X0206965Y0205383D01*
X0201965Y0205383D02*
X0201965Y0238090D01*
X0201113Y0238933D02*
X0168615Y0238933D01*
X0168615Y0243933D02*
X0196061Y0243933D01*
X0196965Y0243039D02*
X0196965Y0205383D01*
X0193361Y0203933D02*
X0136165Y0203933D01*
X0136165Y0198933D02*
X0191765Y0198933D01*
X0191965Y0201700D02*
X0191965Y0247987D01*
X0191010Y0248933D02*
X0168615Y0248933D01*
X0191965Y0262620D02*
X0191965Y0275329D01*
X0192120Y0275175D02*
X0179928Y0287367D01*
X0179206Y0288077D01*
X0179197Y0288097D01*
X0179182Y0288113D01*
X0178794Y0289049D01*
X0178399Y0289982D01*
X0178399Y0290004D01*
X0178390Y0290024D01*
X0178390Y0291037D01*
X0177724Y0373354D01*
X0177715Y0373374D01*
X0177715Y0374387D01*
X0177707Y0375400D01*
X0177715Y0375421D01*
X0177715Y0375442D01*
X0178103Y0376378D01*
X0178483Y0377318D01*
X0178498Y0377333D01*
X0178507Y0377354D01*
X0179224Y0378070D01*
X0179934Y0378792D01*
X0179954Y0378801D01*
X0188567Y0387414D01*
X0184787Y0391194D01*
X0184787Y0397472D01*
X0189226Y0401911D01*
X0195504Y0401911D01*
X0195847Y0401568D01*
X0210733Y0416455D01*
X0207226Y0416455D01*
X0202787Y0420894D01*
X0202787Y0427172D01*
X0207226Y0431611D01*
X0207489Y0431611D01*
X0229065Y0453187D01*
X0229065Y0455504D01*
X0230268Y0458408D01*
X0232490Y0460630D01*
X0235394Y0461833D01*
X0238537Y0461833D01*
X0241440Y0460630D01*
X0243662Y0458408D01*
X0244865Y0455504D01*
X0244865Y0452362D01*
X0243738Y0449641D01*
X0244128Y0449824D01*
X0244470Y0449840D01*
X0245397Y0450132D01*
X0245686Y0450316D01*
X0246337Y0450429D01*
X0246968Y0450628D01*
X0247309Y0450599D01*
X0248266Y0450766D01*
X0248577Y0450909D01*
X0249238Y0450935D01*
X0249889Y0451049D01*
X0250223Y0450974D01*
X0251194Y0451012D01*
X0251521Y0451113D01*
X0252179Y0451051D01*
X0252840Y0451078D01*
X0253161Y0450959D01*
X0254129Y0450868D01*
X0254466Y0450925D01*
X0255111Y0450776D01*
X0255769Y0450714D01*
X0256071Y0450554D01*
X0257019Y0450336D01*
X0257360Y0450347D01*
X0257979Y0450114D01*
X0258624Y0449965D01*
X0258902Y0449767D01*
X0259812Y0449424D01*
X0260152Y0449390D01*
X0260735Y0449077D01*
X0261353Y0448844D01*
X0261603Y0448610D01*
X0262460Y0448150D01*
X0262792Y0448071D01*
X0263328Y0447683D01*
X0263910Y0447371D01*
X0264127Y0447106D01*
X0264915Y0446536D01*
X0265234Y0446413D01*
X0265713Y0445958D01*
X0266249Y0445570D01*
X0266428Y0445279D01*
X0267134Y0444610D01*
X0267434Y0444446D01*
X0267848Y0443931D01*
X0268328Y0443476D01*
X0268467Y0443163D01*
X0269077Y0442406D01*
X0269353Y0442204D01*
X0269696Y0441638D01*
X0270110Y0441124D01*
X0270207Y0440795D01*
X0270711Y0439964D01*
X0270957Y0439727D01*
X0271222Y0439121D01*
X0271565Y0438556D01*
X0271617Y0438217D01*
X0272006Y0437327D01*
X0272219Y0437059D01*
X0272401Y0436423D01*
X0272666Y0435817D01*
X0272672Y0435475D01*
X0272940Y0434541D01*
X0273115Y0434247D01*
X0273211Y0433593D01*
X0273393Y0432957D01*
X0273354Y0432617D01*
X0273495Y0431655D01*
X0273630Y0431341D01*
X0273638Y0430680D01*
X0273734Y0430026D01*
X0273650Y0429694D01*
X0273662Y0428722D01*
X0273754Y0428392D01*
X0273675Y0427736D01*
X0273683Y0427075D01*
X0273556Y0426757D01*
X0273439Y0425792D01*
X0273486Y0425453D01*
X0273320Y0424813D01*
X0273241Y0424157D01*
X0273073Y0423859D01*
X0272828Y0422918D01*
X0272830Y0422576D01*
X0272581Y0421964D01*
X0272415Y0421324D01*
X0272271Y0421133D01*
X0279964Y0421133D01*
X0279791Y0421324D01*
X0279297Y0421733D01*
X0279128Y0422053D01*
X0278796Y0422418D01*
X0278494Y0422617D01*
X0278134Y0423147D01*
X0277702Y0423622D01*
X0277580Y0423963D01*
X0277303Y0424370D01*
X0277031Y0424610D01*
X0276749Y0425186D01*
X0276389Y0425716D01*
X0276316Y0426071D01*
X0276099Y0426514D01*
X0275864Y0426789D01*
X0275666Y0427399D01*
X0275384Y0427975D01*
X0275361Y0428336D01*
X0275208Y0428805D01*
X0275014Y0429111D01*
X0274904Y0429742D01*
X0274706Y0430352D01*
X0274734Y0430713D01*
X0274635Y0431279D01*
X0274465Y0431688D01*
X0274465Y0432249D01*
X0274369Y0432801D01*
X0274451Y0433170D01*
X0274406Y0433304D01*
X0274465Y0434115D01*
X0274465Y0434928D01*
X0274537Y0435101D01*
X0274564Y0435475D01*
X0274499Y0435842D01*
X0274636Y0436458D01*
X0274682Y0437087D01*
X0274849Y0437420D01*
X0274970Y0437967D01*
X0274959Y0438340D01*
X0275183Y0438930D01*
X0275319Y0439545D01*
X0275533Y0439851D01*
X0275732Y0440375D01*
X0275775Y0440745D01*
X0276083Y0441296D01*
X0276307Y0441886D01*
X0276562Y0442157D01*
X0276835Y0442646D01*
X0276932Y0443007D01*
X0277315Y0443507D01*
X0277622Y0444058D01*
X0277915Y0444290D01*
X0278255Y0444734D01*
X0278403Y0445077D01*
X0278855Y0445517D01*
X0279238Y0446017D01*
X0279561Y0446204D01*
X0279963Y0446595D01*
X0280158Y0446912D01*
X0280669Y0447282D01*
X0281121Y0447722D01*
X0281468Y0447860D01*
X0281922Y0448189D01*
X0282161Y0448474D01*
X0282720Y0448766D01*
X0283231Y0449136D01*
X0283594Y0449222D01*
X0284091Y0449482D01*
X0284369Y0449730D01*
X0284964Y0449938D01*
X0285523Y0450230D01*
X0285895Y0450263D01*
X0286424Y0450447D01*
X0286735Y0450653D01*
X0287355Y0450772D01*
X0287950Y0450980D01*
X0288322Y0450959D01*
X0288873Y0451065D01*
X0289210Y0451223D01*
X0289840Y0451252D01*
X0290460Y0451371D01*
X0290825Y0451296D01*
X0291385Y0451322D01*
X0291742Y0451429D01*
X0292369Y0451366D01*
X0292999Y0451395D01*
X0293350Y0451268D01*
X0293907Y0451212D01*
X0294276Y0451267D01*
X0294888Y0451113D01*
X0295516Y0451050D01*
X0295844Y0450874D01*
X0296388Y0450738D01*
X0296761Y0450739D01*
X0297344Y0450499D01*
X0297956Y0450345D01*
X0298255Y0450123D01*
X0298773Y0449910D01*
X0299143Y0449857D01*
X0299685Y0449535D01*
X0300268Y0449295D01*
X0300532Y0449031D01*
X0301014Y0448745D01*
X0301372Y0448639D01*
X0301861Y0448242D01*
X0302404Y0447920D01*
X0302627Y0447621D01*
X0303062Y0447268D01*
X0303401Y0447112D01*
X0303828Y0446648D01*
X0304318Y0446251D01*
X0304496Y0445923D01*
X0304875Y0445511D01*
X0305187Y0445307D01*
X0305543Y0444786D01*
X0305970Y0444322D01*
X0306099Y0443972D01*
X0306415Y0443509D01*
X0306694Y0443262D01*
X0306742Y0443164D01*
X0307320Y0443741D01*
X0309780Y0446202D01*
X0308987Y0446994D01*
X0308987Y0453272D01*
X0309648Y0453933D01*
X0250971Y0453933D01*
X0244865Y0453933D01*
X0247726Y0456101D02*
X0249133Y0454694D01*
X0250971Y0453933D01*
X0251965Y0453933D02*
X0251965Y0451072D01*
X0246965Y0450628D02*
X0246965Y0457938D01*
X0247726Y0456101D01*
X0246965Y0457938D02*
X0246965Y0508733D01*
X0169142Y0508730D01*
X0169665Y0507467D01*
X0169665Y0478101D01*
X0169990Y0478426D01*
X0172894Y0479628D01*
X0176037Y0479628D01*
X0178940Y0478426D01*
X0181162Y0476203D01*
X0182365Y0473300D01*
X0182365Y0470157D01*
X0181162Y0467253D01*
X0178940Y0465031D01*
X0176037Y0463828D01*
X0172894Y0463828D01*
X0169990Y0465031D01*
X0169665Y0465356D01*
X0169665Y0448101D01*
X0169990Y0448426D01*
X0172894Y0449628D01*
X0176037Y0449628D01*
X0178940Y0448426D01*
X0181162Y0446203D01*
X0182365Y0443300D01*
X0182365Y0440157D01*
X0181162Y0437253D01*
X0178940Y0435031D01*
X0176037Y0433828D01*
X0172943Y0433828D01*
X0172943Y0428994D01*
X0168504Y0424555D01*
X0162226Y0424555D01*
X0157787Y0428994D01*
X0157787Y0435272D01*
X0162226Y0439711D01*
X0166750Y0439711D01*
X0166565Y0440157D01*
X0166565Y0441674D01*
X0165500Y0441233D01*
X0136165Y0441233D01*
X0136165Y0304333D01*
X0162765Y0304333D01*
X0162765Y0388733D01*
X0162755Y0389741D01*
X0162765Y0389766D01*
X0162765Y0389792D01*
X0163151Y0390725D01*
X0163528Y0391660D01*
X0163547Y0391679D01*
X0163557Y0391704D01*
X0164271Y0392418D01*
X0179761Y0408215D01*
X0178374Y0407843D01*
X0175714Y0407843D01*
X0173143Y0408532D01*
X0170839Y0409862D01*
X0168958Y0411744D01*
X0167627Y0414048D01*
X0166938Y0416618D01*
X0166938Y0419279D01*
X0167627Y0421849D01*
X0168958Y0424154D01*
X0170839Y0426035D01*
X0173143Y0427366D01*
X0175714Y0428054D01*
X0178374Y0428054D01*
X0180945Y0427366D01*
X0183249Y0426035D01*
X0185130Y0424154D01*
X0186461Y0421849D01*
X0187149Y0419279D01*
X0187149Y0416618D01*
X0186829Y0415423D01*
X0191765Y0420457D01*
X0191765Y0447961D01*
X0190268Y0449458D01*
X0189065Y0452362D01*
X0189065Y0455504D01*
X0190268Y0458408D01*
X0192490Y0460630D01*
X0195394Y0461833D01*
X0198537Y0461833D01*
X0201440Y0460630D01*
X0203662Y0458408D01*
X0204865Y0455504D01*
X0204865Y0452362D01*
X0203662Y0449458D01*
X0202165Y0447961D01*
X0202165Y0418358D01*
X0202175Y0417350D01*
X0202165Y0417325D01*
X0202165Y0417299D01*
X0201779Y0416366D01*
X0201402Y0415431D01*
X0201384Y0415412D01*
X0201374Y0415387D01*
X0200659Y0414673D01*
X0173165Y0386634D01*
X0173165Y0281228D01*
X0246598Y0208547D01*
X0246611Y0208541D01*
X0247334Y0207819D01*
X0248058Y0207101D01*
X0248064Y0207088D01*
X0248074Y0207079D01*
X0248464Y0206135D01*
X0248860Y0205194D01*
X0248860Y0205180D01*
X0248865Y0205167D01*
X0248865Y0204147D01*
X0248870Y0203125D01*
X0248865Y0203113D01*
X0248865Y0199433D01*
X0251112Y0197186D01*
X0250315Y0199109D01*
X0250315Y0212483D01*
X0245931Y0212483D01*
X0244020Y0213275D01*
X0242557Y0214737D01*
X0241765Y0216649D01*
X0241765Y0231217D01*
X0242557Y0233129D01*
X0244020Y0234591D01*
X0245931Y0235383D01*
X0278000Y0235383D01*
X0279911Y0234591D01*
X0281374Y0233129D01*
X0282165Y0231217D01*
X0282165Y0228421D01*
X0282477Y0228733D01*
X0284465Y0228733D01*
X0284465Y0223933D01*
X0284465Y0223933D01*
X0284465Y0228733D01*
X0286453Y0228733D01*
X0287910Y0227277D01*
X0291566Y0230933D01*
X0292501Y0230933D01*
X0296515Y0238961D01*
X0296515Y0280617D01*
X0297307Y0282529D01*
X0302815Y0288037D01*
X0302815Y0288733D01*
X0283431Y0288733D01*
X0281520Y0289525D01*
X0280057Y0290988D01*
X0279265Y0292899D01*
X0279265Y0330399D01*
X0279265Y0334967D01*
X0280057Y0336879D01*
X0281520Y0338341D01*
X0283431Y0339133D01*
X0303000Y0339133D01*
X0304911Y0338341D01*
X0305158Y0338094D01*
X0311371Y0346033D01*
X0309394Y0346033D01*
X0306490Y0347236D01*
X0305965Y0347761D01*
X0305440Y0347236D01*
X0302537Y0346033D01*
X0299394Y0346033D01*
X0296490Y0347236D01*
X0295965Y0347761D01*
X0295440Y0347236D01*
X0292537Y0346033D01*
X0289394Y0346033D01*
X0286490Y0347236D01*
X0284268Y0349458D01*
X0283065Y0352362D01*
X0283065Y0355504D01*
X0284268Y0358408D01*
X0284793Y0358933D01*
X0252465Y0358933D01*
X0252465Y0360016D02*
X0254843Y0362394D01*
X0254843Y0368672D01*
X0254266Y0369249D01*
X0255440Y0369736D01*
X0255965Y0370261D01*
X0256490Y0369736D01*
X0259394Y0368533D01*
X0262537Y0368533D01*
X0265440Y0369736D01*
X0265965Y0370261D01*
X0266490Y0369736D01*
X0269394Y0368533D01*
X0272537Y0368533D01*
X0275440Y0369736D01*
X0275965Y0370261D01*
X0276490Y0369736D01*
X0279394Y0368533D01*
X0282537Y0368533D01*
X0285440Y0369736D01*
X0285965Y0370261D01*
X0285965Y0370261D01*
X0285965Y0370105D01*
X0284268Y0368408D01*
X0283065Y0365504D01*
X0283065Y0362362D01*
X0284268Y0359458D01*
X0284793Y0358933D01*
X0283065Y0353933D02*
X0252465Y0353933D01*
X0253431Y0349133D02*
X0252465Y0348733D01*
X0252465Y0360016D01*
X0254843Y0363933D02*
X0283065Y0363933D01*
X0281965Y0368533D02*
X0281965Y0338526D01*
X0282948Y0338933D02*
X0277165Y0338933D01*
X0277165Y0333933D02*
X0279265Y0333933D01*
X0279265Y0328933D02*
X0277165Y0328933D01*
X0277165Y0323933D02*
X0279265Y0323933D01*
X0279265Y0318933D02*
X0277165Y0318933D01*
X0277165Y0313933D02*
X0279265Y0313933D01*
X0279265Y0308933D02*
X0277165Y0308933D01*
X0278215Y0307683D02*
X0278215Y0286433D01*
X0276965Y0284783D02*
X0276965Y0302416D01*
X0277165Y0302899D02*
X0277165Y0344967D01*
X0276374Y0346879D01*
X0274911Y0348341D01*
X0273000Y0349133D01*
X0253431Y0349133D01*
X0252948Y0348933D02*
X0252465Y0348933D01*
X0256965Y0349133D02*
X0256965Y0369539D01*
X0258428Y0368933D02*
X0254582Y0368933D01*
X0261965Y0368533D02*
X0261965Y0349133D01*
X0266965Y0349133D02*
X0266965Y0369539D01*
X0268428Y0368933D02*
X0263502Y0368933D01*
X0271965Y0368533D02*
X0271965Y0349133D01*
X0273482Y0348933D02*
X0284793Y0348933D01*
X0286965Y0347039D02*
X0286965Y0339133D01*
X0291965Y0339133D02*
X0291965Y0346033D01*
X0296965Y0347039D02*
X0296965Y0339133D01*
X0301965Y0339133D02*
X0301965Y0346033D01*
X0306965Y0347039D02*
X0306965Y0340404D01*
X0305814Y0338933D02*
X0303482Y0338933D01*
X0308015Y0333308D02*
X0320165Y0348833D01*
X0320165Y0401533D01*
X0321965Y0403333D01*
X0321965Y0403933D01*
X0319265Y0410533D02*
X0340190Y0410533D01*
X0370565Y0386233D01*
X0379790Y0386233D01*
X0386765Y0377233D01*
X0386965Y0376433D01*
X0396665Y0377233D02*
X0396965Y0376433D01*
X0396665Y0377233D02*
X0381765Y0392133D01*
X0372365Y0392133D01*
X0339515Y0417958D01*
X0339515Y0422683D01*
X0347165Y0426283D01*
X0423215Y0426283D01*
X0441390Y0444733D01*
X0462690Y0444733D01*
X0466965Y0440458D01*
X0466965Y0430183D01*
X0479065Y0418083D01*
X0479065Y0408333D01*
X0502915Y0408333D01*
X0614315Y0306933D01*
X0613065Y0279133D01*
X0618508Y0284407D02*
X0619475Y0305912D01*
X0619558Y0306144D01*
X0619521Y0306938D01*
X0619556Y0307733D01*
X0619472Y0307964D01*
X0619461Y0308210D01*
X0619122Y0308930D01*
X0618851Y0309678D01*
X0618685Y0309859D01*
X0618580Y0310082D01*
X0617992Y0310618D01*
X0617456Y0311205D01*
X0617233Y0311309D01*
X0567878Y0356233D01*
X0580500Y0356233D01*
X0582411Y0357025D01*
X0583874Y0358487D01*
X0584665Y0360399D01*
X0584665Y0399967D01*
X0583874Y0401879D01*
X0582411Y0403341D01*
X0580500Y0404133D01*
X0560931Y0404133D01*
X0559020Y0403341D01*
X0557557Y0401879D01*
X0557165Y0400933D01*
X0557165Y0407561D01*
X0557490Y0407236D01*
X0560394Y0406033D01*
X0563537Y0406033D01*
X0566440Y0407236D01*
X0568663Y0409458D01*
X0569865Y0412362D01*
X0569865Y0415504D01*
X0568663Y0418408D01*
X0566440Y0420630D01*
X0563537Y0421833D01*
X0560394Y0421833D01*
X0557490Y0420630D01*
X0557165Y0420305D01*
X0557165Y0429967D01*
X0556374Y0431879D01*
X0554911Y0433341D01*
X0542097Y0446155D01*
X0547404Y0446155D01*
X0551843Y0450594D01*
X0551843Y0456872D01*
X0551407Y0457308D01*
X0616667Y0457308D01*
X0616687Y0457300D01*
X0617661Y0457308D01*
X0618635Y0457308D01*
X0618655Y0457316D01*
X0618676Y0457316D01*
X0619573Y0457697D01*
X0620472Y0458069D01*
X0620488Y0458084D01*
X0620507Y0458093D01*
X0621190Y0458787D01*
X0621879Y0459476D01*
X0621887Y0459496D01*
X0621902Y0459511D01*
X0622268Y0460414D01*
X0622640Y0461313D01*
X0622640Y0461335D01*
X0622648Y0461355D01*
X0622640Y0462329D01*
X0622640Y0463303D01*
X0622632Y0463322D01*
X0622256Y0508745D01*
X0738001Y0508749D01*
X0738001Y0301833D01*
X0704641Y0301833D01*
X0702656Y0301011D01*
X0701137Y0299492D01*
X0700315Y0297507D01*
X0700315Y0236609D01*
X0701137Y0234624D01*
X0702656Y0233105D01*
X0704641Y0232283D01*
X0738001Y0232283D01*
X0738001Y0223083D01*
X0704641Y0223083D01*
X0702656Y0222261D01*
X0701137Y0220742D01*
X0700315Y0218757D01*
X0700315Y0136609D01*
X0701137Y0134624D01*
X0702656Y0133105D01*
X0704641Y0132283D01*
X0738001Y0132283D01*
X0738001Y0123133D01*
X0136165Y0123133D01*
X0136965Y0123133D02*
X0136965Y0219783D01*
X0136165Y0218933D02*
X0221320Y0218933D01*
X0221965Y0218295D02*
X0221965Y0205383D01*
X0226965Y0205383D02*
X0226965Y0213346D01*
X0226372Y0213933D02*
X0136165Y0213933D01*
X0136165Y0208933D02*
X0231424Y0208933D01*
X0231965Y0208397D02*
X0231965Y0201700D01*
X0230569Y0203933D02*
X0236475Y0203933D01*
X0236965Y0203448D02*
X0236965Y0198221D01*
X0238465Y0198933D02*
X0232165Y0198933D01*
X0234465Y0198733D02*
X0234465Y0193933D01*
X0234465Y0193933D01*
X0234465Y0198733D01*
X0243665Y0194533D02*
X0243665Y0204133D01*
X0167965Y0279058D01*
X0167965Y0388758D01*
X0196965Y0418333D01*
X0196965Y0453933D01*
X0189065Y0453933D02*
X0169665Y0453933D01*
X0169665Y0448933D02*
X0171215Y0448933D01*
X0171965Y0449244D02*
X0171965Y0464213D01*
X0172641Y0463933D02*
X0169665Y0463933D01*
X0169665Y0458933D02*
X0190793Y0458933D01*
X0191965Y0460105D02*
X0191965Y0508731D01*
X0186965Y0508731D02*
X0186965Y0419967D01*
X0187149Y0418933D02*
X0190271Y0418933D01*
X0186965Y0415931D02*
X0186965Y0415562D01*
X0185258Y0423933D02*
X0191765Y0423933D01*
X0191765Y0428933D02*
X0172882Y0428933D01*
X0171965Y0428016D02*
X0171965Y0426685D01*
X0168830Y0423933D02*
X0136165Y0423933D01*
X0136165Y0418933D02*
X0166938Y0418933D01*
X0166965Y0419379D02*
X0166965Y0424555D01*
X0161965Y0424816D02*
X0161965Y0304333D01*
X0162765Y0308933D02*
X0136165Y0308933D01*
X0136965Y0304333D02*
X0136965Y0441233D01*
X0136165Y0438933D02*
X0161448Y0438933D01*
X0161965Y0439450D02*
X0161965Y0441233D01*
X0156965Y0441233D02*
X0156965Y0304333D01*
X0151965Y0304333D02*
X0151965Y0441233D01*
X0146965Y0441233D02*
X0146965Y0304333D01*
X0141965Y0304333D02*
X0141965Y0441233D01*
X0136165Y0433933D02*
X0157787Y0433933D01*
X0157848Y0428933D02*
X0136165Y0428933D01*
X0136165Y0413933D02*
X0167694Y0413933D01*
X0166965Y0416518D02*
X0166965Y0395165D01*
X0165757Y0393933D02*
X0136165Y0393933D01*
X0136165Y0388933D02*
X0162763Y0388933D01*
X0162765Y0383933D02*
X0136165Y0383933D01*
X0136165Y0378933D02*
X0162765Y0378933D01*
X0162765Y0373933D02*
X0136165Y0373933D01*
X0136165Y0368933D02*
X0162765Y0368933D01*
X0162765Y0363933D02*
X0136165Y0363933D01*
X0136165Y0358933D02*
X0162765Y0358933D01*
X0162765Y0353933D02*
X0136165Y0353933D01*
X0136165Y0348933D02*
X0162765Y0348933D01*
X0162765Y0343933D02*
X0136165Y0343933D01*
X0136165Y0338933D02*
X0162765Y0338933D01*
X0162765Y0333933D02*
X0136165Y0333933D01*
X0136165Y0328933D02*
X0162765Y0328933D01*
X0162765Y0323933D02*
X0136165Y0323933D01*
X0136165Y0318933D02*
X0162765Y0318933D01*
X0162765Y0313933D02*
X0136165Y0313933D01*
X0173165Y0313933D02*
X0178205Y0313933D01*
X0178245Y0308933D02*
X0173165Y0308933D01*
X0173165Y0303933D02*
X0178286Y0303933D01*
X0178326Y0298933D02*
X0173165Y0298933D01*
X0173165Y0293933D02*
X0178367Y0293933D01*
X0178842Y0288933D02*
X0173165Y0288933D01*
X0173165Y0283933D02*
X0183361Y0283933D01*
X0181965Y0285329D02*
X0181965Y0272518D01*
X0180535Y0273933D02*
X0231765Y0273933D01*
X0231765Y0274383D02*
X0231765Y0261649D01*
X0232557Y0259737D01*
X0234020Y0258275D01*
X0235931Y0257483D01*
X0240315Y0257483D01*
X0240315Y0242859D01*
X0241137Y0240874D01*
X0242656Y0239355D01*
X0244641Y0238533D01*
X0283039Y0238533D01*
X0285024Y0239355D01*
X0286543Y0240874D01*
X0287365Y0242859D01*
X0287365Y0260007D01*
X0286567Y0261933D01*
X0287365Y0261933D01*
X0291465Y0266034D01*
X0291465Y0271833D01*
X0289665Y0273633D01*
X0289665Y0276267D01*
X0288874Y0278179D01*
X0284524Y0282529D01*
X0283061Y0283991D01*
X0281150Y0284783D01*
X0244865Y0284783D01*
X0244865Y0300007D01*
X0244043Y0301992D01*
X0243233Y0302802D01*
X0246465Y0306034D01*
X0246465Y0311833D01*
X0244223Y0314075D01*
X0244215Y0314295D01*
X0244215Y0315242D01*
X0244181Y0315326D01*
X0244178Y0315416D01*
X0243786Y0316278D01*
X0243424Y0317154D01*
X0243360Y0317217D01*
X0243322Y0317300D01*
X0242631Y0317947D01*
X0239174Y0321404D01*
X0237711Y0322866D01*
X0235800Y0323658D01*
X0230294Y0323658D01*
X0230219Y0323733D01*
X0243000Y0323733D01*
X0244911Y0324525D01*
X0246374Y0325988D01*
X0247165Y0327899D01*
X0247165Y0329155D01*
X0249265Y0329155D01*
X0249265Y0302899D01*
X0250057Y0300988D01*
X0251520Y0299525D01*
X0253431Y0298733D01*
X0273000Y0298733D01*
X0274911Y0299525D01*
X0276374Y0300988D01*
X0277165Y0302899D01*
X0277165Y0303933D02*
X0279265Y0303933D01*
X0279265Y0298933D02*
X0273482Y0298933D01*
X0271965Y0298733D02*
X0271965Y0284783D01*
X0266965Y0284783D02*
X0266965Y0298733D01*
X0261965Y0298733D02*
X0261965Y0284783D01*
X0256965Y0284783D02*
X0256965Y0298733D01*
X0252948Y0298933D02*
X0244865Y0298933D01*
X0244865Y0293933D02*
X0279265Y0293933D01*
X0281965Y0289340D02*
X0281965Y0284445D01*
X0283119Y0283933D02*
X0298711Y0283933D01*
X0296965Y0281704D02*
X0296965Y0288733D01*
X0291965Y0288733D02*
X0291965Y0230933D01*
X0289566Y0228933D02*
X0282165Y0228933D01*
X0281965Y0231700D02*
X0281965Y0238533D01*
X0284005Y0238933D02*
X0296501Y0238933D01*
X0296515Y0243933D02*
X0287365Y0243933D01*
X0286965Y0241893D02*
X0286965Y0228221D01*
X0280569Y0233933D02*
X0294001Y0233933D01*
X0301715Y0237733D02*
X0301715Y0279583D01*
X0308015Y0285883D01*
X0308015Y0333308D01*
X0309727Y0343933D02*
X0277165Y0343933D01*
X0276965Y0345450D02*
X0276965Y0369539D01*
X0278428Y0368933D02*
X0273502Y0368933D01*
X0283502Y0368933D02*
X0284793Y0368933D01*
X0302165Y0392083D02*
X0319265Y0410533D01*
X0319715Y0416383D02*
X0310265Y0425833D01*
X0310265Y0439333D01*
X0316565Y0445633D01*
X0316565Y0450133D01*
X0308987Y0448933D02*
X0300698Y0448933D01*
X0301965Y0448180D02*
X0301965Y0453933D01*
X0296965Y0453933D02*
X0296965Y0450654D01*
X0291965Y0451407D02*
X0291965Y0453933D01*
X0286965Y0453933D02*
X0286965Y0450697D01*
X0282951Y0448933D02*
X0261118Y0448933D01*
X0261965Y0448416D02*
X0261965Y0453933D01*
X0256965Y0453933D02*
X0256965Y0450348D01*
X0266965Y0453933D02*
X0266965Y0444769D01*
X0267847Y0443933D02*
X0277552Y0443933D01*
X0276965Y0443051D02*
X0276965Y0453933D01*
X0271965Y0453933D02*
X0271965Y0437420D01*
X0271336Y0438933D02*
X0275184Y0438933D01*
X0274452Y0433933D02*
X0273161Y0433933D01*
X0273660Y0428933D02*
X0275127Y0428933D01*
X0276965Y0424745D02*
X0276965Y0421133D01*
X0277590Y0423933D02*
X0273114Y0423933D01*
X0271165Y0415933D02*
X0309365Y0415933D01*
X0319715Y0416383D02*
X0300365Y0397033D01*
X0245365Y0397033D01*
X0230515Y0411308D01*
X0219815Y0411308D01*
X0182915Y0374408D01*
X0183590Y0291058D01*
X0195065Y0279583D01*
X0280115Y0279583D01*
X0284465Y0275233D01*
X0284465Y0268933D01*
X0291465Y0268933D02*
X0296515Y0268933D01*
X0296515Y0263933D02*
X0289365Y0263933D01*
X0286965Y0261933D02*
X0286965Y0260973D01*
X0287365Y0258933D02*
X0296515Y0258933D01*
X0296515Y0253933D02*
X0287365Y0253933D01*
X0287365Y0248933D02*
X0296515Y0248933D01*
X0306915Y0248933D02*
X0310315Y0248933D01*
X0311965Y0245046D02*
X0311965Y0231700D01*
X0313361Y0233933D02*
X0305629Y0233933D01*
X0306965Y0238252D02*
X0306965Y0186433D01*
X0306965Y0186433D01*
X0306965Y0180733D01*
X0306517Y0180733D01*
X0305630Y0180873D01*
X0304777Y0181151D01*
X0303978Y0181558D01*
X0303563Y0181859D01*
X0301440Y0179736D01*
X0298537Y0178533D01*
X0295394Y0178533D01*
X0292490Y0179736D01*
X0291965Y0180261D01*
X0291440Y0179736D01*
X0288537Y0178533D01*
X0285394Y0178533D01*
X0282490Y0179736D01*
X0281965Y0180261D01*
X0281440Y0179736D01*
X0278537Y0178533D01*
X0275394Y0178533D01*
X0272490Y0179736D01*
X0270268Y0181958D01*
X0269065Y0184862D01*
X0269065Y0188004D01*
X0270268Y0190908D01*
X0272490Y0193130D01*
X0275394Y0194333D01*
X0278537Y0194333D01*
X0281440Y0193130D01*
X0281965Y0192605D01*
X0282490Y0193130D01*
X0285394Y0194333D01*
X0288537Y0194333D01*
X0291440Y0193130D01*
X0291965Y0192605D01*
X0292490Y0193130D01*
X0295394Y0194333D01*
X0298537Y0194333D01*
X0301440Y0193130D01*
X0303563Y0191007D01*
X0303978Y0191308D01*
X0304777Y0191715D01*
X0305630Y0191993D01*
X0306517Y0192133D01*
X0306965Y0192133D01*
X0306965Y0186433D01*
X0306965Y0123133D01*
X0301965Y0123133D02*
X0301965Y0180261D01*
X0299502Y0178933D02*
X0324428Y0178933D01*
X0325394Y0178533D02*
X0328537Y0178533D01*
X0331440Y0179736D01*
X0333663Y0181958D01*
X0334865Y0184862D01*
X0334865Y0188004D01*
X0333663Y0190908D01*
X0331440Y0193130D01*
X0328537Y0194333D01*
X0325394Y0194333D01*
X0322490Y0193130D01*
X0320367Y0191007D01*
X0319953Y0191308D01*
X0319153Y0191715D01*
X0318300Y0191993D01*
X0317414Y0192133D01*
X0316965Y0192133D01*
X0316517Y0192133D01*
X0315630Y0191993D01*
X0314777Y0191715D01*
X0313978Y0191308D01*
X0313252Y0190781D01*
X0312617Y0190146D01*
X0312090Y0189421D01*
X0311965Y0189175D01*
X0311840Y0189421D01*
X0311313Y0190146D01*
X0310679Y0190781D01*
X0309953Y0191308D01*
X0309153Y0191715D01*
X0308300Y0191993D01*
X0307414Y0192133D01*
X0306965Y0192133D01*
X0306965Y0186433D01*
X0306965Y0186433D01*
X0306965Y0180733D01*
X0307414Y0180733D01*
X0308300Y0180873D01*
X0309153Y0181151D01*
X0309953Y0181558D01*
X0310679Y0182085D01*
X0311313Y0182720D01*
X0311840Y0183446D01*
X0311965Y0183691D01*
X0312090Y0183446D01*
X0312617Y0182720D01*
X0313252Y0182085D01*
X0313978Y0181558D01*
X0314777Y0181151D01*
X0315630Y0180873D01*
X0316517Y0180733D01*
X0316965Y0180733D01*
X0316965Y0186433D01*
X0311265Y0186433D01*
X0306965Y0186433D01*
X0306965Y0186433D01*
X0316965Y0186433D01*
X0316965Y0186433D01*
X0316965Y0186433D01*
X0316965Y0123133D01*
X0311965Y0123133D02*
X0311965Y0183691D01*
X0311965Y0186433D02*
X0311965Y0186433D01*
X0311965Y0189175D02*
X0311965Y0216166D01*
X0313361Y0213933D02*
X0297365Y0213933D01*
X0296965Y0215973D02*
X0296965Y0216933D01*
X0299365Y0218933D02*
X0311765Y0218933D01*
X0311765Y0223933D02*
X0301465Y0223933D01*
X0301965Y0226606D02*
X0301965Y0192605D01*
X0299502Y0193933D02*
X0324428Y0193933D01*
X0326965Y0194333D02*
X0326965Y0194783D01*
X0329502Y0193933D02*
X0592498Y0193933D01*
X0591965Y0193400D02*
X0591965Y0228933D01*
X0596965Y0228933D02*
X0596965Y0194011D01*
X0598932Y0193933D02*
X0619065Y0193933D01*
X0620793Y0188933D02*
X0603293Y0188933D01*
X0601965Y0190900D02*
X0601965Y0228933D01*
X0606965Y0228933D02*
X0606965Y0164650D01*
X0607682Y0163933D02*
X0700315Y0163933D01*
X0700315Y0158933D02*
X0609543Y0158933D01*
X0607682Y0153933D02*
X0700315Y0153933D01*
X0700315Y0138933D02*
X0662234Y0138933D01*
X0661965Y0139399D02*
X0661965Y0175261D01*
X0661440Y0174736D02*
X0663663Y0176958D01*
X0664865Y0179862D01*
X0664865Y0183004D01*
X0663663Y0185908D01*
X0661887Y0187683D01*
X0663663Y0189458D01*
X0664865Y0192362D01*
X0664865Y0195504D01*
X0663663Y0198408D01*
X0661440Y0200630D01*
X0658537Y0201833D01*
X0655394Y0201833D01*
X0652490Y0200630D01*
X0650268Y0198408D01*
X0649065Y0195504D01*
X0649065Y0192362D01*
X0650268Y0189458D01*
X0652043Y0187683D01*
X0650268Y0185908D01*
X0649065Y0183004D01*
X0649065Y0179862D01*
X0650268Y0176958D01*
X0652490Y0174736D01*
X0655394Y0173533D01*
X0658537Y0173533D01*
X0661440Y0174736D01*
X0659502Y0173933D02*
X0700315Y0173933D01*
X0700315Y0168933D02*
X0601115Y0168933D01*
X0601965Y0166570D02*
X0601965Y0181966D01*
X0603293Y0183933D02*
X0619450Y0183933D01*
X0621965Y0187605D02*
X0621965Y0187761D01*
X0631965Y0187761D02*
X0631965Y0187605D01*
X0633138Y0188933D02*
X0650793Y0188933D01*
X0651965Y0187761D02*
X0651965Y0187605D01*
X0649450Y0183933D02*
X0634481Y0183933D01*
X0634481Y0178933D02*
X0649450Y0178933D01*
X0651965Y0175261D02*
X0651965Y0143269D01*
X0656965Y0142921D02*
X0656965Y0173533D01*
X0654428Y0173933D02*
X0629502Y0173933D01*
X0626965Y0173533D02*
X0626965Y0123133D01*
X0621965Y0123133D02*
X0621965Y0175261D01*
X0624428Y0173933D02*
X0601115Y0173933D01*
X0601115Y0178933D02*
X0619450Y0178933D01*
X0631965Y0175261D02*
X0631965Y0123133D01*
X0636965Y0123133D02*
X0636965Y0201333D01*
X0633137Y0198933D02*
X0650793Y0198933D01*
X0651965Y0200105D02*
X0651965Y0203434D01*
X0652465Y0203933D02*
X0700315Y0203933D01*
X0700315Y0198933D02*
X0663137Y0198933D01*
X0661965Y0200105D02*
X0661965Y0236862D01*
X0664036Y0238933D02*
X0685765Y0238933D01*
X0685765Y0233933D02*
X0659036Y0233933D01*
X0656965Y0231862D02*
X0656965Y0201833D01*
X0653965Y0208933D02*
X0700315Y0208933D01*
X0700315Y0213933D02*
X0653965Y0213933D01*
X0651965Y0218833D02*
X0651965Y0228933D01*
X0652960Y0228933D02*
X0684387Y0228933D01*
X0684387Y0225794D02*
X0688826Y0221355D01*
X0695104Y0221355D01*
X0699543Y0225794D01*
X0699543Y0232072D01*
X0698165Y0233450D01*
X0698165Y0465388D01*
X0698227Y0465566D01*
X0698165Y0466615D01*
X0698165Y0467666D01*
X0698093Y0467840D01*
X0698082Y0468028D01*
X0697623Y0468974D01*
X0697221Y0469945D01*
X0697088Y0470078D01*
X0697006Y0470248D01*
X0696220Y0470946D01*
X0695477Y0471689D01*
X0695303Y0471761D01*
X0677043Y0487992D01*
X0677043Y0489572D01*
X0672604Y0494011D01*
X0666326Y0494011D01*
X0661887Y0489572D01*
X0661887Y0483294D01*
X0666326Y0478855D01*
X0668658Y0478855D01*
X0685765Y0463649D01*
X0685765Y0233450D01*
X0684387Y0232072D01*
X0684387Y0225794D01*
X0686248Y0223933D02*
X0515265Y0223933D01*
X0510065Y0224033D02*
X0510065Y0350233D01*
X0500165Y0360133D01*
X0468665Y0366728D02*
X0468665Y0401533D01*
X0463490Y0406483D02*
X0463490Y0417483D01*
X0464940Y0418933D01*
X0464165Y0418633D01*
X0457865Y0410308D02*
X0457865Y0435733D01*
X0459665Y0437533D01*
X0460090Y0438208D01*
X0460565Y0451033D02*
X0465965Y0451033D01*
X0460565Y0451033D02*
X0447065Y0464533D01*
X0447065Y0485233D01*
X0437165Y0460933D02*
X0421865Y0460933D01*
X0437165Y0460933D02*
X0446165Y0451933D01*
X0434240Y0426058D02*
X0434240Y0399958D01*
X0409940Y0384433D01*
X0408365Y0382858D01*
X0408365Y0345733D01*
X0411965Y0342133D01*
X0411965Y0339433D01*
X0423665Y0342933D02*
X0413765Y0352033D01*
X0413765Y0381058D01*
X0457865Y0410308D01*
X0463490Y0406483D02*
X0419390Y0376833D01*
X0419390Y0355858D01*
X0449765Y0334933D01*
X0449765Y0284033D01*
X0455715Y0278083D01*
X0494865Y0278083D01*
X0505790Y0264158D01*
X0505790Y0239358D01*
X0504465Y0233933D01*
X0499566Y0228933D02*
X0492165Y0228933D01*
X0492477Y0229133D02*
X0494465Y0229133D01*
X0494465Y0233933D01*
X0494465Y0233933D01*
X0494465Y0238733D01*
X0493460Y0238733D01*
X0493615Y0239109D01*
X0493615Y0251991D01*
X0494551Y0251055D01*
X0500590Y0251055D01*
X0500590Y0239984D01*
X0500582Y0239949D01*
X0497910Y0237277D01*
X0496453Y0238733D01*
X0494465Y0238733D01*
X0494465Y0233933D01*
X0494465Y0233933D01*
X0494465Y0229133D01*
X0496453Y0229133D01*
X0497910Y0230589D01*
X0501566Y0226933D01*
X0504865Y0226933D01*
X0504865Y0226187D01*
X0503761Y0225083D01*
X0492165Y0225083D01*
X0492165Y0229445D01*
X0492477Y0229133D01*
X0496965Y0229645D02*
X0496965Y0225083D01*
X0501965Y0225083D02*
X0501965Y0226933D01*
X0505915Y0219883D02*
X0510065Y0224033D01*
X0512319Y0218933D02*
X0612066Y0218933D01*
X0611965Y0218833D02*
X0611965Y0228933D01*
X0615573Y0220933D02*
X0618358Y0220933D01*
X0620930Y0219867D01*
X0621965Y0218833D01*
X0621865Y0218933D02*
X0622066Y0218933D01*
X0625573Y0220933D02*
X0628358Y0220933D01*
X0630930Y0219867D01*
X0631965Y0218833D01*
X0631865Y0218933D02*
X0632066Y0218933D01*
X0635573Y0220933D02*
X0638358Y0220933D01*
X0640930Y0219867D01*
X0641965Y0218833D01*
X0641865Y0218933D02*
X0642066Y0218933D01*
X0646965Y0220933D02*
X0646965Y0228933D01*
X0652960Y0228933D02*
X0654797Y0229694D01*
X0664797Y0239694D01*
X0666204Y0241101D01*
X0666965Y0242938D01*
X0666965Y0271862D01*
X0671204Y0276101D01*
X0671965Y0277938D01*
X0671965Y0409928D01*
X0671204Y0411765D01*
X0663921Y0419048D01*
X0663921Y0419279D01*
X0663232Y0421849D01*
X0661902Y0424154D01*
X0660021Y0426035D01*
X0657716Y0427366D01*
X0655146Y0428054D01*
X0654915Y0428054D01*
X0646204Y0436765D01*
X0646204Y0436765D01*
X0644797Y0438172D01*
X0642960Y0438933D01*
X0612043Y0438933D01*
X0612043Y0442072D01*
X0607604Y0446511D01*
X0601326Y0446511D01*
X0596887Y0442072D01*
X0596887Y0435794D01*
X0601326Y0431355D01*
X0604972Y0431355D01*
X0606633Y0429694D01*
X0608471Y0428933D01*
X0557165Y0428933D01*
X0556965Y0430450D02*
X0556965Y0457308D01*
X0551965Y0457308D02*
X0551965Y0436287D01*
X0554319Y0433933D02*
X0598748Y0433933D01*
X0596965Y0435716D02*
X0596965Y0329757D01*
X0597871Y0328933D02*
X0661965Y0328933D01*
X0661965Y0323933D02*
X0603364Y0323933D01*
X0601965Y0325206D02*
X0601965Y0431355D01*
X0606965Y0429557D02*
X0606965Y0320655D01*
X0608857Y0318933D02*
X0661965Y0318933D01*
X0661965Y0313933D02*
X0614350Y0313933D01*
X0611965Y0316104D02*
X0611965Y0428933D01*
X0608471Y0428933D02*
X0639894Y0428933D01*
X0645343Y0423484D01*
X0644399Y0421849D01*
X0643710Y0419279D01*
X0643710Y0416618D01*
X0644399Y0414048D01*
X0645729Y0411744D01*
X0647611Y0409862D01*
X0649915Y0408532D01*
X0652485Y0407843D01*
X0655146Y0407843D01*
X0657716Y0408532D01*
X0659351Y0409476D01*
X0661965Y0406862D01*
X0661965Y0286675D01*
X0661840Y0286921D01*
X0661313Y0287646D01*
X0660679Y0288281D01*
X0659953Y0288808D01*
X0659153Y0289215D01*
X0658300Y0289493D01*
X0657414Y0289633D01*
X0656965Y0289633D01*
X0656517Y0289633D01*
X0655630Y0289493D01*
X0654777Y0289215D01*
X0653978Y0288808D01*
X0653252Y0288281D01*
X0652617Y0287646D01*
X0652090Y0286921D01*
X0651683Y0286121D01*
X0651406Y0285268D01*
X0651265Y0284382D01*
X0651265Y0283933D01*
X0651265Y0283484D01*
X0651406Y0282598D01*
X0651683Y0281745D01*
X0652090Y0280946D01*
X0652617Y0280220D01*
X0653252Y0279585D01*
X0653978Y0279058D01*
X0654777Y0278651D01*
X0655630Y0278373D01*
X0656517Y0278233D01*
X0656965Y0278233D01*
X0656965Y0283933D01*
X0651265Y0283933D01*
X0656965Y0283933D01*
X0656965Y0283933D01*
X0634865Y0283933D01*
X0634865Y0282362D02*
X0634865Y0285504D01*
X0633663Y0288408D01*
X0631440Y0290630D01*
X0628537Y0291833D01*
X0625394Y0291833D01*
X0622490Y0290630D01*
X0620268Y0288408D01*
X0619065Y0285504D01*
X0619065Y0283850D01*
X0618508Y0284407D01*
X0618982Y0283933D02*
X0619065Y0283933D01*
X0618711Y0288933D02*
X0620793Y0288933D01*
X0621965Y0290105D02*
X0621965Y0428933D01*
X0616965Y0428933D02*
X0616965Y0311553D01*
X0619121Y0308933D02*
X0661965Y0308933D01*
X0661965Y0303933D02*
X0619386Y0303933D01*
X0619161Y0298933D02*
X0661965Y0298933D01*
X0661965Y0293933D02*
X0618936Y0293933D01*
X0626965Y0291833D02*
X0626965Y0428933D01*
X0631965Y0428933D02*
X0631965Y0290105D01*
X0633137Y0288933D02*
X0654223Y0288933D01*
X0656965Y0288933D02*
X0656965Y0288933D01*
X0656965Y0289633D02*
X0656965Y0283933D01*
X0656965Y0283933D01*
X0656965Y0274928D01*
X0656965Y0246004D01*
X0656115Y0245154D01*
X0656115Y0255007D01*
X0655293Y0256992D01*
X0653774Y0258511D01*
X0651789Y0259333D01*
X0634543Y0259333D01*
X0634543Y0262072D01*
X0631965Y0264650D01*
X0631965Y0277761D01*
X0631965Y0264650D01*
X0632682Y0263933D02*
X0656965Y0263933D01*
X0656965Y0258933D02*
X0652755Y0258933D01*
X0651965Y0259260D02*
X0651965Y0281191D01*
X0651965Y0283933D02*
X0651965Y0283933D01*
X0651965Y0286675D02*
X0651965Y0407983D01*
X0649220Y0408933D02*
X0568138Y0408933D01*
X0566965Y0407761D02*
X0566965Y0404133D01*
X0561965Y0404133D02*
X0561965Y0406033D01*
X0560448Y0403933D02*
X0557165Y0403933D01*
X0571965Y0404133D02*
X0571965Y0436238D01*
X0572387Y0436238D02*
X0575290Y0437441D01*
X0577513Y0439663D01*
X0578715Y0442566D01*
X0578715Y0445709D01*
X0577513Y0448613D01*
X0575290Y0450835D01*
X0572387Y0452038D01*
X0569244Y0452038D01*
X0566340Y0450835D01*
X0564118Y0448613D01*
X0562915Y0445709D01*
X0562915Y0442566D01*
X0564118Y0439663D01*
X0566340Y0437441D01*
X0569244Y0436238D01*
X0572387Y0436238D01*
X0576783Y0438933D02*
X0596887Y0438933D01*
X0596965Y0442150D02*
X0596965Y0457308D01*
X0591965Y0457308D02*
X0591965Y0334308D01*
X0592378Y0333933D02*
X0661965Y0333933D01*
X0661965Y0338933D02*
X0586884Y0338933D01*
X0586965Y0338860D02*
X0586965Y0457308D01*
X0581965Y0457308D02*
X0581965Y0403526D01*
X0580982Y0403933D02*
X0661965Y0403933D01*
X0661965Y0398933D02*
X0584665Y0398933D01*
X0584665Y0393933D02*
X0661965Y0393933D01*
X0661965Y0388933D02*
X0584665Y0388933D01*
X0584665Y0383933D02*
X0661965Y0383933D01*
X0661965Y0378933D02*
X0584665Y0378933D01*
X0584665Y0373933D02*
X0661965Y0373933D01*
X0661965Y0368933D02*
X0584665Y0368933D01*
X0584665Y0363933D02*
X0661965Y0363933D01*
X0661965Y0358933D02*
X0584058Y0358933D01*
X0581965Y0356840D02*
X0581965Y0343411D01*
X0581391Y0343933D02*
X0661965Y0343933D01*
X0661965Y0348933D02*
X0575898Y0348933D01*
X0576965Y0347962D02*
X0576965Y0356233D01*
X0571965Y0356233D02*
X0571965Y0352513D01*
X0570405Y0353933D02*
X0661965Y0353933D01*
X0671965Y0353933D02*
X0685765Y0353933D01*
X0685765Y0348933D02*
X0671965Y0348933D01*
X0671965Y0343933D02*
X0685765Y0343933D01*
X0685765Y0338933D02*
X0671965Y0338933D01*
X0671965Y0333933D02*
X0685765Y0333933D01*
X0685765Y0328933D02*
X0671965Y0328933D01*
X0671965Y0323933D02*
X0685765Y0323933D01*
X0685765Y0318933D02*
X0671965Y0318933D01*
X0671965Y0313933D02*
X0685765Y0313933D01*
X0685765Y0308933D02*
X0671965Y0308933D01*
X0671965Y0303933D02*
X0685765Y0303933D01*
X0685765Y0298933D02*
X0671965Y0298933D01*
X0671965Y0293933D02*
X0685765Y0293933D01*
X0685765Y0288933D02*
X0671965Y0288933D01*
X0671965Y0283933D02*
X0685765Y0283933D01*
X0685765Y0278933D02*
X0671965Y0278933D01*
X0669036Y0273933D02*
X0685765Y0273933D01*
X0685765Y0268933D02*
X0666965Y0268933D01*
X0666965Y0271862D02*
X0666965Y0123133D01*
X0661965Y0123133D02*
X0661965Y0127208D01*
X0662961Y0128933D02*
X0738001Y0128933D01*
X0736965Y0132283D02*
X0736965Y0123133D01*
X0738001Y0123933D02*
X0657797Y0123933D01*
X0656965Y0123685D02*
X0656965Y0123133D01*
X0651965Y0123133D02*
X0651965Y0123337D01*
X0641965Y0123133D02*
X0641965Y0203434D01*
X0646965Y0201333D02*
X0646965Y0140744D01*
X0663921Y0133933D02*
X0701828Y0133933D01*
X0701965Y0133796D02*
X0701965Y0123133D01*
X0696965Y0123133D02*
X0696965Y0223216D01*
X0697682Y0223933D02*
X0738001Y0223933D01*
X0736965Y0223083D02*
X0736965Y0232283D01*
X0738001Y0228933D02*
X0699543Y0228933D01*
X0698165Y0233933D02*
X0701828Y0233933D01*
X0701965Y0233796D02*
X0701965Y0221570D01*
X0700388Y0218933D02*
X0651865Y0218933D01*
X0652960Y0228933D02*
X0520971Y0228933D01*
X0505915Y0219883D02*
X0453765Y0219883D01*
X0449065Y0223333D01*
X0434465Y0223333D01*
X0434465Y0223933D01*
X0429566Y0228933D02*
X0422165Y0228933D01*
X0422477Y0228733D02*
X0422165Y0228421D01*
X0422165Y0231217D01*
X0421588Y0232612D01*
X0443399Y0253433D01*
X0445315Y0253433D01*
X0445315Y0239109D01*
X0446137Y0237124D01*
X0447656Y0235605D01*
X0449641Y0234783D01*
X0451765Y0234783D01*
X0451765Y0227843D01*
X0451636Y0227897D01*
X0451308Y0228137D01*
X0450689Y0228289D01*
X0450100Y0228533D01*
X0449694Y0228533D01*
X0449299Y0228630D01*
X0448669Y0228533D01*
X0439765Y0228533D01*
X0437365Y0230933D01*
X0431566Y0230933D01*
X0427910Y0227277D01*
X0426453Y0228733D01*
X0424465Y0228733D01*
X0422477Y0228733D01*
X0424465Y0228733D02*
X0424465Y0223933D01*
X0424465Y0223933D01*
X0424465Y0228733D01*
X0426965Y0228221D02*
X0426965Y0237745D01*
X0428210Y0238933D02*
X0445388Y0238933D01*
X0446965Y0236296D02*
X0446965Y0228533D01*
X0451765Y0228933D02*
X0439365Y0228933D01*
X0441965Y0228533D02*
X0441965Y0252065D01*
X0438685Y0248933D02*
X0445315Y0248933D01*
X0445315Y0243933D02*
X0433447Y0243933D01*
X0431965Y0242518D02*
X0431965Y0230933D01*
X0436965Y0230933D02*
X0436965Y0247291D01*
X0441315Y0258633D02*
X0413765Y0232333D01*
X0373265Y0232333D01*
X0365165Y0224233D01*
X0364465Y0223933D01*
X0359566Y0228933D02*
X0352165Y0228933D01*
X0354465Y0228733D02*
X0354465Y0223933D01*
X0354465Y0223933D01*
X0354465Y0228733D01*
X0356965Y0228221D02*
X0356965Y0245046D01*
X0355255Y0243933D02*
X0382425Y0243933D01*
X0381965Y0244124D02*
X0381965Y0237533D01*
X0376965Y0237533D02*
X0376965Y0263090D01*
X0375861Y0263933D02*
X0358615Y0263933D01*
X0358615Y0258933D02*
X0379065Y0258933D01*
X0379065Y0253933D02*
X0358615Y0253933D01*
X0358615Y0248933D02*
X0379065Y0248933D01*
X0386965Y0243533D02*
X0386965Y0237533D01*
X0391965Y0237533D02*
X0391965Y0243533D01*
X0396965Y0243533D02*
X0396965Y0237533D01*
X0401965Y0237533D02*
X0401965Y0243533D01*
X0406965Y0243533D02*
X0406965Y0237533D01*
X0411965Y0237804D02*
X0411965Y0243533D01*
X0413148Y0238933D02*
X0306915Y0238933D01*
X0306965Y0238427D02*
X0306965Y0262483D01*
X0306915Y0258933D02*
X0310315Y0258933D01*
X0310315Y0253933D02*
X0306915Y0253933D01*
X0306915Y0243933D02*
X0313675Y0243933D01*
X0316965Y0243533D02*
X0316965Y0235383D01*
X0321965Y0235383D02*
X0321965Y0243533D01*
X0326965Y0243533D02*
X0326965Y0235383D01*
X0331965Y0235383D02*
X0331965Y0243533D01*
X0336965Y0243533D02*
X0336965Y0235383D01*
X0341965Y0235383D02*
X0341965Y0243533D01*
X0346965Y0243533D02*
X0346965Y0235383D01*
X0350569Y0233933D02*
X0367511Y0233933D01*
X0366965Y0233387D02*
X0366965Y0269350D01*
X0369574Y0271288D02*
X0369574Y0271288D01*
X0371965Y0273679D02*
X0371965Y0237423D01*
X0376965Y0227133D02*
X0376965Y0139389D01*
X0378316Y0139389D02*
X0374390Y0139389D01*
X0373130Y0138867D01*
X0373104Y0138878D01*
X0371870Y0139389D01*
X0367945Y0139389D01*
X0366685Y0138867D01*
X0365425Y0139389D01*
X0360432Y0139389D01*
X0359705Y0139088D01*
X0358979Y0139389D01*
X0355054Y0139389D01*
X0354327Y0139088D01*
X0353601Y0139389D01*
X0351811Y0139389D01*
X0350571Y0138875D01*
X0349331Y0139389D01*
X0347541Y0139389D01*
X0346814Y0139088D01*
X0346088Y0139389D01*
X0341095Y0139389D01*
X0339441Y0138703D01*
X0338175Y0137438D01*
X0337490Y0135784D01*
X0337490Y0129723D01*
X0337490Y0127588D01*
X0338175Y0125934D01*
X0339441Y0124668D01*
X0341095Y0123983D01*
X0342885Y0123983D01*
X0344539Y0124668D01*
X0345213Y0125342D01*
X0345887Y0124668D01*
X0347541Y0123983D01*
X0349331Y0123983D01*
X0350571Y0124497D01*
X0351811Y0123983D01*
X0353601Y0123983D01*
X0354327Y0124284D01*
X0355054Y0123983D01*
X0358979Y0123983D01*
X0359705Y0124284D01*
X0360432Y0123983D01*
X0365425Y0123983D01*
X0366685Y0124505D01*
X0367945Y0123983D01*
X0371870Y0123983D01*
X0373130Y0124505D01*
X0374390Y0123983D01*
X0378316Y0123983D01*
X0379705Y0124559D01*
X0379969Y0124668D01*
X0379969Y0124668D01*
X0379969Y0124668D01*
X0379705Y0124559D01*
X0378316Y0123983D01*
X0374390Y0123983D01*
X0373130Y0124505D01*
X0371870Y0123983D01*
X0367945Y0123983D01*
X0366685Y0124505D01*
X0365425Y0123983D01*
X0360432Y0123983D01*
X0359705Y0124284D01*
X0358979Y0123983D01*
X0355054Y0123983D01*
X0354327Y0124284D01*
X0353601Y0123983D01*
X0351811Y0123983D01*
X0350571Y0124497D01*
X0349331Y0123983D01*
X0347541Y0123983D01*
X0345887Y0124668D01*
X0345213Y0125342D01*
X0344539Y0124668D01*
X0342885Y0123983D01*
X0341095Y0123983D01*
X0339441Y0124668D01*
X0338175Y0125934D01*
X0337490Y0127588D01*
X0337490Y0129723D01*
X0337490Y0135784D01*
X0338175Y0137438D01*
X0339441Y0138703D01*
X0341095Y0139389D01*
X0346088Y0139389D01*
X0346814Y0139088D01*
X0347541Y0139389D01*
X0349331Y0139389D01*
X0350571Y0138875D01*
X0351811Y0139389D01*
X0353601Y0139389D01*
X0354327Y0139088D01*
X0355054Y0139389D01*
X0358979Y0139389D01*
X0359705Y0139088D01*
X0360432Y0139389D01*
X0365425Y0139389D01*
X0366685Y0138867D01*
X0367945Y0139389D01*
X0371870Y0139389D01*
X0373104Y0138878D01*
X0373130Y0138867D01*
X0374390Y0139389D01*
X0378316Y0139389D01*
X0379705Y0138813D01*
X0379969Y0138703D01*
X0379969Y0138703D01*
X0379969Y0138703D01*
X0379969Y0138703D01*
X0379969Y0138703D01*
X0379705Y0138813D01*
X0378316Y0139389D01*
X0379415Y0138933D02*
X0385114Y0138933D01*
X0385078Y0138918D02*
X0379451Y0138918D01*
X0379969Y0138703D02*
X0381154Y0137519D01*
X0382303Y0136370D01*
X0382609Y0135632D01*
X0382609Y0135784D01*
X0383294Y0137438D01*
X0384560Y0138703D01*
X0386214Y0139389D01*
X0392274Y0139389D01*
X0393928Y0138703D01*
X0395194Y0137438D01*
X0395270Y0137253D01*
X0397652Y0137253D01*
X0398912Y0136731D01*
X0399497Y0136974D01*
X0400172Y0137253D01*
X0405165Y0137253D01*
X0405891Y0136953D01*
X0405942Y0136974D01*
X0406618Y0137253D01*
X0410543Y0137253D01*
X0411269Y0136953D01*
X0411996Y0137253D01*
X0414853Y0137253D01*
X0415026Y0137182D01*
X0415198Y0137253D01*
X0415445Y0137253D01*
X0415521Y0137438D01*
X0416787Y0138703D01*
X0418441Y0139389D01*
X0420231Y0139389D01*
X0421885Y0138703D01*
X0422559Y0138030D01*
X0423233Y0138703D01*
X0424887Y0139389D01*
X0427744Y0139389D01*
X0429398Y0138703D01*
X0430664Y0137438D01*
X0430740Y0137253D01*
X0433593Y0137253D01*
X0433975Y0137636D01*
X0435043Y0138703D01*
X0436697Y0139389D01*
X0440622Y0139389D01*
X0442012Y0138813D01*
X0442276Y0138703D01*
X0442012Y0138813D01*
X0440622Y0139389D01*
X0436697Y0139389D01*
X0435043Y0138703D01*
X0433975Y0137636D01*
X0433593Y0137253D01*
X0430740Y0137253D01*
X0430664Y0137438D01*
X0429398Y0138703D01*
X0427744Y0139389D01*
X0424887Y0139389D01*
X0423233Y0138703D01*
X0422559Y0138030D01*
X0421885Y0138703D01*
X0420231Y0139389D01*
X0418441Y0139389D01*
X0416787Y0138703D01*
X0415521Y0137438D01*
X0415445Y0137253D01*
X0415198Y0137253D01*
X0415026Y0137182D01*
X0414853Y0137253D01*
X0411996Y0137253D01*
X0411269Y0136953D01*
X0410543Y0137253D01*
X0406618Y0137253D01*
X0405942Y0136974D01*
X0405891Y0136953D01*
X0405165Y0137253D01*
X0400172Y0137253D01*
X0399497Y0136974D01*
X0398912Y0136731D01*
X0397652Y0137253D01*
X0395270Y0137253D01*
X0395194Y0137438D01*
X0393928Y0138703D01*
X0392274Y0139389D01*
X0386214Y0139389D01*
X0384560Y0138703D01*
X0383294Y0137438D01*
X0382609Y0135784D01*
X0382609Y0135632D01*
X0382303Y0136370D01*
X0381154Y0137519D01*
X0379969Y0138703D01*
X0381753Y0136920D02*
X0383079Y0136920D01*
X0381965Y0136708D02*
X0381965Y0216166D01*
X0383361Y0213933D02*
X0367365Y0213933D01*
X0367365Y0208933D02*
X0389065Y0208933D01*
X0386965Y0212483D02*
X0386965Y0139389D01*
X0391965Y0139389D02*
X0391965Y0196149D01*
X0389459Y0198933D02*
X0367292Y0198933D01*
X0366965Y0198143D02*
X0366965Y0138983D01*
X0366845Y0138933D02*
X0366524Y0138933D01*
X0366560Y0138918D02*
X0366809Y0138918D01*
X0361965Y0139389D02*
X0361965Y0194783D01*
X0356965Y0194783D02*
X0356965Y0139389D01*
X0351965Y0139389D02*
X0351965Y0194783D01*
X0346965Y0194783D02*
X0346965Y0139150D01*
X0350430Y0138933D02*
X0350711Y0138933D01*
X0350675Y0138918D02*
X0350466Y0138918D01*
X0341965Y0139389D02*
X0341965Y0194783D01*
X0336965Y0194783D02*
X0336965Y0123133D01*
X0339181Y0124929D02*
X0332690Y0124929D01*
X0331965Y0123133D02*
X0331965Y0180261D01*
X0329502Y0178933D02*
X0590315Y0178933D01*
X0590315Y0173933D02*
X0248715Y0173933D01*
X0248715Y0168933D02*
X0590315Y0168933D01*
X0594328Y0158933D02*
X0136165Y0158933D01*
X0136165Y0173933D02*
X0199165Y0173933D01*
X0206965Y0164208D02*
X0206965Y0123133D01*
X0211965Y0123133D02*
X0211965Y0164208D01*
X0216965Y0164208D02*
X0216965Y0123133D01*
X0221965Y0123133D02*
X0221965Y0164208D01*
X0226965Y0164208D02*
X0226965Y0123133D01*
X0231965Y0123133D02*
X0231965Y0164208D01*
X0236965Y0164208D02*
X0236965Y0123133D01*
X0241965Y0123133D02*
X0241965Y0164208D01*
X0246965Y0165621D02*
X0246965Y0123133D01*
X0251965Y0123133D02*
X0251965Y0196296D01*
X0251465Y0193933D02*
X0274428Y0193933D01*
X0276965Y0194333D02*
X0276965Y0194783D01*
X0279502Y0193933D02*
X0284428Y0193933D01*
X0286965Y0194333D02*
X0286965Y0194783D01*
X0289502Y0193933D02*
X0294428Y0193933D01*
X0296965Y0194333D02*
X0296965Y0198143D01*
X0297292Y0198933D02*
X0321638Y0198933D01*
X0321965Y0198143D02*
X0321965Y0192605D01*
X0316965Y0192133D02*
X0316965Y0186433D01*
X0316965Y0192133D01*
X0316965Y0188933D02*
X0316965Y0188933D01*
X0316965Y0186433D02*
X0316965Y0212483D01*
X0321565Y0208933D02*
X0297365Y0208933D01*
X0297365Y0203933D02*
X0321565Y0203933D01*
X0331965Y0194783D02*
X0331965Y0192605D01*
X0334481Y0188933D02*
X0588137Y0188933D01*
X0588137Y0183933D02*
X0334481Y0183933D01*
X0326965Y0178533D02*
X0326965Y0123133D01*
X0321965Y0123133D02*
X0321965Y0180261D01*
X0322490Y0179736D02*
X0325394Y0178533D01*
X0322490Y0179736D02*
X0320367Y0181859D01*
X0319953Y0181558D01*
X0319153Y0181151D01*
X0318300Y0180873D01*
X0317414Y0180733D01*
X0316965Y0180733D01*
X0316965Y0186433D01*
X0316965Y0186433D01*
X0316965Y0183933D02*
X0316965Y0183933D01*
X0306965Y0183933D02*
X0306965Y0183933D01*
X0306965Y0188933D02*
X0306965Y0188933D01*
X0291965Y0192605D02*
X0291965Y0194783D01*
X0281965Y0194783D02*
X0281965Y0192605D01*
X0271965Y0192605D02*
X0271965Y0194783D01*
X0266965Y0194783D02*
X0266965Y0123133D01*
X0261965Y0123133D02*
X0261965Y0194783D01*
X0256965Y0194783D02*
X0256965Y0123133D01*
X0271965Y0123133D02*
X0271965Y0180261D01*
X0274428Y0178933D02*
X0248715Y0178933D01*
X0248715Y0183933D02*
X0269450Y0183933D01*
X0269450Y0188933D02*
X0249365Y0188933D01*
X0244465Y0193933D02*
X0243665Y0194533D01*
X0249365Y0198933D02*
X0250388Y0198933D01*
X0250315Y0203933D02*
X0248866Y0203933D01*
X0246965Y0208187D02*
X0246965Y0212483D01*
X0246208Y0208933D02*
X0250315Y0208933D01*
X0243361Y0213933D02*
X0241156Y0213933D01*
X0241965Y0213132D02*
X0241965Y0216166D01*
X0241765Y0218933D02*
X0236104Y0218933D01*
X0236965Y0218081D02*
X0236965Y0257483D01*
X0233361Y0258933D02*
X0195690Y0258933D01*
X0196965Y0257671D02*
X0196965Y0274383D01*
X0194031Y0274383D02*
X0231765Y0274383D01*
X0226965Y0274383D02*
X0226965Y0227978D01*
X0226001Y0228933D02*
X0241765Y0228933D01*
X0241965Y0231700D02*
X0241965Y0240046D01*
X0243675Y0238933D02*
X0215897Y0238933D01*
X0216965Y0237876D02*
X0216965Y0274383D01*
X0211965Y0274383D02*
X0211965Y0242825D01*
X0210846Y0243933D02*
X0240315Y0243933D01*
X0240315Y0248933D02*
X0205794Y0248933D01*
X0206965Y0247774D02*
X0206965Y0274383D01*
X0201965Y0274383D02*
X0201965Y0252722D01*
X0200742Y0253933D02*
X0240315Y0253933D01*
X0231965Y0261166D02*
X0231965Y0223030D01*
X0231052Y0223933D02*
X0241765Y0223933D01*
X0243361Y0233933D02*
X0220949Y0233933D01*
X0221965Y0232927D02*
X0221965Y0274383D01*
X0231765Y0268933D02*
X0185587Y0268933D01*
X0186965Y0267569D02*
X0186965Y0280329D01*
X0188361Y0278933D02*
X0175484Y0278933D01*
X0176965Y0277467D02*
X0176965Y0390509D01*
X0175420Y0388933D02*
X0187048Y0388933D01*
X0186965Y0389016D02*
X0186965Y0385812D01*
X0185086Y0383933D02*
X0173165Y0383933D01*
X0173165Y0378933D02*
X0180086Y0378933D01*
X0181965Y0380812D02*
X0181965Y0395609D01*
X0180322Y0393933D02*
X0184787Y0393933D01*
X0185225Y0398933D02*
X0186248Y0398933D01*
X0186965Y0399650D02*
X0186965Y0400708D01*
X0190128Y0403933D02*
X0198211Y0403933D01*
X0196965Y0402687D02*
X0196965Y0410906D01*
X0195031Y0408933D02*
X0203211Y0408933D01*
X0201965Y0407687D02*
X0201965Y0416816D01*
X0202165Y0418933D02*
X0204748Y0418933D01*
X0206965Y0416716D02*
X0206965Y0412687D01*
X0208211Y0413933D02*
X0199934Y0413933D01*
X0202165Y0423933D02*
X0202787Y0423933D01*
X0202165Y0428933D02*
X0204548Y0428933D01*
X0206965Y0431350D02*
X0206965Y0460339D01*
X0206907Y0460375D02*
X0207755Y0459851D01*
X0207991Y0459602D01*
X0208593Y0459333D01*
X0209155Y0458986D01*
X0209494Y0458931D01*
X0210404Y0458524D01*
X0210671Y0458309D01*
X0211304Y0458122D01*
X0211907Y0457853D01*
X0212250Y0457844D01*
X0213206Y0457562D01*
X0213500Y0457384D01*
X0214152Y0457284D01*
X0214785Y0457097D01*
X0215126Y0457134D01*
X0216112Y0456982D01*
X0216426Y0456845D01*
X0217086Y0456832D01*
X0217738Y0456732D01*
X0218072Y0456814D01*
X0219069Y0456795D01*
X0219399Y0456701D01*
X0220054Y0456776D01*
X0220714Y0456764D01*
X0221034Y0456889D01*
X0222024Y0457003D01*
X0222364Y0456954D01*
X0223004Y0457116D01*
X0223659Y0457191D01*
X0223959Y0457358D01*
X0224926Y0457603D01*
X0225269Y0457599D01*
X0225881Y0457846D01*
X0226521Y0458008D01*
X0226796Y0458213D01*
X0227721Y0458585D01*
X0228062Y0458627D01*
X0228636Y0458952D01*
X0229248Y0459198D01*
X0229494Y0459438D01*
X0230361Y0459930D01*
X0230693Y0460017D01*
X0231219Y0460416D01*
X0231793Y0460742D01*
X0232004Y0461012D01*
X0232798Y0461615D01*
X0233115Y0461746D01*
X0233583Y0462211D01*
X0234109Y0462610D01*
X0234282Y0462907D01*
X0234988Y0463610D01*
X0235286Y0463782D01*
X0235687Y0464306D01*
X0236155Y0464771D01*
X0236287Y0465088D01*
X0236894Y0465879D01*
X0237165Y0466089D01*
X0237493Y0466662D01*
X0237895Y0467185D01*
X0237984Y0467517D01*
X0238479Y0468381D01*
X0238720Y0468625D01*
X0238969Y0469237D01*
X0239298Y0469810D01*
X0239341Y0470150D01*
X0239709Y0471051D01*
X0239915Y0471324D01*
X0240081Y0471964D01*
X0240330Y0472576D01*
X0240328Y0472918D01*
X0240573Y0473859D01*
X0240741Y0474157D01*
X0240820Y0474813D01*
X0240986Y0475453D01*
X0240939Y0475792D01*
X0241056Y0476757D01*
X0241183Y0477075D01*
X0241175Y0477736D01*
X0241254Y0478392D01*
X0241162Y0478722D01*
X0241150Y0479694D01*
X0241234Y0480026D01*
X0241138Y0480680D01*
X0241130Y0481341D01*
X0240995Y0481655D01*
X0240854Y0482617D01*
X0240893Y0482957D01*
X0240711Y0483593D01*
X0240615Y0484247D01*
X0240440Y0484541D01*
X0240172Y0485475D01*
X0240166Y0485817D01*
X0239901Y0486423D01*
X0239719Y0487059D01*
X0239506Y0487327D01*
X0239117Y0488217D01*
X0239065Y0488556D01*
X0238722Y0489121D01*
X0238457Y0489727D01*
X0238211Y0489964D01*
X0237707Y0490795D01*
X0237610Y0491124D01*
X0237196Y0491638D01*
X0236853Y0492204D01*
X0236577Y0492406D01*
X0235967Y0493163D01*
X0235828Y0493476D01*
X0235348Y0493931D01*
X0234934Y0494446D01*
X0234634Y0494610D01*
X0233928Y0495279D01*
X0233749Y0495570D01*
X0233213Y0495958D01*
X0232734Y0496413D01*
X0232415Y0496536D01*
X0231627Y0497106D01*
X0231410Y0497371D01*
X0230828Y0497683D01*
X0230292Y0498071D01*
X0229960Y0498150D01*
X0229103Y0498610D01*
X0228853Y0498844D01*
X0228235Y0499077D01*
X0227652Y0499390D01*
X0227312Y0499424D01*
X0226402Y0499767D01*
X0226124Y0499965D01*
X0225479Y0500114D01*
X0224860Y0500347D01*
X0224519Y0500336D01*
X0223571Y0500554D01*
X0223269Y0500714D01*
X0222611Y0500776D01*
X0221966Y0500925D01*
X0221629Y0500868D01*
X0220661Y0500959D01*
X0220340Y0501078D01*
X0219679Y0501051D01*
X0219021Y0501113D01*
X0218694Y0501012D01*
X0217723Y0500974D01*
X0217389Y0501049D01*
X0216738Y0500935D01*
X0216077Y0500909D01*
X0215766Y0500766D01*
X0214809Y0500599D01*
X0214468Y0500628D01*
X0213837Y0500429D01*
X0213186Y0500316D01*
X0212897Y0500132D01*
X0211970Y0499840D01*
X0211628Y0499824D01*
X0211030Y0499543D01*
X0210399Y0499344D01*
X0210137Y0499124D01*
X0209257Y0498711D01*
X0208921Y0498650D01*
X0208365Y0498292D01*
X0207766Y0498011D01*
X0207536Y0497758D01*
X0206719Y0497231D01*
X0206393Y0497126D01*
X0205890Y0496698D01*
X0205334Y0496340D01*
X0205139Y0496059D01*
X0204399Y0495428D01*
X0204090Y0495281D01*
X0203648Y0494789D01*
X0203145Y0494361D01*
X0202989Y0494056D01*
X0202339Y0493333D01*
X0202052Y0493146D01*
X0201679Y0492600D01*
X0201237Y0492108D01*
X0201123Y0491786D01*
X0200575Y0490983D01*
X0200316Y0490759D01*
X0200019Y0490169D01*
X0199646Y0489623D01*
X0199576Y0489288D01*
X0199139Y0488419D01*
X0198912Y0488164D01*
X0198696Y0487539D01*
X0198399Y0486948D01*
X0198374Y0486607D01*
X0198056Y0485688D01*
X0197865Y0485404D01*
X0197734Y0484756D01*
X0197518Y0484131D01*
X0197539Y0483790D01*
X0197346Y0482837D01*
X0197194Y0482530D01*
X0197150Y0481871D01*
X0197019Y0481223D01*
X0197084Y0480887D01*
X0197031Y0480086D01*
X0196965Y0479928D01*
X0196965Y0508731D01*
X0201965Y0508731D02*
X0201965Y0493018D01*
X0202878Y0493933D02*
X0169665Y0493933D01*
X0169665Y0488933D02*
X0199398Y0488933D01*
X0197530Y0483933D02*
X0169665Y0483933D01*
X0169665Y0478933D02*
X0171215Y0478933D01*
X0171965Y0479244D02*
X0171965Y0508730D01*
X0176965Y0508731D02*
X0176965Y0479244D01*
X0177715Y0478933D02*
X0196954Y0478933D01*
X0196965Y0479100D02*
X0196910Y0478273D01*
X0196965Y0478110D01*
X0196965Y0476878D01*
X0196868Y0476337D01*
X0196965Y0475893D01*
X0196965Y0475438D01*
X0196965Y0461833D01*
X0201965Y0460105D02*
X0201965Y0464646D01*
X0202132Y0464411D02*
X0202422Y0464228D01*
X0203102Y0463499D01*
X0203263Y0463196D01*
X0203774Y0462777D01*
X0204223Y0462294D01*
X0204536Y0462152D01*
X0205306Y0461519D01*
X0205507Y0461241D01*
X0206068Y0460894D01*
X0206578Y0460475D01*
X0206907Y0460375D01*
X0209479Y0458933D02*
X0203137Y0458933D01*
X0202697Y0463933D02*
X0176289Y0463933D01*
X0176965Y0464213D02*
X0176965Y0449244D01*
X0177715Y0448933D02*
X0190793Y0448933D01*
X0191765Y0443933D02*
X0182103Y0443933D01*
X0181965Y0444265D02*
X0181965Y0469191D01*
X0181858Y0468933D02*
X0199217Y0468933D01*
X0199115Y0469129D02*
X0199577Y0468246D01*
X0199653Y0467911D01*
X0200035Y0467373D01*
X0200341Y0466788D01*
X0200605Y0466568D01*
X0201181Y0465754D01*
X0201301Y0465433D01*
X0201750Y0464950D01*
X0202132Y0464411D01*
X0199115Y0469129D02*
X0198883Y0469382D01*
X0198657Y0470002D01*
X0198351Y0470587D01*
X0198320Y0470929D01*
X0197980Y0471866D01*
X0197784Y0472148D01*
X0197643Y0472792D01*
X0197417Y0473412D01*
X0197432Y0473756D01*
X0197175Y0474931D01*
X0196965Y0475438D01*
X0197394Y0473933D02*
X0182103Y0473933D01*
X0181965Y0474265D02*
X0181965Y0508731D01*
X0169665Y0503933D02*
X0246965Y0503933D01*
X0246965Y0498933D02*
X0228618Y0498933D01*
X0226965Y0499555D02*
X0226965Y0508732D01*
X0221965Y0508732D02*
X0221965Y0500925D01*
X0216965Y0500975D02*
X0216965Y0508732D01*
X0211965Y0508732D02*
X0211965Y0499840D01*
X0209731Y0498933D02*
X0169665Y0498933D01*
X0196965Y0479928D02*
X0196965Y0479100D01*
X0206965Y0497390D02*
X0206965Y0508732D01*
X0231965Y0508732D02*
X0231965Y0496861D01*
X0235347Y0493933D02*
X0246965Y0493933D01*
X0246965Y0488933D02*
X0238836Y0488933D01*
X0236965Y0492018D02*
X0236965Y0508733D01*
X0241965Y0508733D02*
X0241965Y0460105D01*
X0243137Y0458933D02*
X0246965Y0458933D01*
X0246965Y0463933D02*
X0235402Y0463933D01*
X0236965Y0465934D02*
X0236965Y0461833D01*
X0231965Y0460963D02*
X0231965Y0460105D01*
X0230793Y0458933D02*
X0228602Y0458933D01*
X0226965Y0458281D02*
X0226965Y0451087D01*
X0224811Y0448933D02*
X0203137Y0448933D01*
X0202165Y0443933D02*
X0219811Y0443933D01*
X0221965Y0446087D02*
X0221965Y0456996D01*
X0216965Y0456835D02*
X0216965Y0441087D01*
X0214811Y0438933D02*
X0202165Y0438933D01*
X0202165Y0433933D02*
X0209811Y0433933D01*
X0211965Y0436087D02*
X0211965Y0457852D01*
X0204865Y0453933D02*
X0229065Y0453933D01*
X0236465Y0453233D02*
X0236965Y0453933D01*
X0236465Y0453233D02*
X0210365Y0427133D01*
X0210365Y0424033D01*
X0218465Y0416833D02*
X0235215Y0416833D01*
X0243665Y0408383D01*
X0254865Y0408383D01*
X0271165Y0415933D01*
X0302165Y0392083D02*
X0235340Y0392083D01*
X0234440Y0392983D01*
X0223665Y0403908D02*
X0222965Y0403333D01*
X0222065Y0402433D01*
X0222065Y0329508D01*
X0222090Y0324508D01*
X0228140Y0318458D01*
X0234765Y0318458D01*
X0239015Y0314208D01*
X0239165Y0309733D01*
X0239465Y0308933D01*
X0246465Y0308933D02*
X0249265Y0308933D01*
X0249265Y0303933D02*
X0244365Y0303933D01*
X0251965Y0299340D02*
X0251965Y0284783D01*
X0246965Y0284783D02*
X0246965Y0327416D01*
X0247165Y0328933D02*
X0249265Y0328933D01*
X0249265Y0323933D02*
X0243482Y0323933D01*
X0241965Y0323733D02*
X0241965Y0318612D01*
X0241644Y0318933D02*
X0249265Y0318933D01*
X0249265Y0313933D02*
X0244365Y0313933D01*
X0236965Y0323175D02*
X0236965Y0323733D01*
X0231965Y0323658D02*
X0231965Y0323733D01*
X0247265Y0336733D02*
X0247265Y0365533D01*
X0218465Y0416833D02*
X0195965Y0394333D01*
X0192365Y0394333D01*
X0191965Y0401911D02*
X0191965Y0405807D01*
X0176965Y0405364D02*
X0176965Y0407843D01*
X0175562Y0403933D02*
X0136165Y0403933D01*
X0136165Y0398933D02*
X0170660Y0398933D01*
X0171965Y0400265D02*
X0171965Y0409212D01*
X0172449Y0408933D02*
X0136165Y0408933D01*
X0176965Y0428054D02*
X0176965Y0434213D01*
X0176289Y0433933D02*
X0191765Y0433933D01*
X0191765Y0438933D02*
X0181858Y0438933D01*
X0181965Y0439191D02*
X0181965Y0426776D01*
X0238846Y0468933D02*
X0246965Y0468933D01*
X0246965Y0473933D02*
X0240614Y0473933D01*
X0241160Y0478933D02*
X0246965Y0478933D01*
X0246965Y0483933D02*
X0240661Y0483933D01*
X0281965Y0453933D02*
X0281965Y0448241D01*
X0306125Y0443933D02*
X0307511Y0443933D01*
X0306965Y0443387D02*
X0306965Y0453933D01*
X0326465Y0451033D02*
X0326465Y0445633D01*
X0317465Y0436633D01*
X0316670Y0436433D01*
X0319265Y0426733D02*
X0336365Y0443833D01*
X0336365Y0451933D01*
X0349865Y0458233D02*
X0360665Y0447433D01*
X0356670Y0436433D02*
X0355970Y0435733D01*
X0339065Y0435733D01*
X0319715Y0416383D01*
X0350565Y0418633D02*
X0364265Y0418633D01*
X0403865Y0379033D01*
X0403865Y0357433D01*
X0396665Y0351583D01*
X0396665Y0289483D01*
X0390140Y0282958D01*
X0373890Y0282958D01*
X0365165Y0274233D01*
X0355265Y0274233D01*
X0354465Y0273933D01*
X0349566Y0278933D02*
X0342165Y0278933D01*
X0342477Y0278733D02*
X0342165Y0278421D01*
X0342165Y0281217D01*
X0341374Y0283129D01*
X0339911Y0284591D01*
X0338000Y0285383D01*
X0313215Y0285383D01*
X0313215Y0288822D01*
X0313431Y0288733D01*
X0333000Y0288733D01*
X0334911Y0289525D01*
X0335178Y0289792D01*
X0335445Y0289525D01*
X0337356Y0288733D01*
X0354225Y0288733D01*
X0356136Y0289525D01*
X0356944Y0290333D01*
X0357937Y0288942D01*
X0357937Y0284144D01*
X0362376Y0279705D01*
X0363283Y0279705D01*
X0363011Y0279433D01*
X0358865Y0279433D01*
X0357365Y0280933D01*
X0351566Y0280933D01*
X0347910Y0277277D01*
X0346453Y0278733D01*
X0344465Y0278733D01*
X0342477Y0278733D01*
X0344465Y0278733D02*
X0344465Y0273933D01*
X0344465Y0273933D01*
X0344465Y0278733D01*
X0346965Y0278221D02*
X0346965Y0288733D01*
X0341965Y0288733D02*
X0341965Y0281700D01*
X0340569Y0283933D02*
X0358148Y0283933D01*
X0356965Y0280933D02*
X0356965Y0290302D01*
X0357937Y0288933D02*
X0354707Y0288933D01*
X0351965Y0288733D02*
X0351965Y0280933D01*
X0361965Y0280116D02*
X0361965Y0279433D01*
X0365515Y0287283D02*
X0360440Y0294383D01*
X0360440Y0313333D01*
X0389465Y0324133D02*
X0389365Y0351608D01*
X0392165Y0358333D01*
X0423665Y0342933D02*
X0423665Y0274233D01*
X0424465Y0273933D01*
X0441315Y0258633D02*
X0497690Y0258633D01*
X0496965Y0251055D02*
X0496965Y0238221D01*
X0499566Y0238933D02*
X0493542Y0238933D01*
X0493615Y0243933D02*
X0500590Y0243933D01*
X0500590Y0248933D02*
X0493615Y0248933D01*
X0484666Y0263833D02*
X0477165Y0263833D01*
X0477165Y0264445D01*
X0477477Y0264133D01*
X0479465Y0264133D01*
X0479465Y0268933D01*
X0479465Y0268933D01*
X0479465Y0264133D01*
X0481453Y0264133D01*
X0482910Y0265589D01*
X0484666Y0263833D01*
X0484566Y0263933D02*
X0477165Y0263933D01*
X0481965Y0263833D02*
X0481965Y0264645D01*
X0459665Y0287008D02*
X0459665Y0290833D01*
X0455615Y0294883D01*
X0455615Y0352483D01*
X0454040Y0354058D01*
X0454040Y0355858D01*
X0413765Y0396133D02*
X0413465Y0396433D01*
X0400715Y0396433D01*
X0391265Y0405883D01*
X0391265Y0418633D01*
X0390565Y0418633D01*
X0356670Y0436433D02*
X0356165Y0435733D01*
X0349865Y0458233D02*
X0349865Y0475333D01*
X0347165Y0478033D01*
X0347165Y0483433D01*
X0504940Y0418933D02*
X0505565Y0418633D01*
X0533465Y0390733D01*
X0551965Y0381433D02*
X0554465Y0378933D01*
X0551965Y0381433D02*
X0551965Y0428933D01*
X0536760Y0444138D01*
X0530815Y0444138D01*
X0544319Y0443933D02*
X0562915Y0443933D01*
X0564438Y0448933D02*
X0550182Y0448933D01*
X0546965Y0446155D02*
X0546965Y0441287D01*
X0549319Y0438933D02*
X0564848Y0438933D01*
X0566965Y0437182D02*
X0566965Y0420105D01*
X0568137Y0418933D02*
X0643710Y0418933D01*
X0644465Y0413933D02*
X0569865Y0413933D01*
X0561965Y0421833D02*
X0561965Y0457308D01*
X0566965Y0457308D02*
X0566965Y0451094D01*
X0571965Y0452038D02*
X0571965Y0457308D01*
X0576965Y0457308D02*
X0576965Y0449160D01*
X0577192Y0448933D02*
X0685765Y0448933D01*
X0685765Y0443933D02*
X0610182Y0443933D01*
X0611965Y0442150D02*
X0611965Y0457308D01*
X0606965Y0457308D02*
X0606965Y0446511D01*
X0601965Y0446511D02*
X0601965Y0457308D01*
X0616965Y0457302D02*
X0616965Y0438933D01*
X0612043Y0438933D02*
X0685765Y0438933D01*
X0685765Y0433933D02*
X0649036Y0433933D01*
X0646965Y0436004D02*
X0646965Y0508746D01*
X0641965Y0508746D02*
X0641965Y0438933D01*
X0636965Y0438933D02*
X0636965Y0508745D01*
X0631965Y0508745D02*
X0631965Y0438933D01*
X0626965Y0438933D02*
X0626965Y0508745D01*
X0622296Y0503933D02*
X0738001Y0503933D01*
X0736965Y0508749D02*
X0736965Y0301833D01*
X0738001Y0303933D02*
X0698165Y0303933D01*
X0698165Y0298933D02*
X0700906Y0298933D01*
X0701965Y0300320D02*
X0701965Y0508748D01*
X0696965Y0508747D02*
X0696965Y0470284D01*
X0697643Y0468933D02*
X0738001Y0468933D01*
X0738001Y0463933D02*
X0698165Y0463933D01*
X0698165Y0458933D02*
X0738001Y0458933D01*
X0738001Y0453933D02*
X0698165Y0453933D01*
X0698165Y0448933D02*
X0738001Y0448933D01*
X0738001Y0443933D02*
X0698165Y0443933D01*
X0698165Y0438933D02*
X0738001Y0438933D01*
X0738001Y0433933D02*
X0698165Y0433933D01*
X0698165Y0428933D02*
X0738001Y0428933D01*
X0738001Y0423933D02*
X0698165Y0423933D01*
X0698165Y0418933D02*
X0738001Y0418933D01*
X0738001Y0413933D02*
X0698165Y0413933D01*
X0698165Y0408933D02*
X0738001Y0408933D01*
X0738001Y0403933D02*
X0698165Y0403933D01*
X0698165Y0398933D02*
X0738001Y0398933D01*
X0738001Y0393933D02*
X0698165Y0393933D01*
X0698165Y0388933D02*
X0738001Y0388933D01*
X0738001Y0383933D02*
X0698165Y0383933D01*
X0698165Y0378933D02*
X0738001Y0378933D01*
X0738001Y0373933D02*
X0698165Y0373933D01*
X0698165Y0368933D02*
X0738001Y0368933D01*
X0738001Y0363933D02*
X0698165Y0363933D01*
X0698165Y0358933D02*
X0738001Y0358933D01*
X0738001Y0353933D02*
X0698165Y0353933D01*
X0698165Y0348933D02*
X0738001Y0348933D01*
X0738001Y0343933D02*
X0698165Y0343933D01*
X0698165Y0338933D02*
X0738001Y0338933D01*
X0738001Y0333933D02*
X0698165Y0333933D01*
X0698165Y0328933D02*
X0738001Y0328933D01*
X0738001Y0323933D02*
X0698165Y0323933D01*
X0698165Y0318933D02*
X0738001Y0318933D01*
X0738001Y0313933D02*
X0698165Y0313933D01*
X0698165Y0308933D02*
X0738001Y0308933D01*
X0731965Y0301833D02*
X0731965Y0508748D01*
X0726965Y0508748D02*
X0726965Y0301833D01*
X0721965Y0301833D02*
X0721965Y0508748D01*
X0716965Y0508748D02*
X0716965Y0301833D01*
X0711965Y0301833D02*
X0711965Y0508748D01*
X0706965Y0508748D02*
X0706965Y0301833D01*
X0700315Y0293933D02*
X0698165Y0293933D01*
X0698165Y0288933D02*
X0700315Y0288933D01*
X0700315Y0283933D02*
X0698165Y0283933D01*
X0698165Y0278933D02*
X0700315Y0278933D01*
X0700315Y0273933D02*
X0698165Y0273933D01*
X0698165Y0268933D02*
X0700315Y0268933D01*
X0700315Y0263933D02*
X0698165Y0263933D01*
X0698165Y0258933D02*
X0700315Y0258933D01*
X0700315Y0253933D02*
X0698165Y0253933D01*
X0698165Y0248933D02*
X0700315Y0248933D01*
X0700315Y0243933D02*
X0698165Y0243933D01*
X0698165Y0238933D02*
X0700315Y0238933D01*
X0706965Y0232283D02*
X0706965Y0223083D01*
X0711965Y0223083D02*
X0711965Y0232283D01*
X0716965Y0232283D02*
X0716965Y0223083D01*
X0721965Y0223083D02*
X0721965Y0232283D01*
X0726965Y0232283D02*
X0726965Y0223083D01*
X0731965Y0223083D02*
X0731965Y0232283D01*
X0691965Y0221355D02*
X0691965Y0123133D01*
X0686965Y0123133D02*
X0686965Y0223216D01*
X0685765Y0243933D02*
X0666965Y0243933D01*
X0666965Y0248933D02*
X0685765Y0248933D01*
X0685765Y0253933D02*
X0666965Y0253933D01*
X0666965Y0258933D02*
X0685765Y0258933D01*
X0685765Y0263933D02*
X0666965Y0263933D01*
X0656965Y0268933D02*
X0631965Y0268933D01*
X0631965Y0273933D02*
X0656965Y0273933D01*
X0656965Y0274928D02*
X0657726Y0276765D01*
X0660196Y0279234D01*
X0659953Y0279058D01*
X0659153Y0278651D01*
X0658300Y0278373D01*
X0657414Y0278233D01*
X0656965Y0278233D01*
X0656965Y0283933D01*
X0656965Y0289633D01*
X0659707Y0288933D02*
X0661965Y0288933D01*
X0656965Y0283933D02*
X0656965Y0283933D01*
X0656965Y0408331D01*
X0658411Y0408933D02*
X0659894Y0408933D01*
X0666965Y0416004D02*
X0666965Y0478855D01*
X0666248Y0478933D02*
X0622503Y0478933D01*
X0622544Y0473933D02*
X0674195Y0473933D01*
X0671965Y0475916D02*
X0671965Y0123133D01*
X0676965Y0123133D02*
X0676965Y0471471D01*
X0679820Y0468933D02*
X0622586Y0468933D01*
X0622627Y0463933D02*
X0685445Y0463933D01*
X0681965Y0467027D02*
X0681965Y0123133D01*
X0706965Y0123133D02*
X0706965Y0132283D01*
X0711965Y0132283D02*
X0711965Y0123133D01*
X0716965Y0123133D02*
X0716965Y0132283D01*
X0721965Y0132283D02*
X0721965Y0123133D01*
X0726965Y0123133D02*
X0726965Y0132283D01*
X0731965Y0132283D02*
X0731965Y0123133D01*
X0700315Y0178933D02*
X0664481Y0178933D01*
X0664481Y0183933D02*
X0700315Y0183933D01*
X0700315Y0188933D02*
X0663138Y0188933D01*
X0661965Y0187761D02*
X0661965Y0187605D01*
X0664865Y0193933D02*
X0700315Y0193933D01*
X0649065Y0193933D02*
X0634865Y0193933D01*
X0631965Y0200105D02*
X0631965Y0203434D01*
X0621965Y0203434D02*
X0621965Y0200105D01*
X0620793Y0198933D02*
X0506806Y0198933D01*
X0516965Y0203933D02*
X0516965Y0203933D01*
X0516965Y0206433D02*
X0516965Y0206433D01*
X0516965Y0208933D02*
X0516965Y0208933D01*
X0511965Y0209175D02*
X0511965Y0218579D01*
X0507365Y0213933D02*
X0609965Y0213933D01*
X0611965Y0203434D02*
X0611965Y0123133D01*
X0606965Y0123133D02*
X0606965Y0153216D01*
X0616965Y0123133D02*
X0616965Y0201333D01*
X0656115Y0248933D02*
X0656965Y0248933D01*
X0656965Y0253933D02*
X0656115Y0253933D01*
X0646965Y0259333D02*
X0646965Y0410508D01*
X0644894Y0423933D02*
X0557165Y0423933D01*
X0576965Y0439116D02*
X0576965Y0404133D01*
X0578715Y0443933D02*
X0598748Y0443933D01*
X0621965Y0438933D02*
X0621965Y0459667D01*
X0621336Y0458933D02*
X0685765Y0458933D01*
X0685765Y0453933D02*
X0551843Y0453933D01*
X0544265Y0453733D02*
X0544265Y0479833D01*
X0622462Y0483933D02*
X0661887Y0483933D01*
X0661965Y0483216D02*
X0661965Y0424044D01*
X0662029Y0423933D02*
X0685765Y0423933D01*
X0685765Y0418933D02*
X0664036Y0418933D01*
X0669036Y0413933D02*
X0685765Y0413933D01*
X0685765Y0408933D02*
X0671965Y0408933D01*
X0671965Y0403933D02*
X0685765Y0403933D01*
X0685765Y0398933D02*
X0671965Y0398933D01*
X0671965Y0393933D02*
X0685765Y0393933D01*
X0685765Y0388933D02*
X0671965Y0388933D01*
X0671965Y0383933D02*
X0685765Y0383933D01*
X0685765Y0378933D02*
X0671965Y0378933D01*
X0671965Y0373933D02*
X0685765Y0373933D01*
X0685765Y0368933D02*
X0671965Y0368933D01*
X0671965Y0363933D02*
X0685765Y0363933D01*
X0685765Y0358933D02*
X0671965Y0358933D01*
X0656965Y0427567D02*
X0656965Y0508746D01*
X0651965Y0508746D02*
X0651965Y0431004D01*
X0654036Y0428933D02*
X0685765Y0428933D01*
X0641965Y0426862D02*
X0641965Y0259333D01*
X0636965Y0259333D02*
X0636965Y0428933D01*
X0691965Y0474728D02*
X0691965Y0508747D01*
X0686965Y0508747D02*
X0686965Y0479173D01*
X0687235Y0478933D02*
X0738001Y0478933D01*
X0738001Y0473933D02*
X0692860Y0473933D01*
X0681965Y0483617D02*
X0681965Y0508747D01*
X0676965Y0508747D02*
X0676965Y0489650D01*
X0677043Y0488933D02*
X0738001Y0488933D01*
X0738001Y0483933D02*
X0681610Y0483933D01*
X0672682Y0493933D02*
X0738001Y0493933D01*
X0738001Y0498933D02*
X0622338Y0498933D01*
X0622379Y0493933D02*
X0666248Y0493933D01*
X0666965Y0494011D02*
X0666965Y0508746D01*
X0661965Y0508746D02*
X0661965Y0489650D01*
X0661887Y0488933D02*
X0622420Y0488933D01*
X0671965Y0494011D02*
X0671965Y0508747D01*
X0634865Y0282362D02*
X0633663Y0279458D01*
X0631965Y0277761D01*
X0633137Y0278933D02*
X0654223Y0278933D01*
X0656965Y0278933D02*
X0656965Y0278933D01*
X0659707Y0278933D02*
X0659894Y0278933D01*
X0531840Y0209421D02*
X0531313Y0210146D01*
X0530679Y0210781D01*
X0529953Y0211308D01*
X0529153Y0211715D01*
X0528300Y0211993D01*
X0527414Y0212133D01*
X0526965Y0212133D01*
X0526965Y0206433D01*
X0526965Y0206433D01*
X0532665Y0206433D01*
X0532665Y0206882D01*
X0532525Y0207768D01*
X0532248Y0208621D01*
X0531840Y0209421D01*
X0531965Y0206433D02*
X0531965Y0206433D01*
X0526965Y0203933D02*
X0526965Y0203933D01*
X0526965Y0208933D02*
X0526965Y0208933D01*
X0511842Y0208933D02*
X0507365Y0208933D01*
X0511965Y0206433D02*
X0511965Y0206433D01*
X0462125Y0198933D02*
X0439471Y0198933D01*
X0436965Y0196149D02*
X0436965Y0139389D01*
X0435597Y0138933D02*
X0428844Y0138933D01*
X0428880Y0138918D02*
X0435561Y0138918D01*
X0431965Y0137253D02*
X0431965Y0195558D01*
X0426965Y0195558D02*
X0426965Y0139389D01*
X0423787Y0138933D02*
X0421331Y0138933D01*
X0421367Y0138918D02*
X0423751Y0138918D01*
X0421965Y0138623D02*
X0421965Y0195558D01*
X0416965Y0195558D02*
X0416965Y0138777D01*
X0417306Y0138918D02*
X0393410Y0138918D01*
X0393374Y0138933D02*
X0417342Y0138933D01*
X0411965Y0137241D02*
X0411965Y0195558D01*
X0406965Y0195558D02*
X0406965Y0137253D01*
X0401965Y0137253D02*
X0401965Y0195558D01*
X0396965Y0195558D02*
X0396965Y0137253D01*
X0398458Y0136920D02*
X0399367Y0136920D01*
X0382882Y0126927D02*
X0382228Y0126927D01*
X0382285Y0126984D02*
X0382303Y0127002D01*
X0382303Y0127002D01*
X0382285Y0126984D01*
X0381037Y0125736D01*
X0381037Y0125736D01*
X0379969Y0124668D01*
X0381037Y0125736D01*
X0382285Y0126984D01*
X0381965Y0126664D02*
X0381965Y0123133D01*
X0380230Y0124929D02*
X0384299Y0124929D01*
X0386965Y0123983D02*
X0386965Y0123133D01*
X0391965Y0123133D02*
X0391965Y0123983D01*
X0396965Y0123983D02*
X0396965Y0123133D01*
X0401965Y0123133D02*
X0401965Y0123983D01*
X0406965Y0123983D02*
X0406965Y0123133D01*
X0411965Y0123133D02*
X0411965Y0123996D01*
X0416965Y0123983D02*
X0416965Y0123133D01*
X0421965Y0123133D02*
X0421965Y0123983D01*
X0426965Y0123983D02*
X0426965Y0123133D01*
X0431965Y0123133D02*
X0431965Y0123983D01*
X0436965Y0123983D02*
X0436965Y0123133D01*
X0441965Y0123133D02*
X0441965Y0124471D01*
X0446965Y0123983D02*
X0446965Y0123133D01*
X0451965Y0123133D02*
X0451965Y0123942D01*
X0456965Y0123983D02*
X0456965Y0123133D01*
X0461965Y0123133D02*
X0461965Y0123983D01*
X0466965Y0123983D02*
X0466965Y0123133D01*
X0461965Y0137253D02*
X0461965Y0199318D01*
X0461565Y0203933D02*
X0439865Y0203933D01*
X0439865Y0208933D02*
X0461565Y0208933D01*
X0461565Y0213933D02*
X0439865Y0213933D01*
X0441965Y0218133D02*
X0441965Y0138832D01*
X0441758Y0138918D02*
X0481747Y0138918D01*
X0481783Y0138933D02*
X0441722Y0138933D01*
X0446965Y0137253D02*
X0446965Y0218133D01*
X0451965Y0214970D02*
X0451965Y0136923D01*
X0451954Y0136920D02*
X0451146Y0136920D01*
X0456965Y0137253D02*
X0456965Y0214683D01*
X0451765Y0233933D02*
X0422972Y0233933D01*
X0421965Y0232972D02*
X0421965Y0231700D01*
X0416965Y0242577D02*
X0416965Y0243533D01*
X0381765Y0223933D02*
X0372219Y0223933D01*
X0371965Y0223679D02*
X0371965Y0139349D01*
X0372970Y0138933D02*
X0373291Y0138933D01*
X0373255Y0138918D02*
X0373006Y0138918D01*
X0381037Y0125736D02*
X0381037Y0125736D01*
X0376965Y0123983D02*
X0376965Y0123133D01*
X0371965Y0123133D02*
X0371965Y0124022D01*
X0366965Y0124389D02*
X0366965Y0123133D01*
X0361965Y0123133D02*
X0361965Y0123983D01*
X0356965Y0123983D02*
X0356965Y0123133D01*
X0351965Y0123133D02*
X0351965Y0123983D01*
X0346965Y0124221D02*
X0346965Y0123133D01*
X0345626Y0124929D02*
X0344800Y0124929D01*
X0341965Y0123983D02*
X0341965Y0123133D01*
X0337764Y0126927D02*
X0332690Y0126927D01*
X0332690Y0136920D02*
X0337961Y0136920D01*
X0296965Y0123133D02*
X0296965Y0178533D01*
X0294428Y0178933D02*
X0289502Y0178933D01*
X0286965Y0178533D02*
X0286965Y0123133D01*
X0281965Y0123133D02*
X0281965Y0180261D01*
X0279502Y0178933D02*
X0284428Y0178933D01*
X0276965Y0178533D02*
X0276965Y0123133D01*
X0291965Y0123133D02*
X0291965Y0180261D01*
X0294465Y0223933D02*
X0294965Y0224233D01*
X0301715Y0237733D01*
X0303129Y0228933D02*
X0311765Y0228933D01*
X0276965Y0235383D02*
X0276965Y0238533D01*
X0271965Y0238533D02*
X0271965Y0235383D01*
X0266965Y0235383D02*
X0266965Y0238533D01*
X0261965Y0238533D02*
X0261965Y0235383D01*
X0256965Y0235383D02*
X0256965Y0238533D01*
X0251965Y0238533D02*
X0251965Y0235383D01*
X0246965Y0235383D02*
X0246965Y0238533D01*
X0231765Y0263933D02*
X0190639Y0263933D01*
X0194031Y0274383D02*
X0192120Y0275175D01*
X0244865Y0288933D02*
X0282948Y0288933D01*
X0286965Y0288733D02*
X0286965Y0280087D01*
X0288119Y0278933D02*
X0296515Y0278933D01*
X0296515Y0273933D02*
X0289665Y0273933D01*
X0301965Y0287187D02*
X0301965Y0288733D01*
X0316965Y0288733D02*
X0316965Y0285383D01*
X0321965Y0285383D02*
X0321965Y0288733D01*
X0326965Y0288733D02*
X0326965Y0285383D01*
X0331965Y0285383D02*
X0331965Y0288733D01*
X0333482Y0288933D02*
X0336873Y0288933D01*
X0336965Y0288895D02*
X0336965Y0285383D01*
X0361965Y0269033D02*
X0361965Y0230933D01*
X0351965Y0231700D02*
X0351965Y0243533D01*
X0359365Y0268933D02*
X0374265Y0268933D01*
X0374265Y0273933D02*
X0372219Y0273933D01*
X0369365Y0218933D02*
X0381765Y0218933D01*
X0389065Y0203933D02*
X0367365Y0203933D01*
X0191765Y0193933D02*
X0136165Y0193933D01*
X0136165Y0188933D02*
X0191765Y0188933D01*
X0161965Y0219783D02*
X0161965Y0123133D01*
X0156965Y0123133D02*
X0156965Y0219783D01*
X0151965Y0219783D02*
X0151965Y0123133D01*
X0146965Y0123133D02*
X0146965Y0219783D01*
X0141965Y0219783D02*
X0141965Y0123133D01*
X0136165Y0128933D02*
X0167898Y0128933D01*
X0166965Y0131873D02*
X0166965Y0123133D01*
X0171965Y0123133D02*
X0171965Y0124567D01*
X0166938Y0133933D02*
X0136165Y0133933D01*
X0173165Y0318933D02*
X0178164Y0318933D01*
X0178124Y0323933D02*
X0173165Y0323933D01*
X0173165Y0328933D02*
X0178083Y0328933D01*
X0178043Y0333933D02*
X0173165Y0333933D01*
X0173165Y0338933D02*
X0178002Y0338933D01*
X0177962Y0343933D02*
X0173165Y0343933D01*
X0173165Y0348933D02*
X0177921Y0348933D01*
X0177881Y0353933D02*
X0173165Y0353933D01*
X0173165Y0358933D02*
X0177840Y0358933D01*
X0177800Y0363933D02*
X0173165Y0363933D01*
X0173165Y0368933D02*
X0177759Y0368933D01*
X0177715Y0373933D02*
X0173165Y0373933D01*
M02*
