G75*
%MOIN*%
%OFA0B0*%
%FSLAX25Y25*%
%IPPOS*%
%LPD*%
%AMOC8*
5,1,8,0,0,1.08239X$1,22.5*
%
%ADD10C,0.07400*%
%ADD11R,0.07400X0.07400*%
%ADD12OC8,0.07400*%
%ADD13C,0.05600*%
%ADD14OC8,0.06300*%
%ADD15OC8,0.05600*%
%ADD16C,0.06400*%
%ADD17C,0.07100*%
%ADD18C,0.07600*%
%ADD19OC8,0.07600*%
%ADD20C,0.04000*%
%ADD21OC8,0.06756*%
%ADD22C,0.02000*%
%ADD23C,0.02400*%
%ADD24C,0.01600*%
D10*
X0276965Y0186433D03*
X0286965Y0186433D03*
X0296965Y0186433D03*
X0306965Y0186433D03*
X0316965Y0186433D03*
X0326965Y0186433D03*
X0516965Y0206433D03*
X0526965Y0206433D03*
X0539465Y0265433D03*
X0549465Y0265433D03*
X0626965Y0283933D03*
X0656965Y0283933D03*
X0656965Y0193933D03*
X0656965Y0181433D03*
X0626965Y0181433D03*
X0626965Y0193933D03*
X0426965Y0366728D03*
X0396965Y0366728D03*
X0396965Y0376433D03*
X0386965Y0376433D03*
X0376965Y0376433D03*
X0366965Y0376433D03*
X0356965Y0376433D03*
X0346965Y0376433D03*
X0336965Y0376433D03*
X0326965Y0376433D03*
X0326965Y0363933D03*
X0336965Y0363933D03*
X0346965Y0363933D03*
X0356965Y0363933D03*
X0366965Y0363933D03*
X0376965Y0366433D03*
X0376965Y0356433D03*
X0366965Y0353933D03*
X0356965Y0353933D03*
X0346965Y0353933D03*
X0336965Y0353933D03*
X0326965Y0353933D03*
X0310965Y0353933D03*
X0300965Y0353933D03*
X0290965Y0353933D03*
X0290965Y0363933D03*
X0300965Y0363933D03*
X0310965Y0363933D03*
X0310965Y0376433D03*
X0300965Y0376433D03*
X0290965Y0376433D03*
X0280965Y0376433D03*
X0270965Y0376433D03*
X0260965Y0376433D03*
X0250965Y0376433D03*
X0240965Y0376433D03*
X0223665Y0403908D03*
X0263665Y0403908D03*
X0281965Y0403933D03*
X0321965Y0403933D03*
X0350565Y0418633D03*
X0356670Y0436433D03*
X0390565Y0418633D03*
X0406965Y0413933D03*
X0420090Y0438208D03*
X0446965Y0413933D03*
X0464940Y0418933D03*
X0460090Y0438208D03*
X0466965Y0466728D03*
X0476965Y0466728D03*
X0486965Y0466728D03*
X0496965Y0466728D03*
X0491965Y0476728D03*
X0481965Y0476728D03*
X0471965Y0476728D03*
X0530815Y0444138D03*
X0566965Y0466728D03*
X0576965Y0466728D03*
X0586965Y0466728D03*
X0596965Y0466728D03*
X0591965Y0476728D03*
X0581965Y0476728D03*
X0571965Y0476728D03*
X0570815Y0444138D03*
X0561965Y0413933D03*
X0521965Y0413933D03*
X0504940Y0418933D03*
X0516965Y0376433D03*
X0526965Y0376433D03*
X0396965Y0466728D03*
X0386965Y0466728D03*
X0376965Y0466728D03*
X0366965Y0466728D03*
X0371965Y0476728D03*
X0381965Y0476728D03*
X0391965Y0476728D03*
X0316670Y0436433D03*
X0296965Y0466728D03*
X0286965Y0466728D03*
X0276965Y0466728D03*
X0266965Y0466728D03*
X0271965Y0476728D03*
X0281965Y0476728D03*
X0291965Y0476728D03*
X0236965Y0453933D03*
X0196965Y0453933D03*
X0174465Y0441728D03*
X0174465Y0471728D03*
D11*
X0301965Y0476728D03*
X0401965Y0476728D03*
X0501965Y0476728D03*
X0601965Y0476728D03*
D12*
X0526965Y0256433D03*
X0516965Y0256433D03*
X0516965Y0246433D03*
X0526965Y0246433D03*
D13*
X0616965Y0243933D02*
X0616965Y0249533D01*
X0626965Y0249533D02*
X0626965Y0243933D01*
X0636965Y0243933D02*
X0636965Y0249533D01*
X0646965Y0249533D02*
X0646965Y0243933D01*
X0646965Y0213933D02*
X0646965Y0208333D01*
X0636965Y0208333D02*
X0636965Y0213933D01*
X0626965Y0213933D02*
X0626965Y0208333D01*
X0616965Y0208333D02*
X0616965Y0213933D01*
X0515715Y0436133D02*
X0515715Y0441733D01*
X0508215Y0441733D02*
X0508215Y0436133D01*
X0486965Y0436133D02*
X0486965Y0441733D01*
X0479465Y0441733D02*
X0479465Y0436133D01*
X0525715Y0468338D02*
X0525715Y0473938D01*
X0533215Y0473938D02*
X0533215Y0468338D01*
X0432560Y0472683D02*
X0426960Y0472683D01*
X0426960Y0480183D02*
X0432560Y0480183D01*
X0405715Y0447408D02*
X0405715Y0441808D01*
X0398215Y0441808D02*
X0398215Y0447408D01*
X0380715Y0443083D02*
X0380715Y0437483D01*
X0373215Y0437483D02*
X0373215Y0443083D01*
X0338215Y0468338D02*
X0338215Y0473938D01*
X0330715Y0473938D02*
X0330715Y0468338D01*
X0295715Y0436733D02*
X0295715Y0431133D01*
X0288215Y0431133D02*
X0288215Y0436733D01*
D14*
X0216965Y0308933D03*
X0196965Y0308933D03*
X0241965Y0268933D03*
X0261965Y0268933D03*
X0311965Y0273933D03*
X0331965Y0273933D03*
X0384465Y0273933D03*
X0404465Y0273933D03*
X0446965Y0268933D03*
X0466965Y0268933D03*
X0461965Y0228933D03*
X0481965Y0228933D03*
X0411965Y0223933D03*
X0391965Y0223933D03*
X0341965Y0223933D03*
X0321965Y0223933D03*
X0271965Y0223933D03*
X0251965Y0223933D03*
X0221965Y0193933D03*
X0201965Y0193933D03*
D15*
X0234465Y0193933D03*
X0244465Y0193933D03*
X0284465Y0223933D03*
X0294465Y0223933D03*
X0284465Y0268933D03*
X0274465Y0268933D03*
X0239465Y0308933D03*
X0229465Y0308933D03*
X0344465Y0273933D03*
X0354465Y0273933D03*
X0414465Y0273933D03*
X0424465Y0273933D03*
X0479465Y0268933D03*
X0489465Y0268933D03*
X0494465Y0233933D03*
X0504465Y0233933D03*
X0434465Y0223933D03*
X0424465Y0223933D03*
X0364465Y0223933D03*
X0354465Y0223933D03*
D16*
X0354465Y0209633D02*
X0354465Y0203233D01*
X0344465Y0203233D02*
X0344465Y0209633D01*
X0334465Y0209633D02*
X0334465Y0203233D01*
X0284465Y0203233D02*
X0284465Y0209633D01*
X0274465Y0209633D02*
X0274465Y0203233D01*
X0264465Y0203233D02*
X0264465Y0209633D01*
X0234465Y0179633D02*
X0234465Y0173233D01*
X0224465Y0173233D02*
X0224465Y0179633D01*
X0214465Y0179633D02*
X0214465Y0173233D01*
X0254465Y0248233D02*
X0254465Y0254633D01*
X0264465Y0254633D02*
X0264465Y0248233D01*
X0274465Y0248233D02*
X0274465Y0254633D01*
X0324465Y0253233D02*
X0324465Y0259633D01*
X0334465Y0259633D02*
X0334465Y0253233D01*
X0344465Y0253233D02*
X0344465Y0259633D01*
X0394465Y0259633D02*
X0394465Y0253233D01*
X0404465Y0253233D02*
X0404465Y0259633D01*
X0414465Y0259633D02*
X0414465Y0253233D01*
X0459465Y0249633D02*
X0459465Y0243233D01*
X0469465Y0243233D02*
X0469465Y0249633D01*
X0479465Y0249633D02*
X0479465Y0243233D01*
X0474465Y0209633D02*
X0474465Y0203233D01*
X0484465Y0203233D02*
X0484465Y0209633D01*
X0494465Y0209633D02*
X0494465Y0203233D01*
X0424465Y0203233D02*
X0424465Y0209633D01*
X0414465Y0209633D02*
X0414465Y0203233D01*
X0404465Y0203233D02*
X0404465Y0209633D01*
X0403765Y0303933D02*
X0410165Y0303933D01*
X0410165Y0313933D02*
X0403765Y0313933D01*
X0403765Y0323933D02*
X0410165Y0323933D01*
X0433765Y0323933D02*
X0440165Y0323933D01*
X0440165Y0313933D02*
X0433765Y0313933D01*
X0433765Y0303933D02*
X0440165Y0303933D01*
X0463765Y0303933D02*
X0470165Y0303933D01*
X0470165Y0313933D02*
X0463765Y0313933D01*
X0463765Y0323933D02*
X0470165Y0323933D01*
X0377465Y0323258D02*
X0371065Y0323258D01*
X0371065Y0313258D02*
X0377465Y0313258D01*
X0377465Y0303258D02*
X0371065Y0303258D01*
X0347565Y0303333D02*
X0341165Y0303333D01*
X0341165Y0313333D02*
X0347565Y0313333D01*
X0347565Y0323333D02*
X0341165Y0323333D01*
X0325165Y0323933D02*
X0318765Y0323933D01*
X0318765Y0313933D02*
X0325165Y0313933D01*
X0325165Y0303933D02*
X0318765Y0303933D01*
X0295165Y0303933D02*
X0288765Y0303933D01*
X0288765Y0313933D02*
X0295165Y0313933D01*
X0295165Y0323933D02*
X0288765Y0323933D01*
X0265165Y0323933D02*
X0258765Y0323933D01*
X0258765Y0313933D02*
X0265165Y0313933D01*
X0265165Y0333933D02*
X0258765Y0333933D01*
X0235165Y0338933D02*
X0228765Y0338933D01*
X0228765Y0348933D02*
X0235165Y0348933D01*
X0235165Y0358933D02*
X0228765Y0358933D01*
X0229465Y0294633D02*
X0229465Y0288233D01*
X0219465Y0288233D02*
X0219465Y0294633D01*
X0209465Y0294633D02*
X0209465Y0288233D01*
X0568765Y0368933D02*
X0575165Y0368933D01*
X0575165Y0378933D02*
X0568765Y0378933D01*
X0568765Y0388933D02*
X0575165Y0388933D01*
D17*
X0721486Y0286413D02*
X0728586Y0286413D01*
X0728586Y0266728D02*
X0721486Y0266728D01*
X0721486Y0247043D02*
X0728586Y0247043D01*
X0728507Y0206886D02*
X0721407Y0206886D01*
X0721407Y0187201D02*
X0728507Y0187201D01*
X0728507Y0167516D02*
X0721407Y0167516D01*
X0721407Y0147831D02*
X0728507Y0147831D01*
X0150436Y0457043D02*
X0143336Y0457043D01*
X0143336Y0476728D02*
X0150436Y0476728D01*
X0150436Y0496413D02*
X0143336Y0496413D01*
X0140336Y0292691D02*
X0147436Y0292691D01*
X0147436Y0273006D02*
X0140336Y0273006D01*
X0140336Y0253321D02*
X0147436Y0253321D01*
X0147436Y0233636D02*
X0140336Y0233636D01*
D18*
X0244465Y0428933D03*
X0219760Y0486433D03*
D19*
X0219760Y0472683D03*
X0258215Y0428933D03*
D20*
X0197765Y0308833D02*
X0196965Y0308933D01*
X0197765Y0308833D02*
X0197765Y0303433D01*
X0209465Y0291733D01*
X0209465Y0291433D01*
X0210365Y0289933D01*
X0210365Y0280933D01*
X0223415Y0269233D01*
X0240065Y0269233D01*
X0241965Y0268933D01*
X0242765Y0268333D01*
X0242765Y0263833D01*
X0254465Y0252133D01*
X0254465Y0251433D01*
X0255365Y0250333D01*
X0255365Y0243633D01*
X0260765Y0238233D01*
X0261665Y0236433D01*
X0254465Y0224233D01*
X0251965Y0223933D01*
X0251765Y0223733D01*
X0251765Y0214108D01*
X0259440Y0206433D01*
X0264465Y0206433D01*
X0264590Y0206308D01*
X0264590Y0170233D01*
X0252440Y0158083D01*
X0223415Y0158083D01*
X0214465Y0167033D01*
X0214465Y0176433D01*
X0213965Y0176533D01*
X0202265Y0188233D01*
X0202265Y0193633D01*
X0201965Y0193933D01*
X0261665Y0236433D02*
X0299465Y0236433D01*
X0306965Y0228933D01*
X0306965Y0217633D01*
X0351665Y0172933D01*
X0678465Y0172933D01*
X0711765Y0206233D01*
X0699065Y0228933D01*
X0691965Y0228933D01*
X0724265Y0206233D02*
X0724957Y0206886D01*
X0724265Y0206233D02*
X0711765Y0206233D01*
X0581965Y0476728D02*
X0581965Y0483933D01*
X0584465Y0486433D01*
X0669465Y0486433D01*
D21*
X0669465Y0486433D03*
X0604465Y0438933D03*
X0544265Y0453733D03*
X0544265Y0479833D03*
X0465965Y0451033D03*
X0446165Y0451933D03*
X0421865Y0460933D03*
X0447065Y0485233D03*
X0434240Y0426058D03*
X0468665Y0401533D03*
X0413765Y0396133D03*
X0434015Y0360583D03*
X0454040Y0355858D03*
X0411965Y0339433D03*
X0389465Y0324133D03*
X0360440Y0313333D03*
X0365515Y0287283D03*
X0278215Y0286433D03*
X0278215Y0307683D03*
X0247265Y0336733D03*
X0247265Y0365533D03*
X0234440Y0392983D03*
X0210365Y0424033D03*
X0192365Y0394333D03*
X0165365Y0432133D03*
X0176965Y0496433D03*
X0316565Y0450133D03*
X0326465Y0451033D03*
X0336365Y0451933D03*
X0360665Y0447433D03*
X0319265Y0426733D03*
X0309365Y0415933D03*
X0392165Y0358333D03*
X0500165Y0360133D03*
X0533465Y0390733D03*
X0554465Y0378933D03*
X0596965Y0388933D03*
X0459665Y0287008D03*
X0497690Y0258633D03*
X0613065Y0279133D03*
X0616940Y0259333D03*
X0626965Y0258933D03*
X0691965Y0228933D03*
X0595715Y0186433D03*
X0601965Y0158933D03*
X0347165Y0483433D03*
D22*
X0136165Y0226975D02*
X0136165Y0123133D01*
X0738001Y0123133D01*
X0738001Y0508749D01*
X0614797Y0508745D01*
X0615367Y0508175D01*
X0616749Y0505781D01*
X0617464Y0503111D01*
X0617464Y0500346D01*
X0616749Y0497676D01*
X0615367Y0495282D01*
X0613412Y0493327D01*
X0612210Y0492633D01*
X0664948Y0492633D01*
X0666326Y0494011D01*
X0672604Y0494011D01*
X0677043Y0489572D01*
X0677043Y0483294D01*
X0672604Y0478855D01*
X0666326Y0478855D01*
X0664948Y0480233D01*
X0609865Y0480233D01*
X0609865Y0472193D01*
X0609226Y0470649D01*
X0608044Y0469468D01*
X0606501Y0468828D01*
X0604646Y0468828D01*
X0604865Y0468300D01*
X0604865Y0465157D01*
X0603663Y0462253D01*
X0601440Y0460031D01*
X0598537Y0458828D01*
X0595394Y0458828D01*
X0592490Y0460031D01*
X0591965Y0460556D01*
X0591440Y0460031D01*
X0588537Y0458828D01*
X0588045Y0458828D01*
X0603099Y0446511D01*
X0607604Y0446511D01*
X0612043Y0442072D01*
X0612043Y0435794D01*
X0607604Y0431355D01*
X0601614Y0431355D01*
X0626204Y0406765D01*
X0626965Y0404928D01*
X0626965Y0315438D01*
X0626204Y0313601D01*
X0624797Y0312194D01*
X0624797Y0312194D01*
X0564797Y0252194D01*
X0562960Y0251433D01*
X0533138Y0251433D01*
X0533137Y0251433D01*
X0534865Y0249705D01*
X0534865Y0243161D01*
X0530238Y0238533D01*
X0523693Y0238533D01*
X0521965Y0240261D01*
X0521965Y0209175D01*
X0521840Y0209421D01*
X0521313Y0210146D01*
X0520679Y0210781D01*
X0519953Y0211308D01*
X0519153Y0211715D01*
X0518300Y0211993D01*
X0517414Y0212133D01*
X0516965Y0212133D01*
X0516517Y0212133D01*
X0515630Y0211993D01*
X0514777Y0211715D01*
X0513978Y0211308D01*
X0513252Y0210781D01*
X0512617Y0210146D01*
X0512090Y0209421D01*
X0511683Y0208621D01*
X0511406Y0207768D01*
X0511265Y0206882D01*
X0511265Y0206433D01*
X0511265Y0205984D01*
X0511406Y0205098D01*
X0511683Y0204245D01*
X0512090Y0203446D01*
X0512617Y0202720D01*
X0513252Y0202085D01*
X0513737Y0201733D01*
X0501854Y0201733D01*
X0501865Y0201761D01*
X0501865Y0206879D01*
X0507411Y0212425D01*
X0508874Y0213887D01*
X0509665Y0215799D01*
X0509665Y0229234D01*
X0511465Y0231034D01*
X0511465Y0236833D01*
X0507365Y0240933D01*
X0501566Y0240933D01*
X0497910Y0237277D01*
X0496453Y0238733D01*
X0494465Y0238733D01*
X0492477Y0238733D01*
X0489665Y0235921D01*
X0489665Y0233933D01*
X0489665Y0231945D01*
X0492477Y0229133D01*
X0494465Y0229133D01*
X0494465Y0233933D01*
X0489665Y0233933D01*
X0494465Y0233933D01*
X0494465Y0233933D01*
X0484248Y0233933D01*
X0484098Y0234083D02*
X0481965Y0234083D01*
X0479832Y0234083D01*
X0476815Y0231066D01*
X0476815Y0228933D01*
X0476815Y0226800D01*
X0479832Y0223783D01*
X0481965Y0223783D01*
X0481965Y0228933D01*
X0476815Y0228933D01*
X0481965Y0228933D01*
X0481965Y0228933D01*
X0469315Y0228933D01*
X0469315Y0225889D02*
X0469315Y0231978D01*
X0465065Y0236228D01*
X0465065Y0238368D01*
X0465739Y0239041D01*
X0465904Y0239440D01*
X0466078Y0239267D01*
X0466740Y0238786D01*
X0467469Y0238414D01*
X0468248Y0238161D01*
X0469056Y0238033D01*
X0469465Y0238033D01*
X0469465Y0246433D01*
X0469465Y0246433D01*
X0469465Y0254833D01*
X0469056Y0254833D01*
X0468248Y0254705D01*
X0467469Y0254452D01*
X0466740Y0254080D01*
X0466078Y0253599D01*
X0465904Y0253426D01*
X0465739Y0253825D01*
X0463657Y0255906D01*
X0460937Y0257033D01*
X0457993Y0257033D01*
X0455273Y0255906D01*
X0454845Y0255478D01*
X0452465Y0256899D01*
X0452465Y0264039D01*
X0454315Y0265889D01*
X0454315Y0271978D01*
X0450010Y0276283D01*
X0443921Y0276283D01*
X0442271Y0274633D01*
X0442166Y0274633D01*
X0440181Y0273811D01*
X0438662Y0272292D01*
X0437840Y0270307D01*
X0437840Y0268159D01*
X0438662Y0266174D01*
X0440181Y0264655D01*
X0441320Y0264183D01*
X0441665Y0263839D01*
X0441665Y0254226D01*
X0441567Y0253552D01*
X0441665Y0253162D01*
X0441665Y0252759D01*
X0441926Y0252130D01*
X0442093Y0251470D01*
X0442333Y0251146D01*
X0442487Y0250774D01*
X0442969Y0250293D01*
X0443376Y0249746D01*
X0443721Y0249540D01*
X0444006Y0249255D01*
X0444636Y0248995D01*
X0452065Y0244561D01*
X0452065Y0241761D01*
X0453192Y0239041D01*
X0454265Y0237968D01*
X0454265Y0229959D01*
X0454615Y0229114D01*
X0454615Y0225889D01*
X0456271Y0224233D01*
X0450719Y0224233D01*
X0450606Y0224274D01*
X0449649Y0224233D01*
X0448691Y0224233D01*
X0448580Y0224187D01*
X0448460Y0224182D01*
X0447591Y0223778D01*
X0446706Y0223411D01*
X0446621Y0223326D01*
X0446512Y0223275D01*
X0445865Y0222569D01*
X0445187Y0221892D01*
X0445141Y0221781D01*
X0439524Y0215658D01*
X0439665Y0215999D01*
X0439665Y0219234D01*
X0441465Y0221034D01*
X0441465Y0226833D01*
X0437365Y0230933D01*
X0431566Y0230933D01*
X0427910Y0227277D01*
X0426453Y0228733D01*
X0424465Y0228733D01*
X0422477Y0228733D01*
X0419665Y0225921D01*
X0419665Y0223933D01*
X0419665Y0221945D01*
X0422477Y0219133D01*
X0424465Y0219133D01*
X0424465Y0223933D01*
X0419665Y0223933D01*
X0424465Y0223933D01*
X0424465Y0223933D01*
X0411965Y0223933D01*
X0406815Y0223933D01*
X0406815Y0221800D01*
X0409832Y0218783D01*
X0411965Y0218783D01*
X0411965Y0223933D01*
X0411965Y0223933D01*
X0399315Y0223933D01*
X0399315Y0225738D02*
X0399315Y0220889D01*
X0398531Y0220104D01*
X0402009Y0216626D01*
X0402993Y0217033D01*
X0405937Y0217033D01*
X0408657Y0215906D01*
X0410739Y0213825D01*
X0410904Y0213426D01*
X0411078Y0213599D01*
X0411740Y0214080D01*
X0412469Y0214452D01*
X0413248Y0214705D01*
X0414056Y0214833D01*
X0414465Y0214833D01*
X0414465Y0206433D01*
X0414465Y0206433D01*
X0414465Y0214833D01*
X0414874Y0214833D01*
X0415683Y0214705D01*
X0416461Y0214452D01*
X0417191Y0214080D01*
X0417853Y0213599D01*
X0418026Y0213426D01*
X0418192Y0213825D01*
X0420273Y0215906D01*
X0422993Y0217033D01*
X0425937Y0217033D01*
X0426767Y0216689D01*
X0429265Y0219187D01*
X0429265Y0219234D01*
X0427910Y0220589D01*
X0426453Y0219133D01*
X0424465Y0219133D01*
X0424465Y0223933D01*
X0424465Y0223933D01*
X0424465Y0228733D01*
X0424465Y0223933D01*
X0424465Y0223933D01*
X0421965Y0223933D02*
X0421965Y0223933D01*
X0421965Y0219645D02*
X0421965Y0216607D01*
X0418300Y0213933D02*
X0417394Y0213933D01*
X0416965Y0214195D02*
X0416965Y0221650D01*
X0417115Y0221800D02*
X0417115Y0223933D01*
X0411965Y0223933D01*
X0406815Y0223933D01*
X0406815Y0226066D01*
X0409832Y0229083D01*
X0411965Y0229083D01*
X0411965Y0223933D01*
X0411965Y0223933D01*
X0411965Y0214195D01*
X0411537Y0213933D02*
X0410630Y0213933D01*
X0414465Y0213933D02*
X0414465Y0213933D01*
X0414098Y0218783D02*
X0417115Y0221800D01*
X0417115Y0223933D02*
X0417115Y0226066D01*
X0414098Y0229083D01*
X0411965Y0229083D01*
X0411965Y0223933D01*
X0411965Y0223933D01*
X0411965Y0218783D01*
X0414098Y0218783D01*
X0414248Y0218933D02*
X0429011Y0218933D01*
X0426965Y0219645D02*
X0426965Y0216887D01*
X0434465Y0217033D02*
X0424565Y0207133D01*
X0424465Y0206433D01*
X0414465Y0208933D02*
X0414465Y0208933D01*
X0411965Y0218933D02*
X0411965Y0218933D01*
X0409682Y0218933D02*
X0399702Y0218933D01*
X0401965Y0216670D02*
X0401965Y0248671D01*
X0401740Y0248786D02*
X0402469Y0248414D01*
X0403248Y0248161D01*
X0404056Y0248033D01*
X0404465Y0248033D01*
X0404465Y0256433D01*
X0404465Y0256433D01*
X0404465Y0264833D01*
X0404056Y0264833D01*
X0403248Y0264705D01*
X0402469Y0264452D01*
X0401740Y0264080D01*
X0401078Y0263599D01*
X0400904Y0263426D01*
X0400739Y0263825D01*
X0398657Y0265906D01*
X0395937Y0267033D01*
X0392993Y0267033D01*
X0391939Y0266596D01*
X0389865Y0268670D01*
X0389865Y0268939D01*
X0391815Y0270889D01*
X0391815Y0276978D01*
X0387510Y0281283D01*
X0381421Y0281283D01*
X0377115Y0276978D01*
X0377115Y0270889D01*
X0379065Y0268939D01*
X0379065Y0265359D01*
X0379887Y0263374D01*
X0381406Y0261855D01*
X0387065Y0256196D01*
X0387065Y0251761D01*
X0388192Y0249041D01*
X0388565Y0248668D01*
X0388565Y0230928D01*
X0387271Y0229633D01*
X0379954Y0229633D01*
X0365441Y0239694D01*
X0365024Y0240111D01*
X0364566Y0240301D01*
X0364159Y0240583D01*
X0363583Y0240708D01*
X0363039Y0240933D01*
X0362544Y0240933D01*
X0362060Y0241038D01*
X0361480Y0240933D01*
X0340302Y0240933D01*
X0332990Y0248245D01*
X0333248Y0248161D01*
X0334056Y0248033D01*
X0334465Y0248033D01*
X0334465Y0256433D01*
X0334465Y0256433D01*
X0334465Y0264833D01*
X0334056Y0264833D01*
X0333248Y0264705D01*
X0332469Y0264452D01*
X0331740Y0264080D01*
X0331078Y0263599D01*
X0330904Y0263426D01*
X0330739Y0263825D01*
X0328657Y0265906D01*
X0325937Y0267033D01*
X0322993Y0267033D01*
X0321939Y0266596D01*
X0318481Y0270054D01*
X0319315Y0270889D01*
X0319315Y0276978D01*
X0315010Y0281283D01*
X0308921Y0281283D01*
X0304615Y0276978D01*
X0304615Y0270889D01*
X0306665Y0268839D01*
X0306665Y0267759D01*
X0307487Y0265774D01*
X0317065Y0256196D01*
X0317065Y0251761D01*
X0318192Y0249041D01*
X0319265Y0247968D01*
X0319265Y0231283D01*
X0318921Y0231283D01*
X0314615Y0226978D01*
X0314615Y0220889D01*
X0316565Y0218939D01*
X0316565Y0217759D01*
X0317242Y0216124D01*
X0313165Y0220201D01*
X0313165Y0230166D01*
X0312221Y0232445D01*
X0304721Y0239945D01*
X0302977Y0241689D01*
X0300698Y0242633D01*
X0279330Y0242633D01*
X0280739Y0244041D01*
X0281865Y0246761D01*
X0281865Y0251479D01*
X0288574Y0258187D01*
X0289365Y0260099D01*
X0289365Y0263934D01*
X0291465Y0266034D01*
X0291465Y0271833D01*
X0287365Y0275933D01*
X0281566Y0275933D01*
X0277910Y0272277D01*
X0276453Y0273733D01*
X0274465Y0273733D01*
X0272477Y0273733D01*
X0269665Y0270921D01*
X0269665Y0268933D01*
X0269665Y0266945D01*
X0272477Y0264133D01*
X0274465Y0264133D01*
X0274465Y0268933D01*
X0269665Y0268933D01*
X0274465Y0268933D01*
X0274465Y0268933D01*
X0261965Y0268933D01*
X0256815Y0268933D01*
X0256815Y0266800D01*
X0259832Y0263783D01*
X0261965Y0263783D01*
X0261965Y0268933D01*
X0261965Y0268933D01*
X0249315Y0268933D01*
X0249315Y0266051D02*
X0249315Y0271978D01*
X0245010Y0276283D01*
X0238921Y0276283D01*
X0238071Y0275433D01*
X0225788Y0275433D01*
X0216565Y0283701D01*
X0216565Y0283913D01*
X0216740Y0283786D01*
X0217469Y0283414D01*
X0218248Y0283161D01*
X0219056Y0283033D01*
X0219465Y0283033D01*
X0219465Y0291433D01*
X0219465Y0291433D01*
X0219465Y0299833D01*
X0219056Y0299833D01*
X0218248Y0299705D01*
X0217469Y0299452D01*
X0216740Y0299080D01*
X0216078Y0298599D01*
X0215904Y0298426D01*
X0215739Y0298825D01*
X0213657Y0300906D01*
X0210937Y0302033D01*
X0207993Y0302033D01*
X0207951Y0302016D01*
X0204196Y0305770D01*
X0204315Y0305889D01*
X0204315Y0311978D01*
X0200010Y0316283D01*
X0193921Y0316283D01*
X0189615Y0311978D01*
X0189615Y0305889D01*
X0191565Y0303939D01*
X0191565Y0302200D01*
X0192509Y0299921D01*
X0202065Y0290365D01*
X0202065Y0286761D01*
X0203192Y0284041D01*
X0204165Y0283068D01*
X0204165Y0281992D01*
X0204107Y0281827D01*
X0204165Y0280764D01*
X0204165Y0279700D01*
X0204232Y0279538D01*
X0204242Y0279364D01*
X0204702Y0278404D01*
X0205109Y0277421D01*
X0205233Y0277298D01*
X0205308Y0277140D01*
X0206101Y0276429D01*
X0206853Y0275677D01*
X0207015Y0275610D01*
X0219151Y0264729D01*
X0219903Y0263977D01*
X0220065Y0263910D01*
X0220195Y0263793D01*
X0221199Y0263440D01*
X0222182Y0263033D01*
X0222357Y0263033D01*
X0222521Y0262975D01*
X0223584Y0263033D01*
X0236565Y0263033D01*
X0236565Y0262600D01*
X0237509Y0260321D01*
X0247065Y0250765D01*
X0247065Y0246761D01*
X0248192Y0244041D01*
X0249165Y0243068D01*
X0249165Y0242400D01*
X0250109Y0240121D01*
X0254218Y0236012D01*
X0251427Y0231283D01*
X0248921Y0231283D01*
X0244615Y0226978D01*
X0244615Y0220889D01*
X0245565Y0219939D01*
X0245565Y0212875D01*
X0246509Y0210596D01*
X0248253Y0208852D01*
X0255928Y0201177D01*
X0257593Y0200487D01*
X0258192Y0199041D01*
X0258390Y0198843D01*
X0258390Y0172801D01*
X0249872Y0164283D01*
X0225983Y0164283D01*
X0220881Y0169385D01*
X0220904Y0169440D01*
X0221078Y0169267D01*
X0221740Y0168786D01*
X0222469Y0168414D01*
X0223248Y0168161D01*
X0224056Y0168033D01*
X0224465Y0168033D01*
X0224465Y0176433D01*
X0224465Y0176433D01*
X0224465Y0184833D01*
X0224056Y0184833D01*
X0223248Y0184705D01*
X0222469Y0184452D01*
X0221740Y0184080D01*
X0221078Y0183599D01*
X0220904Y0183426D01*
X0220739Y0183825D01*
X0218657Y0185906D01*
X0215937Y0187033D01*
X0212993Y0187033D01*
X0212456Y0186810D01*
X0208846Y0190420D01*
X0209315Y0190889D01*
X0209315Y0196978D01*
X0205010Y0201283D01*
X0198921Y0201283D01*
X0194615Y0196978D01*
X0194615Y0190889D01*
X0196065Y0189439D01*
X0196065Y0187000D01*
X0197009Y0184721D01*
X0207065Y0174665D01*
X0207065Y0171761D01*
X0208192Y0169041D01*
X0208265Y0168968D01*
X0208265Y0165800D01*
X0209209Y0163521D01*
X0218159Y0154571D01*
X0219903Y0152827D01*
X0222182Y0151883D01*
X0253673Y0151883D01*
X0255952Y0152827D01*
X0268102Y0164977D01*
X0269846Y0166721D01*
X0270790Y0169000D01*
X0270790Y0181436D01*
X0272490Y0179736D01*
X0275394Y0178533D01*
X0278537Y0178533D01*
X0281440Y0179736D01*
X0281965Y0180261D01*
X0282490Y0179736D01*
X0285394Y0178533D01*
X0288537Y0178533D01*
X0291440Y0179736D01*
X0291965Y0180261D01*
X0292490Y0179736D01*
X0295394Y0178533D01*
X0298537Y0178533D01*
X0301440Y0179736D01*
X0303563Y0181859D01*
X0303978Y0181558D01*
X0304777Y0181151D01*
X0305630Y0180873D01*
X0306517Y0180733D01*
X0306965Y0180733D01*
X0306965Y0186433D01*
X0306965Y0186433D01*
X0306965Y0123133D01*
X0301965Y0123133D02*
X0301965Y0180261D01*
X0299502Y0178933D02*
X0324428Y0178933D01*
X0325394Y0178533D02*
X0326720Y0178533D01*
X0350602Y0146060D01*
X0350757Y0145688D01*
X0351210Y0145235D01*
X0351589Y0144719D01*
X0351934Y0144510D01*
X0352220Y0144225D01*
X0352811Y0143980D01*
X0353359Y0143648D01*
X0353758Y0143588D01*
X0354131Y0143433D01*
X0354771Y0143433D01*
X0355404Y0143337D01*
X0355796Y0143433D01*
X0714845Y0143433D01*
X0717017Y0141261D01*
X0719866Y0140081D01*
X0730049Y0140081D01*
X0732897Y0141261D01*
X0735077Y0143441D01*
X0736257Y0146289D01*
X0736257Y0149372D01*
X0735077Y0152221D01*
X0732897Y0154401D01*
X0730049Y0155581D01*
X0719866Y0155581D01*
X0717017Y0154401D01*
X0716450Y0153833D01*
X0607582Y0153833D01*
X0608532Y0154783D01*
X0685539Y0154783D01*
X0687524Y0155605D01*
X0713720Y0181801D01*
X0715847Y0181801D01*
X0717017Y0180631D01*
X0719866Y0179451D01*
X0730049Y0179451D01*
X0732897Y0180631D01*
X0735077Y0182811D01*
X0736257Y0185659D01*
X0736257Y0188742D01*
X0735077Y0191591D01*
X0732897Y0193771D01*
X0730049Y0194951D01*
X0719866Y0194951D01*
X0717017Y0193771D01*
X0715847Y0192601D01*
X0710409Y0192601D01*
X0708424Y0191779D01*
X0682228Y0165583D01*
X0606032Y0165583D01*
X0605104Y0166511D01*
X0598826Y0166511D01*
X0594387Y0162072D01*
X0594387Y0155794D01*
X0596348Y0153833D01*
X0357796Y0153833D01*
X0346116Y0169714D01*
X0348153Y0167677D01*
X0350432Y0166733D01*
X0679698Y0166733D01*
X0681977Y0167677D01*
X0683721Y0169421D01*
X0714333Y0200033D01*
X0717700Y0200033D01*
X0719866Y0199136D01*
X0730049Y0199136D01*
X0732897Y0200316D01*
X0735077Y0202496D01*
X0736257Y0205344D01*
X0736257Y0208427D01*
X0735077Y0211276D01*
X0732897Y0213456D01*
X0730049Y0214636D01*
X0719866Y0214636D01*
X0717017Y0213456D01*
X0715994Y0212433D01*
X0715401Y0212433D01*
X0704654Y0231642D01*
X0704321Y0232445D01*
X0704057Y0232710D01*
X0703874Y0233036D01*
X0703192Y0233575D01*
X0702577Y0234189D01*
X0702231Y0234332D01*
X0701937Y0234564D01*
X0701101Y0234801D01*
X0700298Y0235133D01*
X0699924Y0235133D01*
X0699564Y0235235D01*
X0698701Y0235133D01*
X0696482Y0235133D01*
X0695104Y0236511D01*
X0688826Y0236511D01*
X0686965Y0234650D01*
X0686965Y0252087D01*
X0695961Y0261083D01*
X0716171Y0261083D01*
X0717096Y0260158D01*
X0719945Y0258978D01*
X0730128Y0258978D01*
X0732976Y0260158D01*
X0735156Y0262338D01*
X0736336Y0265187D01*
X0736336Y0268270D01*
X0735156Y0271118D01*
X0732976Y0273298D01*
X0730128Y0274478D01*
X0719945Y0274478D01*
X0717096Y0273298D01*
X0714916Y0271118D01*
X0714901Y0271083D01*
X0693136Y0271083D01*
X0704061Y0282008D01*
X0714931Y0282008D01*
X0717096Y0279843D01*
X0719945Y0278663D01*
X0730128Y0278663D01*
X0732976Y0279843D01*
X0735156Y0282023D01*
X0736336Y0284872D01*
X0736336Y0287955D01*
X0735156Y0290803D01*
X0732976Y0292984D01*
X0730128Y0294163D01*
X0719945Y0294163D01*
X0717096Y0292984D01*
X0716121Y0292008D01*
X0700996Y0292008D01*
X0699158Y0291247D01*
X0697751Y0289840D01*
X0667376Y0259465D01*
X0666615Y0257628D01*
X0666615Y0231258D01*
X0643621Y0231258D01*
X0641783Y0230497D01*
X0640376Y0229090D01*
X0632726Y0221440D01*
X0631965Y0219603D01*
X0631965Y0239034D01*
X0633000Y0237999D01*
X0635573Y0236933D01*
X0638358Y0236933D01*
X0640930Y0237999D01*
X0642900Y0239968D01*
X0643268Y0240856D01*
X0643304Y0240806D01*
X0643838Y0240272D01*
X0644449Y0239828D01*
X0645123Y0239485D01*
X0645841Y0239251D01*
X0646587Y0239133D01*
X0646965Y0239133D01*
X0646965Y0243933D01*
X0646965Y0243933D01*
X0646965Y0231258D01*
X0651965Y0231258D02*
X0651965Y0281191D01*
X0652090Y0280946D02*
X0652617Y0280220D01*
X0653252Y0279585D01*
X0653978Y0279058D01*
X0654777Y0278651D01*
X0655630Y0278373D01*
X0656517Y0278233D01*
X0656965Y0278233D01*
X0656965Y0283933D01*
X0651265Y0283933D01*
X0651265Y0283484D01*
X0651406Y0282598D01*
X0651683Y0281745D01*
X0652090Y0280946D01*
X0654223Y0278933D02*
X0633138Y0278933D01*
X0633663Y0279458D02*
X0631440Y0277236D01*
X0628655Y0276082D01*
X0639278Y0269904D01*
X0639911Y0269641D01*
X0640164Y0269388D01*
X0640474Y0269208D01*
X0640889Y0268663D01*
X0641374Y0268179D01*
X0641511Y0267848D01*
X0641728Y0267563D01*
X0641903Y0266900D01*
X0642165Y0266267D01*
X0642165Y0265909D01*
X0642257Y0265563D01*
X0642165Y0264884D01*
X0642165Y0254233D01*
X0642900Y0253498D01*
X0643268Y0252610D01*
X0643304Y0252660D01*
X0643838Y0253194D01*
X0644449Y0253638D01*
X0645123Y0253981D01*
X0645841Y0254215D01*
X0646587Y0254333D01*
X0646965Y0254333D01*
X0646965Y0243933D01*
X0646965Y0243933D01*
X0646965Y0239133D01*
X0647343Y0239133D01*
X0648089Y0239251D01*
X0648808Y0239485D01*
X0649481Y0239828D01*
X0650092Y0240272D01*
X0650626Y0240806D01*
X0651071Y0241417D01*
X0651414Y0242091D01*
X0651647Y0242809D01*
X0651765Y0243555D01*
X0651765Y0243933D01*
X0646965Y0243933D01*
X0646965Y0410508D01*
X0647611Y0409862D02*
X0649915Y0408532D01*
X0652485Y0407843D01*
X0655146Y0407843D01*
X0657716Y0408532D01*
X0660021Y0409862D01*
X0661902Y0411744D01*
X0663232Y0414048D01*
X0663921Y0416618D01*
X0663921Y0419279D01*
X0663232Y0421849D01*
X0661902Y0424154D01*
X0660021Y0426035D01*
X0657716Y0427366D01*
X0655146Y0428054D01*
X0652485Y0428054D01*
X0649915Y0427366D01*
X0647611Y0426035D01*
X0645729Y0424154D01*
X0644399Y0421849D01*
X0643710Y0419279D01*
X0643710Y0416618D01*
X0644399Y0414048D01*
X0645729Y0411744D01*
X0647611Y0409862D01*
X0649220Y0408933D02*
X0624036Y0408933D01*
X0621965Y0411004D02*
X0621965Y0480233D01*
X0616965Y0480233D02*
X0616965Y0416004D01*
X0619036Y0413933D02*
X0644465Y0413933D01*
X0643710Y0418933D02*
X0614036Y0418933D01*
X0611965Y0421004D02*
X0611965Y0435716D01*
X0610182Y0433933D02*
X0738001Y0433933D01*
X0738001Y0428933D02*
X0604036Y0428933D01*
X0601965Y0431004D02*
X0601965Y0431355D01*
X0606965Y0431355D02*
X0606965Y0426004D01*
X0609036Y0423933D02*
X0645602Y0423933D01*
X0646965Y0425390D02*
X0646965Y0480233D01*
X0641965Y0480233D02*
X0641965Y0266750D01*
X0640683Y0268933D02*
X0676844Y0268933D01*
X0676965Y0269054D02*
X0676965Y0483216D01*
X0677043Y0483933D02*
X0738001Y0483933D01*
X0738001Y0478933D02*
X0672682Y0478933D01*
X0671965Y0478855D02*
X0671965Y0264054D01*
X0671844Y0263933D02*
X0642165Y0263933D01*
X0642165Y0258933D02*
X0667156Y0258933D01*
X0666965Y0258473D02*
X0666965Y0478855D01*
X0666248Y0478933D02*
X0609865Y0478933D01*
X0611965Y0480233D02*
X0611965Y0442150D01*
X0610182Y0443933D02*
X0738001Y0443933D01*
X0738001Y0438933D02*
X0612043Y0438933D01*
X0606965Y0446511D02*
X0606965Y0469021D01*
X0606753Y0468933D02*
X0738001Y0468933D01*
X0738001Y0463933D02*
X0604358Y0463933D01*
X0601965Y0460556D02*
X0601965Y0447439D01*
X0600139Y0448933D02*
X0738001Y0448933D01*
X0738001Y0453933D02*
X0594028Y0453933D01*
X0591965Y0455621D02*
X0591965Y0460556D01*
X0588789Y0458933D02*
X0595141Y0458933D01*
X0596965Y0458828D02*
X0596965Y0451530D01*
X0598789Y0458933D02*
X0738001Y0458933D01*
X0738001Y0473933D02*
X0609865Y0473933D01*
X0626965Y0480233D02*
X0626965Y0291833D01*
X0625394Y0291833D02*
X0622490Y0290630D01*
X0620268Y0288408D01*
X0619065Y0285504D01*
X0619065Y0283850D01*
X0616204Y0286711D01*
X0609926Y0286711D01*
X0605487Y0282272D01*
X0605487Y0275994D01*
X0609926Y0271555D01*
X0615752Y0271555D01*
X0624425Y0266511D01*
X0623826Y0266511D01*
X0622153Y0264837D01*
X0620079Y0266911D01*
X0613801Y0266911D01*
X0609362Y0262472D01*
X0609362Y0256194D01*
X0611545Y0254012D01*
X0611031Y0253498D01*
X0609965Y0250925D01*
X0609965Y0242541D01*
X0611031Y0239968D01*
X0613000Y0237999D01*
X0615573Y0236933D01*
X0618358Y0236933D01*
X0620930Y0237999D01*
X0621965Y0239034D01*
X0621965Y0218833D01*
X0620930Y0219867D01*
X0618358Y0220933D01*
X0615573Y0220933D01*
X0613000Y0219867D01*
X0611031Y0217898D01*
X0609965Y0215325D01*
X0609965Y0206941D01*
X0611031Y0204368D01*
X0613000Y0202399D01*
X0615573Y0201333D01*
X0618358Y0201333D01*
X0620930Y0202399D01*
X0621965Y0203434D01*
X0621965Y0203434D01*
X0621965Y0200105D01*
X0620268Y0198408D01*
X0619065Y0195504D01*
X0619065Y0192362D01*
X0620268Y0189458D01*
X0621965Y0187761D01*
X0621965Y0187605D01*
X0620268Y0185908D01*
X0619065Y0183004D01*
X0619065Y0179862D01*
X0619367Y0179133D01*
X0599132Y0179133D01*
X0603293Y0183294D01*
X0603293Y0189572D01*
X0598854Y0194011D01*
X0595774Y0194011D01*
X0590393Y0199392D01*
X0588874Y0200911D01*
X0586889Y0201733D01*
X0530194Y0201733D01*
X0530679Y0202085D01*
X0531313Y0202720D01*
X0531840Y0203446D01*
X0532248Y0204245D01*
X0532525Y0205098D01*
X0532665Y0205984D01*
X0532665Y0206433D01*
X0526965Y0206433D01*
X0521265Y0206433D01*
X0516965Y0206433D01*
X0511265Y0206433D01*
X0516965Y0206433D01*
X0516965Y0206433D01*
X0516965Y0212133D01*
X0516965Y0206433D01*
X0516965Y0206433D01*
X0516965Y0238533D01*
X0513693Y0238533D02*
X0520237Y0238533D01*
X0521965Y0240261D01*
X0520637Y0238933D02*
X0523293Y0238933D01*
X0526965Y0238533D02*
X0526965Y0206433D01*
X0526965Y0206433D01*
X0516965Y0206433D01*
X0516965Y0206433D01*
X0516965Y0208933D02*
X0516965Y0208933D01*
X0511965Y0209175D02*
X0511965Y0240261D01*
X0513293Y0238933D02*
X0509365Y0238933D01*
X0506965Y0240933D02*
X0506965Y0266283D01*
X0505694Y0266283D02*
X0531565Y0266283D01*
X0531565Y0263862D01*
X0532171Y0262400D01*
X0530238Y0264333D01*
X0523693Y0264333D01*
X0521965Y0262605D01*
X0521965Y0266283D01*
X0520237Y0264333D02*
X0521965Y0262605D01*
X0520637Y0263933D02*
X0523293Y0263933D01*
X0520237Y0264333D02*
X0513693Y0264333D01*
X0509065Y0259705D01*
X0509065Y0253161D01*
X0510793Y0251433D01*
X0509065Y0249705D01*
X0509065Y0243161D01*
X0513693Y0238533D01*
X0511465Y0233933D02*
X0666615Y0233933D01*
X0666615Y0238933D02*
X0641865Y0238933D01*
X0641965Y0239034D02*
X0641965Y0230572D01*
X0640219Y0228933D02*
X0509665Y0228933D01*
X0509665Y0223933D02*
X0635219Y0223933D01*
X0636965Y0225679D02*
X0636965Y0236933D01*
X0632066Y0238933D02*
X0631865Y0238933D01*
X0631965Y0239034D02*
X0630930Y0237999D01*
X0628358Y0236933D01*
X0625573Y0236933D01*
X0623000Y0237999D01*
X0621965Y0239034D01*
X0621865Y0238933D02*
X0622066Y0238933D01*
X0626965Y0236933D02*
X0626965Y0220933D01*
X0625573Y0220933D02*
X0623000Y0219867D01*
X0621965Y0218833D01*
X0621865Y0218933D02*
X0622066Y0218933D01*
X0625573Y0220933D02*
X0628358Y0220933D01*
X0630930Y0219867D01*
X0631965Y0218833D01*
X0631965Y0218833D01*
X0631965Y0219603D01*
X0631965Y0218933D02*
X0631865Y0218933D01*
X0616965Y0220933D02*
X0616965Y0236933D01*
X0612066Y0238933D02*
X0530638Y0238933D01*
X0531965Y0240261D02*
X0531965Y0209175D01*
X0532089Y0208933D02*
X0609965Y0208933D01*
X0609965Y0213933D02*
X0508892Y0213933D01*
X0506965Y0211979D02*
X0506965Y0201733D01*
X0501965Y0201733D02*
X0501965Y0206979D01*
X0503919Y0208933D02*
X0511842Y0208933D01*
X0511965Y0206433D02*
X0511965Y0206433D01*
X0511842Y0203933D02*
X0501865Y0203933D01*
X0494765Y0207133D02*
X0504465Y0216833D01*
X0504465Y0233933D01*
X0499566Y0238933D02*
X0485630Y0238933D01*
X0485739Y0239041D02*
X0486865Y0241761D01*
X0486865Y0251105D01*
X0486628Y0251676D01*
X0491513Y0254094D01*
X0494551Y0251055D01*
X0500829Y0251055D01*
X0505268Y0255494D01*
X0505268Y0261772D01*
X0503226Y0263815D01*
X0505694Y0266283D01*
X0503344Y0263933D02*
X0513293Y0263933D01*
X0511965Y0262605D02*
X0511965Y0266283D01*
X0516965Y0266283D02*
X0516965Y0264333D01*
X0509065Y0258933D02*
X0505268Y0258933D01*
X0503707Y0253933D02*
X0509065Y0253933D01*
X0509065Y0248933D02*
X0486865Y0248933D01*
X0486965Y0251843D02*
X0486965Y0231216D01*
X0487115Y0231066D02*
X0484098Y0234083D01*
X0481965Y0234083D02*
X0481965Y0228933D01*
X0481965Y0228933D01*
X0481965Y0214195D01*
X0481740Y0214080D02*
X0481078Y0213599D01*
X0480904Y0213426D01*
X0480739Y0213825D01*
X0478657Y0215906D01*
X0475937Y0217033D01*
X0472993Y0217033D01*
X0472151Y0216684D01*
X0467765Y0221070D01*
X0467765Y0222458D01*
X0467828Y0222646D01*
X0467765Y0223526D01*
X0467765Y0224339D01*
X0469315Y0225889D01*
X0467765Y0223933D02*
X0479682Y0223933D01*
X0481965Y0223933D02*
X0481965Y0223933D01*
X0481965Y0223783D02*
X0484098Y0223783D01*
X0487115Y0226800D01*
X0487115Y0228933D01*
X0481965Y0228933D01*
X0481965Y0234083D01*
X0481965Y0233933D02*
X0481965Y0233933D01*
X0480937Y0235833D02*
X0483657Y0236960D01*
X0485739Y0239041D01*
X0481965Y0236259D02*
X0481965Y0228933D01*
X0481965Y0228933D01*
X0481965Y0223783D01*
X0484248Y0223933D02*
X0499265Y0223933D01*
X0499265Y0218987D02*
X0496909Y0216631D01*
X0495937Y0217033D01*
X0492993Y0217033D01*
X0490273Y0215906D01*
X0488192Y0213825D01*
X0488026Y0213426D01*
X0487853Y0213599D01*
X0487191Y0214080D01*
X0486461Y0214452D01*
X0485683Y0214705D01*
X0484874Y0214833D01*
X0484465Y0214833D01*
X0484056Y0214833D01*
X0483248Y0214705D01*
X0482469Y0214452D01*
X0481740Y0214080D01*
X0481537Y0213933D02*
X0480630Y0213933D01*
X0484465Y0213933D02*
X0484465Y0213933D01*
X0484465Y0214833D02*
X0484465Y0206433D01*
X0484465Y0206433D01*
X0484465Y0214833D01*
X0486965Y0214195D02*
X0486965Y0226650D01*
X0486965Y0228933D02*
X0486965Y0228933D01*
X0487115Y0228933D02*
X0487115Y0231066D01*
X0487115Y0228933D02*
X0481965Y0228933D01*
X0499265Y0228933D01*
X0499265Y0229234D02*
X0499265Y0218987D01*
X0499211Y0218933D02*
X0469902Y0218933D01*
X0471965Y0216870D02*
X0471965Y0238671D01*
X0472191Y0238786D02*
X0472853Y0239267D01*
X0473026Y0239440D01*
X0473192Y0239041D01*
X0475273Y0236960D01*
X0477993Y0235833D01*
X0480937Y0235833D01*
X0479682Y0233933D02*
X0467360Y0233933D01*
X0466965Y0234328D02*
X0466965Y0238671D01*
X0466537Y0238933D02*
X0465630Y0238933D01*
X0469465Y0238933D02*
X0469465Y0238933D01*
X0469465Y0238033D02*
X0469874Y0238033D01*
X0470683Y0238161D01*
X0471461Y0238414D01*
X0472191Y0238786D01*
X0472394Y0238933D02*
X0473300Y0238933D01*
X0469465Y0238033D02*
X0469465Y0246433D01*
X0469465Y0246433D01*
X0469465Y0254833D01*
X0469874Y0254833D01*
X0470683Y0254705D01*
X0471461Y0254452D01*
X0472191Y0254080D01*
X0472853Y0253599D01*
X0473026Y0253426D01*
X0473192Y0253825D01*
X0474265Y0254898D01*
X0474265Y0254967D01*
X0474594Y0255762D01*
X0474870Y0256577D01*
X0474988Y0256713D01*
X0475057Y0256879D01*
X0475665Y0257487D01*
X0476232Y0258135D01*
X0476393Y0258214D01*
X0476520Y0258341D01*
X0477315Y0258671D01*
X0484165Y0262061D01*
X0484165Y0264334D01*
X0482910Y0265589D01*
X0481453Y0264133D01*
X0479465Y0264133D01*
X0479465Y0268933D01*
X0474665Y0268933D01*
X0474665Y0266945D01*
X0477477Y0264133D01*
X0479465Y0264133D01*
X0479465Y0268933D01*
X0479465Y0268933D01*
X0466965Y0268933D01*
X0461815Y0268933D01*
X0461815Y0266800D01*
X0464832Y0263783D01*
X0466965Y0263783D01*
X0466965Y0268933D01*
X0466965Y0268933D01*
X0454315Y0268933D01*
X0452465Y0263933D02*
X0464682Y0263933D01*
X0466965Y0263933D02*
X0466965Y0263933D01*
X0466965Y0263783D02*
X0469098Y0263783D01*
X0472115Y0266800D01*
X0472115Y0268933D01*
X0466965Y0268933D01*
X0461815Y0268933D01*
X0461815Y0271066D01*
X0464832Y0274083D01*
X0466965Y0274083D01*
X0466965Y0268933D01*
X0466965Y0268933D01*
X0466965Y0254195D01*
X0466537Y0253933D02*
X0465630Y0253933D01*
X0469465Y0253933D02*
X0469465Y0253933D01*
X0471965Y0254195D02*
X0471965Y0266650D01*
X0471965Y0268933D02*
X0471965Y0268933D01*
X0472115Y0268933D02*
X0472115Y0271066D01*
X0469098Y0274083D01*
X0466965Y0274083D01*
X0466965Y0268933D01*
X0466965Y0268933D01*
X0466965Y0263783D01*
X0469248Y0263933D02*
X0484165Y0263933D01*
X0481965Y0264645D02*
X0481965Y0260973D01*
X0477845Y0258933D02*
X0452465Y0258933D01*
X0456965Y0256607D02*
X0456965Y0279430D01*
X0456526Y0279430D02*
X0462804Y0279430D01*
X0467243Y0283869D01*
X0467243Y0290147D01*
X0465457Y0291933D01*
X0503000Y0291933D01*
X0504911Y0292725D01*
X0508844Y0296658D01*
X0532925Y0296658D01*
X0534836Y0297450D01*
X0536411Y0299025D01*
X0536765Y0299379D01*
X0536765Y0296412D01*
X0527836Y0287483D01*
X0504306Y0287483D01*
X0502395Y0286691D01*
X0500932Y0285229D01*
X0500904Y0285201D01*
X0490092Y0275933D01*
X0486566Y0275933D01*
X0482910Y0272277D01*
X0481453Y0273733D01*
X0479465Y0273733D01*
X0477477Y0273733D01*
X0474665Y0270921D01*
X0474665Y0268933D01*
X0479465Y0268933D01*
X0479465Y0268933D01*
X0479465Y0273733D01*
X0479465Y0268933D01*
X0479465Y0268933D01*
X0476965Y0268933D02*
X0476965Y0268933D01*
X0476965Y0264645D02*
X0476965Y0258526D01*
X0479465Y0253933D02*
X0479465Y0246433D01*
X0479465Y0253933D02*
X0489365Y0258833D01*
X0489365Y0268333D01*
X0489465Y0268933D01*
X0490265Y0269233D01*
X0504440Y0281383D01*
X0505340Y0282283D01*
X0529990Y0282283D01*
X0541965Y0294258D01*
X0541965Y0388933D01*
X0541965Y0418008D01*
X0530540Y0429433D01*
X0530765Y0430333D01*
X0544265Y0443833D01*
X0544265Y0453733D01*
X0530765Y0444733D02*
X0521565Y0453933D01*
X0505715Y0453933D01*
X0496965Y0462683D01*
X0496965Y0466728D01*
X0497465Y0467233D01*
X0521810Y0467233D01*
X0525715Y0471138D01*
X0532565Y0471733D02*
X0533215Y0471138D01*
X0533465Y0470833D01*
X0544265Y0470833D01*
X0570365Y0444733D01*
X0570815Y0444138D01*
X0571860Y0444138D01*
X0576440Y0439558D01*
X0576440Y0429708D01*
X0568565Y0416833D01*
X0568565Y0407933D01*
X0546965Y0383933D01*
X0546965Y0278933D01*
X0535265Y0271483D01*
X0503540Y0271483D01*
X0497690Y0265633D01*
X0497690Y0258633D01*
X0491965Y0253641D02*
X0491965Y0238221D01*
X0494465Y0238733D02*
X0494465Y0233933D01*
X0494465Y0233933D01*
X0494465Y0233933D01*
X0494465Y0229133D01*
X0496453Y0229133D01*
X0497910Y0230589D01*
X0499265Y0229234D01*
X0496965Y0229645D02*
X0496965Y0216687D01*
X0491965Y0216607D02*
X0491965Y0229645D01*
X0491965Y0233933D02*
X0491965Y0233933D01*
X0494465Y0233933D02*
X0494465Y0238733D01*
X0496965Y0238221D02*
X0496965Y0251055D01*
X0501965Y0252191D02*
X0501965Y0240933D01*
X0509065Y0243933D02*
X0486865Y0243933D01*
X0476965Y0236259D02*
X0476965Y0231216D01*
X0476965Y0228933D02*
X0476965Y0228933D01*
X0476965Y0226650D02*
X0476965Y0216607D01*
X0484465Y0208933D02*
X0484465Y0208933D01*
X0487394Y0213933D02*
X0488300Y0213933D01*
X0494765Y0207133D02*
X0494465Y0206433D01*
X0511965Y0203691D02*
X0511965Y0201733D01*
X0511965Y0190933D02*
X0511965Y0179133D01*
X0506965Y0179133D02*
X0506965Y0190933D01*
X0501965Y0190933D02*
X0501965Y0179133D01*
X0496965Y0179133D02*
X0496965Y0190933D01*
X0491965Y0190933D02*
X0491965Y0179133D01*
X0486965Y0179133D02*
X0486965Y0190933D01*
X0481965Y0190933D02*
X0481965Y0179133D01*
X0476965Y0179133D02*
X0476965Y0190933D01*
X0477092Y0190933D02*
X0478092Y0190906D01*
X0478163Y0190933D01*
X0583578Y0190933D01*
X0588137Y0186374D01*
X0588137Y0183294D01*
X0592298Y0179133D01*
X0354233Y0179133D01*
X0337066Y0196301D01*
X0338657Y0196960D01*
X0340739Y0199041D01*
X0340904Y0199440D01*
X0341078Y0199267D01*
X0341740Y0198786D01*
X0342469Y0198414D01*
X0343248Y0198161D01*
X0344056Y0198033D01*
X0344465Y0198033D01*
X0344465Y0206433D01*
X0344465Y0206433D01*
X0344465Y0214833D01*
X0344056Y0214833D01*
X0343248Y0214705D01*
X0342469Y0214452D01*
X0341740Y0214080D01*
X0341078Y0213599D01*
X0340904Y0213426D01*
X0340739Y0213825D01*
X0338657Y0215906D01*
X0335937Y0217033D01*
X0332993Y0217033D01*
X0331868Y0216567D01*
X0328431Y0220004D01*
X0329315Y0220889D01*
X0329315Y0223148D01*
X0330065Y0224959D01*
X0330065Y0235896D01*
X0335006Y0230955D01*
X0336991Y0230133D01*
X0360277Y0230133D01*
X0360565Y0229933D01*
X0357910Y0227277D01*
X0356453Y0228733D01*
X0354465Y0228733D01*
X0352477Y0228733D01*
X0349665Y0225921D01*
X0349665Y0223933D01*
X0349665Y0221945D01*
X0352477Y0219133D01*
X0354465Y0219133D01*
X0354465Y0223933D01*
X0349665Y0223933D01*
X0354465Y0223933D01*
X0354465Y0223933D01*
X0341965Y0223933D01*
X0336815Y0223933D01*
X0336815Y0221800D01*
X0339832Y0218783D01*
X0341965Y0218783D01*
X0341965Y0223933D01*
X0341965Y0223933D01*
X0329640Y0223933D01*
X0329502Y0218933D02*
X0339682Y0218933D01*
X0341965Y0218933D02*
X0341965Y0218933D01*
X0341965Y0218783D02*
X0344098Y0218783D01*
X0347115Y0221800D01*
X0347115Y0223933D01*
X0341965Y0223933D01*
X0336815Y0223933D01*
X0336815Y0226066D01*
X0339832Y0229083D01*
X0341965Y0229083D01*
X0341965Y0223933D01*
X0341965Y0223933D01*
X0341965Y0214195D01*
X0341537Y0213933D02*
X0340630Y0213933D01*
X0344465Y0213933D02*
X0344465Y0213933D01*
X0344465Y0214833D02*
X0344465Y0206433D01*
X0344465Y0206433D01*
X0344465Y0198033D01*
X0344874Y0198033D01*
X0345683Y0198161D01*
X0346461Y0198414D01*
X0347191Y0198786D01*
X0347853Y0199267D01*
X0348026Y0199440D01*
X0348192Y0199041D01*
X0350273Y0196960D01*
X0352993Y0195833D01*
X0355937Y0195833D01*
X0358657Y0196960D01*
X0360739Y0199041D01*
X0361865Y0201761D01*
X0361865Y0206379D01*
X0368674Y0213187D01*
X0369465Y0215099D01*
X0369465Y0219034D01*
X0371465Y0221034D01*
X0371465Y0222376D01*
X0374790Y0220072D01*
X0375206Y0219655D01*
X0375664Y0219466D01*
X0376071Y0219183D01*
X0376647Y0219058D01*
X0377191Y0218833D01*
X0377687Y0218833D01*
X0378171Y0218728D01*
X0378750Y0218833D01*
X0386671Y0218833D01*
X0386765Y0218739D01*
X0386765Y0217759D01*
X0387587Y0215774D01*
X0397065Y0206296D01*
X0397065Y0201761D01*
X0398192Y0199041D01*
X0400273Y0196960D01*
X0402391Y0196082D01*
X0404339Y0192089D01*
X0404687Y0191249D01*
X0404808Y0191129D01*
X0404883Y0190975D01*
X0405564Y0190373D01*
X0406206Y0189730D01*
X0406364Y0189665D01*
X0406492Y0189552D01*
X0407351Y0189256D01*
X0408191Y0188908D01*
X0408362Y0188908D01*
X0408523Y0188853D01*
X0409430Y0188908D01*
X0426311Y0188908D01*
X0426424Y0188867D01*
X0427382Y0188908D01*
X0428339Y0188908D01*
X0428450Y0188954D01*
X0428571Y0188959D01*
X0429439Y0189364D01*
X0430324Y0189730D01*
X0430409Y0189815D01*
X0430518Y0189866D01*
X0431166Y0190572D01*
X0431843Y0191249D01*
X0431889Y0191360D01*
X0452139Y0213433D01*
X0460128Y0213433D01*
X0467065Y0206496D01*
X0467065Y0201761D01*
X0468192Y0199041D01*
X0470273Y0196960D01*
X0471307Y0196531D01*
X0471765Y0195335D01*
X0471765Y0195259D01*
X0472148Y0194334D01*
X0472506Y0193400D01*
X0472558Y0193345D01*
X0472587Y0193274D01*
X0473295Y0192567D01*
X0473983Y0191840D01*
X0474053Y0191809D01*
X0474106Y0191755D01*
X0475031Y0191372D01*
X0475945Y0190964D01*
X0476021Y0190962D01*
X0476091Y0190933D01*
X0477092Y0190933D01*
X0472302Y0193933D02*
X0434249Y0193933D01*
X0431965Y0191443D02*
X0431965Y0179133D01*
X0426965Y0179133D02*
X0426965Y0188890D01*
X0428400Y0188933D02*
X0585578Y0188933D01*
X0586965Y0187546D02*
X0586965Y0179133D01*
X0588137Y0183933D02*
X0349433Y0183933D01*
X0346965Y0186401D02*
X0346965Y0198671D01*
X0347394Y0198933D02*
X0348300Y0198933D01*
X0344465Y0198933D02*
X0344465Y0198933D01*
X0341965Y0198671D02*
X0341965Y0191401D01*
X0344433Y0188933D02*
X0408131Y0188933D01*
X0406965Y0189389D02*
X0406965Y0179133D01*
X0401965Y0179133D02*
X0401965Y0196259D01*
X0403440Y0193933D02*
X0339433Y0193933D01*
X0340630Y0198933D02*
X0341537Y0198933D01*
X0344465Y0203933D02*
X0344465Y0203933D01*
X0344465Y0208933D02*
X0344465Y0208933D01*
X0348026Y0213426D02*
X0347853Y0213599D01*
X0347191Y0214080D01*
X0346461Y0214452D01*
X0345683Y0214705D01*
X0344874Y0214833D01*
X0344465Y0214833D01*
X0346965Y0214195D02*
X0346965Y0221650D01*
X0346965Y0223933D02*
X0346965Y0223933D01*
X0347115Y0223933D02*
X0347115Y0226066D01*
X0344098Y0229083D01*
X0341965Y0229083D01*
X0341965Y0223933D01*
X0341965Y0223933D01*
X0341965Y0218783D01*
X0344248Y0218933D02*
X0359065Y0218933D01*
X0359065Y0219434D02*
X0359065Y0218287D01*
X0357262Y0216484D01*
X0355937Y0217033D01*
X0352993Y0217033D01*
X0350273Y0215906D01*
X0348192Y0213825D01*
X0348026Y0213426D01*
X0348300Y0213933D02*
X0347394Y0213933D01*
X0351965Y0216607D02*
X0351965Y0219645D01*
X0354465Y0219133D02*
X0356453Y0219133D01*
X0357910Y0220589D01*
X0359065Y0219434D01*
X0356965Y0219645D02*
X0356965Y0216607D01*
X0354465Y0219133D02*
X0354465Y0223933D01*
X0354465Y0223933D01*
X0354465Y0228733D01*
X0354465Y0223933D01*
X0354465Y0223933D01*
X0351965Y0223933D02*
X0351965Y0223933D01*
X0351965Y0228221D02*
X0351965Y0230133D01*
X0346965Y0230133D02*
X0346965Y0226216D01*
X0347115Y0223933D02*
X0341965Y0223933D01*
X0341965Y0230133D01*
X0341965Y0228933D02*
X0341965Y0228933D01*
X0339682Y0228933D02*
X0330065Y0228933D01*
X0330065Y0233933D02*
X0332028Y0233933D01*
X0331965Y0233996D02*
X0331965Y0216607D01*
X0336965Y0216607D02*
X0336965Y0221650D01*
X0336965Y0223933D02*
X0336965Y0223933D01*
X0336965Y0226216D02*
X0336965Y0230144D01*
X0344248Y0228933D02*
X0359566Y0228933D01*
X0356965Y0228221D02*
X0356965Y0230133D01*
X0364465Y0223933D02*
X0364265Y0223333D01*
X0364265Y0216133D01*
X0355265Y0207133D01*
X0354465Y0206433D01*
X0361965Y0206479D02*
X0361965Y0179133D01*
X0356965Y0179133D02*
X0356965Y0196259D01*
X0360630Y0198933D02*
X0398300Y0198933D01*
X0397065Y0203933D02*
X0361865Y0203933D01*
X0364419Y0208933D02*
X0394428Y0208933D01*
X0391965Y0211396D02*
X0391965Y0179133D01*
X0386965Y0179133D02*
X0386965Y0217276D01*
X0389428Y0213933D02*
X0368982Y0213933D01*
X0366965Y0211479D02*
X0366965Y0179133D01*
X0371965Y0179133D02*
X0371965Y0222030D01*
X0369465Y0218933D02*
X0376950Y0218933D01*
X0376965Y0218927D02*
X0376965Y0179133D01*
X0381965Y0179133D02*
X0381965Y0218833D01*
X0381965Y0229633D02*
X0381965Y0261296D01*
X0384328Y0258933D02*
X0353619Y0258933D01*
X0351965Y0257279D02*
X0351965Y0240933D01*
X0346965Y0240933D02*
X0346965Y0246259D01*
X0345937Y0245833D02*
X0348657Y0246960D01*
X0350739Y0249041D01*
X0351865Y0251761D01*
X0351865Y0257179D01*
X0358774Y0264088D01*
X0359565Y0265999D01*
X0359565Y0269134D01*
X0361465Y0271034D01*
X0361465Y0276833D01*
X0357365Y0280933D01*
X0351566Y0280933D01*
X0347910Y0277277D01*
X0346453Y0278733D01*
X0344465Y0278733D01*
X0342477Y0278733D01*
X0339665Y0275921D01*
X0339665Y0273933D01*
X0339665Y0271945D01*
X0342477Y0269133D01*
X0344465Y0269133D01*
X0344465Y0273933D01*
X0339665Y0273933D01*
X0344465Y0273933D01*
X0344465Y0273933D01*
X0331965Y0273933D01*
X0326815Y0273933D01*
X0326815Y0271800D01*
X0329832Y0268783D01*
X0331965Y0268783D01*
X0331965Y0273933D01*
X0331965Y0273933D01*
X0319315Y0273933D01*
X0319602Y0268933D02*
X0329682Y0268933D01*
X0331965Y0268933D02*
X0331965Y0268933D01*
X0331965Y0268783D02*
X0334098Y0268783D01*
X0337115Y0271800D01*
X0337115Y0273933D01*
X0331965Y0273933D01*
X0326815Y0273933D01*
X0326815Y0276066D01*
X0329832Y0279083D01*
X0331965Y0279083D01*
X0331965Y0273933D01*
X0331965Y0273933D01*
X0331965Y0264195D01*
X0331537Y0263933D02*
X0330630Y0263933D01*
X0334465Y0263933D02*
X0334465Y0263933D01*
X0334465Y0264833D02*
X0334465Y0256433D01*
X0334465Y0256433D01*
X0334465Y0248033D01*
X0334874Y0248033D01*
X0335683Y0248161D01*
X0336461Y0248414D01*
X0337191Y0248786D01*
X0337853Y0249267D01*
X0338026Y0249440D01*
X0338192Y0249041D01*
X0340273Y0246960D01*
X0342993Y0245833D01*
X0345937Y0245833D01*
X0341965Y0246259D02*
X0341965Y0240933D01*
X0337302Y0243933D02*
X0388565Y0243933D01*
X0388565Y0238933D02*
X0366539Y0238933D01*
X0366965Y0238637D02*
X0366965Y0279705D01*
X0368654Y0279705D02*
X0371016Y0282067D01*
X0454132Y0281824D01*
X0456526Y0279430D01*
X0451965Y0281831D02*
X0451965Y0274328D01*
X0452360Y0273933D02*
X0464682Y0273933D01*
X0466965Y0273933D02*
X0466965Y0273933D01*
X0469248Y0273933D02*
X0484566Y0273933D01*
X0481965Y0273221D02*
X0481965Y0291933D01*
X0476965Y0291933D02*
X0476965Y0273221D01*
X0471965Y0271216D02*
X0471965Y0291933D01*
X0466965Y0291933D02*
X0466965Y0290425D01*
X0467243Y0288933D02*
X0529286Y0288933D01*
X0526965Y0287483D02*
X0526965Y0296658D01*
X0521965Y0296658D02*
X0521965Y0287483D01*
X0516965Y0287483D02*
X0516965Y0296658D01*
X0511965Y0296658D02*
X0511965Y0287483D01*
X0506965Y0287483D02*
X0506965Y0294779D01*
X0506119Y0293933D02*
X0534286Y0293933D01*
X0531965Y0291612D02*
X0531965Y0296658D01*
X0536319Y0298933D02*
X0536765Y0298933D01*
X0533465Y0303433D02*
X0533465Y0390733D01*
X0541965Y0388933D02*
X0561965Y0408933D01*
X0561965Y0413933D01*
X0573765Y0413933D02*
X0604894Y0413933D01*
X0606965Y0411862D02*
X0606965Y0308504D01*
X0607394Y0308933D02*
X0576965Y0308933D01*
X0576965Y0303933D02*
X0602394Y0303933D01*
X0601965Y0303504D02*
X0601965Y0416862D01*
X0599894Y0418933D02*
X0575945Y0418933D01*
X0576965Y0420601D02*
X0576965Y0393816D01*
X0577161Y0393752D02*
X0576383Y0394005D01*
X0575574Y0394133D01*
X0571965Y0394133D01*
X0568356Y0394133D01*
X0567548Y0394005D01*
X0566769Y0393752D01*
X0566040Y0393380D01*
X0565378Y0392899D01*
X0564799Y0392321D01*
X0564318Y0391658D01*
X0563946Y0390929D01*
X0563693Y0390151D01*
X0563565Y0389342D01*
X0563565Y0388933D01*
X0563565Y0388524D01*
X0563693Y0387715D01*
X0563946Y0386937D01*
X0564318Y0386208D01*
X0564799Y0385545D01*
X0564973Y0385372D01*
X0564573Y0385206D01*
X0563500Y0384133D01*
X0559982Y0384133D01*
X0557604Y0386511D01*
X0556281Y0386511D01*
X0572339Y0404353D01*
X0572974Y0404987D01*
X0573028Y0405118D01*
X0573122Y0405223D01*
X0573422Y0406070D01*
X0573765Y0406899D01*
X0573765Y0407040D01*
X0573812Y0407173D01*
X0573765Y0408070D01*
X0573765Y0415369D01*
X0580554Y0426468D01*
X0580849Y0426762D01*
X0581089Y0427342D01*
X0581416Y0427877D01*
X0581481Y0428289D01*
X0581640Y0428674D01*
X0581640Y0429301D01*
X0581738Y0429921D01*
X0581640Y0430326D01*
X0581640Y0437187D01*
X0616965Y0401862D01*
X0616965Y0318504D01*
X0559894Y0261433D01*
X0556359Y0261433D01*
X0557365Y0263862D01*
X0557365Y0267004D01*
X0557092Y0267665D01*
X0575820Y0294716D01*
X0576204Y0295101D01*
X0576380Y0295526D01*
X0576642Y0295905D01*
X0576757Y0296436D01*
X0576965Y0296938D01*
X0576965Y0297399D01*
X0577062Y0297849D01*
X0576965Y0298384D01*
X0576965Y0361669D01*
X0579357Y0362660D01*
X0581439Y0364741D01*
X0582565Y0367461D01*
X0582565Y0370405D01*
X0581439Y0373125D01*
X0580630Y0373933D01*
X0581439Y0374741D01*
X0582565Y0377461D01*
X0582565Y0380405D01*
X0581439Y0383125D01*
X0579357Y0385206D01*
X0578958Y0385372D01*
X0579132Y0385545D01*
X0579613Y0386208D01*
X0579984Y0386937D01*
X0580237Y0387715D01*
X0580365Y0388524D01*
X0580365Y0388933D01*
X0571965Y0388933D01*
X0563565Y0388933D01*
X0571965Y0388933D01*
X0571965Y0388933D01*
X0558461Y0388933D01*
X0556965Y0387271D02*
X0556965Y0386511D01*
X0561965Y0384133D02*
X0561965Y0392827D01*
X0562961Y0393933D02*
X0567326Y0393933D01*
X0566965Y0393816D02*
X0566965Y0398382D01*
X0567461Y0398933D02*
X0616965Y0398933D01*
X0616965Y0393933D02*
X0576604Y0393933D01*
X0577161Y0393752D02*
X0577891Y0393380D01*
X0578553Y0392899D01*
X0579132Y0392321D01*
X0579613Y0391658D01*
X0579984Y0390929D01*
X0580237Y0390151D01*
X0580365Y0389342D01*
X0580365Y0388933D01*
X0571965Y0388933D01*
X0571965Y0394133D01*
X0571965Y0388933D01*
X0571965Y0388933D01*
X0571965Y0403938D01*
X0571961Y0403933D02*
X0614894Y0403933D01*
X0611965Y0406862D02*
X0611965Y0313504D01*
X0612394Y0313933D02*
X0576965Y0313933D01*
X0576965Y0318933D02*
X0616965Y0318933D01*
X0616965Y0323933D02*
X0576965Y0323933D01*
X0576965Y0328933D02*
X0616965Y0328933D01*
X0616965Y0333933D02*
X0576965Y0333933D01*
X0576965Y0338933D02*
X0616965Y0338933D01*
X0616965Y0343933D02*
X0576965Y0343933D01*
X0576965Y0348933D02*
X0616965Y0348933D01*
X0616965Y0353933D02*
X0576965Y0353933D01*
X0576965Y0358933D02*
X0616965Y0358933D01*
X0616965Y0363933D02*
X0580630Y0363933D01*
X0581965Y0366013D02*
X0581965Y0283504D01*
X0582394Y0283933D02*
X0568354Y0283933D01*
X0566965Y0281927D02*
X0566965Y0268504D01*
X0567394Y0268933D02*
X0557970Y0268933D01*
X0557365Y0263933D02*
X0562394Y0263933D01*
X0561965Y0263504D02*
X0561965Y0274705D01*
X0561431Y0273933D02*
X0572394Y0273933D01*
X0571965Y0273504D02*
X0571965Y0289149D01*
X0571816Y0288933D02*
X0587394Y0288933D01*
X0586965Y0288504D02*
X0586965Y0431862D01*
X0584894Y0433933D02*
X0581640Y0433933D01*
X0581965Y0436862D02*
X0581965Y0381854D01*
X0580630Y0383933D02*
X0616965Y0383933D01*
X0616965Y0378933D02*
X0582565Y0378933D01*
X0581965Y0376013D02*
X0581965Y0371854D01*
X0580630Y0373933D02*
X0616965Y0373933D01*
X0616965Y0368933D02*
X0582565Y0368933D01*
X0576965Y0361669D02*
X0576965Y0298384D01*
X0576965Y0298933D02*
X0597394Y0298933D01*
X0596965Y0298504D02*
X0596965Y0421862D01*
X0594894Y0423933D02*
X0579004Y0423933D01*
X0581640Y0428933D02*
X0589894Y0428933D01*
X0591965Y0426862D02*
X0591965Y0293504D01*
X0592394Y0293933D02*
X0575277Y0293933D01*
X0576965Y0297399D02*
X0576965Y0278504D01*
X0577394Y0278933D02*
X0564893Y0278933D01*
X0556965Y0262896D02*
X0556965Y0261433D01*
X0556965Y0251433D02*
X0556965Y0201733D01*
X0551965Y0201733D02*
X0551965Y0251433D01*
X0546965Y0251433D02*
X0546965Y0201733D01*
X0541965Y0201733D02*
X0541965Y0251433D01*
X0536965Y0251433D02*
X0536965Y0201733D01*
X0531965Y0201733D02*
X0531965Y0203691D01*
X0532089Y0203933D02*
X0611466Y0203933D01*
X0611965Y0203434D02*
X0611965Y0179133D01*
X0606965Y0179133D02*
X0606965Y0274516D01*
X0607548Y0273933D02*
X0586536Y0273933D01*
X0586965Y0274362D02*
X0586965Y0201702D01*
X0590393Y0199392D02*
X0590393Y0199392D01*
X0590852Y0198933D02*
X0620793Y0198933D01*
X0616965Y0201333D02*
X0616965Y0179133D01*
X0619450Y0183933D02*
X0603293Y0183933D01*
X0601965Y0181966D02*
X0601965Y0179133D01*
X0591965Y0179133D02*
X0591965Y0179466D01*
X0581965Y0179133D02*
X0581965Y0190933D01*
X0576965Y0190933D02*
X0576965Y0179133D01*
X0571965Y0179133D02*
X0571965Y0190933D01*
X0566965Y0190933D02*
X0566965Y0179133D01*
X0561965Y0179133D02*
X0561965Y0190933D01*
X0556965Y0190933D02*
X0556965Y0179133D01*
X0551965Y0179133D02*
X0551965Y0190933D01*
X0546965Y0190933D02*
X0546965Y0179133D01*
X0541965Y0179133D02*
X0541965Y0190933D01*
X0536965Y0190933D02*
X0536965Y0179133D01*
X0531965Y0179133D02*
X0531965Y0190933D01*
X0526965Y0190933D02*
X0526965Y0179133D01*
X0521965Y0179133D02*
X0521965Y0190933D01*
X0516965Y0190933D02*
X0516965Y0179133D01*
X0516965Y0166733D02*
X0516965Y0153833D01*
X0511965Y0153833D02*
X0511965Y0166733D01*
X0506965Y0166733D02*
X0506965Y0153833D01*
X0501965Y0153833D02*
X0501965Y0166733D01*
X0496965Y0166733D02*
X0496965Y0153833D01*
X0491965Y0153833D02*
X0491965Y0166733D01*
X0486965Y0166733D02*
X0486965Y0153833D01*
X0481965Y0153833D02*
X0481965Y0166733D01*
X0476965Y0166733D02*
X0476965Y0153833D01*
X0471965Y0153833D02*
X0471965Y0166733D01*
X0466965Y0166733D02*
X0466965Y0153833D01*
X0461965Y0153833D02*
X0461965Y0166733D01*
X0456965Y0166733D02*
X0456965Y0153833D01*
X0451965Y0153833D02*
X0451965Y0166733D01*
X0446965Y0166733D02*
X0446965Y0153833D01*
X0441965Y0153833D02*
X0441965Y0166733D01*
X0436965Y0166733D02*
X0436965Y0153833D01*
X0431965Y0153833D02*
X0431965Y0166733D01*
X0426965Y0166733D02*
X0426965Y0153833D01*
X0421965Y0153833D02*
X0421965Y0166733D01*
X0416965Y0166733D02*
X0416965Y0153833D01*
X0411965Y0153833D02*
X0411965Y0166733D01*
X0406965Y0166733D02*
X0406965Y0153833D01*
X0401965Y0153833D02*
X0401965Y0166733D01*
X0396965Y0166733D02*
X0396965Y0153833D01*
X0391965Y0153833D02*
X0391965Y0166733D01*
X0386965Y0166733D02*
X0386965Y0153833D01*
X0381965Y0153833D02*
X0381965Y0166733D01*
X0376965Y0166733D02*
X0376965Y0153833D01*
X0371965Y0153833D02*
X0371965Y0166733D01*
X0366965Y0166733D02*
X0366965Y0153833D01*
X0361965Y0153833D02*
X0361965Y0166733D01*
X0356965Y0166733D02*
X0356965Y0154962D01*
X0357722Y0153933D02*
X0596248Y0153933D01*
X0591965Y0153833D02*
X0591965Y0166733D01*
X0586965Y0166733D02*
X0586965Y0153833D01*
X0581965Y0153833D02*
X0581965Y0166733D01*
X0576965Y0166733D02*
X0576965Y0153833D01*
X0571965Y0153833D02*
X0571965Y0166733D01*
X0566965Y0166733D02*
X0566965Y0153833D01*
X0561965Y0153833D02*
X0561965Y0166733D01*
X0556965Y0166733D02*
X0556965Y0153833D01*
X0551965Y0153833D02*
X0551965Y0166733D01*
X0546965Y0166733D02*
X0546965Y0153833D01*
X0541965Y0153833D02*
X0541965Y0166733D01*
X0536965Y0166733D02*
X0536965Y0153833D01*
X0531965Y0153833D02*
X0531965Y0166733D01*
X0526965Y0166733D02*
X0526965Y0153833D01*
X0521965Y0153833D02*
X0521965Y0166733D01*
X0521965Y0143433D02*
X0521965Y0123133D01*
X0516965Y0123133D02*
X0516965Y0143433D01*
X0511965Y0143433D02*
X0511965Y0123133D01*
X0506965Y0123133D02*
X0506965Y0143433D01*
X0501965Y0143433D02*
X0501965Y0123133D01*
X0496965Y0123133D02*
X0496965Y0143433D01*
X0491965Y0143433D02*
X0491965Y0123133D01*
X0486965Y0123133D02*
X0486965Y0143433D01*
X0481965Y0143433D02*
X0481965Y0123133D01*
X0476965Y0123133D02*
X0476965Y0143433D01*
X0471965Y0143433D02*
X0471965Y0123133D01*
X0466965Y0123133D02*
X0466965Y0143433D01*
X0461965Y0143433D02*
X0461965Y0123133D01*
X0456965Y0123133D02*
X0456965Y0143433D01*
X0451965Y0143433D02*
X0451965Y0123133D01*
X0446965Y0123133D02*
X0446965Y0143433D01*
X0441965Y0143433D02*
X0441965Y0123133D01*
X0436965Y0123133D02*
X0436965Y0143433D01*
X0431965Y0143433D02*
X0431965Y0123133D01*
X0426965Y0123133D02*
X0426965Y0143433D01*
X0421965Y0143433D02*
X0421965Y0123133D01*
X0416965Y0123133D02*
X0416965Y0143433D01*
X0411965Y0143433D02*
X0411965Y0123133D01*
X0406965Y0123133D02*
X0406965Y0143433D01*
X0401965Y0143433D02*
X0401965Y0123133D01*
X0396965Y0123133D02*
X0396965Y0143433D01*
X0391965Y0143433D02*
X0391965Y0123133D01*
X0386965Y0123133D02*
X0386965Y0143433D01*
X0381965Y0143433D02*
X0381965Y0123133D01*
X0376965Y0123133D02*
X0376965Y0143433D01*
X0371965Y0143433D02*
X0371965Y0123133D01*
X0366965Y0123133D02*
X0366965Y0143433D01*
X0361965Y0143433D02*
X0361965Y0123133D01*
X0356965Y0123133D02*
X0356965Y0143433D01*
X0352888Y0143933D02*
X0136165Y0143933D01*
X0136165Y0138933D02*
X0168626Y0138933D01*
X0168958Y0139508D02*
X0167627Y0137204D01*
X0166938Y0134634D01*
X0166938Y0131973D01*
X0167627Y0129403D01*
X0168958Y0127098D01*
X0170839Y0125217D01*
X0173143Y0123886D01*
X0175714Y0123198D01*
X0178374Y0123198D01*
X0180945Y0123886D01*
X0183249Y0125217D01*
X0185130Y0127098D01*
X0186461Y0129403D01*
X0187149Y0131973D01*
X0187149Y0134634D01*
X0186461Y0137204D01*
X0185130Y0139508D01*
X0183249Y0141390D01*
X0180945Y0142720D01*
X0178374Y0143409D01*
X0175714Y0143409D01*
X0173143Y0142720D01*
X0170839Y0141390D01*
X0168958Y0139508D01*
X0171965Y0142040D02*
X0171965Y0298933D01*
X0166965Y0298933D02*
X0166965Y0134733D01*
X0166938Y0133933D02*
X0136165Y0133933D01*
X0136165Y0128933D02*
X0167898Y0128933D01*
X0166965Y0131873D02*
X0166965Y0123133D01*
X0161965Y0123133D02*
X0161965Y0298933D01*
X0156965Y0298933D02*
X0156965Y0123133D01*
X0151965Y0123133D02*
X0151965Y0227205D01*
X0151826Y0227066D02*
X0154007Y0229246D01*
X0155186Y0232095D01*
X0155186Y0235178D01*
X0154007Y0238026D01*
X0151826Y0240206D01*
X0148978Y0241386D01*
X0138795Y0241386D01*
X0136165Y0240297D01*
X0136165Y0246661D01*
X0138795Y0245571D01*
X0148978Y0245571D01*
X0151826Y0246751D01*
X0154007Y0248931D01*
X0155186Y0251780D01*
X0155186Y0254863D01*
X0154007Y0257711D01*
X0151826Y0259891D01*
X0148978Y0261071D01*
X0138795Y0261071D01*
X0136165Y0259982D01*
X0136165Y0266346D01*
X0138795Y0265256D01*
X0148978Y0265256D01*
X0151826Y0266436D01*
X0154007Y0268616D01*
X0155186Y0271465D01*
X0155186Y0274548D01*
X0154007Y0277396D01*
X0151826Y0279576D01*
X0148978Y0280756D01*
X0138795Y0280756D01*
X0136165Y0279667D01*
X0136165Y0286031D01*
X0138795Y0284941D01*
X0148978Y0284941D01*
X0151826Y0286121D01*
X0154007Y0288301D01*
X0155186Y0291150D01*
X0155186Y0294233D01*
X0154007Y0297081D01*
X0152155Y0298933D01*
X0185460Y0298933D01*
X0193497Y0298933D01*
X0191965Y0301234D02*
X0191965Y0123133D01*
X0186965Y0123133D02*
X0186965Y0131285D01*
X0186190Y0128933D02*
X0644670Y0128933D01*
X0644399Y0129403D02*
X0645729Y0127098D01*
X0647611Y0125217D01*
X0649915Y0123886D01*
X0652485Y0123198D01*
X0655146Y0123198D01*
X0657716Y0123886D01*
X0660021Y0125217D01*
X0661902Y0127098D01*
X0663232Y0129403D01*
X0663921Y0131973D01*
X0663921Y0134634D01*
X0663232Y0137204D01*
X0661902Y0139508D01*
X0660021Y0141390D01*
X0657716Y0142720D01*
X0655146Y0143409D01*
X0652485Y0143409D01*
X0649915Y0142720D01*
X0647611Y0141390D01*
X0645729Y0139508D01*
X0644399Y0137204D01*
X0643710Y0134634D01*
X0643710Y0131973D01*
X0644399Y0129403D01*
X0646965Y0125862D02*
X0646965Y0123133D01*
X0649834Y0123933D02*
X0181026Y0123933D01*
X0181965Y0124476D02*
X0181965Y0123133D01*
X0176965Y0123133D02*
X0176965Y0123198D01*
X0173062Y0123933D02*
X0136165Y0123933D01*
X0136965Y0123133D02*
X0136965Y0226644D01*
X0136165Y0226975D02*
X0138795Y0225886D01*
X0148978Y0225886D01*
X0151826Y0227066D01*
X0153693Y0228933D02*
X0246571Y0228933D01*
X0246965Y0229328D02*
X0246965Y0250865D01*
X0247065Y0248933D02*
X0154007Y0248933D01*
X0151965Y0246890D02*
X0151965Y0240068D01*
X0153100Y0238933D02*
X0251297Y0238933D01*
X0251965Y0238265D02*
X0251965Y0232196D01*
X0252991Y0233933D02*
X0155186Y0233933D01*
X0146965Y0241386D02*
X0146965Y0245571D01*
X0141965Y0245571D02*
X0141965Y0241386D01*
X0136965Y0240628D02*
X0136965Y0246329D01*
X0136165Y0243933D02*
X0248300Y0243933D01*
X0243897Y0253933D02*
X0155186Y0253933D01*
X0152785Y0258933D02*
X0238897Y0258933D01*
X0236965Y0261634D02*
X0236965Y0198221D01*
X0236453Y0198733D02*
X0234465Y0198733D01*
X0232477Y0198733D01*
X0229665Y0195921D01*
X0229665Y0193933D01*
X0229665Y0191945D01*
X0232477Y0189133D01*
X0234465Y0189133D01*
X0234465Y0193933D01*
X0229665Y0193933D01*
X0234465Y0193933D01*
X0234465Y0193933D01*
X0221965Y0193933D01*
X0216815Y0193933D01*
X0216815Y0191800D01*
X0219832Y0188783D01*
X0221965Y0188783D01*
X0221965Y0193933D01*
X0221965Y0193933D01*
X0209315Y0193933D01*
X0210333Y0188933D02*
X0219682Y0188933D01*
X0221965Y0188933D02*
X0221965Y0188933D01*
X0221965Y0188783D02*
X0224098Y0188783D01*
X0227115Y0191800D01*
X0227115Y0193933D01*
X0221965Y0193933D01*
X0216815Y0193933D01*
X0216815Y0196066D01*
X0219832Y0199083D01*
X0221965Y0199083D01*
X0221965Y0193933D01*
X0221965Y0193933D01*
X0221965Y0184195D01*
X0221537Y0183933D02*
X0220630Y0183933D01*
X0224465Y0183933D02*
X0224465Y0183933D01*
X0224465Y0184833D02*
X0224465Y0176433D01*
X0224465Y0176433D01*
X0224465Y0168033D01*
X0224874Y0168033D01*
X0225683Y0168161D01*
X0226461Y0168414D01*
X0227191Y0168786D01*
X0227853Y0169267D01*
X0228026Y0169440D01*
X0228192Y0169041D01*
X0230273Y0166960D01*
X0232993Y0165833D01*
X0235937Y0165833D01*
X0238657Y0166960D01*
X0240739Y0169041D01*
X0241865Y0171761D01*
X0241865Y0176379D01*
X0248074Y0182587D01*
X0248865Y0184499D01*
X0248865Y0188434D01*
X0251465Y0191034D01*
X0251465Y0196833D01*
X0247365Y0200933D01*
X0241566Y0200933D01*
X0237910Y0197277D01*
X0236453Y0198733D01*
X0234465Y0198733D02*
X0234465Y0193933D01*
X0234465Y0193933D01*
X0234465Y0198733D01*
X0231965Y0198221D02*
X0231965Y0263033D01*
X0226965Y0263033D02*
X0226965Y0196216D01*
X0227115Y0196066D02*
X0224098Y0199083D01*
X0221965Y0199083D01*
X0221965Y0193933D01*
X0221965Y0193933D01*
X0221965Y0188783D01*
X0224248Y0188933D02*
X0238465Y0188933D01*
X0238465Y0190034D02*
X0238465Y0187687D01*
X0237262Y0186484D01*
X0235937Y0187033D01*
X0232993Y0187033D01*
X0230273Y0185906D01*
X0228192Y0183825D01*
X0228026Y0183426D01*
X0227853Y0183599D01*
X0227191Y0184080D01*
X0226461Y0184452D01*
X0225683Y0184705D01*
X0224874Y0184833D01*
X0224465Y0184833D01*
X0226965Y0184195D02*
X0226965Y0191650D01*
X0226965Y0193933D02*
X0226965Y0193933D01*
X0227115Y0193933D02*
X0227115Y0196066D01*
X0227115Y0193933D02*
X0221965Y0193933D01*
X0221965Y0263123D01*
X0220009Y0263933D02*
X0136165Y0263933D01*
X0136965Y0266014D02*
X0136965Y0260313D01*
X0141965Y0261071D02*
X0141965Y0265256D01*
X0146965Y0265256D02*
X0146965Y0261071D01*
X0151965Y0259753D02*
X0151965Y0266575D01*
X0154138Y0268933D02*
X0214462Y0268933D01*
X0211965Y0271172D02*
X0211965Y0187301D01*
X0216965Y0186607D02*
X0216965Y0191650D01*
X0216965Y0193933D02*
X0216965Y0193933D01*
X0216965Y0196216D02*
X0216965Y0266689D01*
X0208885Y0273933D02*
X0155186Y0273933D01*
X0152470Y0278933D02*
X0204448Y0278933D01*
X0206965Y0275631D02*
X0206965Y0199328D01*
X0207360Y0198933D02*
X0219682Y0198933D01*
X0221965Y0198933D02*
X0221965Y0198933D01*
X0224248Y0198933D02*
X0239566Y0198933D01*
X0241965Y0200933D02*
X0241965Y0255865D01*
X0251433Y0263933D02*
X0259682Y0263933D01*
X0261965Y0263933D02*
X0261965Y0263933D01*
X0261965Y0263783D02*
X0264098Y0263783D01*
X0267115Y0266800D01*
X0267115Y0268933D01*
X0261965Y0268933D01*
X0256815Y0268933D01*
X0256815Y0271066D01*
X0259832Y0274083D01*
X0261965Y0274083D01*
X0261965Y0268933D01*
X0261965Y0268933D01*
X0261965Y0259195D01*
X0261740Y0259080D02*
X0261078Y0258599D01*
X0260904Y0258426D01*
X0260739Y0258825D01*
X0258657Y0260906D01*
X0255937Y0262033D01*
X0253333Y0262033D01*
X0249315Y0266051D01*
X0251965Y0263401D02*
X0251965Y0296779D01*
X0249811Y0298933D02*
X0244048Y0298933D01*
X0244365Y0299699D02*
X0244365Y0303934D01*
X0244588Y0304156D01*
X0256020Y0292725D01*
X0257931Y0291933D01*
X0298700Y0291933D01*
X0300611Y0292725D01*
X0302074Y0294188D01*
X0314082Y0306196D01*
X0313946Y0305929D01*
X0313693Y0305151D01*
X0313565Y0304342D01*
X0313565Y0303933D01*
X0313565Y0303524D01*
X0313693Y0302715D01*
X0313946Y0301937D01*
X0314318Y0301208D01*
X0314799Y0300545D01*
X0315378Y0299967D01*
X0316040Y0299486D01*
X0316769Y0299114D01*
X0317548Y0298861D01*
X0318356Y0298733D01*
X0321965Y0298733D01*
X0321965Y0303933D01*
X0313565Y0303933D01*
X0321965Y0303933D01*
X0321965Y0303933D01*
X0311819Y0303933D01*
X0311965Y0304079D02*
X0311965Y0281283D01*
X0306965Y0279328D02*
X0306965Y0299079D01*
X0306819Y0298933D02*
X0317326Y0298933D01*
X0316965Y0299050D02*
X0316965Y0279328D01*
X0317360Y0278933D02*
X0329682Y0278933D01*
X0331965Y0278933D02*
X0331965Y0278933D01*
X0331965Y0279083D02*
X0334098Y0279083D01*
X0337115Y0276066D01*
X0337115Y0273933D01*
X0331965Y0273933D01*
X0331965Y0273933D01*
X0331965Y0268783D01*
X0334248Y0268933D02*
X0348911Y0268933D01*
X0349165Y0269187D02*
X0346697Y0266718D01*
X0345937Y0267033D01*
X0342993Y0267033D01*
X0340273Y0265906D01*
X0338192Y0263825D01*
X0338026Y0263426D01*
X0337853Y0263599D01*
X0337191Y0264080D01*
X0336461Y0264452D01*
X0335683Y0264705D01*
X0334874Y0264833D01*
X0334465Y0264833D01*
X0336965Y0264195D02*
X0336965Y0271650D01*
X0336965Y0273933D02*
X0336965Y0273933D01*
X0336965Y0276216D02*
X0336965Y0300267D01*
X0337199Y0299945D02*
X0336718Y0300608D01*
X0336346Y0301337D01*
X0336093Y0302115D01*
X0335965Y0302924D01*
X0335965Y0303333D01*
X0344365Y0303333D01*
X0344365Y0303333D01*
X0335965Y0303333D01*
X0335965Y0303742D01*
X0336093Y0304551D01*
X0336346Y0305329D01*
X0336718Y0306058D01*
X0337199Y0306721D01*
X0337373Y0306894D01*
X0336973Y0307060D01*
X0334892Y0309141D01*
X0333765Y0311861D01*
X0333765Y0314805D01*
X0334892Y0317525D01*
X0335700Y0318333D01*
X0334892Y0319141D01*
X0333765Y0321861D01*
X0333765Y0324805D01*
X0334892Y0327525D01*
X0336215Y0328848D01*
X0332818Y0336009D01*
X0332726Y0336101D01*
X0332394Y0336904D01*
X0332021Y0337689D01*
X0332015Y0337818D01*
X0331965Y0337938D01*
X0331965Y0326853D01*
X0331741Y0327396D02*
X0331965Y0327938D01*
X0331965Y0338808D01*
X0331965Y0338807D01*
X0331965Y0337938D01*
X0331965Y0333933D02*
X0333803Y0333933D01*
X0331965Y0328933D02*
X0336175Y0328933D01*
X0331741Y0327396D02*
X0332565Y0325405D01*
X0332565Y0322461D01*
X0331439Y0319741D01*
X0330630Y0318933D01*
X0335100Y0318933D01*
X0331439Y0318125D02*
X0330630Y0318933D01*
X0331439Y0318125D02*
X0332565Y0315405D01*
X0332565Y0312461D01*
X0331439Y0309741D01*
X0329357Y0307660D01*
X0328958Y0307494D01*
X0329132Y0307321D01*
X0329613Y0306658D01*
X0329984Y0305929D01*
X0330237Y0305151D01*
X0330365Y0304342D01*
X0330365Y0303933D01*
X0321965Y0303933D01*
X0321965Y0303933D01*
X0321965Y0266607D01*
X0326965Y0266607D02*
X0326965Y0271650D01*
X0326965Y0273933D02*
X0326965Y0273933D01*
X0326965Y0276216D02*
X0326965Y0299050D01*
X0327161Y0299114D02*
X0327891Y0299486D01*
X0328553Y0299967D01*
X0329132Y0300545D01*
X0329613Y0301208D01*
X0329984Y0301937D01*
X0330237Y0302715D01*
X0330365Y0303524D01*
X0330365Y0303933D01*
X0321965Y0303933D01*
X0321965Y0298733D01*
X0325574Y0298733D01*
X0326383Y0298861D01*
X0327161Y0299114D01*
X0326604Y0298933D02*
X0338375Y0298933D01*
X0338440Y0298886D02*
X0339169Y0298514D01*
X0339948Y0298261D01*
X0340756Y0298133D01*
X0344365Y0298133D01*
X0344365Y0303333D01*
X0344365Y0303333D01*
X0344365Y0298133D01*
X0347974Y0298133D01*
X0348783Y0298261D01*
X0349561Y0298514D01*
X0350291Y0298886D01*
X0350953Y0299367D01*
X0351532Y0299945D01*
X0352013Y0300608D01*
X0352384Y0301337D01*
X0352637Y0302115D01*
X0352765Y0302924D01*
X0352765Y0303333D01*
X0344365Y0303333D01*
X0344365Y0303333D01*
X0352765Y0303333D01*
X0352765Y0303742D01*
X0352637Y0304551D01*
X0352384Y0305329D01*
X0352013Y0306058D01*
X0351532Y0306721D01*
X0351358Y0306894D01*
X0351757Y0307060D01*
X0352830Y0308133D01*
X0354923Y0308133D01*
X0357301Y0305755D01*
X0363579Y0305755D01*
X0365841Y0308017D01*
X0366873Y0306985D01*
X0367273Y0306819D01*
X0367099Y0306646D01*
X0366618Y0305983D01*
X0366246Y0305254D01*
X0365993Y0304476D01*
X0365865Y0303667D01*
X0365865Y0303258D01*
X0365865Y0302849D01*
X0365993Y0302040D01*
X0366246Y0301262D01*
X0366618Y0300533D01*
X0367099Y0299870D01*
X0367678Y0299292D01*
X0368340Y0298811D01*
X0369069Y0298439D01*
X0369848Y0298186D01*
X0370656Y0298058D01*
X0374265Y0298058D01*
X0374265Y0303258D01*
X0365865Y0303258D01*
X0374265Y0303258D01*
X0374265Y0303258D01*
X0374265Y0303258D01*
X0374265Y0298058D01*
X0377874Y0298058D01*
X0378683Y0298186D01*
X0379461Y0298439D01*
X0380191Y0298811D01*
X0380853Y0299292D01*
X0381432Y0299870D01*
X0381913Y0300533D01*
X0382284Y0301262D01*
X0382537Y0302040D01*
X0382665Y0302849D01*
X0382665Y0303258D01*
X0374265Y0303258D01*
X0374265Y0303258D01*
X0382665Y0303258D01*
X0382665Y0303667D01*
X0382537Y0304476D01*
X0382284Y0305254D01*
X0381913Y0305983D01*
X0381432Y0306646D01*
X0381258Y0306819D01*
X0381657Y0306985D01*
X0383480Y0308808D01*
X0385179Y0308808D01*
X0385975Y0308736D01*
X0386207Y0308808D01*
X0386450Y0308808D01*
X0387187Y0309114D01*
X0387950Y0309351D01*
X0388136Y0309507D01*
X0388361Y0309600D01*
X0388925Y0310164D01*
X0392186Y0312882D01*
X0392411Y0312975D01*
X0392975Y0313539D01*
X0393589Y0314050D01*
X0393702Y0314266D01*
X0393874Y0314438D01*
X0394179Y0315175D01*
X0394550Y0315882D01*
X0394572Y0316124D01*
X0394665Y0316349D01*
X0394665Y0317147D01*
X0394737Y0317942D01*
X0394665Y0318174D01*
X0394665Y0318616D01*
X0396993Y0320944D01*
X0397492Y0319741D01*
X0398300Y0318933D01*
X0394982Y0318933D01*
X0397492Y0318125D02*
X0396365Y0315405D01*
X0396365Y0312461D01*
X0397492Y0309741D01*
X0399573Y0307660D01*
X0399973Y0307494D01*
X0399799Y0307321D01*
X0399318Y0306658D01*
X0398946Y0305929D01*
X0398693Y0305151D01*
X0398565Y0304342D01*
X0398565Y0303933D01*
X0398565Y0303524D01*
X0398693Y0302715D01*
X0398946Y0301937D01*
X0399318Y0301208D01*
X0399799Y0300545D01*
X0400378Y0299967D01*
X0401040Y0299486D01*
X0401769Y0299114D01*
X0402548Y0298861D01*
X0403356Y0298733D01*
X0406965Y0298733D01*
X0406965Y0303933D01*
X0398565Y0303933D01*
X0406965Y0303933D01*
X0406965Y0303933D01*
X0382623Y0303933D01*
X0381965Y0303258D02*
X0381965Y0303258D01*
X0381965Y0300636D02*
X0381965Y0292435D01*
X0376965Y0292450D02*
X0376965Y0298058D01*
X0374265Y0298933D02*
X0374265Y0298933D01*
X0371965Y0298058D02*
X0371965Y0292464D01*
X0371048Y0292467D02*
X0368654Y0294861D01*
X0362376Y0294861D01*
X0357937Y0290422D01*
X0357937Y0284144D01*
X0362376Y0279705D01*
X0368654Y0279705D01*
X0371965Y0282064D02*
X0371965Y0235171D01*
X0373751Y0233933D02*
X0388565Y0233933D01*
X0386965Y0229633D02*
X0386965Y0256296D01*
X0387065Y0253933D02*
X0351865Y0253933D01*
X0350630Y0248933D02*
X0388300Y0248933D01*
X0399365Y0247668D02*
X0400739Y0249041D01*
X0400904Y0249440D01*
X0401078Y0249267D01*
X0401740Y0248786D01*
X0401537Y0248933D02*
X0400630Y0248933D01*
X0399365Y0247668D02*
X0399365Y0225859D01*
X0399315Y0225738D01*
X0399365Y0228933D02*
X0409682Y0228933D01*
X0411965Y0228933D02*
X0411965Y0228933D01*
X0414248Y0228933D02*
X0429566Y0228933D01*
X0426965Y0228221D02*
X0426965Y0262079D01*
X0428074Y0263188D02*
X0421865Y0256979D01*
X0421865Y0251761D01*
X0420739Y0249041D01*
X0418657Y0246960D01*
X0415937Y0245833D01*
X0412993Y0245833D01*
X0410273Y0246960D01*
X0408192Y0249041D01*
X0408026Y0249440D01*
X0407853Y0249267D01*
X0407191Y0248786D01*
X0406461Y0248414D01*
X0405683Y0248161D01*
X0404874Y0248033D01*
X0404465Y0248033D01*
X0404465Y0256433D01*
X0404465Y0256433D01*
X0404465Y0264833D01*
X0404874Y0264833D01*
X0405683Y0264705D01*
X0406461Y0264452D01*
X0407191Y0264080D01*
X0407853Y0263599D01*
X0408026Y0263426D01*
X0408192Y0263825D01*
X0410273Y0265906D01*
X0412993Y0267033D01*
X0415937Y0267033D01*
X0416838Y0266660D01*
X0418465Y0268287D01*
X0418465Y0270034D01*
X0417910Y0270589D01*
X0416453Y0269133D01*
X0414465Y0269133D01*
X0414465Y0273933D01*
X0409665Y0273933D01*
X0409665Y0271945D01*
X0412477Y0269133D01*
X0414465Y0269133D01*
X0414465Y0273933D01*
X0414465Y0273933D01*
X0404465Y0273933D01*
X0399315Y0273933D01*
X0399315Y0271800D01*
X0402332Y0268783D01*
X0404465Y0268783D01*
X0404465Y0273933D01*
X0404465Y0273933D01*
X0391815Y0273933D01*
X0389865Y0268933D02*
X0402182Y0268933D01*
X0401965Y0269150D02*
X0401965Y0264195D01*
X0401537Y0263933D02*
X0400630Y0263933D01*
X0404465Y0263933D02*
X0404465Y0263933D01*
X0406965Y0264195D02*
X0406965Y0269150D01*
X0406748Y0268933D02*
X0418465Y0268933D01*
X0416965Y0269645D02*
X0416965Y0266787D01*
X0411965Y0266607D02*
X0411965Y0269645D01*
X0409615Y0271800D02*
X0406598Y0268783D01*
X0404465Y0268783D01*
X0404465Y0273933D01*
X0399315Y0273933D01*
X0399315Y0276066D01*
X0402332Y0279083D01*
X0404465Y0279083D01*
X0404465Y0273933D01*
X0404465Y0273933D01*
X0404465Y0273933D01*
X0404465Y0279083D01*
X0406598Y0279083D01*
X0409615Y0276066D01*
X0409615Y0273933D01*
X0404465Y0273933D01*
X0404465Y0273933D01*
X0409615Y0273933D01*
X0409615Y0271800D01*
X0409665Y0273933D02*
X0414465Y0273933D01*
X0414465Y0273933D01*
X0414465Y0278733D01*
X0412477Y0278733D01*
X0409665Y0275921D01*
X0409665Y0273933D01*
X0411965Y0273933D02*
X0411965Y0273933D01*
X0414465Y0273933D02*
X0414465Y0273933D01*
X0414465Y0278733D01*
X0416453Y0278733D01*
X0417910Y0277277D01*
X0421566Y0280933D01*
X0427365Y0280933D01*
X0431465Y0276833D01*
X0431465Y0271034D01*
X0428865Y0268434D01*
X0428865Y0265099D01*
X0428074Y0263188D01*
X0428382Y0263933D02*
X0441571Y0263933D01*
X0441665Y0258933D02*
X0423819Y0258933D01*
X0421965Y0257079D02*
X0421965Y0228221D01*
X0416965Y0226216D02*
X0416965Y0246259D01*
X0420630Y0248933D02*
X0444739Y0248933D01*
X0446965Y0247604D02*
X0446965Y0223518D01*
X0447925Y0223933D02*
X0441465Y0223933D01*
X0442529Y0218933D02*
X0439665Y0218933D01*
X0441965Y0218319D02*
X0441965Y0251974D01*
X0441622Y0253933D02*
X0421865Y0253933D01*
X0414465Y0256433D02*
X0414665Y0257133D01*
X0423665Y0266133D01*
X0423665Y0273333D01*
X0424465Y0273933D01*
X0431465Y0273933D02*
X0440476Y0273933D01*
X0441965Y0274550D02*
X0441965Y0281860D01*
X0436965Y0281874D02*
X0436965Y0230933D01*
X0439365Y0228933D02*
X0454615Y0228933D01*
X0454265Y0233933D02*
X0399365Y0233933D01*
X0399365Y0238933D02*
X0453300Y0238933D01*
X0452065Y0243933D02*
X0399365Y0243933D01*
X0404465Y0248933D02*
X0404465Y0248933D01*
X0406965Y0248671D02*
X0406965Y0226216D01*
X0406965Y0223933D02*
X0406965Y0223933D01*
X0406965Y0221650D02*
X0406965Y0216607D01*
X0411965Y0223933D02*
X0411965Y0223933D01*
X0411965Y0246259D01*
X0408300Y0248933D02*
X0407394Y0248933D01*
X0404465Y0253933D02*
X0404465Y0253933D01*
X0404465Y0258933D02*
X0404465Y0258933D01*
X0407394Y0263933D02*
X0408300Y0263933D01*
X0404465Y0268933D02*
X0404465Y0268933D01*
X0401965Y0273933D02*
X0401965Y0273933D01*
X0401965Y0278716D02*
X0401965Y0281977D01*
X0402182Y0278933D02*
X0389860Y0278933D01*
X0391965Y0282006D02*
X0391965Y0266607D01*
X0396965Y0266607D02*
X0396965Y0281991D01*
X0404465Y0278933D02*
X0404465Y0278933D01*
X0406748Y0278933D02*
X0419566Y0278933D01*
X0416965Y0278221D02*
X0416965Y0281933D01*
X0411965Y0281947D02*
X0411965Y0278221D01*
X0406965Y0278716D02*
X0406965Y0281962D01*
X0406965Y0292362D02*
X0406965Y0303933D01*
X0406965Y0303933D01*
X0406965Y0298733D01*
X0410574Y0298733D01*
X0411383Y0298861D01*
X0412161Y0299114D01*
X0412891Y0299486D01*
X0413553Y0299967D01*
X0414132Y0300545D01*
X0414613Y0301208D01*
X0414984Y0301937D01*
X0415237Y0302715D01*
X0415365Y0303524D01*
X0415365Y0303933D01*
X0406965Y0303933D01*
X0436965Y0303933D01*
X0428565Y0303933D01*
X0428565Y0303524D01*
X0428693Y0302715D01*
X0428946Y0301937D01*
X0429318Y0301208D01*
X0429799Y0300545D01*
X0430378Y0299967D01*
X0431040Y0299486D01*
X0431769Y0299114D01*
X0432548Y0298861D01*
X0433356Y0298733D01*
X0436965Y0298733D01*
X0436965Y0303933D01*
X0436965Y0303933D01*
X0428565Y0303933D01*
X0428565Y0304342D01*
X0428693Y0305151D01*
X0428946Y0305929D01*
X0429318Y0306658D01*
X0429799Y0307321D01*
X0429973Y0307494D01*
X0429573Y0307660D01*
X0427492Y0309741D01*
X0426365Y0312461D01*
X0426365Y0315405D01*
X0427492Y0318125D01*
X0428300Y0318933D01*
X0421058Y0318933D01*
X0420874Y0318488D02*
X0421665Y0320399D01*
X0421665Y0332162D01*
X0426968Y0326860D01*
X0426365Y0325405D01*
X0426365Y0322461D01*
X0427492Y0319741D01*
X0428300Y0318933D01*
X0426965Y0316854D02*
X0426965Y0321013D01*
X0426365Y0323933D02*
X0421665Y0323933D01*
X0421665Y0328933D02*
X0424894Y0328933D01*
X0426965Y0326862D02*
X0426965Y0326854D01*
X0421965Y0331862D02*
X0421965Y0292318D01*
X0416965Y0292333D02*
X0416965Y0311013D01*
X0416439Y0309741D02*
X0417565Y0312461D01*
X0417565Y0315179D01*
X0419411Y0317025D01*
X0420874Y0318488D01*
X0416465Y0321433D02*
X0416465Y0334933D01*
X0411965Y0339433D01*
X0416465Y0321433D02*
X0409265Y0314233D01*
X0407465Y0314233D01*
X0406965Y0313933D01*
X0413958Y0307494D02*
X0414357Y0307660D01*
X0416439Y0309741D01*
X0415630Y0308933D02*
X0428300Y0308933D01*
X0426965Y0311013D02*
X0426965Y0292304D01*
X0431965Y0292289D02*
X0431965Y0299050D01*
X0432326Y0298933D02*
X0411604Y0298933D01*
X0411965Y0299050D02*
X0411965Y0292347D01*
X0406965Y0298933D02*
X0406965Y0298933D01*
X0402326Y0298933D02*
X0380359Y0298933D01*
X0376965Y0303258D02*
X0376965Y0303258D01*
X0371965Y0303258D02*
X0371965Y0303258D01*
X0366965Y0303258D02*
X0366965Y0303258D01*
X0365907Y0303933D02*
X0352735Y0303933D01*
X0351965Y0303333D02*
X0351965Y0303333D01*
X0351965Y0300542D02*
X0351965Y0280933D01*
X0349566Y0278933D02*
X0334248Y0278933D01*
X0331965Y0279083D02*
X0331965Y0273933D01*
X0331965Y0311013D01*
X0330630Y0308933D02*
X0335100Y0308933D01*
X0336965Y0307068D02*
X0336965Y0306399D01*
X0335995Y0303933D02*
X0321965Y0303933D01*
X0321965Y0303933D01*
X0316965Y0303933D02*
X0316965Y0303933D01*
X0321965Y0298933D02*
X0321965Y0298933D01*
X0326965Y0303933D02*
X0326965Y0303933D01*
X0336965Y0303333D02*
X0336965Y0303333D01*
X0337199Y0299945D02*
X0337778Y0299367D01*
X0338440Y0298886D01*
X0341965Y0298133D02*
X0341965Y0278221D01*
X0344465Y0278733D02*
X0344465Y0273933D01*
X0344465Y0273933D01*
X0344465Y0273933D01*
X0344465Y0269133D01*
X0346453Y0269133D01*
X0347910Y0270589D01*
X0349165Y0269334D01*
X0349165Y0269187D01*
X0346965Y0269645D02*
X0346965Y0266987D01*
X0341965Y0266607D02*
X0341965Y0269645D01*
X0341965Y0273933D02*
X0341965Y0273933D01*
X0344465Y0273933D02*
X0344465Y0278733D01*
X0346965Y0278221D02*
X0346965Y0298133D01*
X0344365Y0298933D02*
X0344365Y0298933D01*
X0341965Y0303333D02*
X0341965Y0303333D01*
X0346965Y0303333D02*
X0346965Y0303333D01*
X0350356Y0298933D02*
X0368171Y0298933D01*
X0366965Y0300054D02*
X0366965Y0294861D01*
X0369582Y0293933D02*
X0455873Y0293933D01*
X0456526Y0294586D02*
X0454164Y0292224D01*
X0371048Y0292467D01*
X0365515Y0287283D02*
X0459665Y0287008D01*
X0461965Y0279430D02*
X0461965Y0271216D01*
X0461965Y0268933D02*
X0461965Y0268933D01*
X0461965Y0266650D02*
X0461965Y0256607D01*
X0472394Y0253933D02*
X0473300Y0253933D01*
X0469465Y0248933D02*
X0469465Y0248933D01*
X0469465Y0243933D02*
X0469465Y0243933D01*
X0451965Y0244620D02*
X0451965Y0224233D01*
X0451965Y0213243D02*
X0451965Y0179133D01*
X0446965Y0179133D02*
X0446965Y0207793D01*
X0448011Y0208933D02*
X0464628Y0208933D01*
X0466965Y0206596D02*
X0466965Y0179133D01*
X0461965Y0179133D02*
X0461965Y0211596D01*
X0456965Y0213433D02*
X0456965Y0179133D01*
X0471965Y0179133D02*
X0471965Y0194776D01*
X0468300Y0198933D02*
X0438837Y0198933D01*
X0436965Y0196893D02*
X0436965Y0179133D01*
X0441965Y0179133D02*
X0441965Y0202343D01*
X0443424Y0203933D02*
X0467065Y0203933D01*
X0481965Y0228933D02*
X0481965Y0228933D01*
X0509665Y0218933D02*
X0612066Y0218933D01*
X0611965Y0218833D02*
X0611965Y0239034D01*
X0609965Y0243933D02*
X0534865Y0243933D01*
X0534865Y0248933D02*
X0609965Y0248933D01*
X0611466Y0253933D02*
X0566536Y0253933D01*
X0566965Y0254362D02*
X0566965Y0201733D01*
X0561965Y0201733D02*
X0561965Y0251433D01*
X0571536Y0258933D02*
X0609362Y0258933D01*
X0610823Y0263933D02*
X0576536Y0263933D01*
X0576965Y0264362D02*
X0576965Y0201733D01*
X0571965Y0201733D02*
X0571965Y0259362D01*
X0581536Y0268933D02*
X0620260Y0268933D01*
X0621965Y0267941D02*
X0621965Y0265025D01*
X0616965Y0266911D02*
X0616965Y0270849D01*
X0611965Y0271555D02*
X0611965Y0265075D01*
X0613065Y0279133D02*
X0636965Y0265233D01*
X0636965Y0243933D01*
X0646965Y0243933D02*
X0646965Y0254333D01*
X0647343Y0254333D01*
X0648089Y0254215D01*
X0648808Y0253981D01*
X0649481Y0253638D01*
X0650092Y0253194D01*
X0650626Y0252660D01*
X0651071Y0252049D01*
X0651414Y0251376D01*
X0651647Y0250657D01*
X0651765Y0249911D01*
X0651765Y0243933D01*
X0646965Y0243933D01*
X0666615Y0243933D01*
X0666615Y0248933D02*
X0651765Y0248933D01*
X0646965Y0248933D02*
X0646965Y0248933D01*
X0646965Y0243933D02*
X0646965Y0243933D01*
X0646965Y0253933D02*
X0646965Y0253933D01*
X0645028Y0253933D02*
X0642465Y0253933D01*
X0648903Y0253933D02*
X0666615Y0253933D01*
X0686965Y0252087D02*
X0686965Y0234650D01*
X0686965Y0238933D02*
X0738001Y0238933D01*
X0735156Y0242653D02*
X0736336Y0245502D01*
X0736336Y0248585D01*
X0735156Y0251433D01*
X0732976Y0253613D01*
X0730128Y0254793D01*
X0719945Y0254793D01*
X0717096Y0253613D01*
X0714916Y0251433D01*
X0713736Y0248585D01*
X0713736Y0245502D01*
X0714916Y0242653D01*
X0717096Y0240473D01*
X0719945Y0239293D01*
X0730128Y0239293D01*
X0732976Y0240473D01*
X0735156Y0242653D01*
X0735686Y0243933D02*
X0738001Y0243933D01*
X0738001Y0248933D02*
X0736192Y0248933D01*
X0738001Y0253933D02*
X0732204Y0253933D01*
X0731965Y0254032D02*
X0731965Y0259739D01*
X0726965Y0258978D02*
X0726965Y0254793D01*
X0721965Y0254793D02*
X0721965Y0258978D01*
X0716965Y0260289D02*
X0716965Y0253483D01*
X0717868Y0253933D02*
X0688811Y0253933D01*
X0691965Y0257087D02*
X0691965Y0236511D01*
X0696965Y0235133D02*
X0696965Y0261083D01*
X0693811Y0258933D02*
X0738001Y0258933D01*
X0738001Y0263933D02*
X0735817Y0263933D01*
X0736061Y0268933D02*
X0738001Y0268933D01*
X0738001Y0273933D02*
X0731444Y0273933D01*
X0731965Y0273717D02*
X0731965Y0279425D01*
X0730779Y0278933D02*
X0738001Y0278933D01*
X0738001Y0283933D02*
X0735947Y0283933D01*
X0735931Y0288933D02*
X0738001Y0288933D01*
X0738001Y0293933D02*
X0730684Y0293933D01*
X0731965Y0293402D02*
X0731965Y0508748D01*
X0726965Y0508748D02*
X0726965Y0294163D01*
X0721965Y0294163D02*
X0721965Y0508748D01*
X0716965Y0508748D02*
X0716965Y0292853D01*
X0719389Y0293933D02*
X0606536Y0293933D01*
X0606965Y0294362D02*
X0606965Y0283750D01*
X0607148Y0283933D02*
X0596536Y0283933D01*
X0596965Y0284362D02*
X0596965Y0194011D01*
X0598932Y0193933D02*
X0619065Y0193933D01*
X0620793Y0188933D02*
X0603293Y0188933D01*
X0601965Y0190900D02*
X0601965Y0289362D01*
X0601536Y0288933D02*
X0620793Y0288933D01*
X0621965Y0290105D02*
X0621965Y0309362D01*
X0621536Y0308933D02*
X0738001Y0308933D01*
X0738001Y0303933D02*
X0616536Y0303933D01*
X0616965Y0304362D02*
X0616965Y0285950D01*
X0618982Y0283933D02*
X0619065Y0283933D01*
X0611965Y0286711D02*
X0611965Y0299362D01*
X0611536Y0298933D02*
X0738001Y0298933D01*
X0738001Y0313933D02*
X0626342Y0313933D01*
X0626965Y0318933D02*
X0738001Y0318933D01*
X0738001Y0323933D02*
X0626965Y0323933D01*
X0626965Y0328933D02*
X0738001Y0328933D01*
X0738001Y0333933D02*
X0626965Y0333933D01*
X0626965Y0338933D02*
X0738001Y0338933D01*
X0738001Y0343933D02*
X0626965Y0343933D01*
X0626965Y0348933D02*
X0738001Y0348933D01*
X0738001Y0353933D02*
X0626965Y0353933D01*
X0626965Y0358933D02*
X0738001Y0358933D01*
X0738001Y0363933D02*
X0626965Y0363933D01*
X0626965Y0368933D02*
X0738001Y0368933D01*
X0738001Y0373933D02*
X0626965Y0373933D01*
X0626965Y0378933D02*
X0738001Y0378933D01*
X0738001Y0383933D02*
X0626965Y0383933D01*
X0626965Y0388933D02*
X0738001Y0388933D01*
X0738001Y0393933D02*
X0626965Y0393933D01*
X0626965Y0398933D02*
X0738001Y0398933D01*
X0738001Y0403933D02*
X0626965Y0403933D01*
X0609894Y0408933D02*
X0573765Y0408933D01*
X0571965Y0393933D02*
X0571965Y0393933D01*
X0571965Y0388933D02*
X0571965Y0388933D01*
X0616965Y0388933D01*
X0651965Y0407983D02*
X0651965Y0286675D01*
X0652090Y0286921D02*
X0651683Y0286121D01*
X0651406Y0285268D01*
X0651265Y0284382D01*
X0651265Y0283933D01*
X0656965Y0283933D01*
X0656965Y0283933D01*
X0634865Y0283933D01*
X0634865Y0282362D02*
X0633663Y0279458D01*
X0631965Y0277761D02*
X0631965Y0274156D01*
X0632349Y0273933D02*
X0681844Y0273933D01*
X0681965Y0274054D02*
X0681965Y0508747D01*
X0676965Y0508747D02*
X0676965Y0489650D01*
X0677043Y0488933D02*
X0738001Y0488933D01*
X0738001Y0493933D02*
X0672682Y0493933D01*
X0671965Y0494011D02*
X0671965Y0508747D01*
X0666965Y0508746D02*
X0666965Y0494011D01*
X0666248Y0493933D02*
X0614018Y0493933D01*
X0616965Y0492633D02*
X0616965Y0498483D01*
X0617086Y0498933D02*
X0738001Y0498933D01*
X0738001Y0503933D02*
X0617244Y0503933D01*
X0616965Y0504974D02*
X0616965Y0508745D01*
X0621965Y0508745D02*
X0621965Y0492633D01*
X0626965Y0492633D02*
X0626965Y0508745D01*
X0631965Y0508745D02*
X0631965Y0492633D01*
X0636965Y0492633D02*
X0636965Y0508745D01*
X0641965Y0508746D02*
X0641965Y0492633D01*
X0646965Y0492633D02*
X0646965Y0508746D01*
X0651965Y0508746D02*
X0651965Y0492633D01*
X0656965Y0492633D02*
X0656965Y0508746D01*
X0661965Y0508746D02*
X0661965Y0492633D01*
X0661965Y0480233D02*
X0661965Y0424044D01*
X0662029Y0423933D02*
X0738001Y0423933D01*
X0738001Y0418933D02*
X0663921Y0418933D01*
X0663166Y0413933D02*
X0738001Y0413933D01*
X0738001Y0408933D02*
X0658411Y0408933D01*
X0656965Y0408331D02*
X0656965Y0283933D01*
X0656965Y0283933D01*
X0656965Y0231258D01*
X0661965Y0231258D02*
X0661965Y0281191D01*
X0661840Y0280946D02*
X0662248Y0281745D01*
X0662525Y0282598D01*
X0662665Y0283484D01*
X0662665Y0283933D01*
X0656965Y0283933D01*
X0656965Y0289633D01*
X0656517Y0289633D01*
X0655630Y0289493D01*
X0654777Y0289215D01*
X0653978Y0288808D01*
X0653252Y0288281D01*
X0652617Y0287646D01*
X0652090Y0286921D01*
X0654223Y0288933D02*
X0633137Y0288933D01*
X0633663Y0288408D02*
X0631440Y0290630D01*
X0628537Y0291833D01*
X0625394Y0291833D01*
X0631965Y0290105D02*
X0631965Y0480233D01*
X0636965Y0480233D02*
X0636965Y0271249D01*
X0634865Y0282362D02*
X0634865Y0285504D01*
X0633663Y0288408D01*
X0651965Y0283933D02*
X0651965Y0283933D01*
X0656965Y0283933D02*
X0656965Y0283933D01*
X0656965Y0278233D01*
X0657414Y0278233D01*
X0658300Y0278373D01*
X0659153Y0278651D01*
X0659953Y0279058D01*
X0660679Y0279585D01*
X0661313Y0280220D01*
X0661840Y0280946D01*
X0659707Y0278933D02*
X0686844Y0278933D01*
X0686965Y0279054D02*
X0686965Y0508747D01*
X0691965Y0508747D02*
X0691965Y0284054D01*
X0691844Y0283933D02*
X0656965Y0283933D01*
X0656965Y0289633D01*
X0657414Y0289633D01*
X0658300Y0289493D01*
X0659153Y0289215D01*
X0659953Y0288808D01*
X0660679Y0288281D01*
X0661313Y0287646D01*
X0661840Y0286921D01*
X0662248Y0286121D01*
X0662525Y0285268D01*
X0662665Y0284382D01*
X0662665Y0283933D01*
X0656965Y0283933D01*
X0656965Y0283933D01*
X0656965Y0278933D02*
X0656965Y0278933D01*
X0661965Y0283933D02*
X0661965Y0283933D01*
X0661965Y0286675D02*
X0661965Y0411853D01*
X0656965Y0427567D02*
X0656965Y0480233D01*
X0651965Y0480233D02*
X0651965Y0427915D01*
X0576965Y0388933D02*
X0576965Y0388933D01*
X0566965Y0388933D02*
X0566965Y0388933D01*
X0571965Y0378933D02*
X0554465Y0378933D01*
X0528265Y0368533D02*
X0528265Y0307058D01*
X0505656Y0307058D01*
X0503745Y0306266D01*
X0502282Y0304804D01*
X0499811Y0302333D01*
X0475113Y0302333D01*
X0475237Y0302715D01*
X0475365Y0303524D01*
X0475365Y0303933D01*
X0466965Y0303933D01*
X0501411Y0303933D01*
X0501965Y0304487D02*
X0501965Y0330463D01*
X0501990Y0330524D02*
X0501990Y0339304D01*
X0513011Y0350325D01*
X0514474Y0351787D01*
X0515265Y0353699D01*
X0515265Y0368586D01*
X0515394Y0368533D01*
X0518537Y0368533D01*
X0521440Y0369736D01*
X0521965Y0370261D01*
X0522490Y0369736D01*
X0525394Y0368533D01*
X0528265Y0368533D01*
X0526965Y0368533D02*
X0526965Y0307058D01*
X0528265Y0308933D02*
X0475630Y0308933D01*
X0475730Y0309033D02*
X0480500Y0309033D01*
X0482411Y0309825D01*
X0483874Y0311288D01*
X0499736Y0327150D01*
X0501199Y0328613D01*
X0501990Y0330524D01*
X0501331Y0328933D02*
X0528265Y0328933D01*
X0528265Y0323933D02*
X0496519Y0323933D01*
X0496965Y0324379D02*
X0496965Y0302333D01*
X0491965Y0302333D02*
X0491965Y0319379D01*
X0491519Y0318933D02*
X0528265Y0318933D01*
X0528265Y0313933D02*
X0486519Y0313933D01*
X0486965Y0314379D02*
X0486965Y0302333D01*
X0481965Y0302333D02*
X0481965Y0309640D01*
X0483874Y0311288D02*
X0483874Y0311288D01*
X0479465Y0314233D02*
X0467765Y0314233D01*
X0466965Y0313933D01*
X0473958Y0307494D02*
X0474357Y0307660D01*
X0475730Y0309033D01*
X0476965Y0309033D02*
X0476965Y0302333D01*
X0475365Y0303933D02*
X0475365Y0304342D01*
X0475237Y0305151D01*
X0474984Y0305929D01*
X0474613Y0306658D01*
X0474132Y0307321D01*
X0473958Y0307494D01*
X0475365Y0303933D02*
X0466965Y0303933D01*
X0466965Y0303933D01*
X0471965Y0303933D02*
X0471965Y0303933D01*
X0461465Y0297133D02*
X0501965Y0297133D01*
X0506690Y0301858D01*
X0531890Y0301858D01*
X0533465Y0303433D01*
X0521965Y0307058D02*
X0521965Y0370261D01*
X0519502Y0368933D02*
X0524428Y0368933D01*
X0528265Y0363933D02*
X0515265Y0363933D01*
X0516965Y0368533D02*
X0516965Y0307058D01*
X0511965Y0307058D02*
X0511965Y0349279D01*
X0511619Y0348933D02*
X0528265Y0348933D01*
X0528265Y0343933D02*
X0506619Y0343933D01*
X0506965Y0344279D02*
X0506965Y0307058D01*
X0501965Y0291933D02*
X0501965Y0286262D01*
X0499425Y0283933D02*
X0467243Y0283933D01*
X0466965Y0283591D02*
X0466965Y0268933D01*
X0466965Y0268933D01*
X0472115Y0268933D01*
X0486965Y0275933D02*
X0486965Y0291933D01*
X0491965Y0291933D02*
X0491965Y0277539D01*
X0493592Y0278933D02*
X0429365Y0278933D01*
X0426965Y0280933D02*
X0426965Y0281904D01*
X0421965Y0281918D02*
X0421965Y0280933D01*
X0431965Y0281889D02*
X0431965Y0230933D01*
X0434465Y0223933D02*
X0434465Y0217033D01*
X0417115Y0223933D02*
X0411965Y0223933D01*
X0416965Y0223933D02*
X0416965Y0223933D01*
X0396965Y0206396D02*
X0396965Y0179133D01*
X0411965Y0179133D02*
X0411965Y0188908D01*
X0416965Y0188908D02*
X0416965Y0179133D01*
X0421965Y0179133D02*
X0421965Y0188908D01*
X0376965Y0231705D02*
X0376965Y0282050D01*
X0379071Y0278933D02*
X0359365Y0278933D01*
X0361965Y0280116D02*
X0361965Y0241021D01*
X0356965Y0240933D02*
X0356965Y0262279D01*
X0358619Y0263933D02*
X0379656Y0263933D01*
X0379065Y0268933D02*
X0359565Y0268933D01*
X0361465Y0273933D02*
X0377115Y0273933D01*
X0381965Y0281283D02*
X0381965Y0282035D01*
X0386965Y0282020D02*
X0386965Y0281283D01*
X0386965Y0292420D02*
X0386965Y0309022D01*
X0386751Y0308933D02*
X0398300Y0308933D01*
X0396965Y0311013D02*
X0396965Y0292391D01*
X0391965Y0292406D02*
X0391965Y0312698D01*
X0393448Y0313933D02*
X0396365Y0313933D01*
X0396965Y0316854D02*
X0396965Y0320916D01*
X0398300Y0318933D02*
X0397492Y0318125D01*
X0389465Y0317383D02*
X0389465Y0324133D01*
X0389465Y0317383D02*
X0385415Y0314008D01*
X0377040Y0314008D01*
X0374265Y0313258D01*
X0377490Y0314458D01*
X0381965Y0307293D02*
X0381965Y0305880D01*
X0366965Y0306462D02*
X0366965Y0306947D01*
X0361965Y0305755D02*
X0361965Y0294450D01*
X0361448Y0293933D02*
X0301819Y0293933D01*
X0301965Y0294079D02*
X0301965Y0242108D01*
X0304721Y0239945D02*
X0304721Y0239945D01*
X0305733Y0238933D02*
X0319265Y0238933D01*
X0319265Y0233933D02*
X0310733Y0233933D01*
X0311965Y0232701D02*
X0311965Y0261296D01*
X0314328Y0258933D02*
X0288882Y0258933D01*
X0286965Y0256579D02*
X0286965Y0242633D01*
X0281965Y0242633D02*
X0281965Y0251579D01*
X0281865Y0248933D02*
X0318300Y0248933D01*
X0319265Y0243933D02*
X0280630Y0243933D01*
X0291965Y0242633D02*
X0291965Y0291933D01*
X0286965Y0291933D02*
X0286965Y0275933D01*
X0289365Y0273933D02*
X0304615Y0273933D01*
X0306571Y0268933D02*
X0291465Y0268933D01*
X0289365Y0263933D02*
X0309328Y0263933D01*
X0306965Y0267035D02*
X0306965Y0237701D01*
X0313165Y0228933D02*
X0316571Y0228933D01*
X0316965Y0229328D02*
X0316965Y0256296D01*
X0317065Y0253933D02*
X0284319Y0253933D01*
X0284165Y0261133D02*
X0274465Y0251433D01*
X0268026Y0258426D02*
X0267853Y0258599D01*
X0267191Y0259080D01*
X0266461Y0259452D01*
X0265683Y0259705D01*
X0264874Y0259833D01*
X0264465Y0259833D01*
X0264056Y0259833D01*
X0263248Y0259705D01*
X0262469Y0259452D01*
X0261740Y0259080D01*
X0261537Y0258933D02*
X0260630Y0258933D01*
X0264465Y0258933D02*
X0264465Y0258933D01*
X0264465Y0259833D02*
X0264465Y0251433D01*
X0264465Y0251433D01*
X0264465Y0259833D01*
X0266965Y0259195D02*
X0266965Y0266650D01*
X0266965Y0268933D02*
X0266965Y0268933D01*
X0267115Y0268933D02*
X0267115Y0271066D01*
X0264098Y0274083D01*
X0261965Y0274083D01*
X0261965Y0268933D01*
X0261965Y0268933D01*
X0261965Y0263783D01*
X0264248Y0263933D02*
X0278965Y0263933D01*
X0278965Y0264534D02*
X0278965Y0263287D01*
X0277192Y0261513D01*
X0275937Y0262033D01*
X0272993Y0262033D01*
X0270273Y0260906D01*
X0268192Y0258825D01*
X0268026Y0258426D01*
X0268300Y0258933D02*
X0267394Y0258933D01*
X0271965Y0261607D02*
X0271965Y0264645D01*
X0274465Y0264133D02*
X0276453Y0264133D01*
X0277910Y0265589D01*
X0278965Y0264534D01*
X0276965Y0264645D02*
X0276965Y0261607D01*
X0274465Y0264133D02*
X0274465Y0268933D01*
X0274465Y0268933D01*
X0274465Y0273733D01*
X0274465Y0268933D01*
X0274465Y0268933D01*
X0271965Y0268933D02*
X0271965Y0268933D01*
X0271965Y0273221D02*
X0271965Y0291933D01*
X0266965Y0291933D02*
X0266965Y0271216D01*
X0267115Y0268933D02*
X0261965Y0268933D01*
X0261965Y0291933D01*
X0256965Y0292333D02*
X0256965Y0271216D01*
X0256965Y0268933D02*
X0256965Y0268933D01*
X0256965Y0266650D02*
X0256965Y0261607D01*
X0261965Y0268933D02*
X0261965Y0268933D01*
X0261965Y0273933D02*
X0261965Y0273933D01*
X0259682Y0273933D02*
X0247360Y0273933D01*
X0246965Y0274328D02*
X0246965Y0301779D01*
X0244811Y0303933D02*
X0244365Y0303933D01*
X0244365Y0299699D02*
X0243574Y0297788D01*
X0236865Y0291079D01*
X0236865Y0286761D01*
X0235739Y0284041D01*
X0233657Y0281960D01*
X0230937Y0280833D01*
X0227993Y0280833D01*
X0225273Y0281960D01*
X0223192Y0284041D01*
X0223026Y0284440D01*
X0222853Y0284267D01*
X0222191Y0283786D01*
X0221461Y0283414D01*
X0220683Y0283161D01*
X0219874Y0283033D01*
X0219465Y0283033D01*
X0219465Y0291433D01*
X0219465Y0291433D01*
X0219465Y0299833D01*
X0219874Y0299833D01*
X0220683Y0299705D01*
X0221461Y0299452D01*
X0222191Y0299080D01*
X0222853Y0298599D01*
X0223026Y0298426D01*
X0223192Y0298825D01*
X0225273Y0300906D01*
X0227993Y0302033D01*
X0230937Y0302033D01*
X0232475Y0301396D01*
X0233965Y0302887D01*
X0233965Y0304534D01*
X0232910Y0305589D01*
X0231453Y0304133D01*
X0229465Y0304133D01*
X0229465Y0308933D01*
X0224665Y0308933D01*
X0224665Y0306945D01*
X0227477Y0304133D01*
X0229465Y0304133D01*
X0229465Y0308933D01*
X0229465Y0308933D01*
X0216965Y0308933D01*
X0211815Y0308933D01*
X0211815Y0306800D01*
X0214832Y0303783D01*
X0216965Y0303783D01*
X0216965Y0308933D01*
X0216965Y0308933D01*
X0204315Y0308933D01*
X0206033Y0303933D02*
X0214682Y0303933D01*
X0216965Y0303933D02*
X0216965Y0303933D01*
X0216965Y0303783D02*
X0219098Y0303783D01*
X0222115Y0306800D01*
X0222115Y0308933D01*
X0216965Y0308933D01*
X0211815Y0308933D01*
X0211815Y0311066D01*
X0214832Y0314083D01*
X0216965Y0314083D01*
X0216965Y0308933D01*
X0216965Y0308933D01*
X0216965Y0299195D01*
X0216537Y0298933D02*
X0215630Y0298933D01*
X0219465Y0298933D02*
X0219465Y0298933D01*
X0221965Y0299195D02*
X0221965Y0306650D01*
X0221965Y0308933D02*
X0221965Y0308933D01*
X0222115Y0308933D02*
X0222115Y0311066D01*
X0219098Y0314083D01*
X0216965Y0314083D01*
X0216965Y0308933D01*
X0216965Y0308933D01*
X0216965Y0303783D01*
X0219248Y0303933D02*
X0233965Y0303933D01*
X0231965Y0304645D02*
X0231965Y0301607D01*
X0226965Y0301607D02*
X0226965Y0304645D01*
X0226965Y0308933D02*
X0226965Y0308933D01*
X0224665Y0308933D02*
X0229465Y0308933D01*
X0229465Y0308933D01*
X0229465Y0313733D01*
X0227477Y0313733D01*
X0224665Y0310921D01*
X0224665Y0308933D01*
X0222115Y0308933D02*
X0216965Y0308933D01*
X0216965Y0331779D01*
X0214811Y0333933D02*
X0189465Y0333933D01*
X0189465Y0328933D02*
X0219811Y0328933D01*
X0221965Y0326779D02*
X0221965Y0311216D01*
X0219248Y0313933D02*
X0234566Y0313933D01*
X0234689Y0314056D02*
X0232910Y0312277D01*
X0231453Y0313733D01*
X0229465Y0313733D01*
X0229465Y0308933D01*
X0229465Y0308933D01*
X0226965Y0313221D02*
X0226965Y0321779D01*
X0224811Y0323933D02*
X0189465Y0323933D01*
X0189465Y0318933D02*
X0229811Y0318933D01*
X0231965Y0316779D02*
X0231965Y0313221D01*
X0234689Y0314056D02*
X0197770Y0350975D01*
X0197770Y0350975D01*
X0196307Y0352437D01*
X0195515Y0354349D01*
X0195515Y0380529D01*
X0189420Y0386625D01*
X0189289Y0386755D01*
X0189226Y0386755D01*
X0184787Y0391194D01*
X0184787Y0397472D01*
X0189226Y0401911D01*
X0195504Y0401911D01*
X0199943Y0397472D01*
X0199943Y0391194D01*
X0199751Y0391002D01*
X0205124Y0385629D01*
X0205915Y0383717D01*
X0205915Y0357537D01*
X0208015Y0355437D01*
X0208015Y0391779D01*
X0196307Y0403487D01*
X0195515Y0405399D01*
X0195515Y0413167D01*
X0196307Y0415079D01*
X0197770Y0416541D01*
X0202787Y0421559D01*
X0202787Y0427172D01*
X0206648Y0431033D01*
X0195625Y0431033D01*
X0195262Y0430940D01*
X0194600Y0431033D01*
X0193931Y0431033D01*
X0193585Y0431176D01*
X0193214Y0431229D01*
X0192638Y0431569D01*
X0192020Y0431825D01*
X0191755Y0432090D01*
X0191432Y0432280D01*
X0191030Y0432814D01*
X0190557Y0433287D01*
X0190413Y0433634D01*
X0181416Y0445590D01*
X0182365Y0443300D01*
X0182365Y0440157D01*
X0181162Y0437253D01*
X0178940Y0435031D01*
X0176037Y0433828D01*
X0174414Y0433828D01*
X0172943Y0432357D01*
X0172943Y0428994D01*
X0168504Y0424555D01*
X0162226Y0424555D01*
X0159848Y0426933D01*
X0153031Y0426933D01*
X0151120Y0427725D01*
X0136165Y0442679D01*
X0136165Y0353933D01*
X0185460Y0353933D01*
X0187297Y0353172D01*
X0188704Y0351765D01*
X0189465Y0349928D01*
X0189465Y0302938D01*
X0188704Y0301101D01*
X0187297Y0299694D01*
X0185460Y0298933D01*
X0186965Y0299557D02*
X0186965Y0135321D01*
X0187149Y0133933D02*
X0643710Y0133933D01*
X0645397Y0138933D02*
X0185462Y0138933D01*
X0181965Y0142131D02*
X0181965Y0298933D01*
X0176965Y0298933D02*
X0176965Y0143409D01*
X0171965Y0124567D02*
X0171965Y0123133D01*
X0146965Y0123133D02*
X0146965Y0225886D01*
X0141965Y0225886D02*
X0141965Y0123133D01*
X0136165Y0148933D02*
X0348490Y0148933D01*
X0346965Y0151006D02*
X0346965Y0123133D01*
X0341965Y0123133D02*
X0341965Y0157804D01*
X0341135Y0158933D02*
X0262058Y0158933D01*
X0261965Y0158840D02*
X0261965Y0123133D01*
X0256965Y0123133D02*
X0256965Y0153840D01*
X0257058Y0153933D02*
X0344812Y0153933D01*
X0354045Y0158933D02*
X0594387Y0158933D01*
X0596248Y0163933D02*
X0350368Y0163933D01*
X0351965Y0161761D02*
X0351965Y0166733D01*
X0346965Y0168559D02*
X0346965Y0168865D01*
X0346897Y0168933D02*
X0346690Y0168933D01*
X0337458Y0163933D02*
X0267058Y0163933D01*
X0266965Y0163840D02*
X0266965Y0123133D01*
X0271965Y0123133D02*
X0271965Y0180261D01*
X0270790Y0178933D02*
X0274428Y0178933D01*
X0276965Y0178533D02*
X0276965Y0123133D01*
X0281965Y0123133D02*
X0281965Y0180261D01*
X0279502Y0178933D02*
X0284428Y0178933D01*
X0286965Y0178533D02*
X0286965Y0123133D01*
X0291965Y0123133D02*
X0291965Y0180261D01*
X0289502Y0178933D02*
X0294428Y0178933D01*
X0296965Y0178533D02*
X0296965Y0123133D01*
X0311965Y0123133D02*
X0311965Y0183691D01*
X0312090Y0183446D01*
X0312617Y0182720D01*
X0313252Y0182085D01*
X0313978Y0181558D01*
X0314777Y0181151D01*
X0315630Y0180873D01*
X0316517Y0180733D01*
X0316965Y0180733D01*
X0316965Y0186433D01*
X0311265Y0186433D01*
X0306965Y0186433D01*
X0306965Y0192133D01*
X0306517Y0192133D01*
X0305630Y0191993D01*
X0304777Y0191715D01*
X0303978Y0191308D01*
X0303563Y0191007D01*
X0301440Y0193130D01*
X0298537Y0194333D01*
X0295394Y0194333D01*
X0292490Y0193130D01*
X0291965Y0192605D01*
X0291440Y0193130D01*
X0288537Y0194333D01*
X0285394Y0194333D01*
X0282490Y0193130D01*
X0281965Y0192605D01*
X0281440Y0193130D01*
X0278537Y0194333D01*
X0275394Y0194333D01*
X0272490Y0193130D01*
X0270790Y0191430D01*
X0270790Y0199166D01*
X0270904Y0199440D01*
X0271078Y0199267D01*
X0271740Y0198786D01*
X0272469Y0198414D01*
X0273248Y0198161D01*
X0274056Y0198033D01*
X0274465Y0198033D01*
X0274465Y0206433D01*
X0274465Y0206433D01*
X0274465Y0214833D01*
X0274056Y0214833D01*
X0273248Y0214705D01*
X0272469Y0214452D01*
X0271740Y0214080D01*
X0271078Y0213599D01*
X0270904Y0213426D01*
X0270739Y0213825D01*
X0268657Y0215906D01*
X0265937Y0217033D01*
X0262993Y0217033D01*
X0260273Y0215906D01*
X0259504Y0215137D01*
X0257965Y0216676D01*
X0257965Y0219088D01*
X0258578Y0219433D01*
X0258840Y0219766D01*
X0259178Y0220020D01*
X0259595Y0220727D01*
X0260102Y0221372D01*
X0260216Y0221780D01*
X0265205Y0230233D01*
X0290866Y0230233D01*
X0287910Y0227277D01*
X0286453Y0228733D01*
X0284465Y0228733D01*
X0282477Y0228733D01*
X0279665Y0225921D01*
X0279665Y0223933D01*
X0279665Y0221945D01*
X0282477Y0219133D01*
X0284465Y0219133D01*
X0284465Y0223933D01*
X0279665Y0223933D01*
X0284465Y0223933D01*
X0284465Y0223933D01*
X0271965Y0223933D01*
X0266815Y0223933D01*
X0266815Y0221800D01*
X0269832Y0218783D01*
X0271965Y0218783D01*
X0271965Y0223933D01*
X0271965Y0223933D01*
X0261487Y0223933D01*
X0261965Y0224743D02*
X0261965Y0216607D01*
X0257965Y0218933D02*
X0269682Y0218933D01*
X0271965Y0218933D02*
X0271965Y0218933D01*
X0271965Y0218783D02*
X0274098Y0218783D01*
X0277115Y0221800D01*
X0277115Y0223933D01*
X0271965Y0223933D01*
X0266815Y0223933D01*
X0266815Y0226066D01*
X0269832Y0229083D01*
X0271965Y0229083D01*
X0271965Y0223933D01*
X0271965Y0223933D01*
X0271965Y0214195D01*
X0271537Y0213933D02*
X0270630Y0213933D01*
X0274465Y0213933D02*
X0274465Y0213933D01*
X0274465Y0214833D02*
X0274465Y0206433D01*
X0274465Y0206433D01*
X0274465Y0198033D01*
X0274874Y0198033D01*
X0275683Y0198161D01*
X0276461Y0198414D01*
X0277191Y0198786D01*
X0277853Y0199267D01*
X0278026Y0199440D01*
X0278192Y0199041D01*
X0280273Y0196960D01*
X0282993Y0195833D01*
X0285937Y0195833D01*
X0288657Y0196960D01*
X0290739Y0199041D01*
X0291865Y0201761D01*
X0291865Y0206579D01*
X0298474Y0213187D01*
X0299265Y0215099D01*
X0299265Y0218834D01*
X0300765Y0220334D01*
X0300765Y0218866D01*
X0300765Y0216400D01*
X0301709Y0214121D01*
X0322638Y0193192D01*
X0322490Y0193130D01*
X0320367Y0191007D01*
X0319953Y0191308D01*
X0319153Y0191715D01*
X0318300Y0191993D01*
X0317414Y0192133D01*
X0316965Y0192133D01*
X0316517Y0192133D01*
X0315630Y0191993D01*
X0314777Y0191715D01*
X0313978Y0191308D01*
X0313252Y0190781D01*
X0312617Y0190146D01*
X0312090Y0189421D01*
X0311965Y0189175D01*
X0311840Y0189421D01*
X0311313Y0190146D01*
X0310679Y0190781D01*
X0309953Y0191308D01*
X0309153Y0191715D01*
X0308300Y0191993D01*
X0307414Y0192133D01*
X0306965Y0192133D01*
X0306965Y0186433D01*
X0306965Y0186433D01*
X0306965Y0180733D01*
X0307414Y0180733D01*
X0308300Y0180873D01*
X0309153Y0181151D01*
X0309953Y0181558D01*
X0310679Y0182085D01*
X0311313Y0182720D01*
X0311840Y0183446D01*
X0311965Y0183691D01*
X0311965Y0186433D02*
X0311965Y0186433D01*
X0311965Y0189175D02*
X0311965Y0203865D01*
X0311897Y0203933D02*
X0291865Y0203933D01*
X0291965Y0206679D02*
X0291965Y0192605D01*
X0289502Y0193933D02*
X0294428Y0193933D01*
X0296965Y0194333D02*
X0296965Y0211679D01*
X0298782Y0213933D02*
X0301897Y0213933D01*
X0301965Y0213865D02*
X0301965Y0192605D01*
X0299502Y0193933D02*
X0321897Y0193933D01*
X0321965Y0193865D02*
X0321965Y0192605D01*
X0316965Y0192133D02*
X0316965Y0186433D01*
X0316965Y0186433D01*
X0306965Y0186433D01*
X0306965Y0208865D01*
X0306897Y0208933D02*
X0294219Y0208933D01*
X0294065Y0216133D02*
X0285065Y0207133D01*
X0284465Y0206433D01*
X0278026Y0213426D02*
X0277853Y0213599D01*
X0277191Y0214080D01*
X0276461Y0214452D01*
X0275683Y0214705D01*
X0274874Y0214833D01*
X0274465Y0214833D01*
X0276965Y0214195D02*
X0276965Y0221650D01*
X0276965Y0223933D02*
X0276965Y0223933D01*
X0277115Y0223933D02*
X0277115Y0226066D01*
X0274098Y0229083D01*
X0271965Y0229083D01*
X0271965Y0223933D01*
X0271965Y0223933D01*
X0271965Y0218783D01*
X0274248Y0218933D02*
X0288865Y0218933D01*
X0288865Y0218287D02*
X0287121Y0216543D01*
X0285937Y0217033D01*
X0282993Y0217033D01*
X0280273Y0215906D01*
X0278192Y0213825D01*
X0278026Y0213426D01*
X0278300Y0213933D02*
X0277394Y0213933D01*
X0281965Y0216607D02*
X0281965Y0219645D01*
X0284465Y0219133D02*
X0286453Y0219133D01*
X0287910Y0220589D01*
X0288865Y0219634D01*
X0288865Y0218287D01*
X0286965Y0219645D02*
X0286965Y0216607D01*
X0284465Y0219133D02*
X0284465Y0223933D01*
X0284465Y0223933D01*
X0284465Y0228733D01*
X0284465Y0223933D01*
X0284465Y0223933D01*
X0281965Y0223933D02*
X0281965Y0223933D01*
X0281965Y0228221D02*
X0281965Y0230233D01*
X0276965Y0230233D02*
X0276965Y0226216D01*
X0277115Y0223933D02*
X0271965Y0223933D01*
X0271965Y0230233D01*
X0271965Y0228933D02*
X0271965Y0228933D01*
X0269682Y0228933D02*
X0264438Y0228933D01*
X0266965Y0230233D02*
X0266965Y0226216D01*
X0266965Y0223933D02*
X0266965Y0223933D01*
X0266965Y0221650D02*
X0266965Y0216607D01*
X0271965Y0223933D02*
X0271965Y0223933D01*
X0274248Y0228933D02*
X0289566Y0228933D01*
X0286965Y0228221D02*
X0286965Y0230233D01*
X0294465Y0223933D02*
X0294065Y0223333D01*
X0294065Y0216133D01*
X0299365Y0218933D02*
X0300765Y0218933D01*
X0313165Y0223933D02*
X0314615Y0223933D01*
X0314433Y0218933D02*
X0316565Y0218933D01*
X0316965Y0216793D02*
X0316965Y0216401D01*
X0341965Y0223933D02*
X0341965Y0223933D01*
X0336965Y0244270D02*
X0336965Y0248671D01*
X0337394Y0248933D02*
X0338300Y0248933D01*
X0334465Y0248933D02*
X0334465Y0248933D01*
X0334465Y0253933D02*
X0334465Y0253933D01*
X0334465Y0258933D02*
X0334465Y0258933D01*
X0337394Y0263933D02*
X0338300Y0263933D01*
X0344465Y0257133D02*
X0344465Y0256433D01*
X0344465Y0257133D02*
X0354365Y0267033D01*
X0354365Y0273333D01*
X0354465Y0273933D01*
X0356965Y0280933D02*
X0356965Y0306091D01*
X0351965Y0306124D02*
X0351965Y0307268D01*
X0344365Y0313333D02*
X0360440Y0313333D01*
X0333765Y0313933D02*
X0332565Y0313933D01*
X0331965Y0316854D02*
X0331965Y0321013D01*
X0332565Y0323933D02*
X0333765Y0323933D01*
X0321965Y0313933D02*
X0321965Y0313333D01*
X0313865Y0313333D01*
X0297665Y0297133D01*
X0258965Y0297133D01*
X0200715Y0355383D01*
X0200715Y0382683D01*
X0192365Y0391033D01*
X0192365Y0394333D01*
X0186965Y0389016D02*
X0186965Y0353309D01*
X0181965Y0353933D02*
X0181965Y0409121D01*
X0181639Y0408933D02*
X0195515Y0408933D01*
X0195832Y0413933D02*
X0186394Y0413933D01*
X0186461Y0414048D02*
X0187149Y0416618D01*
X0187149Y0419279D01*
X0186461Y0421849D01*
X0185130Y0424154D01*
X0183249Y0426035D01*
X0180945Y0427366D01*
X0178374Y0428054D01*
X0175714Y0428054D01*
X0173143Y0427366D01*
X0170839Y0426035D01*
X0168958Y0424154D01*
X0167627Y0421849D01*
X0166938Y0419279D01*
X0166938Y0416618D01*
X0167627Y0414048D01*
X0168958Y0411744D01*
X0170839Y0409862D01*
X0173143Y0408532D01*
X0175714Y0407843D01*
X0178374Y0407843D01*
X0180945Y0408532D01*
X0183249Y0409862D01*
X0185130Y0411744D01*
X0186461Y0414048D01*
X0186965Y0415931D02*
X0186965Y0399650D01*
X0186248Y0398933D02*
X0136165Y0398933D01*
X0136165Y0393933D02*
X0184787Y0393933D01*
X0187048Y0388933D02*
X0136165Y0388933D01*
X0136165Y0383933D02*
X0192111Y0383933D01*
X0191965Y0384079D02*
X0191965Y0314328D01*
X0191571Y0313933D02*
X0189465Y0313933D01*
X0189465Y0308933D02*
X0189615Y0308933D01*
X0189465Y0303933D02*
X0191565Y0303933D01*
X0196965Y0295465D02*
X0196965Y0199328D01*
X0196571Y0198933D02*
X0136165Y0198933D01*
X0136165Y0193933D02*
X0194615Y0193933D01*
X0196065Y0188933D02*
X0136165Y0188933D01*
X0136165Y0183933D02*
X0197797Y0183933D01*
X0196965Y0184827D02*
X0196965Y0123133D01*
X0201965Y0123133D02*
X0201965Y0179765D01*
X0202797Y0178933D02*
X0136165Y0178933D01*
X0136165Y0173933D02*
X0207065Y0173933D01*
X0206965Y0174765D02*
X0206965Y0123133D01*
X0211965Y0123133D02*
X0211965Y0160765D01*
X0213797Y0158933D02*
X0136165Y0158933D01*
X0136165Y0153933D02*
X0218797Y0153933D01*
X0218159Y0154571D02*
X0218159Y0154571D01*
X0216965Y0155765D02*
X0216965Y0123133D01*
X0221965Y0123133D02*
X0221965Y0151973D01*
X0226965Y0151883D02*
X0226965Y0123133D01*
X0231965Y0123133D02*
X0231965Y0151883D01*
X0236965Y0151883D02*
X0236965Y0123133D01*
X0241965Y0123133D02*
X0241965Y0151883D01*
X0246965Y0151883D02*
X0246965Y0123133D01*
X0251965Y0123133D02*
X0251965Y0151883D01*
X0246965Y0164283D02*
X0246965Y0181479D01*
X0248631Y0183933D02*
X0258390Y0183933D01*
X0258390Y0178933D02*
X0244419Y0178933D01*
X0241965Y0176479D02*
X0241965Y0164283D01*
X0240630Y0168933D02*
X0254522Y0168933D01*
X0256965Y0171376D02*
X0256965Y0200747D01*
X0258300Y0198933D02*
X0249365Y0198933D01*
X0246965Y0200933D02*
X0246965Y0210140D01*
X0248172Y0208933D02*
X0136165Y0208933D01*
X0136165Y0203933D02*
X0253172Y0203933D01*
X0251965Y0205140D02*
X0251965Y0166376D01*
X0258390Y0173933D02*
X0241865Y0173933D01*
X0234665Y0176533D02*
X0234465Y0176433D01*
X0234665Y0176533D02*
X0243665Y0185533D01*
X0243665Y0193633D01*
X0244465Y0193933D01*
X0251465Y0193933D02*
X0258390Y0193933D01*
X0258390Y0188933D02*
X0249365Y0188933D01*
X0238465Y0190034D02*
X0237910Y0190589D01*
X0236453Y0189133D01*
X0234465Y0189133D01*
X0234465Y0193933D01*
X0234465Y0193933D01*
X0231965Y0193933D02*
X0231965Y0193933D01*
X0231965Y0189645D02*
X0231965Y0186607D01*
X0228300Y0183933D02*
X0227394Y0183933D01*
X0224465Y0178933D02*
X0224465Y0178933D01*
X0224465Y0173933D02*
X0224465Y0173933D01*
X0224465Y0168933D02*
X0224465Y0168933D01*
X0221965Y0168671D02*
X0221965Y0168301D01*
X0221537Y0168933D02*
X0221333Y0168933D01*
X0226965Y0168671D02*
X0226965Y0164283D01*
X0227394Y0168933D02*
X0228300Y0168933D01*
X0231965Y0166259D02*
X0231965Y0164283D01*
X0236965Y0164283D02*
X0236965Y0166259D01*
X0236965Y0186607D02*
X0236965Y0189645D01*
X0221965Y0193933D02*
X0221965Y0193933D01*
X0201965Y0201283D02*
X0201965Y0290465D01*
X0202065Y0288933D02*
X0154268Y0288933D01*
X0151965Y0286260D02*
X0151965Y0279438D01*
X0146965Y0280756D02*
X0146965Y0284941D01*
X0141965Y0284941D02*
X0141965Y0280756D01*
X0136965Y0279998D02*
X0136965Y0285699D01*
X0136165Y0283933D02*
X0203300Y0283933D01*
X0198497Y0293933D02*
X0155186Y0293933D01*
X0196965Y0316283D02*
X0196965Y0351779D01*
X0195687Y0353933D02*
X0136165Y0353933D01*
X0136965Y0353933D02*
X0136965Y0441879D01*
X0136165Y0438933D02*
X0139911Y0438933D01*
X0141965Y0436879D02*
X0141965Y0353933D01*
X0146965Y0353933D02*
X0146965Y0431879D01*
X0144911Y0433933D02*
X0136165Y0433933D01*
X0136165Y0428933D02*
X0149911Y0428933D01*
X0151965Y0427374D02*
X0151965Y0353933D01*
X0156965Y0353933D02*
X0156965Y0426933D01*
X0161965Y0424816D02*
X0161965Y0353933D01*
X0166965Y0353933D02*
X0166965Y0416518D01*
X0166938Y0418933D02*
X0136165Y0418933D01*
X0136165Y0413933D02*
X0167694Y0413933D01*
X0166965Y0419379D02*
X0166965Y0424555D01*
X0168830Y0423933D02*
X0136165Y0423933D01*
X0136165Y0408933D02*
X0172449Y0408933D01*
X0171965Y0409212D02*
X0171965Y0353933D01*
X0176965Y0353933D02*
X0176965Y0407843D01*
X0187149Y0418933D02*
X0200161Y0418933D01*
X0201965Y0420737D02*
X0201965Y0431033D01*
X0204548Y0428933D02*
X0172882Y0428933D01*
X0171965Y0428016D02*
X0171965Y0426685D01*
X0176965Y0428054D02*
X0176965Y0434213D01*
X0176289Y0433933D02*
X0190188Y0433933D01*
X0191965Y0431879D02*
X0191965Y0401911D01*
X0196122Y0403933D02*
X0136165Y0403933D01*
X0136165Y0378933D02*
X0195515Y0378933D01*
X0195515Y0373933D02*
X0136165Y0373933D01*
X0136165Y0368933D02*
X0195515Y0368933D01*
X0195515Y0363933D02*
X0136165Y0363933D01*
X0136165Y0358933D02*
X0195515Y0358933D01*
X0205915Y0358933D02*
X0208015Y0358933D01*
X0206965Y0356487D02*
X0206965Y0392829D01*
X0205861Y0393933D02*
X0199943Y0393933D01*
X0201965Y0397829D02*
X0201965Y0388787D01*
X0201819Y0388933D02*
X0208015Y0388933D01*
X0208015Y0383933D02*
X0205826Y0383933D01*
X0205915Y0378933D02*
X0208015Y0378933D01*
X0208015Y0373933D02*
X0205915Y0373933D01*
X0205915Y0368933D02*
X0208015Y0368933D01*
X0208015Y0363933D02*
X0205915Y0363933D01*
X0213215Y0355183D02*
X0219465Y0348933D01*
X0231965Y0348933D01*
X0231965Y0349333D01*
X0231965Y0338933D02*
X0231965Y0331487D01*
X0231965Y0333733D02*
X0229719Y0333733D01*
X0261119Y0302333D01*
X0283817Y0302333D01*
X0283693Y0302715D01*
X0283565Y0303524D01*
X0283565Y0303933D01*
X0291965Y0303933D01*
X0291965Y0303933D01*
X0259519Y0303933D01*
X0261965Y0302333D02*
X0261965Y0313933D01*
X0253565Y0313933D01*
X0253565Y0313524D01*
X0253693Y0312715D01*
X0253946Y0311937D01*
X0254318Y0311208D01*
X0254799Y0310545D01*
X0255378Y0309967D01*
X0256040Y0309486D01*
X0256769Y0309114D01*
X0257548Y0308861D01*
X0258356Y0308733D01*
X0261965Y0308733D01*
X0261965Y0313933D01*
X0261965Y0313933D01*
X0249519Y0313933D01*
X0251965Y0311487D02*
X0251965Y0321013D01*
X0252492Y0319741D02*
X0254573Y0317660D01*
X0254973Y0317494D01*
X0254799Y0317321D01*
X0254318Y0316658D01*
X0253946Y0315929D01*
X0253693Y0315151D01*
X0253565Y0314342D01*
X0253565Y0313933D01*
X0261965Y0313933D01*
X0261965Y0313933D01*
X0261965Y0308733D01*
X0265574Y0308733D01*
X0266383Y0308861D01*
X0267161Y0309114D01*
X0267891Y0309486D01*
X0268553Y0309967D01*
X0269132Y0310545D01*
X0269613Y0311208D01*
X0269984Y0311937D01*
X0270237Y0312715D01*
X0270365Y0313524D01*
X0270365Y0313933D01*
X0261965Y0313933D01*
X0281365Y0313933D01*
X0281365Y0315405D02*
X0281365Y0312461D01*
X0282492Y0309741D01*
X0284573Y0307660D01*
X0284973Y0307494D01*
X0284799Y0307321D01*
X0284318Y0306658D01*
X0283946Y0305929D01*
X0283693Y0305151D01*
X0283565Y0304342D01*
X0283565Y0303933D01*
X0291965Y0303933D01*
X0286965Y0303933D02*
X0286965Y0303933D01*
X0281965Y0302333D02*
X0281965Y0311013D01*
X0283300Y0308933D02*
X0266604Y0308933D01*
X0266965Y0309050D02*
X0266965Y0302333D01*
X0271965Y0302333D02*
X0271965Y0321013D01*
X0271439Y0319741D02*
X0272565Y0322461D01*
X0272565Y0325405D01*
X0271439Y0328125D01*
X0270980Y0328583D01*
X0282950Y0328583D01*
X0282492Y0328125D01*
X0281365Y0325405D01*
X0281365Y0322461D01*
X0282492Y0319741D01*
X0283300Y0318933D01*
X0270630Y0318933D01*
X0271439Y0319741D02*
X0269357Y0317660D01*
X0268958Y0317494D01*
X0269132Y0317321D01*
X0269613Y0316658D01*
X0269984Y0315929D01*
X0270237Y0315151D01*
X0270365Y0314342D01*
X0270365Y0313933D01*
X0261965Y0313933D01*
X0261965Y0313933D01*
X0256965Y0313933D02*
X0256965Y0313933D01*
X0256965Y0309050D02*
X0256965Y0306487D01*
X0257326Y0308933D02*
X0254519Y0308933D01*
X0261965Y0308933D02*
X0261965Y0308933D01*
X0266965Y0313933D02*
X0266965Y0313933D01*
X0261965Y0323933D02*
X0261665Y0324133D01*
X0259865Y0324133D01*
X0247265Y0336733D01*
X0241965Y0331316D02*
X0241965Y0321487D01*
X0239519Y0323933D02*
X0251365Y0323933D01*
X0251365Y0325279D02*
X0251365Y0322461D01*
X0252492Y0319741D01*
X0253300Y0318933D02*
X0244519Y0318933D01*
X0246965Y0316487D02*
X0246965Y0329155D01*
X0247489Y0329155D02*
X0251365Y0325279D01*
X0247711Y0328933D02*
X0234519Y0328933D01*
X0236965Y0326487D02*
X0236965Y0334050D01*
X0237161Y0334114D02*
X0237891Y0334486D01*
X0238553Y0334967D01*
X0239132Y0335545D01*
X0239613Y0336208D01*
X0239687Y0336354D01*
X0239687Y0333594D01*
X0244126Y0329155D01*
X0247489Y0329155D01*
X0239687Y0333933D02*
X0236604Y0333933D01*
X0236383Y0333861D02*
X0237161Y0334114D01*
X0236383Y0333861D02*
X0235574Y0333733D01*
X0231965Y0333733D01*
X0231965Y0338933D01*
X0231965Y0338933D01*
X0231965Y0333733D01*
X0231965Y0333933D02*
X0231965Y0333933D01*
X0211965Y0336779D02*
X0211965Y0311216D01*
X0211965Y0308933D02*
X0211965Y0308933D01*
X0211965Y0306650D02*
X0211965Y0301607D01*
X0206965Y0303001D02*
X0206965Y0341779D01*
X0204811Y0343933D02*
X0189465Y0343933D01*
X0189465Y0338933D02*
X0209811Y0338933D01*
X0201965Y0346779D02*
X0201965Y0314328D01*
X0202360Y0313933D02*
X0214682Y0313933D01*
X0216965Y0313933D02*
X0216965Y0313933D01*
X0216965Y0308933D02*
X0216965Y0308933D01*
X0222394Y0298933D02*
X0223300Y0298933D01*
X0219465Y0293933D02*
X0219465Y0293933D01*
X0219465Y0288933D02*
X0219465Y0288933D01*
X0219465Y0283933D02*
X0219465Y0283933D01*
X0216965Y0283671D02*
X0216965Y0283343D01*
X0221965Y0283671D02*
X0221965Y0278860D01*
X0221884Y0278933D02*
X0306571Y0278933D01*
X0296965Y0291933D02*
X0296965Y0242633D01*
X0284165Y0261133D02*
X0284165Y0268333D01*
X0284465Y0268933D01*
X0279566Y0273933D02*
X0264248Y0273933D01*
X0276965Y0273221D02*
X0276965Y0291933D01*
X0281965Y0291933D02*
X0281965Y0275933D01*
X0254811Y0293933D02*
X0239719Y0293933D01*
X0241965Y0296179D02*
X0241965Y0276283D01*
X0236965Y0275433D02*
X0236965Y0291179D01*
X0236865Y0288933D02*
X0357937Y0288933D01*
X0358148Y0283933D02*
X0235630Y0283933D01*
X0231965Y0281259D02*
X0231965Y0275433D01*
X0226965Y0275433D02*
X0226965Y0281259D01*
X0223300Y0283933D02*
X0222394Y0283933D01*
X0229465Y0291433D02*
X0230165Y0291733D01*
X0239165Y0300733D01*
X0239165Y0308833D01*
X0239465Y0308933D01*
X0272565Y0323933D02*
X0281365Y0323933D01*
X0281965Y0321013D02*
X0281965Y0316854D01*
X0282492Y0318125D02*
X0281365Y0315405D01*
X0282492Y0318125D02*
X0283300Y0318933D01*
X0291965Y0313933D02*
X0293215Y0315183D01*
X0298215Y0315183D01*
X0317465Y0334433D01*
X0317465Y0379033D01*
X0289565Y0406933D01*
X0285965Y0406933D01*
X0285465Y0407433D01*
X0281965Y0403933D01*
X0285465Y0407433D02*
X0285715Y0407683D01*
X0288215Y0433933D01*
X0288665Y0434833D01*
X0288665Y0437533D01*
X0294065Y0442933D01*
X0337265Y0442933D01*
X0360665Y0466333D01*
X0366965Y0466333D01*
X0366965Y0466728D01*
X0376865Y0466333D02*
X0376965Y0466728D01*
X0376865Y0466333D02*
X0365165Y0454633D01*
X0354365Y0454633D01*
X0327365Y0427633D01*
X0326465Y0427633D01*
X0326465Y0424033D01*
X0318365Y0415933D01*
X0309365Y0415933D01*
X0308215Y0427683D02*
X0304465Y0431433D01*
X0304465Y0436433D01*
X0303215Y0437683D01*
X0298215Y0437683D01*
X0295715Y0435183D01*
X0295715Y0433933D01*
X0295715Y0414908D01*
X0306690Y0403933D01*
X0321965Y0403933D01*
X0350565Y0418633D02*
X0367865Y0418633D01*
X0373265Y0424033D01*
X0373265Y0438883D01*
X0373215Y0440283D01*
X0366065Y0447433D01*
X0360665Y0447433D01*
X0380715Y0440283D02*
X0381365Y0441133D01*
X0386765Y0446533D01*
X0386765Y0466333D01*
X0386965Y0466728D01*
X0396965Y0466728D02*
X0397565Y0466333D01*
X0397565Y0440233D01*
X0398215Y0444608D01*
X0398215Y0422683D01*
X0406965Y0413933D01*
X0406565Y0413233D01*
X0406565Y0367333D01*
X0397565Y0358333D01*
X0392165Y0358333D01*
X0426965Y0366728D02*
X0427870Y0366728D01*
X0434015Y0360583D01*
X0452240Y0359683D02*
X0454040Y0355858D01*
X0452240Y0359683D02*
X0452240Y0382858D01*
X0438965Y0396133D01*
X0413765Y0396133D01*
X0422240Y0413933D02*
X0405715Y0430458D01*
X0405715Y0444608D01*
X0405665Y0440233D01*
X0405665Y0467233D01*
X0402065Y0470833D01*
X0402065Y0476233D01*
X0401965Y0476728D01*
X0391965Y0476728D02*
X0391265Y0477133D01*
X0381365Y0487033D01*
X0350765Y0487033D01*
X0347165Y0483433D01*
X0350765Y0471733D02*
X0362465Y0483433D01*
X0375065Y0483433D01*
X0381365Y0477133D01*
X0381965Y0476728D01*
X0371965Y0476728D02*
X0371465Y0476233D01*
X0360665Y0476233D01*
X0336365Y0451933D01*
X0330065Y0454633D02*
X0326465Y0451033D01*
X0330065Y0454633D02*
X0330065Y0470833D01*
X0330715Y0471138D01*
X0336365Y0475333D02*
X0336365Y0476233D01*
X0332765Y0479833D01*
X0328265Y0479833D01*
X0316565Y0468133D01*
X0316565Y0450133D01*
X0316670Y0436433D02*
X0317465Y0435733D01*
X0320165Y0435733D01*
X0326465Y0429433D01*
X0326465Y0427633D01*
X0319265Y0426733D02*
X0318315Y0427683D01*
X0308215Y0427683D01*
X0275165Y0454633D02*
X0237365Y0454633D01*
X0236965Y0453933D01*
X0237365Y0455533D01*
X0220265Y0472633D01*
X0219760Y0472683D01*
X0220265Y0486133D02*
X0219760Y0486433D01*
X0197765Y0464438D01*
X0197765Y0454633D01*
X0196965Y0453933D01*
X0190565Y0451033D02*
X0201365Y0440233D01*
X0232865Y0440233D01*
X0243665Y0429433D01*
X0244465Y0428933D01*
X0244340Y0428808D01*
X0244340Y0410533D01*
X0237715Y0403908D01*
X0223665Y0403908D01*
X0217253Y0397571D02*
X0217253Y0432046D01*
X0213065Y0436233D01*
X0194965Y0436233D01*
X0179765Y0456433D01*
X0147365Y0456433D01*
X0146886Y0457043D01*
X0136565Y0459133D02*
X0139465Y0464533D01*
X0179615Y0464533D01*
X0212015Y0499433D01*
X0250715Y0499433D01*
X0258065Y0493333D01*
X0396665Y0493333D01*
X0413765Y0476233D01*
X0413765Y0431233D01*
X0425465Y0419533D01*
X0443465Y0419533D01*
X0444365Y0420433D01*
X0449765Y0420433D01*
X0468665Y0401533D01*
X0464940Y0418933D02*
X0474140Y0418933D01*
X0478565Y0423358D01*
X0478565Y0438583D01*
X0479465Y0438933D01*
X0477665Y0439333D01*
X0465965Y0451033D01*
X0460420Y0460183D02*
X0466965Y0466728D01*
X0461010Y0472683D01*
X0429760Y0472683D01*
X0429065Y0472633D01*
X0429065Y0479833D02*
X0426365Y0479833D01*
X0420965Y0474433D01*
X0420965Y0461833D01*
X0421865Y0460933D01*
X0443215Y0460183D02*
X0460420Y0460183D01*
X0466965Y0466728D02*
X0466865Y0467233D01*
X0476965Y0466728D02*
X0476965Y0460183D01*
X0486965Y0450183D01*
X0486965Y0438933D01*
X0485315Y0438533D01*
X0485315Y0423358D01*
X0489740Y0418933D01*
X0504940Y0418933D01*
X0508215Y0427683D02*
X0508215Y0438933D01*
X0507365Y0439333D01*
X0487565Y0459133D01*
X0487565Y0466333D01*
X0486965Y0466728D01*
X0481965Y0476728D02*
X0481265Y0477133D01*
X0473165Y0485233D01*
X0447065Y0485233D01*
X0442565Y0479833D02*
X0429965Y0479833D01*
X0429760Y0480183D01*
X0429065Y0479833D01*
X0442565Y0479833D02*
X0445265Y0477133D01*
X0471365Y0477133D01*
X0471965Y0476728D01*
X0491965Y0476728D02*
X0492065Y0477133D01*
X0495665Y0480733D01*
X0495665Y0481633D01*
X0497465Y0483433D01*
X0540665Y0483433D01*
X0544265Y0479833D01*
X0532565Y0475333D02*
X0528065Y0479833D01*
X0504665Y0479833D01*
X0501965Y0477133D01*
X0501965Y0476728D01*
X0532565Y0475333D02*
X0532565Y0471733D01*
X0530765Y0444733D02*
X0530815Y0444138D01*
X0515715Y0438933D02*
X0515715Y0434133D01*
X0520415Y0429433D01*
X0530540Y0429433D01*
X0521965Y0413933D02*
X0521765Y0413233D01*
X0510065Y0401533D01*
X0510065Y0354733D01*
X0496790Y0341458D01*
X0496790Y0331558D01*
X0479465Y0314233D01*
X0499736Y0327150D02*
X0499736Y0327150D01*
X0501990Y0333933D02*
X0528265Y0333933D01*
X0528265Y0338933D02*
X0501990Y0338933D01*
X0513011Y0350325D02*
X0513011Y0350325D01*
X0515265Y0353933D02*
X0528265Y0353933D01*
X0528265Y0358933D02*
X0515265Y0358933D01*
X0500165Y0360133D02*
X0447065Y0413233D01*
X0446965Y0413933D01*
X0422240Y0413933D01*
X0424565Y0426058D02*
X0419840Y0430783D01*
X0419840Y0437958D01*
X0420090Y0438208D01*
X0420965Y0438433D01*
X0421465Y0438433D01*
X0443215Y0460183D01*
X0446165Y0451933D02*
X0459665Y0438433D01*
X0460090Y0438208D01*
X0434240Y0426058D02*
X0424565Y0426058D01*
X0420965Y0437533D02*
X0420090Y0438208D01*
X0390565Y0418633D02*
X0380715Y0428483D01*
X0380715Y0440283D01*
X0350765Y0471733D02*
X0339065Y0471733D01*
X0338215Y0471138D01*
X0339065Y0472633D01*
X0336365Y0475333D01*
X0301965Y0476728D02*
X0301265Y0477133D01*
X0288665Y0489733D01*
X0225665Y0489733D01*
X0222065Y0493333D01*
X0217565Y0493333D01*
X0190565Y0466333D01*
X0190565Y0451033D01*
X0181965Y0444861D02*
X0181965Y0444265D01*
X0182103Y0443933D02*
X0182663Y0443933D01*
X0181965Y0439191D02*
X0181965Y0426776D01*
X0185258Y0423933D02*
X0202787Y0423933D01*
X0210365Y0424033D02*
X0210365Y0421783D01*
X0200715Y0412133D01*
X0200715Y0406433D01*
X0213215Y0393933D01*
X0213215Y0355183D01*
X0199811Y0348933D02*
X0189465Y0348933D01*
X0234665Y0373633D02*
X0234665Y0379933D01*
X0260765Y0406033D01*
X0263665Y0403908D01*
X0258215Y0409358D01*
X0258215Y0428933D01*
X0258965Y0428533D01*
X0296765Y0466333D01*
X0296965Y0466728D01*
X0286965Y0466728D02*
X0286865Y0466333D01*
X0275165Y0454633D01*
X0291365Y0477133D02*
X0291965Y0476728D01*
X0291365Y0477133D02*
X0282365Y0486133D01*
X0220265Y0486133D01*
X0204456Y0498933D02*
X0155382Y0498933D01*
X0155580Y0498544D02*
X0155183Y0499322D01*
X0154670Y0500029D01*
X0154052Y0500647D01*
X0153345Y0501160D01*
X0152567Y0501557D01*
X0151736Y0501827D01*
X0150873Y0501963D01*
X0147061Y0501963D01*
X0147061Y0496588D01*
X0146711Y0496588D01*
X0146711Y0496238D01*
X0137786Y0496238D01*
X0137786Y0495977D01*
X0137923Y0495114D01*
X0138193Y0494283D01*
X0138590Y0493505D01*
X0139103Y0492798D01*
X0139721Y0492180D01*
X0140428Y0491667D01*
X0141206Y0491270D01*
X0142037Y0491000D01*
X0142900Y0490863D01*
X0146711Y0490863D01*
X0146711Y0496238D01*
X0147061Y0496238D01*
X0147061Y0490863D01*
X0150873Y0490863D01*
X0151736Y0491000D01*
X0152567Y0491270D01*
X0153345Y0491667D01*
X0154052Y0492180D01*
X0154670Y0492798D01*
X0155183Y0493505D01*
X0155580Y0494283D01*
X0155850Y0495114D01*
X0155986Y0495977D01*
X0155986Y0496238D01*
X0147062Y0496238D01*
X0147062Y0496588D01*
X0155986Y0496588D01*
X0155986Y0496850D01*
X0155850Y0497713D01*
X0155580Y0498544D01*
X0151965Y0496588D02*
X0151965Y0496238D01*
X0155402Y0493933D02*
X0199814Y0493933D01*
X0201965Y0496250D02*
X0201965Y0508731D01*
X0196965Y0508731D02*
X0196965Y0490865D01*
X0195172Y0488933D02*
X0136165Y0488933D01*
X0136165Y0483933D02*
X0140479Y0483933D01*
X0141795Y0484478D02*
X0138946Y0483298D01*
X0136766Y0481118D01*
X0136165Y0479667D01*
X0136165Y0508729D01*
X0254122Y0508733D01*
X0253564Y0508175D01*
X0252182Y0505781D01*
X0251862Y0504587D01*
X0251750Y0504633D01*
X0251501Y0504633D01*
X0251264Y0504706D01*
X0250474Y0504633D01*
X0212950Y0504633D01*
X0212856Y0504668D01*
X0211919Y0504633D01*
X0210981Y0504633D01*
X0210888Y0504595D01*
X0210789Y0504591D01*
X0209936Y0504200D01*
X0209070Y0503841D01*
X0208999Y0503771D01*
X0208908Y0503729D01*
X0208270Y0503042D01*
X0207607Y0502379D01*
X0207569Y0502286D01*
X0181839Y0474571D01*
X0181162Y0476203D01*
X0178940Y0478426D01*
X0176037Y0479628D01*
X0173919Y0479628D01*
X0173874Y0479674D01*
X0172411Y0481137D01*
X0170500Y0481928D01*
X0156197Y0481928D01*
X0154826Y0483298D01*
X0151978Y0484478D01*
X0141795Y0484478D01*
X0141965Y0484478D02*
X0141965Y0491023D01*
X0138371Y0493933D02*
X0136165Y0493933D01*
X0137786Y0496588D02*
X0146711Y0496588D01*
X0146711Y0501963D01*
X0142900Y0501963D01*
X0142037Y0501827D01*
X0141206Y0501557D01*
X0140428Y0501160D01*
X0139721Y0500647D01*
X0139103Y0500029D01*
X0138590Y0499322D01*
X0138193Y0498544D01*
X0137923Y0497713D01*
X0137786Y0496850D01*
X0137786Y0496588D01*
X0138391Y0498933D02*
X0136165Y0498933D01*
X0136165Y0503933D02*
X0209291Y0503933D01*
X0211965Y0504635D02*
X0211965Y0508732D01*
X0206965Y0508732D02*
X0206965Y0501636D01*
X0216965Y0504633D02*
X0216965Y0508732D01*
X0221965Y0508732D02*
X0221965Y0504633D01*
X0226965Y0504633D02*
X0226965Y0508732D01*
X0231965Y0508732D02*
X0231965Y0504633D01*
X0236965Y0504633D02*
X0236965Y0508733D01*
X0241965Y0508733D02*
X0241965Y0504633D01*
X0246965Y0504633D02*
X0246965Y0508733D01*
X0251965Y0508733D02*
X0251965Y0504974D01*
X0191965Y0508731D02*
X0191965Y0485479D01*
X0190530Y0483933D02*
X0153294Y0483933D01*
X0151965Y0484478D02*
X0151965Y0491074D01*
X0147061Y0493933D02*
X0146711Y0493933D01*
X0146965Y0496238D02*
X0146965Y0484478D01*
X0146886Y0476728D02*
X0169465Y0476728D01*
X0174465Y0471728D01*
X0177715Y0478933D02*
X0185888Y0478933D01*
X0186965Y0480093D02*
X0186965Y0508731D01*
X0181965Y0508731D02*
X0181965Y0474707D01*
X0176965Y0479244D02*
X0176965Y0508731D01*
X0171965Y0508730D02*
X0171965Y0481321D01*
X0166965Y0481928D02*
X0166965Y0508730D01*
X0161965Y0508730D02*
X0161965Y0481928D01*
X0156965Y0481928D02*
X0156965Y0508730D01*
X0151965Y0508730D02*
X0151965Y0501752D01*
X0147061Y0498933D02*
X0146711Y0498933D01*
X0146965Y0496588D02*
X0146965Y0508730D01*
X0141965Y0508729D02*
X0141965Y0501803D01*
X0141965Y0496588D02*
X0141965Y0496238D01*
X0136965Y0508729D02*
X0136965Y0481317D01*
X0136565Y0459133D02*
X0136565Y0449633D01*
X0154065Y0432133D01*
X0165365Y0432133D01*
X0174465Y0441233D01*
X0174465Y0441728D01*
X0181858Y0438933D02*
X0186426Y0438933D01*
X0186965Y0438216D02*
X0186965Y0419967D01*
X0196965Y0415737D02*
X0196965Y0431033D01*
X0196965Y0402829D02*
X0196965Y0400450D01*
X0198482Y0398933D02*
X0200861Y0398933D01*
X0217253Y0397571D02*
X0221840Y0392983D01*
X0234440Y0392983D01*
X0234665Y0373633D02*
X0242765Y0365533D01*
X0247265Y0365533D01*
X0271965Y0328583D02*
X0271965Y0326854D01*
X0276965Y0328583D02*
X0276965Y0302333D01*
X0281965Y0326854D02*
X0281965Y0328583D01*
X0331965Y0273933D02*
X0331965Y0273933D01*
X0264465Y0253933D02*
X0264465Y0253933D01*
X0244615Y0223933D02*
X0136165Y0223933D01*
X0136165Y0218933D02*
X0245565Y0218933D01*
X0245565Y0213933D02*
X0136165Y0213933D01*
X0136165Y0168933D02*
X0208265Y0168933D01*
X0209038Y0163933D02*
X0136165Y0163933D01*
X0270763Y0168933D02*
X0333781Y0168933D01*
X0331965Y0171402D02*
X0331965Y0123133D01*
X0326965Y0123133D02*
X0326965Y0178200D01*
X0325394Y0178533D02*
X0322490Y0179736D01*
X0320367Y0181859D01*
X0319953Y0181558D01*
X0319153Y0181151D01*
X0318300Y0180873D01*
X0317414Y0180733D01*
X0316965Y0180733D01*
X0316965Y0186433D01*
X0316965Y0186433D01*
X0316965Y0123133D01*
X0321965Y0123133D02*
X0321965Y0180261D01*
X0316965Y0183933D02*
X0316965Y0183933D01*
X0316965Y0186433D02*
X0316965Y0198865D01*
X0316897Y0198933D02*
X0290630Y0198933D01*
X0286965Y0196259D02*
X0286965Y0194333D01*
X0284428Y0193933D02*
X0279502Y0193933D01*
X0276965Y0194333D02*
X0276965Y0198671D01*
X0277394Y0198933D02*
X0278300Y0198933D01*
X0274465Y0198933D02*
X0274465Y0198933D01*
X0271965Y0198671D02*
X0271965Y0192605D01*
X0270790Y0193933D02*
X0274428Y0193933D01*
X0271537Y0198933D02*
X0270790Y0198933D01*
X0274465Y0203933D02*
X0274465Y0203933D01*
X0274465Y0208933D02*
X0274465Y0208933D01*
X0281965Y0196259D02*
X0281965Y0192605D01*
X0306965Y0188933D02*
X0306965Y0188933D01*
X0306965Y0186433D02*
X0306965Y0186433D01*
X0306965Y0183933D02*
X0306965Y0183933D01*
X0316965Y0186433D02*
X0316965Y0192133D01*
X0316965Y0188933D02*
X0316965Y0188933D01*
X0316965Y0186433D02*
X0316965Y0186433D01*
X0326965Y0186433D02*
X0327365Y0186433D01*
X0355165Y0148633D01*
X0724265Y0148633D01*
X0724957Y0147831D01*
X0726965Y0155581D02*
X0726965Y0161966D01*
X0725132Y0161966D02*
X0728944Y0161966D01*
X0729807Y0162102D01*
X0730638Y0162372D01*
X0731416Y0162769D01*
X0732123Y0163282D01*
X0732741Y0163900D01*
X0733254Y0164607D01*
X0733651Y0165385D01*
X0733921Y0166216D01*
X0734057Y0167079D01*
X0734057Y0167341D01*
X0725132Y0167341D01*
X0725132Y0161966D01*
X0724782Y0161966D02*
X0724782Y0167341D01*
X0715857Y0167341D01*
X0715857Y0167079D01*
X0715994Y0166216D01*
X0716264Y0165385D01*
X0716661Y0164607D01*
X0717174Y0163900D01*
X0717792Y0163282D01*
X0718498Y0162769D01*
X0719277Y0162372D01*
X0720108Y0162102D01*
X0720971Y0161966D01*
X0724782Y0161966D01*
X0724782Y0163933D02*
X0725132Y0163933D01*
X0725132Y0167341D02*
X0724782Y0167341D01*
X0724782Y0167691D01*
X0724782Y0173066D01*
X0720971Y0173066D01*
X0720108Y0172929D01*
X0719277Y0172659D01*
X0718498Y0172263D01*
X0717792Y0171749D01*
X0717174Y0171131D01*
X0716661Y0170425D01*
X0716264Y0169646D01*
X0715994Y0168815D01*
X0715857Y0167953D01*
X0715857Y0167691D01*
X0724782Y0167691D01*
X0725132Y0167691D01*
X0725132Y0173066D01*
X0728944Y0173066D01*
X0729807Y0172929D01*
X0730638Y0172659D01*
X0731416Y0172263D01*
X0732123Y0171749D01*
X0732741Y0171131D01*
X0733254Y0170425D01*
X0733651Y0169646D01*
X0733921Y0168815D01*
X0734057Y0167953D01*
X0734057Y0167691D01*
X0725132Y0167691D01*
X0725132Y0167341D01*
X0725132Y0168933D02*
X0724782Y0168933D01*
X0726965Y0167691D02*
X0726965Y0167341D01*
X0721965Y0167341D02*
X0721965Y0167691D01*
X0716965Y0167691D02*
X0716965Y0167341D01*
X0716032Y0168933D02*
X0700852Y0168933D01*
X0701965Y0170046D02*
X0701965Y0153833D01*
X0696965Y0153833D02*
X0696965Y0165046D01*
X0695852Y0163933D02*
X0717150Y0163933D01*
X0716965Y0164188D02*
X0716965Y0154349D01*
X0716550Y0153933D02*
X0607682Y0153933D01*
X0611965Y0153833D02*
X0611965Y0154783D01*
X0616965Y0154783D02*
X0616965Y0153833D01*
X0621965Y0153833D02*
X0621965Y0154783D01*
X0626965Y0154783D02*
X0626965Y0153833D01*
X0631965Y0153833D02*
X0631965Y0154783D01*
X0636965Y0154783D02*
X0636965Y0153833D01*
X0641965Y0153833D02*
X0641965Y0154783D01*
X0646965Y0154783D02*
X0646965Y0153833D01*
X0651965Y0153833D02*
X0651965Y0154783D01*
X0656965Y0154783D02*
X0656965Y0153833D01*
X0661965Y0153833D02*
X0661965Y0154783D01*
X0666965Y0154783D02*
X0666965Y0153833D01*
X0671965Y0153833D02*
X0671965Y0154783D01*
X0676965Y0154783D02*
X0676965Y0153833D01*
X0681965Y0153833D02*
X0681965Y0154783D01*
X0686965Y0155374D02*
X0686965Y0153833D01*
X0691965Y0153833D02*
X0691965Y0160046D01*
X0690852Y0158933D02*
X0738001Y0158933D01*
X0738001Y0153933D02*
X0733365Y0153933D01*
X0731965Y0154787D02*
X0731965Y0163168D01*
X0732765Y0163933D02*
X0738001Y0163933D01*
X0738001Y0168933D02*
X0733882Y0168933D01*
X0731965Y0167691D02*
X0731965Y0167341D01*
X0731965Y0171864D02*
X0731965Y0180245D01*
X0726965Y0179451D02*
X0726965Y0173066D01*
X0721965Y0173066D02*
X0721965Y0179451D01*
X0716965Y0180683D02*
X0716965Y0170844D01*
X0710852Y0178933D02*
X0738001Y0178933D01*
X0738001Y0173933D02*
X0705852Y0173933D01*
X0706965Y0175046D02*
X0706965Y0153833D01*
X0711965Y0153833D02*
X0711965Y0180046D01*
X0701965Y0185320D02*
X0701965Y0187665D01*
X0703233Y0188933D02*
X0705578Y0188933D01*
X0706965Y0190320D02*
X0706965Y0192665D01*
X0708233Y0193933D02*
X0717409Y0193933D01*
X0716965Y0193719D02*
X0716965Y0200033D01*
X0713233Y0198933D02*
X0738001Y0198933D01*
X0738001Y0193933D02*
X0732506Y0193933D01*
X0731965Y0194157D02*
X0731965Y0199930D01*
X0726965Y0199136D02*
X0726965Y0194951D01*
X0721965Y0194951D02*
X0721965Y0199136D01*
X0711965Y0197665D02*
X0711965Y0192601D01*
X0700578Y0183933D02*
X0698233Y0183933D01*
X0696965Y0182665D02*
X0696965Y0180320D01*
X0695578Y0178933D02*
X0693233Y0178933D01*
X0691965Y0177665D02*
X0691965Y0175320D01*
X0690578Y0173933D02*
X0688233Y0173933D01*
X0686965Y0172665D02*
X0686965Y0170320D01*
X0685578Y0168933D02*
X0683233Y0168933D01*
X0681965Y0167672D02*
X0681965Y0165583D01*
X0676965Y0165583D02*
X0676965Y0166733D01*
X0671965Y0166733D02*
X0671965Y0165583D01*
X0666965Y0165583D02*
X0666965Y0166733D01*
X0661965Y0166733D02*
X0661965Y0165583D01*
X0656965Y0165583D02*
X0656965Y0166733D01*
X0651965Y0166733D02*
X0651965Y0165583D01*
X0646965Y0165583D02*
X0646965Y0166733D01*
X0641965Y0166733D02*
X0641965Y0165583D01*
X0636965Y0165583D02*
X0636965Y0166733D01*
X0631965Y0166733D02*
X0631965Y0165583D01*
X0626965Y0165583D02*
X0626965Y0166733D01*
X0621965Y0166733D02*
X0621965Y0165583D01*
X0616965Y0165583D02*
X0616965Y0166733D01*
X0611965Y0166733D02*
X0611965Y0165583D01*
X0606965Y0165583D02*
X0606965Y0166733D01*
X0601965Y0166733D02*
X0601965Y0166511D01*
X0596965Y0166733D02*
X0596965Y0164650D01*
X0596965Y0143433D02*
X0596965Y0123133D01*
X0591965Y0123133D02*
X0591965Y0143433D01*
X0586965Y0143433D02*
X0586965Y0123133D01*
X0581965Y0123133D02*
X0581965Y0143433D01*
X0576965Y0143433D02*
X0576965Y0123133D01*
X0571965Y0123133D02*
X0571965Y0143433D01*
X0566965Y0143433D02*
X0566965Y0123133D01*
X0561965Y0123133D02*
X0561965Y0143433D01*
X0556965Y0143433D02*
X0556965Y0123133D01*
X0551965Y0123133D02*
X0551965Y0143433D01*
X0546965Y0143433D02*
X0546965Y0123133D01*
X0541965Y0123133D02*
X0541965Y0143433D01*
X0536965Y0143433D02*
X0536965Y0123133D01*
X0531965Y0123133D02*
X0531965Y0143433D01*
X0526965Y0143433D02*
X0526965Y0123133D01*
X0601965Y0123133D02*
X0601965Y0143433D01*
X0606965Y0143433D02*
X0606965Y0123133D01*
X0611965Y0123133D02*
X0611965Y0143433D01*
X0616965Y0143433D02*
X0616965Y0123133D01*
X0621965Y0123133D02*
X0621965Y0143433D01*
X0626965Y0143433D02*
X0626965Y0123133D01*
X0631965Y0123133D02*
X0631965Y0143433D01*
X0636965Y0143433D02*
X0636965Y0123133D01*
X0641965Y0123133D02*
X0641965Y0143433D01*
X0646965Y0143433D02*
X0646965Y0140744D01*
X0651965Y0143269D02*
X0651965Y0143433D01*
X0656965Y0143433D02*
X0656965Y0142921D01*
X0661965Y0143433D02*
X0661965Y0139399D01*
X0662234Y0138933D02*
X0738001Y0138933D01*
X0738001Y0133933D02*
X0663921Y0133933D01*
X0662961Y0128933D02*
X0738001Y0128933D01*
X0738001Y0123933D02*
X0657797Y0123933D01*
X0656965Y0123685D02*
X0656965Y0123133D01*
X0651965Y0123133D02*
X0651965Y0123337D01*
X0661965Y0123133D02*
X0661965Y0127208D01*
X0666965Y0123133D02*
X0666965Y0143433D01*
X0671965Y0143433D02*
X0671965Y0123133D01*
X0676965Y0123133D02*
X0676965Y0143433D01*
X0681965Y0143433D02*
X0681965Y0123133D01*
X0686965Y0123133D02*
X0686965Y0143433D01*
X0691965Y0143433D02*
X0691965Y0123133D01*
X0696965Y0123133D02*
X0696965Y0143433D01*
X0701965Y0143433D02*
X0701965Y0123133D01*
X0706965Y0123133D02*
X0706965Y0143433D01*
X0711965Y0143433D02*
X0711965Y0123133D01*
X0716965Y0123133D02*
X0716965Y0141313D01*
X0721965Y0140081D02*
X0721965Y0123133D01*
X0726965Y0123133D02*
X0726965Y0140081D01*
X0731965Y0140874D02*
X0731965Y0123133D01*
X0736965Y0123133D02*
X0736965Y0508749D01*
X0711965Y0508748D02*
X0711965Y0292008D01*
X0706965Y0292008D02*
X0706965Y0508748D01*
X0701965Y0508748D02*
X0701965Y0292008D01*
X0696965Y0289054D02*
X0696965Y0508747D01*
X0521965Y0413933D02*
X0508215Y0427683D01*
X0445265Y0313333D02*
X0437165Y0313333D01*
X0436965Y0313933D01*
X0445265Y0313333D02*
X0461465Y0297133D01*
X0456658Y0294586D02*
X0456526Y0294586D01*
X0456658Y0294586D02*
X0444640Y0306604D01*
X0444984Y0305929D01*
X0445237Y0305151D01*
X0445365Y0304342D01*
X0445365Y0303933D01*
X0436965Y0303933D01*
X0436965Y0303933D01*
X0436965Y0292274D01*
X0441965Y0292260D02*
X0441965Y0299050D01*
X0442161Y0299114D02*
X0442891Y0299486D01*
X0443553Y0299967D01*
X0444132Y0300545D01*
X0444613Y0301208D01*
X0444984Y0301937D01*
X0445237Y0302715D01*
X0445365Y0303524D01*
X0445365Y0303933D01*
X0436965Y0303933D01*
X0436965Y0298733D01*
X0440574Y0298733D01*
X0441383Y0298861D01*
X0442161Y0299114D01*
X0441604Y0298933D02*
X0452311Y0298933D01*
X0451965Y0299279D02*
X0451965Y0292231D01*
X0446965Y0292245D02*
X0446965Y0304279D01*
X0447311Y0303933D02*
X0436965Y0303933D01*
X0436965Y0303933D01*
X0431965Y0303933D02*
X0431965Y0303933D01*
X0436965Y0298933D02*
X0436965Y0298933D01*
X0441965Y0303933D02*
X0441965Y0303933D01*
X0426365Y0313933D02*
X0417565Y0313933D01*
X0413958Y0307494D02*
X0414132Y0307321D01*
X0414613Y0306658D01*
X0414984Y0305929D01*
X0415237Y0305151D01*
X0415365Y0304342D01*
X0415365Y0303933D01*
X0406965Y0303933D01*
X0406965Y0303933D01*
X0401965Y0303933D02*
X0401965Y0303933D01*
X0401965Y0299050D02*
X0401965Y0292377D01*
X0411965Y0303933D02*
X0411965Y0303933D01*
X0446965Y0281845D02*
X0446965Y0276283D01*
X0437840Y0268933D02*
X0429365Y0268933D01*
X0406965Y0273933D02*
X0406965Y0273933D01*
X0491188Y0253933D02*
X0491673Y0253933D01*
X0526965Y0264333D02*
X0526965Y0266283D01*
X0530637Y0263933D02*
X0531565Y0263933D01*
X0531965Y0262896D02*
X0531965Y0262605D01*
X0496965Y0281825D02*
X0496965Y0291933D01*
X0581965Y0269362D02*
X0581965Y0201733D01*
X0591965Y0197820D02*
X0591965Y0279362D01*
X0591536Y0278933D02*
X0605487Y0278933D01*
X0656965Y0288933D02*
X0656965Y0288933D01*
X0659707Y0288933D02*
X0696844Y0288933D01*
X0706965Y0282008D02*
X0706965Y0271083D01*
X0701965Y0271083D02*
X0701965Y0279912D01*
X0700986Y0278933D02*
X0719293Y0278933D01*
X0716965Y0279974D02*
X0716965Y0273168D01*
X0718628Y0273933D02*
X0695986Y0273933D01*
X0696965Y0274912D02*
X0696965Y0271083D01*
X0701965Y0261083D02*
X0701965Y0234542D01*
X0702833Y0233933D02*
X0738001Y0233933D01*
X0738001Y0228933D02*
X0706170Y0228933D01*
X0706965Y0227511D02*
X0706965Y0261083D01*
X0711965Y0261083D02*
X0711965Y0218574D01*
X0711764Y0218933D02*
X0738001Y0218933D01*
X0738001Y0213933D02*
X0731745Y0213933D01*
X0731965Y0213842D02*
X0731965Y0240054D01*
X0726965Y0239293D02*
X0726965Y0214636D01*
X0721965Y0214636D02*
X0721965Y0239293D01*
X0716965Y0240604D02*
X0716965Y0213404D01*
X0718169Y0213933D02*
X0714562Y0213933D01*
X0708967Y0223933D02*
X0738001Y0223933D01*
X0738001Y0208933D02*
X0736048Y0208933D01*
X0735673Y0203933D02*
X0738001Y0203933D01*
X0738001Y0188933D02*
X0736178Y0188933D01*
X0735542Y0183933D02*
X0738001Y0183933D01*
X0721965Y0161966D02*
X0721965Y0155581D01*
X0735281Y0143933D02*
X0738001Y0143933D01*
X0738001Y0148933D02*
X0736257Y0148933D01*
X0714386Y0243933D02*
X0686965Y0243933D01*
X0686965Y0248933D02*
X0713880Y0248933D01*
X0711965Y0271083D02*
X0711965Y0282008D01*
X0721965Y0278663D02*
X0721965Y0274478D01*
X0726965Y0274478D02*
X0726965Y0278663D01*
X0532248Y0208621D02*
X0531840Y0209421D01*
X0531313Y0210146D01*
X0530679Y0210781D01*
X0529953Y0211308D01*
X0529153Y0211715D01*
X0528300Y0211993D01*
X0527414Y0212133D01*
X0526965Y0212133D01*
X0526517Y0212133D01*
X0525630Y0211993D01*
X0524777Y0211715D01*
X0523978Y0211308D01*
X0523252Y0210781D01*
X0522617Y0210146D01*
X0522090Y0209421D01*
X0521965Y0209175D01*
X0521965Y0206433D02*
X0521965Y0206433D01*
X0526965Y0206433D02*
X0526965Y0212133D01*
X0526965Y0206433D01*
X0526965Y0206433D01*
X0526965Y0206433D01*
X0532665Y0206433D01*
X0532665Y0206882D01*
X0532525Y0207768D01*
X0532248Y0208621D01*
X0531965Y0206433D02*
X0531965Y0206433D01*
X0526965Y0208933D02*
X0526965Y0208933D01*
X0351965Y0196259D02*
X0351965Y0181401D01*
X0336965Y0164603D02*
X0336965Y0123133D01*
X0351965Y0123133D02*
X0351965Y0144479D01*
X0330103Y0173933D02*
X0270790Y0173933D01*
D23*
X0321965Y0218833D02*
X0333665Y0207133D01*
X0334465Y0206433D01*
X0321965Y0218833D02*
X0321965Y0223933D01*
X0322865Y0224233D01*
X0324665Y0226033D01*
X0324665Y0248933D01*
X0338065Y0235533D01*
X0361965Y0235533D01*
X0378265Y0224233D01*
X0391265Y0224233D01*
X0391965Y0223933D01*
X0392165Y0225133D01*
X0393965Y0226933D01*
X0393965Y0255733D01*
X0394465Y0256433D01*
X0384465Y0266433D01*
X0384465Y0273933D01*
X0385865Y0273333D01*
X0443240Y0269233D02*
X0446165Y0269233D01*
X0446965Y0268933D01*
X0447065Y0268333D01*
X0447065Y0253833D01*
X0459465Y0246433D01*
X0459665Y0245833D01*
X0459665Y0231033D01*
X0461465Y0229233D01*
X0461965Y0228933D01*
X0462365Y0223333D01*
X0462365Y0218833D01*
X0449765Y0218833D01*
X0427265Y0194308D01*
X0409265Y0194308D01*
X0404765Y0203533D01*
X0404765Y0205333D01*
X0404465Y0206433D01*
X0403865Y0207133D01*
X0392165Y0218833D01*
X0392165Y0223333D01*
X0391965Y0223933D01*
X0462365Y0218833D02*
X0474065Y0207133D01*
X0474465Y0206433D01*
X0474065Y0205333D01*
X0474065Y0204433D01*
X0477165Y0196333D01*
X0585815Y0196333D01*
X0595715Y0186433D01*
X0603215Y0160183D02*
X0601965Y0158933D01*
X0603215Y0160183D02*
X0684465Y0160183D01*
X0711483Y0187201D01*
X0724957Y0187201D01*
X0324665Y0248933D02*
X0324665Y0255333D01*
X0324465Y0256433D01*
X0312065Y0268833D01*
X0312065Y0273333D01*
X0311965Y0273933D01*
D24*
X0321965Y0323933D02*
X0326965Y0328933D01*
X0326965Y0353933D01*
X0336965Y0353933D02*
X0336965Y0338933D01*
X0344365Y0323333D01*
X0353015Y0333583D02*
X0367315Y0333583D01*
X0374265Y0323258D01*
X0361790Y0338308D02*
X0397990Y0338308D01*
X0406965Y0323933D01*
X0414490Y0346408D02*
X0436965Y0323933D01*
X0439090Y0351808D02*
X0466965Y0323933D01*
X0439090Y0351808D02*
X0380015Y0351808D01*
X0376965Y0354183D01*
X0376965Y0356433D01*
X0366965Y0353933D02*
X0366965Y0351358D01*
X0371915Y0346408D01*
X0414490Y0346408D01*
X0396965Y0366728D02*
X0396965Y0376433D01*
X0356965Y0353933D02*
X0356965Y0342458D01*
X0361790Y0338308D01*
X0353015Y0333583D02*
X0347640Y0338958D01*
X0346965Y0353933D01*
X0310965Y0353933D02*
X0310965Y0346883D01*
X0291965Y0327883D01*
X0291965Y0323933D01*
X0285515Y0333583D02*
X0262315Y0333583D01*
X0261965Y0333933D01*
X0259865Y0345058D02*
X0246365Y0358558D01*
X0232340Y0358558D01*
X0231965Y0358933D01*
X0259865Y0345058D02*
X0283490Y0345058D01*
X0290965Y0352533D01*
X0290965Y0353933D01*
X0300965Y0353933D02*
X0300965Y0349033D01*
X0285515Y0333583D01*
X0526965Y0256433D02*
X0561965Y0256433D01*
X0621965Y0316433D01*
X0621965Y0403933D01*
X0569465Y0456433D01*
X0566965Y0456433D01*
X0556965Y0466433D01*
X0556965Y0473933D01*
X0559465Y0476433D01*
X0571670Y0476433D01*
X0571965Y0476728D01*
X0576965Y0466728D02*
X0576965Y0461433D01*
X0604465Y0438933D01*
X0571965Y0368933D02*
X0571965Y0297933D01*
X0549465Y0265433D01*
X0616940Y0259333D02*
X0616965Y0243933D01*
X0626965Y0243933D02*
X0626965Y0258933D01*
X0644615Y0226258D02*
X0669590Y0226258D01*
X0671615Y0228283D01*
X0671615Y0256633D01*
X0701990Y0287008D01*
X0724441Y0287008D01*
X0725036Y0286413D01*
X0725036Y0266728D02*
X0724391Y0266083D01*
X0693890Y0266083D01*
X0681965Y0254158D01*
X0681965Y0193933D01*
X0669465Y0181433D01*
X0656965Y0181433D01*
X0656965Y0193933D02*
X0646965Y0193933D01*
X0636965Y0203933D01*
X0636965Y0213933D01*
X0636965Y0218608D01*
X0644615Y0226258D01*
X0626965Y0213933D02*
X0626965Y0193933D01*
X0626965Y0181433D01*
M02*
