%
M48
M72
T01C0.02756
T02C0.03200
T03C0.03543
T04C0.03937
T05C0.04000
T06C0.04700
T07C0.05906
T08C0.11811
T09C0.12598
%
T01
X335715Y242850
X348215Y270350
X321965Y279100
X306340Y280350
X274265Y318600
X248215Y322850
X225715Y345350
X239465Y349100
X224465Y364725
X170715Y372850
X168215Y360350
X160715Y350350
X139465Y352850
X176915Y392350
X225015Y420400
X146965Y434100
X302165Y324000
X248215Y297850
X193815Y320800
X168215Y289100
X139465Y282850
X337265Y388800
X386965Y359100
X396965Y349100
X458765Y383900
X484865Y389700
X519065Y388800
X529865Y388800
X553215Y389100
X567665Y388800
X588365Y387000
X620715Y416600
X593765Y423000
X552590Y421600
X528965Y423900
X523565Y459900
X542465Y460800
X542465Y470700
X477665Y426600
X434465Y450900
X439865Y470700
X437865Y485100
X421865Y488700
X333665Y471400
X333665Y455400
X464165Y359100
X494765Y360000
X540665Y350600
X537065Y332100
X539065Y311800
X499265Y306900
X487715Y306900
X490265Y286250
X503215Y274100
X539465Y272850
X574465Y267850
X605265Y281800
X594465Y292225
X621965Y266600
X641965Y266600
X595265Y232200
X695715Y180350
X698215Y302850
X682865Y333000
X656965Y356600
X639665Y343800
X614465Y343200
X579465Y350350
X681965Y361600
X712965Y401800
X649465Y424100
X642865Y453600
X627965Y453600
X621665Y479700
X459465Y309100
X435715Y294100
X436965Y282850
X455165Y278850
X426965Y306600
X399265Y306450
X371715Y307300
X421965Y227850
X445715Y227850
T02
X436965Y219100
X426965Y219100
X414465Y219100
X394465Y219100
X379465Y219100
X369465Y219100
X356965Y219100
X336965Y219100
X321010Y219100
X311010Y219100
X299465Y219100
X279465Y219100
X264465Y219100
X254465Y219100
X241965Y219100
X221965Y219100
X221965Y179100
X234465Y179100
X244465Y179100
X201965Y179100
X231965Y264100
X216965Y271600
X206965Y271600
X194465Y271600
X174465Y271600
X251965Y264100
X264465Y264100
X274465Y264100
X288215Y264100
X308215Y264100
X321965Y264100
X331965Y264100
X346965Y259100
X366965Y259100
X379465Y259100
X389465Y259100
X404465Y264100
X424465Y264100
X436965Y264100
X446965Y264100
X461965Y259100
X481965Y259100
X494465Y259100
X504465Y259100
X498215Y220350
X488215Y220350
X475715Y220350
X455715Y220350
X573215Y330350
X593215Y330350
X604997Y331600
X614997Y331600
X627497Y333225
X647497Y333225
X659997Y336600
X669997Y336600
X689997Y341600
X709997Y341600
X722497Y341600
X732497Y341600
X682920Y436600
X675420Y436600
X636010Y434100
X628510Y434100
X608215Y436600
X600715Y436600
X570715Y431305
X563215Y431305
X545715Y436305
X538215Y436305
X520715Y436305
X513215Y436305
X495715Y436305
X488215Y436305
X621965Y251600
X631965Y251600
X641965Y251600
X651965Y251600
X651965Y221600
X641965Y221600
X631965Y221600
X621965Y221600
T03
X631965Y206600
X631965Y194100
X661965Y194100
X661965Y206600
X661965Y277850
X631965Y277850
X551965Y261600
X541965Y261600
X541965Y249100
X551965Y249100
X551965Y239100
X541965Y239100
X376965Y349100
X366965Y349100
X356965Y349100
X346965Y349100
X336965Y349100
X326965Y349100
X310965Y349100
X300965Y349100
X290965Y349100
X280965Y349100
X270965Y349100
X260965Y349100
X260965Y359100
X270965Y359100
X280965Y359100
X290965Y359100
X300965Y359100
X310965Y359100
X326965Y359100
X336965Y359100
X346965Y359100
X356965Y359100
X366965Y359100
X376965Y359100
X396965Y357570
X426965Y357570
X174465Y439395
X174465Y469395
T04
X266965Y459395
X276965Y459395
X286965Y459395
X296965Y459395
X291965Y469395
X281965Y469395
X271965Y469395
X301965Y469395
X366965Y459395
X376965Y459395
X386965Y459395
X396965Y459395
X391965Y469395
X381965Y469395
X371965Y469395
X401965Y469395
X466965Y459395
X476965Y459395
X486965Y459395
X481965Y469395
X471965Y469395
X491965Y469395
X501965Y469395
X496965Y459395
X566965Y459395
X576965Y459395
X586965Y459395
X596965Y459395
X591965Y469395
X581965Y469395
X571965Y469395
X601965Y469395
T05
X611010Y420350
X584465Y398805
X571965Y411305
X544465Y398805
X531965Y411305
X524465Y403805
X516965Y416305
X484465Y403805
X476965Y416305
X461965Y433805
X448215Y433805
X426965Y433805
X413215Y433805
X391965Y433805
X378215Y433805
X356965Y433805
X343215Y433805
X319465Y433805
X305715Y433805
X284465Y433805
X270715Y433805
X249465Y433805
X235715Y433805
X213215Y434395
X199465Y434395
X196965Y409100
X216670Y396600
X236965Y409100
X246670Y409100
X256670Y396600
X276670Y396600
X286670Y409100
X316670Y396600
X336965Y408805
X366965Y396305
X376965Y408805
X394465Y408805
X406965Y396305
X424170Y396600
X434465Y408805
X464170Y396600
X516965Y369100
X526965Y369100
X493215Y343145
X493215Y333145
X493215Y323145
X460715Y323145
X460715Y333145
X460715Y343145
X439465Y329395
X439465Y319395
X439465Y309395
X413215Y306895
X413215Y296895
X413215Y316895
X383615Y316100
X383615Y306100
X383615Y296100
X358515Y297195
X358515Y307195
X358515Y317195
X335515Y316895
X335515Y306895
X335515Y296895
X313215Y296895
X313215Y306895
X313215Y316895
X288215Y316895
X288215Y306895
X288215Y296895
X260715Y301895
X260715Y311895
X260715Y321895
X233215Y320645
X233215Y310645
X233215Y330645
X206965Y340645
X206965Y350645
X206965Y360645
X240965Y369100
X250965Y369100
X260965Y369100
X270965Y369100
X280965Y369100
X290965Y369100
X300965Y369100
X310965Y369100
X326965Y369100
X336965Y369100
X346965Y369100
X356965Y369100
X366965Y369100
X376965Y369100
X386965Y369100
X396965Y369100
X516965Y249100
X526965Y249100
X526965Y239100
X516965Y239100
X491965Y241600
X481965Y241600
X471965Y241600
X434465Y246600
X424465Y246600
X414465Y246600
X376965Y241600
X366965Y241600
X356965Y241600
X319465Y246600
X309465Y246600
X299465Y246600
X261965Y246600
X251965Y246600
X241965Y246600
X204465Y254100
X194465Y254100
X184465Y254100
X231965Y201600
X241965Y201600
X251965Y201600
X276965Y179100
X286965Y179100
X296965Y179100
X306965Y179100
X316965Y179100
X326965Y179100
X309465Y201600
X299465Y201600
X289465Y201600
X231965Y161600
X221965Y161600
X211965Y161600
X346965Y201600
X356965Y201600
X366965Y201600
X404465Y201600
X414465Y201600
X424465Y201600
X465715Y202850
X475715Y202850
X485715Y202850
X516965Y199100
X526965Y199100
X579997Y311600
X589997Y311600
X599997Y311600
X636247Y315350
X646247Y315350
X656247Y315350
X697497Y321600
X707497Y321600
X717497Y321600
X712497Y376600
X702497Y376600
X692497Y376600
X674465Y393805
X654997Y376600
X644997Y376600
X634997Y376600
X611010Y380350
X634465Y393805
X597497Y364100
X587497Y364100
X577497Y364100
X678776Y416600
X718776Y416600
T06
X725036Y279080
X725036Y259395
X725036Y239710
X724957Y199553
X724957Y179868
X724957Y160183
X724957Y140498
X317262Y148521
X297577Y148521
X277892Y148521
X258207Y148521
X146886Y449710
X146886Y469395
X146886Y489080
T07
X931965Y486600
T08
X177044Y125970
X177044Y410616
X653816Y410616
X653816Y125970
T09
X606965Y494395
X561965Y494395
X506965Y494395
X461965Y494395
X406965Y494395
X361965Y494395
X306965Y494395
X261965Y494395
M30
