G75*
%MOIN*%
%OFA0B0*%
%FSLAX25Y25*%
%IPPOS*%
%LPD*%
%AMOC8*
5,1,8,0,0,1.08239X$1,22.5*
%
%ADD10C,0.12611*%
%ADD11C,0.06706*%
%ADD12C,0.08200*%
%ADD13R,0.08200X0.08200*%
%ADD14C,0.13398*%
%ADD15OC8,0.08200*%
%ADD16C,0.08400*%
%ADD17OC8,0.08400*%
%ADD18C,0.06400*%
%ADD19OC8,0.07100*%
%ADD20OC8,0.06400*%
%ADD21C,0.07800*%
%ADD22C,0.07200*%
%ADD23C,0.07900*%
%ADD24OC8,0.07556*%
D10*
X0177044Y0125970D03*
X0177044Y0410616D03*
X0653816Y0410616D03*
X0653816Y0125970D03*
D11*
X0931965Y0486600D03*
D12*
X0661965Y0277850D03*
X0631965Y0277850D03*
X0551965Y0261600D03*
X0541965Y0261600D03*
X0541965Y0249100D03*
X0551965Y0249100D03*
X0551965Y0239100D03*
X0541965Y0239100D03*
X0526965Y0199100D03*
X0516965Y0199100D03*
X0631965Y0194100D03*
X0631965Y0206600D03*
X0661965Y0206600D03*
X0661965Y0194100D03*
X0426965Y0357570D03*
X0396965Y0357570D03*
X0396965Y0369100D03*
X0386965Y0369100D03*
X0376965Y0369100D03*
X0366965Y0369100D03*
X0356965Y0369100D03*
X0346965Y0369100D03*
X0346965Y0359100D03*
X0356965Y0359100D03*
X0366965Y0359100D03*
X0376965Y0359100D03*
X0376965Y0349100D03*
X0366965Y0349100D03*
X0356965Y0349100D03*
X0346965Y0349100D03*
X0336965Y0349100D03*
X0326965Y0349100D03*
X0310965Y0349100D03*
X0300965Y0349100D03*
X0290965Y0349100D03*
X0280965Y0349100D03*
X0270965Y0349100D03*
X0260965Y0349100D03*
X0260965Y0359100D03*
X0260965Y0369100D03*
X0250965Y0369100D03*
X0240965Y0369100D03*
X0270965Y0369100D03*
X0270965Y0359100D03*
X0280965Y0359100D03*
X0280965Y0369100D03*
X0290965Y0369100D03*
X0290965Y0359100D03*
X0300965Y0359100D03*
X0300965Y0369100D03*
X0310965Y0369100D03*
X0310965Y0359100D03*
X0326965Y0359100D03*
X0326965Y0369100D03*
X0336965Y0369100D03*
X0336965Y0359100D03*
X0366965Y0459395D03*
X0376965Y0459395D03*
X0386965Y0459395D03*
X0396965Y0459395D03*
X0391965Y0469395D03*
X0381965Y0469395D03*
X0371965Y0469395D03*
X0296965Y0459395D03*
X0286965Y0459395D03*
X0276965Y0459395D03*
X0266965Y0459395D03*
X0271965Y0469395D03*
X0281965Y0469395D03*
X0291965Y0469395D03*
X0174465Y0469395D03*
X0174465Y0439395D03*
X0466965Y0459395D03*
X0476965Y0459395D03*
X0486965Y0459395D03*
X0481965Y0469395D03*
X0471965Y0469395D03*
X0491965Y0469395D03*
X0496965Y0459395D03*
X0566965Y0459395D03*
X0576965Y0459395D03*
X0586965Y0459395D03*
X0596965Y0459395D03*
X0591965Y0469395D03*
X0581965Y0469395D03*
X0571965Y0469395D03*
X0526965Y0369100D03*
X0516965Y0369100D03*
X0326965Y0179100D03*
X0316965Y0179100D03*
X0306965Y0179100D03*
X0296965Y0179100D03*
X0286965Y0179100D03*
X0276965Y0179100D03*
D13*
X0301965Y0469395D03*
X0401965Y0469395D03*
X0501965Y0469395D03*
X0601965Y0469395D03*
D14*
X0606965Y0494395D03*
X0561965Y0494395D03*
X0506965Y0494395D03*
X0461965Y0494395D03*
X0406965Y0494395D03*
X0361965Y0494395D03*
X0306965Y0494395D03*
X0261965Y0494395D03*
D15*
X0516965Y0249100D03*
X0526965Y0249100D03*
X0526965Y0239100D03*
X0516965Y0239100D03*
D16*
X0461965Y0433805D03*
X0426965Y0433805D03*
X0391965Y0433805D03*
X0356965Y0433805D03*
X0319465Y0433805D03*
X0284465Y0433805D03*
X0249465Y0433805D03*
X0199465Y0434395D03*
D17*
X0213215Y0434395D03*
X0235715Y0433805D03*
X0270715Y0433805D03*
X0305715Y0433805D03*
X0343215Y0433805D03*
X0378215Y0433805D03*
X0413215Y0433805D03*
X0448215Y0433805D03*
D18*
X0488215Y0433505D02*
X0488215Y0439105D01*
X0495715Y0439105D02*
X0495715Y0433505D01*
X0513215Y0433505D02*
X0513215Y0439105D01*
X0520715Y0439105D02*
X0520715Y0433505D01*
X0538215Y0433505D02*
X0538215Y0439105D01*
X0545715Y0439105D02*
X0545715Y0433505D01*
X0563215Y0434105D02*
X0563215Y0428505D01*
X0570715Y0428505D02*
X0570715Y0434105D01*
X0600715Y0433800D02*
X0600715Y0439400D01*
X0608215Y0439400D02*
X0608215Y0433800D01*
X0628510Y0431300D02*
X0628510Y0436900D01*
X0636010Y0436900D02*
X0636010Y0431300D01*
X0675420Y0433800D02*
X0675420Y0439400D01*
X0682920Y0439400D02*
X0682920Y0433800D01*
X0651965Y0257200D02*
X0651965Y0251600D01*
X0641965Y0251600D02*
X0641965Y0257200D01*
X0631965Y0257200D02*
X0631965Y0251600D01*
X0621965Y0251600D02*
X0621965Y0257200D01*
X0621965Y0221600D02*
X0621965Y0216000D01*
X0631965Y0216000D02*
X0631965Y0221600D01*
X0641965Y0221600D02*
X0641965Y0216000D01*
X0651965Y0216000D02*
X0651965Y0221600D01*
D19*
X0647497Y0333225D03*
X0627497Y0333225D03*
X0593215Y0330350D03*
X0573215Y0330350D03*
X0481965Y0259100D03*
X0461965Y0259100D03*
X0424465Y0264100D03*
X0404465Y0264100D03*
X0366965Y0259100D03*
X0346965Y0259100D03*
X0308215Y0264100D03*
X0288215Y0264100D03*
X0251965Y0264100D03*
X0231965Y0264100D03*
X0194465Y0271600D03*
X0174465Y0271600D03*
X0221965Y0219100D03*
X0241965Y0219100D03*
X0279465Y0219100D03*
X0299465Y0219100D03*
X0336965Y0219100D03*
X0356965Y0219100D03*
X0394465Y0219100D03*
X0414465Y0219100D03*
X0455715Y0220350D03*
X0475715Y0220350D03*
X0689997Y0341600D03*
X0709997Y0341600D03*
X0221965Y0179100D03*
X0201965Y0179100D03*
D20*
X0234465Y0179100D03*
X0244465Y0179100D03*
X0254465Y0219100D03*
X0264465Y0219100D03*
X0311010Y0219100D03*
X0321010Y0219100D03*
X0369465Y0219100D03*
X0379465Y0219100D03*
X0426965Y0219100D03*
X0436965Y0219100D03*
X0488215Y0220350D03*
X0498215Y0220350D03*
X0494465Y0259100D03*
X0504465Y0259100D03*
X0446965Y0264100D03*
X0436965Y0264100D03*
X0389465Y0259100D03*
X0379465Y0259100D03*
X0331965Y0264100D03*
X0321965Y0264100D03*
X0274465Y0264100D03*
X0264465Y0264100D03*
X0216965Y0271600D03*
X0206965Y0271600D03*
X0604997Y0331600D03*
X0614997Y0331600D03*
X0659997Y0336600D03*
X0669997Y0336600D03*
X0722497Y0341600D03*
X0732497Y0341600D03*
D21*
X0674465Y0393805D03*
X0678776Y0416600D03*
X0718776Y0416600D03*
X0634465Y0393805D03*
X0611010Y0380350D03*
X0584465Y0398805D03*
X0571965Y0411305D03*
X0544465Y0398805D03*
X0531965Y0411305D03*
X0524465Y0403805D03*
X0516965Y0416305D03*
X0484465Y0403805D03*
X0476965Y0416305D03*
X0464170Y0396600D03*
X0434465Y0408805D03*
X0424170Y0396600D03*
X0406965Y0396305D03*
X0394465Y0408805D03*
X0376965Y0408805D03*
X0366965Y0396305D03*
X0336965Y0408805D03*
X0316670Y0396600D03*
X0286670Y0409100D03*
X0276670Y0396600D03*
X0256670Y0396600D03*
X0246670Y0409100D03*
X0236965Y0409100D03*
X0216670Y0396600D03*
X0196965Y0409100D03*
X0611010Y0420350D03*
D22*
X0634997Y0379800D02*
X0634997Y0373400D01*
X0644997Y0373400D02*
X0644997Y0379800D01*
X0654997Y0379800D02*
X0654997Y0373400D01*
X0692497Y0373400D02*
X0692497Y0379800D01*
X0702497Y0379800D02*
X0702497Y0373400D01*
X0712497Y0373400D02*
X0712497Y0379800D01*
X0717497Y0324800D02*
X0717497Y0318400D01*
X0707497Y0318400D02*
X0707497Y0324800D01*
X0697497Y0324800D02*
X0697497Y0318400D01*
X0656247Y0318550D02*
X0656247Y0312150D01*
X0646247Y0312150D02*
X0646247Y0318550D01*
X0636247Y0318550D02*
X0636247Y0312150D01*
X0599997Y0314800D02*
X0599997Y0308400D01*
X0589997Y0308400D02*
X0589997Y0314800D01*
X0579997Y0314800D02*
X0579997Y0308400D01*
X0577497Y0360900D02*
X0577497Y0367300D01*
X0587497Y0367300D02*
X0587497Y0360900D01*
X0597497Y0360900D02*
X0597497Y0367300D01*
X0496415Y0343145D02*
X0490015Y0343145D01*
X0490015Y0333145D02*
X0496415Y0333145D01*
X0496415Y0323145D02*
X0490015Y0323145D01*
X0463915Y0323145D02*
X0457515Y0323145D01*
X0457515Y0333145D02*
X0463915Y0333145D01*
X0463915Y0343145D02*
X0457515Y0343145D01*
X0442665Y0329395D02*
X0436265Y0329395D01*
X0436265Y0319395D02*
X0442665Y0319395D01*
X0442665Y0309395D02*
X0436265Y0309395D01*
X0416415Y0306895D02*
X0410015Y0306895D01*
X0410015Y0296895D02*
X0416415Y0296895D01*
X0416415Y0316895D02*
X0410015Y0316895D01*
X0386815Y0316100D02*
X0380415Y0316100D01*
X0380415Y0306100D02*
X0386815Y0306100D01*
X0386815Y0296100D02*
X0380415Y0296100D01*
X0361715Y0297195D02*
X0355315Y0297195D01*
X0355315Y0307195D02*
X0361715Y0307195D01*
X0361715Y0317195D02*
X0355315Y0317195D01*
X0338715Y0316895D02*
X0332315Y0316895D01*
X0332315Y0306895D02*
X0338715Y0306895D01*
X0338715Y0296895D02*
X0332315Y0296895D01*
X0316415Y0296895D02*
X0310015Y0296895D01*
X0310015Y0306895D02*
X0316415Y0306895D01*
X0316415Y0316895D02*
X0310015Y0316895D01*
X0291415Y0316895D02*
X0285015Y0316895D01*
X0285015Y0306895D02*
X0291415Y0306895D01*
X0291415Y0296895D02*
X0285015Y0296895D01*
X0263915Y0301895D02*
X0257515Y0301895D01*
X0257515Y0311895D02*
X0263915Y0311895D01*
X0263915Y0321895D02*
X0257515Y0321895D01*
X0236415Y0320645D02*
X0230015Y0320645D01*
X0230015Y0310645D02*
X0236415Y0310645D01*
X0236415Y0330645D02*
X0230015Y0330645D01*
X0210165Y0340645D02*
X0203765Y0340645D01*
X0203765Y0350645D02*
X0210165Y0350645D01*
X0210165Y0360645D02*
X0203765Y0360645D01*
X0204465Y0257300D02*
X0204465Y0250900D01*
X0194465Y0250900D02*
X0194465Y0257300D01*
X0184465Y0257300D02*
X0184465Y0250900D01*
X0241965Y0249800D02*
X0241965Y0243400D01*
X0251965Y0243400D02*
X0251965Y0249800D01*
X0261965Y0249800D02*
X0261965Y0243400D01*
X0299465Y0243400D02*
X0299465Y0249800D01*
X0309465Y0249800D02*
X0309465Y0243400D01*
X0319465Y0243400D02*
X0319465Y0249800D01*
X0356965Y0244800D02*
X0356965Y0238400D01*
X0366965Y0238400D02*
X0366965Y0244800D01*
X0376965Y0244800D02*
X0376965Y0238400D01*
X0414465Y0243400D02*
X0414465Y0249800D01*
X0424465Y0249800D02*
X0424465Y0243400D01*
X0434465Y0243400D02*
X0434465Y0249800D01*
X0471965Y0244800D02*
X0471965Y0238400D01*
X0481965Y0238400D02*
X0481965Y0244800D01*
X0491965Y0244800D02*
X0491965Y0238400D01*
X0485715Y0206050D02*
X0485715Y0199650D01*
X0475715Y0199650D02*
X0475715Y0206050D01*
X0465715Y0206050D02*
X0465715Y0199650D01*
X0424465Y0198400D02*
X0424465Y0204800D01*
X0414465Y0204800D02*
X0414465Y0198400D01*
X0404465Y0198400D02*
X0404465Y0204800D01*
X0366965Y0204800D02*
X0366965Y0198400D01*
X0356965Y0198400D02*
X0356965Y0204800D01*
X0346965Y0204800D02*
X0346965Y0198400D01*
X0309465Y0198400D02*
X0309465Y0204800D01*
X0299465Y0204800D02*
X0299465Y0198400D01*
X0289465Y0198400D02*
X0289465Y0204800D01*
X0251965Y0204800D02*
X0251965Y0198400D01*
X0241965Y0198400D02*
X0241965Y0204800D01*
X0231965Y0204800D02*
X0231965Y0198400D01*
X0231965Y0164800D02*
X0231965Y0158400D01*
X0221965Y0158400D02*
X0221965Y0164800D01*
X0211965Y0164800D02*
X0211965Y0158400D01*
D23*
X0258207Y0152071D02*
X0258207Y0144971D01*
X0277892Y0144971D02*
X0277892Y0152071D01*
X0297577Y0152071D02*
X0297577Y0144971D01*
X0317262Y0144971D02*
X0317262Y0152071D01*
X0721407Y0160183D02*
X0728507Y0160183D01*
X0728507Y0140498D02*
X0721407Y0140498D01*
X0721407Y0179868D02*
X0728507Y0179868D01*
X0728507Y0199553D02*
X0721407Y0199553D01*
X0721486Y0239710D02*
X0728586Y0239710D01*
X0728586Y0259395D02*
X0721486Y0259395D01*
X0721486Y0279080D02*
X0728586Y0279080D01*
X0150436Y0449710D02*
X0143336Y0449710D01*
X0143336Y0469395D02*
X0150436Y0469395D01*
X0150436Y0489080D02*
X0143336Y0489080D01*
D24*
X0146965Y0434100D03*
X0176915Y0392350D03*
X0170715Y0372850D03*
X0168215Y0360350D03*
X0160715Y0350350D03*
X0139465Y0352850D03*
X0193815Y0320800D03*
X0225715Y0345350D03*
X0239465Y0349100D03*
X0224465Y0364725D03*
X0248215Y0322850D03*
X0274265Y0318600D03*
X0302165Y0324000D03*
X0248215Y0297850D03*
X0306340Y0280350D03*
X0321965Y0279100D03*
X0348215Y0270350D03*
X0335715Y0242850D03*
X0371715Y0307300D03*
X0399265Y0306450D03*
X0426965Y0306600D03*
X0435715Y0294100D03*
X0436965Y0282850D03*
X0455165Y0278850D03*
X0490265Y0286250D03*
X0503215Y0274100D03*
X0539465Y0272850D03*
X0574465Y0267850D03*
X0605265Y0281800D03*
X0594465Y0292225D03*
X0621965Y0266600D03*
X0641965Y0266600D03*
X0595265Y0232200D03*
X0695715Y0180350D03*
X0698215Y0302850D03*
X0682865Y0333000D03*
X0656965Y0356600D03*
X0639665Y0343800D03*
X0614465Y0343200D03*
X0579465Y0350350D03*
X0540665Y0350600D03*
X0537065Y0332100D03*
X0539065Y0311800D03*
X0499265Y0306900D03*
X0487715Y0306900D03*
X0459465Y0309100D03*
X0396965Y0349100D03*
X0386965Y0359100D03*
X0337265Y0388800D03*
X0333665Y0455400D03*
X0333665Y0471400D03*
X0421865Y0488700D03*
X0437865Y0485100D03*
X0439865Y0470700D03*
X0434465Y0450900D03*
X0477665Y0426600D03*
X0523565Y0459900D03*
X0542465Y0460800D03*
X0542465Y0470700D03*
X0528965Y0423900D03*
X0552590Y0421600D03*
X0593765Y0423000D03*
X0620715Y0416600D03*
X0649465Y0424100D03*
X0642865Y0453600D03*
X0627965Y0453600D03*
X0621665Y0479700D03*
X0712965Y0401800D03*
X0681965Y0361600D03*
X0588365Y0387000D03*
X0567665Y0388800D03*
X0553215Y0389100D03*
X0529865Y0388800D03*
X0519065Y0388800D03*
X0484865Y0389700D03*
X0458765Y0383900D03*
X0464165Y0359100D03*
X0494765Y0360000D03*
X0445715Y0227850D03*
X0421965Y0227850D03*
X0168215Y0289100D03*
X0139465Y0282850D03*
X0225015Y0420400D03*
M02*
