%
M48
M72
T01C0.02756
T02C0.03200
T03C0.03543
T04C0.03937
T05C0.04000
T06C0.04700
T07C0.05906
T08C0.11811
T09C0.12598
%
T01
X251965Y173933
X276965Y173933
X307115Y196558
X377990Y196558
X497690Y261133
X491965Y283933
X459665Y287008
X491965Y308933
X454040Y355858
X434015Y360583
X411965Y339433
X389465Y324133
X360440Y313333
X365515Y287283
X290465Y289033
X247265Y336733
X247265Y365533
X234440Y392983
X210365Y424033
X231515Y437533
X263915Y451708
X245690Y476683
X305765Y451708
X352340Y452108
X421965Y453933
X451965Y455283
X434240Y426058
X413765Y396133
X392165Y358333
X500165Y360133
X533465Y390733
X588590Y379483
X596965Y348933
X616965Y348933
X647165Y348333
X696365Y348333
X618065Y279133
X616940Y259333
X626965Y258933
X521865Y187108
X521865Y160783
X184265Y432308
X165365Y432133
X184265Y484108
X503590Y455283
X562940Y455758
X609515Y455758
X636965Y453933
X666965Y453933
T02
X632260Y485183
X632260Y492683
X598215Y441038
X590715Y441038
X631965Y403933
X631965Y393933
X631965Y378933
X631965Y358933
X706965Y358933
X706965Y378933
X706965Y393933
X706965Y403933
X533215Y471138
X525715Y471138
X515715Y438933
X508215Y438933
X485715Y438933
X478215Y438933
X429760Y472683
X429760Y480183
X405715Y439608
X398215Y439608
X380715Y440283
X373215Y440283
X239465Y308933
X229465Y308933
X216965Y308933
X196965Y308933
X241965Y268933
X261965Y268933
X274465Y268933
X284465Y268933
X311965Y273933
X331965Y273933
X344465Y273933
X354465Y273933
X384465Y273933
X404465Y273933
X414465Y273933
X424465Y273933
X446965Y268933
X466965Y268933
X479465Y268933
X489465Y268933
X494465Y223933
X504465Y223933
X481965Y223933
X461965Y223933
X434465Y223933
X424465Y223933
X411965Y223933
X391965Y223933
X364465Y223933
X354465Y223933
X341965Y223933
X321965Y223933
X294465Y223933
X284465Y223933
X271965Y223933
X251965Y223933
X244465Y193933
X234465Y193933
X221965Y193933
X201965Y193933
X616965Y213933
X626965Y213933
X636965Y213933
X646965Y213933
X646965Y243933
X636965Y243933
X626965Y243933
X616965Y243933
T03
X626965Y283933
X656965Y283933
X549465Y265433
X539465Y265433
X539465Y256433
X539465Y246433
X549465Y246433
X549465Y256433
X626965Y193933
X626965Y181433
X656965Y181433
X656965Y193933
X426965Y366728
X396965Y366728
X376965Y366433
X366965Y363933
X356965Y363933
X346965Y363933
X336965Y363933
X326965Y363933
X326965Y353933
X336965Y353933
X346965Y353933
X356965Y353933
X366965Y353933
X376965Y356433
X310965Y353933
X300965Y353933
X290965Y353933
X290965Y363933
X300965Y363933
X310965Y363933
X174465Y441728
X174465Y471728
T04
X266965Y466728
X276965Y466728
X286965Y466728
X296965Y466728
X291965Y476728
X281965Y476728
X271965Y476728
X301965Y476728
X366965Y466728
X376965Y466728
X386965Y466728
X396965Y466728
X391965Y476728
X401965Y476728
X381965Y476728
X371965Y476728
X466965Y466728
X476965Y466728
X486965Y466728
X496965Y466728
X491965Y476728
X481965Y476728
X471965Y476728
X501965Y476728
X566965Y466728
X576965Y466728
X586965Y466728
X596965Y466728
X591965Y476728
X581965Y476728
X571965Y476728
X601965Y476728
T05
X570815Y444138
X581815Y422863
X561965Y413933
X571965Y388933
X571965Y378933
X571965Y368933
X606965Y368933
X606965Y378933
X606965Y388933
X651965Y388933
X651965Y378933
X651965Y368933
X681965Y368933
X681965Y378933
X681965Y388933
X726965Y388933
X726965Y378933
X726965Y368933
X621815Y422863
X651965Y485183
X691965Y485183
X530815Y444138
X521965Y413933
X504940Y418933
X464940Y418933
X446965Y413933
X460090Y438208
X420090Y438208
X406965Y413933
X390565Y418633
X356670Y436433
X350565Y418633
X321965Y403933
X326965Y376433
X336965Y376433
X346965Y376433
X356965Y376433
X366965Y376433
X376965Y376433
X386965Y376433
X396965Y376433
X406965Y323933
X406965Y313933
X406965Y303933
X436965Y303933
X436965Y313933
X436965Y323933
X466965Y323933
X466965Y313933
X466965Y303933
X516965Y256433
X516965Y246433
X526965Y246433
X526965Y256433
X479465Y246433
X469465Y246433
X459465Y246433
X414465Y256433
X404465Y256433
X394465Y256433
X344465Y256433
X334465Y256433
X324465Y256433
X274465Y251433
X264465Y251433
X254465Y251433
X229465Y291433
X219465Y291433
X209465Y291433
X261965Y313933
X261965Y323933
X261965Y333933
X291965Y323933
X291965Y313933
X291965Y303933
X319940Y303933
X319940Y313933
X319940Y323933
X344365Y323333
X344365Y313333
X344365Y303333
X374265Y303258
X374265Y313258
X374265Y323258
X310965Y376433
X300965Y376433
X290965Y376433
X280965Y376433
X270965Y376433
X260965Y376433
X250965Y376433
X240965Y376433
X231965Y358933
X231965Y348933
X231965Y338933
X223665Y403908
X244465Y428933
X258215Y428933
X285715Y433933
X299465Y433933
X316670Y436433
X281965Y403933
X263665Y403908
X236965Y453933
X219760Y472683
X219760Y486433
X196965Y453933
X328215Y471138
X341965Y471138
X516965Y376433
X526965Y376433
X526965Y206433
X516965Y206433
X494465Y206433
X484465Y206433
X474465Y206433
X424465Y206433
X414465Y206433
X404465Y206433
X354465Y206433
X344465Y206433
X334465Y206433
X326965Y186433
X316965Y186433
X306965Y186433
X296965Y186433
X286965Y186433
X276965Y186433
X274465Y206433
X264465Y206433
X284465Y206433
X234465Y176433
X224465Y176433
X214465Y176433
T06
X143886Y233636
X143886Y253321
X143886Y273006
X143886Y292691
X146886Y457043
X146886Y476728
X146886Y496413
X725036Y286413
X725036Y266728
X725036Y247043
X724957Y206886
X724957Y187201
X724957Y167516
X724957Y147831
T07
X891965Y143933
X891965Y488933
X71965Y323933
T08
X177044Y133303
X177044Y417949
X653816Y417949
X653816Y133303
T09
X606965Y501728
X561965Y501728
X506965Y501728
X461965Y501728
X406965Y501728
X361965Y501728
X306965Y501728
X261965Y501728
M30
