G75*
%MOIN*%
%OFA0B0*%
%FSLAX25Y25*%
%IPPOS*%
%LPD*%
%AMOC8*
5,1,8,0,0,1.08239X$1,22.5*
%
%ADD10C,0.12611*%
%ADD11C,0.06706*%
%ADD12C,0.08200*%
%ADD13R,0.08200X0.08200*%
%ADD14C,0.13398*%
%ADD15OC8,0.08200*%
%ADD16C,0.08400*%
%ADD17OC8,0.08400*%
%ADD18C,0.06400*%
%ADD19OC8,0.07100*%
%ADD20OC8,0.06400*%
%ADD21C,0.04000*%
%ADD22C,0.07200*%
%ADD23C,0.07900*%
%ADD24OC8,0.07556*%
D10*
X0177044Y0133303D03*
X0177044Y0417949D03*
X0653816Y0417949D03*
X0653816Y0133303D03*
D11*
X0891965Y0143933D03*
X0891965Y0488933D03*
X0071965Y0323933D03*
D12*
X0240965Y0376433D03*
X0250965Y0376433D03*
X0260965Y0376433D03*
X0270965Y0376433D03*
X0280965Y0376433D03*
X0290965Y0376433D03*
X0300965Y0376433D03*
X0310965Y0376433D03*
X0310965Y0363933D03*
X0300965Y0363933D03*
X0290965Y0363933D03*
X0290965Y0353933D03*
X0300965Y0353933D03*
X0310965Y0353933D03*
X0326965Y0353933D03*
X0336965Y0353933D03*
X0346965Y0353933D03*
X0356965Y0353933D03*
X0366965Y0353933D03*
X0376965Y0356433D03*
X0376965Y0366433D03*
X0366965Y0363933D03*
X0356965Y0363933D03*
X0346965Y0363933D03*
X0336965Y0363933D03*
X0326965Y0363933D03*
X0326965Y0376433D03*
X0336965Y0376433D03*
X0346965Y0376433D03*
X0356965Y0376433D03*
X0366965Y0376433D03*
X0376965Y0376433D03*
X0386965Y0376433D03*
X0396965Y0376433D03*
X0396965Y0366728D03*
X0426965Y0366728D03*
X0516965Y0376433D03*
X0526965Y0376433D03*
X0496965Y0466728D03*
X0486965Y0466728D03*
X0476965Y0466728D03*
X0466965Y0466728D03*
X0471965Y0476728D03*
X0481965Y0476728D03*
X0491965Y0476728D03*
X0566965Y0466728D03*
X0576965Y0466728D03*
X0586965Y0466728D03*
X0596965Y0466728D03*
X0591965Y0476728D03*
X0581965Y0476728D03*
X0571965Y0476728D03*
X0396965Y0466728D03*
X0386965Y0466728D03*
X0376965Y0466728D03*
X0366965Y0466728D03*
X0371965Y0476728D03*
X0381965Y0476728D03*
X0391965Y0476728D03*
X0296965Y0466728D03*
X0286965Y0466728D03*
X0276965Y0466728D03*
X0266965Y0466728D03*
X0271965Y0476728D03*
X0281965Y0476728D03*
X0291965Y0476728D03*
X0174465Y0471728D03*
X0174465Y0441728D03*
X0516965Y0206433D03*
X0526965Y0206433D03*
X0539465Y0246433D03*
X0539465Y0256433D03*
X0549465Y0256433D03*
X0549465Y0246433D03*
X0549465Y0265433D03*
X0539465Y0265433D03*
X0626965Y0283933D03*
X0656965Y0283933D03*
X0656965Y0193933D03*
X0656965Y0181433D03*
X0626965Y0181433D03*
X0626965Y0193933D03*
X0326965Y0186433D03*
X0316965Y0186433D03*
X0306965Y0186433D03*
X0296965Y0186433D03*
X0286965Y0186433D03*
X0276965Y0186433D03*
D13*
X0301965Y0476728D03*
X0401965Y0476728D03*
X0501965Y0476728D03*
X0601965Y0476728D03*
D14*
X0606965Y0501728D03*
X0561965Y0501728D03*
X0506965Y0501728D03*
X0461965Y0501728D03*
X0406965Y0501728D03*
X0361965Y0501728D03*
X0306965Y0501728D03*
X0261965Y0501728D03*
D15*
X0516965Y0256433D03*
X0516965Y0246433D03*
X0526965Y0246433D03*
X0526965Y0256433D03*
D16*
X0299465Y0433933D03*
X0244465Y0428933D03*
X0219760Y0486433D03*
X0341965Y0471138D03*
D17*
X0328215Y0471138D03*
X0285715Y0433933D03*
X0258215Y0428933D03*
X0219760Y0472683D03*
D18*
X0373215Y0443083D02*
X0373215Y0437483D01*
X0380715Y0437483D02*
X0380715Y0443083D01*
X0398215Y0442408D02*
X0398215Y0436808D01*
X0405715Y0436808D02*
X0405715Y0442408D01*
X0426960Y0472683D02*
X0432560Y0472683D01*
X0432560Y0480183D02*
X0426960Y0480183D01*
X0478215Y0441733D02*
X0478215Y0436133D01*
X0485715Y0436133D02*
X0485715Y0441733D01*
X0508215Y0441733D02*
X0508215Y0436133D01*
X0515715Y0436133D02*
X0515715Y0441733D01*
X0525715Y0468338D02*
X0525715Y0473938D01*
X0533215Y0473938D02*
X0533215Y0468338D01*
X0590715Y0443838D02*
X0590715Y0438238D01*
X0598215Y0438238D02*
X0598215Y0443838D01*
X0629460Y0485183D02*
X0635060Y0485183D01*
X0635060Y0492683D02*
X0629460Y0492683D01*
X0626965Y0249533D02*
X0626965Y0243933D01*
X0616965Y0243933D02*
X0616965Y0249533D01*
X0636965Y0249533D02*
X0636965Y0243933D01*
X0646965Y0243933D02*
X0646965Y0249533D01*
X0646965Y0213933D02*
X0646965Y0208333D01*
X0636965Y0208333D02*
X0636965Y0213933D01*
X0626965Y0213933D02*
X0626965Y0208333D01*
X0616965Y0208333D02*
X0616965Y0213933D01*
D19*
X0481965Y0223933D03*
X0461965Y0223933D03*
X0411965Y0223933D03*
X0391965Y0223933D03*
X0341965Y0223933D03*
X0321965Y0223933D03*
X0271965Y0223933D03*
X0251965Y0223933D03*
X0221965Y0193933D03*
X0201965Y0193933D03*
X0241965Y0268933D03*
X0261965Y0268933D03*
X0311965Y0273933D03*
X0331965Y0273933D03*
X0384465Y0273933D03*
X0404465Y0273933D03*
X0446965Y0268933D03*
X0466965Y0268933D03*
X0631965Y0358933D03*
X0631965Y0378933D03*
X0706965Y0378933D03*
X0706965Y0358933D03*
X0216965Y0308933D03*
X0196965Y0308933D03*
D20*
X0229465Y0308933D03*
X0239465Y0308933D03*
X0274465Y0268933D03*
X0284465Y0268933D03*
X0344465Y0273933D03*
X0354465Y0273933D03*
X0414465Y0273933D03*
X0424465Y0273933D03*
X0479465Y0268933D03*
X0489465Y0268933D03*
X0494465Y0223933D03*
X0504465Y0223933D03*
X0434465Y0223933D03*
X0424465Y0223933D03*
X0364465Y0223933D03*
X0354465Y0223933D03*
X0294465Y0223933D03*
X0284465Y0223933D03*
X0244465Y0193933D03*
X0234465Y0193933D03*
X0631965Y0393933D03*
X0631965Y0403933D03*
X0706965Y0403933D03*
X0706965Y0393933D03*
D21*
X0621815Y0422863D03*
X0581815Y0422863D03*
X0561965Y0413933D03*
X0521965Y0413933D03*
X0504940Y0418933D03*
X0530815Y0444138D03*
X0570815Y0444138D03*
X0651965Y0485183D03*
X0691965Y0485183D03*
X0464940Y0418933D03*
X0446965Y0413933D03*
X0460090Y0438208D03*
X0420090Y0438208D03*
X0406965Y0413933D03*
X0390565Y0418633D03*
X0356670Y0436433D03*
X0350565Y0418633D03*
X0321965Y0403933D03*
X0281965Y0403933D03*
X0263665Y0403908D03*
X0223665Y0403908D03*
X0236965Y0453933D03*
X0196965Y0453933D03*
X0316670Y0436433D03*
D22*
X0235165Y0358933D02*
X0228765Y0358933D01*
X0228765Y0348933D02*
X0235165Y0348933D01*
X0235165Y0338933D02*
X0228765Y0338933D01*
X0258765Y0333933D02*
X0265165Y0333933D01*
X0265165Y0323933D02*
X0258765Y0323933D01*
X0258765Y0313933D02*
X0265165Y0313933D01*
X0288765Y0313933D02*
X0295165Y0313933D01*
X0295165Y0323933D02*
X0288765Y0323933D01*
X0288765Y0303933D02*
X0295165Y0303933D01*
X0316740Y0303933D02*
X0323140Y0303933D01*
X0323140Y0313933D02*
X0316740Y0313933D01*
X0316740Y0323933D02*
X0323140Y0323933D01*
X0341165Y0323333D02*
X0347565Y0323333D01*
X0347565Y0313333D02*
X0341165Y0313333D01*
X0341165Y0303333D02*
X0347565Y0303333D01*
X0371065Y0303258D02*
X0377465Y0303258D01*
X0377465Y0313258D02*
X0371065Y0313258D01*
X0371065Y0323258D02*
X0377465Y0323258D01*
X0403765Y0323933D02*
X0410165Y0323933D01*
X0410165Y0313933D02*
X0403765Y0313933D01*
X0403765Y0303933D02*
X0410165Y0303933D01*
X0433765Y0303933D02*
X0440165Y0303933D01*
X0440165Y0313933D02*
X0433765Y0313933D01*
X0433765Y0323933D02*
X0440165Y0323933D01*
X0463765Y0323933D02*
X0470165Y0323933D01*
X0470165Y0313933D02*
X0463765Y0313933D01*
X0463765Y0303933D02*
X0470165Y0303933D01*
X0414465Y0259633D02*
X0414465Y0253233D01*
X0404465Y0253233D02*
X0404465Y0259633D01*
X0394465Y0259633D02*
X0394465Y0253233D01*
X0344465Y0253233D02*
X0344465Y0259633D01*
X0334465Y0259633D02*
X0334465Y0253233D01*
X0324465Y0253233D02*
X0324465Y0259633D01*
X0274465Y0254633D02*
X0274465Y0248233D01*
X0264465Y0248233D02*
X0264465Y0254633D01*
X0254465Y0254633D02*
X0254465Y0248233D01*
X0264465Y0209633D02*
X0264465Y0203233D01*
X0274465Y0203233D02*
X0274465Y0209633D01*
X0284465Y0209633D02*
X0284465Y0203233D01*
X0334465Y0203233D02*
X0334465Y0209633D01*
X0344465Y0209633D02*
X0344465Y0203233D01*
X0354465Y0203233D02*
X0354465Y0209633D01*
X0404465Y0209633D02*
X0404465Y0203233D01*
X0414465Y0203233D02*
X0414465Y0209633D01*
X0424465Y0209633D02*
X0424465Y0203233D01*
X0474465Y0203233D02*
X0474465Y0209633D01*
X0484465Y0209633D02*
X0484465Y0203233D01*
X0494465Y0203233D02*
X0494465Y0209633D01*
X0479465Y0243233D02*
X0479465Y0249633D01*
X0469465Y0249633D02*
X0469465Y0243233D01*
X0459465Y0243233D02*
X0459465Y0249633D01*
X0568765Y0368933D02*
X0575165Y0368933D01*
X0575165Y0378933D02*
X0568765Y0378933D01*
X0568765Y0388933D02*
X0575165Y0388933D01*
X0603765Y0388933D02*
X0610165Y0388933D01*
X0610165Y0378933D02*
X0603765Y0378933D01*
X0603765Y0368933D02*
X0610165Y0368933D01*
X0648765Y0368933D02*
X0655165Y0368933D01*
X0655165Y0378933D02*
X0648765Y0378933D01*
X0648765Y0388933D02*
X0655165Y0388933D01*
X0678765Y0388933D02*
X0685165Y0388933D01*
X0685165Y0378933D02*
X0678765Y0378933D01*
X0678765Y0368933D02*
X0685165Y0368933D01*
X0723765Y0368933D02*
X0730165Y0368933D01*
X0730165Y0378933D02*
X0723765Y0378933D01*
X0723765Y0388933D02*
X0730165Y0388933D01*
X0234465Y0179633D02*
X0234465Y0173233D01*
X0224465Y0173233D02*
X0224465Y0179633D01*
X0214465Y0179633D02*
X0214465Y0173233D01*
X0209465Y0288233D02*
X0209465Y0294633D01*
X0219465Y0294633D02*
X0219465Y0288233D01*
X0229465Y0288233D02*
X0229465Y0294633D01*
D23*
X0147436Y0292691D02*
X0140336Y0292691D01*
X0140336Y0273006D02*
X0147436Y0273006D01*
X0147436Y0253321D02*
X0140336Y0253321D01*
X0140336Y0233636D02*
X0147436Y0233636D01*
X0150436Y0457043D02*
X0143336Y0457043D01*
X0143336Y0476728D02*
X0150436Y0476728D01*
X0150436Y0496413D02*
X0143336Y0496413D01*
X0721486Y0286413D02*
X0728586Y0286413D01*
X0728586Y0266728D02*
X0721486Y0266728D01*
X0721486Y0247043D02*
X0728586Y0247043D01*
X0728507Y0206886D02*
X0721407Y0206886D01*
X0721407Y0187201D02*
X0728507Y0187201D01*
X0728507Y0167516D02*
X0721407Y0167516D01*
X0721407Y0147831D02*
X0728507Y0147831D01*
D24*
X0626965Y0258933D03*
X0616940Y0259333D03*
X0618065Y0279133D03*
X0616965Y0348933D03*
X0596965Y0348933D03*
X0588590Y0379483D03*
X0533465Y0390733D03*
X0500165Y0360133D03*
X0454040Y0355858D03*
X0434015Y0360583D03*
X0411965Y0339433D03*
X0389465Y0324133D03*
X0360440Y0313333D03*
X0365515Y0287283D03*
X0290465Y0289033D03*
X0247265Y0336733D03*
X0247265Y0365533D03*
X0234440Y0392983D03*
X0210365Y0424033D03*
X0231515Y0437533D03*
X0263915Y0451708D03*
X0245690Y0476683D03*
X0305765Y0451708D03*
X0352340Y0452108D03*
X0421965Y0453933D03*
X0451965Y0455283D03*
X0434240Y0426058D03*
X0413765Y0396133D03*
X0392165Y0358333D03*
X0491965Y0308933D03*
X0491965Y0283933D03*
X0459665Y0287008D03*
X0497690Y0261133D03*
X0521865Y0187108D03*
X0521865Y0160783D03*
X0377990Y0196558D03*
X0307115Y0196558D03*
X0276965Y0173933D03*
X0251965Y0173933D03*
X0184265Y0432308D03*
X0165365Y0432133D03*
X0184265Y0484108D03*
X0503590Y0455283D03*
X0562940Y0455758D03*
X0609515Y0455758D03*
X0636965Y0453933D03*
X0666965Y0453933D03*
X0647165Y0348333D03*
X0696365Y0348333D03*
M02*
