G75*
%MOIN*%
%OFA0B0*%
%FSLAX25Y25*%
%IPPOS*%
%LPD*%
%AMOC8*
5,1,8,0,0,1.08239X$1,22.5*
%
%ADD10C,0.07400*%
%ADD11R,0.07400X0.07400*%
%ADD12OC8,0.07400*%
%ADD13C,0.07600*%
%ADD14OC8,0.07600*%
%ADD15C,0.05600*%
%ADD16OC8,0.06300*%
%ADD17OC8,0.05600*%
%ADD18C,0.06400*%
%ADD19C,0.07100*%
%ADD20C,0.04000*%
%ADD21C,0.02000*%
%ADD22C,0.02400*%
%ADD23OC8,0.06756*%
%ADD24C,0.01600*%
D10*
X0276965Y0186433D03*
X0286965Y0186433D03*
X0296965Y0186433D03*
X0306965Y0186433D03*
X0316965Y0186433D03*
X0326965Y0186433D03*
X0516965Y0206433D03*
X0526965Y0206433D03*
X0539465Y0246433D03*
X0539465Y0256433D03*
X0549465Y0256433D03*
X0549465Y0246433D03*
X0549465Y0265433D03*
X0539465Y0265433D03*
X0626965Y0283933D03*
X0656965Y0283933D03*
X0656965Y0193933D03*
X0656965Y0181433D03*
X0626965Y0181433D03*
X0626965Y0193933D03*
X0426965Y0366728D03*
X0396965Y0366728D03*
X0396965Y0376433D03*
X0386965Y0376433D03*
X0376965Y0376433D03*
X0366965Y0376433D03*
X0356965Y0376433D03*
X0346965Y0376433D03*
X0336965Y0376433D03*
X0326965Y0376433D03*
X0326965Y0363933D03*
X0336965Y0363933D03*
X0346965Y0363933D03*
X0356965Y0363933D03*
X0366965Y0363933D03*
X0376965Y0366433D03*
X0376965Y0356433D03*
X0366965Y0353933D03*
X0356965Y0353933D03*
X0346965Y0353933D03*
X0336965Y0353933D03*
X0326965Y0353933D03*
X0310965Y0353933D03*
X0300965Y0353933D03*
X0290965Y0353933D03*
X0290965Y0363933D03*
X0300965Y0363933D03*
X0310965Y0363933D03*
X0310965Y0376433D03*
X0300965Y0376433D03*
X0290965Y0376433D03*
X0280965Y0376433D03*
X0270965Y0376433D03*
X0260965Y0376433D03*
X0250965Y0376433D03*
X0240965Y0376433D03*
X0223665Y0403908D03*
X0263665Y0403908D03*
X0281965Y0403933D03*
X0321965Y0403933D03*
X0350565Y0418633D03*
X0356670Y0436433D03*
X0390565Y0418633D03*
X0406965Y0413933D03*
X0420090Y0438208D03*
X0446965Y0413933D03*
X0464940Y0418933D03*
X0460090Y0438208D03*
X0466965Y0466728D03*
X0476965Y0466728D03*
X0486965Y0466728D03*
X0496965Y0466728D03*
X0491965Y0476728D03*
X0481965Y0476728D03*
X0471965Y0476728D03*
X0530815Y0444138D03*
X0566965Y0466728D03*
X0576965Y0466728D03*
X0586965Y0466728D03*
X0596965Y0466728D03*
X0591965Y0476728D03*
X0581965Y0476728D03*
X0571965Y0476728D03*
X0570815Y0444138D03*
X0581815Y0422863D03*
X0561965Y0413933D03*
X0521965Y0413933D03*
X0504940Y0418933D03*
X0516965Y0376433D03*
X0526965Y0376433D03*
X0621815Y0422863D03*
X0651965Y0485183D03*
X0691965Y0485183D03*
X0396965Y0466728D03*
X0386965Y0466728D03*
X0376965Y0466728D03*
X0366965Y0466728D03*
X0371965Y0476728D03*
X0381965Y0476728D03*
X0391965Y0476728D03*
X0316670Y0436433D03*
X0296965Y0466728D03*
X0286965Y0466728D03*
X0276965Y0466728D03*
X0266965Y0466728D03*
X0271965Y0476728D03*
X0281965Y0476728D03*
X0291965Y0476728D03*
X0236965Y0453933D03*
X0196965Y0453933D03*
X0174465Y0441728D03*
X0174465Y0471728D03*
D11*
X0301965Y0476728D03*
X0401965Y0476728D03*
X0501965Y0476728D03*
X0601965Y0476728D03*
D12*
X0526965Y0256433D03*
X0516965Y0256433D03*
X0516965Y0246433D03*
X0526965Y0246433D03*
D13*
X0299465Y0433933D03*
X0244465Y0428933D03*
X0219760Y0486433D03*
X0341965Y0471138D03*
D14*
X0328215Y0471138D03*
X0285715Y0433933D03*
X0258215Y0428933D03*
X0219760Y0472683D03*
D15*
X0373215Y0443083D02*
X0373215Y0437483D01*
X0380715Y0437483D02*
X0380715Y0443083D01*
X0398215Y0442408D02*
X0398215Y0436808D01*
X0405715Y0436808D02*
X0405715Y0442408D01*
X0426960Y0472683D02*
X0432560Y0472683D01*
X0432560Y0480183D02*
X0426960Y0480183D01*
X0478215Y0441733D02*
X0478215Y0436133D01*
X0485715Y0436133D02*
X0485715Y0441733D01*
X0508215Y0441733D02*
X0508215Y0436133D01*
X0515715Y0436133D02*
X0515715Y0441733D01*
X0525715Y0468338D02*
X0525715Y0473938D01*
X0533215Y0473938D02*
X0533215Y0468338D01*
X0590715Y0443838D02*
X0590715Y0438238D01*
X0598215Y0438238D02*
X0598215Y0443838D01*
X0629460Y0485183D02*
X0635060Y0485183D01*
X0635060Y0492683D02*
X0629460Y0492683D01*
X0626965Y0249533D02*
X0626965Y0243933D01*
X0616965Y0243933D02*
X0616965Y0249533D01*
X0636965Y0249533D02*
X0636965Y0243933D01*
X0646965Y0243933D02*
X0646965Y0249533D01*
X0646965Y0213933D02*
X0646965Y0208333D01*
X0636965Y0208333D02*
X0636965Y0213933D01*
X0626965Y0213933D02*
X0626965Y0208333D01*
X0616965Y0208333D02*
X0616965Y0213933D01*
D16*
X0481965Y0223933D03*
X0461965Y0223933D03*
X0411965Y0223933D03*
X0391965Y0223933D03*
X0341965Y0223933D03*
X0321965Y0223933D03*
X0271965Y0223933D03*
X0251965Y0223933D03*
X0221965Y0193933D03*
X0201965Y0193933D03*
X0241965Y0268933D03*
X0261965Y0268933D03*
X0311965Y0273933D03*
X0331965Y0273933D03*
X0384465Y0273933D03*
X0404465Y0273933D03*
X0446965Y0268933D03*
X0466965Y0268933D03*
X0631965Y0358933D03*
X0631965Y0378933D03*
X0706965Y0378933D03*
X0706965Y0358933D03*
X0216965Y0308933D03*
X0196965Y0308933D03*
D17*
X0229465Y0308933D03*
X0239465Y0308933D03*
X0274465Y0268933D03*
X0284465Y0268933D03*
X0344465Y0273933D03*
X0354465Y0273933D03*
X0414465Y0273933D03*
X0424465Y0273933D03*
X0479465Y0268933D03*
X0489465Y0268933D03*
X0494465Y0223933D03*
X0504465Y0223933D03*
X0434465Y0223933D03*
X0424465Y0223933D03*
X0364465Y0223933D03*
X0354465Y0223933D03*
X0294465Y0223933D03*
X0284465Y0223933D03*
X0244465Y0193933D03*
X0234465Y0193933D03*
X0631965Y0393933D03*
X0631965Y0403933D03*
X0706965Y0403933D03*
X0706965Y0393933D03*
D18*
X0723765Y0388933D02*
X0730165Y0388933D01*
X0730165Y0378933D02*
X0723765Y0378933D01*
X0723765Y0368933D02*
X0730165Y0368933D01*
X0685165Y0368933D02*
X0678765Y0368933D01*
X0678765Y0378933D02*
X0685165Y0378933D01*
X0685165Y0388933D02*
X0678765Y0388933D01*
X0655165Y0388933D02*
X0648765Y0388933D01*
X0648765Y0378933D02*
X0655165Y0378933D01*
X0655165Y0368933D02*
X0648765Y0368933D01*
X0610165Y0368933D02*
X0603765Y0368933D01*
X0603765Y0378933D02*
X0610165Y0378933D01*
X0610165Y0388933D02*
X0603765Y0388933D01*
X0575165Y0388933D02*
X0568765Y0388933D01*
X0568765Y0378933D02*
X0575165Y0378933D01*
X0575165Y0368933D02*
X0568765Y0368933D01*
X0470165Y0323933D02*
X0463765Y0323933D01*
X0463765Y0313933D02*
X0470165Y0313933D01*
X0470165Y0303933D02*
X0463765Y0303933D01*
X0440165Y0303933D02*
X0433765Y0303933D01*
X0433765Y0313933D02*
X0440165Y0313933D01*
X0440165Y0323933D02*
X0433765Y0323933D01*
X0410165Y0323933D02*
X0403765Y0323933D01*
X0403765Y0313933D02*
X0410165Y0313933D01*
X0410165Y0303933D02*
X0403765Y0303933D01*
X0377465Y0303258D02*
X0371065Y0303258D01*
X0371065Y0313258D02*
X0377465Y0313258D01*
X0377465Y0323258D02*
X0371065Y0323258D01*
X0347565Y0323333D02*
X0341165Y0323333D01*
X0341165Y0313333D02*
X0347565Y0313333D01*
X0347565Y0303333D02*
X0341165Y0303333D01*
X0323140Y0303933D02*
X0316740Y0303933D01*
X0316740Y0313933D02*
X0323140Y0313933D01*
X0323140Y0323933D02*
X0316740Y0323933D01*
X0295165Y0323933D02*
X0288765Y0323933D01*
X0288765Y0313933D02*
X0295165Y0313933D01*
X0295165Y0303933D02*
X0288765Y0303933D01*
X0265165Y0313933D02*
X0258765Y0313933D01*
X0258765Y0323933D02*
X0265165Y0323933D01*
X0265165Y0333933D02*
X0258765Y0333933D01*
X0235165Y0338933D02*
X0228765Y0338933D01*
X0228765Y0348933D02*
X0235165Y0348933D01*
X0235165Y0358933D02*
X0228765Y0358933D01*
X0229465Y0294633D02*
X0229465Y0288233D01*
X0219465Y0288233D02*
X0219465Y0294633D01*
X0209465Y0294633D02*
X0209465Y0288233D01*
X0254465Y0254633D02*
X0254465Y0248233D01*
X0264465Y0248233D02*
X0264465Y0254633D01*
X0274465Y0254633D02*
X0274465Y0248233D01*
X0324465Y0253233D02*
X0324465Y0259633D01*
X0334465Y0259633D02*
X0334465Y0253233D01*
X0344465Y0253233D02*
X0344465Y0259633D01*
X0394465Y0259633D02*
X0394465Y0253233D01*
X0404465Y0253233D02*
X0404465Y0259633D01*
X0414465Y0259633D02*
X0414465Y0253233D01*
X0459465Y0249633D02*
X0459465Y0243233D01*
X0469465Y0243233D02*
X0469465Y0249633D01*
X0479465Y0249633D02*
X0479465Y0243233D01*
X0474465Y0209633D02*
X0474465Y0203233D01*
X0484465Y0203233D02*
X0484465Y0209633D01*
X0494465Y0209633D02*
X0494465Y0203233D01*
X0424465Y0203233D02*
X0424465Y0209633D01*
X0414465Y0209633D02*
X0414465Y0203233D01*
X0404465Y0203233D02*
X0404465Y0209633D01*
X0354465Y0209633D02*
X0354465Y0203233D01*
X0344465Y0203233D02*
X0344465Y0209633D01*
X0334465Y0209633D02*
X0334465Y0203233D01*
X0284465Y0203233D02*
X0284465Y0209633D01*
X0274465Y0209633D02*
X0274465Y0203233D01*
X0264465Y0203233D02*
X0264465Y0209633D01*
X0234465Y0179633D02*
X0234465Y0173233D01*
X0224465Y0173233D02*
X0224465Y0179633D01*
X0214465Y0179633D02*
X0214465Y0173233D01*
D19*
X0147436Y0233636D02*
X0140336Y0233636D01*
X0140336Y0253321D02*
X0147436Y0253321D01*
X0147436Y0273006D02*
X0140336Y0273006D01*
X0140336Y0292691D02*
X0147436Y0292691D01*
X0150436Y0457043D02*
X0143336Y0457043D01*
X0143336Y0476728D02*
X0150436Y0476728D01*
X0150436Y0496413D02*
X0143336Y0496413D01*
X0721486Y0286413D02*
X0728586Y0286413D01*
X0728586Y0266728D02*
X0721486Y0266728D01*
X0721486Y0247043D02*
X0728586Y0247043D01*
X0728507Y0206886D02*
X0721407Y0206886D01*
X0721407Y0187201D02*
X0728507Y0187201D01*
X0728507Y0167516D02*
X0721407Y0167516D01*
X0721407Y0147831D02*
X0728507Y0147831D01*
D20*
X0678465Y0172933D02*
X0351665Y0172933D01*
X0306965Y0217633D01*
X0306965Y0228933D01*
X0299465Y0236433D01*
X0261665Y0236433D01*
X0260765Y0238233D01*
X0255365Y0243633D01*
X0255365Y0250333D01*
X0254465Y0251433D01*
X0254465Y0252133D01*
X0242765Y0263833D01*
X0242765Y0268333D01*
X0241965Y0268933D01*
X0240065Y0269233D01*
X0223415Y0269233D01*
X0210365Y0280933D01*
X0210365Y0289933D01*
X0209465Y0291433D01*
X0209465Y0291733D01*
X0197765Y0303433D01*
X0197765Y0308833D01*
X0196965Y0308933D01*
X0261665Y0236433D02*
X0254465Y0224233D01*
X0251965Y0223933D01*
X0251765Y0223733D01*
X0251765Y0214108D01*
X0259440Y0206433D01*
X0264465Y0206433D01*
X0264590Y0206308D01*
X0264590Y0170233D01*
X0252440Y0158083D01*
X0223415Y0158083D01*
X0214465Y0167033D01*
X0214465Y0176433D01*
X0213965Y0176533D01*
X0202265Y0188233D01*
X0202265Y0193633D01*
X0201965Y0193933D01*
X0678465Y0172933D02*
X0711765Y0206233D01*
X0724265Y0206233D01*
X0724957Y0206886D01*
D21*
X0136165Y0226975D02*
X0136165Y0123133D01*
X0738001Y0123133D01*
X0738001Y0198833D01*
X0732919Y0193750D01*
X0735077Y0191591D01*
X0736257Y0188742D01*
X0736257Y0185659D01*
X0735077Y0182811D01*
X0732897Y0180631D01*
X0730049Y0179451D01*
X0719866Y0179451D01*
X0717017Y0180631D01*
X0714837Y0182811D01*
X0713657Y0185659D01*
X0713657Y0188742D01*
X0714837Y0191591D01*
X0717017Y0193771D01*
X0719866Y0194951D01*
X0719866Y0194951D01*
X0720587Y0196692D01*
X0723031Y0199136D01*
X0719866Y0199136D01*
X0717700Y0200033D01*
X0714333Y0200033D01*
X0683721Y0169421D01*
X0681977Y0167677D01*
X0679698Y0166733D01*
X0350432Y0166733D01*
X0348153Y0167677D01*
X0346116Y0169714D01*
X0357796Y0153833D01*
X0716450Y0153833D01*
X0717017Y0154401D01*
X0719866Y0155581D01*
X0730049Y0155581D01*
X0732897Y0154401D01*
X0735077Y0152221D01*
X0736257Y0149372D01*
X0736257Y0146289D01*
X0735077Y0143441D01*
X0732897Y0141261D01*
X0730049Y0140081D01*
X0719866Y0140081D01*
X0717017Y0141261D01*
X0714845Y0143433D01*
X0355796Y0143433D01*
X0355404Y0143337D01*
X0354771Y0143433D01*
X0354131Y0143433D01*
X0353758Y0143588D01*
X0353359Y0143648D01*
X0352811Y0143980D01*
X0352220Y0144225D01*
X0351934Y0144510D01*
X0351589Y0144719D01*
X0351210Y0145235D01*
X0350757Y0145688D01*
X0350602Y0146060D01*
X0326720Y0178533D01*
X0325394Y0178533D01*
X0322490Y0179736D01*
X0320367Y0181859D01*
X0319953Y0181558D01*
X0319153Y0181151D01*
X0318300Y0180873D01*
X0317414Y0180733D01*
X0316965Y0180733D01*
X0316965Y0186433D01*
X0311265Y0186433D01*
X0306965Y0186433D01*
X0306965Y0186433D01*
X0306965Y0180733D01*
X0306517Y0180733D01*
X0305630Y0180873D01*
X0304777Y0181151D01*
X0303978Y0181558D01*
X0303563Y0181859D01*
X0301440Y0179736D01*
X0298537Y0178533D01*
X0295394Y0178533D01*
X0292490Y0179736D01*
X0291965Y0180261D01*
X0291440Y0179736D01*
X0288537Y0178533D01*
X0285394Y0178533D01*
X0282490Y0179736D01*
X0281965Y0180261D01*
X0281440Y0179736D01*
X0278537Y0178533D01*
X0275394Y0178533D01*
X0272490Y0179736D01*
X0270790Y0181436D01*
X0270790Y0169000D01*
X0269846Y0166721D01*
X0268102Y0164977D01*
X0255952Y0152827D01*
X0253673Y0151883D01*
X0222182Y0151883D01*
X0219903Y0152827D01*
X0218159Y0154571D01*
X0209209Y0163521D01*
X0208265Y0165800D01*
X0208265Y0168968D01*
X0208192Y0169041D01*
X0207065Y0171761D01*
X0207065Y0174665D01*
X0197009Y0184721D01*
X0196065Y0187000D01*
X0196065Y0189439D01*
X0194615Y0190889D01*
X0194615Y0196978D01*
X0198921Y0201283D01*
X0205010Y0201283D01*
X0209315Y0196978D01*
X0209315Y0190889D01*
X0208846Y0190420D01*
X0212456Y0186810D01*
X0212993Y0187033D01*
X0215937Y0187033D01*
X0218657Y0185906D01*
X0220739Y0183825D01*
X0220904Y0183426D01*
X0221078Y0183599D01*
X0221740Y0184080D01*
X0222469Y0184452D01*
X0223248Y0184705D01*
X0224056Y0184833D01*
X0224465Y0184833D01*
X0224465Y0176433D01*
X0224465Y0176433D01*
X0224465Y0168033D01*
X0224056Y0168033D01*
X0223248Y0168161D01*
X0222469Y0168414D01*
X0221740Y0168786D01*
X0221078Y0169267D01*
X0220904Y0169440D01*
X0220881Y0169385D01*
X0225983Y0164283D01*
X0249872Y0164283D01*
X0258390Y0172801D01*
X0258390Y0198843D01*
X0258192Y0199041D01*
X0257593Y0200487D01*
X0255928Y0201177D01*
X0248253Y0208852D01*
X0246509Y0210596D01*
X0245565Y0212875D01*
X0245565Y0219939D01*
X0244615Y0220889D01*
X0244615Y0226978D01*
X0248921Y0231283D01*
X0251427Y0231283D01*
X0254218Y0236012D01*
X0250109Y0240121D01*
X0249165Y0242400D01*
X0249165Y0243068D01*
X0248192Y0244041D01*
X0247065Y0246761D01*
X0247065Y0250765D01*
X0237509Y0260321D01*
X0236565Y0262600D01*
X0236565Y0263033D01*
X0223584Y0263033D01*
X0222521Y0262975D01*
X0222357Y0263033D01*
X0222182Y0263033D01*
X0221199Y0263440D01*
X0220195Y0263793D01*
X0220065Y0263910D01*
X0219903Y0263977D01*
X0219151Y0264729D01*
X0207015Y0275610D01*
X0206853Y0275677D01*
X0206101Y0276429D01*
X0205308Y0277140D01*
X0205233Y0277298D01*
X0205109Y0277421D01*
X0204702Y0278404D01*
X0204242Y0279364D01*
X0204232Y0279538D01*
X0204165Y0279700D01*
X0204165Y0280764D01*
X0204107Y0281827D01*
X0204165Y0281992D01*
X0204165Y0283068D01*
X0203192Y0284041D01*
X0202065Y0286761D01*
X0202065Y0290365D01*
X0192509Y0299921D01*
X0191565Y0302200D01*
X0191565Y0303939D01*
X0189615Y0305889D01*
X0189615Y0311978D01*
X0193921Y0316283D01*
X0200010Y0316283D01*
X0204315Y0311978D01*
X0204315Y0305889D01*
X0204196Y0305770D01*
X0207951Y0302016D01*
X0207993Y0302033D01*
X0210937Y0302033D01*
X0213657Y0300906D01*
X0215739Y0298825D01*
X0215904Y0298426D01*
X0216078Y0298599D01*
X0216740Y0299080D01*
X0217469Y0299452D01*
X0218248Y0299705D01*
X0219056Y0299833D01*
X0219465Y0299833D01*
X0219465Y0291433D01*
X0219465Y0291433D01*
X0219465Y0283033D01*
X0219056Y0283033D01*
X0218248Y0283161D01*
X0217469Y0283414D01*
X0216740Y0283786D01*
X0216565Y0283913D01*
X0216565Y0283701D01*
X0225788Y0275433D01*
X0238071Y0275433D01*
X0238921Y0276283D01*
X0245010Y0276283D01*
X0249315Y0271978D01*
X0249315Y0266051D01*
X0253333Y0262033D01*
X0255937Y0262033D01*
X0258657Y0260906D01*
X0260739Y0258825D01*
X0260904Y0258426D01*
X0261078Y0258599D01*
X0261740Y0259080D01*
X0262469Y0259452D01*
X0263248Y0259705D01*
X0264056Y0259833D01*
X0264465Y0259833D01*
X0264465Y0251433D01*
X0264465Y0251433D01*
X0264465Y0259833D01*
X0264874Y0259833D01*
X0265683Y0259705D01*
X0266461Y0259452D01*
X0267191Y0259080D01*
X0267853Y0258599D01*
X0268026Y0258426D01*
X0268192Y0258825D01*
X0270273Y0260906D01*
X0272993Y0262033D01*
X0275937Y0262033D01*
X0277192Y0261513D01*
X0278965Y0263287D01*
X0278965Y0264534D01*
X0277910Y0265589D01*
X0276453Y0264133D01*
X0274465Y0264133D01*
X0274465Y0268933D01*
X0269665Y0268933D01*
X0269665Y0266945D01*
X0272477Y0264133D01*
X0274465Y0264133D01*
X0274465Y0268933D01*
X0274465Y0268933D01*
X0269665Y0268933D01*
X0269665Y0270921D01*
X0272477Y0273733D01*
X0274465Y0273733D01*
X0274465Y0268933D01*
X0274465Y0268933D01*
X0274465Y0268933D01*
X0274465Y0273733D01*
X0276453Y0273733D01*
X0277910Y0272277D01*
X0281566Y0275933D01*
X0287365Y0275933D01*
X0291465Y0271833D01*
X0291465Y0266034D01*
X0289365Y0263934D01*
X0289365Y0260099D01*
X0288574Y0258187D01*
X0281865Y0251479D01*
X0281865Y0246761D01*
X0280739Y0244041D01*
X0279330Y0242633D01*
X0300698Y0242633D01*
X0302977Y0241689D01*
X0312221Y0232445D01*
X0313165Y0230166D01*
X0313165Y0220201D01*
X0317242Y0216124D01*
X0316565Y0217759D01*
X0316565Y0218939D01*
X0314615Y0220889D01*
X0314615Y0226978D01*
X0318921Y0231283D01*
X0319265Y0231283D01*
X0319265Y0247968D01*
X0318192Y0249041D01*
X0317065Y0251761D01*
X0317065Y0256196D01*
X0307487Y0265774D01*
X0306665Y0267759D01*
X0306665Y0268839D01*
X0304615Y0270889D01*
X0304615Y0276978D01*
X0308921Y0281283D01*
X0315010Y0281283D01*
X0319315Y0276978D01*
X0319315Y0270889D01*
X0318481Y0270054D01*
X0321939Y0266596D01*
X0322993Y0267033D01*
X0325937Y0267033D01*
X0328657Y0265906D01*
X0330739Y0263825D01*
X0330904Y0263426D01*
X0331078Y0263599D01*
X0331740Y0264080D01*
X0332469Y0264452D01*
X0333248Y0264705D01*
X0334056Y0264833D01*
X0334465Y0264833D01*
X0334465Y0256433D01*
X0334465Y0256433D01*
X0334465Y0248033D01*
X0334056Y0248033D01*
X0333248Y0248161D01*
X0332990Y0248245D01*
X0340302Y0240933D01*
X0361480Y0240933D01*
X0362060Y0241038D01*
X0362544Y0240933D01*
X0363039Y0240933D01*
X0363583Y0240708D01*
X0364159Y0240583D01*
X0364566Y0240301D01*
X0365024Y0240111D01*
X0365441Y0239694D01*
X0379954Y0229633D01*
X0387271Y0229633D01*
X0388921Y0231283D01*
X0395010Y0231283D01*
X0399315Y0226978D01*
X0399315Y0220889D01*
X0398531Y0220104D01*
X0402009Y0216626D01*
X0402993Y0217033D01*
X0405937Y0217033D01*
X0408657Y0215906D01*
X0410739Y0213825D01*
X0410904Y0213426D01*
X0411078Y0213599D01*
X0411740Y0214080D01*
X0412469Y0214452D01*
X0413248Y0214705D01*
X0414056Y0214833D01*
X0414465Y0214833D01*
X0414465Y0206433D01*
X0414465Y0206433D01*
X0414465Y0214833D01*
X0414874Y0214833D01*
X0415683Y0214705D01*
X0416461Y0214452D01*
X0417191Y0214080D01*
X0417853Y0213599D01*
X0418026Y0213426D01*
X0418192Y0213825D01*
X0420273Y0215906D01*
X0422993Y0217033D01*
X0425937Y0217033D01*
X0426767Y0216689D01*
X0429265Y0219187D01*
X0429265Y0219234D01*
X0427910Y0220589D01*
X0426453Y0219133D01*
X0424465Y0219133D01*
X0424465Y0223933D01*
X0419665Y0223933D01*
X0419665Y0221945D01*
X0422477Y0219133D01*
X0424465Y0219133D01*
X0424465Y0223933D01*
X0424465Y0223933D01*
X0419665Y0223933D01*
X0419665Y0225921D01*
X0422477Y0228733D01*
X0424465Y0228733D01*
X0424465Y0223933D01*
X0424465Y0223933D01*
X0424465Y0223933D01*
X0424465Y0228733D01*
X0426453Y0228733D01*
X0427910Y0227277D01*
X0431566Y0230933D01*
X0437365Y0230933D01*
X0441465Y0226833D01*
X0441465Y0221034D01*
X0439665Y0219234D01*
X0439665Y0215999D01*
X0439524Y0215658D01*
X0445141Y0221781D01*
X0445187Y0221892D01*
X0445865Y0222569D01*
X0446512Y0223275D01*
X0446621Y0223326D01*
X0446706Y0223411D01*
X0447591Y0223778D01*
X0448460Y0224182D01*
X0448580Y0224187D01*
X0448691Y0224233D01*
X0449649Y0224233D01*
X0450606Y0224274D01*
X0450719Y0224233D01*
X0454615Y0224233D01*
X0454615Y0226978D01*
X0456290Y0228653D01*
X0456290Y0228682D01*
X0457112Y0230667D01*
X0457766Y0231321D01*
X0455931Y0233155D01*
X0454412Y0234674D01*
X0454412Y0234674D01*
X0454053Y0235033D01*
X0399191Y0235033D01*
X0397206Y0235855D01*
X0395687Y0237374D01*
X0395687Y0237374D01*
X0391131Y0241930D01*
X0389612Y0243449D01*
X0388790Y0245434D01*
X0388790Y0248443D01*
X0388192Y0249041D01*
X0387065Y0251761D01*
X0387065Y0256196D01*
X0381406Y0261855D01*
X0381406Y0261855D01*
X0379887Y0263374D01*
X0379065Y0265359D01*
X0379065Y0268939D01*
X0377115Y0270889D01*
X0377115Y0276978D01*
X0381421Y0281283D01*
X0387510Y0281283D01*
X0391815Y0276978D01*
X0391815Y0270889D01*
X0389865Y0268939D01*
X0389865Y0268670D01*
X0391939Y0266596D01*
X0392993Y0267033D01*
X0395937Y0267033D01*
X0398657Y0265906D01*
X0400739Y0263825D01*
X0400904Y0263426D01*
X0401078Y0263599D01*
X0401740Y0264080D01*
X0402469Y0264452D01*
X0403248Y0264705D01*
X0404056Y0264833D01*
X0404465Y0264833D01*
X0404465Y0256433D01*
X0404465Y0256433D01*
X0404465Y0248033D01*
X0404056Y0248033D01*
X0403248Y0248161D01*
X0402469Y0248414D01*
X0401740Y0248786D01*
X0401078Y0249267D01*
X0400904Y0249440D01*
X0400739Y0249041D01*
X0400016Y0248319D01*
X0402502Y0245833D01*
X0449933Y0245833D01*
X0444636Y0248995D01*
X0444006Y0249255D01*
X0443721Y0249540D01*
X0443376Y0249746D01*
X0442969Y0250293D01*
X0442487Y0250774D01*
X0442333Y0251146D01*
X0442093Y0251470D01*
X0441926Y0252130D01*
X0441665Y0252759D01*
X0441665Y0253162D01*
X0441567Y0253552D01*
X0441665Y0254226D01*
X0441665Y0263839D01*
X0441320Y0264183D01*
X0440181Y0264655D01*
X0438662Y0266174D01*
X0437840Y0268159D01*
X0437840Y0270307D01*
X0438662Y0272292D01*
X0440181Y0273811D01*
X0442166Y0274633D01*
X0442271Y0274633D01*
X0443921Y0276283D01*
X0450010Y0276283D01*
X0454315Y0271978D01*
X0454315Y0265889D01*
X0452465Y0264039D01*
X0452465Y0256899D01*
X0454845Y0255478D01*
X0455273Y0255906D01*
X0457993Y0257033D01*
X0460937Y0257033D01*
X0463657Y0255906D01*
X0465739Y0253825D01*
X0465904Y0253426D01*
X0466078Y0253599D01*
X0466740Y0254080D01*
X0467469Y0254452D01*
X0468248Y0254705D01*
X0469056Y0254833D01*
X0469465Y0254833D01*
X0469465Y0246433D01*
X0469465Y0246433D01*
X0469465Y0254833D01*
X0469874Y0254833D01*
X0470683Y0254705D01*
X0471461Y0254452D01*
X0472191Y0254080D01*
X0472853Y0253599D01*
X0473026Y0253426D01*
X0473192Y0253825D01*
X0474265Y0254898D01*
X0474265Y0254967D01*
X0474594Y0255762D01*
X0474870Y0256577D01*
X0474988Y0256713D01*
X0475057Y0256879D01*
X0475665Y0257487D01*
X0476232Y0258135D01*
X0476393Y0258214D01*
X0476520Y0258341D01*
X0477315Y0258671D01*
X0484165Y0262061D01*
X0484165Y0264334D01*
X0482910Y0265589D01*
X0481453Y0264133D01*
X0479465Y0264133D01*
X0479465Y0268933D01*
X0474665Y0268933D01*
X0474665Y0266945D01*
X0477477Y0264133D01*
X0479465Y0264133D01*
X0479465Y0268933D01*
X0479465Y0268933D01*
X0474665Y0268933D01*
X0474665Y0270921D01*
X0477477Y0273733D01*
X0479465Y0273733D01*
X0479465Y0268933D01*
X0479465Y0268933D01*
X0479465Y0268933D01*
X0479465Y0273733D01*
X0481453Y0273733D01*
X0482910Y0272277D01*
X0486566Y0275933D01*
X0490092Y0275933D01*
X0500904Y0285201D01*
X0500932Y0285229D01*
X0502395Y0286691D01*
X0504306Y0287483D01*
X0527836Y0287483D01*
X0536765Y0296412D01*
X0536765Y0299379D01*
X0536411Y0299025D01*
X0534836Y0297450D01*
X0532925Y0296658D01*
X0508844Y0296658D01*
X0506374Y0294188D01*
X0506374Y0294188D01*
X0504911Y0292725D01*
X0503000Y0291933D01*
X0465457Y0291933D01*
X0467243Y0290147D01*
X0467243Y0283869D01*
X0462804Y0279430D01*
X0456526Y0279430D01*
X0454132Y0281824D01*
X0371016Y0282067D01*
X0368654Y0279705D01*
X0362376Y0279705D01*
X0357937Y0284144D01*
X0357937Y0290422D01*
X0362376Y0294861D01*
X0368654Y0294861D01*
X0371048Y0292467D01*
X0454164Y0292224D01*
X0456526Y0294586D01*
X0456658Y0294586D01*
X0444640Y0306604D01*
X0444984Y0305929D01*
X0445237Y0305151D01*
X0445365Y0304342D01*
X0445365Y0303933D01*
X0436965Y0303933D01*
X0428565Y0303933D01*
X0428565Y0303524D01*
X0428693Y0302715D01*
X0428946Y0301937D01*
X0429318Y0301208D01*
X0429799Y0300545D01*
X0430378Y0299967D01*
X0431040Y0299486D01*
X0431769Y0299114D01*
X0432548Y0298861D01*
X0433356Y0298733D01*
X0436965Y0298733D01*
X0436965Y0303933D01*
X0436965Y0303933D01*
X0428565Y0303933D01*
X0428565Y0304342D01*
X0428693Y0305151D01*
X0428946Y0305929D01*
X0429318Y0306658D01*
X0429799Y0307321D01*
X0429973Y0307494D01*
X0429573Y0307660D01*
X0427492Y0309741D01*
X0426365Y0312461D01*
X0426365Y0315405D01*
X0427492Y0318125D01*
X0428300Y0318933D01*
X0421058Y0318933D01*
X0420874Y0318488D02*
X0421665Y0320399D01*
X0421665Y0332162D01*
X0426968Y0326860D01*
X0426365Y0325405D01*
X0426365Y0322461D01*
X0427492Y0319741D01*
X0428300Y0318933D01*
X0427965Y0318598D02*
X0427965Y0319268D01*
X0426365Y0322933D02*
X0421665Y0322933D01*
X0421665Y0326933D02*
X0426894Y0326933D01*
X0423965Y0329862D02*
X0423965Y0292312D01*
X0419965Y0292324D02*
X0419965Y0317579D01*
X0419411Y0317025D02*
X0420874Y0318488D01*
X0419411Y0317025D02*
X0417565Y0315179D01*
X0417565Y0312461D01*
X0416439Y0309741D01*
X0414357Y0307660D01*
X0413958Y0307494D01*
X0414132Y0307321D01*
X0414613Y0306658D01*
X0414984Y0305929D01*
X0415237Y0305151D01*
X0415365Y0304342D01*
X0415365Y0303933D01*
X0406965Y0303933D01*
X0398565Y0303933D01*
X0398565Y0303524D01*
X0398693Y0302715D01*
X0398946Y0301937D01*
X0399318Y0301208D01*
X0399799Y0300545D01*
X0400378Y0299967D01*
X0401040Y0299486D01*
X0401769Y0299114D01*
X0402548Y0298861D01*
X0403356Y0298733D01*
X0406965Y0298733D01*
X0406965Y0303933D01*
X0406965Y0303933D01*
X0398565Y0303933D01*
X0398565Y0304342D01*
X0398693Y0305151D01*
X0398946Y0305929D01*
X0399318Y0306658D01*
X0399799Y0307321D01*
X0399973Y0307494D01*
X0399573Y0307660D01*
X0397492Y0309741D01*
X0396365Y0312461D01*
X0396365Y0315405D01*
X0397492Y0318125D01*
X0398300Y0318933D01*
X0394982Y0318933D01*
X0394665Y0318616D02*
X0396993Y0320944D01*
X0397492Y0319741D01*
X0398300Y0318933D01*
X0395965Y0319916D02*
X0395965Y0292394D01*
X0391965Y0292406D02*
X0391965Y0312698D01*
X0392186Y0312882D02*
X0392411Y0312975D01*
X0392975Y0313539D01*
X0393589Y0314050D01*
X0393702Y0314266D01*
X0393874Y0314438D01*
X0394179Y0315175D01*
X0394550Y0315882D01*
X0394572Y0316124D01*
X0394665Y0316349D01*
X0394665Y0317147D01*
X0394737Y0317942D01*
X0394665Y0318174D01*
X0394665Y0318616D01*
X0394079Y0314933D02*
X0396365Y0314933D01*
X0396998Y0310933D02*
X0389848Y0310933D01*
X0388925Y0310164D02*
X0392186Y0312882D01*
X0388925Y0310164D02*
X0388361Y0309600D01*
X0388136Y0309507D01*
X0387950Y0309351D01*
X0387187Y0309114D01*
X0386450Y0308808D01*
X0386207Y0308808D01*
X0385975Y0308736D01*
X0385179Y0308808D01*
X0383480Y0308808D01*
X0381657Y0306985D01*
X0381258Y0306819D01*
X0381432Y0306646D01*
X0381913Y0305983D01*
X0382284Y0305254D01*
X0382537Y0304476D01*
X0382665Y0303667D01*
X0382665Y0303258D01*
X0374265Y0303258D01*
X0365865Y0303258D01*
X0365865Y0302849D01*
X0365993Y0302040D01*
X0366246Y0301262D01*
X0366618Y0300533D01*
X0367099Y0299870D01*
X0367678Y0299292D01*
X0368340Y0298811D01*
X0369069Y0298439D01*
X0369848Y0298186D01*
X0370656Y0298058D01*
X0374265Y0298058D01*
X0374265Y0303258D01*
X0374265Y0303258D01*
X0365865Y0303258D01*
X0365865Y0303667D01*
X0365993Y0304476D01*
X0366246Y0305254D01*
X0366618Y0305983D01*
X0367099Y0306646D01*
X0367273Y0306819D01*
X0366873Y0306985D01*
X0365841Y0308017D01*
X0363579Y0305755D01*
X0357301Y0305755D01*
X0354923Y0308133D01*
X0352830Y0308133D01*
X0351757Y0307060D01*
X0351358Y0306894D01*
X0351532Y0306721D01*
X0352013Y0306058D01*
X0352384Y0305329D01*
X0352637Y0304551D01*
X0352765Y0303742D01*
X0352765Y0303333D01*
X0344365Y0303333D01*
X0335965Y0303333D01*
X0335965Y0303333D01*
X0335965Y0302924D01*
X0335965Y0277216D01*
X0337115Y0276066D02*
X0334098Y0279083D01*
X0331965Y0279083D01*
X0329832Y0279083D01*
X0326815Y0276066D01*
X0326815Y0273933D01*
X0326815Y0271800D01*
X0329832Y0268783D01*
X0331965Y0268783D01*
X0331965Y0273933D01*
X0326815Y0273933D01*
X0331965Y0273933D01*
X0331965Y0273933D01*
X0331965Y0273933D01*
X0331965Y0264195D01*
X0334465Y0264833D02*
X0334465Y0256433D01*
X0334465Y0256433D01*
X0334465Y0248033D01*
X0334874Y0248033D01*
X0335683Y0248161D01*
X0336461Y0248414D01*
X0337191Y0248786D01*
X0337853Y0249267D01*
X0338026Y0249440D01*
X0338192Y0249041D01*
X0340273Y0246960D01*
X0342993Y0245833D01*
X0345937Y0245833D01*
X0348657Y0246960D01*
X0350739Y0249041D01*
X0351865Y0251761D01*
X0351865Y0257179D01*
X0358774Y0264088D01*
X0359565Y0265999D01*
X0359565Y0269134D01*
X0361465Y0271034D01*
X0361465Y0276833D01*
X0357365Y0280933D01*
X0351566Y0280933D01*
X0347910Y0277277D01*
X0346453Y0278733D01*
X0344465Y0278733D01*
X0342477Y0278733D01*
X0339665Y0275921D01*
X0339665Y0273933D01*
X0339665Y0271945D01*
X0342477Y0269133D01*
X0344465Y0269133D01*
X0344465Y0273933D01*
X0339665Y0273933D01*
X0344465Y0273933D01*
X0344465Y0273933D01*
X0344465Y0273933D01*
X0344465Y0278733D01*
X0344465Y0273933D01*
X0344465Y0273933D01*
X0344465Y0269133D01*
X0346453Y0269133D01*
X0347910Y0270589D01*
X0349165Y0269334D01*
X0349165Y0269187D01*
X0346697Y0266718D01*
X0345937Y0267033D01*
X0342993Y0267033D01*
X0340273Y0265906D01*
X0338192Y0263825D01*
X0338026Y0263426D01*
X0337853Y0263599D01*
X0337191Y0264080D01*
X0336461Y0264452D01*
X0335683Y0264705D01*
X0334874Y0264833D01*
X0334465Y0264833D01*
X0335965Y0264613D02*
X0335965Y0270650D01*
X0336248Y0270933D02*
X0340677Y0270933D01*
X0339965Y0271645D02*
X0339965Y0265598D01*
X0342752Y0266933D02*
X0326179Y0266933D01*
X0327965Y0266193D02*
X0327965Y0270650D01*
X0327682Y0270933D02*
X0319315Y0270933D01*
X0319965Y0268570D02*
X0319965Y0298733D01*
X0319940Y0298733D02*
X0323549Y0298733D01*
X0324358Y0298861D01*
X0325136Y0299114D01*
X0325866Y0299486D01*
X0326528Y0299967D01*
X0327107Y0300545D01*
X0327588Y0301208D01*
X0327959Y0301937D01*
X0328212Y0302715D01*
X0328340Y0303524D01*
X0328340Y0303933D01*
X0319940Y0303933D01*
X0311540Y0303933D01*
X0311540Y0303524D01*
X0311668Y0302715D01*
X0311921Y0301937D01*
X0312293Y0301208D01*
X0312774Y0300545D01*
X0313353Y0299967D01*
X0314015Y0299486D01*
X0314744Y0299114D01*
X0315523Y0298861D01*
X0316331Y0298733D01*
X0319940Y0298733D01*
X0319940Y0303933D01*
X0319940Y0303933D01*
X0311540Y0303933D01*
X0311540Y0304342D01*
X0311668Y0305151D01*
X0311921Y0305929D01*
X0312293Y0306658D01*
X0312774Y0307321D01*
X0312948Y0307494D01*
X0312548Y0307660D01*
X0311685Y0308524D01*
X0310965Y0307804D01*
X0310965Y0296774D01*
X0310174Y0294863D01*
X0308711Y0293400D01*
X0306011Y0290700D01*
X0304100Y0289908D01*
X0298694Y0289908D01*
X0298043Y0289257D01*
X0298043Y0285894D01*
X0293604Y0281455D01*
X0287326Y0281455D01*
X0282887Y0285894D01*
X0282887Y0292172D01*
X0287326Y0296611D01*
X0290689Y0296611D01*
X0292132Y0298054D01*
X0292811Y0298733D01*
X0291965Y0298733D01*
X0291965Y0303933D01*
X0283565Y0303933D01*
X0283565Y0303524D01*
X0283693Y0302715D01*
X0283946Y0301937D01*
X0284318Y0301208D01*
X0284799Y0300545D01*
X0285378Y0299967D01*
X0286040Y0299486D01*
X0286769Y0299114D01*
X0287548Y0298861D01*
X0288356Y0298733D01*
X0291965Y0298733D01*
X0291965Y0303933D01*
X0291965Y0303933D01*
X0283565Y0303933D01*
X0283565Y0304342D01*
X0283693Y0305151D01*
X0283946Y0305929D01*
X0284318Y0306658D01*
X0284799Y0307321D01*
X0284973Y0307494D01*
X0284573Y0307660D01*
X0282492Y0309741D01*
X0281365Y0312461D01*
X0281365Y0315405D01*
X0282492Y0318125D01*
X0283300Y0318933D01*
X0270630Y0318933D01*
X0271439Y0319741D02*
X0272565Y0322461D01*
X0272565Y0325405D01*
X0271439Y0328125D01*
X0270980Y0328583D01*
X0282950Y0328583D01*
X0282492Y0328125D01*
X0281365Y0325405D01*
X0281365Y0322461D01*
X0282492Y0319741D01*
X0283300Y0318933D01*
X0281365Y0314933D02*
X0270272Y0314933D01*
X0270237Y0315151D02*
X0269984Y0315929D01*
X0269613Y0316658D01*
X0269132Y0317321D01*
X0268958Y0317494D01*
X0269357Y0317660D01*
X0271439Y0319741D01*
X0271965Y0321013D02*
X0271965Y0273221D01*
X0269677Y0270933D02*
X0267115Y0270933D01*
X0267115Y0271066D02*
X0264098Y0274083D01*
X0261965Y0274083D01*
X0259832Y0274083D01*
X0256815Y0271066D01*
X0256815Y0268933D01*
X0256815Y0266800D01*
X0259832Y0263783D01*
X0261965Y0263783D01*
X0261965Y0268933D01*
X0256815Y0268933D01*
X0261965Y0268933D01*
X0261965Y0268933D01*
X0261965Y0268933D01*
X0261965Y0274083D01*
X0261965Y0268933D01*
X0261965Y0268933D01*
X0261965Y0263783D01*
X0264098Y0263783D01*
X0267115Y0266800D01*
X0267115Y0268933D01*
X0261965Y0268933D01*
X0261965Y0268933D01*
X0267115Y0268933D01*
X0267115Y0271066D01*
X0263965Y0268933D02*
X0263965Y0268933D01*
X0261965Y0266933D02*
X0261965Y0266933D01*
X0259965Y0268933D02*
X0259965Y0268933D01*
X0261965Y0270933D02*
X0261965Y0270933D01*
X0259965Y0274083D02*
X0259965Y0308733D01*
X0258356Y0308733D02*
X0261965Y0308733D01*
X0261965Y0313933D01*
X0253565Y0313933D01*
X0253565Y0313524D01*
X0253693Y0312715D01*
X0253946Y0311937D01*
X0254318Y0311208D01*
X0254799Y0310545D01*
X0255378Y0309967D01*
X0256040Y0309486D01*
X0256769Y0309114D01*
X0257548Y0308861D01*
X0258356Y0308733D01*
X0255965Y0309540D02*
X0255965Y0262021D01*
X0252433Y0262933D02*
X0278611Y0262933D01*
X0275965Y0262021D02*
X0275965Y0264133D01*
X0274465Y0266933D02*
X0274465Y0266933D01*
X0271965Y0268933D02*
X0271965Y0268933D01*
X0269677Y0266933D02*
X0267115Y0266933D01*
X0263965Y0263783D02*
X0263965Y0259819D01*
X0264465Y0258933D02*
X0264465Y0258933D01*
X0261537Y0258933D02*
X0260630Y0258933D01*
X0259965Y0259598D02*
X0259965Y0263783D01*
X0256815Y0266933D02*
X0249315Y0266933D01*
X0249315Y0270933D02*
X0256815Y0270933D01*
X0263965Y0274083D02*
X0263965Y0308733D01*
X0265574Y0308733D02*
X0266383Y0308861D01*
X0267161Y0309114D01*
X0267891Y0309486D01*
X0268553Y0309967D01*
X0269132Y0310545D01*
X0269613Y0311208D01*
X0269984Y0311937D01*
X0270237Y0312715D01*
X0270365Y0313524D01*
X0270365Y0313933D01*
X0261965Y0313933D01*
X0261965Y0313933D01*
X0253565Y0313933D01*
X0253565Y0314342D01*
X0253693Y0315151D01*
X0253946Y0315929D01*
X0254318Y0316658D01*
X0254799Y0317321D01*
X0254973Y0317494D01*
X0254573Y0317660D01*
X0252492Y0319741D01*
X0251365Y0322461D01*
X0251365Y0325279D01*
X0247489Y0329155D01*
X0244126Y0329155D01*
X0239687Y0333594D01*
X0239687Y0336354D01*
X0239613Y0336208D01*
X0239132Y0335545D01*
X0238553Y0334967D01*
X0237891Y0334486D01*
X0237161Y0334114D01*
X0236383Y0333861D01*
X0235574Y0333733D01*
X0231965Y0333733D01*
X0231965Y0338933D01*
X0223565Y0338933D01*
X0223565Y0338524D01*
X0223693Y0337715D01*
X0223946Y0336937D01*
X0224318Y0336208D01*
X0224799Y0335545D01*
X0225378Y0334967D01*
X0226040Y0334486D01*
X0226769Y0334114D01*
X0227548Y0333861D01*
X0228356Y0333733D01*
X0231965Y0333733D01*
X0231965Y0338933D01*
X0231965Y0338933D01*
X0189465Y0338933D01*
X0189465Y0334933D02*
X0225424Y0334933D01*
X0223965Y0336900D02*
X0223965Y0299598D01*
X0223300Y0298933D02*
X0222394Y0298933D01*
X0222191Y0299080D02*
X0221461Y0299452D01*
X0220683Y0299705D01*
X0219874Y0299833D01*
X0219465Y0299833D01*
X0219465Y0291433D01*
X0219465Y0291433D01*
X0219465Y0283033D01*
X0219874Y0283033D01*
X0220683Y0283161D01*
X0221461Y0283414D01*
X0222191Y0283786D01*
X0222853Y0284267D01*
X0223026Y0284440D01*
X0223192Y0284041D01*
X0225273Y0281960D01*
X0227993Y0280833D01*
X0230937Y0280833D01*
X0233657Y0281960D01*
X0235739Y0284041D01*
X0236865Y0286761D01*
X0236865Y0291079D01*
X0243574Y0297788D01*
X0244365Y0299699D01*
X0244365Y0303934D01*
X0246465Y0306034D01*
X0246465Y0311833D01*
X0242365Y0315933D01*
X0236566Y0315933D01*
X0232910Y0312277D01*
X0231453Y0313733D01*
X0229465Y0313733D01*
X0227477Y0313733D01*
X0224665Y0310921D01*
X0224665Y0308933D01*
X0224665Y0306945D01*
X0227477Y0304133D01*
X0229465Y0304133D01*
X0229465Y0308933D01*
X0224665Y0308933D01*
X0229465Y0308933D01*
X0229465Y0308933D01*
X0229465Y0308933D01*
X0229465Y0313733D01*
X0229465Y0308933D01*
X0229465Y0308933D01*
X0229465Y0304133D01*
X0231453Y0304133D01*
X0232910Y0305589D01*
X0233965Y0304534D01*
X0233965Y0302887D01*
X0232475Y0301396D01*
X0230937Y0302033D01*
X0227993Y0302033D01*
X0225273Y0300906D01*
X0223192Y0298825D01*
X0223026Y0298426D01*
X0222853Y0298599D01*
X0222191Y0299080D01*
X0219965Y0299819D02*
X0219965Y0304650D01*
X0219098Y0303783D02*
X0222115Y0306800D01*
X0222115Y0308933D01*
X0216965Y0308933D01*
X0211815Y0308933D01*
X0211815Y0306800D01*
X0214832Y0303783D01*
X0216965Y0303783D01*
X0216965Y0308933D01*
X0216965Y0308933D01*
X0211815Y0308933D01*
X0211815Y0311066D01*
X0214832Y0314083D01*
X0216965Y0314083D01*
X0216965Y0308933D01*
X0216965Y0308933D01*
X0216965Y0308933D01*
X0216965Y0303783D01*
X0219098Y0303783D01*
X0215965Y0303783D02*
X0215965Y0298487D01*
X0215630Y0298933D02*
X0216537Y0298933D01*
X0219465Y0298933D02*
X0219465Y0298933D01*
X0219465Y0294933D02*
X0219465Y0294933D01*
X0219465Y0290933D02*
X0219465Y0290933D01*
X0219465Y0286933D02*
X0219465Y0286933D01*
X0219965Y0283047D02*
X0219965Y0280653D01*
X0221884Y0278933D02*
X0306571Y0278933D01*
X0307965Y0280328D02*
X0307965Y0292654D01*
X0306244Y0290933D02*
X0358448Y0290933D01*
X0359965Y0292450D02*
X0359965Y0305755D01*
X0356123Y0306933D02*
X0351451Y0306933D01*
X0351965Y0307268D02*
X0351965Y0306124D01*
X0351965Y0303333D02*
X0351965Y0303333D01*
X0352765Y0303333D02*
X0344365Y0303333D01*
X0344365Y0303333D01*
X0335965Y0303333D01*
X0335965Y0303742D01*
X0335965Y0308068D01*
X0336973Y0307060D02*
X0337373Y0306894D01*
X0337199Y0306721D01*
X0336718Y0306058D01*
X0336346Y0305329D01*
X0336093Y0304551D01*
X0335965Y0303742D01*
X0335965Y0302933D02*
X0328247Y0302933D01*
X0328340Y0303933D02*
X0328340Y0304342D01*
X0328212Y0305151D01*
X0327959Y0305929D01*
X0327588Y0306658D01*
X0327107Y0307321D01*
X0326933Y0307494D01*
X0327332Y0307660D01*
X0329414Y0309741D01*
X0330540Y0312461D01*
X0330540Y0315405D01*
X0329414Y0318125D01*
X0328605Y0318933D01*
X0335100Y0318933D01*
X0334892Y0319141D02*
X0335700Y0318333D01*
X0334892Y0317525D01*
X0333765Y0314805D01*
X0333765Y0311861D01*
X0334892Y0309141D01*
X0336973Y0307060D01*
X0337279Y0306933D02*
X0327388Y0306933D01*
X0327965Y0305911D02*
X0327965Y0308293D01*
X0329907Y0310933D02*
X0334150Y0310933D01*
X0333818Y0314933D02*
X0330540Y0314933D01*
X0328605Y0318933D02*
X0329414Y0319741D01*
X0330540Y0322461D01*
X0330540Y0325340D01*
X0330675Y0325436D01*
X0330902Y0325798D01*
X0331204Y0326101D01*
X0331425Y0326633D01*
X0331731Y0327122D01*
X0331802Y0327544D01*
X0331965Y0327938D01*
X0331965Y0328515D01*
X0332061Y0329084D01*
X0331965Y0329500D01*
X0331965Y0337938D01*
X0332015Y0337818D01*
X0332021Y0337689D01*
X0332394Y0336904D01*
X0332726Y0336101D01*
X0332818Y0336009D01*
X0336215Y0328848D01*
X0334892Y0327525D01*
X0333765Y0324805D01*
X0333765Y0321861D01*
X0334892Y0319141D01*
X0333765Y0322933D02*
X0330540Y0322933D01*
X0331612Y0326933D02*
X0334647Y0326933D01*
X0335965Y0328598D02*
X0335965Y0329375D01*
X0335226Y0330933D02*
X0331965Y0330933D01*
X0331965Y0329500D02*
X0331965Y0338808D01*
X0331965Y0338807D01*
X0331965Y0337938D01*
X0331965Y0334933D02*
X0333329Y0334933D01*
X0331965Y0328515D02*
X0331965Y0273933D01*
X0331965Y0279083D01*
X0331965Y0273933D01*
X0331965Y0273933D01*
X0331965Y0268783D01*
X0334098Y0268783D01*
X0337115Y0271800D01*
X0337115Y0273933D01*
X0331965Y0273933D01*
X0331965Y0273933D01*
X0337115Y0273933D01*
X0337115Y0276066D01*
X0337115Y0274933D02*
X0339665Y0274933D01*
X0339965Y0273933D02*
X0339965Y0273933D01*
X0339965Y0276221D02*
X0339965Y0298258D01*
X0339948Y0298261D02*
X0340756Y0298133D01*
X0344365Y0298133D01*
X0344365Y0303333D01*
X0344365Y0303333D01*
X0344365Y0298133D01*
X0347974Y0298133D01*
X0348783Y0298261D01*
X0349561Y0298514D01*
X0350291Y0298886D01*
X0350953Y0299367D01*
X0351532Y0299945D01*
X0352013Y0300608D01*
X0352384Y0301337D01*
X0352637Y0302115D01*
X0352765Y0302924D01*
X0352765Y0303333D01*
X0352765Y0302933D02*
X0365865Y0302933D01*
X0367965Y0303258D02*
X0367965Y0303258D01*
X0366998Y0306933D02*
X0364757Y0306933D01*
X0363965Y0306141D02*
X0363965Y0294861D01*
X0367965Y0294861D02*
X0367965Y0299083D01*
X0368171Y0298933D02*
X0350356Y0298933D01*
X0351965Y0300542D02*
X0351965Y0280933D01*
X0349566Y0278933D02*
X0334248Y0278933D01*
X0331965Y0278933D02*
X0331965Y0278933D01*
X0329682Y0278933D02*
X0317360Y0278933D01*
X0315965Y0280328D02*
X0315965Y0298791D01*
X0315301Y0298933D02*
X0310965Y0298933D01*
X0311965Y0301851D02*
X0311965Y0281283D01*
X0304615Y0274933D02*
X0288365Y0274933D01*
X0287965Y0275333D02*
X0287965Y0281455D01*
X0285848Y0282933D02*
X0234630Y0282933D01*
X0235965Y0284588D02*
X0235965Y0275433D01*
X0231965Y0275433D02*
X0231965Y0281259D01*
X0227965Y0280845D02*
X0227965Y0275433D01*
X0223965Y0277067D02*
X0223965Y0283268D01*
X0224300Y0282933D02*
X0217422Y0282933D01*
X0229465Y0291433D02*
X0230165Y0291733D01*
X0239165Y0300733D01*
X0239165Y0308833D01*
X0239465Y0308933D01*
X0239965Y0315933D02*
X0239965Y0333316D01*
X0239687Y0334933D02*
X0238506Y0334933D01*
X0235965Y0333795D02*
X0235965Y0315333D01*
X0235566Y0314933D02*
X0201360Y0314933D01*
X0199965Y0316283D02*
X0199965Y0344657D01*
X0199320Y0344925D02*
X0201231Y0344133D01*
X0223100Y0344133D01*
X0224573Y0342660D01*
X0224973Y0342494D01*
X0224799Y0342321D01*
X0224318Y0341658D01*
X0223946Y0340929D01*
X0223693Y0340151D01*
X0223565Y0339342D01*
X0223565Y0338933D01*
X0231965Y0338933D01*
X0231965Y0338933D01*
X0231965Y0313221D01*
X0229465Y0310933D02*
X0229465Y0310933D01*
X0227965Y0308933D02*
X0227965Y0308933D01*
X0229465Y0306933D02*
X0229465Y0306933D01*
X0227965Y0304133D02*
X0227965Y0302021D01*
X0231965Y0301607D02*
X0231965Y0304645D01*
X0233965Y0302933D02*
X0207033Y0302933D01*
X0207965Y0302021D02*
X0207965Y0344133D01*
X0203965Y0344133D02*
X0203965Y0312328D01*
X0204315Y0310933D02*
X0211815Y0310933D01*
X0211965Y0311216D02*
X0211965Y0344133D01*
X0215965Y0344133D02*
X0215965Y0314083D01*
X0216965Y0314083D02*
X0219098Y0314083D01*
X0222115Y0311066D01*
X0222115Y0308933D01*
X0216965Y0308933D01*
X0216965Y0314083D01*
X0219965Y0313216D02*
X0219965Y0344133D01*
X0223965Y0343268D02*
X0223965Y0340967D01*
X0224300Y0342933D02*
X0189465Y0342933D01*
X0189465Y0346933D02*
X0197311Y0346933D01*
X0195965Y0348279D02*
X0195965Y0316283D01*
X0192571Y0314933D02*
X0189465Y0314933D01*
X0191965Y0314328D02*
X0191965Y0352338D01*
X0192007Y0352237D02*
X0193470Y0350775D01*
X0199320Y0344925D01*
X0202265Y0349333D02*
X0196415Y0355183D01*
X0196415Y0388933D01*
X0201815Y0394333D01*
X0201815Y0413233D01*
X0210365Y0421783D01*
X0210365Y0424033D01*
X0202787Y0422933D02*
X0185835Y0422933D01*
X0186461Y0421849D02*
X0185130Y0424154D01*
X0183249Y0426035D01*
X0180945Y0427366D01*
X0178374Y0428054D01*
X0175714Y0428054D01*
X0173143Y0427366D01*
X0170839Y0426035D01*
X0168958Y0424154D01*
X0167627Y0421849D01*
X0166938Y0419279D01*
X0166938Y0416618D01*
X0167627Y0414048D01*
X0168958Y0411744D01*
X0170839Y0409862D01*
X0173143Y0408532D01*
X0175714Y0407843D01*
X0178374Y0407843D01*
X0180945Y0408532D01*
X0183249Y0409862D01*
X0185130Y0411744D01*
X0186461Y0414048D01*
X0187149Y0416618D01*
X0187149Y0419279D01*
X0186461Y0421849D01*
X0187149Y0418933D02*
X0200161Y0418933D01*
X0199965Y0418737D02*
X0199965Y0431033D01*
X0195965Y0431033D02*
X0195965Y0395837D01*
X0196615Y0396487D02*
X0192007Y0391879D01*
X0191215Y0389967D01*
X0191215Y0354149D01*
X0192007Y0352237D01*
X0193311Y0350933D02*
X0189049Y0350933D01*
X0188704Y0351765D02*
X0187297Y0353172D01*
X0185460Y0353933D01*
X0136165Y0353933D01*
X0136165Y0454105D01*
X0136766Y0452653D01*
X0138946Y0450473D01*
X0141795Y0449293D01*
X0151978Y0449293D01*
X0154826Y0450473D01*
X0155586Y0451233D01*
X0177170Y0451233D01*
X0180325Y0447041D01*
X0178940Y0448426D01*
X0176037Y0449628D01*
X0172894Y0449628D01*
X0169990Y0448426D01*
X0167768Y0446203D01*
X0166565Y0443300D01*
X0166565Y0440687D01*
X0165589Y0439711D01*
X0162226Y0439711D01*
X0157787Y0435272D01*
X0157787Y0428994D01*
X0162226Y0424555D01*
X0168504Y0424555D01*
X0172943Y0428994D01*
X0172943Y0432357D01*
X0174414Y0433828D01*
X0176037Y0433828D01*
X0178940Y0435031D01*
X0181162Y0437253D01*
X0182365Y0440157D01*
X0182365Y0443300D01*
X0181416Y0445590D01*
X0190413Y0433634D01*
X0190557Y0433287D01*
X0191030Y0432814D01*
X0191432Y0432280D01*
X0191755Y0432090D01*
X0192020Y0431825D01*
X0192638Y0431569D01*
X0193214Y0431229D01*
X0193585Y0431176D01*
X0193931Y0431033D01*
X0194600Y0431033D01*
X0195262Y0430940D01*
X0195625Y0431033D01*
X0206648Y0431033D01*
X0202787Y0427172D01*
X0202787Y0421559D01*
X0197407Y0416179D01*
X0196615Y0414267D01*
X0196615Y0396487D01*
X0195061Y0394933D02*
X0136165Y0394933D01*
X0136165Y0390933D02*
X0191615Y0390933D01*
X0191965Y0391778D02*
X0191965Y0431879D01*
X0189436Y0434933D02*
X0178704Y0434933D01*
X0179965Y0436056D02*
X0179965Y0427628D01*
X0181694Y0426933D02*
X0202787Y0426933D01*
X0203965Y0428350D02*
X0203965Y0431033D01*
X0206548Y0430933D02*
X0172943Y0430933D01*
X0171965Y0428016D02*
X0171965Y0426685D01*
X0172394Y0426933D02*
X0170882Y0426933D01*
X0167965Y0424555D02*
X0167965Y0422435D01*
X0168253Y0422933D02*
X0136165Y0422933D01*
X0136165Y0418933D02*
X0166938Y0418933D01*
X0167390Y0414933D02*
X0136165Y0414933D01*
X0136165Y0410933D02*
X0169768Y0410933D01*
X0171965Y0409212D02*
X0171965Y0353933D01*
X0167965Y0353933D02*
X0167965Y0413463D01*
X0175965Y0407843D02*
X0175965Y0353933D01*
X0179965Y0353933D02*
X0179965Y0408270D01*
X0183965Y0410579D02*
X0183965Y0353933D01*
X0187965Y0352504D02*
X0187965Y0436887D01*
X0186426Y0438933D02*
X0181858Y0438933D01*
X0183965Y0442203D02*
X0183965Y0425319D01*
X0175965Y0428054D02*
X0175965Y0433828D01*
X0174465Y0441233D02*
X0174465Y0441728D01*
X0174465Y0441233D02*
X0165365Y0432133D01*
X0159965Y0426816D02*
X0159965Y0353933D01*
X0155965Y0353933D02*
X0155965Y0451233D01*
X0155286Y0450933D02*
X0177396Y0450933D01*
X0175965Y0451233D02*
X0175965Y0449628D01*
X0171965Y0449244D02*
X0171965Y0451233D01*
X0167965Y0451233D02*
X0167965Y0446401D01*
X0168498Y0446933D02*
X0136165Y0446933D01*
X0136165Y0442933D02*
X0166565Y0442933D01*
X0163965Y0439711D02*
X0163965Y0451233D01*
X0159965Y0451233D02*
X0159965Y0437450D01*
X0161448Y0438933D02*
X0136165Y0438933D01*
X0136165Y0434933D02*
X0157787Y0434933D01*
X0157787Y0430933D02*
X0136165Y0430933D01*
X0136165Y0426933D02*
X0159848Y0426933D01*
X0163965Y0424555D02*
X0163965Y0353933D01*
X0151965Y0353933D02*
X0151965Y0449293D01*
X0147965Y0449293D02*
X0147965Y0353933D01*
X0143965Y0353933D02*
X0143965Y0449293D01*
X0139965Y0450051D02*
X0139965Y0353933D01*
X0136165Y0354933D02*
X0191215Y0354933D01*
X0191215Y0358933D02*
X0136165Y0358933D01*
X0136165Y0362933D02*
X0191215Y0362933D01*
X0191215Y0366933D02*
X0136165Y0366933D01*
X0136165Y0370933D02*
X0191215Y0370933D01*
X0191215Y0374933D02*
X0136165Y0374933D01*
X0136165Y0378933D02*
X0191215Y0378933D01*
X0191215Y0382933D02*
X0136165Y0382933D01*
X0136165Y0386933D02*
X0191215Y0386933D01*
X0196615Y0398933D02*
X0136165Y0398933D01*
X0136165Y0402933D02*
X0196615Y0402933D01*
X0196615Y0406933D02*
X0136165Y0406933D01*
X0184320Y0410933D02*
X0196615Y0410933D01*
X0196891Y0414933D02*
X0186698Y0414933D01*
X0194965Y0436233D02*
X0213065Y0436233D01*
X0217253Y0432046D01*
X0217253Y0397571D01*
X0221840Y0392983D01*
X0234440Y0392983D01*
X0237715Y0403908D02*
X0223665Y0403908D01*
X0237715Y0403908D02*
X0244340Y0410533D01*
X0244340Y0428808D01*
X0244465Y0428933D01*
X0258215Y0428933D02*
X0258215Y0409358D01*
X0263665Y0403908D01*
X0260765Y0406033D01*
X0234665Y0379933D01*
X0234665Y0373633D01*
X0242765Y0365533D01*
X0247265Y0365533D01*
X0231965Y0349333D02*
X0231965Y0348933D01*
X0231965Y0349333D02*
X0202265Y0349333D01*
X0189465Y0349928D02*
X0188704Y0351765D01*
X0189465Y0349928D02*
X0189465Y0302938D01*
X0188704Y0301101D01*
X0187297Y0299694D01*
X0185460Y0298933D01*
X0193497Y0298933D01*
X0191965Y0301234D02*
X0191965Y0123133D01*
X0187965Y0123133D02*
X0187965Y0300362D01*
X0185460Y0298933D02*
X0152155Y0298933D01*
X0154007Y0297081D01*
X0155186Y0294233D01*
X0155186Y0291150D01*
X0154007Y0288301D01*
X0151826Y0286121D01*
X0148978Y0284941D01*
X0138795Y0284941D01*
X0136165Y0286031D01*
X0136165Y0279667D01*
X0138795Y0280756D01*
X0148978Y0280756D01*
X0151826Y0279576D01*
X0154007Y0277396D01*
X0155186Y0274548D01*
X0155186Y0271465D01*
X0154007Y0268616D01*
X0151826Y0266436D01*
X0148978Y0265256D01*
X0138795Y0265256D01*
X0136165Y0266346D01*
X0136165Y0259982D01*
X0138795Y0261071D01*
X0148978Y0261071D01*
X0151826Y0259891D01*
X0154007Y0257711D01*
X0155186Y0254863D01*
X0155186Y0251780D01*
X0154007Y0248931D01*
X0151826Y0246751D01*
X0148978Y0245571D01*
X0138795Y0245571D01*
X0136165Y0246661D01*
X0136165Y0240297D01*
X0138795Y0241386D01*
X0148978Y0241386D01*
X0151826Y0240206D01*
X0154007Y0238026D01*
X0155186Y0235178D01*
X0155186Y0232095D01*
X0154007Y0229246D01*
X0151826Y0227066D01*
X0148978Y0225886D01*
X0138795Y0225886D01*
X0136165Y0226975D01*
X0136165Y0226933D02*
X0136268Y0226933D01*
X0139965Y0225886D02*
X0139965Y0123133D01*
X0143965Y0123133D02*
X0143965Y0225886D01*
X0147965Y0225886D02*
X0147965Y0123133D01*
X0151965Y0123133D02*
X0151965Y0227205D01*
X0151505Y0226933D02*
X0244615Y0226933D01*
X0244615Y0222933D02*
X0136165Y0222933D01*
X0136165Y0218933D02*
X0245565Y0218933D01*
X0245565Y0214933D02*
X0136165Y0214933D01*
X0136165Y0210933D02*
X0246370Y0210933D01*
X0247965Y0209140D02*
X0247965Y0200333D01*
X0247365Y0200933D02*
X0241566Y0200933D01*
X0237910Y0197277D01*
X0236453Y0198733D01*
X0234465Y0198733D01*
X0232477Y0198733D01*
X0229665Y0195921D01*
X0229665Y0193933D01*
X0229665Y0191945D01*
X0232477Y0189133D01*
X0234465Y0189133D01*
X0234465Y0193933D01*
X0229665Y0193933D01*
X0234465Y0193933D01*
X0234465Y0193933D01*
X0234465Y0193933D01*
X0234465Y0198733D01*
X0234465Y0193933D01*
X0234465Y0193933D01*
X0234465Y0189133D01*
X0236453Y0189133D01*
X0237910Y0190589D01*
X0238465Y0190034D01*
X0238465Y0187687D01*
X0237262Y0186484D01*
X0235937Y0187033D01*
X0232993Y0187033D01*
X0230273Y0185906D01*
X0228192Y0183825D01*
X0228026Y0183426D01*
X0227853Y0183599D01*
X0227191Y0184080D01*
X0226461Y0184452D01*
X0225683Y0184705D01*
X0224874Y0184833D01*
X0224465Y0184833D01*
X0224465Y0176433D01*
X0224465Y0176433D01*
X0224465Y0168033D01*
X0224874Y0168033D01*
X0225683Y0168161D01*
X0226461Y0168414D01*
X0227191Y0168786D01*
X0227853Y0169267D01*
X0228026Y0169440D01*
X0228192Y0169041D01*
X0230273Y0166960D01*
X0232993Y0165833D01*
X0235937Y0165833D01*
X0238657Y0166960D01*
X0240739Y0169041D01*
X0241865Y0171761D01*
X0241865Y0176379D01*
X0248074Y0182587D01*
X0248865Y0184499D01*
X0248865Y0188434D01*
X0251465Y0191034D01*
X0251465Y0196833D01*
X0247365Y0200933D01*
X0249365Y0198933D02*
X0258300Y0198933D01*
X0255965Y0201162D02*
X0255965Y0170376D01*
X0256522Y0170933D02*
X0241522Y0170933D01*
X0239965Y0168268D02*
X0239965Y0164283D01*
X0238593Y0166933D02*
X0252522Y0166933D01*
X0251965Y0166376D02*
X0251965Y0205140D01*
X0250172Y0206933D02*
X0136165Y0206933D01*
X0136165Y0202933D02*
X0254172Y0202933D01*
X0251465Y0194933D02*
X0258390Y0194933D01*
X0258390Y0190933D02*
X0251365Y0190933D01*
X0248865Y0186933D02*
X0258390Y0186933D01*
X0258390Y0182933D02*
X0248217Y0182933D01*
X0247965Y0182479D02*
X0247965Y0164283D01*
X0243965Y0164283D02*
X0243965Y0178479D01*
X0244419Y0178933D02*
X0258390Y0178933D01*
X0258390Y0174933D02*
X0241865Y0174933D01*
X0234665Y0176533D02*
X0234465Y0176433D01*
X0234665Y0176533D02*
X0243665Y0185533D01*
X0243665Y0193633D01*
X0244465Y0193933D01*
X0239566Y0198933D02*
X0224248Y0198933D01*
X0224098Y0199083D02*
X0221965Y0199083D01*
X0219832Y0199083D01*
X0216815Y0196066D01*
X0216815Y0193933D01*
X0216815Y0191800D01*
X0219832Y0188783D01*
X0221965Y0188783D01*
X0221965Y0193933D01*
X0216815Y0193933D01*
X0221965Y0193933D01*
X0221965Y0193933D01*
X0221965Y0193933D01*
X0221965Y0199083D01*
X0221965Y0193933D01*
X0221965Y0193933D01*
X0221965Y0188783D01*
X0224098Y0188783D01*
X0227115Y0191800D01*
X0227115Y0193933D01*
X0221965Y0193933D01*
X0221965Y0193933D01*
X0227115Y0193933D01*
X0227115Y0196066D01*
X0224098Y0199083D01*
X0223965Y0199083D02*
X0223965Y0263033D01*
X0227965Y0263033D02*
X0227965Y0183487D01*
X0224465Y0182933D02*
X0224465Y0182933D01*
X0223965Y0184819D02*
X0223965Y0188783D01*
X0221965Y0190933D02*
X0221965Y0190933D01*
X0219965Y0188783D02*
X0219965Y0184598D01*
X0216179Y0186933D02*
X0232752Y0186933D01*
X0231965Y0186607D02*
X0231965Y0189645D01*
X0230677Y0190933D02*
X0226248Y0190933D01*
X0223965Y0193933D02*
X0223965Y0193933D01*
X0221965Y0194933D02*
X0221965Y0194933D01*
X0219965Y0193933D02*
X0219965Y0193933D01*
X0216815Y0194933D02*
X0209315Y0194933D01*
X0207965Y0198328D02*
X0207965Y0274758D01*
X0207770Y0274933D02*
X0155027Y0274933D01*
X0154966Y0270933D02*
X0212231Y0270933D01*
X0211965Y0271172D02*
X0211965Y0187301D01*
X0212333Y0186933D02*
X0212752Y0186933D01*
X0215965Y0187021D02*
X0215965Y0267585D01*
X0216693Y0266933D02*
X0152323Y0266933D01*
X0151965Y0266575D02*
X0151965Y0259753D01*
X0152785Y0258933D02*
X0238897Y0258933D01*
X0239965Y0257865D02*
X0239965Y0199333D01*
X0235965Y0198733D02*
X0235965Y0263033D01*
X0236565Y0262933D02*
X0136165Y0262933D01*
X0139965Y0261071D02*
X0139965Y0265256D01*
X0143965Y0265256D02*
X0143965Y0261071D01*
X0147965Y0261071D02*
X0147965Y0265256D01*
X0155157Y0254933D02*
X0242897Y0254933D01*
X0243965Y0253865D02*
X0243965Y0200933D01*
X0234465Y0194933D02*
X0234465Y0194933D01*
X0231965Y0193933D02*
X0231965Y0193933D01*
X0229665Y0194933D02*
X0227115Y0194933D01*
X0231965Y0198221D02*
X0231965Y0263033D01*
X0219965Y0263951D02*
X0219965Y0199083D01*
X0219682Y0198933D02*
X0207360Y0198933D01*
X0203965Y0201283D02*
X0203965Y0283268D01*
X0204165Y0282933D02*
X0136165Y0282933D01*
X0139965Y0284941D02*
X0139965Y0280756D01*
X0143965Y0280756D02*
X0143965Y0284941D01*
X0147965Y0284941D02*
X0147965Y0280756D01*
X0151965Y0279438D02*
X0151965Y0286260D01*
X0152638Y0286933D02*
X0202065Y0286933D01*
X0201497Y0290933D02*
X0155097Y0290933D01*
X0154896Y0294933D02*
X0197497Y0294933D01*
X0195965Y0296465D02*
X0195965Y0198328D01*
X0196571Y0198933D02*
X0136165Y0198933D01*
X0136165Y0194933D02*
X0194615Y0194933D01*
X0194615Y0190933D02*
X0136165Y0190933D01*
X0136165Y0186933D02*
X0196093Y0186933D01*
X0195965Y0189539D02*
X0195965Y0123133D01*
X0199965Y0123133D02*
X0199965Y0181765D01*
X0198797Y0182933D02*
X0136165Y0182933D01*
X0136165Y0178933D02*
X0202797Y0178933D01*
X0203965Y0177765D02*
X0203965Y0123133D01*
X0207965Y0123133D02*
X0207965Y0169588D01*
X0207408Y0170933D02*
X0136165Y0170933D01*
X0136165Y0166933D02*
X0208265Y0166933D01*
X0209797Y0162933D02*
X0136165Y0162933D01*
X0136165Y0158933D02*
X0213797Y0158933D01*
X0211965Y0160765D02*
X0211965Y0123133D01*
X0215965Y0123133D02*
X0215965Y0156765D01*
X0217797Y0154933D02*
X0136165Y0154933D01*
X0136165Y0150933D02*
X0347019Y0150933D01*
X0347965Y0149646D02*
X0347965Y0123133D01*
X0343965Y0123133D02*
X0343965Y0155085D01*
X0344077Y0154933D02*
X0258058Y0154933D01*
X0259965Y0156840D02*
X0259965Y0123133D01*
X0255965Y0123133D02*
X0255965Y0152840D01*
X0251965Y0151883D02*
X0251965Y0123133D01*
X0247965Y0123133D02*
X0247965Y0151883D01*
X0243965Y0151883D02*
X0243965Y0123133D01*
X0239965Y0123133D02*
X0239965Y0151883D01*
X0235965Y0151883D02*
X0235965Y0123133D01*
X0231965Y0123133D02*
X0231965Y0151883D01*
X0227965Y0151883D02*
X0227965Y0123133D01*
X0223965Y0123133D02*
X0223965Y0151883D01*
X0219965Y0152801D02*
X0219965Y0123133D01*
X0187149Y0131973D02*
X0186461Y0129403D01*
X0185130Y0127098D01*
X0183249Y0125217D01*
X0180945Y0123886D01*
X0178374Y0123198D01*
X0175714Y0123198D01*
X0173143Y0123886D01*
X0170839Y0125217D01*
X0168958Y0127098D01*
X0167627Y0129403D01*
X0166938Y0131973D01*
X0166938Y0134634D01*
X0167627Y0137204D01*
X0168958Y0139508D01*
X0170839Y0141390D01*
X0173143Y0142720D01*
X0175714Y0143409D01*
X0178374Y0143409D01*
X0180945Y0142720D01*
X0183249Y0141390D01*
X0185130Y0139508D01*
X0186461Y0137204D01*
X0187149Y0134634D01*
X0187149Y0131973D01*
X0186871Y0130933D02*
X0643989Y0130933D01*
X0643965Y0131021D02*
X0643965Y0123133D01*
X0639965Y0123133D02*
X0639965Y0143433D01*
X0635965Y0143433D02*
X0635965Y0123133D01*
X0631965Y0123133D02*
X0631965Y0143433D01*
X0627965Y0143433D02*
X0627965Y0123133D01*
X0623965Y0123133D02*
X0623965Y0143433D01*
X0619965Y0143433D02*
X0619965Y0123133D01*
X0615965Y0123133D02*
X0615965Y0143433D01*
X0611965Y0143433D02*
X0611965Y0123133D01*
X0607965Y0123133D02*
X0607965Y0143433D01*
X0603965Y0143433D02*
X0603965Y0123133D01*
X0599965Y0123133D02*
X0599965Y0143433D01*
X0595965Y0143433D02*
X0595965Y0123133D01*
X0591965Y0123133D02*
X0591965Y0143433D01*
X0587965Y0143433D02*
X0587965Y0123133D01*
X0583965Y0123133D02*
X0583965Y0143433D01*
X0579965Y0143433D02*
X0579965Y0123133D01*
X0575965Y0123133D02*
X0575965Y0143433D01*
X0571965Y0143433D02*
X0571965Y0123133D01*
X0567965Y0123133D02*
X0567965Y0143433D01*
X0563965Y0143433D02*
X0563965Y0123133D01*
X0559965Y0123133D02*
X0559965Y0143433D01*
X0555965Y0143433D02*
X0555965Y0123133D01*
X0551965Y0123133D02*
X0551965Y0143433D01*
X0547965Y0143433D02*
X0547965Y0123133D01*
X0543965Y0123133D02*
X0543965Y0143433D01*
X0539965Y0143433D02*
X0539965Y0123133D01*
X0535965Y0123133D02*
X0535965Y0143433D01*
X0531965Y0143433D02*
X0531965Y0123133D01*
X0527965Y0123133D02*
X0527965Y0143433D01*
X0523965Y0143433D02*
X0523965Y0123133D01*
X0519965Y0123133D02*
X0519965Y0143433D01*
X0515965Y0143433D02*
X0515965Y0123133D01*
X0511965Y0123133D02*
X0511965Y0143433D01*
X0507965Y0143433D02*
X0507965Y0123133D01*
X0503965Y0123133D02*
X0503965Y0143433D01*
X0499965Y0143433D02*
X0499965Y0123133D01*
X0495965Y0123133D02*
X0495965Y0143433D01*
X0491965Y0143433D02*
X0491965Y0123133D01*
X0487965Y0123133D02*
X0487965Y0143433D01*
X0483965Y0143433D02*
X0483965Y0123133D01*
X0479965Y0123133D02*
X0479965Y0143433D01*
X0475965Y0143433D02*
X0475965Y0123133D01*
X0471965Y0123133D02*
X0471965Y0143433D01*
X0467965Y0143433D02*
X0467965Y0123133D01*
X0463965Y0123133D02*
X0463965Y0143433D01*
X0459965Y0143433D02*
X0459965Y0123133D01*
X0455965Y0123133D02*
X0455965Y0143433D01*
X0451965Y0143433D02*
X0451965Y0123133D01*
X0447965Y0123133D02*
X0447965Y0143433D01*
X0443965Y0143433D02*
X0443965Y0123133D01*
X0439965Y0123133D02*
X0439965Y0143433D01*
X0435965Y0143433D02*
X0435965Y0123133D01*
X0431965Y0123133D02*
X0431965Y0143433D01*
X0427965Y0143433D02*
X0427965Y0123133D01*
X0423965Y0123133D02*
X0423965Y0143433D01*
X0419965Y0143433D02*
X0419965Y0123133D01*
X0415965Y0123133D02*
X0415965Y0143433D01*
X0411965Y0143433D02*
X0411965Y0123133D01*
X0407965Y0123133D02*
X0407965Y0143433D01*
X0403965Y0143433D02*
X0403965Y0123133D01*
X0399965Y0123133D02*
X0399965Y0143433D01*
X0395965Y0143433D02*
X0395965Y0123133D01*
X0391965Y0123133D02*
X0391965Y0143433D01*
X0387965Y0143433D02*
X0387965Y0123133D01*
X0383965Y0123133D02*
X0383965Y0143433D01*
X0379965Y0143433D02*
X0379965Y0123133D01*
X0375965Y0123133D02*
X0375965Y0143433D01*
X0371965Y0143433D02*
X0371965Y0123133D01*
X0367965Y0123133D02*
X0367965Y0143433D01*
X0363965Y0143433D02*
X0363965Y0123133D01*
X0359965Y0123133D02*
X0359965Y0143433D01*
X0355965Y0143433D02*
X0355965Y0123133D01*
X0351965Y0123133D02*
X0351965Y0144479D01*
X0349961Y0146933D02*
X0136165Y0146933D01*
X0136165Y0142933D02*
X0173939Y0142933D01*
X0175965Y0143409D02*
X0175965Y0298933D01*
X0171965Y0298933D02*
X0171965Y0142040D01*
X0168626Y0138933D02*
X0136165Y0138933D01*
X0136165Y0134933D02*
X0167019Y0134933D01*
X0167965Y0137789D02*
X0167965Y0298933D01*
X0163965Y0298933D02*
X0163965Y0123133D01*
X0159965Y0123133D02*
X0159965Y0298933D01*
X0155965Y0298933D02*
X0155965Y0123133D01*
X0167217Y0130933D02*
X0136165Y0130933D01*
X0136165Y0126933D02*
X0169123Y0126933D01*
X0167965Y0128817D02*
X0167965Y0123133D01*
X0171965Y0123133D02*
X0171965Y0124567D01*
X0175965Y0123198D02*
X0175965Y0123133D01*
X0179965Y0123133D02*
X0179965Y0123624D01*
X0183965Y0123133D02*
X0183965Y0125933D01*
X0184965Y0126933D02*
X0645894Y0126933D01*
X0645729Y0127098D02*
X0647611Y0125217D01*
X0649915Y0123886D01*
X0652485Y0123198D01*
X0655146Y0123198D01*
X0657716Y0123886D01*
X0660021Y0125217D01*
X0661902Y0127098D01*
X0663232Y0129403D01*
X0663921Y0131973D01*
X0663921Y0134634D01*
X0663232Y0137204D01*
X0661902Y0139508D01*
X0660021Y0141390D01*
X0657716Y0142720D01*
X0655146Y0143409D01*
X0652485Y0143409D01*
X0649915Y0142720D01*
X0647611Y0141390D01*
X0645729Y0139508D01*
X0644399Y0137204D01*
X0643710Y0134634D01*
X0643710Y0131973D01*
X0644399Y0129403D01*
X0645729Y0127098D01*
X0647965Y0125012D02*
X0647965Y0123133D01*
X0651965Y0123133D02*
X0651965Y0123337D01*
X0655965Y0123417D02*
X0655965Y0123133D01*
X0659965Y0123133D02*
X0659965Y0125185D01*
X0661737Y0126933D02*
X0738001Y0126933D01*
X0738001Y0130933D02*
X0663643Y0130933D01*
X0663841Y0134933D02*
X0738001Y0134933D01*
X0738001Y0138933D02*
X0662234Y0138933D01*
X0659965Y0141421D02*
X0659965Y0143433D01*
X0656921Y0142933D02*
X0715345Y0142933D01*
X0715965Y0142313D02*
X0715965Y0123133D01*
X0711965Y0123133D02*
X0711965Y0143433D01*
X0707965Y0143433D02*
X0707965Y0123133D01*
X0703965Y0123133D02*
X0703965Y0143433D01*
X0699965Y0143433D02*
X0699965Y0123133D01*
X0695965Y0123133D02*
X0695965Y0143433D01*
X0691965Y0143433D02*
X0691965Y0123133D01*
X0687965Y0123133D02*
X0687965Y0143433D01*
X0683965Y0143433D02*
X0683965Y0123133D01*
X0679965Y0123133D02*
X0679965Y0143433D01*
X0675965Y0143433D02*
X0675965Y0123133D01*
X0671965Y0123133D02*
X0671965Y0143433D01*
X0667965Y0143433D02*
X0667965Y0123133D01*
X0663965Y0123133D02*
X0663965Y0143433D01*
X0655965Y0143433D02*
X0655965Y0143189D01*
X0651965Y0143269D02*
X0651965Y0143433D01*
X0650710Y0142933D02*
X0180149Y0142933D01*
X0179965Y0142982D02*
X0179965Y0298933D01*
X0183965Y0298933D02*
X0183965Y0140673D01*
X0185462Y0138933D02*
X0645397Y0138933D01*
X0643965Y0135586D02*
X0643965Y0143433D01*
X0647965Y0143433D02*
X0647965Y0141594D01*
X0643790Y0134933D02*
X0187069Y0134933D01*
X0223333Y0166933D02*
X0230338Y0166933D01*
X0231965Y0166259D02*
X0231965Y0164283D01*
X0227965Y0164283D02*
X0227965Y0169379D01*
X0224465Y0170933D02*
X0224465Y0170933D01*
X0223965Y0168047D02*
X0223965Y0166301D01*
X0224465Y0174933D02*
X0224465Y0174933D01*
X0224465Y0178933D02*
X0224465Y0178933D01*
X0235965Y0187021D02*
X0235965Y0189133D01*
X0236179Y0186933D02*
X0237711Y0186933D01*
X0234465Y0190933D02*
X0234465Y0190933D01*
X0221965Y0198933D02*
X0221965Y0198933D01*
X0217682Y0190933D02*
X0209315Y0190933D01*
X0199965Y0201283D02*
X0199965Y0292465D01*
X0191565Y0302933D02*
X0189463Y0302933D01*
X0189465Y0306933D02*
X0189615Y0306933D01*
X0189615Y0310933D02*
X0189465Y0310933D01*
X0189465Y0318933D02*
X0253300Y0318933D01*
X0251965Y0321013D02*
X0251965Y0263401D01*
X0247965Y0273328D02*
X0247965Y0328679D01*
X0249711Y0326933D02*
X0189465Y0326933D01*
X0189465Y0322933D02*
X0251365Y0322933D01*
X0253659Y0314933D02*
X0243365Y0314933D01*
X0243965Y0314333D02*
X0243965Y0329316D01*
X0242348Y0330933D02*
X0189465Y0330933D01*
X0204315Y0306933D02*
X0211815Y0306933D01*
X0211965Y0306650D02*
X0211965Y0301607D01*
X0216965Y0306933D02*
X0216965Y0306933D01*
X0216965Y0308933D02*
X0216965Y0308933D01*
X0215965Y0308933D02*
X0215965Y0308933D01*
X0216965Y0310933D02*
X0216965Y0310933D01*
X0219965Y0308933D02*
X0219965Y0308933D01*
X0222115Y0306933D02*
X0224677Y0306933D01*
X0224677Y0310933D02*
X0222115Y0310933D01*
X0227965Y0313733D02*
X0227965Y0333795D01*
X0231965Y0334933D02*
X0231965Y0334933D01*
X0227965Y0338933D02*
X0227965Y0338933D01*
X0223965Y0338933D02*
X0223965Y0338933D01*
X0247265Y0336733D02*
X0259865Y0324133D01*
X0261665Y0324133D01*
X0261965Y0323933D01*
X0261965Y0313933D02*
X0270365Y0313933D01*
X0270365Y0314342D01*
X0270237Y0315151D01*
X0267965Y0313933D02*
X0267965Y0313933D01*
X0269413Y0310933D02*
X0281998Y0310933D01*
X0283965Y0308268D02*
X0283965Y0305967D01*
X0284517Y0306933D02*
X0246465Y0306933D01*
X0246465Y0310933D02*
X0254517Y0310933D01*
X0255965Y0313933D02*
X0255965Y0313933D01*
X0259965Y0313933D02*
X0259965Y0313933D01*
X0261965Y0313933D02*
X0261965Y0313933D01*
X0261965Y0308733D01*
X0265574Y0308733D01*
X0267965Y0309540D02*
X0267965Y0258487D01*
X0268300Y0258933D02*
X0267394Y0258933D01*
X0264465Y0254933D02*
X0264465Y0254933D01*
X0271965Y0261607D02*
X0271965Y0264645D01*
X0274465Y0270933D02*
X0274465Y0270933D01*
X0275965Y0273733D02*
X0275965Y0328583D01*
X0271965Y0328583D02*
X0271965Y0326854D01*
X0271932Y0326933D02*
X0281998Y0326933D01*
X0279965Y0328583D02*
X0279965Y0274333D01*
X0280566Y0274933D02*
X0246360Y0274933D01*
X0243965Y0276283D02*
X0243965Y0298733D01*
X0244048Y0298933D02*
X0287326Y0298933D01*
X0287965Y0298795D02*
X0287965Y0296611D01*
X0285648Y0294933D02*
X0240719Y0294933D01*
X0239965Y0294179D02*
X0239965Y0276283D01*
X0236865Y0286933D02*
X0282887Y0286933D01*
X0283965Y0284816D02*
X0283965Y0275933D01*
X0291465Y0270933D02*
X0304615Y0270933D01*
X0307007Y0266933D02*
X0291465Y0266933D01*
X0289365Y0262933D02*
X0310328Y0262933D01*
X0311965Y0261296D02*
X0311965Y0232701D01*
X0312848Y0230933D02*
X0318571Y0230933D01*
X0315965Y0228328D02*
X0315965Y0257296D01*
X0314328Y0258933D02*
X0288882Y0258933D01*
X0287965Y0257579D02*
X0287965Y0242633D01*
X0283965Y0242633D02*
X0283965Y0253579D01*
X0285319Y0254933D02*
X0317065Y0254933D01*
X0317408Y0250933D02*
X0281865Y0250933D01*
X0281865Y0246933D02*
X0319265Y0246933D01*
X0319265Y0242933D02*
X0279630Y0242933D01*
X0279965Y0242633D02*
X0279965Y0243268D01*
X0291965Y0242633D02*
X0291965Y0281455D01*
X0295082Y0282933D02*
X0359148Y0282933D01*
X0359965Y0282116D02*
X0359965Y0278333D01*
X0359365Y0278933D02*
X0379071Y0278933D01*
X0379965Y0279828D02*
X0379965Y0282041D01*
X0375965Y0282053D02*
X0375965Y0232398D01*
X0378079Y0230933D02*
X0388571Y0230933D01*
X0387965Y0230328D02*
X0387965Y0249588D01*
X0387408Y0250933D02*
X0351522Y0250933D01*
X0351865Y0254933D02*
X0387065Y0254933D01*
X0384328Y0258933D02*
X0353619Y0258933D01*
X0351965Y0257279D02*
X0351965Y0240933D01*
X0347965Y0240933D02*
X0347965Y0246673D01*
X0348593Y0246933D02*
X0388790Y0246933D01*
X0390128Y0242933D02*
X0338302Y0242933D01*
X0339965Y0241270D02*
X0339965Y0247268D01*
X0340338Y0246933D02*
X0334302Y0246933D01*
X0335965Y0248253D02*
X0335965Y0245270D01*
X0334465Y0250933D02*
X0334465Y0250933D01*
X0334465Y0254933D02*
X0334465Y0254933D01*
X0334465Y0258933D02*
X0334465Y0258933D01*
X0334465Y0262933D02*
X0334465Y0262933D01*
X0331965Y0270933D02*
X0331965Y0270933D01*
X0331965Y0274933D02*
X0331965Y0274933D01*
X0327965Y0273933D02*
X0327965Y0273933D01*
X0326815Y0274933D02*
X0319315Y0274933D01*
X0321602Y0266933D02*
X0322752Y0266933D01*
X0323965Y0267033D02*
X0323965Y0298799D01*
X0324579Y0298933D02*
X0338375Y0298933D01*
X0338440Y0298886D02*
X0339169Y0298514D01*
X0339948Y0298261D01*
X0338440Y0298886D02*
X0337778Y0299367D01*
X0337199Y0299945D01*
X0336718Y0300608D01*
X0336346Y0301337D01*
X0336093Y0302115D01*
X0335965Y0302924D01*
X0339965Y0303333D02*
X0339965Y0303333D01*
X0343965Y0303333D02*
X0343965Y0303333D01*
X0344365Y0303333D02*
X0344365Y0303333D01*
X0344365Y0302933D02*
X0344365Y0302933D01*
X0347965Y0303333D02*
X0347965Y0303333D01*
X0347965Y0298133D02*
X0347965Y0277333D01*
X0343965Y0278733D02*
X0343965Y0298133D01*
X0344365Y0298933D02*
X0344365Y0298933D01*
X0327965Y0301955D02*
X0327965Y0277216D01*
X0335965Y0273933D02*
X0335965Y0273933D01*
X0343965Y0273933D02*
X0343965Y0273933D01*
X0344465Y0274933D02*
X0344465Y0274933D01*
X0344465Y0270933D02*
X0344465Y0270933D01*
X0343965Y0269133D02*
X0343965Y0267033D01*
X0346179Y0266933D02*
X0346911Y0266933D01*
X0347965Y0267987D02*
X0347965Y0270534D01*
X0354365Y0273333D02*
X0354365Y0267033D01*
X0344465Y0257133D01*
X0344465Y0256433D01*
X0343965Y0245833D02*
X0343965Y0240933D01*
X0335006Y0230955D02*
X0330065Y0235896D01*
X0330065Y0224959D01*
X0329315Y0223148D01*
X0329315Y0220889D01*
X0328431Y0220004D01*
X0331868Y0216567D01*
X0332993Y0217033D01*
X0335937Y0217033D01*
X0338657Y0215906D01*
X0340739Y0213825D01*
X0340904Y0213426D01*
X0341078Y0213599D01*
X0341740Y0214080D01*
X0342469Y0214452D01*
X0343248Y0214705D01*
X0344056Y0214833D01*
X0344465Y0214833D01*
X0344465Y0206433D01*
X0344465Y0206433D01*
X0344465Y0198033D01*
X0344056Y0198033D01*
X0343248Y0198161D01*
X0342469Y0198414D01*
X0341740Y0198786D01*
X0341078Y0199267D01*
X0340904Y0199440D01*
X0340739Y0199041D01*
X0338657Y0196960D01*
X0337066Y0196301D01*
X0354233Y0179133D01*
X0619367Y0179133D01*
X0619065Y0179862D01*
X0619065Y0183004D01*
X0620268Y0185908D01*
X0621965Y0187605D01*
X0621965Y0187761D01*
X0620268Y0189458D01*
X0619065Y0192362D01*
X0619065Y0195504D01*
X0620268Y0198408D01*
X0621965Y0200105D01*
X0621965Y0203434D01*
X0621965Y0203434D01*
X0620930Y0202399D01*
X0618358Y0201333D01*
X0615573Y0201333D01*
X0613000Y0202399D01*
X0611031Y0204368D01*
X0609965Y0206941D01*
X0609965Y0215325D01*
X0611031Y0217898D01*
X0613000Y0219867D01*
X0615573Y0220933D01*
X0618358Y0220933D01*
X0620930Y0219867D01*
X0621965Y0218833D01*
X0623000Y0219867D01*
X0625573Y0220933D01*
X0628358Y0220933D01*
X0630930Y0219867D01*
X0631965Y0218833D01*
X0631965Y0218833D01*
X0631965Y0219603D01*
X0631965Y0239034D01*
X0633000Y0237999D01*
X0635573Y0236933D01*
X0638358Y0236933D01*
X0640930Y0237999D01*
X0642900Y0239968D01*
X0643268Y0240856D01*
X0643304Y0240806D01*
X0643838Y0240272D01*
X0644449Y0239828D01*
X0645123Y0239485D01*
X0645841Y0239251D01*
X0646587Y0239133D01*
X0646965Y0239133D01*
X0646965Y0243933D01*
X0646965Y0243933D01*
X0646965Y0254333D01*
X0646587Y0254333D01*
X0645841Y0254215D01*
X0645123Y0253981D01*
X0644449Y0253638D01*
X0643838Y0253194D01*
X0643304Y0252660D01*
X0643268Y0252610D01*
X0642900Y0253498D01*
X0642165Y0254233D01*
X0642165Y0261267D01*
X0641374Y0263179D01*
X0628519Y0276033D01*
X0628537Y0276033D01*
X0631440Y0277236D01*
X0633663Y0279458D01*
X0634865Y0282362D01*
X0634865Y0285504D01*
X0633663Y0288408D01*
X0631440Y0290630D01*
X0628537Y0291833D01*
X0628502Y0291833D01*
X0664602Y0327933D01*
X0690664Y0327933D01*
X0692649Y0328755D01*
X0699649Y0335755D01*
X0701168Y0337274D01*
X0701990Y0339259D01*
X0701990Y0343241D01*
X0703943Y0345194D01*
X0703943Y0348312D01*
X0707181Y0351583D01*
X0710010Y0351583D01*
X0711960Y0353533D01*
X0715128Y0353533D01*
X0730565Y0338096D01*
X0730565Y0293982D01*
X0730128Y0294163D01*
X0719945Y0294163D01*
X0717096Y0292984D01*
X0716121Y0292008D01*
X0700996Y0292008D01*
X0699158Y0291247D01*
X0697751Y0289840D01*
X0667376Y0259465D01*
X0666615Y0257628D01*
X0666615Y0231258D01*
X0643621Y0231258D01*
X0641783Y0230497D01*
X0640376Y0229090D01*
X0632726Y0221440D01*
X0631965Y0219603D01*
X0631965Y0218933D02*
X0631865Y0218933D01*
X0627965Y0220933D02*
X0627965Y0236933D01*
X0628358Y0236933D02*
X0630930Y0237999D01*
X0631965Y0239034D01*
X0631865Y0238933D02*
X0632066Y0238933D01*
X0628358Y0236933D02*
X0625573Y0236933D01*
X0623000Y0237999D01*
X0621965Y0239034D01*
X0620930Y0237999D01*
X0618358Y0236933D01*
X0615573Y0236933D01*
X0613000Y0237999D01*
X0611031Y0239968D01*
X0609965Y0242541D01*
X0609965Y0250925D01*
X0611031Y0253498D01*
X0611545Y0254012D01*
X0609362Y0256194D01*
X0609362Y0262472D01*
X0613801Y0266911D01*
X0620079Y0266911D01*
X0622153Y0264837D01*
X0623580Y0266265D01*
X0618289Y0271555D01*
X0614926Y0271555D01*
X0611575Y0274906D01*
X0568143Y0231474D01*
X0566624Y0229955D01*
X0564639Y0229133D01*
X0509165Y0229133D01*
X0511465Y0226833D01*
X0511465Y0221034D01*
X0508965Y0218534D01*
X0508965Y0215099D01*
X0508174Y0213187D01*
X0501865Y0206879D01*
X0501865Y0201761D01*
X0500739Y0199041D01*
X0498657Y0196960D01*
X0495937Y0195833D01*
X0492993Y0195833D01*
X0490273Y0196960D01*
X0488192Y0199041D01*
X0488026Y0199440D01*
X0487853Y0199267D01*
X0487191Y0198786D01*
X0486461Y0198414D01*
X0485683Y0198161D01*
X0484874Y0198033D01*
X0484465Y0198033D01*
X0484465Y0206433D01*
X0484465Y0206433D01*
X0484465Y0214833D01*
X0484056Y0214833D01*
X0483248Y0214705D01*
X0482469Y0214452D01*
X0481740Y0214080D01*
X0481078Y0213599D01*
X0480904Y0213426D01*
X0480739Y0213825D01*
X0478657Y0215906D01*
X0475937Y0217033D01*
X0472993Y0217033D01*
X0472151Y0216684D01*
X0468631Y0220204D01*
X0469315Y0220889D01*
X0469315Y0226978D01*
X0469006Y0227287D01*
X0470852Y0229133D01*
X0499766Y0229133D01*
X0497910Y0227277D01*
X0496453Y0228733D01*
X0494465Y0228733D01*
X0492477Y0228733D01*
X0489665Y0225921D01*
X0489665Y0223933D01*
X0489665Y0221945D01*
X0492477Y0219133D01*
X0494465Y0219133D01*
X0494465Y0223933D01*
X0489665Y0223933D01*
X0494465Y0223933D01*
X0494465Y0223933D01*
X0494465Y0223933D01*
X0494465Y0228733D01*
X0494465Y0223933D01*
X0494465Y0223933D01*
X0494465Y0219133D01*
X0496453Y0219133D01*
X0497910Y0220589D01*
X0498565Y0219934D01*
X0498565Y0218287D01*
X0496909Y0216631D01*
X0495937Y0217033D01*
X0492993Y0217033D01*
X0490273Y0215906D01*
X0488192Y0213825D01*
X0488026Y0213426D01*
X0487853Y0213599D01*
X0487191Y0214080D01*
X0486461Y0214452D01*
X0485683Y0214705D01*
X0484874Y0214833D01*
X0484465Y0214833D01*
X0484465Y0206433D01*
X0484465Y0206433D01*
X0484465Y0198033D01*
X0484056Y0198033D01*
X0483248Y0198161D01*
X0482469Y0198414D01*
X0481740Y0198786D01*
X0481078Y0199267D01*
X0480904Y0199440D01*
X0480739Y0199041D01*
X0478657Y0196960D01*
X0475937Y0195833D01*
X0472993Y0195833D01*
X0470273Y0196960D01*
X0468192Y0199041D01*
X0467065Y0201761D01*
X0467065Y0206496D01*
X0460128Y0213433D01*
X0452139Y0213433D01*
X0431889Y0191360D01*
X0431843Y0191249D01*
X0431166Y0190572D01*
X0430518Y0189866D01*
X0430409Y0189815D01*
X0430324Y0189730D01*
X0429439Y0189364D01*
X0428571Y0188959D01*
X0428450Y0188954D01*
X0428339Y0188908D01*
X0427382Y0188908D01*
X0426424Y0188867D01*
X0426311Y0188908D01*
X0409430Y0188908D01*
X0408523Y0188853D01*
X0408362Y0188908D01*
X0408191Y0188908D01*
X0407351Y0189256D01*
X0406492Y0189552D01*
X0406364Y0189665D01*
X0406206Y0189730D01*
X0405564Y0190373D01*
X0404883Y0190975D01*
X0404808Y0191129D01*
X0404687Y0191249D01*
X0404339Y0192089D01*
X0402392Y0196082D01*
X0400273Y0196960D01*
X0398192Y0199041D01*
X0397065Y0201761D01*
X0397065Y0206296D01*
X0387587Y0215774D01*
X0386765Y0217759D01*
X0386765Y0218739D01*
X0386671Y0218833D01*
X0378750Y0218833D01*
X0378171Y0218728D01*
X0377687Y0218833D01*
X0377191Y0218833D01*
X0376647Y0219058D01*
X0376071Y0219183D01*
X0375664Y0219466D01*
X0375206Y0219655D01*
X0374790Y0220072D01*
X0371465Y0222376D01*
X0371465Y0221034D01*
X0369465Y0219034D01*
X0369465Y0215099D01*
X0368674Y0213187D01*
X0361865Y0206379D01*
X0361865Y0201761D01*
X0360739Y0199041D01*
X0358657Y0196960D01*
X0355937Y0195833D01*
X0352993Y0195833D01*
X0350273Y0196960D01*
X0348192Y0199041D01*
X0348026Y0199440D01*
X0347853Y0199267D01*
X0347191Y0198786D01*
X0346461Y0198414D01*
X0345683Y0198161D01*
X0344874Y0198033D01*
X0344465Y0198033D01*
X0344465Y0206433D01*
X0344465Y0206433D01*
X0344465Y0214833D01*
X0344874Y0214833D01*
X0345683Y0214705D01*
X0346461Y0214452D01*
X0347191Y0214080D01*
X0347853Y0213599D01*
X0348026Y0213426D01*
X0348192Y0213825D01*
X0350273Y0215906D01*
X0352993Y0217033D01*
X0355937Y0217033D01*
X0357262Y0216484D01*
X0359065Y0218287D01*
X0359065Y0219434D01*
X0357910Y0220589D01*
X0356453Y0219133D01*
X0354465Y0219133D01*
X0354465Y0223933D01*
X0349665Y0223933D01*
X0349665Y0221945D01*
X0352477Y0219133D01*
X0354465Y0219133D01*
X0354465Y0223933D01*
X0354465Y0223933D01*
X0349665Y0223933D01*
X0349665Y0225921D01*
X0352477Y0228733D01*
X0354465Y0228733D01*
X0354465Y0223933D01*
X0354465Y0223933D01*
X0354465Y0223933D01*
X0354465Y0228733D01*
X0356453Y0228733D01*
X0357910Y0227277D01*
X0360565Y0229933D01*
X0360277Y0230133D01*
X0336991Y0230133D01*
X0335006Y0230955D01*
X0335060Y0230933D02*
X0330065Y0230933D01*
X0331965Y0233996D02*
X0331965Y0216607D01*
X0329502Y0218933D02*
X0339682Y0218933D01*
X0339832Y0218783D02*
X0341965Y0218783D01*
X0341965Y0223933D01*
X0336815Y0223933D01*
X0336815Y0221800D01*
X0339832Y0218783D01*
X0339965Y0218783D02*
X0339965Y0214598D01*
X0339630Y0214933D02*
X0349300Y0214933D01*
X0347965Y0213487D02*
X0347965Y0230133D01*
X0346248Y0226933D02*
X0350677Y0226933D01*
X0351965Y0228221D02*
X0351965Y0230133D01*
X0355965Y0230133D02*
X0355965Y0228733D01*
X0354465Y0226933D02*
X0354465Y0226933D01*
X0351965Y0223933D02*
X0351965Y0223933D01*
X0349665Y0222933D02*
X0347115Y0222933D01*
X0347115Y0223933D02*
X0341965Y0223933D01*
X0341965Y0223933D01*
X0336815Y0223933D01*
X0336815Y0226066D01*
X0339832Y0229083D01*
X0341965Y0229083D01*
X0341965Y0223933D01*
X0341965Y0223933D01*
X0341965Y0223933D01*
X0341965Y0218783D01*
X0344098Y0218783D01*
X0347115Y0221800D01*
X0347115Y0223933D01*
X0347115Y0226066D01*
X0344098Y0229083D01*
X0341965Y0229083D01*
X0341965Y0223933D01*
X0341965Y0223933D01*
X0347115Y0223933D01*
X0343965Y0223933D02*
X0343965Y0223933D01*
X0341965Y0222933D02*
X0341965Y0222933D01*
X0339965Y0223933D02*
X0339965Y0223933D01*
X0336815Y0222933D02*
X0329315Y0222933D01*
X0330065Y0226933D02*
X0337682Y0226933D01*
X0339965Y0229083D02*
X0339965Y0230133D01*
X0341965Y0226933D02*
X0341965Y0226933D01*
X0343965Y0229083D02*
X0343965Y0230133D01*
X0335965Y0230558D02*
X0335965Y0217021D01*
X0341965Y0218933D02*
X0341965Y0218933D01*
X0343965Y0218783D02*
X0343965Y0214819D01*
X0344465Y0210933D02*
X0344465Y0210933D01*
X0344465Y0206933D02*
X0344465Y0206933D01*
X0344465Y0202933D02*
X0344465Y0202933D01*
X0344465Y0198933D02*
X0344465Y0198933D01*
X0343965Y0198047D02*
X0343965Y0189401D01*
X0342433Y0190933D02*
X0404930Y0190933D01*
X0403965Y0192856D02*
X0403965Y0179133D01*
X0399965Y0179133D02*
X0399965Y0197268D01*
X0398300Y0198933D02*
X0360630Y0198933D01*
X0359965Y0198268D02*
X0359965Y0179133D01*
X0355965Y0179133D02*
X0355965Y0195845D01*
X0351965Y0196259D02*
X0351965Y0181401D01*
X0350433Y0182933D02*
X0619065Y0182933D01*
X0619965Y0185177D02*
X0619965Y0190189D01*
X0619657Y0190933D02*
X0431527Y0190933D01*
X0431965Y0191443D02*
X0431965Y0179133D01*
X0427965Y0179133D02*
X0427965Y0188908D01*
X0423965Y0188908D02*
X0423965Y0179133D01*
X0419965Y0179133D02*
X0419965Y0188908D01*
X0415965Y0188908D02*
X0415965Y0179133D01*
X0411965Y0179133D02*
X0411965Y0188908D01*
X0407965Y0189002D02*
X0407965Y0179133D01*
X0395965Y0179133D02*
X0395965Y0207396D01*
X0396428Y0206933D02*
X0362419Y0206933D01*
X0363965Y0208479D02*
X0363965Y0179133D01*
X0367965Y0179133D02*
X0367965Y0212479D01*
X0366419Y0210933D02*
X0392428Y0210933D01*
X0391965Y0211396D02*
X0391965Y0179133D01*
X0387965Y0179133D02*
X0387965Y0215396D01*
X0388428Y0214933D02*
X0369397Y0214933D01*
X0369465Y0218933D02*
X0376950Y0218933D01*
X0375965Y0219257D02*
X0375965Y0179133D01*
X0371965Y0179133D02*
X0371965Y0222030D01*
X0364465Y0223933D02*
X0364265Y0223333D01*
X0364265Y0216133D01*
X0355265Y0207133D01*
X0354465Y0206433D01*
X0361865Y0202933D02*
X0397065Y0202933D01*
X0402952Y0194933D02*
X0338433Y0194933D01*
X0339965Y0193401D02*
X0339965Y0198268D01*
X0340630Y0198933D02*
X0341537Y0198933D01*
X0347394Y0198933D02*
X0348300Y0198933D01*
X0347965Y0199379D02*
X0347965Y0185401D01*
X0346433Y0186933D02*
X0621293Y0186933D01*
X0615965Y0179133D02*
X0615965Y0201333D01*
X0612466Y0202933D02*
X0531468Y0202933D01*
X0531313Y0202720D02*
X0531840Y0203446D01*
X0532248Y0204245D01*
X0532525Y0205098D01*
X0532665Y0205984D01*
X0532665Y0206433D01*
X0526965Y0206433D01*
X0521265Y0206433D01*
X0516965Y0206433D01*
X0511265Y0206433D01*
X0511265Y0205984D01*
X0511406Y0205098D01*
X0511683Y0204245D01*
X0512090Y0203446D01*
X0512617Y0202720D01*
X0513252Y0202085D01*
X0513978Y0201558D01*
X0514777Y0201151D01*
X0515630Y0200873D01*
X0516517Y0200733D01*
X0516965Y0200733D01*
X0516965Y0206433D01*
X0516965Y0206433D01*
X0511265Y0206433D01*
X0511265Y0206882D01*
X0511406Y0207768D01*
X0511683Y0208621D01*
X0512090Y0209421D01*
X0512617Y0210146D01*
X0513252Y0210781D01*
X0513978Y0211308D01*
X0514777Y0211715D01*
X0515630Y0211993D01*
X0516517Y0212133D01*
X0516965Y0212133D01*
X0516965Y0206433D01*
X0516965Y0206433D01*
X0516965Y0206433D01*
X0516965Y0200733D01*
X0517414Y0200733D01*
X0518300Y0200873D01*
X0519153Y0201151D01*
X0519953Y0201558D01*
X0520679Y0202085D01*
X0521313Y0202720D01*
X0521840Y0203446D01*
X0521965Y0203691D01*
X0522090Y0203446D01*
X0522617Y0202720D01*
X0523252Y0202085D01*
X0523978Y0201558D01*
X0524777Y0201151D01*
X0525630Y0200873D01*
X0526517Y0200733D01*
X0526965Y0200733D01*
X0526965Y0206433D01*
X0526965Y0206433D01*
X0516965Y0206433D01*
X0516965Y0212133D01*
X0517414Y0212133D01*
X0518300Y0211993D01*
X0519153Y0211715D01*
X0519953Y0211308D01*
X0520679Y0210781D01*
X0521313Y0210146D01*
X0521840Y0209421D01*
X0521965Y0209175D01*
X0522090Y0209421D01*
X0522617Y0210146D01*
X0523252Y0210781D01*
X0523978Y0211308D01*
X0524777Y0211715D01*
X0525630Y0211993D01*
X0526517Y0212133D01*
X0526965Y0212133D01*
X0526965Y0206433D01*
X0526965Y0206433D01*
X0526965Y0206433D01*
X0526965Y0200733D01*
X0527414Y0200733D01*
X0528300Y0200873D01*
X0529153Y0201151D01*
X0529953Y0201558D01*
X0530679Y0202085D01*
X0531313Y0202720D01*
X0531965Y0203691D02*
X0531965Y0179133D01*
X0527965Y0179133D02*
X0527965Y0200820D01*
X0526965Y0202933D02*
X0526965Y0202933D01*
X0523965Y0201567D02*
X0523965Y0179133D01*
X0519965Y0179133D02*
X0519965Y0201567D01*
X0521468Y0202933D02*
X0522463Y0202933D01*
X0523965Y0206433D02*
X0523965Y0206433D01*
X0526965Y0206433D02*
X0526965Y0212133D01*
X0527414Y0212133D01*
X0528300Y0211993D01*
X0529153Y0211715D01*
X0529953Y0211308D01*
X0530679Y0210781D01*
X0531313Y0210146D01*
X0531840Y0209421D01*
X0532248Y0208621D01*
X0532525Y0207768D01*
X0532665Y0206882D01*
X0532665Y0206433D01*
X0526965Y0206433D01*
X0526965Y0206433D01*
X0526965Y0206933D02*
X0526965Y0206933D01*
X0527965Y0206433D02*
X0527965Y0206433D01*
X0531965Y0206433D02*
X0531965Y0206433D01*
X0532657Y0206933D02*
X0609968Y0206933D01*
X0609965Y0210933D02*
X0530469Y0210933D01*
X0531965Y0209175D02*
X0531965Y0229133D01*
X0527965Y0229133D02*
X0527965Y0212046D01*
X0526965Y0210933D02*
X0526965Y0210933D01*
X0523965Y0211299D02*
X0523965Y0229133D01*
X0519965Y0229133D02*
X0519965Y0211299D01*
X0520469Y0210933D02*
X0523462Y0210933D01*
X0519965Y0206433D02*
X0519965Y0206433D01*
X0516965Y0206433D02*
X0516965Y0206433D01*
X0516965Y0206933D02*
X0516965Y0206933D01*
X0515965Y0206433D02*
X0515965Y0206433D01*
X0516965Y0202933D02*
X0516965Y0202933D01*
X0515965Y0200820D02*
X0515965Y0179133D01*
X0511965Y0179133D02*
X0511965Y0203691D01*
X0512463Y0202933D02*
X0501865Y0202933D01*
X0501919Y0206933D02*
X0511273Y0206933D01*
X0511965Y0206433D02*
X0511965Y0206433D01*
X0511965Y0209175D02*
X0511965Y0229133D01*
X0511365Y0226933D02*
X0638219Y0226933D01*
X0639965Y0228679D02*
X0639965Y0237599D01*
X0641865Y0238933D02*
X0666615Y0238933D01*
X0666615Y0234933D02*
X0571602Y0234933D01*
X0571965Y0235296D02*
X0571965Y0179133D01*
X0567965Y0179133D02*
X0567965Y0231296D01*
X0567602Y0230933D02*
X0642836Y0230933D01*
X0643965Y0231258D02*
X0643965Y0240180D01*
X0646965Y0239133D02*
X0647343Y0239133D01*
X0648089Y0239251D01*
X0648808Y0239485D01*
X0649481Y0239828D01*
X0650092Y0240272D01*
X0650626Y0240806D01*
X0651071Y0241417D01*
X0651414Y0242091D01*
X0651647Y0242809D01*
X0651765Y0243555D01*
X0651765Y0243933D01*
X0646965Y0243933D01*
X0646965Y0243933D01*
X0646965Y0239133D01*
X0647965Y0239232D02*
X0647965Y0231258D01*
X0651965Y0231258D02*
X0651965Y0281191D01*
X0652090Y0280946D02*
X0652617Y0280220D01*
X0653252Y0279585D01*
X0653978Y0279058D01*
X0654777Y0278651D01*
X0655630Y0278373D01*
X0656517Y0278233D01*
X0656965Y0278233D01*
X0656965Y0283933D01*
X0651265Y0283933D01*
X0651265Y0283484D01*
X0651406Y0282598D01*
X0651683Y0281745D01*
X0652090Y0280946D01*
X0651353Y0282933D02*
X0634865Y0282933D01*
X0634273Y0286933D02*
X0652099Y0286933D01*
X0652090Y0286921D02*
X0651683Y0286121D01*
X0651406Y0285268D01*
X0651265Y0284382D01*
X0651265Y0283933D01*
X0656965Y0283933D01*
X0656965Y0283933D01*
X0656965Y0283933D01*
X0656965Y0289633D01*
X0656517Y0289633D01*
X0655630Y0289493D01*
X0654777Y0289215D01*
X0653978Y0288808D01*
X0653252Y0288281D01*
X0652617Y0287646D01*
X0652090Y0286921D01*
X0651965Y0286675D02*
X0651965Y0315296D01*
X0651602Y0314933D02*
X0730565Y0314933D01*
X0730565Y0310933D02*
X0647602Y0310933D01*
X0647965Y0311296D02*
X0647965Y0254234D01*
X0648089Y0254215D02*
X0647343Y0254333D01*
X0646965Y0254333D01*
X0646965Y0243933D01*
X0646965Y0243933D01*
X0651765Y0243933D01*
X0651765Y0249911D01*
X0651647Y0250657D01*
X0651414Y0251376D01*
X0651071Y0252049D01*
X0650626Y0252660D01*
X0650092Y0253194D01*
X0649481Y0253638D01*
X0648808Y0253981D01*
X0648089Y0254215D01*
X0646965Y0250933D02*
X0646965Y0250933D01*
X0643965Y0253287D02*
X0643965Y0307296D01*
X0643602Y0306933D02*
X0730565Y0306933D01*
X0730565Y0302933D02*
X0639602Y0302933D01*
X0639965Y0303296D02*
X0639965Y0264587D01*
X0641475Y0262933D02*
X0670844Y0262933D01*
X0671965Y0264054D02*
X0671965Y0327933D01*
X0667965Y0327933D02*
X0667965Y0260054D01*
X0667156Y0258933D02*
X0642165Y0258933D01*
X0642165Y0254933D02*
X0666615Y0254933D01*
X0666615Y0250933D02*
X0651557Y0250933D01*
X0651765Y0246933D02*
X0666615Y0246933D01*
X0666615Y0242933D02*
X0651667Y0242933D01*
X0647965Y0243933D02*
X0647965Y0243933D01*
X0646965Y0242933D02*
X0646965Y0242933D01*
X0646965Y0246933D02*
X0646965Y0246933D01*
X0636965Y0243933D02*
X0636965Y0260233D01*
X0618065Y0279133D01*
X0611965Y0274516D02*
X0611965Y0265075D01*
X0609823Y0262933D02*
X0599602Y0262933D01*
X0599965Y0263296D02*
X0599965Y0179133D01*
X0595965Y0179133D02*
X0595965Y0259296D01*
X0595602Y0258933D02*
X0609362Y0258933D01*
X0610623Y0254933D02*
X0591602Y0254933D01*
X0591965Y0255296D02*
X0591965Y0179133D01*
X0587965Y0179133D02*
X0587965Y0251296D01*
X0587602Y0250933D02*
X0609968Y0250933D01*
X0609965Y0246933D02*
X0583602Y0246933D01*
X0583965Y0247296D02*
X0583965Y0179133D01*
X0579965Y0179133D02*
X0579965Y0243296D01*
X0579602Y0242933D02*
X0609965Y0242933D01*
X0611965Y0239034D02*
X0611965Y0218833D01*
X0612066Y0218933D02*
X0509365Y0218933D01*
X0508897Y0214933D02*
X0609965Y0214933D01*
X0615965Y0220933D02*
X0615965Y0236933D01*
X0619965Y0237599D02*
X0619965Y0220267D01*
X0621865Y0218933D02*
X0622066Y0218933D01*
X0623965Y0220267D02*
X0623965Y0237599D01*
X0622066Y0238933D02*
X0621865Y0238933D01*
X0612066Y0238933D02*
X0575602Y0238933D01*
X0575965Y0239296D02*
X0575965Y0179133D01*
X0563965Y0179133D02*
X0563965Y0229133D01*
X0559965Y0229133D02*
X0559965Y0179133D01*
X0555965Y0179133D02*
X0555965Y0229133D01*
X0551965Y0229133D02*
X0551965Y0179133D01*
X0547965Y0179133D02*
X0547965Y0229133D01*
X0543965Y0229133D02*
X0543965Y0179133D01*
X0539965Y0179133D02*
X0539965Y0229133D01*
X0535965Y0229133D02*
X0535965Y0179133D01*
X0535965Y0166733D02*
X0535965Y0153833D01*
X0531965Y0153833D02*
X0531965Y0166733D01*
X0527965Y0166733D02*
X0527965Y0153833D01*
X0523965Y0153833D02*
X0523965Y0166733D01*
X0519965Y0166733D02*
X0519965Y0153833D01*
X0515965Y0153833D02*
X0515965Y0166733D01*
X0511965Y0166733D02*
X0511965Y0153833D01*
X0507965Y0153833D02*
X0507965Y0166733D01*
X0503965Y0166733D02*
X0503965Y0153833D01*
X0499965Y0153833D02*
X0499965Y0166733D01*
X0495965Y0166733D02*
X0495965Y0153833D01*
X0491965Y0153833D02*
X0491965Y0166733D01*
X0487965Y0166733D02*
X0487965Y0153833D01*
X0483965Y0153833D02*
X0483965Y0166733D01*
X0479965Y0166733D02*
X0479965Y0153833D01*
X0475965Y0153833D02*
X0475965Y0166733D01*
X0471965Y0166733D02*
X0471965Y0153833D01*
X0467965Y0153833D02*
X0467965Y0166733D01*
X0463965Y0166733D02*
X0463965Y0153833D01*
X0459965Y0153833D02*
X0459965Y0166733D01*
X0455965Y0166733D02*
X0455965Y0153833D01*
X0451965Y0153833D02*
X0451965Y0166733D01*
X0447965Y0166733D02*
X0447965Y0153833D01*
X0443965Y0153833D02*
X0443965Y0166733D01*
X0439965Y0166733D02*
X0439965Y0153833D01*
X0435965Y0153833D02*
X0435965Y0166733D01*
X0431965Y0166733D02*
X0431965Y0153833D01*
X0427965Y0153833D02*
X0427965Y0166733D01*
X0423965Y0166733D02*
X0423965Y0153833D01*
X0419965Y0153833D02*
X0419965Y0166733D01*
X0415965Y0166733D02*
X0415965Y0153833D01*
X0411965Y0153833D02*
X0411965Y0166733D01*
X0407965Y0166733D02*
X0407965Y0153833D01*
X0403965Y0153833D02*
X0403965Y0166733D01*
X0399965Y0166733D02*
X0399965Y0153833D01*
X0395965Y0153833D02*
X0395965Y0166733D01*
X0391965Y0166733D02*
X0391965Y0153833D01*
X0387965Y0153833D02*
X0387965Y0166733D01*
X0383965Y0166733D02*
X0383965Y0153833D01*
X0379965Y0153833D02*
X0379965Y0166733D01*
X0375965Y0166733D02*
X0375965Y0153833D01*
X0371965Y0153833D02*
X0371965Y0166733D01*
X0367965Y0166733D02*
X0367965Y0153833D01*
X0363965Y0153833D02*
X0363965Y0166733D01*
X0359965Y0166733D02*
X0359965Y0153833D01*
X0356987Y0154933D02*
X0718302Y0154933D01*
X0719965Y0155581D02*
X0719965Y0162149D01*
X0720108Y0162102D02*
X0720971Y0161966D01*
X0724782Y0161966D01*
X0724782Y0167341D01*
X0715857Y0167341D01*
X0715857Y0167079D01*
X0715994Y0166216D01*
X0716264Y0165385D01*
X0716661Y0164607D01*
X0717174Y0163900D01*
X0717792Y0163282D01*
X0718498Y0162769D01*
X0719277Y0162372D01*
X0720108Y0162102D01*
X0718273Y0162933D02*
X0351103Y0162933D01*
X0351965Y0161761D02*
X0351965Y0166733D01*
X0349949Y0166933D02*
X0348161Y0166933D01*
X0347965Y0167200D02*
X0347965Y0167865D01*
X0355965Y0166733D02*
X0355965Y0156322D01*
X0354045Y0158933D02*
X0738001Y0158933D01*
X0738001Y0154933D02*
X0731612Y0154933D01*
X0731965Y0154787D02*
X0731965Y0163168D01*
X0732123Y0163282D02*
X0732741Y0163900D01*
X0733254Y0164607D01*
X0733651Y0165385D01*
X0733921Y0166216D01*
X0734057Y0167079D01*
X0734057Y0167341D01*
X0725132Y0167341D01*
X0725132Y0161966D01*
X0728944Y0161966D01*
X0729807Y0162102D01*
X0730638Y0162372D01*
X0731416Y0162769D01*
X0732123Y0163282D01*
X0731642Y0162933D02*
X0738001Y0162933D01*
X0738001Y0166933D02*
X0734034Y0166933D01*
X0734057Y0167691D02*
X0734057Y0167953D01*
X0733921Y0168815D01*
X0733651Y0169646D01*
X0733254Y0170425D01*
X0732741Y0171131D01*
X0732123Y0171749D01*
X0731416Y0172263D01*
X0730638Y0172659D01*
X0729807Y0172929D01*
X0728944Y0173066D01*
X0725132Y0173066D01*
X0725132Y0167691D01*
X0724782Y0167691D01*
X0724782Y0173066D01*
X0720971Y0173066D01*
X0720108Y0172929D01*
X0719277Y0172659D01*
X0718498Y0172263D01*
X0717792Y0171749D01*
X0717174Y0171131D01*
X0716661Y0170425D01*
X0716264Y0169646D01*
X0715994Y0168815D01*
X0715857Y0167953D01*
X0715857Y0167691D01*
X0724782Y0167691D01*
X0724782Y0167341D01*
X0725132Y0167341D01*
X0725132Y0167691D01*
X0734057Y0167691D01*
X0731965Y0167691D02*
X0731965Y0167341D01*
X0732885Y0170933D02*
X0738001Y0170933D01*
X0738001Y0174933D02*
X0689233Y0174933D01*
X0687965Y0173665D02*
X0687965Y0153833D01*
X0683965Y0153833D02*
X0683965Y0169665D01*
X0685233Y0170933D02*
X0717030Y0170933D01*
X0715965Y0168634D02*
X0715965Y0181683D01*
X0714787Y0182933D02*
X0697233Y0182933D01*
X0695965Y0181665D02*
X0695965Y0153833D01*
X0691965Y0153833D02*
X0691965Y0177665D01*
X0693233Y0178933D02*
X0738001Y0178933D01*
X0738001Y0182933D02*
X0735128Y0182933D01*
X0735965Y0184954D02*
X0735965Y0150077D01*
X0735611Y0150933D02*
X0738001Y0150933D01*
X0738001Y0146933D02*
X0736257Y0146933D01*
X0735965Y0145584D02*
X0735965Y0123133D01*
X0731965Y0123133D02*
X0731965Y0140874D01*
X0734570Y0142933D02*
X0738001Y0142933D01*
X0727965Y0140081D02*
X0727965Y0123133D01*
X0723965Y0123133D02*
X0723965Y0140081D01*
X0719965Y0140081D02*
X0719965Y0123133D01*
X0724957Y0147831D02*
X0724265Y0148633D01*
X0355165Y0148633D01*
X0327365Y0186433D01*
X0326965Y0186433D01*
X0323965Y0179125D02*
X0323965Y0123133D01*
X0319965Y0123133D02*
X0319965Y0181567D01*
X0316965Y0180733D02*
X0316965Y0186433D01*
X0316965Y0186433D01*
X0306965Y0186433D01*
X0306965Y0192133D01*
X0306517Y0192133D01*
X0305630Y0191993D01*
X0304777Y0191715D01*
X0303978Y0191308D01*
X0303563Y0191007D01*
X0301440Y0193130D01*
X0298537Y0194333D01*
X0295394Y0194333D01*
X0292490Y0193130D01*
X0291965Y0192605D01*
X0291440Y0193130D01*
X0288537Y0194333D01*
X0285394Y0194333D01*
X0282490Y0193130D01*
X0281965Y0192605D01*
X0281440Y0193130D01*
X0278537Y0194333D01*
X0275394Y0194333D01*
X0272490Y0193130D01*
X0270790Y0191430D01*
X0270790Y0199166D01*
X0270904Y0199440D01*
X0271078Y0199267D01*
X0271740Y0198786D01*
X0272469Y0198414D01*
X0273248Y0198161D01*
X0274056Y0198033D01*
X0274465Y0198033D01*
X0274465Y0206433D01*
X0274465Y0206433D01*
X0274465Y0214833D01*
X0274056Y0214833D01*
X0273248Y0214705D01*
X0272469Y0214452D01*
X0271740Y0214080D01*
X0271078Y0213599D01*
X0270904Y0213426D01*
X0270739Y0213825D01*
X0268657Y0215906D01*
X0265937Y0217033D01*
X0262993Y0217033D01*
X0260273Y0215906D01*
X0259504Y0215137D01*
X0257965Y0216676D01*
X0257965Y0219088D01*
X0258578Y0219433D01*
X0258840Y0219766D01*
X0259178Y0220020D01*
X0259595Y0220727D01*
X0260102Y0221372D01*
X0260216Y0221780D01*
X0265205Y0230233D01*
X0290866Y0230233D01*
X0287910Y0227277D01*
X0286453Y0228733D01*
X0284465Y0228733D01*
X0282477Y0228733D01*
X0279665Y0225921D01*
X0279665Y0223933D01*
X0279665Y0221945D01*
X0282477Y0219133D01*
X0284465Y0219133D01*
X0284465Y0223933D01*
X0279665Y0223933D01*
X0284465Y0223933D01*
X0284465Y0223933D01*
X0284465Y0223933D01*
X0284465Y0228733D01*
X0284465Y0223933D01*
X0284465Y0223933D01*
X0284465Y0219133D01*
X0286453Y0219133D01*
X0287910Y0220589D01*
X0288865Y0219634D01*
X0288865Y0218287D01*
X0287121Y0216543D01*
X0285937Y0217033D01*
X0282993Y0217033D01*
X0280273Y0215906D01*
X0278192Y0213825D01*
X0278026Y0213426D01*
X0277853Y0213599D01*
X0277191Y0214080D01*
X0276461Y0214452D01*
X0275683Y0214705D01*
X0274874Y0214833D01*
X0274465Y0214833D01*
X0274465Y0206433D01*
X0274465Y0206433D01*
X0274465Y0198033D01*
X0274874Y0198033D01*
X0275683Y0198161D01*
X0276461Y0198414D01*
X0277191Y0198786D01*
X0277853Y0199267D01*
X0278026Y0199440D01*
X0278192Y0199041D01*
X0280273Y0196960D01*
X0282993Y0195833D01*
X0285937Y0195833D01*
X0288657Y0196960D01*
X0290739Y0199041D01*
X0291865Y0201761D01*
X0291865Y0206579D01*
X0298474Y0213187D01*
X0299265Y0215099D01*
X0299265Y0218834D01*
X0300765Y0220334D01*
X0300765Y0216400D01*
X0301709Y0214121D01*
X0303453Y0212377D01*
X0303453Y0212377D01*
X0322638Y0193192D01*
X0322490Y0193130D01*
X0320367Y0191007D01*
X0319953Y0191308D01*
X0319153Y0191715D01*
X0318300Y0191993D01*
X0317414Y0192133D01*
X0316965Y0192133D01*
X0316517Y0192133D01*
X0315630Y0191993D01*
X0314777Y0191715D01*
X0313978Y0191308D01*
X0313252Y0190781D01*
X0312617Y0190146D01*
X0312090Y0189421D01*
X0311965Y0189175D01*
X0311840Y0189421D01*
X0311313Y0190146D01*
X0310679Y0190781D01*
X0309953Y0191308D01*
X0309153Y0191715D01*
X0308300Y0191993D01*
X0307414Y0192133D01*
X0306965Y0192133D01*
X0306965Y0186433D01*
X0306965Y0186433D01*
X0306965Y0180733D01*
X0307414Y0180733D01*
X0308300Y0180873D01*
X0309153Y0181151D01*
X0309953Y0181558D01*
X0310679Y0182085D01*
X0311313Y0182720D01*
X0311840Y0183446D01*
X0311965Y0183691D01*
X0312090Y0183446D01*
X0312617Y0182720D01*
X0313252Y0182085D01*
X0313978Y0181558D01*
X0314777Y0181151D01*
X0315630Y0180873D01*
X0316517Y0180733D01*
X0316965Y0180733D01*
X0315965Y0180820D02*
X0315965Y0123133D01*
X0311965Y0123133D02*
X0311965Y0183691D01*
X0311468Y0182933D02*
X0312463Y0182933D01*
X0311965Y0186433D02*
X0311965Y0186433D01*
X0311965Y0189175D02*
X0311965Y0203865D01*
X0312897Y0202933D02*
X0291865Y0202933D01*
X0291965Y0206679D02*
X0291965Y0192605D01*
X0287965Y0194333D02*
X0287965Y0196673D01*
X0290630Y0198933D02*
X0316897Y0198933D01*
X0315965Y0199865D02*
X0315965Y0192046D01*
X0316965Y0192133D02*
X0316965Y0186433D01*
X0316965Y0186433D01*
X0316965Y0186433D01*
X0316965Y0192133D01*
X0316965Y0190933D02*
X0316965Y0190933D01*
X0319965Y0191299D02*
X0319965Y0195865D01*
X0320897Y0194933D02*
X0270790Y0194933D01*
X0271965Y0192605D02*
X0271965Y0198671D01*
X0271537Y0198933D02*
X0270790Y0198933D01*
X0274465Y0198933D02*
X0274465Y0198933D01*
X0275965Y0198253D02*
X0275965Y0194333D01*
X0279965Y0193741D02*
X0279965Y0197268D01*
X0278300Y0198933D02*
X0277394Y0198933D01*
X0274465Y0202933D02*
X0274465Y0202933D01*
X0274465Y0206933D02*
X0274465Y0206933D01*
X0274465Y0210933D02*
X0274465Y0210933D01*
X0275965Y0214613D02*
X0275965Y0220650D01*
X0277115Y0221800D02*
X0277115Y0223933D01*
X0271965Y0223933D01*
X0266815Y0223933D01*
X0266815Y0221800D01*
X0269832Y0218783D01*
X0271965Y0218783D01*
X0271965Y0223933D01*
X0271965Y0223933D01*
X0266815Y0223933D01*
X0266815Y0226066D01*
X0269832Y0229083D01*
X0271965Y0229083D01*
X0271965Y0223933D01*
X0271965Y0223933D01*
X0271965Y0214195D01*
X0269630Y0214933D02*
X0279300Y0214933D01*
X0279965Y0215598D02*
X0279965Y0221645D01*
X0279665Y0222933D02*
X0277115Y0222933D01*
X0277115Y0223933D02*
X0277115Y0226066D01*
X0274098Y0229083D01*
X0271965Y0229083D01*
X0271965Y0223933D01*
X0271965Y0223933D01*
X0271965Y0218783D01*
X0274098Y0218783D01*
X0277115Y0221800D01*
X0277115Y0223933D02*
X0271965Y0223933D01*
X0271965Y0230233D01*
X0271965Y0226933D02*
X0271965Y0226933D01*
X0271965Y0223933D02*
X0271965Y0223933D01*
X0271965Y0222933D02*
X0271965Y0222933D01*
X0271965Y0218933D02*
X0271965Y0218933D01*
X0269682Y0218933D02*
X0257965Y0218933D01*
X0259965Y0221198D02*
X0259965Y0215598D01*
X0263965Y0217033D02*
X0263965Y0228132D01*
X0263258Y0226933D02*
X0267682Y0226933D01*
X0267965Y0227216D02*
X0267965Y0230233D01*
X0267965Y0223933D02*
X0267965Y0223933D01*
X0266815Y0222933D02*
X0260897Y0222933D01*
X0267965Y0220650D02*
X0267965Y0216193D01*
X0274248Y0218933D02*
X0288865Y0218933D01*
X0287965Y0217387D02*
X0287965Y0220534D01*
X0283965Y0219133D02*
X0283965Y0217033D01*
X0284465Y0222933D02*
X0284465Y0222933D01*
X0283965Y0223933D02*
X0283965Y0223933D01*
X0284465Y0226933D02*
X0284465Y0226933D01*
X0283965Y0228733D02*
X0283965Y0230233D01*
X0279965Y0230233D02*
X0279965Y0226221D01*
X0280677Y0226933D02*
X0276248Y0226933D01*
X0275965Y0227216D02*
X0275965Y0230233D01*
X0275965Y0223933D02*
X0275965Y0223933D01*
X0279965Y0223933D02*
X0279965Y0223933D01*
X0287965Y0227333D02*
X0287965Y0230233D01*
X0294465Y0223933D02*
X0294065Y0223333D01*
X0294065Y0216133D01*
X0285065Y0207133D01*
X0284465Y0206433D01*
X0292219Y0206933D02*
X0308897Y0206933D01*
X0307965Y0207865D02*
X0307965Y0192046D01*
X0306965Y0190933D02*
X0306965Y0190933D01*
X0303965Y0191299D02*
X0303965Y0211865D01*
X0304897Y0210933D02*
X0296219Y0210933D01*
X0295965Y0210679D02*
X0295965Y0194333D01*
X0299965Y0193741D02*
X0299965Y0219534D01*
X0299365Y0218933D02*
X0300765Y0218933D01*
X0301373Y0214933D02*
X0299197Y0214933D01*
X0314433Y0218933D02*
X0316565Y0218933D01*
X0315965Y0219539D02*
X0315965Y0217401D01*
X0314615Y0222933D02*
X0313165Y0222933D01*
X0313165Y0226933D02*
X0314615Y0226933D01*
X0319265Y0234933D02*
X0309733Y0234933D01*
X0307965Y0236701D02*
X0307965Y0265296D01*
X0295965Y0283816D02*
X0295965Y0242633D01*
X0299965Y0242633D02*
X0299965Y0289908D01*
X0298043Y0286933D02*
X0357937Y0286933D01*
X0355965Y0280933D02*
X0355965Y0307091D01*
X0360440Y0313333D02*
X0344365Y0313333D01*
X0328340Y0303933D02*
X0319940Y0303933D01*
X0319940Y0303933D01*
X0319940Y0298733D01*
X0319940Y0298933D02*
X0319940Y0298933D01*
X0319940Y0302933D02*
X0319940Y0302933D01*
X0319940Y0303933D02*
X0319940Y0303933D01*
X0319965Y0303933D02*
X0319965Y0303933D01*
X0315965Y0303933D02*
X0315965Y0303933D01*
X0311965Y0303933D02*
X0311965Y0303933D01*
X0311634Y0302933D02*
X0310965Y0302933D01*
X0311965Y0306016D02*
X0311965Y0308243D01*
X0312492Y0306933D02*
X0310965Y0306933D01*
X0305765Y0309958D02*
X0309740Y0313933D01*
X0319940Y0313933D01*
X0321965Y0313333D01*
X0314765Y0313333D01*
X0305765Y0309958D02*
X0305765Y0297808D01*
X0303065Y0295108D01*
X0296540Y0295108D01*
X0290465Y0289033D01*
X0283965Y0293250D02*
X0283965Y0301900D01*
X0283659Y0302933D02*
X0244365Y0302933D01*
X0236865Y0290933D02*
X0282887Y0290933D01*
X0291965Y0297887D02*
X0291965Y0303933D01*
X0291965Y0303933D01*
X0291965Y0302933D02*
X0291965Y0302933D01*
X0291965Y0298933D02*
X0291965Y0298933D01*
X0287965Y0303933D02*
X0287965Y0303933D01*
X0283965Y0303933D02*
X0283965Y0303933D01*
X0291965Y0313933D02*
X0292265Y0314233D01*
X0294065Y0314233D01*
X0317465Y0337633D01*
X0317465Y0379033D01*
X0289565Y0406933D01*
X0285965Y0406933D01*
X0285465Y0407433D01*
X0281965Y0403933D01*
X0285465Y0407433D02*
X0285715Y0407683D01*
X0285715Y0433933D01*
X0286965Y0435183D01*
X0286965Y0466728D01*
X0277415Y0466278D02*
X0276965Y0466728D01*
X0277415Y0466278D02*
X0277415Y0452383D01*
X0258965Y0428933D01*
X0258215Y0428933D01*
X0257840Y0445633D02*
X0263915Y0451708D01*
X0257840Y0445633D02*
X0195740Y0445358D01*
X0188315Y0453733D01*
X0188315Y0471958D01*
X0213690Y0497333D01*
X0243940Y0497333D01*
X0250415Y0490858D01*
X0284840Y0490858D01*
X0291965Y0483733D01*
X0291965Y0476728D01*
X0281965Y0476728D02*
X0281965Y0479558D01*
X0278090Y0483433D01*
X0251490Y0483433D01*
X0245690Y0476683D01*
X0241640Y0469933D02*
X0234615Y0481408D01*
X0230565Y0486533D01*
X0224860Y0486533D01*
X0219760Y0486433D01*
X0219940Y0486433D01*
X0197090Y0463583D01*
X0197090Y0454058D01*
X0196965Y0453933D01*
X0183115Y0460494D02*
X0182976Y0460576D01*
X0182711Y0460841D01*
X0182093Y0461097D01*
X0181517Y0461437D01*
X0181146Y0461490D01*
X0180800Y0461633D01*
X0180131Y0461633D01*
X0179468Y0461727D01*
X0179106Y0461633D01*
X0156807Y0461633D01*
X0154826Y0463613D01*
X0151978Y0464793D01*
X0141795Y0464793D01*
X0138946Y0463613D01*
X0136766Y0461433D01*
X0136165Y0459982D01*
X0136165Y0473790D01*
X0136766Y0472338D01*
X0138946Y0470158D01*
X0141795Y0468978D01*
X0151978Y0468978D01*
X0154826Y0470158D01*
X0156197Y0471528D01*
X0166565Y0471528D01*
X0166565Y0470157D01*
X0167768Y0467253D01*
X0169990Y0465031D01*
X0172894Y0463828D01*
X0176037Y0463828D01*
X0178940Y0465031D01*
X0181162Y0467253D01*
X0182365Y0470157D01*
X0182365Y0473300D01*
X0181162Y0476203D01*
X0178940Y0478426D01*
X0176037Y0479628D01*
X0173919Y0479628D01*
X0173874Y0479674D01*
X0172411Y0481137D01*
X0170500Y0481928D01*
X0156197Y0481928D01*
X0154826Y0483298D01*
X0151978Y0484478D01*
X0141795Y0484478D01*
X0138946Y0483298D01*
X0136766Y0481118D01*
X0136165Y0479667D01*
X0136165Y0508729D01*
X0254122Y0508733D01*
X0253564Y0508175D01*
X0252182Y0505781D01*
X0251466Y0503111D01*
X0251466Y0500346D01*
X0252182Y0497676D01*
X0253116Y0496058D01*
X0252569Y0496058D01*
X0248349Y0500279D01*
X0246886Y0501741D01*
X0244975Y0502533D01*
X0212656Y0502533D01*
X0210745Y0501741D01*
X0185370Y0476366D01*
X0183907Y0474904D01*
X0183115Y0472992D01*
X0183115Y0460494D01*
X0183115Y0462933D02*
X0155507Y0462933D01*
X0155965Y0462475D02*
X0155965Y0471297D01*
X0155601Y0470933D02*
X0166565Y0470933D01*
X0163965Y0471528D02*
X0163965Y0461633D01*
X0159965Y0461633D02*
X0159965Y0471528D01*
X0151965Y0468978D02*
X0151965Y0464793D01*
X0147965Y0464793D02*
X0147965Y0468978D01*
X0143965Y0468978D02*
X0143965Y0464793D01*
X0139965Y0464035D02*
X0139965Y0469736D01*
X0138172Y0470933D02*
X0136165Y0470933D01*
X0136165Y0466933D02*
X0168088Y0466933D01*
X0167965Y0467056D02*
X0167965Y0461633D01*
X0171965Y0461633D02*
X0171965Y0464213D01*
X0175965Y0463828D02*
X0175965Y0461633D01*
X0179965Y0461656D02*
X0179965Y0466056D01*
X0180842Y0466933D02*
X0183115Y0466933D01*
X0183115Y0470933D02*
X0182365Y0470933D01*
X0181689Y0474933D02*
X0183936Y0474933D01*
X0183965Y0474962D02*
X0183965Y0508731D01*
X0179965Y0508731D02*
X0179965Y0477401D01*
X0177715Y0478933D02*
X0187936Y0478933D01*
X0187965Y0478962D02*
X0187965Y0508731D01*
X0191965Y0508731D02*
X0191965Y0482962D01*
X0191936Y0482933D02*
X0155192Y0482933D01*
X0155965Y0482160D02*
X0155965Y0495842D01*
X0155986Y0495977D02*
X0155850Y0495114D01*
X0155580Y0494283D01*
X0155183Y0493505D01*
X0154670Y0492798D01*
X0154052Y0492180D01*
X0153345Y0491667D01*
X0152567Y0491270D01*
X0151736Y0491000D01*
X0150873Y0490863D01*
X0147061Y0490863D01*
X0147061Y0496238D01*
X0146711Y0496238D01*
X0137786Y0496238D01*
X0137786Y0495977D01*
X0137923Y0495114D01*
X0138193Y0494283D01*
X0138590Y0493505D01*
X0139103Y0492798D01*
X0139721Y0492180D01*
X0140428Y0491667D01*
X0141206Y0491270D01*
X0142037Y0491000D01*
X0142900Y0490863D01*
X0146711Y0490863D01*
X0146711Y0496238D01*
X0146711Y0496588D01*
X0137786Y0496588D01*
X0137786Y0496850D01*
X0137923Y0497713D01*
X0138193Y0498544D01*
X0138590Y0499322D01*
X0139103Y0500029D01*
X0139721Y0500647D01*
X0140428Y0501160D01*
X0141206Y0501557D01*
X0142037Y0501827D01*
X0142900Y0501963D01*
X0146711Y0501963D01*
X0146711Y0496588D01*
X0147061Y0496588D01*
X0147061Y0501963D01*
X0150873Y0501963D01*
X0151736Y0501827D01*
X0152567Y0501557D01*
X0153345Y0501160D01*
X0154052Y0500647D01*
X0154670Y0500029D01*
X0155183Y0499322D01*
X0155580Y0498544D01*
X0155850Y0497713D01*
X0155986Y0496850D01*
X0155986Y0496588D01*
X0147062Y0496588D01*
X0147062Y0496238D01*
X0155986Y0496238D01*
X0155986Y0495977D01*
X0155965Y0496238D02*
X0155965Y0496588D01*
X0155965Y0496984D02*
X0155965Y0508730D01*
X0151965Y0508730D02*
X0151965Y0501752D01*
X0147965Y0501963D02*
X0147965Y0508730D01*
X0143965Y0508730D02*
X0143965Y0501963D01*
X0146711Y0498933D02*
X0147061Y0498933D01*
X0147965Y0496588D02*
X0147965Y0496238D01*
X0147061Y0494933D02*
X0146711Y0494933D01*
X0143965Y0496238D02*
X0143965Y0496588D01*
X0139965Y0496588D02*
X0139965Y0496238D01*
X0137982Y0494933D02*
X0136165Y0494933D01*
X0136165Y0490933D02*
X0142460Y0490933D01*
X0143965Y0490863D02*
X0143965Y0484478D01*
X0147965Y0484478D02*
X0147965Y0490863D01*
X0147061Y0490933D02*
X0146711Y0490933D01*
X0151313Y0490933D02*
X0199936Y0490933D01*
X0199965Y0490962D02*
X0199965Y0508731D01*
X0195965Y0508731D02*
X0195965Y0486962D01*
X0195936Y0486933D02*
X0136165Y0486933D01*
X0136165Y0482933D02*
X0138581Y0482933D01*
X0139965Y0483720D02*
X0139965Y0492003D01*
X0138391Y0498933D02*
X0136165Y0498933D01*
X0136165Y0502933D02*
X0251466Y0502933D01*
X0251965Y0504974D02*
X0251965Y0508733D01*
X0252847Y0506933D02*
X0136165Y0506933D01*
X0139965Y0508729D02*
X0139965Y0500824D01*
X0151965Y0496588D02*
X0151965Y0496238D01*
X0155791Y0494933D02*
X0203936Y0494933D01*
X0203965Y0494962D02*
X0203965Y0508731D01*
X0207965Y0508732D02*
X0207965Y0498962D01*
X0207936Y0498933D02*
X0155382Y0498933D01*
X0151965Y0491074D02*
X0151965Y0484478D01*
X0159965Y0481928D02*
X0159965Y0508730D01*
X0163965Y0508730D02*
X0163965Y0481928D01*
X0167965Y0481928D02*
X0167965Y0508730D01*
X0171965Y0508730D02*
X0171965Y0481321D01*
X0175965Y0479628D02*
X0175965Y0508731D01*
X0211965Y0508732D02*
X0211965Y0502247D01*
X0215965Y0502533D02*
X0215965Y0508732D01*
X0219965Y0508732D02*
X0219965Y0502533D01*
X0223965Y0502533D02*
X0223965Y0508732D01*
X0227965Y0508732D02*
X0227965Y0502533D01*
X0231965Y0502533D02*
X0231965Y0508732D01*
X0235965Y0508732D02*
X0235965Y0502533D01*
X0239965Y0502533D02*
X0239965Y0508733D01*
X0243965Y0508733D02*
X0243965Y0502533D01*
X0247965Y0500662D02*
X0247965Y0508733D01*
X0249694Y0498933D02*
X0251845Y0498933D01*
X0251965Y0498483D02*
X0251965Y0496662D01*
X0264635Y0476728D02*
X0254465Y0466558D01*
X0245015Y0466558D01*
X0241640Y0469933D01*
X0236965Y0453933D02*
X0219760Y0472683D01*
X0236965Y0453933D02*
X0254170Y0453933D01*
X0266965Y0466728D01*
X0264635Y0476728D02*
X0271965Y0476728D01*
X0296965Y0466728D02*
X0323806Y0466728D01*
X0316670Y0459593D01*
X0316670Y0436433D01*
X0305765Y0440233D02*
X0305765Y0451708D01*
X0305765Y0440233D02*
X0299465Y0433933D01*
X0299690Y0433708D01*
X0299690Y0410933D01*
X0306690Y0403933D01*
X0321965Y0403933D01*
X0350565Y0418633D02*
X0367865Y0418633D01*
X0373265Y0424033D01*
X0373265Y0438883D01*
X0373215Y0440283D01*
X0359765Y0452383D01*
X0359765Y0476683D01*
X0368540Y0484783D01*
X0377315Y0484783D01*
X0381965Y0480133D01*
X0381965Y0476728D01*
X0391965Y0476728D02*
X0391965Y0480933D01*
X0382715Y0490183D01*
X0359090Y0490183D01*
X0350315Y0481408D01*
X0350315Y0456833D01*
X0352340Y0452108D01*
X0342745Y0450358D02*
X0342215Y0450358D01*
X0341965Y0450608D01*
X0341965Y0471138D01*
X0341965Y0475583D01*
X0334115Y0483433D01*
X0308670Y0483433D01*
X0301965Y0476728D01*
X0323806Y0466728D02*
X0328215Y0471138D01*
X0342745Y0450358D02*
X0356670Y0436433D01*
X0380715Y0440283D02*
X0380715Y0428483D01*
X0390565Y0418633D01*
X0398215Y0422683D02*
X0406965Y0413933D01*
X0406565Y0413233D01*
X0406565Y0367333D01*
X0397565Y0358333D01*
X0392165Y0358333D01*
X0411965Y0339433D02*
X0416465Y0334933D01*
X0416465Y0321433D01*
X0409265Y0314233D01*
X0407465Y0314233D01*
X0406965Y0313933D01*
X0399965Y0307497D02*
X0399965Y0307487D01*
X0399517Y0306933D02*
X0381532Y0306933D01*
X0383965Y0308808D02*
X0383965Y0292429D01*
X0379965Y0292441D02*
X0379965Y0298696D01*
X0380191Y0298811D02*
X0380853Y0299292D01*
X0381432Y0299870D01*
X0381913Y0300533D01*
X0382284Y0301262D01*
X0382537Y0302040D01*
X0382665Y0302849D01*
X0382665Y0303258D01*
X0374265Y0303258D01*
X0374265Y0303258D01*
X0374265Y0298058D01*
X0377874Y0298058D01*
X0378683Y0298186D01*
X0379461Y0298439D01*
X0380191Y0298811D01*
X0380359Y0298933D02*
X0402326Y0298933D01*
X0403965Y0298733D02*
X0403965Y0292371D01*
X0399965Y0292382D02*
X0399965Y0300379D01*
X0398659Y0302933D02*
X0382665Y0302933D01*
X0379965Y0303258D02*
X0379965Y0303258D01*
X0375965Y0303258D02*
X0375965Y0303258D01*
X0374265Y0303258D02*
X0374265Y0303258D01*
X0374265Y0302933D02*
X0374265Y0302933D01*
X0371965Y0303258D02*
X0371965Y0303258D01*
X0374265Y0298933D02*
X0374265Y0298933D01*
X0375965Y0298058D02*
X0375965Y0292453D01*
X0371965Y0292464D02*
X0371965Y0298058D01*
X0365515Y0287283D02*
X0459665Y0287008D01*
X0467243Y0286933D02*
X0502978Y0286933D01*
X0503965Y0287342D02*
X0503965Y0292333D01*
X0499965Y0291933D02*
X0499965Y0284396D01*
X0498258Y0282933D02*
X0466307Y0282933D01*
X0463965Y0280591D02*
X0463965Y0273216D01*
X0464832Y0274083D02*
X0461815Y0271066D01*
X0461815Y0268933D01*
X0461815Y0266800D01*
X0464832Y0263783D01*
X0466965Y0263783D01*
X0466965Y0268933D01*
X0461815Y0268933D01*
X0466965Y0268933D01*
X0466965Y0268933D01*
X0466965Y0268933D01*
X0466965Y0274083D01*
X0464832Y0274083D01*
X0466965Y0274083D02*
X0466965Y0268933D01*
X0466965Y0268933D01*
X0466965Y0263783D01*
X0469098Y0263783D01*
X0472115Y0266800D01*
X0472115Y0268933D01*
X0466965Y0268933D01*
X0466965Y0268933D01*
X0472115Y0268933D01*
X0472115Y0271066D01*
X0469098Y0274083D01*
X0466965Y0274083D01*
X0467965Y0274083D02*
X0467965Y0291933D01*
X0466457Y0290933D02*
X0531286Y0290933D01*
X0531965Y0291612D02*
X0531965Y0296658D01*
X0535286Y0294933D02*
X0507119Y0294933D01*
X0507965Y0295779D02*
X0507965Y0287483D01*
X0511965Y0287483D02*
X0511965Y0296658D01*
X0515965Y0296658D02*
X0515965Y0287483D01*
X0519965Y0287483D02*
X0519965Y0296658D01*
X0523965Y0296658D02*
X0523965Y0287483D01*
X0527965Y0287612D02*
X0527965Y0296658D01*
X0531890Y0301858D02*
X0533465Y0303433D01*
X0533465Y0358333D01*
X0533465Y0360583D01*
X0533465Y0390733D01*
X0541965Y0388933D02*
X0541965Y0418008D01*
X0530540Y0429433D01*
X0520415Y0429433D01*
X0515715Y0434133D01*
X0515715Y0438933D01*
X0515715Y0445183D01*
X0503590Y0455283D01*
X0506965Y0463933D02*
X0499760Y0463933D01*
X0496965Y0466728D01*
X0486965Y0466728D02*
X0486965Y0458933D01*
X0508215Y0438933D01*
X0508215Y0427683D01*
X0521965Y0413933D01*
X0521765Y0413233D01*
X0510065Y0401533D01*
X0510065Y0354733D01*
X0496790Y0341458D01*
X0496790Y0331558D01*
X0479465Y0314233D01*
X0467765Y0314233D01*
X0466965Y0313933D01*
X0473958Y0307494D02*
X0474357Y0307660D01*
X0475730Y0309033D01*
X0480500Y0309033D01*
X0482411Y0309825D01*
X0499736Y0327150D01*
X0501199Y0328613D01*
X0501990Y0330524D01*
X0501990Y0339304D01*
X0514474Y0351787D01*
X0515265Y0353699D01*
X0515265Y0368586D01*
X0515394Y0368533D01*
X0518537Y0368533D01*
X0521440Y0369736D01*
X0521965Y0370261D01*
X0522490Y0369736D01*
X0525394Y0368533D01*
X0528265Y0368533D01*
X0528265Y0307058D01*
X0505656Y0307058D01*
X0503745Y0306266D01*
X0502282Y0304804D01*
X0499811Y0302333D01*
X0475113Y0302333D01*
X0475237Y0302715D01*
X0475365Y0303524D01*
X0475365Y0303933D01*
X0466965Y0303933D01*
X0466965Y0303933D01*
X0475365Y0303933D01*
X0475365Y0304342D01*
X0475237Y0305151D01*
X0474984Y0305929D01*
X0474613Y0306658D01*
X0474132Y0307321D01*
X0473958Y0307494D01*
X0474413Y0306933D02*
X0505354Y0306933D01*
X0503965Y0306358D02*
X0503965Y0341279D01*
X0505619Y0342933D02*
X0528265Y0342933D01*
X0528265Y0338933D02*
X0501990Y0338933D01*
X0501990Y0334933D02*
X0528265Y0334933D01*
X0528265Y0330933D02*
X0501990Y0330933D01*
X0499965Y0327379D02*
X0499965Y0302487D01*
X0500411Y0302933D02*
X0475272Y0302933D01*
X0475965Y0302333D02*
X0475965Y0309033D01*
X0479965Y0309033D02*
X0479965Y0302333D01*
X0483965Y0302333D02*
X0483965Y0311379D01*
X0483519Y0310933D02*
X0528265Y0310933D01*
X0527965Y0307058D02*
X0527965Y0368533D01*
X0528265Y0366933D02*
X0515265Y0366933D01*
X0515965Y0368533D02*
X0515965Y0307058D01*
X0511965Y0307058D02*
X0511965Y0349279D01*
X0513619Y0350933D02*
X0528265Y0350933D01*
X0528265Y0346933D02*
X0509619Y0346933D01*
X0507965Y0345279D02*
X0507965Y0307058D01*
X0506690Y0301858D02*
X0531890Y0301858D01*
X0535965Y0298579D02*
X0535965Y0295612D01*
X0536319Y0298933D02*
X0536765Y0298933D01*
X0541965Y0294258D02*
X0541965Y0388933D01*
X0561965Y0408933D01*
X0561965Y0413933D01*
X0568565Y0416833D02*
X0568565Y0407933D01*
X0546965Y0383933D01*
X0546965Y0278933D01*
X0535265Y0271483D01*
X0503540Y0271483D01*
X0497690Y0265633D01*
X0497690Y0261133D01*
X0489365Y0258833D02*
X0489365Y0268333D01*
X0489465Y0268933D01*
X0490265Y0269233D01*
X0504440Y0281383D01*
X0505340Y0282283D01*
X0529990Y0282283D01*
X0541965Y0294258D01*
X0552165Y0294933D02*
X0563807Y0294933D01*
X0563965Y0295162D02*
X0563965Y0363268D01*
X0564300Y0362933D02*
X0552165Y0362933D01*
X0552165Y0358933D02*
X0566965Y0358933D01*
X0566965Y0361669D02*
X0566965Y0299495D01*
X0552165Y0278117D01*
X0552165Y0278363D01*
X0552266Y0278816D01*
X0552165Y0279387D01*
X0552165Y0381938D01*
X0572339Y0404353D01*
X0572974Y0404987D01*
X0573028Y0405118D01*
X0573122Y0405223D01*
X0573422Y0406070D01*
X0573765Y0406899D01*
X0573765Y0407040D01*
X0573812Y0407173D01*
X0573765Y0408070D01*
X0573765Y0415369D01*
X0575424Y0418081D01*
X0577340Y0416166D01*
X0578985Y0415484D01*
X0586995Y0407475D01*
X0588906Y0406683D01*
X0590975Y0406683D01*
X0602636Y0406683D01*
X0616465Y0392854D01*
X0616465Y0385687D01*
X0615171Y0384393D01*
X0614357Y0385206D01*
X0613958Y0385372D01*
X0614132Y0385545D01*
X0614613Y0386208D01*
X0614984Y0386937D01*
X0615237Y0387715D01*
X0615365Y0388524D01*
X0615365Y0388933D01*
X0606965Y0388933D01*
X0598565Y0388933D01*
X0598565Y0388524D01*
X0598693Y0387715D01*
X0598946Y0386937D01*
X0599318Y0386208D01*
X0599799Y0385545D01*
X0599973Y0385372D01*
X0599573Y0385206D01*
X0597492Y0383125D01*
X0596365Y0380405D01*
X0596365Y0377461D01*
X0597492Y0374741D01*
X0598300Y0373933D01*
X0597492Y0373125D01*
X0596365Y0370405D01*
X0596365Y0367461D01*
X0597492Y0364741D01*
X0599573Y0362660D01*
X0601815Y0361731D01*
X0601815Y0301229D01*
X0562019Y0261433D01*
X0556359Y0261433D01*
X0557365Y0263862D01*
X0557365Y0267004D01*
X0557092Y0267665D01*
X0575820Y0294716D01*
X0576204Y0295101D01*
X0576380Y0295526D01*
X0576642Y0295905D01*
X0576757Y0296436D01*
X0576965Y0296938D01*
X0576965Y0297399D01*
X0577062Y0297849D01*
X0576965Y0298384D01*
X0576965Y0361669D01*
X0579357Y0362660D01*
X0581439Y0364741D01*
X0582565Y0367461D01*
X0582565Y0370405D01*
X0581439Y0373125D01*
X0580830Y0373733D01*
X0583623Y0373733D01*
X0585451Y0371905D01*
X0591729Y0371905D01*
X0596168Y0376344D01*
X0596168Y0382622D01*
X0591729Y0387061D01*
X0585451Y0387061D01*
X0582523Y0384133D01*
X0580430Y0384133D01*
X0579357Y0385206D01*
X0578958Y0385372D01*
X0579132Y0385545D01*
X0579613Y0386208D01*
X0579984Y0386937D01*
X0580237Y0387715D01*
X0580365Y0388524D01*
X0580365Y0388933D01*
X0571965Y0388933D01*
X0563565Y0388933D01*
X0563565Y0388524D01*
X0563693Y0387715D01*
X0563946Y0386937D01*
X0564318Y0386208D01*
X0564799Y0385545D01*
X0564973Y0385372D01*
X0564573Y0385206D01*
X0562492Y0383125D01*
X0561365Y0380405D01*
X0561365Y0377461D01*
X0562492Y0374741D01*
X0563300Y0373933D01*
X0562492Y0373125D01*
X0561365Y0370405D01*
X0561365Y0367461D01*
X0562492Y0364741D01*
X0564573Y0362660D01*
X0566965Y0361669D01*
X0566965Y0354933D02*
X0552165Y0354933D01*
X0552165Y0350933D02*
X0566965Y0350933D01*
X0566965Y0346933D02*
X0552165Y0346933D01*
X0552165Y0342933D02*
X0566965Y0342933D01*
X0566965Y0338933D02*
X0552165Y0338933D01*
X0552165Y0334933D02*
X0566965Y0334933D01*
X0566965Y0330933D02*
X0552165Y0330933D01*
X0552165Y0326933D02*
X0566965Y0326933D01*
X0566965Y0322933D02*
X0552165Y0322933D01*
X0552165Y0318933D02*
X0566965Y0318933D01*
X0566965Y0314933D02*
X0552165Y0314933D01*
X0552165Y0310933D02*
X0566965Y0310933D01*
X0566965Y0306933D02*
X0552165Y0306933D01*
X0552165Y0302933D02*
X0566965Y0302933D01*
X0566576Y0298933D02*
X0552165Y0298933D01*
X0552165Y0290933D02*
X0561038Y0290933D01*
X0559965Y0289384D02*
X0559965Y0390604D01*
X0560261Y0390933D02*
X0563948Y0390933D01*
X0563946Y0390929D02*
X0563693Y0390151D01*
X0563565Y0389342D01*
X0563565Y0388933D01*
X0571965Y0388933D01*
X0571965Y0388933D01*
X0571965Y0394133D01*
X0568356Y0394133D01*
X0567548Y0394005D01*
X0566769Y0393752D01*
X0566040Y0393380D01*
X0565378Y0392899D01*
X0564799Y0392321D01*
X0564318Y0391658D01*
X0563946Y0390929D01*
X0563965Y0390967D02*
X0563965Y0395049D01*
X0563861Y0394933D02*
X0614386Y0394933D01*
X0612891Y0393380D02*
X0612161Y0393752D01*
X0611383Y0394005D01*
X0610574Y0394133D01*
X0606965Y0394133D01*
X0603356Y0394133D01*
X0602548Y0394005D01*
X0601769Y0393752D01*
X0601040Y0393380D01*
X0600378Y0392899D01*
X0599799Y0392321D01*
X0599318Y0391658D01*
X0598946Y0390929D01*
X0598693Y0390151D01*
X0598565Y0389342D01*
X0598565Y0388933D01*
X0606965Y0388933D01*
X0606965Y0388933D01*
X0606965Y0394133D01*
X0606965Y0388933D01*
X0606965Y0388933D01*
X0606965Y0388933D01*
X0615365Y0388933D01*
X0615365Y0389342D01*
X0615237Y0390151D01*
X0614984Y0390929D01*
X0614613Y0391658D01*
X0614132Y0392321D01*
X0613553Y0392899D01*
X0612891Y0393380D01*
X0611965Y0393816D02*
X0611965Y0397354D01*
X0610386Y0398933D02*
X0567461Y0398933D01*
X0567965Y0399493D02*
X0567965Y0394071D01*
X0571965Y0394133D02*
X0571965Y0388933D01*
X0571965Y0388933D01*
X0571965Y0403938D01*
X0571061Y0402933D02*
X0606386Y0402933D01*
X0607965Y0401354D02*
X0607965Y0394133D01*
X0606965Y0390933D02*
X0606965Y0390933D01*
X0607965Y0388933D02*
X0607965Y0388933D01*
X0603965Y0388933D02*
X0603965Y0388933D01*
X0599965Y0388933D02*
X0599965Y0388933D01*
X0598948Y0386933D02*
X0591857Y0386933D01*
X0591965Y0386825D02*
X0591965Y0406683D01*
X0588302Y0406933D02*
X0573765Y0406933D01*
X0573765Y0410933D02*
X0583536Y0410933D01*
X0583965Y0410504D02*
X0583965Y0385575D01*
X0585323Y0386933D02*
X0579982Y0386933D01*
X0579965Y0386900D02*
X0579965Y0384598D01*
X0579965Y0388933D02*
X0579965Y0388933D01*
X0580365Y0388933D02*
X0580365Y0389342D01*
X0580237Y0390151D01*
X0579984Y0390929D01*
X0579613Y0391658D01*
X0579132Y0392321D01*
X0578553Y0392899D01*
X0577891Y0393380D01*
X0577161Y0393752D01*
X0576383Y0394005D01*
X0575574Y0394133D01*
X0571965Y0394133D01*
X0571965Y0390933D02*
X0571965Y0390933D01*
X0571965Y0388933D02*
X0580365Y0388933D01*
X0579982Y0390933D02*
X0598948Y0390933D01*
X0599965Y0392487D02*
X0599965Y0406683D01*
X0595965Y0406683D02*
X0595965Y0382825D01*
X0595857Y0382933D02*
X0597412Y0382933D01*
X0599965Y0385369D02*
X0599965Y0385379D01*
X0596365Y0378933D02*
X0596168Y0378933D01*
X0595965Y0376141D02*
X0595965Y0295379D01*
X0595519Y0294933D02*
X0576036Y0294933D01*
X0575965Y0294862D02*
X0575965Y0275379D01*
X0575519Y0274933D02*
X0562123Y0274933D01*
X0563965Y0277593D02*
X0563965Y0263379D01*
X0563519Y0262933D02*
X0556981Y0262933D01*
X0559965Y0261433D02*
X0559965Y0271816D01*
X0559354Y0270933D02*
X0571519Y0270933D01*
X0571965Y0271379D02*
X0571965Y0289149D01*
X0573200Y0290933D02*
X0591519Y0290933D01*
X0591965Y0291379D02*
X0591965Y0372141D01*
X0594757Y0374933D02*
X0597412Y0374933D01*
X0596584Y0370933D02*
X0582346Y0370933D01*
X0583965Y0373391D02*
X0583965Y0283379D01*
X0583519Y0282933D02*
X0567662Y0282933D01*
X0567965Y0283371D02*
X0567965Y0267379D01*
X0567519Y0266933D02*
X0557365Y0266933D01*
X0552730Y0278933D02*
X0552245Y0278933D01*
X0552165Y0282933D02*
X0555499Y0282933D01*
X0555965Y0283606D02*
X0555965Y0386160D01*
X0556661Y0386933D02*
X0563948Y0386933D01*
X0563965Y0386900D02*
X0563965Y0384598D01*
X0562412Y0382933D02*
X0553061Y0382933D01*
X0552165Y0378933D02*
X0561365Y0378933D01*
X0562412Y0374933D02*
X0552165Y0374933D01*
X0552165Y0370933D02*
X0561584Y0370933D01*
X0561584Y0366933D02*
X0552165Y0366933D01*
X0571965Y0378933D02*
X0588040Y0378933D01*
X0588590Y0379483D01*
X0587965Y0371905D02*
X0587965Y0287379D01*
X0587519Y0286933D02*
X0570431Y0286933D01*
X0564893Y0278933D02*
X0579519Y0278933D01*
X0579965Y0279379D02*
X0579965Y0363268D01*
X0579630Y0362933D02*
X0599300Y0362933D01*
X0599965Y0362497D02*
X0599965Y0299379D01*
X0599519Y0298933D02*
X0576965Y0298933D01*
X0576965Y0302933D02*
X0601815Y0302933D01*
X0601815Y0306933D02*
X0576965Y0306933D01*
X0576965Y0310933D02*
X0601815Y0310933D01*
X0601815Y0314933D02*
X0576965Y0314933D01*
X0576965Y0318933D02*
X0601815Y0318933D01*
X0601815Y0322933D02*
X0576965Y0322933D01*
X0576965Y0326933D02*
X0601815Y0326933D01*
X0601815Y0330933D02*
X0576965Y0330933D01*
X0576965Y0334933D02*
X0601815Y0334933D01*
X0601815Y0338933D02*
X0576965Y0338933D01*
X0576965Y0342933D02*
X0601815Y0342933D01*
X0601815Y0346933D02*
X0576965Y0346933D01*
X0576965Y0350933D02*
X0601815Y0350933D01*
X0601815Y0354933D02*
X0576965Y0354933D01*
X0576965Y0358933D02*
X0601815Y0358933D01*
X0596584Y0366933D02*
X0582346Y0366933D01*
X0587965Y0387061D02*
X0587965Y0407073D01*
X0589940Y0411883D02*
X0581815Y0420008D01*
X0581815Y0422863D01*
X0581840Y0422888D01*
X0581840Y0429433D01*
X0590715Y0438308D01*
X0590715Y0441038D01*
X0590715Y0445183D01*
X0586965Y0448933D01*
X0586965Y0466728D01*
X0596965Y0466728D02*
X0613806Y0466728D01*
X0632260Y0485183D01*
X0632465Y0485233D01*
X0651365Y0485233D01*
X0651965Y0485183D01*
X0651965Y0445033D01*
X0694565Y0400408D01*
X0694565Y0381508D01*
X0692540Y0379483D01*
X0682515Y0379483D01*
X0681965Y0378933D01*
X0674973Y0385372D02*
X0674573Y0385206D01*
X0672492Y0383125D01*
X0671365Y0380405D01*
X0671365Y0377461D01*
X0672492Y0374741D01*
X0673300Y0373933D01*
X0672492Y0373125D01*
X0671365Y0370405D01*
X0671365Y0367461D01*
X0672492Y0364741D01*
X0674573Y0362660D01*
X0676740Y0361762D01*
X0676740Y0361304D01*
X0566869Y0251433D01*
X0555638Y0251433D01*
X0555637Y0251433D01*
X0565085Y0251433D01*
X0566922Y0252194D01*
X0609647Y0294919D01*
X0611054Y0296326D01*
X0611815Y0298163D01*
X0611815Y0361607D01*
X0614357Y0362660D01*
X0616439Y0364741D01*
X0617565Y0367461D01*
X0617565Y0370405D01*
X0616439Y0373125D01*
X0615955Y0373608D01*
X0617975Y0373608D01*
X0619886Y0374400D01*
X0624611Y0379125D01*
X0626074Y0380587D01*
X0626865Y0382499D01*
X0626865Y0396042D01*
X0626074Y0397954D01*
X0609199Y0414829D01*
X0607736Y0416291D01*
X0605825Y0417083D01*
X0592094Y0417083D01*
X0589179Y0419998D01*
X0589715Y0421291D01*
X0589715Y0424434D01*
X0588513Y0427338D01*
X0587806Y0428045D01*
X0590999Y0431238D01*
X0592108Y0431238D01*
X0593400Y0431773D01*
X0593632Y0431212D01*
X0598857Y0425987D01*
X0600320Y0424525D01*
X0602231Y0423733D01*
X0613915Y0423733D01*
X0613915Y0421291D01*
X0615118Y0418388D01*
X0616615Y0416891D01*
X0616615Y0413049D01*
X0617407Y0411137D01*
X0618870Y0409675D01*
X0624965Y0403579D01*
X0624965Y0401034D01*
X0628621Y0397377D01*
X0627165Y0395921D01*
X0627165Y0393933D01*
X0627165Y0391945D01*
X0629977Y0389133D01*
X0631965Y0389133D01*
X0631965Y0393933D01*
X0627165Y0393933D01*
X0631965Y0393933D01*
X0631965Y0393933D01*
X0631965Y0393933D01*
X0631965Y0378933D01*
X0626815Y0378933D01*
X0626815Y0376800D01*
X0629832Y0373783D01*
X0631965Y0373783D01*
X0631965Y0378933D01*
X0631965Y0378933D01*
X0624419Y0378933D01*
X0623965Y0378479D02*
X0623965Y0308529D01*
X0622369Y0306933D02*
X0611815Y0306933D01*
X0611815Y0302933D02*
X0618369Y0302933D01*
X0619965Y0304529D02*
X0619965Y0374479D01*
X0620419Y0374933D02*
X0628682Y0374933D01*
X0627965Y0375650D02*
X0627965Y0368445D01*
X0627212Y0367692D02*
X0626390Y0365707D01*
X0626390Y0363753D01*
X0624615Y0361978D01*
X0624615Y0355889D01*
X0627065Y0353439D01*
X0627065Y0350059D01*
X0627887Y0348074D01*
X0629406Y0346555D01*
X0632206Y0343755D01*
X0634191Y0342933D01*
X0611815Y0342933D01*
X0611815Y0338933D02*
X0654369Y0338933D01*
X0655965Y0340529D02*
X0655965Y0361533D01*
X0656637Y0361533D02*
X0659357Y0362660D01*
X0661439Y0364741D01*
X0662565Y0367461D01*
X0662565Y0370405D01*
X0661439Y0373125D01*
X0659357Y0375206D01*
X0658958Y0375372D01*
X0659132Y0375545D01*
X0659613Y0376208D01*
X0659984Y0376937D01*
X0660237Y0377715D01*
X0660365Y0378524D01*
X0660365Y0378933D01*
X0651965Y0378933D01*
X0643565Y0378933D01*
X0643565Y0378524D01*
X0643693Y0377715D01*
X0643946Y0376937D01*
X0644318Y0376208D01*
X0644799Y0375545D01*
X0644973Y0375372D01*
X0644573Y0375206D01*
X0643700Y0374333D01*
X0635016Y0374333D01*
X0634388Y0374073D01*
X0637115Y0376800D01*
X0637115Y0378933D01*
X0631965Y0378933D01*
X0626815Y0378933D01*
X0626815Y0381066D01*
X0629832Y0384083D01*
X0631965Y0384083D01*
X0631965Y0378933D01*
X0631965Y0378933D01*
X0631965Y0372445D01*
X0631965Y0373783D02*
X0633688Y0373783D01*
X0633031Y0373511D01*
X0628731Y0369211D01*
X0627212Y0367692D01*
X0626898Y0366933D02*
X0617346Y0366933D01*
X0615965Y0364268D02*
X0615965Y0300529D01*
X0614369Y0298933D02*
X0611815Y0298933D01*
X0611965Y0296529D02*
X0611965Y0361669D01*
X0611815Y0358933D02*
X0624615Y0358933D01*
X0625571Y0354933D02*
X0611815Y0354933D01*
X0611815Y0350933D02*
X0627065Y0350933D01*
X0627965Y0347996D02*
X0627965Y0312529D01*
X0626369Y0310933D02*
X0611815Y0310933D01*
X0611815Y0314933D02*
X0630369Y0314933D01*
X0631965Y0316529D02*
X0631965Y0343996D01*
X0634191Y0342933D02*
X0641848Y0342933D01*
X0644026Y0340755D01*
X0650304Y0340755D01*
X0654743Y0345194D01*
X0654743Y0351472D01*
X0650304Y0355911D01*
X0644026Y0355911D01*
X0641848Y0353733D01*
X0637865Y0353733D01*
X0637865Y0354439D01*
X0639315Y0355889D01*
X0639315Y0361978D01*
X0638043Y0363249D01*
X0638327Y0363533D01*
X0643700Y0363533D01*
X0644573Y0362660D01*
X0647293Y0361533D01*
X0656637Y0361533D01*
X0659630Y0362933D02*
X0674300Y0362933D01*
X0675965Y0362083D02*
X0675965Y0360529D01*
X0674369Y0358933D02*
X0639315Y0358933D01*
X0638360Y0354933D02*
X0643048Y0354933D01*
X0643965Y0355850D02*
X0643965Y0363268D01*
X0644300Y0362933D02*
X0638360Y0362933D01*
X0639965Y0363533D02*
X0639965Y0353733D01*
X0647965Y0355911D02*
X0647965Y0361533D01*
X0651965Y0361533D02*
X0651965Y0354250D01*
X0651282Y0354933D02*
X0670369Y0354933D01*
X0671965Y0356529D02*
X0671965Y0366013D01*
X0671584Y0366933D02*
X0662346Y0366933D01*
X0662346Y0370933D02*
X0671584Y0370933D01*
X0671965Y0371854D02*
X0671965Y0376013D01*
X0672412Y0374933D02*
X0659630Y0374933D01*
X0659965Y0374598D02*
X0659965Y0376900D01*
X0659965Y0378933D02*
X0659965Y0378933D01*
X0660365Y0378933D02*
X0660365Y0379342D01*
X0660237Y0380151D01*
X0659984Y0380929D01*
X0659613Y0381658D01*
X0659132Y0382321D01*
X0658958Y0382494D01*
X0659357Y0382660D01*
X0661439Y0384741D01*
X0662565Y0387461D01*
X0662565Y0390405D01*
X0661439Y0393125D01*
X0659357Y0395206D01*
X0656637Y0396333D01*
X0651919Y0396333D01*
X0641374Y0406879D01*
X0639911Y0408341D01*
X0638000Y0409133D01*
X0636665Y0409133D01*
X0634865Y0410933D01*
X0632319Y0410933D01*
X0646540Y0410933D01*
X0645729Y0411744D02*
X0647611Y0409862D01*
X0649915Y0408532D01*
X0652485Y0407843D01*
X0655146Y0407843D01*
X0657716Y0408532D01*
X0660021Y0409862D01*
X0661902Y0411744D01*
X0663232Y0414048D01*
X0663921Y0416618D01*
X0663921Y0419279D01*
X0663232Y0421849D01*
X0661902Y0424154D01*
X0660021Y0426035D01*
X0657716Y0427366D01*
X0655146Y0428054D01*
X0652485Y0428054D01*
X0649915Y0427366D01*
X0647611Y0426035D01*
X0645729Y0424154D01*
X0644399Y0421849D01*
X0643710Y0419279D01*
X0643710Y0416618D01*
X0644399Y0414048D01*
X0645729Y0411744D01*
X0647965Y0409658D02*
X0647965Y0400287D01*
X0649319Y0398933D02*
X0688784Y0398933D01*
X0689365Y0398325D02*
X0689365Y0391999D01*
X0689132Y0392321D01*
X0688553Y0392899D01*
X0687891Y0393380D01*
X0687161Y0393752D01*
X0686383Y0394005D01*
X0685574Y0394133D01*
X0681965Y0394133D01*
X0678356Y0394133D01*
X0677548Y0394005D01*
X0676769Y0393752D01*
X0676040Y0393380D01*
X0675378Y0392899D01*
X0674799Y0392321D01*
X0674318Y0391658D01*
X0673946Y0390929D01*
X0673693Y0390151D01*
X0673565Y0389342D01*
X0673565Y0388933D01*
X0673565Y0388524D01*
X0673693Y0387715D01*
X0673946Y0386937D01*
X0674318Y0386208D01*
X0674799Y0385545D01*
X0674973Y0385372D01*
X0673948Y0386933D02*
X0662346Y0386933D01*
X0662346Y0390933D02*
X0673948Y0390933D01*
X0673565Y0388933D02*
X0681965Y0388933D01*
X0673565Y0388933D01*
X0675965Y0388933D02*
X0675965Y0388933D01*
X0679965Y0388933D02*
X0679965Y0388933D01*
X0681965Y0388933D02*
X0681965Y0388933D01*
X0681965Y0394133D01*
X0681965Y0388933D01*
X0681965Y0388933D01*
X0681965Y0390933D02*
X0681965Y0390933D01*
X0679965Y0394133D02*
X0679965Y0408171D01*
X0681147Y0406933D02*
X0641319Y0406933D01*
X0639965Y0408287D02*
X0639965Y0480033D01*
X0639810Y0480033D02*
X0645943Y0480033D01*
X0646765Y0479211D01*
X0646765Y0445093D01*
X0646743Y0444120D01*
X0646765Y0444061D01*
X0646765Y0443999D01*
X0647138Y0443099D01*
X0647490Y0442191D01*
X0647533Y0442145D01*
X0647557Y0442087D01*
X0648246Y0441399D01*
X0689365Y0398325D01*
X0687965Y0399791D02*
X0687965Y0393326D01*
X0689365Y0394933D02*
X0659630Y0394933D01*
X0659965Y0394598D02*
X0659965Y0409830D01*
X0661091Y0410933D02*
X0677329Y0410933D01*
X0675965Y0412362D02*
X0675965Y0393326D01*
X0683965Y0394133D02*
X0683965Y0403981D01*
X0684966Y0402933D02*
X0645319Y0402933D01*
X0643965Y0404287D02*
X0643965Y0415666D01*
X0644162Y0414933D02*
X0628319Y0414933D01*
X0627965Y0415287D02*
X0627965Y0417841D01*
X0628513Y0418388D02*
X0629715Y0421291D01*
X0629715Y0424434D01*
X0628513Y0427338D01*
X0626290Y0429560D01*
X0623387Y0430763D01*
X0622489Y0430763D01*
X0619911Y0433341D01*
X0618000Y0434133D01*
X0605419Y0434133D01*
X0604480Y0435072D01*
X0605215Y0436845D01*
X0605215Y0441530D01*
X0611186Y0444818D01*
X0611566Y0444918D01*
X0612084Y0445313D01*
X0612655Y0445627D01*
X0612900Y0445934D01*
X0613212Y0446171D01*
X0613540Y0446734D01*
X0613947Y0447243D01*
X0614056Y0447619D01*
X0614254Y0447958D01*
X0614341Y0448604D01*
X0614523Y0449230D01*
X0614479Y0449620D01*
X0614540Y0450066D01*
X0617093Y0452619D01*
X0617093Y0458897D01*
X0614462Y0461528D01*
X0614840Y0461528D01*
X0616751Y0462320D01*
X0618214Y0463783D01*
X0632614Y0478183D01*
X0636453Y0478183D01*
X0639026Y0479249D01*
X0639810Y0480033D01*
X0638264Y0478933D02*
X0646765Y0478933D01*
X0643965Y0480033D02*
X0643965Y0420231D01*
X0643710Y0418933D02*
X0628738Y0418933D01*
X0628513Y0418388D02*
X0627015Y0416891D01*
X0627015Y0416237D01*
X0632319Y0410933D01*
X0631965Y0411287D02*
X0631965Y0477534D01*
X0629364Y0474933D02*
X0646765Y0474933D01*
X0646765Y0470933D02*
X0625364Y0470933D01*
X0623965Y0469534D02*
X0623965Y0430523D01*
X0622319Y0430933D02*
X0658236Y0430933D01*
X0659965Y0429122D02*
X0659965Y0426067D01*
X0658465Y0426933D02*
X0662055Y0426933D01*
X0663965Y0424932D02*
X0663965Y0348529D01*
X0662369Y0346933D02*
X0654743Y0346933D01*
X0654743Y0350933D02*
X0666369Y0350933D01*
X0667965Y0352529D02*
X0667965Y0420742D01*
X0669692Y0418933D02*
X0663921Y0418933D01*
X0663470Y0414933D02*
X0673510Y0414933D01*
X0671965Y0416552D02*
X0671965Y0381854D01*
X0672412Y0382933D02*
X0659630Y0382933D01*
X0659965Y0383268D02*
X0659965Y0380966D01*
X0660365Y0378933D02*
X0651965Y0378933D01*
X0651965Y0378933D01*
X0631965Y0378933D01*
X0631965Y0378933D01*
X0631965Y0373783D01*
X0631965Y0374933D02*
X0631965Y0374933D01*
X0635248Y0374933D02*
X0644300Y0374933D01*
X0643965Y0374598D02*
X0643965Y0376900D01*
X0643965Y0378933D02*
X0643965Y0378933D01*
X0643565Y0378933D02*
X0651965Y0378933D01*
X0671365Y0378933D01*
X0655965Y0378933D02*
X0655965Y0378933D01*
X0651965Y0378933D02*
X0651965Y0378933D01*
X0647965Y0378933D02*
X0647965Y0378933D01*
X0643565Y0378933D02*
X0643565Y0379342D01*
X0643693Y0380151D01*
X0643946Y0380929D01*
X0644318Y0381658D01*
X0644799Y0382321D01*
X0644973Y0382494D01*
X0644573Y0382660D01*
X0642492Y0384741D01*
X0641365Y0387461D01*
X0641365Y0390405D01*
X0641885Y0391660D01*
X0635738Y0397806D01*
X0635309Y0397377D01*
X0636765Y0395921D01*
X0636765Y0393933D01*
X0631965Y0393933D01*
X0631965Y0389133D01*
X0633953Y0389133D01*
X0636765Y0391945D01*
X0636765Y0393933D01*
X0631965Y0393933D01*
X0631965Y0393933D01*
X0631965Y0390933D02*
X0631965Y0390933D01*
X0628177Y0390933D02*
X0626865Y0390933D01*
X0627965Y0391145D02*
X0627965Y0382216D01*
X0628682Y0382933D02*
X0626865Y0382933D01*
X0626865Y0386933D02*
X0641584Y0386933D01*
X0641584Y0390933D02*
X0635753Y0390933D01*
X0635965Y0391145D02*
X0635965Y0382216D01*
X0635248Y0382933D02*
X0644300Y0382933D01*
X0643965Y0383268D02*
X0643965Y0380967D01*
X0637115Y0381066D02*
X0634098Y0384083D01*
X0631965Y0384083D01*
X0631965Y0378933D01*
X0631965Y0378933D01*
X0637115Y0378933D01*
X0637115Y0381066D01*
X0635965Y0378933D02*
X0635965Y0378933D01*
X0635965Y0375650D02*
X0635965Y0374333D01*
X0639965Y0374333D02*
X0639965Y0393579D01*
X0638611Y0394933D02*
X0636765Y0394933D01*
X0635965Y0393933D02*
X0635965Y0393933D01*
X0635965Y0396721D02*
X0635965Y0397579D01*
X0636965Y0403933D02*
X0631965Y0403933D01*
X0621815Y0414083D01*
X0621815Y0422863D01*
X0621815Y0424083D01*
X0616965Y0428933D01*
X0603265Y0428933D01*
X0598040Y0434158D01*
X0598040Y0440863D01*
X0598215Y0441038D01*
X0599435Y0444283D01*
X0609240Y0449683D01*
X0609515Y0451708D01*
X0609515Y0455758D01*
X0615407Y0450933D02*
X0646765Y0450933D01*
X0646765Y0446933D02*
X0613699Y0446933D01*
X0611965Y0445222D02*
X0611965Y0434133D01*
X0607965Y0434133D02*
X0607965Y0443044D01*
X0607763Y0442933D02*
X0647202Y0442933D01*
X0647965Y0441679D02*
X0647965Y0426240D01*
X0649166Y0426933D02*
X0628680Y0426933D01*
X0627965Y0427885D02*
X0627965Y0473534D01*
X0635965Y0478183D02*
X0635965Y0409833D01*
X0636965Y0403933D02*
X0651965Y0388933D01*
X0651965Y0396333D02*
X0651965Y0407983D01*
X0655965Y0408063D02*
X0655965Y0396333D01*
X0631965Y0382933D02*
X0631965Y0382933D01*
X0627965Y0378933D02*
X0627965Y0378933D01*
X0621665Y0383533D02*
X0621665Y0395008D01*
X0604790Y0411883D01*
X0589940Y0411883D01*
X0591965Y0417212D02*
X0591965Y0431238D01*
X0590694Y0430933D02*
X0593911Y0430933D01*
X0595965Y0428879D02*
X0595965Y0417083D01*
X0599965Y0417083D02*
X0599965Y0424879D01*
X0597911Y0426933D02*
X0588680Y0426933D01*
X0587965Y0427885D02*
X0587965Y0428204D01*
X0589715Y0422933D02*
X0613915Y0422933D01*
X0611965Y0423733D02*
X0611965Y0412062D01*
X0613094Y0410933D02*
X0617611Y0410933D01*
X0615965Y0408062D02*
X0615965Y0417541D01*
X0614892Y0418933D02*
X0590244Y0418933D01*
X0579965Y0414504D02*
X0579965Y0390966D01*
X0575965Y0388933D02*
X0575965Y0388933D01*
X0571965Y0388933D02*
X0571965Y0388933D01*
X0567965Y0388933D02*
X0567965Y0388933D01*
X0563965Y0388933D02*
X0563965Y0388933D01*
X0575965Y0394071D02*
X0575965Y0417541D01*
X0573765Y0414933D02*
X0579536Y0414933D01*
X0568565Y0416833D02*
X0576440Y0429708D01*
X0576440Y0439558D01*
X0571860Y0444138D01*
X0570815Y0444138D01*
X0570670Y0444283D01*
X0552815Y0444283D01*
X0533215Y0463883D01*
X0533215Y0471138D01*
X0533215Y0477683D01*
X0526965Y0483933D01*
X0509170Y0483933D01*
X0501965Y0476728D01*
X0491965Y0476728D02*
X0491390Y0477303D01*
X0491390Y0484783D01*
X0484640Y0491533D01*
X0459665Y0491533D01*
X0448865Y0480733D01*
X0448190Y0458733D01*
X0451965Y0454008D01*
X0451965Y0455283D01*
X0457640Y0459508D02*
X0478215Y0438933D01*
X0478565Y0438583D01*
X0478565Y0423358D01*
X0474140Y0418933D01*
X0464940Y0418933D01*
X0446965Y0413933D02*
X0447065Y0413233D01*
X0500165Y0360133D01*
X0515265Y0358933D02*
X0528265Y0358933D01*
X0528265Y0354933D02*
X0515265Y0354933D01*
X0515265Y0362933D02*
X0528265Y0362933D01*
X0523965Y0369125D02*
X0523965Y0307058D01*
X0519965Y0307058D02*
X0519965Y0369125D01*
X0528265Y0326933D02*
X0499519Y0326933D01*
X0495965Y0323379D02*
X0495965Y0302333D01*
X0491965Y0302333D02*
X0491965Y0319379D01*
X0491519Y0318933D02*
X0528265Y0318933D01*
X0528265Y0314933D02*
X0487519Y0314933D01*
X0487965Y0315379D02*
X0487965Y0302333D01*
X0501965Y0297133D02*
X0506690Y0301858D01*
X0501965Y0297133D02*
X0461465Y0297133D01*
X0445265Y0313333D01*
X0437165Y0313333D01*
X0436965Y0313933D01*
X0427965Y0309268D02*
X0427965Y0292301D01*
X0431965Y0292289D02*
X0431965Y0299050D01*
X0432326Y0298933D02*
X0411604Y0298933D01*
X0411383Y0298861D02*
X0412161Y0299114D01*
X0412891Y0299486D01*
X0413553Y0299967D01*
X0414132Y0300545D01*
X0414613Y0301208D01*
X0414984Y0301937D01*
X0415237Y0302715D01*
X0415365Y0303524D01*
X0415365Y0303933D01*
X0406965Y0303933D01*
X0406965Y0303933D01*
X0406965Y0298733D01*
X0410574Y0298733D01*
X0411383Y0298861D01*
X0411965Y0299050D02*
X0411965Y0292347D01*
X0407965Y0292359D02*
X0407965Y0298733D01*
X0406965Y0298933D02*
X0406965Y0298933D01*
X0406965Y0302933D02*
X0406965Y0302933D01*
X0406965Y0303933D02*
X0406965Y0303933D01*
X0407965Y0303933D02*
X0407965Y0303933D01*
X0403965Y0303933D02*
X0403965Y0303933D01*
X0399965Y0303933D02*
X0399965Y0303933D01*
X0387965Y0309364D02*
X0387965Y0292417D01*
X0387965Y0282017D02*
X0387965Y0280828D01*
X0389860Y0278933D02*
X0402182Y0278933D01*
X0402332Y0279083D02*
X0399315Y0276066D01*
X0399315Y0273933D01*
X0399315Y0271800D01*
X0402332Y0268783D01*
X0404465Y0268783D01*
X0404465Y0273933D01*
X0399315Y0273933D01*
X0404465Y0273933D01*
X0404465Y0273933D01*
X0404465Y0273933D01*
X0404465Y0279083D01*
X0402332Y0279083D01*
X0403965Y0279083D02*
X0403965Y0281971D01*
X0404465Y0279083D02*
X0406598Y0279083D01*
X0409615Y0276066D01*
X0409615Y0273933D01*
X0404465Y0273933D01*
X0404465Y0273933D01*
X0404465Y0268783D01*
X0406598Y0268783D01*
X0409615Y0271800D01*
X0409615Y0273933D01*
X0404465Y0273933D01*
X0404465Y0279083D01*
X0404465Y0278933D02*
X0404465Y0278933D01*
X0406748Y0278933D02*
X0419566Y0278933D01*
X0419965Y0279333D02*
X0419965Y0281924D01*
X0421566Y0280933D02*
X0417910Y0277277D01*
X0416453Y0278733D01*
X0414465Y0278733D01*
X0412477Y0278733D01*
X0409665Y0275921D01*
X0409665Y0273933D01*
X0409665Y0271945D01*
X0412477Y0269133D01*
X0414465Y0269133D01*
X0414465Y0273933D01*
X0409665Y0273933D01*
X0414465Y0273933D01*
X0414465Y0273933D01*
X0414465Y0273933D01*
X0414465Y0278733D01*
X0414465Y0273933D01*
X0414465Y0273933D01*
X0414465Y0269133D01*
X0416453Y0269133D01*
X0417910Y0270589D01*
X0418465Y0270034D01*
X0418465Y0268287D01*
X0416838Y0266660D01*
X0415937Y0267033D01*
X0412993Y0267033D01*
X0410273Y0265906D01*
X0408192Y0263825D01*
X0408026Y0263426D01*
X0407853Y0263599D01*
X0407191Y0264080D01*
X0406461Y0264452D01*
X0405683Y0264705D01*
X0404874Y0264833D01*
X0404465Y0264833D01*
X0404465Y0256433D01*
X0404465Y0256433D01*
X0404465Y0248033D01*
X0404874Y0248033D01*
X0405683Y0248161D01*
X0406461Y0248414D01*
X0407191Y0248786D01*
X0407853Y0249267D01*
X0408026Y0249440D01*
X0408192Y0249041D01*
X0410273Y0246960D01*
X0412993Y0245833D01*
X0415937Y0245833D01*
X0418657Y0246960D01*
X0420739Y0249041D01*
X0421865Y0251761D01*
X0421865Y0256979D01*
X0428074Y0263188D01*
X0428865Y0265099D01*
X0428865Y0268434D01*
X0431465Y0271034D01*
X0431465Y0276833D01*
X0427365Y0280933D01*
X0421566Y0280933D01*
X0423965Y0280933D02*
X0423965Y0281912D01*
X0427965Y0281901D02*
X0427965Y0280333D01*
X0429365Y0278933D02*
X0493592Y0278933D01*
X0491965Y0277539D02*
X0491965Y0291933D01*
X0487965Y0291933D02*
X0487965Y0275933D01*
X0485566Y0274933D02*
X0451360Y0274933D01*
X0451965Y0274328D02*
X0451965Y0281831D01*
X0447965Y0281842D02*
X0447965Y0276283D01*
X0443965Y0276283D02*
X0443965Y0281854D01*
X0439965Y0281866D02*
X0439965Y0273595D01*
X0442571Y0274933D02*
X0431465Y0274933D01*
X0431365Y0270933D02*
X0438099Y0270933D01*
X0438348Y0266933D02*
X0428865Y0266933D01*
X0427965Y0263079D02*
X0427965Y0245833D01*
X0423965Y0245833D02*
X0423965Y0259079D01*
X0423819Y0258933D02*
X0441665Y0258933D01*
X0441665Y0254933D02*
X0421865Y0254933D01*
X0421522Y0250933D02*
X0442422Y0250933D01*
X0443965Y0249296D02*
X0443965Y0245833D01*
X0439965Y0245833D02*
X0439965Y0264871D01*
X0441665Y0262933D02*
X0427819Y0262933D01*
X0423665Y0266133D02*
X0414665Y0257133D01*
X0414465Y0256433D01*
X0407965Y0249379D02*
X0407965Y0245833D01*
X0410338Y0246933D02*
X0401402Y0246933D01*
X0403965Y0245833D02*
X0403965Y0248047D01*
X0404465Y0250933D02*
X0404465Y0250933D01*
X0404465Y0254933D02*
X0404465Y0254933D01*
X0404465Y0258933D02*
X0404465Y0258933D01*
X0404465Y0262933D02*
X0404465Y0262933D01*
X0403965Y0264819D02*
X0403965Y0268783D01*
X0404465Y0270933D02*
X0404465Y0270933D01*
X0404465Y0273933D02*
X0404465Y0273933D01*
X0403965Y0273933D02*
X0403965Y0273933D01*
X0404465Y0274933D02*
X0404465Y0274933D01*
X0407965Y0273933D02*
X0407965Y0273933D01*
X0409615Y0274933D02*
X0409665Y0274933D01*
X0411965Y0273933D02*
X0411965Y0273933D01*
X0414465Y0274933D02*
X0414465Y0274933D01*
X0414465Y0270933D02*
X0414465Y0270933D01*
X0415965Y0269133D02*
X0415965Y0267021D01*
X0416179Y0266933D02*
X0417111Y0266933D01*
X0412752Y0266933D02*
X0396179Y0266933D01*
X0395965Y0267021D02*
X0395965Y0281994D01*
X0391965Y0282006D02*
X0391965Y0266607D01*
X0391602Y0266933D02*
X0392752Y0266933D01*
X0391815Y0270933D02*
X0400182Y0270933D01*
X0399965Y0271150D02*
X0399965Y0264598D01*
X0407965Y0263487D02*
X0407965Y0270150D01*
X0408748Y0270933D02*
X0410677Y0270933D01*
X0411965Y0269645D02*
X0411965Y0266607D01*
X0423665Y0266133D02*
X0423665Y0273333D01*
X0424465Y0273933D01*
X0415965Y0278733D02*
X0415965Y0281936D01*
X0411965Y0281947D02*
X0411965Y0278221D01*
X0407965Y0277716D02*
X0407965Y0281959D01*
X0399965Y0281982D02*
X0399965Y0276716D01*
X0399315Y0274933D02*
X0391815Y0274933D01*
X0399965Y0273933D02*
X0399965Y0273933D01*
X0383965Y0281283D02*
X0383965Y0282029D01*
X0377115Y0274933D02*
X0361465Y0274933D01*
X0361365Y0270933D02*
X0377115Y0270933D01*
X0379065Y0266933D02*
X0359565Y0266933D01*
X0359965Y0269534D02*
X0359965Y0240933D01*
X0355965Y0240933D02*
X0355965Y0261279D01*
X0357619Y0262933D02*
X0380328Y0262933D01*
X0379965Y0263296D02*
X0379965Y0229633D01*
X0383965Y0229633D02*
X0383965Y0259296D01*
X0391965Y0241096D02*
X0391965Y0231283D01*
X0395360Y0230933D02*
X0457378Y0230933D01*
X0455965Y0233121D02*
X0455965Y0228328D01*
X0454615Y0226933D02*
X0441365Y0226933D01*
X0439965Y0228333D02*
X0439965Y0235033D01*
X0435965Y0235033D02*
X0435965Y0230933D01*
X0431965Y0230933D02*
X0431965Y0235033D01*
X0427965Y0235033D02*
X0427965Y0227333D01*
X0424465Y0226933D02*
X0424465Y0226933D01*
X0423965Y0228733D02*
X0423965Y0235033D01*
X0419965Y0235033D02*
X0419965Y0226221D01*
X0420677Y0226933D02*
X0416248Y0226933D01*
X0415965Y0227216D02*
X0415965Y0235033D01*
X0411965Y0235033D02*
X0411965Y0223933D01*
X0406815Y0223933D01*
X0406815Y0221800D01*
X0409832Y0218783D01*
X0411965Y0218783D01*
X0411965Y0223933D01*
X0411965Y0223933D01*
X0406815Y0223933D01*
X0406815Y0226066D01*
X0409832Y0229083D01*
X0411965Y0229083D01*
X0411965Y0223933D01*
X0411965Y0223933D01*
X0411965Y0214195D01*
X0409630Y0214933D02*
X0419300Y0214933D01*
X0419965Y0215598D02*
X0419965Y0221645D01*
X0419665Y0222933D02*
X0417115Y0222933D01*
X0417115Y0223933D02*
X0411965Y0223933D01*
X0411965Y0223933D01*
X0411965Y0218783D01*
X0414098Y0218783D01*
X0417115Y0221800D01*
X0417115Y0223933D01*
X0417115Y0226066D01*
X0414098Y0229083D01*
X0411965Y0229083D01*
X0411965Y0223933D01*
X0411965Y0223933D01*
X0417115Y0223933D01*
X0415965Y0223933D02*
X0415965Y0223933D01*
X0415965Y0220650D02*
X0415965Y0214613D01*
X0414465Y0210933D02*
X0414465Y0210933D01*
X0414465Y0206933D02*
X0414465Y0206933D01*
X0424465Y0206433D02*
X0424565Y0207133D01*
X0434465Y0217033D01*
X0434465Y0223933D01*
X0439965Y0219534D02*
X0439965Y0216139D01*
X0439665Y0218933D02*
X0442529Y0218933D01*
X0443965Y0220499D02*
X0443965Y0235033D01*
X0447965Y0235033D02*
X0447965Y0223952D01*
X0446198Y0222933D02*
X0441465Y0222933D01*
X0451965Y0224233D02*
X0451965Y0235033D01*
X0454153Y0234933D02*
X0372309Y0234933D01*
X0371965Y0235171D02*
X0371965Y0282064D01*
X0367965Y0279705D02*
X0367965Y0237944D01*
X0366539Y0238933D02*
X0394128Y0238933D01*
X0395965Y0237096D02*
X0395965Y0230328D01*
X0399315Y0226933D02*
X0407682Y0226933D01*
X0407965Y0227216D02*
X0407965Y0235033D01*
X0403965Y0235033D02*
X0403965Y0217033D01*
X0407965Y0216193D02*
X0407965Y0220650D01*
X0409682Y0218933D02*
X0399702Y0218933D01*
X0399965Y0218670D02*
X0399965Y0235033D01*
X0399315Y0222933D02*
X0406815Y0222933D01*
X0407965Y0223933D02*
X0407965Y0223933D01*
X0411965Y0222933D02*
X0411965Y0222933D01*
X0411965Y0218933D02*
X0411965Y0218933D01*
X0414248Y0218933D02*
X0429011Y0218933D01*
X0427965Y0217887D02*
X0427965Y0220534D01*
X0423965Y0219133D02*
X0423965Y0217033D01*
X0424465Y0222933D02*
X0424465Y0222933D01*
X0423965Y0223933D02*
X0423965Y0223933D01*
X0419965Y0223933D02*
X0419965Y0223933D01*
X0411965Y0226933D02*
X0411965Y0226933D01*
X0411965Y0245833D02*
X0411965Y0246259D01*
X0415965Y0245845D02*
X0415965Y0245833D01*
X0418593Y0246933D02*
X0448090Y0246933D01*
X0447965Y0247008D02*
X0447965Y0245833D01*
X0455965Y0256193D02*
X0455965Y0279991D01*
X0459965Y0279430D02*
X0459965Y0257033D01*
X0463965Y0255598D02*
X0463965Y0264650D01*
X0461815Y0266933D02*
X0454315Y0266933D01*
X0454315Y0270933D02*
X0461815Y0270933D01*
X0463965Y0268933D02*
X0463965Y0268933D01*
X0466965Y0266933D02*
X0466965Y0266933D01*
X0467965Y0268933D02*
X0467965Y0268933D01*
X0466965Y0270933D02*
X0466965Y0270933D01*
X0471965Y0271216D02*
X0471965Y0291933D01*
X0475965Y0291933D02*
X0475965Y0272221D01*
X0474677Y0270933D02*
X0472115Y0270933D01*
X0471965Y0268933D02*
X0471965Y0268933D01*
X0472115Y0266933D02*
X0474677Y0266933D01*
X0475965Y0265645D02*
X0475965Y0257830D01*
X0477845Y0258933D02*
X0452465Y0258933D01*
X0452465Y0262933D02*
X0484165Y0262933D01*
X0483965Y0261962D02*
X0483965Y0264534D01*
X0479965Y0264133D02*
X0479965Y0259983D01*
X0479465Y0253933D02*
X0479465Y0246433D01*
X0479465Y0253933D02*
X0489365Y0258833D01*
X0479465Y0266933D02*
X0479465Y0266933D01*
X0479465Y0270933D02*
X0479465Y0270933D01*
X0479965Y0273733D02*
X0479965Y0291933D01*
X0483965Y0291933D02*
X0483965Y0273333D01*
X0475965Y0268933D02*
X0475965Y0268933D01*
X0471965Y0266650D02*
X0471965Y0254195D01*
X0474265Y0254933D02*
X0464630Y0254933D01*
X0467965Y0254613D02*
X0467965Y0263783D01*
X0469465Y0250933D02*
X0469465Y0250933D01*
X0469465Y0246933D02*
X0469465Y0246933D01*
X0471965Y0229133D02*
X0471965Y0216870D01*
X0469902Y0218933D02*
X0479682Y0218933D01*
X0479832Y0218783D02*
X0481965Y0218783D01*
X0481965Y0223933D01*
X0476815Y0223933D01*
X0476815Y0221800D01*
X0479832Y0218783D01*
X0479965Y0218783D02*
X0479965Y0214598D01*
X0479630Y0214933D02*
X0489300Y0214933D01*
X0487965Y0213487D02*
X0487965Y0229133D01*
X0486248Y0226933D02*
X0490677Y0226933D01*
X0491965Y0228221D02*
X0491965Y0229133D01*
X0494465Y0226933D02*
X0494465Y0226933D01*
X0495965Y0228733D02*
X0495965Y0229133D01*
X0494465Y0222933D02*
X0494465Y0222933D01*
X0491965Y0223933D02*
X0491965Y0223933D01*
X0489665Y0222933D02*
X0487115Y0222933D01*
X0487115Y0223933D02*
X0481965Y0223933D01*
X0481965Y0223933D01*
X0476815Y0223933D01*
X0476815Y0226066D01*
X0479832Y0229083D01*
X0481965Y0229083D01*
X0481965Y0223933D01*
X0481965Y0223933D01*
X0481965Y0223933D01*
X0481965Y0218783D01*
X0484098Y0218783D01*
X0487115Y0221800D01*
X0487115Y0223933D01*
X0487115Y0226066D01*
X0484098Y0229083D01*
X0481965Y0229083D01*
X0481965Y0223933D01*
X0481965Y0223933D01*
X0487115Y0223933D01*
X0483965Y0223933D02*
X0483965Y0223933D01*
X0481965Y0222933D02*
X0481965Y0222933D01*
X0479965Y0223933D02*
X0479965Y0223933D01*
X0476815Y0222933D02*
X0469315Y0222933D01*
X0469315Y0226933D02*
X0477682Y0226933D01*
X0475965Y0229133D02*
X0475965Y0217021D01*
X0481965Y0218933D02*
X0481965Y0218933D01*
X0483965Y0218783D02*
X0483965Y0214819D01*
X0484465Y0210933D02*
X0484465Y0210933D01*
X0484465Y0206933D02*
X0484465Y0206933D01*
X0484465Y0202933D02*
X0484465Y0202933D01*
X0484465Y0198933D02*
X0484465Y0198933D01*
X0483965Y0198047D02*
X0483965Y0179133D01*
X0479965Y0179133D02*
X0479965Y0198268D01*
X0480630Y0198933D02*
X0481537Y0198933D01*
X0487394Y0198933D02*
X0488300Y0198933D01*
X0487965Y0199379D02*
X0487965Y0179133D01*
X0491965Y0179133D02*
X0491965Y0196259D01*
X0495965Y0195845D02*
X0495965Y0179133D01*
X0499965Y0179133D02*
X0499965Y0198268D01*
X0500630Y0198933D02*
X0620793Y0198933D01*
X0619965Y0197677D02*
X0619965Y0201999D01*
X0621465Y0202933D02*
X0621965Y0202933D01*
X0619065Y0194933D02*
X0435167Y0194933D01*
X0435965Y0195803D02*
X0435965Y0179133D01*
X0439965Y0179133D02*
X0439965Y0200163D01*
X0438837Y0198933D02*
X0468300Y0198933D01*
X0467965Y0199588D02*
X0467965Y0179133D01*
X0463965Y0179133D02*
X0463965Y0209596D01*
X0462628Y0210933D02*
X0449846Y0210933D01*
X0447965Y0208883D02*
X0447965Y0179133D01*
X0443965Y0179133D02*
X0443965Y0204523D01*
X0442506Y0202933D02*
X0467065Y0202933D01*
X0466628Y0206933D02*
X0446176Y0206933D01*
X0451965Y0213243D02*
X0451965Y0179133D01*
X0455965Y0179133D02*
X0455965Y0213433D01*
X0459965Y0213433D02*
X0459965Y0179133D01*
X0471965Y0179133D02*
X0471965Y0196259D01*
X0475965Y0195845D02*
X0475965Y0179133D01*
X0503965Y0179133D02*
X0503965Y0208979D01*
X0505919Y0210933D02*
X0513462Y0210933D01*
X0515965Y0212046D02*
X0515965Y0229133D01*
X0511465Y0222933D02*
X0634219Y0222933D01*
X0635965Y0224679D02*
X0635965Y0236933D01*
X0655965Y0231258D02*
X0655965Y0278320D01*
X0656965Y0278233D02*
X0657414Y0278233D01*
X0658300Y0278373D01*
X0659153Y0278651D01*
X0659953Y0279058D01*
X0660679Y0279585D01*
X0661313Y0280220D01*
X0661840Y0280946D01*
X0662248Y0281745D01*
X0662525Y0282598D01*
X0662665Y0283484D01*
X0662665Y0283933D01*
X0656965Y0283933D01*
X0656965Y0283933D01*
X0656965Y0278233D01*
X0656965Y0278933D02*
X0656965Y0278933D01*
X0654223Y0278933D02*
X0633138Y0278933D01*
X0631965Y0277761D02*
X0631965Y0272587D01*
X0633619Y0270933D02*
X0678844Y0270933D01*
X0679965Y0272054D02*
X0679965Y0327933D01*
X0675965Y0327933D02*
X0675965Y0268054D01*
X0674844Y0266933D02*
X0637619Y0266933D01*
X0635965Y0268587D02*
X0635965Y0299296D01*
X0635602Y0298933D02*
X0730565Y0298933D01*
X0730565Y0294933D02*
X0631602Y0294933D01*
X0631965Y0295296D02*
X0631965Y0290105D01*
X0630709Y0290933D02*
X0698844Y0290933D01*
X0699965Y0291581D02*
X0699965Y0336071D01*
X0698827Y0334933D02*
X0730565Y0334933D01*
X0730565Y0330933D02*
X0694827Y0330933D01*
X0695965Y0332071D02*
X0695965Y0288054D01*
X0694844Y0286933D02*
X0661831Y0286933D01*
X0661840Y0286921D02*
X0661313Y0287646D01*
X0660679Y0288281D01*
X0659953Y0288808D01*
X0659153Y0289215D01*
X0658300Y0289493D01*
X0657414Y0289633D01*
X0656965Y0289633D01*
X0656965Y0283933D01*
X0656965Y0283933D01*
X0662665Y0283933D01*
X0662665Y0284382D01*
X0662525Y0285268D01*
X0662248Y0286121D01*
X0661840Y0286921D01*
X0659965Y0288799D02*
X0659965Y0323296D01*
X0659602Y0322933D02*
X0730565Y0322933D01*
X0730565Y0318933D02*
X0655602Y0318933D01*
X0655965Y0319296D02*
X0655965Y0289546D01*
X0656965Y0286933D02*
X0656965Y0286933D01*
X0655965Y0283933D02*
X0655965Y0283933D01*
X0656965Y0282933D02*
X0656965Y0282933D01*
X0659965Y0283933D02*
X0659965Y0283933D01*
X0662578Y0282933D02*
X0690844Y0282933D01*
X0691965Y0284054D02*
X0691965Y0328472D01*
X0687965Y0327933D02*
X0687965Y0280054D01*
X0686844Y0278933D02*
X0659707Y0278933D01*
X0659965Y0279067D02*
X0659965Y0231258D01*
X0663965Y0231258D02*
X0663965Y0327296D01*
X0663602Y0326933D02*
X0730565Y0326933D01*
X0729728Y0338933D02*
X0701855Y0338933D01*
X0701990Y0342933D02*
X0725728Y0342933D01*
X0723965Y0344696D02*
X0723965Y0294163D01*
X0719965Y0294163D02*
X0719965Y0348696D01*
X0721728Y0346933D02*
X0703943Y0346933D01*
X0703965Y0348334D02*
X0703965Y0292008D01*
X0707965Y0292008D02*
X0707965Y0351583D01*
X0706538Y0350933D02*
X0717728Y0350933D01*
X0715965Y0352696D02*
X0715965Y0292008D01*
X0711965Y0292008D02*
X0711965Y0353533D01*
X0699615Y0359291D02*
X0696269Y0355911D01*
X0693226Y0355911D01*
X0688787Y0351472D01*
X0688787Y0345194D01*
X0691190Y0342791D01*
X0691190Y0342570D01*
X0687353Y0338733D01*
X0668311Y0338733D01*
X0684572Y0354994D01*
X0685979Y0356401D01*
X0686740Y0358238D01*
X0686740Y0361576D01*
X0689357Y0362660D01*
X0691439Y0364741D01*
X0692565Y0367461D01*
X0692565Y0370405D01*
X0691439Y0373125D01*
X0690630Y0373933D01*
X0690980Y0374283D01*
X0693575Y0374283D01*
X0695486Y0375075D01*
X0697511Y0377100D01*
X0698974Y0378562D01*
X0699765Y0380474D01*
X0699765Y0400348D01*
X0699788Y0401321D01*
X0699765Y0401380D01*
X0699765Y0401442D01*
X0699392Y0402342D01*
X0699041Y0403251D01*
X0698998Y0403296D01*
X0698974Y0403354D01*
X0698285Y0404042D01*
X0657165Y0447117D01*
X0657165Y0479211D01*
X0658663Y0480708D01*
X0659865Y0483612D01*
X0659865Y0486754D01*
X0658663Y0489658D01*
X0656440Y0491880D01*
X0653537Y0493083D01*
X0650394Y0493083D01*
X0647490Y0491880D01*
X0646043Y0490433D01*
X0641705Y0490433D01*
X0642060Y0491291D01*
X0642060Y0492424D01*
X0644069Y0494433D01*
X0675361Y0494433D01*
X0684065Y0485729D01*
X0684065Y0483612D01*
X0685268Y0480708D01*
X0686765Y0479211D01*
X0686765Y0417899D01*
X0687557Y0415987D01*
X0699965Y0403579D01*
X0699965Y0401034D01*
X0699965Y0362328D01*
X0699615Y0361978D02*
X0699615Y0359291D01*
X0699261Y0358933D02*
X0686740Y0358933D01*
X0687965Y0362083D02*
X0687965Y0339345D01*
X0687553Y0338933D02*
X0668511Y0338933D01*
X0671965Y0338733D02*
X0671965Y0342387D01*
X0672511Y0342933D02*
X0691048Y0342933D01*
X0688787Y0346933D02*
X0676511Y0346933D01*
X0675965Y0346387D02*
X0675965Y0338733D01*
X0679965Y0338733D02*
X0679965Y0350387D01*
X0680511Y0350933D02*
X0688787Y0350933D01*
X0691965Y0354650D02*
X0691965Y0366013D01*
X0692346Y0366933D02*
X0716584Y0366933D01*
X0716802Y0366407D02*
X0714728Y0364333D01*
X0711960Y0364333D01*
X0710010Y0366283D01*
X0703921Y0366283D01*
X0699615Y0361978D01*
X0700571Y0362933D02*
X0689630Y0362933D01*
X0692346Y0370933D02*
X0716584Y0370933D01*
X0716365Y0370405D02*
X0716365Y0367461D01*
X0716802Y0366407D01*
X0715965Y0365570D02*
X0715965Y0392579D01*
X0716885Y0391660D02*
X0716365Y0390405D01*
X0716365Y0387461D01*
X0717492Y0384741D01*
X0719573Y0382660D01*
X0719973Y0382494D01*
X0719799Y0382321D01*
X0719318Y0381658D01*
X0718946Y0380929D01*
X0718693Y0380151D01*
X0718565Y0379342D01*
X0718565Y0378933D01*
X0718565Y0378524D01*
X0718693Y0377715D01*
X0718946Y0376937D01*
X0719318Y0376208D01*
X0719799Y0375545D01*
X0719973Y0375372D01*
X0719573Y0375206D01*
X0717492Y0373125D01*
X0716365Y0370405D01*
X0719300Y0374933D02*
X0710248Y0374933D01*
X0709098Y0373783D02*
X0712115Y0376800D01*
X0712115Y0378933D01*
X0706965Y0378933D01*
X0701815Y0378933D01*
X0701815Y0376800D01*
X0704832Y0373783D01*
X0706965Y0373783D01*
X0706965Y0378933D01*
X0706965Y0378933D01*
X0699127Y0378933D01*
X0701815Y0378933D02*
X0706965Y0378933D01*
X0706965Y0378933D01*
X0706965Y0384083D01*
X0704832Y0384083D01*
X0701815Y0381066D01*
X0701815Y0378933D01*
X0703965Y0378933D02*
X0703965Y0378933D01*
X0706965Y0378933D02*
X0706965Y0378933D01*
X0706965Y0373783D01*
X0709098Y0373783D01*
X0707965Y0373783D02*
X0707965Y0366283D01*
X0703965Y0366283D02*
X0703965Y0374650D01*
X0703682Y0374933D02*
X0695144Y0374933D01*
X0695965Y0375554D02*
X0695965Y0355911D01*
X0692248Y0354933D02*
X0684511Y0354933D01*
X0683965Y0354387D02*
X0683965Y0338733D01*
X0683965Y0327933D02*
X0683965Y0276054D01*
X0682844Y0274933D02*
X0629619Y0274933D01*
X0622911Y0266933D02*
X0603602Y0266933D01*
X0603965Y0267296D02*
X0603965Y0179133D01*
X0607965Y0179133D02*
X0607965Y0271296D01*
X0607602Y0270933D02*
X0618911Y0270933D01*
X0619965Y0269879D02*
X0619965Y0266911D01*
X0615965Y0266911D02*
X0615965Y0271555D01*
X0602369Y0286933D02*
X0601661Y0286933D01*
X0599965Y0285237D02*
X0599965Y0284529D01*
X0598369Y0282933D02*
X0597661Y0282933D01*
X0595965Y0281237D02*
X0595965Y0280529D01*
X0594369Y0278933D02*
X0593661Y0278933D01*
X0591965Y0277237D02*
X0591965Y0276529D01*
X0590369Y0274933D02*
X0589661Y0274933D01*
X0587965Y0273237D02*
X0587965Y0272529D01*
X0586369Y0270933D02*
X0585661Y0270933D01*
X0583965Y0269237D02*
X0583965Y0268529D01*
X0582369Y0266933D02*
X0581661Y0266933D01*
X0579965Y0265237D02*
X0579965Y0264529D01*
X0578369Y0262933D02*
X0577661Y0262933D01*
X0575965Y0261237D02*
X0575965Y0260529D01*
X0574369Y0258933D02*
X0573661Y0258933D01*
X0571965Y0257237D02*
X0571965Y0256529D01*
X0570369Y0254933D02*
X0569661Y0254933D01*
X0567965Y0253237D02*
X0567965Y0252529D01*
X0563965Y0251433D02*
X0563965Y0251433D01*
X0559965Y0251433D02*
X0559965Y0251433D01*
X0555965Y0251433D02*
X0555965Y0251433D01*
X0558269Y0286933D02*
X0552165Y0286933D01*
X0603965Y0288529D02*
X0603965Y0289237D01*
X0605661Y0290933D02*
X0606369Y0290933D01*
X0607965Y0292529D02*
X0607965Y0293237D01*
X0609661Y0294933D02*
X0610369Y0294933D01*
X0611815Y0318933D02*
X0634369Y0318933D01*
X0635965Y0320529D02*
X0635965Y0342933D01*
X0639965Y0342933D02*
X0639965Y0324529D01*
X0638369Y0322933D02*
X0611815Y0322933D01*
X0611815Y0326933D02*
X0642369Y0326933D01*
X0643965Y0328529D02*
X0643965Y0340816D01*
X0647965Y0340755D02*
X0647965Y0332529D01*
X0646369Y0330933D02*
X0611815Y0330933D01*
X0611815Y0334933D02*
X0650369Y0334933D01*
X0651965Y0336529D02*
X0651965Y0342416D01*
X0652482Y0342933D02*
X0658369Y0342933D01*
X0659965Y0344529D02*
X0659965Y0363268D01*
X0630453Y0370933D02*
X0617346Y0370933D01*
X0615965Y0373598D02*
X0615965Y0373608D01*
X0616940Y0378808D02*
X0607090Y0378808D01*
X0606965Y0378933D01*
X0616940Y0378808D02*
X0621665Y0383533D01*
X0615965Y0385187D02*
X0615965Y0393354D01*
X0616465Y0390933D02*
X0614982Y0390933D01*
X0611965Y0388933D02*
X0611965Y0388933D01*
X0614982Y0386933D02*
X0616465Y0386933D01*
X0627965Y0393933D02*
X0627965Y0393933D01*
X0627165Y0394933D02*
X0626865Y0394933D01*
X0627965Y0396721D02*
X0627965Y0398034D01*
X0627066Y0398933D02*
X0625094Y0398933D01*
X0623965Y0400062D02*
X0623965Y0404579D01*
X0624965Y0402933D02*
X0621094Y0402933D01*
X0619965Y0404062D02*
X0619965Y0408579D01*
X0621611Y0406933D02*
X0617094Y0406933D01*
X0616615Y0414933D02*
X0609094Y0414933D01*
X0607965Y0416062D02*
X0607965Y0423733D01*
X0603965Y0423733D02*
X0603965Y0417083D01*
X0603965Y0405354D02*
X0603965Y0394133D01*
X0629715Y0422933D02*
X0645024Y0422933D01*
X0651965Y0427915D02*
X0651965Y0437502D01*
X0650599Y0438933D02*
X0605215Y0438933D01*
X0604619Y0434933D02*
X0654418Y0434933D01*
X0655965Y0433312D02*
X0655965Y0427835D01*
X0662607Y0422933D02*
X0665873Y0422933D01*
X0672614Y0430933D02*
X0686765Y0430933D01*
X0686765Y0426933D02*
X0676433Y0426933D01*
X0675965Y0427423D02*
X0675965Y0493829D01*
X0671965Y0494433D02*
X0671965Y0431613D01*
X0668796Y0434933D02*
X0686765Y0434933D01*
X0686765Y0438933D02*
X0664977Y0438933D01*
X0663965Y0439993D02*
X0663965Y0494433D01*
X0659965Y0494433D02*
X0659965Y0444183D01*
X0661159Y0442933D02*
X0686765Y0442933D01*
X0686765Y0446933D02*
X0657340Y0446933D01*
X0657165Y0450933D02*
X0686765Y0450933D01*
X0686765Y0454933D02*
X0657165Y0454933D01*
X0657165Y0458933D02*
X0686765Y0458933D01*
X0686765Y0462933D02*
X0657165Y0462933D01*
X0657165Y0466933D02*
X0686765Y0466933D01*
X0686765Y0470933D02*
X0657165Y0470933D01*
X0657165Y0474933D02*
X0686765Y0474933D01*
X0686765Y0478933D02*
X0657165Y0478933D01*
X0659584Y0482933D02*
X0684346Y0482933D01*
X0683965Y0485829D02*
X0683965Y0419043D01*
X0684070Y0418933D02*
X0686765Y0418933D01*
X0687965Y0415579D02*
X0687965Y0414853D01*
X0687888Y0414933D02*
X0688611Y0414933D01*
X0691965Y0411579D02*
X0691965Y0410662D01*
X0691707Y0410933D02*
X0692611Y0410933D01*
X0695965Y0407579D02*
X0695965Y0406472D01*
X0695525Y0406933D02*
X0696611Y0406933D01*
X0699164Y0402933D02*
X0699965Y0402933D01*
X0699965Y0401034D02*
X0703621Y0397377D01*
X0702165Y0395921D01*
X0702165Y0393933D01*
X0702165Y0391945D01*
X0704977Y0389133D01*
X0706965Y0389133D01*
X0706965Y0393933D01*
X0702165Y0393933D01*
X0706965Y0393933D01*
X0706965Y0393933D01*
X0706965Y0393933D01*
X0706965Y0389133D01*
X0708953Y0389133D01*
X0711765Y0391945D01*
X0711765Y0393933D01*
X0706965Y0393933D01*
X0706965Y0393933D01*
X0711765Y0393933D01*
X0711765Y0395921D01*
X0710309Y0397377D01*
X0710738Y0397806D01*
X0716885Y0391660D01*
X0716584Y0390933D02*
X0710753Y0390933D01*
X0707965Y0389133D02*
X0707965Y0384083D01*
X0706965Y0384083D02*
X0706965Y0378933D01*
X0726965Y0378933D01*
X0718565Y0378933D01*
X0726965Y0378933D01*
X0726965Y0378933D01*
X0738001Y0378933D01*
X0735365Y0378933D02*
X0735365Y0379342D01*
X0735237Y0380151D01*
X0734984Y0380929D01*
X0734613Y0381658D01*
X0734132Y0382321D01*
X0733958Y0382494D01*
X0734357Y0382660D01*
X0736439Y0384741D01*
X0737565Y0387461D01*
X0737565Y0390405D01*
X0736439Y0393125D01*
X0734357Y0395206D01*
X0731637Y0396333D01*
X0726919Y0396333D01*
X0716374Y0406879D01*
X0714911Y0408341D01*
X0713000Y0409133D01*
X0711665Y0409133D01*
X0709865Y0410933D01*
X0707319Y0410933D01*
X0738001Y0410933D01*
X0738001Y0406933D02*
X0716319Y0406933D01*
X0715965Y0407287D02*
X0715965Y0508748D01*
X0711965Y0508748D02*
X0711965Y0409133D01*
X0707965Y0410933D02*
X0707965Y0508748D01*
X0703965Y0508748D02*
X0703965Y0414287D01*
X0703319Y0414933D02*
X0738001Y0414933D01*
X0738001Y0418933D02*
X0699319Y0418933D01*
X0699965Y0418287D02*
X0699965Y0508747D01*
X0695965Y0508747D02*
X0695965Y0492077D01*
X0696440Y0491880D02*
X0693537Y0493083D01*
X0691419Y0493083D01*
X0681924Y0502579D01*
X0680461Y0504041D01*
X0678550Y0504833D01*
X0640881Y0504833D01*
X0638970Y0504041D01*
X0634611Y0499683D01*
X0628068Y0499683D01*
X0625495Y0498617D01*
X0624761Y0497883D01*
X0616886Y0497883D01*
X0616794Y0497845D01*
X0617464Y0500346D01*
X0617464Y0503111D01*
X0616749Y0505781D01*
X0615367Y0508175D01*
X0614797Y0508745D01*
X0738001Y0508749D01*
X0738001Y0345934D01*
X0724802Y0359133D01*
X0727202Y0361533D01*
X0731637Y0361533D01*
X0734357Y0362660D01*
X0736439Y0364741D01*
X0737565Y0367461D01*
X0737565Y0370405D01*
X0736439Y0373125D01*
X0734357Y0375206D01*
X0733958Y0375372D01*
X0734132Y0375545D01*
X0734613Y0376208D01*
X0734984Y0376937D01*
X0735237Y0377715D01*
X0735365Y0378524D01*
X0735365Y0378933D01*
X0726965Y0378933D01*
X0726965Y0378933D01*
X0735365Y0378933D01*
X0731965Y0378933D02*
X0731965Y0378933D01*
X0727965Y0378933D02*
X0727965Y0378933D01*
X0723965Y0378933D02*
X0723965Y0378933D01*
X0719965Y0378933D02*
X0719965Y0378933D01*
X0719965Y0375379D02*
X0719965Y0375369D01*
X0719965Y0382487D02*
X0719965Y0382497D01*
X0719300Y0382933D02*
X0710248Y0382933D01*
X0709098Y0384083D02*
X0706965Y0384083D01*
X0706965Y0382933D02*
X0706965Y0382933D01*
X0709098Y0384083D02*
X0712115Y0381066D01*
X0712115Y0378933D01*
X0706965Y0378933D01*
X0706965Y0378933D01*
X0707965Y0378933D02*
X0707965Y0378933D01*
X0711965Y0378933D02*
X0711965Y0378933D01*
X0711965Y0376650D02*
X0711965Y0364333D01*
X0706965Y0374933D02*
X0706965Y0374933D01*
X0711965Y0381216D02*
X0711965Y0396579D01*
X0711765Y0394933D02*
X0713611Y0394933D01*
X0707965Y0393933D02*
X0707965Y0393933D01*
X0706965Y0390933D02*
X0706965Y0390933D01*
X0703965Y0390145D02*
X0703965Y0383216D01*
X0703682Y0382933D02*
X0699765Y0382933D01*
X0699765Y0386933D02*
X0716584Y0386933D01*
X0703177Y0390933D02*
X0699765Y0390933D01*
X0699765Y0394933D02*
X0702165Y0394933D01*
X0703965Y0393933D02*
X0703965Y0393933D01*
X0702066Y0398933D02*
X0699765Y0398933D01*
X0706965Y0403933D02*
X0691965Y0418933D01*
X0691965Y0485183D01*
X0677515Y0499633D01*
X0641915Y0499633D01*
X0634965Y0492683D01*
X0632260Y0492683D01*
X0617920Y0492683D01*
X0601965Y0476728D01*
X0591965Y0476728D02*
X0591965Y0482083D01*
X0585215Y0488833D01*
X0564965Y0488833D01*
X0556865Y0480733D01*
X0556865Y0461158D01*
X0562940Y0455758D01*
X0530815Y0444138D02*
X0525715Y0449238D01*
X0525715Y0471138D01*
X0525715Y0472733D01*
X0522440Y0476008D01*
X0519040Y0476008D01*
X0506965Y0463933D01*
X0485990Y0447658D02*
X0485990Y0439208D01*
X0485715Y0438933D01*
X0485315Y0438533D01*
X0485315Y0423358D01*
X0489740Y0418933D01*
X0504940Y0418933D01*
X0485990Y0447658D02*
X0476965Y0456683D01*
X0476965Y0466728D01*
X0481965Y0476728D02*
X0481965Y0482058D01*
X0478565Y0485458D01*
X0467090Y0485458D01*
X0457640Y0476008D01*
X0457640Y0459508D01*
X0441440Y0446013D02*
X0448845Y0438608D01*
X0460090Y0438208D01*
X0441440Y0446013D02*
X0441440Y0478033D01*
X0439290Y0480183D01*
X0429760Y0480183D01*
X0405420Y0480183D01*
X0401965Y0476728D01*
X0396965Y0466728D02*
X0421695Y0466728D01*
X0429965Y0458458D01*
X0429965Y0472478D01*
X0429760Y0472683D01*
X0429965Y0458458D02*
X0429965Y0448333D01*
X0425565Y0443933D01*
X0420090Y0438208D01*
X0419840Y0437958D01*
X0419840Y0430783D01*
X0424565Y0426058D01*
X0434240Y0426058D01*
X0420965Y0437533D02*
X0420090Y0438208D01*
X0420515Y0447658D02*
X0422540Y0449683D01*
X0422540Y0453358D01*
X0421965Y0453933D01*
X0420515Y0447658D02*
X0409040Y0447658D01*
X0405715Y0444333D01*
X0405715Y0439608D01*
X0405715Y0435458D01*
X0422240Y0413933D01*
X0446965Y0413933D01*
X0438965Y0396133D02*
X0413765Y0396133D01*
X0438965Y0396133D02*
X0452240Y0382858D01*
X0452240Y0359683D01*
X0454040Y0355858D01*
X0434015Y0360583D02*
X0427870Y0366728D01*
X0426965Y0366728D01*
X0422894Y0330933D02*
X0421665Y0330933D01*
X0417565Y0314933D02*
X0426365Y0314933D01*
X0426998Y0310933D02*
X0416932Y0310933D01*
X0415965Y0309268D02*
X0415965Y0292336D01*
X0415272Y0302933D02*
X0428659Y0302933D01*
X0431965Y0303933D02*
X0431965Y0303933D01*
X0429517Y0306933D02*
X0414413Y0306933D01*
X0411965Y0303933D02*
X0411965Y0303933D01*
X0435965Y0303933D02*
X0435965Y0303933D01*
X0436965Y0303933D02*
X0436965Y0303933D01*
X0436965Y0298733D01*
X0440574Y0298733D01*
X0441383Y0298861D01*
X0442161Y0299114D01*
X0442891Y0299486D01*
X0443553Y0299967D01*
X0444132Y0300545D01*
X0444613Y0301208D01*
X0444984Y0301937D01*
X0445237Y0302715D01*
X0445365Y0303524D01*
X0445365Y0303933D01*
X0436965Y0303933D01*
X0436965Y0303933D01*
X0436965Y0302933D02*
X0436965Y0302933D01*
X0439965Y0303933D02*
X0439965Y0303933D01*
X0443965Y0303933D02*
X0443965Y0303933D01*
X0445272Y0302933D02*
X0448311Y0302933D01*
X0447965Y0303279D02*
X0447965Y0292242D01*
X0443965Y0292254D02*
X0443965Y0300379D01*
X0441604Y0298933D02*
X0452311Y0298933D01*
X0451965Y0299279D02*
X0451965Y0292231D01*
X0455965Y0294025D02*
X0455965Y0295279D01*
X0456311Y0294933D02*
X0310203Y0294933D01*
X0303965Y0289908D02*
X0303965Y0240701D01*
X0305733Y0238933D02*
X0319265Y0238933D01*
X0330065Y0234933D02*
X0331028Y0234933D01*
X0351965Y0219645D02*
X0351965Y0216607D01*
X0355965Y0217021D02*
X0355965Y0219133D01*
X0359065Y0218933D02*
X0344248Y0218933D01*
X0354465Y0222933D02*
X0354465Y0222933D01*
X0359965Y0229333D02*
X0359965Y0230133D01*
X0363965Y0240625D02*
X0363965Y0279705D01*
X0354465Y0273933D02*
X0354365Y0273333D01*
X0327965Y0303933D02*
X0327965Y0303933D01*
X0323965Y0303933D02*
X0323965Y0303933D01*
X0281365Y0322933D02*
X0272565Y0322933D01*
X0263965Y0313933D02*
X0263965Y0313933D01*
X0261965Y0313933D02*
X0261965Y0313933D01*
X0261965Y0310933D02*
X0261965Y0310933D01*
X0211965Y0308933D02*
X0211965Y0308933D01*
X0204448Y0278933D02*
X0152470Y0278933D01*
X0154836Y0250933D02*
X0246897Y0250933D01*
X0247065Y0246933D02*
X0152008Y0246933D01*
X0151965Y0246890D02*
X0151965Y0240068D01*
X0153100Y0238933D02*
X0251297Y0238933D01*
X0251965Y0238265D02*
X0251965Y0232196D01*
X0253581Y0234933D02*
X0155186Y0234933D01*
X0154705Y0230933D02*
X0248571Y0230933D01*
X0247965Y0230328D02*
X0247965Y0244588D01*
X0249165Y0242933D02*
X0136165Y0242933D01*
X0139965Y0241386D02*
X0139965Y0245571D01*
X0143965Y0245571D02*
X0143965Y0241386D01*
X0147965Y0241386D02*
X0147965Y0245571D01*
X0136165Y0174933D02*
X0206797Y0174933D01*
X0235965Y0165845D02*
X0235965Y0164283D01*
X0262058Y0158933D02*
X0341135Y0158933D01*
X0339965Y0160524D02*
X0339965Y0123133D01*
X0335965Y0123133D02*
X0335965Y0165963D01*
X0335252Y0166933D02*
X0269934Y0166933D01*
X0267965Y0164840D02*
X0267965Y0123133D01*
X0263965Y0123133D02*
X0263965Y0160840D01*
X0266058Y0162933D02*
X0338193Y0162933D01*
X0332310Y0170933D02*
X0270790Y0170933D01*
X0270790Y0174933D02*
X0329368Y0174933D01*
X0327965Y0176840D02*
X0327965Y0123133D01*
X0331965Y0123133D02*
X0331965Y0171402D01*
X0324428Y0178933D02*
X0299502Y0178933D01*
X0299965Y0179125D02*
X0299965Y0123133D01*
X0295965Y0123133D02*
X0295965Y0178533D01*
X0294428Y0178933D02*
X0289502Y0178933D01*
X0287965Y0178533D02*
X0287965Y0123133D01*
X0283965Y0123133D02*
X0283965Y0179125D01*
X0284428Y0178933D02*
X0279502Y0178933D01*
X0279965Y0179125D02*
X0279965Y0123133D01*
X0275965Y0123133D02*
X0275965Y0178533D01*
X0274428Y0178933D02*
X0270790Y0178933D01*
X0271965Y0180261D02*
X0271965Y0123133D01*
X0291965Y0123133D02*
X0291965Y0180261D01*
X0303965Y0181567D02*
X0303965Y0123133D01*
X0307965Y0123133D02*
X0307965Y0180820D01*
X0306965Y0182933D02*
X0306965Y0182933D01*
X0306965Y0186433D02*
X0306965Y0186433D01*
X0306965Y0186933D02*
X0306965Y0186933D01*
X0307965Y0186433D02*
X0307965Y0186433D01*
X0310469Y0190933D02*
X0313462Y0190933D01*
X0315965Y0186433D02*
X0315965Y0186433D01*
X0316965Y0186933D02*
X0316965Y0186933D01*
X0316965Y0182933D02*
X0316965Y0182933D01*
X0283965Y0193741D02*
X0283965Y0195833D01*
X0274465Y0251433D02*
X0284165Y0261133D01*
X0284165Y0268333D01*
X0284465Y0268933D01*
X0374265Y0313258D02*
X0377040Y0314008D01*
X0385415Y0314008D01*
X0389465Y0317383D01*
X0389465Y0324133D01*
X0377490Y0314458D02*
X0374265Y0313258D01*
X0435965Y0298733D02*
X0435965Y0292277D01*
X0439965Y0292266D02*
X0439965Y0298733D01*
X0436965Y0298933D02*
X0436965Y0298933D01*
X0435965Y0281877D02*
X0435965Y0245833D01*
X0431965Y0245833D02*
X0431965Y0281889D01*
X0467965Y0303933D02*
X0467965Y0303933D01*
X0471965Y0303933D02*
X0471965Y0303933D01*
X0495965Y0291933D02*
X0495965Y0280968D01*
X0495519Y0322933D02*
X0528265Y0322933D01*
X0611815Y0346933D02*
X0629028Y0346933D01*
X0625571Y0362933D02*
X0614630Y0362933D01*
X0691965Y0371854D02*
X0691965Y0374283D01*
X0725002Y0358933D02*
X0738001Y0358933D01*
X0738001Y0354933D02*
X0729002Y0354933D01*
X0727965Y0355970D02*
X0727965Y0361533D01*
X0731965Y0361669D02*
X0731965Y0351970D01*
X0733002Y0350933D02*
X0738001Y0350933D01*
X0735965Y0347970D02*
X0735965Y0364268D01*
X0734630Y0362933D02*
X0738001Y0362933D01*
X0738001Y0366933D02*
X0737346Y0366933D01*
X0737346Y0370933D02*
X0738001Y0370933D01*
X0735965Y0373598D02*
X0735965Y0384268D01*
X0734630Y0382933D02*
X0738001Y0382933D01*
X0738001Y0386933D02*
X0737346Y0386933D01*
X0737346Y0390933D02*
X0738001Y0390933D01*
X0735965Y0393598D02*
X0735965Y0508749D01*
X0738001Y0506933D02*
X0616084Y0506933D01*
X0615965Y0507138D02*
X0615965Y0508745D01*
X0619965Y0508745D02*
X0619965Y0497883D01*
X0617086Y0498933D02*
X0626257Y0498933D01*
X0627965Y0499640D02*
X0627965Y0508745D01*
X0623965Y0508745D02*
X0623965Y0497883D01*
X0631965Y0499683D02*
X0631965Y0508745D01*
X0635965Y0508745D02*
X0635965Y0501037D01*
X0637861Y0502933D02*
X0617464Y0502933D01*
X0639965Y0504454D02*
X0639965Y0508746D01*
X0643965Y0508746D02*
X0643965Y0504833D01*
X0647965Y0504833D02*
X0647965Y0508746D01*
X0651965Y0508746D02*
X0651965Y0504833D01*
X0655965Y0504833D02*
X0655965Y0508746D01*
X0659965Y0508746D02*
X0659965Y0504833D01*
X0663965Y0504833D02*
X0663965Y0508746D01*
X0667965Y0508746D02*
X0667965Y0504833D01*
X0671965Y0504833D02*
X0671965Y0508747D01*
X0675965Y0508747D02*
X0675965Y0504833D01*
X0679965Y0504247D02*
X0679965Y0508747D01*
X0683965Y0508747D02*
X0683965Y0500537D01*
X0685569Y0498933D02*
X0738001Y0498933D01*
X0738001Y0494933D02*
X0689569Y0494933D01*
X0687965Y0496537D02*
X0687965Y0508747D01*
X0691965Y0508747D02*
X0691965Y0493083D01*
X0696440Y0491880D02*
X0698662Y0489658D01*
X0699865Y0486754D01*
X0699865Y0483612D01*
X0698662Y0480708D01*
X0697165Y0479211D01*
X0697165Y0421087D01*
X0707319Y0410933D01*
X0706965Y0403933D02*
X0711965Y0403933D01*
X0726965Y0388933D01*
X0727965Y0396333D02*
X0727965Y0508748D01*
X0723965Y0508748D02*
X0723965Y0399287D01*
X0724319Y0398933D02*
X0738001Y0398933D01*
X0738001Y0394933D02*
X0734630Y0394933D01*
X0731965Y0396197D02*
X0731965Y0508748D01*
X0738001Y0502933D02*
X0681569Y0502933D01*
X0681924Y0502579D02*
X0681924Y0502579D01*
X0678861Y0490933D02*
X0657387Y0490933D01*
X0655965Y0492077D02*
X0655965Y0494433D01*
X0651965Y0494433D02*
X0651965Y0493083D01*
X0647965Y0492077D02*
X0647965Y0494433D01*
X0646543Y0490933D02*
X0641912Y0490933D01*
X0643965Y0490433D02*
X0643965Y0494329D01*
X0659791Y0486933D02*
X0682861Y0486933D01*
X0679965Y0489829D02*
X0679965Y0423233D01*
X0680251Y0422933D02*
X0686765Y0422933D01*
X0697165Y0422933D02*
X0738001Y0422933D01*
X0738001Y0426933D02*
X0697165Y0426933D01*
X0697165Y0430933D02*
X0738001Y0430933D01*
X0738001Y0434933D02*
X0697165Y0434933D01*
X0697165Y0438933D02*
X0738001Y0438933D01*
X0738001Y0442933D02*
X0697165Y0442933D01*
X0697165Y0446933D02*
X0738001Y0446933D01*
X0738001Y0450933D02*
X0697165Y0450933D01*
X0697165Y0454933D02*
X0738001Y0454933D01*
X0738001Y0458933D02*
X0697165Y0458933D01*
X0697165Y0462933D02*
X0738001Y0462933D01*
X0738001Y0466933D02*
X0697165Y0466933D01*
X0697165Y0470933D02*
X0738001Y0470933D01*
X0738001Y0474933D02*
X0697165Y0474933D01*
X0697165Y0478933D02*
X0738001Y0478933D01*
X0738001Y0482933D02*
X0699584Y0482933D01*
X0699791Y0486933D02*
X0738001Y0486933D01*
X0738001Y0490933D02*
X0697387Y0490933D01*
X0719965Y0508748D02*
X0719965Y0403287D01*
X0720319Y0402933D02*
X0738001Y0402933D01*
X0738001Y0374933D02*
X0734630Y0374933D01*
X0737002Y0346933D02*
X0738001Y0346933D01*
X0727965Y0340696D02*
X0727965Y0294163D01*
X0651965Y0283933D02*
X0651965Y0283933D01*
X0611965Y0203434D02*
X0611965Y0179133D01*
X0611965Y0166733D02*
X0611965Y0153833D01*
X0607965Y0153833D02*
X0607965Y0166733D01*
X0603965Y0166733D02*
X0603965Y0153833D01*
X0599965Y0153833D02*
X0599965Y0166733D01*
X0595965Y0166733D02*
X0595965Y0153833D01*
X0591965Y0153833D02*
X0591965Y0166733D01*
X0587965Y0166733D02*
X0587965Y0153833D01*
X0583965Y0153833D02*
X0583965Y0166733D01*
X0579965Y0166733D02*
X0579965Y0153833D01*
X0575965Y0153833D02*
X0575965Y0166733D01*
X0571965Y0166733D02*
X0571965Y0153833D01*
X0567965Y0153833D02*
X0567965Y0166733D01*
X0563965Y0166733D02*
X0563965Y0153833D01*
X0559965Y0153833D02*
X0559965Y0166733D01*
X0555965Y0166733D02*
X0555965Y0153833D01*
X0551965Y0153833D02*
X0551965Y0166733D01*
X0547965Y0166733D02*
X0547965Y0153833D01*
X0543965Y0153833D02*
X0543965Y0166733D01*
X0539965Y0166733D02*
X0539965Y0153833D01*
X0507965Y0179133D02*
X0507965Y0212979D01*
X0503765Y0216133D02*
X0494765Y0207133D01*
X0494465Y0206433D01*
X0491965Y0216607D02*
X0491965Y0219645D01*
X0495965Y0219133D02*
X0495965Y0217021D01*
X0498565Y0218933D02*
X0484248Y0218933D01*
X0481965Y0226933D02*
X0481965Y0226933D01*
X0479965Y0229083D02*
X0479965Y0229133D01*
X0483965Y0229083D02*
X0483965Y0229133D01*
X0503765Y0223333D02*
X0503765Y0216133D01*
X0503765Y0223333D02*
X0504465Y0223933D01*
X0516965Y0210933D02*
X0516965Y0210933D01*
X0419965Y0245833D02*
X0419965Y0248268D01*
X0383965Y0218833D02*
X0383965Y0179133D01*
X0379965Y0179133D02*
X0379965Y0218833D01*
X0615965Y0166733D02*
X0615965Y0153833D01*
X0619965Y0153833D02*
X0619965Y0166733D01*
X0623965Y0166733D02*
X0623965Y0153833D01*
X0627965Y0153833D02*
X0627965Y0166733D01*
X0631965Y0166733D02*
X0631965Y0153833D01*
X0635965Y0153833D02*
X0635965Y0166733D01*
X0639965Y0166733D02*
X0639965Y0153833D01*
X0643965Y0153833D02*
X0643965Y0166733D01*
X0647965Y0166733D02*
X0647965Y0153833D01*
X0651965Y0153833D02*
X0651965Y0166733D01*
X0655965Y0166733D02*
X0655965Y0153833D01*
X0659965Y0153833D02*
X0659965Y0166733D01*
X0663965Y0166733D02*
X0663965Y0153833D01*
X0667965Y0153833D02*
X0667965Y0166733D01*
X0671965Y0166733D02*
X0671965Y0153833D01*
X0675965Y0153833D02*
X0675965Y0166733D01*
X0679965Y0166844D02*
X0679965Y0153833D01*
X0680181Y0166933D02*
X0715880Y0166933D01*
X0715965Y0167341D02*
X0715965Y0167691D01*
X0715965Y0166398D02*
X0715965Y0153833D01*
X0711965Y0153833D02*
X0711965Y0197665D01*
X0713233Y0198933D02*
X0722828Y0198933D01*
X0719965Y0199136D02*
X0719965Y0195190D01*
X0719823Y0194933D02*
X0709233Y0194933D01*
X0707965Y0193665D02*
X0707965Y0153833D01*
X0703965Y0153833D02*
X0703965Y0189665D01*
X0705233Y0190933D02*
X0714565Y0190933D01*
X0715965Y0192719D02*
X0715965Y0200033D01*
X0713657Y0186933D02*
X0701233Y0186933D01*
X0699965Y0185665D02*
X0699965Y0153833D01*
X0723965Y0155581D02*
X0723965Y0161966D01*
X0724782Y0162933D02*
X0725132Y0162933D01*
X0727965Y0161966D02*
X0727965Y0155581D01*
X0725132Y0166933D02*
X0724782Y0166933D01*
X0723965Y0167341D02*
X0723965Y0167691D01*
X0724782Y0170933D02*
X0725132Y0170933D01*
X0723965Y0173066D02*
X0723965Y0179451D01*
X0719965Y0179451D02*
X0719965Y0172883D01*
X0719965Y0167691D02*
X0719965Y0167341D01*
X0727965Y0167341D02*
X0727965Y0167691D01*
X0727965Y0173066D02*
X0727965Y0179451D01*
X0731965Y0180245D02*
X0731965Y0171864D01*
X0736257Y0186933D02*
X0738001Y0186933D01*
X0735965Y0189448D02*
X0735965Y0196796D01*
X0734102Y0194933D02*
X0738001Y0194933D01*
X0738001Y0190933D02*
X0735350Y0190933D01*
X0398215Y0422683D02*
X0398215Y0439608D01*
X0398215Y0450478D01*
X0386965Y0466728D01*
X0376965Y0466728D02*
X0380715Y0457978D01*
X0380715Y0440283D01*
X0194965Y0436233D02*
X0179765Y0456433D01*
X0147365Y0456433D01*
X0146886Y0457043D01*
X0138487Y0450933D02*
X0136165Y0450933D01*
X0136165Y0462933D02*
X0138266Y0462933D01*
X0146886Y0476728D02*
X0169465Y0476728D01*
X0174465Y0471728D01*
X0179965Y0447519D02*
X0179965Y0447401D01*
X0182365Y0442933D02*
X0183416Y0442933D01*
X0615965Y0451491D02*
X0615965Y0434133D01*
X0619965Y0433287D02*
X0619965Y0465534D01*
X0621364Y0466933D02*
X0646765Y0466933D01*
X0646765Y0462933D02*
X0617364Y0462933D01*
X0615965Y0461994D02*
X0615965Y0460025D01*
X0617057Y0458933D02*
X0646765Y0458933D01*
X0646765Y0454933D02*
X0617093Y0454933D01*
X0667965Y0435803D02*
X0667965Y0494433D01*
D22*
X0651965Y0368933D02*
X0636090Y0368933D01*
X0631790Y0364633D01*
X0631790Y0359108D01*
X0631965Y0358933D01*
X0632465Y0358433D01*
X0632465Y0351133D01*
X0635265Y0348333D01*
X0647165Y0348333D01*
X0662365Y0333333D02*
X0689590Y0333333D01*
X0696590Y0340333D01*
X0696590Y0348108D01*
X0696365Y0348333D01*
X0706265Y0358333D01*
X0706965Y0358933D01*
X0716965Y0358933D01*
X0717965Y0358333D01*
X0735965Y0340333D01*
X0735965Y0204433D01*
X0725165Y0193633D01*
X0725165Y0187333D01*
X0724957Y0187201D01*
X0662365Y0333333D02*
X0563565Y0234533D01*
X0468615Y0234533D01*
X0462190Y0234533D01*
X0458990Y0237733D01*
X0456290Y0240433D01*
X0400265Y0240433D01*
X0394190Y0246508D01*
X0394190Y0256158D01*
X0394465Y0256433D01*
X0384465Y0266433D01*
X0384465Y0273933D01*
X0385865Y0273333D01*
X0361965Y0235533D02*
X0338065Y0235533D01*
X0324665Y0248933D01*
X0324665Y0255333D01*
X0324465Y0256433D01*
X0312065Y0268833D01*
X0312065Y0273333D01*
X0311965Y0273933D01*
X0324665Y0248933D02*
X0324665Y0226033D01*
X0322865Y0224233D01*
X0321965Y0223933D01*
X0321965Y0218833D01*
X0333665Y0207133D01*
X0334465Y0206433D01*
X0361965Y0235533D02*
X0378265Y0224233D01*
X0391265Y0224233D01*
X0391965Y0223933D01*
X0392165Y0223333D01*
X0392165Y0218833D01*
X0403865Y0207133D01*
X0404465Y0206433D01*
X0404765Y0205333D01*
X0404765Y0203533D01*
X0409265Y0194308D01*
X0427265Y0194308D01*
X0449765Y0218833D01*
X0462365Y0218833D01*
X0474065Y0207133D01*
X0474465Y0206433D01*
X0462365Y0218833D02*
X0462365Y0223333D01*
X0461965Y0223933D01*
X0461690Y0224208D01*
X0461690Y0227608D01*
X0468615Y0234533D01*
X0458990Y0237733D02*
X0458990Y0245958D01*
X0459465Y0246433D01*
X0447065Y0253833D01*
X0447065Y0268333D01*
X0446965Y0268933D01*
X0446165Y0269233D01*
X0443240Y0269233D01*
X0244465Y0428933D02*
X0243665Y0429733D01*
X0243665Y0432133D01*
X0238265Y0437533D01*
X0231515Y0437533D01*
X0716965Y0358933D02*
X0726965Y0368933D01*
D23*
X0696365Y0348333D03*
X0647165Y0348333D03*
X0616965Y0348933D03*
X0596965Y0348933D03*
X0588590Y0379483D03*
X0533465Y0390733D03*
X0500165Y0360133D03*
X0454040Y0355858D03*
X0434015Y0360583D03*
X0411965Y0339433D03*
X0389465Y0324133D03*
X0360440Y0313333D03*
X0365515Y0287283D03*
X0290465Y0289033D03*
X0247265Y0336733D03*
X0247265Y0365533D03*
X0234440Y0392983D03*
X0210365Y0424033D03*
X0231515Y0437533D03*
X0263915Y0451708D03*
X0245690Y0476683D03*
X0305765Y0451708D03*
X0352340Y0452108D03*
X0421965Y0453933D03*
X0451965Y0455283D03*
X0434240Y0426058D03*
X0413765Y0396133D03*
X0392165Y0358333D03*
X0491965Y0308933D03*
X0491965Y0283933D03*
X0459665Y0287008D03*
X0497690Y0261133D03*
X0521865Y0187108D03*
X0521865Y0160783D03*
X0616940Y0259333D03*
X0626965Y0258933D03*
X0618065Y0279133D03*
X0377990Y0196558D03*
X0307115Y0196558D03*
X0276965Y0173933D03*
X0251965Y0173933D03*
X0184265Y0432308D03*
X0165365Y0432133D03*
X0184265Y0484108D03*
X0503590Y0455283D03*
X0562940Y0455758D03*
X0609515Y0455758D03*
X0636965Y0453933D03*
X0666965Y0453933D03*
D24*
X0681965Y0368933D02*
X0681740Y0368708D01*
X0681740Y0359233D01*
X0568940Y0246433D01*
X0549465Y0246433D01*
X0549465Y0256433D02*
X0564090Y0256433D01*
X0606815Y0299158D01*
X0606815Y0368783D01*
X0606965Y0368933D01*
X0571965Y0368933D02*
X0571965Y0297933D01*
X0549465Y0265433D01*
X0616940Y0259333D02*
X0616965Y0243933D01*
X0626965Y0243933D02*
X0626965Y0258933D01*
X0644615Y0226258D02*
X0669590Y0226258D01*
X0671615Y0228283D01*
X0671615Y0256633D01*
X0701990Y0287008D01*
X0724441Y0287008D01*
X0725036Y0286413D01*
X0725036Y0266728D02*
X0724391Y0266083D01*
X0693890Y0266083D01*
X0681965Y0254158D01*
X0681965Y0193933D01*
X0669465Y0181433D01*
X0656965Y0181433D01*
X0656965Y0193933D02*
X0646965Y0193933D01*
X0636965Y0203933D01*
X0636965Y0213933D01*
X0636965Y0218608D01*
X0644615Y0226258D01*
X0626965Y0213933D02*
X0626965Y0193933D01*
X0626965Y0181433D01*
X0466965Y0323933D02*
X0439090Y0351808D01*
X0380015Y0351808D01*
X0376965Y0354183D01*
X0376965Y0356433D01*
X0366965Y0353933D02*
X0366965Y0351358D01*
X0371915Y0346408D01*
X0414490Y0346408D01*
X0436965Y0323933D01*
X0406965Y0323933D02*
X0397990Y0338308D01*
X0361790Y0338308D01*
X0356965Y0342458D01*
X0356965Y0353933D01*
X0346965Y0353933D02*
X0347640Y0338958D01*
X0353015Y0333583D01*
X0367315Y0333583D01*
X0374265Y0323258D01*
X0344365Y0323333D02*
X0336965Y0338933D01*
X0336965Y0353933D01*
X0326965Y0353933D02*
X0326965Y0328933D01*
X0319940Y0323933D01*
X0310965Y0346883D02*
X0291965Y0327883D01*
X0291965Y0323933D01*
X0285515Y0333583D02*
X0262315Y0333583D01*
X0261965Y0333933D01*
X0259865Y0345058D02*
X0246365Y0358558D01*
X0232340Y0358558D01*
X0231965Y0358933D01*
X0259865Y0345058D02*
X0283490Y0345058D01*
X0290965Y0352533D01*
X0290965Y0353933D01*
X0300965Y0353933D02*
X0300965Y0349033D01*
X0285515Y0333583D01*
X0310965Y0346883D02*
X0310965Y0353933D01*
X0396965Y0366728D02*
X0396965Y0376433D01*
M02*
