G75*
%MOIN*%
%OFA0B0*%
%FSLAX25Y25*%
%IPPOS*%
%LPD*%
%AMOC8*
5,1,8,0,0,1.08239X$1,22.5*
%
%ADD10C,0.00000*%
%ADD11C,0.00600*%
%ADD12C,0.07400*%
%ADD13R,0.07400X0.07400*%
%ADD14OC8,0.07400*%
%ADD15C,0.07600*%
%ADD16OC8,0.07600*%
%ADD17OC8,0.06300*%
%ADD18OC8,0.05600*%
%ADD19C,0.06400*%
%ADD20C,0.05600*%
%ADD21C,0.07100*%
%ADD22C,0.01600*%
%ADD23OC8,0.06756*%
%ADD24C,0.04000*%
%ADD25C,0.02400*%
%ADD26C,0.02000*%
D10*
X0131965Y0111600D02*
X0131965Y0505596D01*
X0742201Y0505616D01*
X0742201Y0111600D01*
X0131965Y0111600D01*
X0171138Y0125970D02*
X0171140Y0126123D01*
X0171146Y0126277D01*
X0171156Y0126430D01*
X0171170Y0126582D01*
X0171188Y0126735D01*
X0171210Y0126886D01*
X0171235Y0127037D01*
X0171265Y0127188D01*
X0171299Y0127338D01*
X0171336Y0127486D01*
X0171377Y0127634D01*
X0171422Y0127780D01*
X0171471Y0127926D01*
X0171524Y0128070D01*
X0171580Y0128212D01*
X0171640Y0128353D01*
X0171704Y0128493D01*
X0171771Y0128631D01*
X0171842Y0128767D01*
X0171917Y0128901D01*
X0171994Y0129033D01*
X0172076Y0129163D01*
X0172160Y0129291D01*
X0172248Y0129417D01*
X0172339Y0129540D01*
X0172433Y0129661D01*
X0172531Y0129779D01*
X0172631Y0129895D01*
X0172735Y0130008D01*
X0172841Y0130119D01*
X0172950Y0130227D01*
X0173062Y0130332D01*
X0173176Y0130433D01*
X0173294Y0130532D01*
X0173413Y0130628D01*
X0173535Y0130721D01*
X0173660Y0130810D01*
X0173787Y0130897D01*
X0173916Y0130979D01*
X0174047Y0131059D01*
X0174180Y0131135D01*
X0174315Y0131208D01*
X0174452Y0131277D01*
X0174591Y0131342D01*
X0174731Y0131404D01*
X0174873Y0131462D01*
X0175016Y0131517D01*
X0175161Y0131568D01*
X0175307Y0131615D01*
X0175454Y0131658D01*
X0175602Y0131697D01*
X0175751Y0131733D01*
X0175901Y0131764D01*
X0176052Y0131792D01*
X0176203Y0131816D01*
X0176356Y0131836D01*
X0176508Y0131852D01*
X0176661Y0131864D01*
X0176814Y0131872D01*
X0176967Y0131876D01*
X0177121Y0131876D01*
X0177274Y0131872D01*
X0177427Y0131864D01*
X0177580Y0131852D01*
X0177732Y0131836D01*
X0177885Y0131816D01*
X0178036Y0131792D01*
X0178187Y0131764D01*
X0178337Y0131733D01*
X0178486Y0131697D01*
X0178634Y0131658D01*
X0178781Y0131615D01*
X0178927Y0131568D01*
X0179072Y0131517D01*
X0179215Y0131462D01*
X0179357Y0131404D01*
X0179497Y0131342D01*
X0179636Y0131277D01*
X0179773Y0131208D01*
X0179908Y0131135D01*
X0180041Y0131059D01*
X0180172Y0130979D01*
X0180301Y0130897D01*
X0180428Y0130810D01*
X0180553Y0130721D01*
X0180675Y0130628D01*
X0180794Y0130532D01*
X0180912Y0130433D01*
X0181026Y0130332D01*
X0181138Y0130227D01*
X0181247Y0130119D01*
X0181353Y0130008D01*
X0181457Y0129895D01*
X0181557Y0129779D01*
X0181655Y0129661D01*
X0181749Y0129540D01*
X0181840Y0129417D01*
X0181928Y0129291D01*
X0182012Y0129163D01*
X0182094Y0129033D01*
X0182171Y0128901D01*
X0182246Y0128767D01*
X0182317Y0128631D01*
X0182384Y0128493D01*
X0182448Y0128353D01*
X0182508Y0128212D01*
X0182564Y0128070D01*
X0182617Y0127926D01*
X0182666Y0127780D01*
X0182711Y0127634D01*
X0182752Y0127486D01*
X0182789Y0127338D01*
X0182823Y0127188D01*
X0182853Y0127037D01*
X0182878Y0126886D01*
X0182900Y0126735D01*
X0182918Y0126582D01*
X0182932Y0126430D01*
X0182942Y0126277D01*
X0182948Y0126123D01*
X0182950Y0125970D01*
X0182948Y0125817D01*
X0182942Y0125663D01*
X0182932Y0125510D01*
X0182918Y0125358D01*
X0182900Y0125205D01*
X0182878Y0125054D01*
X0182853Y0124903D01*
X0182823Y0124752D01*
X0182789Y0124602D01*
X0182752Y0124454D01*
X0182711Y0124306D01*
X0182666Y0124160D01*
X0182617Y0124014D01*
X0182564Y0123870D01*
X0182508Y0123728D01*
X0182448Y0123587D01*
X0182384Y0123447D01*
X0182317Y0123309D01*
X0182246Y0123173D01*
X0182171Y0123039D01*
X0182094Y0122907D01*
X0182012Y0122777D01*
X0181928Y0122649D01*
X0181840Y0122523D01*
X0181749Y0122400D01*
X0181655Y0122279D01*
X0181557Y0122161D01*
X0181457Y0122045D01*
X0181353Y0121932D01*
X0181247Y0121821D01*
X0181138Y0121713D01*
X0181026Y0121608D01*
X0180912Y0121507D01*
X0180794Y0121408D01*
X0180675Y0121312D01*
X0180553Y0121219D01*
X0180428Y0121130D01*
X0180301Y0121043D01*
X0180172Y0120961D01*
X0180041Y0120881D01*
X0179908Y0120805D01*
X0179773Y0120732D01*
X0179636Y0120663D01*
X0179497Y0120598D01*
X0179357Y0120536D01*
X0179215Y0120478D01*
X0179072Y0120423D01*
X0178927Y0120372D01*
X0178781Y0120325D01*
X0178634Y0120282D01*
X0178486Y0120243D01*
X0178337Y0120207D01*
X0178187Y0120176D01*
X0178036Y0120148D01*
X0177885Y0120124D01*
X0177732Y0120104D01*
X0177580Y0120088D01*
X0177427Y0120076D01*
X0177274Y0120068D01*
X0177121Y0120064D01*
X0176967Y0120064D01*
X0176814Y0120068D01*
X0176661Y0120076D01*
X0176508Y0120088D01*
X0176356Y0120104D01*
X0176203Y0120124D01*
X0176052Y0120148D01*
X0175901Y0120176D01*
X0175751Y0120207D01*
X0175602Y0120243D01*
X0175454Y0120282D01*
X0175307Y0120325D01*
X0175161Y0120372D01*
X0175016Y0120423D01*
X0174873Y0120478D01*
X0174731Y0120536D01*
X0174591Y0120598D01*
X0174452Y0120663D01*
X0174315Y0120732D01*
X0174180Y0120805D01*
X0174047Y0120881D01*
X0173916Y0120961D01*
X0173787Y0121043D01*
X0173660Y0121130D01*
X0173535Y0121219D01*
X0173413Y0121312D01*
X0173294Y0121408D01*
X0173176Y0121507D01*
X0173062Y0121608D01*
X0172950Y0121713D01*
X0172841Y0121821D01*
X0172735Y0121932D01*
X0172631Y0122045D01*
X0172531Y0122161D01*
X0172433Y0122279D01*
X0172339Y0122400D01*
X0172248Y0122523D01*
X0172160Y0122649D01*
X0172076Y0122777D01*
X0171994Y0122907D01*
X0171917Y0123039D01*
X0171842Y0123173D01*
X0171771Y0123309D01*
X0171704Y0123447D01*
X0171640Y0123587D01*
X0171580Y0123728D01*
X0171524Y0123870D01*
X0171471Y0124014D01*
X0171422Y0124160D01*
X0171377Y0124306D01*
X0171336Y0124454D01*
X0171299Y0124602D01*
X0171265Y0124752D01*
X0171235Y0124903D01*
X0171210Y0125054D01*
X0171188Y0125205D01*
X0171170Y0125358D01*
X0171156Y0125510D01*
X0171146Y0125663D01*
X0171140Y0125817D01*
X0171138Y0125970D01*
X0171138Y0410616D02*
X0171140Y0410769D01*
X0171146Y0410923D01*
X0171156Y0411076D01*
X0171170Y0411228D01*
X0171188Y0411381D01*
X0171210Y0411532D01*
X0171235Y0411683D01*
X0171265Y0411834D01*
X0171299Y0411984D01*
X0171336Y0412132D01*
X0171377Y0412280D01*
X0171422Y0412426D01*
X0171471Y0412572D01*
X0171524Y0412716D01*
X0171580Y0412858D01*
X0171640Y0412999D01*
X0171704Y0413139D01*
X0171771Y0413277D01*
X0171842Y0413413D01*
X0171917Y0413547D01*
X0171994Y0413679D01*
X0172076Y0413809D01*
X0172160Y0413937D01*
X0172248Y0414063D01*
X0172339Y0414186D01*
X0172433Y0414307D01*
X0172531Y0414425D01*
X0172631Y0414541D01*
X0172735Y0414654D01*
X0172841Y0414765D01*
X0172950Y0414873D01*
X0173062Y0414978D01*
X0173176Y0415079D01*
X0173294Y0415178D01*
X0173413Y0415274D01*
X0173535Y0415367D01*
X0173660Y0415456D01*
X0173787Y0415543D01*
X0173916Y0415625D01*
X0174047Y0415705D01*
X0174180Y0415781D01*
X0174315Y0415854D01*
X0174452Y0415923D01*
X0174591Y0415988D01*
X0174731Y0416050D01*
X0174873Y0416108D01*
X0175016Y0416163D01*
X0175161Y0416214D01*
X0175307Y0416261D01*
X0175454Y0416304D01*
X0175602Y0416343D01*
X0175751Y0416379D01*
X0175901Y0416410D01*
X0176052Y0416438D01*
X0176203Y0416462D01*
X0176356Y0416482D01*
X0176508Y0416498D01*
X0176661Y0416510D01*
X0176814Y0416518D01*
X0176967Y0416522D01*
X0177121Y0416522D01*
X0177274Y0416518D01*
X0177427Y0416510D01*
X0177580Y0416498D01*
X0177732Y0416482D01*
X0177885Y0416462D01*
X0178036Y0416438D01*
X0178187Y0416410D01*
X0178337Y0416379D01*
X0178486Y0416343D01*
X0178634Y0416304D01*
X0178781Y0416261D01*
X0178927Y0416214D01*
X0179072Y0416163D01*
X0179215Y0416108D01*
X0179357Y0416050D01*
X0179497Y0415988D01*
X0179636Y0415923D01*
X0179773Y0415854D01*
X0179908Y0415781D01*
X0180041Y0415705D01*
X0180172Y0415625D01*
X0180301Y0415543D01*
X0180428Y0415456D01*
X0180553Y0415367D01*
X0180675Y0415274D01*
X0180794Y0415178D01*
X0180912Y0415079D01*
X0181026Y0414978D01*
X0181138Y0414873D01*
X0181247Y0414765D01*
X0181353Y0414654D01*
X0181457Y0414541D01*
X0181557Y0414425D01*
X0181655Y0414307D01*
X0181749Y0414186D01*
X0181840Y0414063D01*
X0181928Y0413937D01*
X0182012Y0413809D01*
X0182094Y0413679D01*
X0182171Y0413547D01*
X0182246Y0413413D01*
X0182317Y0413277D01*
X0182384Y0413139D01*
X0182448Y0412999D01*
X0182508Y0412858D01*
X0182564Y0412716D01*
X0182617Y0412572D01*
X0182666Y0412426D01*
X0182711Y0412280D01*
X0182752Y0412132D01*
X0182789Y0411984D01*
X0182823Y0411834D01*
X0182853Y0411683D01*
X0182878Y0411532D01*
X0182900Y0411381D01*
X0182918Y0411228D01*
X0182932Y0411076D01*
X0182942Y0410923D01*
X0182948Y0410769D01*
X0182950Y0410616D01*
X0182948Y0410463D01*
X0182942Y0410309D01*
X0182932Y0410156D01*
X0182918Y0410004D01*
X0182900Y0409851D01*
X0182878Y0409700D01*
X0182853Y0409549D01*
X0182823Y0409398D01*
X0182789Y0409248D01*
X0182752Y0409100D01*
X0182711Y0408952D01*
X0182666Y0408806D01*
X0182617Y0408660D01*
X0182564Y0408516D01*
X0182508Y0408374D01*
X0182448Y0408233D01*
X0182384Y0408093D01*
X0182317Y0407955D01*
X0182246Y0407819D01*
X0182171Y0407685D01*
X0182094Y0407553D01*
X0182012Y0407423D01*
X0181928Y0407295D01*
X0181840Y0407169D01*
X0181749Y0407046D01*
X0181655Y0406925D01*
X0181557Y0406807D01*
X0181457Y0406691D01*
X0181353Y0406578D01*
X0181247Y0406467D01*
X0181138Y0406359D01*
X0181026Y0406254D01*
X0180912Y0406153D01*
X0180794Y0406054D01*
X0180675Y0405958D01*
X0180553Y0405865D01*
X0180428Y0405776D01*
X0180301Y0405689D01*
X0180172Y0405607D01*
X0180041Y0405527D01*
X0179908Y0405451D01*
X0179773Y0405378D01*
X0179636Y0405309D01*
X0179497Y0405244D01*
X0179357Y0405182D01*
X0179215Y0405124D01*
X0179072Y0405069D01*
X0178927Y0405018D01*
X0178781Y0404971D01*
X0178634Y0404928D01*
X0178486Y0404889D01*
X0178337Y0404853D01*
X0178187Y0404822D01*
X0178036Y0404794D01*
X0177885Y0404770D01*
X0177732Y0404750D01*
X0177580Y0404734D01*
X0177427Y0404722D01*
X0177274Y0404714D01*
X0177121Y0404710D01*
X0176967Y0404710D01*
X0176814Y0404714D01*
X0176661Y0404722D01*
X0176508Y0404734D01*
X0176356Y0404750D01*
X0176203Y0404770D01*
X0176052Y0404794D01*
X0175901Y0404822D01*
X0175751Y0404853D01*
X0175602Y0404889D01*
X0175454Y0404928D01*
X0175307Y0404971D01*
X0175161Y0405018D01*
X0175016Y0405069D01*
X0174873Y0405124D01*
X0174731Y0405182D01*
X0174591Y0405244D01*
X0174452Y0405309D01*
X0174315Y0405378D01*
X0174180Y0405451D01*
X0174047Y0405527D01*
X0173916Y0405607D01*
X0173787Y0405689D01*
X0173660Y0405776D01*
X0173535Y0405865D01*
X0173413Y0405958D01*
X0173294Y0406054D01*
X0173176Y0406153D01*
X0173062Y0406254D01*
X0172950Y0406359D01*
X0172841Y0406467D01*
X0172735Y0406578D01*
X0172631Y0406691D01*
X0172531Y0406807D01*
X0172433Y0406925D01*
X0172339Y0407046D01*
X0172248Y0407169D01*
X0172160Y0407295D01*
X0172076Y0407423D01*
X0171994Y0407553D01*
X0171917Y0407685D01*
X0171842Y0407819D01*
X0171771Y0407955D01*
X0171704Y0408093D01*
X0171640Y0408233D01*
X0171580Y0408374D01*
X0171524Y0408516D01*
X0171471Y0408660D01*
X0171422Y0408806D01*
X0171377Y0408952D01*
X0171336Y0409100D01*
X0171299Y0409248D01*
X0171265Y0409398D01*
X0171235Y0409549D01*
X0171210Y0409700D01*
X0171188Y0409851D01*
X0171170Y0410004D01*
X0171156Y0410156D01*
X0171146Y0410309D01*
X0171140Y0410463D01*
X0171138Y0410616D01*
X0255666Y0494395D02*
X0255668Y0494553D01*
X0255674Y0494711D01*
X0255684Y0494869D01*
X0255698Y0495027D01*
X0255716Y0495184D01*
X0255737Y0495341D01*
X0255763Y0495497D01*
X0255793Y0495653D01*
X0255826Y0495808D01*
X0255864Y0495961D01*
X0255905Y0496114D01*
X0255950Y0496266D01*
X0255999Y0496417D01*
X0256052Y0496566D01*
X0256108Y0496714D01*
X0256168Y0496860D01*
X0256232Y0497005D01*
X0256300Y0497148D01*
X0256371Y0497290D01*
X0256445Y0497430D01*
X0256523Y0497567D01*
X0256605Y0497703D01*
X0256689Y0497837D01*
X0256778Y0497968D01*
X0256869Y0498097D01*
X0256964Y0498224D01*
X0257061Y0498349D01*
X0257162Y0498471D01*
X0257266Y0498590D01*
X0257373Y0498707D01*
X0257483Y0498821D01*
X0257596Y0498932D01*
X0257711Y0499041D01*
X0257829Y0499146D01*
X0257950Y0499248D01*
X0258073Y0499348D01*
X0258199Y0499444D01*
X0258327Y0499537D01*
X0258457Y0499627D01*
X0258590Y0499713D01*
X0258725Y0499797D01*
X0258861Y0499876D01*
X0259000Y0499953D01*
X0259141Y0500025D01*
X0259283Y0500095D01*
X0259427Y0500160D01*
X0259573Y0500222D01*
X0259720Y0500280D01*
X0259869Y0500335D01*
X0260019Y0500386D01*
X0260170Y0500433D01*
X0260322Y0500476D01*
X0260475Y0500515D01*
X0260630Y0500551D01*
X0260785Y0500582D01*
X0260941Y0500610D01*
X0261097Y0500634D01*
X0261254Y0500654D01*
X0261412Y0500670D01*
X0261569Y0500682D01*
X0261728Y0500690D01*
X0261886Y0500694D01*
X0262044Y0500694D01*
X0262202Y0500690D01*
X0262361Y0500682D01*
X0262518Y0500670D01*
X0262676Y0500654D01*
X0262833Y0500634D01*
X0262989Y0500610D01*
X0263145Y0500582D01*
X0263300Y0500551D01*
X0263455Y0500515D01*
X0263608Y0500476D01*
X0263760Y0500433D01*
X0263911Y0500386D01*
X0264061Y0500335D01*
X0264210Y0500280D01*
X0264357Y0500222D01*
X0264503Y0500160D01*
X0264647Y0500095D01*
X0264789Y0500025D01*
X0264930Y0499953D01*
X0265069Y0499876D01*
X0265205Y0499797D01*
X0265340Y0499713D01*
X0265473Y0499627D01*
X0265603Y0499537D01*
X0265731Y0499444D01*
X0265857Y0499348D01*
X0265980Y0499248D01*
X0266101Y0499146D01*
X0266219Y0499041D01*
X0266334Y0498932D01*
X0266447Y0498821D01*
X0266557Y0498707D01*
X0266664Y0498590D01*
X0266768Y0498471D01*
X0266869Y0498349D01*
X0266966Y0498224D01*
X0267061Y0498097D01*
X0267152Y0497968D01*
X0267241Y0497837D01*
X0267325Y0497703D01*
X0267407Y0497567D01*
X0267485Y0497430D01*
X0267559Y0497290D01*
X0267630Y0497148D01*
X0267698Y0497005D01*
X0267762Y0496860D01*
X0267822Y0496714D01*
X0267878Y0496566D01*
X0267931Y0496417D01*
X0267980Y0496266D01*
X0268025Y0496114D01*
X0268066Y0495961D01*
X0268104Y0495808D01*
X0268137Y0495653D01*
X0268167Y0495497D01*
X0268193Y0495341D01*
X0268214Y0495184D01*
X0268232Y0495027D01*
X0268246Y0494869D01*
X0268256Y0494711D01*
X0268262Y0494553D01*
X0268264Y0494395D01*
X0268262Y0494237D01*
X0268256Y0494079D01*
X0268246Y0493921D01*
X0268232Y0493763D01*
X0268214Y0493606D01*
X0268193Y0493449D01*
X0268167Y0493293D01*
X0268137Y0493137D01*
X0268104Y0492982D01*
X0268066Y0492829D01*
X0268025Y0492676D01*
X0267980Y0492524D01*
X0267931Y0492373D01*
X0267878Y0492224D01*
X0267822Y0492076D01*
X0267762Y0491930D01*
X0267698Y0491785D01*
X0267630Y0491642D01*
X0267559Y0491500D01*
X0267485Y0491360D01*
X0267407Y0491223D01*
X0267325Y0491087D01*
X0267241Y0490953D01*
X0267152Y0490822D01*
X0267061Y0490693D01*
X0266966Y0490566D01*
X0266869Y0490441D01*
X0266768Y0490319D01*
X0266664Y0490200D01*
X0266557Y0490083D01*
X0266447Y0489969D01*
X0266334Y0489858D01*
X0266219Y0489749D01*
X0266101Y0489644D01*
X0265980Y0489542D01*
X0265857Y0489442D01*
X0265731Y0489346D01*
X0265603Y0489253D01*
X0265473Y0489163D01*
X0265340Y0489077D01*
X0265205Y0488993D01*
X0265069Y0488914D01*
X0264930Y0488837D01*
X0264789Y0488765D01*
X0264647Y0488695D01*
X0264503Y0488630D01*
X0264357Y0488568D01*
X0264210Y0488510D01*
X0264061Y0488455D01*
X0263911Y0488404D01*
X0263760Y0488357D01*
X0263608Y0488314D01*
X0263455Y0488275D01*
X0263300Y0488239D01*
X0263145Y0488208D01*
X0262989Y0488180D01*
X0262833Y0488156D01*
X0262676Y0488136D01*
X0262518Y0488120D01*
X0262361Y0488108D01*
X0262202Y0488100D01*
X0262044Y0488096D01*
X0261886Y0488096D01*
X0261728Y0488100D01*
X0261569Y0488108D01*
X0261412Y0488120D01*
X0261254Y0488136D01*
X0261097Y0488156D01*
X0260941Y0488180D01*
X0260785Y0488208D01*
X0260630Y0488239D01*
X0260475Y0488275D01*
X0260322Y0488314D01*
X0260170Y0488357D01*
X0260019Y0488404D01*
X0259869Y0488455D01*
X0259720Y0488510D01*
X0259573Y0488568D01*
X0259427Y0488630D01*
X0259283Y0488695D01*
X0259141Y0488765D01*
X0259000Y0488837D01*
X0258861Y0488914D01*
X0258725Y0488993D01*
X0258590Y0489077D01*
X0258457Y0489163D01*
X0258327Y0489253D01*
X0258199Y0489346D01*
X0258073Y0489442D01*
X0257950Y0489542D01*
X0257829Y0489644D01*
X0257711Y0489749D01*
X0257596Y0489858D01*
X0257483Y0489969D01*
X0257373Y0490083D01*
X0257266Y0490200D01*
X0257162Y0490319D01*
X0257061Y0490441D01*
X0256964Y0490566D01*
X0256869Y0490693D01*
X0256778Y0490822D01*
X0256689Y0490953D01*
X0256605Y0491087D01*
X0256523Y0491223D01*
X0256445Y0491360D01*
X0256371Y0491500D01*
X0256300Y0491642D01*
X0256232Y0491785D01*
X0256168Y0491930D01*
X0256108Y0492076D01*
X0256052Y0492224D01*
X0255999Y0492373D01*
X0255950Y0492524D01*
X0255905Y0492676D01*
X0255864Y0492829D01*
X0255826Y0492982D01*
X0255793Y0493137D01*
X0255763Y0493293D01*
X0255737Y0493449D01*
X0255716Y0493606D01*
X0255698Y0493763D01*
X0255684Y0493921D01*
X0255674Y0494079D01*
X0255668Y0494237D01*
X0255666Y0494395D01*
X0300666Y0494395D02*
X0300668Y0494553D01*
X0300674Y0494711D01*
X0300684Y0494869D01*
X0300698Y0495027D01*
X0300716Y0495184D01*
X0300737Y0495341D01*
X0300763Y0495497D01*
X0300793Y0495653D01*
X0300826Y0495808D01*
X0300864Y0495961D01*
X0300905Y0496114D01*
X0300950Y0496266D01*
X0300999Y0496417D01*
X0301052Y0496566D01*
X0301108Y0496714D01*
X0301168Y0496860D01*
X0301232Y0497005D01*
X0301300Y0497148D01*
X0301371Y0497290D01*
X0301445Y0497430D01*
X0301523Y0497567D01*
X0301605Y0497703D01*
X0301689Y0497837D01*
X0301778Y0497968D01*
X0301869Y0498097D01*
X0301964Y0498224D01*
X0302061Y0498349D01*
X0302162Y0498471D01*
X0302266Y0498590D01*
X0302373Y0498707D01*
X0302483Y0498821D01*
X0302596Y0498932D01*
X0302711Y0499041D01*
X0302829Y0499146D01*
X0302950Y0499248D01*
X0303073Y0499348D01*
X0303199Y0499444D01*
X0303327Y0499537D01*
X0303457Y0499627D01*
X0303590Y0499713D01*
X0303725Y0499797D01*
X0303861Y0499876D01*
X0304000Y0499953D01*
X0304141Y0500025D01*
X0304283Y0500095D01*
X0304427Y0500160D01*
X0304573Y0500222D01*
X0304720Y0500280D01*
X0304869Y0500335D01*
X0305019Y0500386D01*
X0305170Y0500433D01*
X0305322Y0500476D01*
X0305475Y0500515D01*
X0305630Y0500551D01*
X0305785Y0500582D01*
X0305941Y0500610D01*
X0306097Y0500634D01*
X0306254Y0500654D01*
X0306412Y0500670D01*
X0306569Y0500682D01*
X0306728Y0500690D01*
X0306886Y0500694D01*
X0307044Y0500694D01*
X0307202Y0500690D01*
X0307361Y0500682D01*
X0307518Y0500670D01*
X0307676Y0500654D01*
X0307833Y0500634D01*
X0307989Y0500610D01*
X0308145Y0500582D01*
X0308300Y0500551D01*
X0308455Y0500515D01*
X0308608Y0500476D01*
X0308760Y0500433D01*
X0308911Y0500386D01*
X0309061Y0500335D01*
X0309210Y0500280D01*
X0309357Y0500222D01*
X0309503Y0500160D01*
X0309647Y0500095D01*
X0309789Y0500025D01*
X0309930Y0499953D01*
X0310069Y0499876D01*
X0310205Y0499797D01*
X0310340Y0499713D01*
X0310473Y0499627D01*
X0310603Y0499537D01*
X0310731Y0499444D01*
X0310857Y0499348D01*
X0310980Y0499248D01*
X0311101Y0499146D01*
X0311219Y0499041D01*
X0311334Y0498932D01*
X0311447Y0498821D01*
X0311557Y0498707D01*
X0311664Y0498590D01*
X0311768Y0498471D01*
X0311869Y0498349D01*
X0311966Y0498224D01*
X0312061Y0498097D01*
X0312152Y0497968D01*
X0312241Y0497837D01*
X0312325Y0497703D01*
X0312407Y0497567D01*
X0312485Y0497430D01*
X0312559Y0497290D01*
X0312630Y0497148D01*
X0312698Y0497005D01*
X0312762Y0496860D01*
X0312822Y0496714D01*
X0312878Y0496566D01*
X0312931Y0496417D01*
X0312980Y0496266D01*
X0313025Y0496114D01*
X0313066Y0495961D01*
X0313104Y0495808D01*
X0313137Y0495653D01*
X0313167Y0495497D01*
X0313193Y0495341D01*
X0313214Y0495184D01*
X0313232Y0495027D01*
X0313246Y0494869D01*
X0313256Y0494711D01*
X0313262Y0494553D01*
X0313264Y0494395D01*
X0313262Y0494237D01*
X0313256Y0494079D01*
X0313246Y0493921D01*
X0313232Y0493763D01*
X0313214Y0493606D01*
X0313193Y0493449D01*
X0313167Y0493293D01*
X0313137Y0493137D01*
X0313104Y0492982D01*
X0313066Y0492829D01*
X0313025Y0492676D01*
X0312980Y0492524D01*
X0312931Y0492373D01*
X0312878Y0492224D01*
X0312822Y0492076D01*
X0312762Y0491930D01*
X0312698Y0491785D01*
X0312630Y0491642D01*
X0312559Y0491500D01*
X0312485Y0491360D01*
X0312407Y0491223D01*
X0312325Y0491087D01*
X0312241Y0490953D01*
X0312152Y0490822D01*
X0312061Y0490693D01*
X0311966Y0490566D01*
X0311869Y0490441D01*
X0311768Y0490319D01*
X0311664Y0490200D01*
X0311557Y0490083D01*
X0311447Y0489969D01*
X0311334Y0489858D01*
X0311219Y0489749D01*
X0311101Y0489644D01*
X0310980Y0489542D01*
X0310857Y0489442D01*
X0310731Y0489346D01*
X0310603Y0489253D01*
X0310473Y0489163D01*
X0310340Y0489077D01*
X0310205Y0488993D01*
X0310069Y0488914D01*
X0309930Y0488837D01*
X0309789Y0488765D01*
X0309647Y0488695D01*
X0309503Y0488630D01*
X0309357Y0488568D01*
X0309210Y0488510D01*
X0309061Y0488455D01*
X0308911Y0488404D01*
X0308760Y0488357D01*
X0308608Y0488314D01*
X0308455Y0488275D01*
X0308300Y0488239D01*
X0308145Y0488208D01*
X0307989Y0488180D01*
X0307833Y0488156D01*
X0307676Y0488136D01*
X0307518Y0488120D01*
X0307361Y0488108D01*
X0307202Y0488100D01*
X0307044Y0488096D01*
X0306886Y0488096D01*
X0306728Y0488100D01*
X0306569Y0488108D01*
X0306412Y0488120D01*
X0306254Y0488136D01*
X0306097Y0488156D01*
X0305941Y0488180D01*
X0305785Y0488208D01*
X0305630Y0488239D01*
X0305475Y0488275D01*
X0305322Y0488314D01*
X0305170Y0488357D01*
X0305019Y0488404D01*
X0304869Y0488455D01*
X0304720Y0488510D01*
X0304573Y0488568D01*
X0304427Y0488630D01*
X0304283Y0488695D01*
X0304141Y0488765D01*
X0304000Y0488837D01*
X0303861Y0488914D01*
X0303725Y0488993D01*
X0303590Y0489077D01*
X0303457Y0489163D01*
X0303327Y0489253D01*
X0303199Y0489346D01*
X0303073Y0489442D01*
X0302950Y0489542D01*
X0302829Y0489644D01*
X0302711Y0489749D01*
X0302596Y0489858D01*
X0302483Y0489969D01*
X0302373Y0490083D01*
X0302266Y0490200D01*
X0302162Y0490319D01*
X0302061Y0490441D01*
X0301964Y0490566D01*
X0301869Y0490693D01*
X0301778Y0490822D01*
X0301689Y0490953D01*
X0301605Y0491087D01*
X0301523Y0491223D01*
X0301445Y0491360D01*
X0301371Y0491500D01*
X0301300Y0491642D01*
X0301232Y0491785D01*
X0301168Y0491930D01*
X0301108Y0492076D01*
X0301052Y0492224D01*
X0300999Y0492373D01*
X0300950Y0492524D01*
X0300905Y0492676D01*
X0300864Y0492829D01*
X0300826Y0492982D01*
X0300793Y0493137D01*
X0300763Y0493293D01*
X0300737Y0493449D01*
X0300716Y0493606D01*
X0300698Y0493763D01*
X0300684Y0493921D01*
X0300674Y0494079D01*
X0300668Y0494237D01*
X0300666Y0494395D01*
X0355666Y0494395D02*
X0355668Y0494553D01*
X0355674Y0494711D01*
X0355684Y0494869D01*
X0355698Y0495027D01*
X0355716Y0495184D01*
X0355737Y0495341D01*
X0355763Y0495497D01*
X0355793Y0495653D01*
X0355826Y0495808D01*
X0355864Y0495961D01*
X0355905Y0496114D01*
X0355950Y0496266D01*
X0355999Y0496417D01*
X0356052Y0496566D01*
X0356108Y0496714D01*
X0356168Y0496860D01*
X0356232Y0497005D01*
X0356300Y0497148D01*
X0356371Y0497290D01*
X0356445Y0497430D01*
X0356523Y0497567D01*
X0356605Y0497703D01*
X0356689Y0497837D01*
X0356778Y0497968D01*
X0356869Y0498097D01*
X0356964Y0498224D01*
X0357061Y0498349D01*
X0357162Y0498471D01*
X0357266Y0498590D01*
X0357373Y0498707D01*
X0357483Y0498821D01*
X0357596Y0498932D01*
X0357711Y0499041D01*
X0357829Y0499146D01*
X0357950Y0499248D01*
X0358073Y0499348D01*
X0358199Y0499444D01*
X0358327Y0499537D01*
X0358457Y0499627D01*
X0358590Y0499713D01*
X0358725Y0499797D01*
X0358861Y0499876D01*
X0359000Y0499953D01*
X0359141Y0500025D01*
X0359283Y0500095D01*
X0359427Y0500160D01*
X0359573Y0500222D01*
X0359720Y0500280D01*
X0359869Y0500335D01*
X0360019Y0500386D01*
X0360170Y0500433D01*
X0360322Y0500476D01*
X0360475Y0500515D01*
X0360630Y0500551D01*
X0360785Y0500582D01*
X0360941Y0500610D01*
X0361097Y0500634D01*
X0361254Y0500654D01*
X0361412Y0500670D01*
X0361569Y0500682D01*
X0361728Y0500690D01*
X0361886Y0500694D01*
X0362044Y0500694D01*
X0362202Y0500690D01*
X0362361Y0500682D01*
X0362518Y0500670D01*
X0362676Y0500654D01*
X0362833Y0500634D01*
X0362989Y0500610D01*
X0363145Y0500582D01*
X0363300Y0500551D01*
X0363455Y0500515D01*
X0363608Y0500476D01*
X0363760Y0500433D01*
X0363911Y0500386D01*
X0364061Y0500335D01*
X0364210Y0500280D01*
X0364357Y0500222D01*
X0364503Y0500160D01*
X0364647Y0500095D01*
X0364789Y0500025D01*
X0364930Y0499953D01*
X0365069Y0499876D01*
X0365205Y0499797D01*
X0365340Y0499713D01*
X0365473Y0499627D01*
X0365603Y0499537D01*
X0365731Y0499444D01*
X0365857Y0499348D01*
X0365980Y0499248D01*
X0366101Y0499146D01*
X0366219Y0499041D01*
X0366334Y0498932D01*
X0366447Y0498821D01*
X0366557Y0498707D01*
X0366664Y0498590D01*
X0366768Y0498471D01*
X0366869Y0498349D01*
X0366966Y0498224D01*
X0367061Y0498097D01*
X0367152Y0497968D01*
X0367241Y0497837D01*
X0367325Y0497703D01*
X0367407Y0497567D01*
X0367485Y0497430D01*
X0367559Y0497290D01*
X0367630Y0497148D01*
X0367698Y0497005D01*
X0367762Y0496860D01*
X0367822Y0496714D01*
X0367878Y0496566D01*
X0367931Y0496417D01*
X0367980Y0496266D01*
X0368025Y0496114D01*
X0368066Y0495961D01*
X0368104Y0495808D01*
X0368137Y0495653D01*
X0368167Y0495497D01*
X0368193Y0495341D01*
X0368214Y0495184D01*
X0368232Y0495027D01*
X0368246Y0494869D01*
X0368256Y0494711D01*
X0368262Y0494553D01*
X0368264Y0494395D01*
X0368262Y0494237D01*
X0368256Y0494079D01*
X0368246Y0493921D01*
X0368232Y0493763D01*
X0368214Y0493606D01*
X0368193Y0493449D01*
X0368167Y0493293D01*
X0368137Y0493137D01*
X0368104Y0492982D01*
X0368066Y0492829D01*
X0368025Y0492676D01*
X0367980Y0492524D01*
X0367931Y0492373D01*
X0367878Y0492224D01*
X0367822Y0492076D01*
X0367762Y0491930D01*
X0367698Y0491785D01*
X0367630Y0491642D01*
X0367559Y0491500D01*
X0367485Y0491360D01*
X0367407Y0491223D01*
X0367325Y0491087D01*
X0367241Y0490953D01*
X0367152Y0490822D01*
X0367061Y0490693D01*
X0366966Y0490566D01*
X0366869Y0490441D01*
X0366768Y0490319D01*
X0366664Y0490200D01*
X0366557Y0490083D01*
X0366447Y0489969D01*
X0366334Y0489858D01*
X0366219Y0489749D01*
X0366101Y0489644D01*
X0365980Y0489542D01*
X0365857Y0489442D01*
X0365731Y0489346D01*
X0365603Y0489253D01*
X0365473Y0489163D01*
X0365340Y0489077D01*
X0365205Y0488993D01*
X0365069Y0488914D01*
X0364930Y0488837D01*
X0364789Y0488765D01*
X0364647Y0488695D01*
X0364503Y0488630D01*
X0364357Y0488568D01*
X0364210Y0488510D01*
X0364061Y0488455D01*
X0363911Y0488404D01*
X0363760Y0488357D01*
X0363608Y0488314D01*
X0363455Y0488275D01*
X0363300Y0488239D01*
X0363145Y0488208D01*
X0362989Y0488180D01*
X0362833Y0488156D01*
X0362676Y0488136D01*
X0362518Y0488120D01*
X0362361Y0488108D01*
X0362202Y0488100D01*
X0362044Y0488096D01*
X0361886Y0488096D01*
X0361728Y0488100D01*
X0361569Y0488108D01*
X0361412Y0488120D01*
X0361254Y0488136D01*
X0361097Y0488156D01*
X0360941Y0488180D01*
X0360785Y0488208D01*
X0360630Y0488239D01*
X0360475Y0488275D01*
X0360322Y0488314D01*
X0360170Y0488357D01*
X0360019Y0488404D01*
X0359869Y0488455D01*
X0359720Y0488510D01*
X0359573Y0488568D01*
X0359427Y0488630D01*
X0359283Y0488695D01*
X0359141Y0488765D01*
X0359000Y0488837D01*
X0358861Y0488914D01*
X0358725Y0488993D01*
X0358590Y0489077D01*
X0358457Y0489163D01*
X0358327Y0489253D01*
X0358199Y0489346D01*
X0358073Y0489442D01*
X0357950Y0489542D01*
X0357829Y0489644D01*
X0357711Y0489749D01*
X0357596Y0489858D01*
X0357483Y0489969D01*
X0357373Y0490083D01*
X0357266Y0490200D01*
X0357162Y0490319D01*
X0357061Y0490441D01*
X0356964Y0490566D01*
X0356869Y0490693D01*
X0356778Y0490822D01*
X0356689Y0490953D01*
X0356605Y0491087D01*
X0356523Y0491223D01*
X0356445Y0491360D01*
X0356371Y0491500D01*
X0356300Y0491642D01*
X0356232Y0491785D01*
X0356168Y0491930D01*
X0356108Y0492076D01*
X0356052Y0492224D01*
X0355999Y0492373D01*
X0355950Y0492524D01*
X0355905Y0492676D01*
X0355864Y0492829D01*
X0355826Y0492982D01*
X0355793Y0493137D01*
X0355763Y0493293D01*
X0355737Y0493449D01*
X0355716Y0493606D01*
X0355698Y0493763D01*
X0355684Y0493921D01*
X0355674Y0494079D01*
X0355668Y0494237D01*
X0355666Y0494395D01*
X0400666Y0494395D02*
X0400668Y0494553D01*
X0400674Y0494711D01*
X0400684Y0494869D01*
X0400698Y0495027D01*
X0400716Y0495184D01*
X0400737Y0495341D01*
X0400763Y0495497D01*
X0400793Y0495653D01*
X0400826Y0495808D01*
X0400864Y0495961D01*
X0400905Y0496114D01*
X0400950Y0496266D01*
X0400999Y0496417D01*
X0401052Y0496566D01*
X0401108Y0496714D01*
X0401168Y0496860D01*
X0401232Y0497005D01*
X0401300Y0497148D01*
X0401371Y0497290D01*
X0401445Y0497430D01*
X0401523Y0497567D01*
X0401605Y0497703D01*
X0401689Y0497837D01*
X0401778Y0497968D01*
X0401869Y0498097D01*
X0401964Y0498224D01*
X0402061Y0498349D01*
X0402162Y0498471D01*
X0402266Y0498590D01*
X0402373Y0498707D01*
X0402483Y0498821D01*
X0402596Y0498932D01*
X0402711Y0499041D01*
X0402829Y0499146D01*
X0402950Y0499248D01*
X0403073Y0499348D01*
X0403199Y0499444D01*
X0403327Y0499537D01*
X0403457Y0499627D01*
X0403590Y0499713D01*
X0403725Y0499797D01*
X0403861Y0499876D01*
X0404000Y0499953D01*
X0404141Y0500025D01*
X0404283Y0500095D01*
X0404427Y0500160D01*
X0404573Y0500222D01*
X0404720Y0500280D01*
X0404869Y0500335D01*
X0405019Y0500386D01*
X0405170Y0500433D01*
X0405322Y0500476D01*
X0405475Y0500515D01*
X0405630Y0500551D01*
X0405785Y0500582D01*
X0405941Y0500610D01*
X0406097Y0500634D01*
X0406254Y0500654D01*
X0406412Y0500670D01*
X0406569Y0500682D01*
X0406728Y0500690D01*
X0406886Y0500694D01*
X0407044Y0500694D01*
X0407202Y0500690D01*
X0407361Y0500682D01*
X0407518Y0500670D01*
X0407676Y0500654D01*
X0407833Y0500634D01*
X0407989Y0500610D01*
X0408145Y0500582D01*
X0408300Y0500551D01*
X0408455Y0500515D01*
X0408608Y0500476D01*
X0408760Y0500433D01*
X0408911Y0500386D01*
X0409061Y0500335D01*
X0409210Y0500280D01*
X0409357Y0500222D01*
X0409503Y0500160D01*
X0409647Y0500095D01*
X0409789Y0500025D01*
X0409930Y0499953D01*
X0410069Y0499876D01*
X0410205Y0499797D01*
X0410340Y0499713D01*
X0410473Y0499627D01*
X0410603Y0499537D01*
X0410731Y0499444D01*
X0410857Y0499348D01*
X0410980Y0499248D01*
X0411101Y0499146D01*
X0411219Y0499041D01*
X0411334Y0498932D01*
X0411447Y0498821D01*
X0411557Y0498707D01*
X0411664Y0498590D01*
X0411768Y0498471D01*
X0411869Y0498349D01*
X0411966Y0498224D01*
X0412061Y0498097D01*
X0412152Y0497968D01*
X0412241Y0497837D01*
X0412325Y0497703D01*
X0412407Y0497567D01*
X0412485Y0497430D01*
X0412559Y0497290D01*
X0412630Y0497148D01*
X0412698Y0497005D01*
X0412762Y0496860D01*
X0412822Y0496714D01*
X0412878Y0496566D01*
X0412931Y0496417D01*
X0412980Y0496266D01*
X0413025Y0496114D01*
X0413066Y0495961D01*
X0413104Y0495808D01*
X0413137Y0495653D01*
X0413167Y0495497D01*
X0413193Y0495341D01*
X0413214Y0495184D01*
X0413232Y0495027D01*
X0413246Y0494869D01*
X0413256Y0494711D01*
X0413262Y0494553D01*
X0413264Y0494395D01*
X0413262Y0494237D01*
X0413256Y0494079D01*
X0413246Y0493921D01*
X0413232Y0493763D01*
X0413214Y0493606D01*
X0413193Y0493449D01*
X0413167Y0493293D01*
X0413137Y0493137D01*
X0413104Y0492982D01*
X0413066Y0492829D01*
X0413025Y0492676D01*
X0412980Y0492524D01*
X0412931Y0492373D01*
X0412878Y0492224D01*
X0412822Y0492076D01*
X0412762Y0491930D01*
X0412698Y0491785D01*
X0412630Y0491642D01*
X0412559Y0491500D01*
X0412485Y0491360D01*
X0412407Y0491223D01*
X0412325Y0491087D01*
X0412241Y0490953D01*
X0412152Y0490822D01*
X0412061Y0490693D01*
X0411966Y0490566D01*
X0411869Y0490441D01*
X0411768Y0490319D01*
X0411664Y0490200D01*
X0411557Y0490083D01*
X0411447Y0489969D01*
X0411334Y0489858D01*
X0411219Y0489749D01*
X0411101Y0489644D01*
X0410980Y0489542D01*
X0410857Y0489442D01*
X0410731Y0489346D01*
X0410603Y0489253D01*
X0410473Y0489163D01*
X0410340Y0489077D01*
X0410205Y0488993D01*
X0410069Y0488914D01*
X0409930Y0488837D01*
X0409789Y0488765D01*
X0409647Y0488695D01*
X0409503Y0488630D01*
X0409357Y0488568D01*
X0409210Y0488510D01*
X0409061Y0488455D01*
X0408911Y0488404D01*
X0408760Y0488357D01*
X0408608Y0488314D01*
X0408455Y0488275D01*
X0408300Y0488239D01*
X0408145Y0488208D01*
X0407989Y0488180D01*
X0407833Y0488156D01*
X0407676Y0488136D01*
X0407518Y0488120D01*
X0407361Y0488108D01*
X0407202Y0488100D01*
X0407044Y0488096D01*
X0406886Y0488096D01*
X0406728Y0488100D01*
X0406569Y0488108D01*
X0406412Y0488120D01*
X0406254Y0488136D01*
X0406097Y0488156D01*
X0405941Y0488180D01*
X0405785Y0488208D01*
X0405630Y0488239D01*
X0405475Y0488275D01*
X0405322Y0488314D01*
X0405170Y0488357D01*
X0405019Y0488404D01*
X0404869Y0488455D01*
X0404720Y0488510D01*
X0404573Y0488568D01*
X0404427Y0488630D01*
X0404283Y0488695D01*
X0404141Y0488765D01*
X0404000Y0488837D01*
X0403861Y0488914D01*
X0403725Y0488993D01*
X0403590Y0489077D01*
X0403457Y0489163D01*
X0403327Y0489253D01*
X0403199Y0489346D01*
X0403073Y0489442D01*
X0402950Y0489542D01*
X0402829Y0489644D01*
X0402711Y0489749D01*
X0402596Y0489858D01*
X0402483Y0489969D01*
X0402373Y0490083D01*
X0402266Y0490200D01*
X0402162Y0490319D01*
X0402061Y0490441D01*
X0401964Y0490566D01*
X0401869Y0490693D01*
X0401778Y0490822D01*
X0401689Y0490953D01*
X0401605Y0491087D01*
X0401523Y0491223D01*
X0401445Y0491360D01*
X0401371Y0491500D01*
X0401300Y0491642D01*
X0401232Y0491785D01*
X0401168Y0491930D01*
X0401108Y0492076D01*
X0401052Y0492224D01*
X0400999Y0492373D01*
X0400950Y0492524D01*
X0400905Y0492676D01*
X0400864Y0492829D01*
X0400826Y0492982D01*
X0400793Y0493137D01*
X0400763Y0493293D01*
X0400737Y0493449D01*
X0400716Y0493606D01*
X0400698Y0493763D01*
X0400684Y0493921D01*
X0400674Y0494079D01*
X0400668Y0494237D01*
X0400666Y0494395D01*
X0455666Y0494395D02*
X0455668Y0494553D01*
X0455674Y0494711D01*
X0455684Y0494869D01*
X0455698Y0495027D01*
X0455716Y0495184D01*
X0455737Y0495341D01*
X0455763Y0495497D01*
X0455793Y0495653D01*
X0455826Y0495808D01*
X0455864Y0495961D01*
X0455905Y0496114D01*
X0455950Y0496266D01*
X0455999Y0496417D01*
X0456052Y0496566D01*
X0456108Y0496714D01*
X0456168Y0496860D01*
X0456232Y0497005D01*
X0456300Y0497148D01*
X0456371Y0497290D01*
X0456445Y0497430D01*
X0456523Y0497567D01*
X0456605Y0497703D01*
X0456689Y0497837D01*
X0456778Y0497968D01*
X0456869Y0498097D01*
X0456964Y0498224D01*
X0457061Y0498349D01*
X0457162Y0498471D01*
X0457266Y0498590D01*
X0457373Y0498707D01*
X0457483Y0498821D01*
X0457596Y0498932D01*
X0457711Y0499041D01*
X0457829Y0499146D01*
X0457950Y0499248D01*
X0458073Y0499348D01*
X0458199Y0499444D01*
X0458327Y0499537D01*
X0458457Y0499627D01*
X0458590Y0499713D01*
X0458725Y0499797D01*
X0458861Y0499876D01*
X0459000Y0499953D01*
X0459141Y0500025D01*
X0459283Y0500095D01*
X0459427Y0500160D01*
X0459573Y0500222D01*
X0459720Y0500280D01*
X0459869Y0500335D01*
X0460019Y0500386D01*
X0460170Y0500433D01*
X0460322Y0500476D01*
X0460475Y0500515D01*
X0460630Y0500551D01*
X0460785Y0500582D01*
X0460941Y0500610D01*
X0461097Y0500634D01*
X0461254Y0500654D01*
X0461412Y0500670D01*
X0461569Y0500682D01*
X0461728Y0500690D01*
X0461886Y0500694D01*
X0462044Y0500694D01*
X0462202Y0500690D01*
X0462361Y0500682D01*
X0462518Y0500670D01*
X0462676Y0500654D01*
X0462833Y0500634D01*
X0462989Y0500610D01*
X0463145Y0500582D01*
X0463300Y0500551D01*
X0463455Y0500515D01*
X0463608Y0500476D01*
X0463760Y0500433D01*
X0463911Y0500386D01*
X0464061Y0500335D01*
X0464210Y0500280D01*
X0464357Y0500222D01*
X0464503Y0500160D01*
X0464647Y0500095D01*
X0464789Y0500025D01*
X0464930Y0499953D01*
X0465069Y0499876D01*
X0465205Y0499797D01*
X0465340Y0499713D01*
X0465473Y0499627D01*
X0465603Y0499537D01*
X0465731Y0499444D01*
X0465857Y0499348D01*
X0465980Y0499248D01*
X0466101Y0499146D01*
X0466219Y0499041D01*
X0466334Y0498932D01*
X0466447Y0498821D01*
X0466557Y0498707D01*
X0466664Y0498590D01*
X0466768Y0498471D01*
X0466869Y0498349D01*
X0466966Y0498224D01*
X0467061Y0498097D01*
X0467152Y0497968D01*
X0467241Y0497837D01*
X0467325Y0497703D01*
X0467407Y0497567D01*
X0467485Y0497430D01*
X0467559Y0497290D01*
X0467630Y0497148D01*
X0467698Y0497005D01*
X0467762Y0496860D01*
X0467822Y0496714D01*
X0467878Y0496566D01*
X0467931Y0496417D01*
X0467980Y0496266D01*
X0468025Y0496114D01*
X0468066Y0495961D01*
X0468104Y0495808D01*
X0468137Y0495653D01*
X0468167Y0495497D01*
X0468193Y0495341D01*
X0468214Y0495184D01*
X0468232Y0495027D01*
X0468246Y0494869D01*
X0468256Y0494711D01*
X0468262Y0494553D01*
X0468264Y0494395D01*
X0468262Y0494237D01*
X0468256Y0494079D01*
X0468246Y0493921D01*
X0468232Y0493763D01*
X0468214Y0493606D01*
X0468193Y0493449D01*
X0468167Y0493293D01*
X0468137Y0493137D01*
X0468104Y0492982D01*
X0468066Y0492829D01*
X0468025Y0492676D01*
X0467980Y0492524D01*
X0467931Y0492373D01*
X0467878Y0492224D01*
X0467822Y0492076D01*
X0467762Y0491930D01*
X0467698Y0491785D01*
X0467630Y0491642D01*
X0467559Y0491500D01*
X0467485Y0491360D01*
X0467407Y0491223D01*
X0467325Y0491087D01*
X0467241Y0490953D01*
X0467152Y0490822D01*
X0467061Y0490693D01*
X0466966Y0490566D01*
X0466869Y0490441D01*
X0466768Y0490319D01*
X0466664Y0490200D01*
X0466557Y0490083D01*
X0466447Y0489969D01*
X0466334Y0489858D01*
X0466219Y0489749D01*
X0466101Y0489644D01*
X0465980Y0489542D01*
X0465857Y0489442D01*
X0465731Y0489346D01*
X0465603Y0489253D01*
X0465473Y0489163D01*
X0465340Y0489077D01*
X0465205Y0488993D01*
X0465069Y0488914D01*
X0464930Y0488837D01*
X0464789Y0488765D01*
X0464647Y0488695D01*
X0464503Y0488630D01*
X0464357Y0488568D01*
X0464210Y0488510D01*
X0464061Y0488455D01*
X0463911Y0488404D01*
X0463760Y0488357D01*
X0463608Y0488314D01*
X0463455Y0488275D01*
X0463300Y0488239D01*
X0463145Y0488208D01*
X0462989Y0488180D01*
X0462833Y0488156D01*
X0462676Y0488136D01*
X0462518Y0488120D01*
X0462361Y0488108D01*
X0462202Y0488100D01*
X0462044Y0488096D01*
X0461886Y0488096D01*
X0461728Y0488100D01*
X0461569Y0488108D01*
X0461412Y0488120D01*
X0461254Y0488136D01*
X0461097Y0488156D01*
X0460941Y0488180D01*
X0460785Y0488208D01*
X0460630Y0488239D01*
X0460475Y0488275D01*
X0460322Y0488314D01*
X0460170Y0488357D01*
X0460019Y0488404D01*
X0459869Y0488455D01*
X0459720Y0488510D01*
X0459573Y0488568D01*
X0459427Y0488630D01*
X0459283Y0488695D01*
X0459141Y0488765D01*
X0459000Y0488837D01*
X0458861Y0488914D01*
X0458725Y0488993D01*
X0458590Y0489077D01*
X0458457Y0489163D01*
X0458327Y0489253D01*
X0458199Y0489346D01*
X0458073Y0489442D01*
X0457950Y0489542D01*
X0457829Y0489644D01*
X0457711Y0489749D01*
X0457596Y0489858D01*
X0457483Y0489969D01*
X0457373Y0490083D01*
X0457266Y0490200D01*
X0457162Y0490319D01*
X0457061Y0490441D01*
X0456964Y0490566D01*
X0456869Y0490693D01*
X0456778Y0490822D01*
X0456689Y0490953D01*
X0456605Y0491087D01*
X0456523Y0491223D01*
X0456445Y0491360D01*
X0456371Y0491500D01*
X0456300Y0491642D01*
X0456232Y0491785D01*
X0456168Y0491930D01*
X0456108Y0492076D01*
X0456052Y0492224D01*
X0455999Y0492373D01*
X0455950Y0492524D01*
X0455905Y0492676D01*
X0455864Y0492829D01*
X0455826Y0492982D01*
X0455793Y0493137D01*
X0455763Y0493293D01*
X0455737Y0493449D01*
X0455716Y0493606D01*
X0455698Y0493763D01*
X0455684Y0493921D01*
X0455674Y0494079D01*
X0455668Y0494237D01*
X0455666Y0494395D01*
X0500666Y0494395D02*
X0500668Y0494553D01*
X0500674Y0494711D01*
X0500684Y0494869D01*
X0500698Y0495027D01*
X0500716Y0495184D01*
X0500737Y0495341D01*
X0500763Y0495497D01*
X0500793Y0495653D01*
X0500826Y0495808D01*
X0500864Y0495961D01*
X0500905Y0496114D01*
X0500950Y0496266D01*
X0500999Y0496417D01*
X0501052Y0496566D01*
X0501108Y0496714D01*
X0501168Y0496860D01*
X0501232Y0497005D01*
X0501300Y0497148D01*
X0501371Y0497290D01*
X0501445Y0497430D01*
X0501523Y0497567D01*
X0501605Y0497703D01*
X0501689Y0497837D01*
X0501778Y0497968D01*
X0501869Y0498097D01*
X0501964Y0498224D01*
X0502061Y0498349D01*
X0502162Y0498471D01*
X0502266Y0498590D01*
X0502373Y0498707D01*
X0502483Y0498821D01*
X0502596Y0498932D01*
X0502711Y0499041D01*
X0502829Y0499146D01*
X0502950Y0499248D01*
X0503073Y0499348D01*
X0503199Y0499444D01*
X0503327Y0499537D01*
X0503457Y0499627D01*
X0503590Y0499713D01*
X0503725Y0499797D01*
X0503861Y0499876D01*
X0504000Y0499953D01*
X0504141Y0500025D01*
X0504283Y0500095D01*
X0504427Y0500160D01*
X0504573Y0500222D01*
X0504720Y0500280D01*
X0504869Y0500335D01*
X0505019Y0500386D01*
X0505170Y0500433D01*
X0505322Y0500476D01*
X0505475Y0500515D01*
X0505630Y0500551D01*
X0505785Y0500582D01*
X0505941Y0500610D01*
X0506097Y0500634D01*
X0506254Y0500654D01*
X0506412Y0500670D01*
X0506569Y0500682D01*
X0506728Y0500690D01*
X0506886Y0500694D01*
X0507044Y0500694D01*
X0507202Y0500690D01*
X0507361Y0500682D01*
X0507518Y0500670D01*
X0507676Y0500654D01*
X0507833Y0500634D01*
X0507989Y0500610D01*
X0508145Y0500582D01*
X0508300Y0500551D01*
X0508455Y0500515D01*
X0508608Y0500476D01*
X0508760Y0500433D01*
X0508911Y0500386D01*
X0509061Y0500335D01*
X0509210Y0500280D01*
X0509357Y0500222D01*
X0509503Y0500160D01*
X0509647Y0500095D01*
X0509789Y0500025D01*
X0509930Y0499953D01*
X0510069Y0499876D01*
X0510205Y0499797D01*
X0510340Y0499713D01*
X0510473Y0499627D01*
X0510603Y0499537D01*
X0510731Y0499444D01*
X0510857Y0499348D01*
X0510980Y0499248D01*
X0511101Y0499146D01*
X0511219Y0499041D01*
X0511334Y0498932D01*
X0511447Y0498821D01*
X0511557Y0498707D01*
X0511664Y0498590D01*
X0511768Y0498471D01*
X0511869Y0498349D01*
X0511966Y0498224D01*
X0512061Y0498097D01*
X0512152Y0497968D01*
X0512241Y0497837D01*
X0512325Y0497703D01*
X0512407Y0497567D01*
X0512485Y0497430D01*
X0512559Y0497290D01*
X0512630Y0497148D01*
X0512698Y0497005D01*
X0512762Y0496860D01*
X0512822Y0496714D01*
X0512878Y0496566D01*
X0512931Y0496417D01*
X0512980Y0496266D01*
X0513025Y0496114D01*
X0513066Y0495961D01*
X0513104Y0495808D01*
X0513137Y0495653D01*
X0513167Y0495497D01*
X0513193Y0495341D01*
X0513214Y0495184D01*
X0513232Y0495027D01*
X0513246Y0494869D01*
X0513256Y0494711D01*
X0513262Y0494553D01*
X0513264Y0494395D01*
X0513262Y0494237D01*
X0513256Y0494079D01*
X0513246Y0493921D01*
X0513232Y0493763D01*
X0513214Y0493606D01*
X0513193Y0493449D01*
X0513167Y0493293D01*
X0513137Y0493137D01*
X0513104Y0492982D01*
X0513066Y0492829D01*
X0513025Y0492676D01*
X0512980Y0492524D01*
X0512931Y0492373D01*
X0512878Y0492224D01*
X0512822Y0492076D01*
X0512762Y0491930D01*
X0512698Y0491785D01*
X0512630Y0491642D01*
X0512559Y0491500D01*
X0512485Y0491360D01*
X0512407Y0491223D01*
X0512325Y0491087D01*
X0512241Y0490953D01*
X0512152Y0490822D01*
X0512061Y0490693D01*
X0511966Y0490566D01*
X0511869Y0490441D01*
X0511768Y0490319D01*
X0511664Y0490200D01*
X0511557Y0490083D01*
X0511447Y0489969D01*
X0511334Y0489858D01*
X0511219Y0489749D01*
X0511101Y0489644D01*
X0510980Y0489542D01*
X0510857Y0489442D01*
X0510731Y0489346D01*
X0510603Y0489253D01*
X0510473Y0489163D01*
X0510340Y0489077D01*
X0510205Y0488993D01*
X0510069Y0488914D01*
X0509930Y0488837D01*
X0509789Y0488765D01*
X0509647Y0488695D01*
X0509503Y0488630D01*
X0509357Y0488568D01*
X0509210Y0488510D01*
X0509061Y0488455D01*
X0508911Y0488404D01*
X0508760Y0488357D01*
X0508608Y0488314D01*
X0508455Y0488275D01*
X0508300Y0488239D01*
X0508145Y0488208D01*
X0507989Y0488180D01*
X0507833Y0488156D01*
X0507676Y0488136D01*
X0507518Y0488120D01*
X0507361Y0488108D01*
X0507202Y0488100D01*
X0507044Y0488096D01*
X0506886Y0488096D01*
X0506728Y0488100D01*
X0506569Y0488108D01*
X0506412Y0488120D01*
X0506254Y0488136D01*
X0506097Y0488156D01*
X0505941Y0488180D01*
X0505785Y0488208D01*
X0505630Y0488239D01*
X0505475Y0488275D01*
X0505322Y0488314D01*
X0505170Y0488357D01*
X0505019Y0488404D01*
X0504869Y0488455D01*
X0504720Y0488510D01*
X0504573Y0488568D01*
X0504427Y0488630D01*
X0504283Y0488695D01*
X0504141Y0488765D01*
X0504000Y0488837D01*
X0503861Y0488914D01*
X0503725Y0488993D01*
X0503590Y0489077D01*
X0503457Y0489163D01*
X0503327Y0489253D01*
X0503199Y0489346D01*
X0503073Y0489442D01*
X0502950Y0489542D01*
X0502829Y0489644D01*
X0502711Y0489749D01*
X0502596Y0489858D01*
X0502483Y0489969D01*
X0502373Y0490083D01*
X0502266Y0490200D01*
X0502162Y0490319D01*
X0502061Y0490441D01*
X0501964Y0490566D01*
X0501869Y0490693D01*
X0501778Y0490822D01*
X0501689Y0490953D01*
X0501605Y0491087D01*
X0501523Y0491223D01*
X0501445Y0491360D01*
X0501371Y0491500D01*
X0501300Y0491642D01*
X0501232Y0491785D01*
X0501168Y0491930D01*
X0501108Y0492076D01*
X0501052Y0492224D01*
X0500999Y0492373D01*
X0500950Y0492524D01*
X0500905Y0492676D01*
X0500864Y0492829D01*
X0500826Y0492982D01*
X0500793Y0493137D01*
X0500763Y0493293D01*
X0500737Y0493449D01*
X0500716Y0493606D01*
X0500698Y0493763D01*
X0500684Y0493921D01*
X0500674Y0494079D01*
X0500668Y0494237D01*
X0500666Y0494395D01*
X0555666Y0494395D02*
X0555668Y0494553D01*
X0555674Y0494711D01*
X0555684Y0494869D01*
X0555698Y0495027D01*
X0555716Y0495184D01*
X0555737Y0495341D01*
X0555763Y0495497D01*
X0555793Y0495653D01*
X0555826Y0495808D01*
X0555864Y0495961D01*
X0555905Y0496114D01*
X0555950Y0496266D01*
X0555999Y0496417D01*
X0556052Y0496566D01*
X0556108Y0496714D01*
X0556168Y0496860D01*
X0556232Y0497005D01*
X0556300Y0497148D01*
X0556371Y0497290D01*
X0556445Y0497430D01*
X0556523Y0497567D01*
X0556605Y0497703D01*
X0556689Y0497837D01*
X0556778Y0497968D01*
X0556869Y0498097D01*
X0556964Y0498224D01*
X0557061Y0498349D01*
X0557162Y0498471D01*
X0557266Y0498590D01*
X0557373Y0498707D01*
X0557483Y0498821D01*
X0557596Y0498932D01*
X0557711Y0499041D01*
X0557829Y0499146D01*
X0557950Y0499248D01*
X0558073Y0499348D01*
X0558199Y0499444D01*
X0558327Y0499537D01*
X0558457Y0499627D01*
X0558590Y0499713D01*
X0558725Y0499797D01*
X0558861Y0499876D01*
X0559000Y0499953D01*
X0559141Y0500025D01*
X0559283Y0500095D01*
X0559427Y0500160D01*
X0559573Y0500222D01*
X0559720Y0500280D01*
X0559869Y0500335D01*
X0560019Y0500386D01*
X0560170Y0500433D01*
X0560322Y0500476D01*
X0560475Y0500515D01*
X0560630Y0500551D01*
X0560785Y0500582D01*
X0560941Y0500610D01*
X0561097Y0500634D01*
X0561254Y0500654D01*
X0561412Y0500670D01*
X0561569Y0500682D01*
X0561728Y0500690D01*
X0561886Y0500694D01*
X0562044Y0500694D01*
X0562202Y0500690D01*
X0562361Y0500682D01*
X0562518Y0500670D01*
X0562676Y0500654D01*
X0562833Y0500634D01*
X0562989Y0500610D01*
X0563145Y0500582D01*
X0563300Y0500551D01*
X0563455Y0500515D01*
X0563608Y0500476D01*
X0563760Y0500433D01*
X0563911Y0500386D01*
X0564061Y0500335D01*
X0564210Y0500280D01*
X0564357Y0500222D01*
X0564503Y0500160D01*
X0564647Y0500095D01*
X0564789Y0500025D01*
X0564930Y0499953D01*
X0565069Y0499876D01*
X0565205Y0499797D01*
X0565340Y0499713D01*
X0565473Y0499627D01*
X0565603Y0499537D01*
X0565731Y0499444D01*
X0565857Y0499348D01*
X0565980Y0499248D01*
X0566101Y0499146D01*
X0566219Y0499041D01*
X0566334Y0498932D01*
X0566447Y0498821D01*
X0566557Y0498707D01*
X0566664Y0498590D01*
X0566768Y0498471D01*
X0566869Y0498349D01*
X0566966Y0498224D01*
X0567061Y0498097D01*
X0567152Y0497968D01*
X0567241Y0497837D01*
X0567325Y0497703D01*
X0567407Y0497567D01*
X0567485Y0497430D01*
X0567559Y0497290D01*
X0567630Y0497148D01*
X0567698Y0497005D01*
X0567762Y0496860D01*
X0567822Y0496714D01*
X0567878Y0496566D01*
X0567931Y0496417D01*
X0567980Y0496266D01*
X0568025Y0496114D01*
X0568066Y0495961D01*
X0568104Y0495808D01*
X0568137Y0495653D01*
X0568167Y0495497D01*
X0568193Y0495341D01*
X0568214Y0495184D01*
X0568232Y0495027D01*
X0568246Y0494869D01*
X0568256Y0494711D01*
X0568262Y0494553D01*
X0568264Y0494395D01*
X0568262Y0494237D01*
X0568256Y0494079D01*
X0568246Y0493921D01*
X0568232Y0493763D01*
X0568214Y0493606D01*
X0568193Y0493449D01*
X0568167Y0493293D01*
X0568137Y0493137D01*
X0568104Y0492982D01*
X0568066Y0492829D01*
X0568025Y0492676D01*
X0567980Y0492524D01*
X0567931Y0492373D01*
X0567878Y0492224D01*
X0567822Y0492076D01*
X0567762Y0491930D01*
X0567698Y0491785D01*
X0567630Y0491642D01*
X0567559Y0491500D01*
X0567485Y0491360D01*
X0567407Y0491223D01*
X0567325Y0491087D01*
X0567241Y0490953D01*
X0567152Y0490822D01*
X0567061Y0490693D01*
X0566966Y0490566D01*
X0566869Y0490441D01*
X0566768Y0490319D01*
X0566664Y0490200D01*
X0566557Y0490083D01*
X0566447Y0489969D01*
X0566334Y0489858D01*
X0566219Y0489749D01*
X0566101Y0489644D01*
X0565980Y0489542D01*
X0565857Y0489442D01*
X0565731Y0489346D01*
X0565603Y0489253D01*
X0565473Y0489163D01*
X0565340Y0489077D01*
X0565205Y0488993D01*
X0565069Y0488914D01*
X0564930Y0488837D01*
X0564789Y0488765D01*
X0564647Y0488695D01*
X0564503Y0488630D01*
X0564357Y0488568D01*
X0564210Y0488510D01*
X0564061Y0488455D01*
X0563911Y0488404D01*
X0563760Y0488357D01*
X0563608Y0488314D01*
X0563455Y0488275D01*
X0563300Y0488239D01*
X0563145Y0488208D01*
X0562989Y0488180D01*
X0562833Y0488156D01*
X0562676Y0488136D01*
X0562518Y0488120D01*
X0562361Y0488108D01*
X0562202Y0488100D01*
X0562044Y0488096D01*
X0561886Y0488096D01*
X0561728Y0488100D01*
X0561569Y0488108D01*
X0561412Y0488120D01*
X0561254Y0488136D01*
X0561097Y0488156D01*
X0560941Y0488180D01*
X0560785Y0488208D01*
X0560630Y0488239D01*
X0560475Y0488275D01*
X0560322Y0488314D01*
X0560170Y0488357D01*
X0560019Y0488404D01*
X0559869Y0488455D01*
X0559720Y0488510D01*
X0559573Y0488568D01*
X0559427Y0488630D01*
X0559283Y0488695D01*
X0559141Y0488765D01*
X0559000Y0488837D01*
X0558861Y0488914D01*
X0558725Y0488993D01*
X0558590Y0489077D01*
X0558457Y0489163D01*
X0558327Y0489253D01*
X0558199Y0489346D01*
X0558073Y0489442D01*
X0557950Y0489542D01*
X0557829Y0489644D01*
X0557711Y0489749D01*
X0557596Y0489858D01*
X0557483Y0489969D01*
X0557373Y0490083D01*
X0557266Y0490200D01*
X0557162Y0490319D01*
X0557061Y0490441D01*
X0556964Y0490566D01*
X0556869Y0490693D01*
X0556778Y0490822D01*
X0556689Y0490953D01*
X0556605Y0491087D01*
X0556523Y0491223D01*
X0556445Y0491360D01*
X0556371Y0491500D01*
X0556300Y0491642D01*
X0556232Y0491785D01*
X0556168Y0491930D01*
X0556108Y0492076D01*
X0556052Y0492224D01*
X0555999Y0492373D01*
X0555950Y0492524D01*
X0555905Y0492676D01*
X0555864Y0492829D01*
X0555826Y0492982D01*
X0555793Y0493137D01*
X0555763Y0493293D01*
X0555737Y0493449D01*
X0555716Y0493606D01*
X0555698Y0493763D01*
X0555684Y0493921D01*
X0555674Y0494079D01*
X0555668Y0494237D01*
X0555666Y0494395D01*
X0600666Y0494395D02*
X0600668Y0494553D01*
X0600674Y0494711D01*
X0600684Y0494869D01*
X0600698Y0495027D01*
X0600716Y0495184D01*
X0600737Y0495341D01*
X0600763Y0495497D01*
X0600793Y0495653D01*
X0600826Y0495808D01*
X0600864Y0495961D01*
X0600905Y0496114D01*
X0600950Y0496266D01*
X0600999Y0496417D01*
X0601052Y0496566D01*
X0601108Y0496714D01*
X0601168Y0496860D01*
X0601232Y0497005D01*
X0601300Y0497148D01*
X0601371Y0497290D01*
X0601445Y0497430D01*
X0601523Y0497567D01*
X0601605Y0497703D01*
X0601689Y0497837D01*
X0601778Y0497968D01*
X0601869Y0498097D01*
X0601964Y0498224D01*
X0602061Y0498349D01*
X0602162Y0498471D01*
X0602266Y0498590D01*
X0602373Y0498707D01*
X0602483Y0498821D01*
X0602596Y0498932D01*
X0602711Y0499041D01*
X0602829Y0499146D01*
X0602950Y0499248D01*
X0603073Y0499348D01*
X0603199Y0499444D01*
X0603327Y0499537D01*
X0603457Y0499627D01*
X0603590Y0499713D01*
X0603725Y0499797D01*
X0603861Y0499876D01*
X0604000Y0499953D01*
X0604141Y0500025D01*
X0604283Y0500095D01*
X0604427Y0500160D01*
X0604573Y0500222D01*
X0604720Y0500280D01*
X0604869Y0500335D01*
X0605019Y0500386D01*
X0605170Y0500433D01*
X0605322Y0500476D01*
X0605475Y0500515D01*
X0605630Y0500551D01*
X0605785Y0500582D01*
X0605941Y0500610D01*
X0606097Y0500634D01*
X0606254Y0500654D01*
X0606412Y0500670D01*
X0606569Y0500682D01*
X0606728Y0500690D01*
X0606886Y0500694D01*
X0607044Y0500694D01*
X0607202Y0500690D01*
X0607361Y0500682D01*
X0607518Y0500670D01*
X0607676Y0500654D01*
X0607833Y0500634D01*
X0607989Y0500610D01*
X0608145Y0500582D01*
X0608300Y0500551D01*
X0608455Y0500515D01*
X0608608Y0500476D01*
X0608760Y0500433D01*
X0608911Y0500386D01*
X0609061Y0500335D01*
X0609210Y0500280D01*
X0609357Y0500222D01*
X0609503Y0500160D01*
X0609647Y0500095D01*
X0609789Y0500025D01*
X0609930Y0499953D01*
X0610069Y0499876D01*
X0610205Y0499797D01*
X0610340Y0499713D01*
X0610473Y0499627D01*
X0610603Y0499537D01*
X0610731Y0499444D01*
X0610857Y0499348D01*
X0610980Y0499248D01*
X0611101Y0499146D01*
X0611219Y0499041D01*
X0611334Y0498932D01*
X0611447Y0498821D01*
X0611557Y0498707D01*
X0611664Y0498590D01*
X0611768Y0498471D01*
X0611869Y0498349D01*
X0611966Y0498224D01*
X0612061Y0498097D01*
X0612152Y0497968D01*
X0612241Y0497837D01*
X0612325Y0497703D01*
X0612407Y0497567D01*
X0612485Y0497430D01*
X0612559Y0497290D01*
X0612630Y0497148D01*
X0612698Y0497005D01*
X0612762Y0496860D01*
X0612822Y0496714D01*
X0612878Y0496566D01*
X0612931Y0496417D01*
X0612980Y0496266D01*
X0613025Y0496114D01*
X0613066Y0495961D01*
X0613104Y0495808D01*
X0613137Y0495653D01*
X0613167Y0495497D01*
X0613193Y0495341D01*
X0613214Y0495184D01*
X0613232Y0495027D01*
X0613246Y0494869D01*
X0613256Y0494711D01*
X0613262Y0494553D01*
X0613264Y0494395D01*
X0613262Y0494237D01*
X0613256Y0494079D01*
X0613246Y0493921D01*
X0613232Y0493763D01*
X0613214Y0493606D01*
X0613193Y0493449D01*
X0613167Y0493293D01*
X0613137Y0493137D01*
X0613104Y0492982D01*
X0613066Y0492829D01*
X0613025Y0492676D01*
X0612980Y0492524D01*
X0612931Y0492373D01*
X0612878Y0492224D01*
X0612822Y0492076D01*
X0612762Y0491930D01*
X0612698Y0491785D01*
X0612630Y0491642D01*
X0612559Y0491500D01*
X0612485Y0491360D01*
X0612407Y0491223D01*
X0612325Y0491087D01*
X0612241Y0490953D01*
X0612152Y0490822D01*
X0612061Y0490693D01*
X0611966Y0490566D01*
X0611869Y0490441D01*
X0611768Y0490319D01*
X0611664Y0490200D01*
X0611557Y0490083D01*
X0611447Y0489969D01*
X0611334Y0489858D01*
X0611219Y0489749D01*
X0611101Y0489644D01*
X0610980Y0489542D01*
X0610857Y0489442D01*
X0610731Y0489346D01*
X0610603Y0489253D01*
X0610473Y0489163D01*
X0610340Y0489077D01*
X0610205Y0488993D01*
X0610069Y0488914D01*
X0609930Y0488837D01*
X0609789Y0488765D01*
X0609647Y0488695D01*
X0609503Y0488630D01*
X0609357Y0488568D01*
X0609210Y0488510D01*
X0609061Y0488455D01*
X0608911Y0488404D01*
X0608760Y0488357D01*
X0608608Y0488314D01*
X0608455Y0488275D01*
X0608300Y0488239D01*
X0608145Y0488208D01*
X0607989Y0488180D01*
X0607833Y0488156D01*
X0607676Y0488136D01*
X0607518Y0488120D01*
X0607361Y0488108D01*
X0607202Y0488100D01*
X0607044Y0488096D01*
X0606886Y0488096D01*
X0606728Y0488100D01*
X0606569Y0488108D01*
X0606412Y0488120D01*
X0606254Y0488136D01*
X0606097Y0488156D01*
X0605941Y0488180D01*
X0605785Y0488208D01*
X0605630Y0488239D01*
X0605475Y0488275D01*
X0605322Y0488314D01*
X0605170Y0488357D01*
X0605019Y0488404D01*
X0604869Y0488455D01*
X0604720Y0488510D01*
X0604573Y0488568D01*
X0604427Y0488630D01*
X0604283Y0488695D01*
X0604141Y0488765D01*
X0604000Y0488837D01*
X0603861Y0488914D01*
X0603725Y0488993D01*
X0603590Y0489077D01*
X0603457Y0489163D01*
X0603327Y0489253D01*
X0603199Y0489346D01*
X0603073Y0489442D01*
X0602950Y0489542D01*
X0602829Y0489644D01*
X0602711Y0489749D01*
X0602596Y0489858D01*
X0602483Y0489969D01*
X0602373Y0490083D01*
X0602266Y0490200D01*
X0602162Y0490319D01*
X0602061Y0490441D01*
X0601964Y0490566D01*
X0601869Y0490693D01*
X0601778Y0490822D01*
X0601689Y0490953D01*
X0601605Y0491087D01*
X0601523Y0491223D01*
X0601445Y0491360D01*
X0601371Y0491500D01*
X0601300Y0491642D01*
X0601232Y0491785D01*
X0601168Y0491930D01*
X0601108Y0492076D01*
X0601052Y0492224D01*
X0600999Y0492373D01*
X0600950Y0492524D01*
X0600905Y0492676D01*
X0600864Y0492829D01*
X0600826Y0492982D01*
X0600793Y0493137D01*
X0600763Y0493293D01*
X0600737Y0493449D01*
X0600716Y0493606D01*
X0600698Y0493763D01*
X0600684Y0493921D01*
X0600674Y0494079D01*
X0600668Y0494237D01*
X0600666Y0494395D01*
X0647910Y0410616D02*
X0647912Y0410769D01*
X0647918Y0410923D01*
X0647928Y0411076D01*
X0647942Y0411228D01*
X0647960Y0411381D01*
X0647982Y0411532D01*
X0648007Y0411683D01*
X0648037Y0411834D01*
X0648071Y0411984D01*
X0648108Y0412132D01*
X0648149Y0412280D01*
X0648194Y0412426D01*
X0648243Y0412572D01*
X0648296Y0412716D01*
X0648352Y0412858D01*
X0648412Y0412999D01*
X0648476Y0413139D01*
X0648543Y0413277D01*
X0648614Y0413413D01*
X0648689Y0413547D01*
X0648766Y0413679D01*
X0648848Y0413809D01*
X0648932Y0413937D01*
X0649020Y0414063D01*
X0649111Y0414186D01*
X0649205Y0414307D01*
X0649303Y0414425D01*
X0649403Y0414541D01*
X0649507Y0414654D01*
X0649613Y0414765D01*
X0649722Y0414873D01*
X0649834Y0414978D01*
X0649948Y0415079D01*
X0650066Y0415178D01*
X0650185Y0415274D01*
X0650307Y0415367D01*
X0650432Y0415456D01*
X0650559Y0415543D01*
X0650688Y0415625D01*
X0650819Y0415705D01*
X0650952Y0415781D01*
X0651087Y0415854D01*
X0651224Y0415923D01*
X0651363Y0415988D01*
X0651503Y0416050D01*
X0651645Y0416108D01*
X0651788Y0416163D01*
X0651933Y0416214D01*
X0652079Y0416261D01*
X0652226Y0416304D01*
X0652374Y0416343D01*
X0652523Y0416379D01*
X0652673Y0416410D01*
X0652824Y0416438D01*
X0652975Y0416462D01*
X0653128Y0416482D01*
X0653280Y0416498D01*
X0653433Y0416510D01*
X0653586Y0416518D01*
X0653739Y0416522D01*
X0653893Y0416522D01*
X0654046Y0416518D01*
X0654199Y0416510D01*
X0654352Y0416498D01*
X0654504Y0416482D01*
X0654657Y0416462D01*
X0654808Y0416438D01*
X0654959Y0416410D01*
X0655109Y0416379D01*
X0655258Y0416343D01*
X0655406Y0416304D01*
X0655553Y0416261D01*
X0655699Y0416214D01*
X0655844Y0416163D01*
X0655987Y0416108D01*
X0656129Y0416050D01*
X0656269Y0415988D01*
X0656408Y0415923D01*
X0656545Y0415854D01*
X0656680Y0415781D01*
X0656813Y0415705D01*
X0656944Y0415625D01*
X0657073Y0415543D01*
X0657200Y0415456D01*
X0657325Y0415367D01*
X0657447Y0415274D01*
X0657566Y0415178D01*
X0657684Y0415079D01*
X0657798Y0414978D01*
X0657910Y0414873D01*
X0658019Y0414765D01*
X0658125Y0414654D01*
X0658229Y0414541D01*
X0658329Y0414425D01*
X0658427Y0414307D01*
X0658521Y0414186D01*
X0658612Y0414063D01*
X0658700Y0413937D01*
X0658784Y0413809D01*
X0658866Y0413679D01*
X0658943Y0413547D01*
X0659018Y0413413D01*
X0659089Y0413277D01*
X0659156Y0413139D01*
X0659220Y0412999D01*
X0659280Y0412858D01*
X0659336Y0412716D01*
X0659389Y0412572D01*
X0659438Y0412426D01*
X0659483Y0412280D01*
X0659524Y0412132D01*
X0659561Y0411984D01*
X0659595Y0411834D01*
X0659625Y0411683D01*
X0659650Y0411532D01*
X0659672Y0411381D01*
X0659690Y0411228D01*
X0659704Y0411076D01*
X0659714Y0410923D01*
X0659720Y0410769D01*
X0659722Y0410616D01*
X0659720Y0410463D01*
X0659714Y0410309D01*
X0659704Y0410156D01*
X0659690Y0410004D01*
X0659672Y0409851D01*
X0659650Y0409700D01*
X0659625Y0409549D01*
X0659595Y0409398D01*
X0659561Y0409248D01*
X0659524Y0409100D01*
X0659483Y0408952D01*
X0659438Y0408806D01*
X0659389Y0408660D01*
X0659336Y0408516D01*
X0659280Y0408374D01*
X0659220Y0408233D01*
X0659156Y0408093D01*
X0659089Y0407955D01*
X0659018Y0407819D01*
X0658943Y0407685D01*
X0658866Y0407553D01*
X0658784Y0407423D01*
X0658700Y0407295D01*
X0658612Y0407169D01*
X0658521Y0407046D01*
X0658427Y0406925D01*
X0658329Y0406807D01*
X0658229Y0406691D01*
X0658125Y0406578D01*
X0658019Y0406467D01*
X0657910Y0406359D01*
X0657798Y0406254D01*
X0657684Y0406153D01*
X0657566Y0406054D01*
X0657447Y0405958D01*
X0657325Y0405865D01*
X0657200Y0405776D01*
X0657073Y0405689D01*
X0656944Y0405607D01*
X0656813Y0405527D01*
X0656680Y0405451D01*
X0656545Y0405378D01*
X0656408Y0405309D01*
X0656269Y0405244D01*
X0656129Y0405182D01*
X0655987Y0405124D01*
X0655844Y0405069D01*
X0655699Y0405018D01*
X0655553Y0404971D01*
X0655406Y0404928D01*
X0655258Y0404889D01*
X0655109Y0404853D01*
X0654959Y0404822D01*
X0654808Y0404794D01*
X0654657Y0404770D01*
X0654504Y0404750D01*
X0654352Y0404734D01*
X0654199Y0404722D01*
X0654046Y0404714D01*
X0653893Y0404710D01*
X0653739Y0404710D01*
X0653586Y0404714D01*
X0653433Y0404722D01*
X0653280Y0404734D01*
X0653128Y0404750D01*
X0652975Y0404770D01*
X0652824Y0404794D01*
X0652673Y0404822D01*
X0652523Y0404853D01*
X0652374Y0404889D01*
X0652226Y0404928D01*
X0652079Y0404971D01*
X0651933Y0405018D01*
X0651788Y0405069D01*
X0651645Y0405124D01*
X0651503Y0405182D01*
X0651363Y0405244D01*
X0651224Y0405309D01*
X0651087Y0405378D01*
X0650952Y0405451D01*
X0650819Y0405527D01*
X0650688Y0405607D01*
X0650559Y0405689D01*
X0650432Y0405776D01*
X0650307Y0405865D01*
X0650185Y0405958D01*
X0650066Y0406054D01*
X0649948Y0406153D01*
X0649834Y0406254D01*
X0649722Y0406359D01*
X0649613Y0406467D01*
X0649507Y0406578D01*
X0649403Y0406691D01*
X0649303Y0406807D01*
X0649205Y0406925D01*
X0649111Y0407046D01*
X0649020Y0407169D01*
X0648932Y0407295D01*
X0648848Y0407423D01*
X0648766Y0407553D01*
X0648689Y0407685D01*
X0648614Y0407819D01*
X0648543Y0407955D01*
X0648476Y0408093D01*
X0648412Y0408233D01*
X0648352Y0408374D01*
X0648296Y0408516D01*
X0648243Y0408660D01*
X0648194Y0408806D01*
X0648149Y0408952D01*
X0648108Y0409100D01*
X0648071Y0409248D01*
X0648037Y0409398D01*
X0648007Y0409549D01*
X0647982Y0409700D01*
X0647960Y0409851D01*
X0647942Y0410004D01*
X0647928Y0410156D01*
X0647918Y0410309D01*
X0647912Y0410463D01*
X0647910Y0410616D01*
X0647910Y0125970D02*
X0647912Y0126123D01*
X0647918Y0126277D01*
X0647928Y0126430D01*
X0647942Y0126582D01*
X0647960Y0126735D01*
X0647982Y0126886D01*
X0648007Y0127037D01*
X0648037Y0127188D01*
X0648071Y0127338D01*
X0648108Y0127486D01*
X0648149Y0127634D01*
X0648194Y0127780D01*
X0648243Y0127926D01*
X0648296Y0128070D01*
X0648352Y0128212D01*
X0648412Y0128353D01*
X0648476Y0128493D01*
X0648543Y0128631D01*
X0648614Y0128767D01*
X0648689Y0128901D01*
X0648766Y0129033D01*
X0648848Y0129163D01*
X0648932Y0129291D01*
X0649020Y0129417D01*
X0649111Y0129540D01*
X0649205Y0129661D01*
X0649303Y0129779D01*
X0649403Y0129895D01*
X0649507Y0130008D01*
X0649613Y0130119D01*
X0649722Y0130227D01*
X0649834Y0130332D01*
X0649948Y0130433D01*
X0650066Y0130532D01*
X0650185Y0130628D01*
X0650307Y0130721D01*
X0650432Y0130810D01*
X0650559Y0130897D01*
X0650688Y0130979D01*
X0650819Y0131059D01*
X0650952Y0131135D01*
X0651087Y0131208D01*
X0651224Y0131277D01*
X0651363Y0131342D01*
X0651503Y0131404D01*
X0651645Y0131462D01*
X0651788Y0131517D01*
X0651933Y0131568D01*
X0652079Y0131615D01*
X0652226Y0131658D01*
X0652374Y0131697D01*
X0652523Y0131733D01*
X0652673Y0131764D01*
X0652824Y0131792D01*
X0652975Y0131816D01*
X0653128Y0131836D01*
X0653280Y0131852D01*
X0653433Y0131864D01*
X0653586Y0131872D01*
X0653739Y0131876D01*
X0653893Y0131876D01*
X0654046Y0131872D01*
X0654199Y0131864D01*
X0654352Y0131852D01*
X0654504Y0131836D01*
X0654657Y0131816D01*
X0654808Y0131792D01*
X0654959Y0131764D01*
X0655109Y0131733D01*
X0655258Y0131697D01*
X0655406Y0131658D01*
X0655553Y0131615D01*
X0655699Y0131568D01*
X0655844Y0131517D01*
X0655987Y0131462D01*
X0656129Y0131404D01*
X0656269Y0131342D01*
X0656408Y0131277D01*
X0656545Y0131208D01*
X0656680Y0131135D01*
X0656813Y0131059D01*
X0656944Y0130979D01*
X0657073Y0130897D01*
X0657200Y0130810D01*
X0657325Y0130721D01*
X0657447Y0130628D01*
X0657566Y0130532D01*
X0657684Y0130433D01*
X0657798Y0130332D01*
X0657910Y0130227D01*
X0658019Y0130119D01*
X0658125Y0130008D01*
X0658229Y0129895D01*
X0658329Y0129779D01*
X0658427Y0129661D01*
X0658521Y0129540D01*
X0658612Y0129417D01*
X0658700Y0129291D01*
X0658784Y0129163D01*
X0658866Y0129033D01*
X0658943Y0128901D01*
X0659018Y0128767D01*
X0659089Y0128631D01*
X0659156Y0128493D01*
X0659220Y0128353D01*
X0659280Y0128212D01*
X0659336Y0128070D01*
X0659389Y0127926D01*
X0659438Y0127780D01*
X0659483Y0127634D01*
X0659524Y0127486D01*
X0659561Y0127338D01*
X0659595Y0127188D01*
X0659625Y0127037D01*
X0659650Y0126886D01*
X0659672Y0126735D01*
X0659690Y0126582D01*
X0659704Y0126430D01*
X0659714Y0126277D01*
X0659720Y0126123D01*
X0659722Y0125970D01*
X0659720Y0125817D01*
X0659714Y0125663D01*
X0659704Y0125510D01*
X0659690Y0125358D01*
X0659672Y0125205D01*
X0659650Y0125054D01*
X0659625Y0124903D01*
X0659595Y0124752D01*
X0659561Y0124602D01*
X0659524Y0124454D01*
X0659483Y0124306D01*
X0659438Y0124160D01*
X0659389Y0124014D01*
X0659336Y0123870D01*
X0659280Y0123728D01*
X0659220Y0123587D01*
X0659156Y0123447D01*
X0659089Y0123309D01*
X0659018Y0123173D01*
X0658943Y0123039D01*
X0658866Y0122907D01*
X0658784Y0122777D01*
X0658700Y0122649D01*
X0658612Y0122523D01*
X0658521Y0122400D01*
X0658427Y0122279D01*
X0658329Y0122161D01*
X0658229Y0122045D01*
X0658125Y0121932D01*
X0658019Y0121821D01*
X0657910Y0121713D01*
X0657798Y0121608D01*
X0657684Y0121507D01*
X0657566Y0121408D01*
X0657447Y0121312D01*
X0657325Y0121219D01*
X0657200Y0121130D01*
X0657073Y0121043D01*
X0656944Y0120961D01*
X0656813Y0120881D01*
X0656680Y0120805D01*
X0656545Y0120732D01*
X0656408Y0120663D01*
X0656269Y0120598D01*
X0656129Y0120536D01*
X0655987Y0120478D01*
X0655844Y0120423D01*
X0655699Y0120372D01*
X0655553Y0120325D01*
X0655406Y0120282D01*
X0655258Y0120243D01*
X0655109Y0120207D01*
X0654959Y0120176D01*
X0654808Y0120148D01*
X0654657Y0120124D01*
X0654504Y0120104D01*
X0654352Y0120088D01*
X0654199Y0120076D01*
X0654046Y0120068D01*
X0653893Y0120064D01*
X0653739Y0120064D01*
X0653586Y0120068D01*
X0653433Y0120076D01*
X0653280Y0120088D01*
X0653128Y0120104D01*
X0652975Y0120124D01*
X0652824Y0120148D01*
X0652673Y0120176D01*
X0652523Y0120207D01*
X0652374Y0120243D01*
X0652226Y0120282D01*
X0652079Y0120325D01*
X0651933Y0120372D01*
X0651788Y0120423D01*
X0651645Y0120478D01*
X0651503Y0120536D01*
X0651363Y0120598D01*
X0651224Y0120663D01*
X0651087Y0120732D01*
X0650952Y0120805D01*
X0650819Y0120881D01*
X0650688Y0120961D01*
X0650559Y0121043D01*
X0650432Y0121130D01*
X0650307Y0121219D01*
X0650185Y0121312D01*
X0650066Y0121408D01*
X0649948Y0121507D01*
X0649834Y0121608D01*
X0649722Y0121713D01*
X0649613Y0121821D01*
X0649507Y0121932D01*
X0649403Y0122045D01*
X0649303Y0122161D01*
X0649205Y0122279D01*
X0649111Y0122400D01*
X0649020Y0122523D01*
X0648932Y0122649D01*
X0648848Y0122777D01*
X0648766Y0122907D01*
X0648689Y0123039D01*
X0648614Y0123173D01*
X0648543Y0123309D01*
X0648476Y0123447D01*
X0648412Y0123587D01*
X0648352Y0123728D01*
X0648296Y0123870D01*
X0648243Y0124014D01*
X0648194Y0124160D01*
X0648149Y0124306D01*
X0648108Y0124454D01*
X0648071Y0124602D01*
X0648037Y0124752D01*
X0648007Y0124903D01*
X0647982Y0125054D01*
X0647960Y0125205D01*
X0647942Y0125358D01*
X0647928Y0125510D01*
X0647918Y0125663D01*
X0647912Y0125817D01*
X0647910Y0125970D01*
D11*
X0506755Y0126353D02*
X0506755Y0123150D01*
X0506755Y0126353D02*
X0505687Y0127420D01*
X0503552Y0127420D01*
X0502484Y0126353D01*
X0502484Y0129555D02*
X0502484Y0123150D01*
X0500309Y0123150D02*
X0496039Y0123150D01*
X0498174Y0123150D02*
X0498174Y0129555D01*
X0496039Y0127420D01*
X0493884Y0124218D02*
X0493884Y0123150D01*
X0492816Y0123150D01*
X0492816Y0124218D01*
X0493884Y0124218D01*
X0490641Y0123150D02*
X0486371Y0123150D01*
X0488506Y0123150D02*
X0488506Y0129555D01*
X0486371Y0127420D01*
X0484195Y0127420D02*
X0482060Y0123150D01*
X0479925Y0127420D01*
X0471318Y0127420D02*
X0469183Y0127420D01*
X0470250Y0128488D02*
X0470250Y0124218D01*
X0471318Y0123150D01*
X0467007Y0123150D02*
X0467007Y0126353D01*
X0465940Y0127420D01*
X0463805Y0127420D01*
X0462737Y0126353D01*
X0460562Y0127420D02*
X0457359Y0127420D01*
X0456292Y0126353D01*
X0456292Y0124218D01*
X0457359Y0123150D01*
X0460562Y0123150D01*
X0460562Y0122082D02*
X0460562Y0127420D01*
X0462737Y0129555D02*
X0462737Y0123150D01*
X0460562Y0122082D02*
X0459494Y0121015D01*
X0458427Y0121015D01*
X0454130Y0123150D02*
X0451995Y0123150D01*
X0453062Y0123150D02*
X0453062Y0127420D01*
X0451995Y0127420D01*
X0453062Y0129555D02*
X0453062Y0130623D01*
X0449819Y0129555D02*
X0445549Y0129555D01*
X0445549Y0123150D01*
X0449819Y0123150D01*
X0447684Y0126353D02*
X0445549Y0126353D01*
X0443374Y0126353D02*
X0443374Y0125285D01*
X0439104Y0125285D01*
X0439104Y0124218D02*
X0439104Y0126353D01*
X0440171Y0127420D01*
X0442306Y0127420D01*
X0443374Y0126353D01*
X0442306Y0123150D02*
X0440171Y0123150D01*
X0439104Y0124218D01*
X0436942Y0123150D02*
X0434807Y0123150D01*
X0435874Y0123150D02*
X0435874Y0129555D01*
X0434807Y0129555D01*
X0432631Y0126353D02*
X0431564Y0127420D01*
X0428361Y0127420D01*
X0428361Y0129555D02*
X0428361Y0123150D01*
X0431564Y0123150D01*
X0432631Y0124218D01*
X0432631Y0126353D01*
X0426186Y0126353D02*
X0426186Y0123150D01*
X0424051Y0123150D02*
X0424051Y0126353D01*
X0425118Y0127420D01*
X0426186Y0126353D01*
X0424051Y0126353D02*
X0422983Y0127420D01*
X0421916Y0127420D01*
X0421916Y0123150D01*
X0419741Y0125285D02*
X0415470Y0125285D01*
X0415470Y0124218D02*
X0415470Y0126353D01*
X0416538Y0127420D01*
X0418673Y0127420D01*
X0419741Y0126353D01*
X0419741Y0125285D01*
X0418673Y0123150D02*
X0416538Y0123150D01*
X0415470Y0124218D01*
X0413295Y0124218D02*
X0412227Y0125285D01*
X0410092Y0125285D01*
X0409025Y0126353D01*
X0410092Y0127420D01*
X0413295Y0127420D01*
X0413295Y0124218D02*
X0412227Y0123150D01*
X0409025Y0123150D01*
X0406850Y0123150D02*
X0406850Y0126353D01*
X0405782Y0127420D01*
X0402579Y0127420D01*
X0402579Y0123150D01*
X0400404Y0123150D02*
X0396134Y0123150D01*
X0396134Y0129555D01*
X0400404Y0129555D01*
X0398269Y0126353D02*
X0396134Y0126353D01*
X0387513Y0125285D02*
X0387513Y0124218D01*
X0386445Y0123150D01*
X0384310Y0123150D01*
X0383243Y0124218D01*
X0381068Y0124218D02*
X0380000Y0123150D01*
X0377865Y0123150D01*
X0376797Y0124218D01*
X0376797Y0128488D01*
X0377865Y0129555D01*
X0380000Y0129555D01*
X0381068Y0128488D01*
X0381068Y0124218D01*
X0383243Y0127420D02*
X0384310Y0126353D01*
X0386445Y0126353D01*
X0387513Y0125285D01*
X0387513Y0128488D02*
X0386445Y0129555D01*
X0384310Y0129555D01*
X0383243Y0128488D01*
X0383243Y0127420D01*
X0374622Y0127420D02*
X0373554Y0126353D01*
X0370352Y0126353D01*
X0368177Y0128488D02*
X0367109Y0129555D01*
X0364974Y0129555D01*
X0363906Y0128488D01*
X0363906Y0124218D01*
X0364974Y0123150D01*
X0367109Y0123150D01*
X0368177Y0124218D01*
X0368177Y0128488D01*
X0370352Y0129555D02*
X0373554Y0129555D01*
X0374622Y0128488D01*
X0374622Y0127420D01*
X0373554Y0126353D02*
X0374622Y0125285D01*
X0374622Y0124218D01*
X0373554Y0123150D01*
X0370352Y0123150D01*
X0370352Y0129555D01*
X0361731Y0129555D02*
X0361731Y0123150D01*
X0361731Y0126353D02*
X0357461Y0126353D01*
X0355286Y0126353D02*
X0354218Y0125285D01*
X0351015Y0125285D01*
X0351015Y0123150D02*
X0351015Y0129555D01*
X0354218Y0129555D01*
X0355286Y0128488D01*
X0355286Y0126353D01*
X0357461Y0129555D02*
X0357461Y0123150D01*
D12*
X0326965Y0179100D03*
X0316965Y0179100D03*
X0306965Y0179100D03*
X0296965Y0179100D03*
X0286965Y0179100D03*
X0276965Y0179100D03*
X0516965Y0199100D03*
X0526965Y0199100D03*
X0626965Y0214100D03*
X0626965Y0226600D03*
X0656965Y0226600D03*
X0656965Y0214100D03*
X0656965Y0301600D03*
X0626965Y0301600D03*
X0526965Y0369100D03*
X0516965Y0369100D03*
X0451965Y0411600D03*
X0431965Y0426600D03*
X0411965Y0411600D03*
X0391965Y0411600D03*
X0351965Y0411600D03*
X0336965Y0401600D03*
X0296965Y0401600D03*
X0281965Y0401600D03*
X0241965Y0401600D03*
X0241670Y0426600D03*
X0201670Y0426600D03*
X0179465Y0439395D03*
X0179465Y0469395D03*
X0266965Y0459395D03*
X0276965Y0459395D03*
X0271965Y0469395D03*
X0281965Y0469395D03*
X0291965Y0469395D03*
X0286965Y0459395D03*
X0296965Y0459395D03*
X0366965Y0459395D03*
X0376965Y0459395D03*
X0386965Y0459395D03*
X0396965Y0459395D03*
X0391965Y0469395D03*
X0381965Y0469395D03*
X0371965Y0469395D03*
X0466965Y0459395D03*
X0476965Y0459395D03*
X0486965Y0459395D03*
X0496965Y0459395D03*
X0491965Y0469395D03*
X0481965Y0469395D03*
X0471965Y0469395D03*
X0471965Y0426600D03*
X0396965Y0369100D03*
X0386965Y0369100D03*
X0376965Y0369100D03*
X0366965Y0369100D03*
X0356965Y0369100D03*
X0346965Y0369100D03*
X0336965Y0369100D03*
X0326965Y0369100D03*
X0326965Y0359100D03*
X0336965Y0359100D03*
X0346965Y0359100D03*
X0346965Y0349100D03*
X0336965Y0349100D03*
X0326965Y0349100D03*
X0310965Y0349100D03*
X0300965Y0349100D03*
X0290965Y0349100D03*
X0290965Y0359100D03*
X0290965Y0369100D03*
X0280965Y0369100D03*
X0270965Y0369100D03*
X0260965Y0369100D03*
X0250965Y0369100D03*
X0240965Y0369100D03*
X0300965Y0369100D03*
X0300965Y0359100D03*
X0310965Y0359100D03*
X0310965Y0369100D03*
X0396965Y0356895D03*
X0426965Y0356895D03*
X0566965Y0459395D03*
X0576965Y0459395D03*
X0586965Y0459395D03*
X0596965Y0459395D03*
X0591965Y0469395D03*
X0581965Y0469395D03*
X0571965Y0469395D03*
D13*
X0601965Y0469395D03*
X0501965Y0469395D03*
X0401965Y0469395D03*
X0301965Y0469395D03*
D14*
X0516965Y0249100D03*
X0526965Y0249100D03*
X0526965Y0239100D03*
X0516965Y0239100D03*
D15*
X0314465Y0431600D03*
X0274465Y0431600D03*
X0239465Y0456600D03*
D16*
X0225715Y0456600D03*
X0260715Y0431600D03*
X0300715Y0431600D03*
D17*
X0166965Y0271600D03*
X0146965Y0271600D03*
X0206965Y0256600D03*
X0226965Y0256600D03*
X0266965Y0256600D03*
X0286965Y0256600D03*
X0331965Y0256600D03*
X0351965Y0256600D03*
X0391965Y0256600D03*
X0411965Y0256600D03*
X0451965Y0256600D03*
X0471965Y0256600D03*
X0551965Y0376600D03*
X0551965Y0396600D03*
X0606965Y0396600D03*
X0606965Y0376600D03*
X0681965Y0376600D03*
X0681965Y0396600D03*
D18*
X0681965Y0411600D03*
X0681965Y0421600D03*
X0606965Y0421600D03*
X0606965Y0411600D03*
X0551965Y0411600D03*
X0551965Y0421600D03*
X0496965Y0256600D03*
X0486965Y0256600D03*
X0436965Y0256600D03*
X0426965Y0256600D03*
X0376965Y0256600D03*
X0366965Y0256600D03*
X0311965Y0256600D03*
X0301965Y0256600D03*
X0251965Y0256600D03*
X0241965Y0256600D03*
X0196965Y0276600D03*
X0186965Y0276600D03*
D19*
X0176965Y0254800D02*
X0176965Y0248400D01*
X0166965Y0248400D02*
X0166965Y0254800D01*
X0156965Y0254800D02*
X0156965Y0248400D01*
X0216965Y0239800D02*
X0216965Y0233400D01*
X0226965Y0233400D02*
X0226965Y0239800D01*
X0236965Y0239800D02*
X0236965Y0233400D01*
X0276965Y0233400D02*
X0276965Y0239800D01*
X0286965Y0239800D02*
X0286965Y0233400D01*
X0296965Y0233400D02*
X0296965Y0239800D01*
X0341965Y0239800D02*
X0341965Y0233400D01*
X0351965Y0233400D02*
X0351965Y0239800D01*
X0361965Y0239800D02*
X0361965Y0233400D01*
X0401965Y0233400D02*
X0401965Y0239800D01*
X0411965Y0239800D02*
X0411965Y0233400D01*
X0421965Y0233400D02*
X0421965Y0239800D01*
X0461965Y0239800D02*
X0461965Y0233400D01*
X0471965Y0233400D02*
X0471965Y0239800D01*
X0481965Y0239800D02*
X0481965Y0233400D01*
X0390165Y0296600D02*
X0383765Y0296600D01*
X0383765Y0306600D02*
X0390165Y0306600D01*
X0390165Y0316600D02*
X0383765Y0316600D01*
X0360165Y0316600D02*
X0353765Y0316600D01*
X0353765Y0306600D02*
X0360165Y0306600D01*
X0360165Y0296600D02*
X0353765Y0296600D01*
X0330165Y0296600D02*
X0323765Y0296600D01*
X0323765Y0306600D02*
X0330165Y0306600D01*
X0330165Y0316600D02*
X0323765Y0316600D01*
X0299165Y0316600D02*
X0292765Y0316600D01*
X0292765Y0306600D02*
X0299165Y0306600D01*
X0299165Y0296600D02*
X0292765Y0296600D01*
X0266415Y0296895D02*
X0260015Y0296895D01*
X0260015Y0306895D02*
X0266415Y0306895D01*
X0266415Y0316895D02*
X0260015Y0316895D01*
X0418765Y0321600D02*
X0425165Y0321600D01*
X0425165Y0311600D02*
X0418765Y0311600D01*
X0418765Y0301600D02*
X0425165Y0301600D01*
X0568765Y0386600D02*
X0575165Y0386600D01*
X0575165Y0396600D02*
X0568765Y0396600D01*
X0568765Y0406600D02*
X0575165Y0406600D01*
X0623765Y0401600D02*
X0630165Y0401600D01*
X0630165Y0391600D02*
X0623765Y0391600D01*
X0623765Y0411600D02*
X0630165Y0411600D01*
X0698765Y0411600D02*
X0705165Y0411600D01*
X0705165Y0401600D02*
X0698765Y0401600D01*
X0698765Y0391600D02*
X0705165Y0391600D01*
D20*
X0646965Y0282200D02*
X0646965Y0276600D01*
X0636965Y0276600D02*
X0636965Y0282200D01*
X0626965Y0282200D02*
X0626965Y0276600D01*
X0616965Y0276600D02*
X0616965Y0282200D01*
X0616965Y0246600D02*
X0616965Y0241000D01*
X0626965Y0241000D02*
X0626965Y0246600D01*
X0636965Y0246600D02*
X0636965Y0241000D01*
X0646965Y0241000D02*
X0646965Y0246600D01*
X0410715Y0428800D02*
X0410715Y0434400D01*
X0403215Y0434400D02*
X0403215Y0428800D01*
X0380715Y0428800D02*
X0380715Y0434400D01*
X0373215Y0434400D02*
X0373215Y0428800D01*
X0428215Y0453800D02*
X0428215Y0459400D01*
X0435715Y0459400D02*
X0435715Y0453800D01*
D21*
X0152936Y0449710D02*
X0145836Y0449710D01*
X0145836Y0469395D02*
X0152936Y0469395D01*
X0152936Y0489080D02*
X0145836Y0489080D01*
X0209457Y0149571D02*
X0209457Y0142471D01*
X0229142Y0142471D02*
X0229142Y0149571D01*
X0248827Y0149571D02*
X0248827Y0142471D01*
X0268512Y0142471D02*
X0268512Y0149571D01*
X0721407Y0140498D02*
X0728507Y0140498D01*
X0728507Y0160183D02*
X0721407Y0160183D01*
X0721407Y0179868D02*
X0728507Y0179868D01*
X0728507Y0199553D02*
X0721407Y0199553D01*
X0721486Y0239710D02*
X0728586Y0239710D01*
X0728586Y0259395D02*
X0721486Y0259395D01*
X0721486Y0279080D02*
X0728586Y0279080D01*
D22*
X0540565Y0272700D02*
X0529765Y0272700D01*
X0529540Y0272925D01*
X0509040Y0272925D01*
X0501965Y0280000D01*
X0501965Y0336600D01*
X0488465Y0350100D01*
X0407365Y0350100D01*
X0401065Y0356400D01*
X0397465Y0356400D01*
X0396965Y0356895D01*
X0396965Y0369100D01*
X0426965Y0356895D02*
X0427165Y0357300D01*
X0504565Y0357300D01*
X0516265Y0369000D01*
X0516965Y0369100D01*
X0526965Y0369100D01*
X0540565Y0355500D01*
X0540565Y0352800D01*
X0346965Y0359100D02*
X0346965Y0369100D01*
X0336965Y0369100D02*
X0336965Y0359100D01*
X0326965Y0359100D02*
X0326965Y0369100D01*
X0310965Y0369100D02*
X0310965Y0359100D01*
X0300965Y0359100D02*
X0300965Y0369100D01*
X0290965Y0369100D02*
X0290965Y0359100D01*
X0290365Y0348300D02*
X0256165Y0348300D01*
X0250715Y0342850D01*
X0250715Y0330350D01*
X0250665Y0330300D01*
D23*
X0250665Y0330300D03*
X0341965Y0296600D03*
X0372665Y0306900D03*
X0406965Y0306600D03*
X0409390Y0320675D03*
X0388865Y0338400D03*
X0398590Y0345600D03*
X0471065Y0341500D03*
X0526165Y0378900D03*
X0540565Y0352800D03*
X0471065Y0400500D03*
X0496465Y0406800D03*
X0542915Y0436400D03*
X0521665Y0468900D03*
X0432065Y0476100D03*
X0359315Y0433400D03*
X0327265Y0441900D03*
X0540565Y0272700D03*
X0681965Y0321600D03*
X0681965Y0206600D03*
X0326965Y0206600D03*
D24*
X0346965Y0186600D01*
X0661965Y0186600D01*
X0681965Y0206600D01*
X0681965Y0321600D01*
D25*
X0674187Y0321600D02*
X0563165Y0321600D01*
X0563165Y0326600D02*
X0675966Y0326600D01*
X0676965Y0327600D02*
X0676965Y0367650D01*
X0675931Y0367650D02*
X0688000Y0367650D01*
X0689911Y0368442D01*
X0691374Y0369904D01*
X0692165Y0371816D01*
X0692165Y0376400D01*
X0709250Y0376400D01*
X0711161Y0377192D01*
X0712624Y0378654D01*
X0713415Y0380566D01*
X0713415Y0421384D01*
X0712624Y0423296D01*
X0711161Y0424758D01*
X0709250Y0425550D01*
X0690931Y0425550D01*
X0689020Y0424758D01*
X0689004Y0424743D01*
X0684948Y0428800D01*
X0682802Y0428800D01*
X0669524Y0442078D01*
X0667539Y0442900D01*
X0568531Y0442900D01*
X0563917Y0446400D01*
X0618000Y0446400D01*
X0619911Y0447192D01*
X0621374Y0448654D01*
X0622165Y0450566D01*
X0622165Y0501212D01*
X0737801Y0501216D01*
X0737801Y0294300D01*
X0704681Y0294300D01*
X0702770Y0293508D01*
X0701307Y0292046D01*
X0700515Y0290134D01*
X0700515Y0229316D01*
X0701307Y0227404D01*
X0702770Y0225942D01*
X0704681Y0225150D01*
X0737801Y0225150D01*
X0737801Y0214300D01*
X0704681Y0214300D01*
X0702770Y0213508D01*
X0701307Y0212046D01*
X0700515Y0210134D01*
X0700515Y0130566D01*
X0701307Y0128654D01*
X0702770Y0127192D01*
X0704681Y0126400D01*
X0737801Y0126400D01*
X0737801Y0116000D01*
X0656424Y0116000D01*
X0657793Y0116367D01*
X0660143Y0117724D01*
X0662062Y0119642D01*
X0663419Y0121992D01*
X0664121Y0124613D01*
X0664121Y0127327D01*
X0663419Y0129948D01*
X0662062Y0132298D01*
X0660143Y0134217D01*
X0657793Y0135573D01*
X0655172Y0136276D01*
X0652459Y0136276D01*
X0649838Y0135573D01*
X0647488Y0134217D01*
X0645569Y0132298D01*
X0644212Y0129948D01*
X0643510Y0127327D01*
X0643510Y0124613D01*
X0644212Y0121992D01*
X0645569Y0119642D01*
X0647488Y0117724D01*
X0649838Y0116367D01*
X0651207Y0116000D01*
X0179652Y0116000D01*
X0181022Y0116367D01*
X0183372Y0117724D01*
X0185290Y0119642D01*
X0186647Y0121992D01*
X0187349Y0124613D01*
X0187349Y0127327D01*
X0186647Y0129948D01*
X0185290Y0132298D01*
X0183372Y0134217D01*
X0181022Y0135573D01*
X0178401Y0136276D01*
X0175687Y0136276D01*
X0173066Y0135573D01*
X0170716Y0134217D01*
X0168797Y0132298D01*
X0167441Y0129948D01*
X0166738Y0127327D01*
X0166738Y0124613D01*
X0167441Y0121992D01*
X0168797Y0119642D01*
X0170716Y0117724D01*
X0173066Y0116367D01*
X0174435Y0116000D01*
X0136365Y0116000D01*
X0136365Y0435150D01*
X0166750Y0435150D01*
X0168661Y0435942D01*
X0170124Y0437404D01*
X0170915Y0439316D01*
X0170915Y0500134D01*
X0170475Y0501197D01*
X0246765Y0501200D01*
X0246765Y0473432D01*
X0246195Y0474042D01*
X0245786Y0474227D01*
X0245308Y0474616D01*
X0245042Y0474978D01*
X0244328Y0475412D01*
X0243680Y0475939D01*
X0243250Y0476067D01*
X0242723Y0476387D01*
X0242410Y0476710D01*
X0241644Y0477042D01*
X0240930Y0477476D01*
X0240486Y0477544D01*
X0239920Y0477790D01*
X0239567Y0478067D01*
X0238763Y0478292D01*
X0237996Y0478624D01*
X0237548Y0478632D01*
X0236954Y0478798D01*
X0236566Y0479024D01*
X0235738Y0479137D01*
X0234934Y0479362D01*
X0234488Y0479309D01*
X0233877Y0479392D01*
X0233462Y0479564D01*
X0232627Y0479564D01*
X0231799Y0479677D01*
X0231365Y0479563D01*
X0230748Y0479563D01*
X0230314Y0479676D01*
X0229486Y0479562D01*
X0228651Y0479562D01*
X0228236Y0479390D01*
X0227625Y0479306D01*
X0227180Y0479359D01*
X0226375Y0479133D01*
X0225548Y0479019D01*
X0225160Y0478792D01*
X0224566Y0478626D01*
X0224118Y0478618D01*
X0223351Y0478285D01*
X0222547Y0478059D01*
X0222194Y0477782D01*
X0221629Y0477536D01*
X0221185Y0477467D01*
X0220471Y0477033D01*
X0219705Y0476700D01*
X0219393Y0476377D01*
X0218866Y0476056D01*
X0218436Y0475928D01*
X0217789Y0475400D01*
X0217075Y0474966D01*
X0216810Y0474604D01*
X0216332Y0474214D01*
X0215923Y0474028D01*
X0215353Y0473418D01*
X0214705Y0472890D01*
X0214492Y0472495D01*
X0214071Y0472044D01*
X0213691Y0471805D01*
X0213210Y0471122D01*
X0212640Y0470511D01*
X0212482Y0470091D01*
X0212127Y0469587D01*
X0211783Y0469298D01*
X0211399Y0468556D01*
X0210918Y0467873D01*
X0210819Y0467436D01*
X0210535Y0466888D01*
X0210234Y0466555D01*
X0209955Y0465767D01*
X0209570Y0465026D01*
X0209532Y0464578D01*
X0209326Y0463997D01*
X0209073Y0463626D01*
X0208903Y0462808D01*
X0208624Y0462021D01*
X0208647Y0461573D01*
X0208521Y0460969D01*
X0208322Y0460567D01*
X0208265Y0459733D01*
X0208095Y0458915D01*
X0208178Y0458474D01*
X0208152Y0458082D01*
X0208065Y0457873D01*
X0208065Y0456819D01*
X0208003Y0455909D01*
X0207949Y0455698D01*
X0208065Y0454892D01*
X0208065Y0454077D01*
X0208245Y0453643D01*
X0208320Y0453121D01*
X0208269Y0452694D01*
X0208500Y0451872D01*
X0208622Y0451026D01*
X0208841Y0450656D01*
X0208973Y0450187D01*
X0208978Y0449757D01*
X0209314Y0448972D01*
X0209545Y0448149D01*
X0209811Y0447812D01*
X0210003Y0447363D01*
X0210064Y0446938D01*
X0210499Y0446203D01*
X0210835Y0445418D01*
X0211143Y0445117D01*
X0211392Y0444698D01*
X0211508Y0444284D01*
X0212035Y0443612D01*
X0212471Y0442878D01*
X0212815Y0442620D01*
X0213116Y0442236D01*
X0213285Y0441841D01*
X0213896Y0441244D01*
X0214423Y0440572D01*
X0214798Y0440362D01*
X0215147Y0440021D01*
X0215366Y0439651D01*
X0216049Y0439138D01*
X0216660Y0438541D01*
X0217059Y0438381D01*
X0217449Y0438088D01*
X0217714Y0437750D01*
X0218458Y0437331D01*
X0219142Y0436819D01*
X0219558Y0436712D01*
X0219983Y0436473D01*
X0220290Y0436172D01*
X0221083Y0435853D01*
X0221827Y0435434D01*
X0222254Y0435383D01*
X0222706Y0435201D01*
X0223050Y0434943D01*
X0223877Y0434731D01*
X0224670Y0434412D01*
X0225100Y0434417D01*
X0225572Y0434295D01*
X0225947Y0434084D01*
X0226795Y0433982D01*
X0227622Y0433769D01*
X0228047Y0433830D01*
X0228532Y0433771D01*
X0228930Y0433610D01*
X0229785Y0433619D01*
X0230632Y0433516D01*
X0231046Y0433632D01*
X0231534Y0433637D01*
X0231950Y0433530D01*
X0232796Y0433649D01*
X0233650Y0433658D01*
X0234046Y0433827D01*
X0234538Y0433896D01*
X0234974Y0433845D01*
X0235787Y0434073D01*
X0236624Y0434192D01*
X0237002Y0434415D01*
X0237587Y0434580D01*
X0238036Y0434588D01*
X0238801Y0434922D01*
X0239606Y0435148D01*
X0239958Y0435426D01*
X0240524Y0435673D01*
X0240967Y0435742D01*
X0241680Y0436177D01*
X0242446Y0436510D01*
X0242758Y0436834D01*
X0243284Y0437155D01*
X0243714Y0437284D01*
X0243718Y0437287D01*
X0243624Y0437021D01*
X0243647Y0436573D01*
X0243521Y0435969D01*
X0243322Y0435567D01*
X0243265Y0434733D01*
X0243258Y0434700D01*
X0240059Y0434700D01*
X0237082Y0433467D01*
X0234803Y0431188D01*
X0233570Y0428211D01*
X0233570Y0426941D01*
X0193087Y0386459D01*
X0192265Y0384474D01*
X0192265Y0282082D01*
X0190410Y0280227D01*
X0189036Y0281600D01*
X0186965Y0281600D01*
X0184894Y0281600D01*
X0181965Y0278671D01*
X0181965Y0401557D01*
X0182039Y0401600D02*
X0208228Y0401600D01*
X0206965Y0400337D02*
X0206965Y0420440D01*
X0206258Y0419733D02*
X0208537Y0422012D01*
X0209770Y0424989D01*
X0209770Y0428211D01*
X0208537Y0431188D01*
X0206258Y0433467D01*
X0203281Y0434700D01*
X0200059Y0434700D01*
X0197082Y0433467D01*
X0194803Y0431188D01*
X0193570Y0428211D01*
X0193570Y0424989D01*
X0194803Y0422012D01*
X0197082Y0419733D01*
X0200059Y0418500D01*
X0203281Y0418500D01*
X0206258Y0419733D01*
X0208125Y0421600D02*
X0228228Y0421600D01*
X0226965Y0420337D02*
X0226965Y0433938D01*
X0231965Y0433532D02*
X0231965Y0425337D01*
X0233228Y0426600D02*
X0209770Y0426600D01*
X0208125Y0431600D02*
X0235215Y0431600D01*
X0236965Y0433350D02*
X0236965Y0434394D01*
X0241965Y0434700D02*
X0241965Y0436301D01*
X0242533Y0436600D02*
X0243645Y0436600D01*
X0221965Y0435418D02*
X0221965Y0415337D01*
X0223228Y0416600D02*
X0185489Y0416600D01*
X0185290Y0416943D02*
X0183372Y0418862D01*
X0181022Y0420219D01*
X0178401Y0420921D01*
X0175687Y0420921D01*
X0173066Y0420219D01*
X0170716Y0418862D01*
X0168797Y0416943D01*
X0167441Y0414594D01*
X0166738Y0411972D01*
X0166738Y0409259D01*
X0167441Y0406638D01*
X0168797Y0404288D01*
X0170716Y0402369D01*
X0173066Y0401013D01*
X0175687Y0400310D01*
X0178401Y0400310D01*
X0181022Y0401013D01*
X0183372Y0402369D01*
X0185290Y0404288D01*
X0186647Y0406638D01*
X0187349Y0409259D01*
X0187349Y0411972D01*
X0186647Y0414594D01*
X0185290Y0416943D01*
X0186965Y0413406D02*
X0186965Y0436336D01*
X0187075Y0436600D02*
X0219757Y0436600D01*
X0216965Y0438418D02*
X0216965Y0410337D01*
X0218228Y0411600D02*
X0187349Y0411600D01*
X0186965Y0407825D02*
X0186965Y0276600D01*
X0175915Y0276600D01*
X0175915Y0277634D02*
X0175124Y0279546D01*
X0173661Y0281008D01*
X0171750Y0281800D01*
X0142181Y0281800D01*
X0140270Y0281008D01*
X0138807Y0279546D01*
X0138015Y0277634D01*
X0138015Y0265566D01*
X0138807Y0263654D01*
X0140270Y0262192D01*
X0141832Y0261545D01*
X0141765Y0261384D01*
X0141765Y0243066D01*
X0142557Y0241154D01*
X0144020Y0239692D01*
X0145931Y0238900D01*
X0186750Y0238900D01*
X0188661Y0239692D01*
X0190124Y0241154D01*
X0190915Y0243066D01*
X0190915Y0261384D01*
X0190124Y0263296D01*
X0188661Y0264758D01*
X0186750Y0265550D01*
X0175909Y0265550D01*
X0175915Y0265566D01*
X0175915Y0277634D01*
X0172232Y0281600D02*
X0191783Y0281600D01*
X0191965Y0281782D02*
X0191965Y0501198D01*
X0186965Y0501198D02*
X0186965Y0472455D01*
X0187319Y0471600D02*
X0213547Y0471600D01*
X0211965Y0469451D02*
X0211965Y0501199D01*
X0206965Y0501198D02*
X0206965Y0432760D01*
X0201965Y0434700D02*
X0201965Y0501198D01*
X0196965Y0501198D02*
X0196965Y0433350D01*
X0195215Y0431600D02*
X0181812Y0431600D01*
X0181965Y0431663D02*
X0181965Y0419674D01*
X0176965Y0420921D02*
X0176965Y0431663D01*
X0177118Y0431600D02*
X0136365Y0431600D01*
X0136965Y0435150D02*
X0136965Y0116000D01*
X0136365Y0116600D02*
X0172662Y0116600D01*
X0171965Y0117003D02*
X0171965Y0116000D01*
X0166965Y0116000D02*
X0166965Y0123767D01*
X0167667Y0121600D02*
X0136365Y0121600D01*
X0136365Y0126600D02*
X0166738Y0126600D01*
X0166965Y0128173D02*
X0166965Y0238900D01*
X0161965Y0238900D02*
X0161965Y0116000D01*
X0156965Y0116000D02*
X0156965Y0238900D01*
X0151965Y0238900D02*
X0151965Y0116000D01*
X0146965Y0116000D02*
X0146965Y0238900D01*
X0142372Y0241600D02*
X0136365Y0241600D01*
X0136365Y0246600D02*
X0141765Y0246600D01*
X0141965Y0242583D02*
X0141965Y0116000D01*
X0136365Y0131600D02*
X0168395Y0131600D01*
X0171965Y0134938D02*
X0171965Y0238900D01*
X0176965Y0238900D02*
X0176965Y0136276D01*
X0181965Y0135029D02*
X0181965Y0238900D01*
X0186965Y0238989D02*
X0186965Y0128761D01*
X0187349Y0126600D02*
X0346315Y0126600D01*
X0346315Y0124350D02*
X0346315Y0122215D01*
X0347031Y0120488D01*
X0348353Y0119166D01*
X0350080Y0118450D01*
X0351950Y0118450D01*
X0353678Y0119166D01*
X0354238Y0119726D01*
X0354798Y0119166D01*
X0356526Y0118450D01*
X0358396Y0118450D01*
X0359596Y0118947D01*
X0360796Y0118450D01*
X0362666Y0118450D01*
X0363352Y0118734D01*
X0364039Y0118450D01*
X0368044Y0118450D01*
X0368730Y0118734D01*
X0369417Y0118450D01*
X0374489Y0118450D01*
X0375710Y0118955D01*
X0376930Y0118450D01*
X0380935Y0118450D01*
X0382155Y0118955D01*
X0383375Y0118450D01*
X0387380Y0118450D01*
X0388913Y0119085D01*
X0389108Y0119166D01*
X0390175Y0120233D01*
X0390175Y0120233D01*
X0391479Y0121537D01*
X0391497Y0121555D01*
X0391497Y0121555D01*
X0391602Y0121808D01*
X0392149Y0120488D01*
X0393471Y0119166D01*
X0395199Y0118450D01*
X0401339Y0118450D01*
X0401492Y0118513D01*
X0401644Y0118450D01*
X0403514Y0118450D01*
X0404714Y0118947D01*
X0405915Y0118450D01*
X0407784Y0118450D01*
X0407937Y0118513D01*
X0408090Y0118450D01*
X0413162Y0118450D01*
X0414383Y0118955D01*
X0415603Y0118450D01*
X0419608Y0118450D01*
X0420294Y0118734D01*
X0420981Y0118450D01*
X0422851Y0118450D01*
X0422983Y0118505D01*
X0423116Y0118450D01*
X0424986Y0118450D01*
X0425118Y0118505D01*
X0425251Y0118450D01*
X0427121Y0118450D01*
X0427274Y0118513D01*
X0427426Y0118450D01*
X0432499Y0118450D01*
X0433185Y0118734D01*
X0433872Y0118450D01*
X0437877Y0118450D01*
X0438557Y0118732D01*
X0439236Y0118450D01*
X0443241Y0118450D01*
X0443928Y0118734D01*
X0444614Y0118450D01*
X0450754Y0118450D01*
X0450907Y0118513D01*
X0451060Y0118450D01*
X0454402Y0118450D01*
X0454442Y0118353D01*
X0455764Y0117030D01*
X0457492Y0116315D01*
X0460429Y0116315D01*
X0462157Y0117030D01*
X0463224Y0118098D01*
X0463576Y0118450D01*
X0463672Y0118450D01*
X0464872Y0118947D01*
X0466073Y0118450D01*
X0467942Y0118450D01*
X0469163Y0118955D01*
X0470383Y0118450D01*
X0472253Y0118450D01*
X0473980Y0119166D01*
X0475302Y0120488D01*
X0476018Y0122215D01*
X0476018Y0124085D01*
X0475521Y0125285D01*
X0475619Y0125523D01*
X0477707Y0121347D01*
X0477897Y0120777D01*
X0478121Y0120518D01*
X0478275Y0120212D01*
X0478729Y0119818D01*
X0479122Y0119364D01*
X0479428Y0119211D01*
X0479687Y0118987D01*
X0480257Y0118797D01*
X0480795Y0118528D01*
X0481136Y0118504D01*
X0481461Y0118396D01*
X0482060Y0118438D01*
X0482660Y0118396D01*
X0482984Y0118504D01*
X0483326Y0118528D01*
X0483863Y0118797D01*
X0484271Y0118933D01*
X0485436Y0118450D01*
X0491576Y0118450D01*
X0491729Y0118513D01*
X0491881Y0118450D01*
X0494819Y0118450D01*
X0494961Y0118509D01*
X0495104Y0118450D01*
X0501244Y0118450D01*
X0501397Y0118513D01*
X0501549Y0118450D01*
X0503419Y0118450D01*
X0504620Y0118947D01*
X0505820Y0118450D01*
X0507690Y0118450D01*
X0509417Y0119166D01*
X0510739Y0120488D01*
X0511455Y0122215D01*
X0511455Y0127288D01*
X0510739Y0129015D01*
X0509417Y0130337D01*
X0508349Y0131405D01*
X0506622Y0132120D01*
X0506509Y0132120D01*
X0506469Y0132218D01*
X0505147Y0133540D01*
X0503419Y0134255D01*
X0501549Y0134255D01*
X0500329Y0133750D01*
X0499109Y0134255D01*
X0497239Y0134255D01*
X0495512Y0133540D01*
X0494190Y0132218D01*
X0492988Y0131016D01*
X0492490Y0132218D01*
X0491168Y0133540D01*
X0489441Y0134255D01*
X0487571Y0134255D01*
X0485843Y0133540D01*
X0484521Y0132218D01*
X0484521Y0132218D01*
X0484420Y0132116D01*
X0483596Y0132175D01*
X0482060Y0131663D01*
X0480525Y0132175D01*
X0478659Y0132042D01*
X0476987Y0131206D01*
X0475762Y0129793D01*
X0475610Y0129339D01*
X0475302Y0130083D01*
X0473980Y0131405D01*
X0472913Y0132472D01*
X0471185Y0133188D01*
X0469315Y0133188D01*
X0467588Y0132472D01*
X0467130Y0132015D01*
X0466875Y0132120D01*
X0466762Y0132120D01*
X0466722Y0132218D01*
X0465399Y0133540D01*
X0463672Y0134255D01*
X0461802Y0134255D01*
X0460075Y0133540D01*
X0458753Y0132218D01*
X0458712Y0132120D01*
X0457529Y0132120D01*
X0457047Y0133285D01*
X0455725Y0134608D01*
X0453997Y0135323D01*
X0452127Y0135323D01*
X0450400Y0134608D01*
X0450048Y0134255D01*
X0444614Y0134255D01*
X0442887Y0133540D01*
X0441565Y0132218D01*
X0441524Y0132120D01*
X0439899Y0132120D01*
X0439859Y0132218D01*
X0438537Y0133540D01*
X0436809Y0134255D01*
X0433872Y0134255D01*
X0432144Y0133540D01*
X0431584Y0132980D01*
X0431024Y0133540D01*
X0429296Y0134255D01*
X0427426Y0134255D01*
X0425699Y0133540D01*
X0424377Y0132218D01*
X0424336Y0132120D01*
X0424184Y0132120D01*
X0424051Y0132065D01*
X0423918Y0132120D01*
X0420981Y0132120D01*
X0420294Y0131836D01*
X0419608Y0132120D01*
X0415603Y0132120D01*
X0414916Y0131836D01*
X0414230Y0132120D01*
X0409157Y0132120D01*
X0408452Y0131828D01*
X0407937Y0131615D01*
X0406717Y0132120D01*
X0404429Y0132120D01*
X0404388Y0132218D01*
X0403066Y0133540D01*
X0401339Y0134255D01*
X0395199Y0134255D01*
X0393471Y0133540D01*
X0392149Y0132218D01*
X0391602Y0130897D01*
X0391497Y0131150D01*
X0390321Y0132327D01*
X0389108Y0133540D01*
X0389108Y0133540D01*
X0388913Y0133621D01*
X0387380Y0134255D01*
X0383375Y0134255D01*
X0382155Y0133750D01*
X0380935Y0134255D01*
X0376930Y0134255D01*
X0375710Y0133750D01*
X0374489Y0134255D01*
X0369417Y0134255D01*
X0368730Y0133971D01*
X0368044Y0134255D01*
X0364039Y0134255D01*
X0363352Y0133971D01*
X0362666Y0134255D01*
X0360796Y0134255D01*
X0359596Y0133758D01*
X0358396Y0134255D01*
X0356526Y0134255D01*
X0355839Y0133971D01*
X0355153Y0134255D01*
X0350080Y0134255D01*
X0348353Y0133540D01*
X0347031Y0132218D01*
X0346315Y0130490D01*
X0346315Y0124350D01*
X0346570Y0121600D02*
X0186421Y0121600D01*
X0186965Y0123179D02*
X0186965Y0116000D01*
X0181965Y0116000D02*
X0181965Y0116912D01*
X0181426Y0116600D02*
X0456803Y0116600D01*
X0456965Y0116533D02*
X0456965Y0116000D01*
X0461118Y0116600D02*
X0649434Y0116600D01*
X0646965Y0116000D02*
X0646965Y0118246D01*
X0644439Y0121600D02*
X0511200Y0121600D01*
X0511455Y0126600D02*
X0643510Y0126600D01*
X0645166Y0131600D02*
X0507878Y0131600D01*
X0506965Y0131978D02*
X0506965Y0180200D01*
X0501965Y0180200D02*
X0501965Y0134255D01*
X0496965Y0134142D02*
X0496965Y0180200D01*
X0491965Y0180200D02*
X0491965Y0132743D01*
X0492746Y0131600D02*
X0493572Y0131600D01*
X0486965Y0134005D02*
X0486965Y0180200D01*
X0481965Y0180200D02*
X0481965Y0131695D01*
X0477775Y0131600D02*
X0473785Y0131600D01*
X0471965Y0132865D02*
X0471965Y0180200D01*
X0466965Y0180200D02*
X0466965Y0132083D01*
X0461965Y0134255D02*
X0461965Y0180200D01*
X0456965Y0180200D02*
X0456965Y0133367D01*
X0451965Y0135256D02*
X0451965Y0180200D01*
X0446965Y0180200D02*
X0446965Y0134255D01*
X0441965Y0132618D02*
X0441965Y0180200D01*
X0436965Y0180200D02*
X0436965Y0134191D01*
X0431965Y0133361D02*
X0431965Y0180200D01*
X0426965Y0180200D02*
X0426965Y0134064D01*
X0421965Y0132120D02*
X0421965Y0180200D01*
X0416965Y0180200D02*
X0416965Y0132120D01*
X0411965Y0132120D02*
X0411965Y0180200D01*
X0406965Y0180200D02*
X0406965Y0132017D01*
X0401965Y0133996D02*
X0401965Y0180200D01*
X0396965Y0180200D02*
X0396965Y0134255D01*
X0391965Y0131774D02*
X0391965Y0180200D01*
X0386965Y0180200D02*
X0386965Y0134255D01*
X0389108Y0133540D02*
X0389108Y0133540D01*
X0391048Y0131600D02*
X0391893Y0131600D01*
X0381965Y0133829D02*
X0381965Y0180200D01*
X0376965Y0180200D02*
X0376965Y0134255D01*
X0371965Y0134255D02*
X0371965Y0180200D01*
X0366965Y0180200D02*
X0366965Y0134255D01*
X0361965Y0134255D02*
X0361965Y0180200D01*
X0356965Y0180200D02*
X0356965Y0134255D01*
X0351965Y0134255D02*
X0351965Y0180200D01*
X0346965Y0180200D02*
X0346965Y0132060D01*
X0346775Y0131600D02*
X0185693Y0131600D01*
X0202717Y0137968D02*
X0204954Y0135732D01*
X0207876Y0134521D01*
X0211038Y0134521D01*
X0213960Y0135732D01*
X0216197Y0137968D01*
X0217407Y0140890D01*
X0217407Y0151153D01*
X0216197Y0154075D01*
X0213960Y0156311D01*
X0211038Y0157521D01*
X0207876Y0157521D01*
X0204954Y0156311D01*
X0202717Y0154075D01*
X0201507Y0151153D01*
X0201507Y0140890D01*
X0202717Y0137968D01*
X0204085Y0136600D02*
X0136365Y0136600D01*
X0136365Y0141600D02*
X0201507Y0141600D01*
X0201965Y0139784D02*
X0201965Y0116000D01*
X0196965Y0116000D02*
X0196965Y0269400D01*
X0193983Y0269400D02*
X0199948Y0269400D01*
X0204165Y0273618D01*
X0204165Y0279582D01*
X0203065Y0280682D01*
X0203065Y0307859D01*
X0242192Y0263805D01*
X0243352Y0261600D01*
X0235915Y0261600D01*
X0235915Y0262634D02*
X0235124Y0264546D01*
X0233661Y0266008D01*
X0231750Y0266800D01*
X0202181Y0266800D01*
X0200270Y0266008D01*
X0198807Y0264546D01*
X0198015Y0262634D01*
X0198015Y0250566D01*
X0198807Y0248654D01*
X0200270Y0247192D01*
X0202181Y0246400D01*
X0203022Y0246400D01*
X0203015Y0246384D01*
X0203015Y0228066D01*
X0203807Y0226154D01*
X0205270Y0224692D01*
X0207181Y0223900D01*
X0248000Y0223900D01*
X0249911Y0224692D01*
X0251374Y0226154D01*
X0252165Y0228066D01*
X0252165Y0246384D01*
X0251374Y0248296D01*
X0250269Y0249400D01*
X0254948Y0249400D01*
X0258015Y0252468D01*
X0258015Y0250566D01*
X0258807Y0248654D01*
X0260270Y0247192D01*
X0262181Y0246400D01*
X0263022Y0246400D01*
X0263015Y0246384D01*
X0263015Y0228066D01*
X0263807Y0226154D01*
X0265270Y0224692D01*
X0267181Y0223900D01*
X0308000Y0223900D01*
X0309911Y0224692D01*
X0311374Y0226154D01*
X0312165Y0228066D01*
X0312165Y0246384D01*
X0311374Y0248296D01*
X0310269Y0249400D01*
X0314948Y0249400D01*
X0319165Y0253618D01*
X0319165Y0259582D01*
X0317365Y0261382D01*
X0317365Y0283091D01*
X0318431Y0282650D01*
X0336750Y0282650D01*
X0338661Y0283442D01*
X0340124Y0284904D01*
X0340915Y0286816D01*
X0340915Y0327634D01*
X0340124Y0329546D01*
X0338661Y0331008D01*
X0336750Y0331800D01*
X0320465Y0331800D01*
X0320465Y0334713D01*
X0324868Y0339116D01*
X0325648Y0341000D01*
X0328576Y0341000D01*
X0331553Y0342233D01*
X0331965Y0342645D01*
X0331965Y0331800D01*
X0326965Y0331800D02*
X0326965Y0341000D01*
X0330025Y0341600D02*
X0333905Y0341600D01*
X0335354Y0341000D02*
X0332377Y0342233D01*
X0331965Y0342645D01*
X0335354Y0341000D02*
X0338576Y0341000D01*
X0341553Y0342233D01*
X0341965Y0342645D01*
X0342377Y0342233D01*
X0345354Y0341000D01*
X0348576Y0341000D01*
X0351553Y0342233D01*
X0353832Y0344512D01*
X0355065Y0347489D01*
X0355065Y0350711D01*
X0353832Y0353688D01*
X0353420Y0354100D01*
X0353832Y0354512D01*
X0355065Y0357489D01*
X0355065Y0360711D01*
X0354861Y0361204D01*
X0355354Y0361000D01*
X0358576Y0361000D01*
X0361553Y0362233D01*
X0361965Y0362645D01*
X0362377Y0362233D01*
X0365354Y0361000D01*
X0368576Y0361000D01*
X0371553Y0362233D01*
X0371965Y0362645D01*
X0372377Y0362233D01*
X0375354Y0361000D01*
X0378576Y0361000D01*
X0381553Y0362233D01*
X0381965Y0362645D01*
X0382377Y0362233D01*
X0385354Y0361000D01*
X0388576Y0361000D01*
X0390349Y0361734D01*
X0390098Y0361484D01*
X0388865Y0358506D01*
X0388865Y0355284D01*
X0390098Y0352307D01*
X0392198Y0350207D01*
X0390812Y0348822D01*
X0390812Y0346178D01*
X0385643Y0346178D01*
X0381087Y0341622D01*
X0381087Y0338259D01*
X0370417Y0327588D01*
X0370124Y0328296D01*
X0368661Y0329758D01*
X0366750Y0330550D01*
X0348431Y0330550D01*
X0346520Y0329758D01*
X0345057Y0328296D01*
X0344265Y0326384D01*
X0344265Y0285566D01*
X0345057Y0283654D01*
X0346520Y0282192D01*
X0348431Y0281400D01*
X0366750Y0281400D01*
X0368661Y0282192D01*
X0370124Y0283654D01*
X0370915Y0285566D01*
X0370915Y0299122D01*
X0374265Y0299122D01*
X0374265Y0285566D01*
X0375057Y0283654D01*
X0376520Y0282192D01*
X0378431Y0281400D01*
X0393415Y0281400D01*
X0393415Y0278367D01*
X0375075Y0265772D01*
X0374606Y0265578D01*
X0374198Y0265170D01*
X0373723Y0264843D01*
X0373446Y0264418D01*
X0373087Y0264059D01*
X0372867Y0263526D01*
X0372552Y0263042D01*
X0372459Y0262543D01*
X0372271Y0262088D01*
X0370410Y0260227D01*
X0369036Y0261600D01*
X0366965Y0261600D01*
X0364894Y0261600D01*
X0362165Y0258871D01*
X0362165Y0262634D01*
X0361374Y0264546D01*
X0359911Y0266008D01*
X0358000Y0266800D01*
X0328431Y0266800D01*
X0326520Y0266008D01*
X0325057Y0264546D01*
X0324265Y0262634D01*
X0324265Y0250566D01*
X0325057Y0248654D01*
X0326520Y0247192D01*
X0328082Y0246545D01*
X0328015Y0246384D01*
X0328015Y0228066D01*
X0328807Y0226154D01*
X0330270Y0224692D01*
X0332181Y0223900D01*
X0373000Y0223900D01*
X0374911Y0224692D01*
X0376374Y0226154D01*
X0377165Y0228066D01*
X0377165Y0246384D01*
X0376374Y0248296D01*
X0375269Y0249400D01*
X0379948Y0249400D01*
X0383015Y0252468D01*
X0383015Y0250566D01*
X0383807Y0248654D01*
X0385270Y0247192D01*
X0386832Y0246545D01*
X0386765Y0246384D01*
X0386765Y0228066D01*
X0387557Y0226154D01*
X0389020Y0224692D01*
X0390931Y0223900D01*
X0431750Y0223900D01*
X0433661Y0224692D01*
X0435124Y0226154D01*
X0435915Y0228066D01*
X0435915Y0246384D01*
X0435124Y0248296D01*
X0434019Y0249400D01*
X0439948Y0249400D01*
X0443015Y0252468D01*
X0443015Y0250566D01*
X0443807Y0248654D01*
X0445270Y0247192D01*
X0446765Y0246572D01*
X0446765Y0229316D01*
X0447557Y0227404D01*
X0449020Y0225942D01*
X0450931Y0225150D01*
X0491750Y0225150D01*
X0493661Y0225942D01*
X0495124Y0227404D01*
X0495915Y0229316D01*
X0495915Y0247634D01*
X0495184Y0249400D01*
X0499948Y0249400D01*
X0504165Y0253618D01*
X0504165Y0259582D01*
X0499948Y0263800D01*
X0493983Y0263800D01*
X0490410Y0260227D01*
X0489036Y0261600D01*
X0486965Y0261600D01*
X0484894Y0261600D01*
X0481965Y0258671D01*
X0481965Y0344900D01*
X0478843Y0344722D02*
X0478665Y0344900D01*
X0486311Y0344900D01*
X0496765Y0334446D01*
X0496765Y0278966D01*
X0497557Y0277054D01*
X0504632Y0269979D01*
X0506095Y0268517D01*
X0508006Y0267725D01*
X0528188Y0267725D01*
X0528731Y0267500D01*
X0534766Y0267500D01*
X0537343Y0264922D01*
X0540575Y0264922D01*
X0529122Y0257200D01*
X0523610Y0257200D01*
X0521965Y0255555D01*
X0521965Y0267725D01*
X0516965Y0267725D02*
X0516965Y0257200D01*
X0520320Y0257200D02*
X0513610Y0257200D01*
X0508865Y0252455D01*
X0508865Y0245745D01*
X0510510Y0244100D01*
X0508865Y0242455D01*
X0508865Y0235745D01*
X0513610Y0231000D01*
X0520320Y0231000D01*
X0521965Y0232645D01*
X0521965Y0202256D01*
X0521465Y0202944D01*
X0520809Y0203600D01*
X0520057Y0204146D01*
X0519230Y0204568D01*
X0518347Y0204855D01*
X0517430Y0205000D01*
X0516965Y0205000D01*
X0516501Y0205000D01*
X0515584Y0204855D01*
X0514700Y0204568D01*
X0513873Y0204146D01*
X0513122Y0203600D01*
X0512465Y0202944D01*
X0511919Y0202192D01*
X0511497Y0201365D01*
X0511210Y0200482D01*
X0511065Y0199564D01*
X0511065Y0199100D01*
X0511065Y0198636D01*
X0511210Y0197718D01*
X0511497Y0196835D01*
X0511919Y0196008D01*
X0512465Y0195256D01*
X0513122Y0194600D01*
X0513873Y0194054D01*
X0514700Y0193632D01*
X0515584Y0193345D01*
X0516501Y0193200D01*
X0516965Y0193200D01*
X0516965Y0199100D01*
X0516965Y0199100D01*
X0511065Y0199100D01*
X0516965Y0199100D01*
X0516965Y0205000D01*
X0516965Y0199100D01*
X0516965Y0199100D01*
X0516965Y0199100D01*
X0516965Y0231000D01*
X0513010Y0231600D02*
X0495915Y0231600D01*
X0495915Y0236600D02*
X0508865Y0236600D01*
X0508865Y0241600D02*
X0495915Y0241600D01*
X0495915Y0246600D02*
X0508865Y0246600D01*
X0508865Y0251600D02*
X0502148Y0251600D01*
X0501965Y0251418D02*
X0501965Y0193000D01*
X0496965Y0193000D02*
X0496965Y0249400D01*
X0504165Y0256600D02*
X0513010Y0256600D01*
X0511965Y0255555D02*
X0511965Y0267725D01*
X0506965Y0268156D02*
X0506965Y0193000D01*
X0511965Y0193000D02*
X0511965Y0195944D01*
X0511617Y0196600D02*
X0346016Y0196600D01*
X0346965Y0195651D02*
X0346965Y0223900D01*
X0341965Y0223900D02*
X0341965Y0200651D01*
X0341016Y0201600D02*
X0511617Y0201600D01*
X0511965Y0202256D02*
X0511965Y0232645D01*
X0520920Y0231600D02*
X0523010Y0231600D01*
X0523610Y0231000D02*
X0530320Y0231000D01*
X0535065Y0235745D01*
X0535065Y0242455D01*
X0533420Y0244100D01*
X0535065Y0245745D01*
X0535065Y0248181D01*
X0560334Y0265219D01*
X0560824Y0265422D01*
X0561216Y0265814D01*
X0561675Y0266123D01*
X0561968Y0266566D01*
X0562343Y0266941D01*
X0562555Y0267453D01*
X0562861Y0267914D01*
X0562962Y0268435D01*
X0563165Y0268926D01*
X0563165Y0269480D01*
X0563271Y0270023D01*
X0563165Y0270543D01*
X0563165Y0356739D01*
X0563271Y0357242D01*
X0563165Y0357803D01*
X0563165Y0358374D01*
X0562969Y0358849D01*
X0562874Y0359353D01*
X0562562Y0359831D01*
X0562343Y0360359D01*
X0561980Y0360722D01*
X0561699Y0361152D01*
X0561228Y0361474D01*
X0560824Y0361878D01*
X0560350Y0362074D01*
X0552193Y0367650D01*
X0558000Y0367650D01*
X0559911Y0368442D01*
X0561374Y0369904D01*
X0561993Y0371400D01*
X0579250Y0371400D01*
X0581161Y0372192D01*
X0582624Y0373654D01*
X0583415Y0375566D01*
X0583415Y0416384D01*
X0583284Y0416700D01*
X0601683Y0416700D01*
X0603339Y0415044D01*
X0601965Y0413671D01*
X0601965Y0416418D01*
X0601783Y0416600D02*
X0583326Y0416600D01*
X0586965Y0416700D02*
X0586965Y0193000D01*
X0581965Y0193000D02*
X0581965Y0372996D01*
X0579732Y0371600D02*
X0596855Y0371600D01*
X0596765Y0371816D02*
X0597557Y0369904D01*
X0599020Y0368442D01*
X0600931Y0367650D01*
X0613000Y0367650D01*
X0614911Y0368442D01*
X0616374Y0369904D01*
X0617165Y0371816D01*
X0617165Y0376400D01*
X0634250Y0376400D01*
X0636161Y0377192D01*
X0637624Y0378654D01*
X0638415Y0380566D01*
X0638415Y0421384D01*
X0637624Y0423296D01*
X0636161Y0424758D01*
X0634250Y0425550D01*
X0615931Y0425550D01*
X0614020Y0424758D01*
X0614004Y0424743D01*
X0609948Y0428800D01*
X0603983Y0428800D01*
X0602683Y0427500D01*
X0574748Y0427500D01*
X0568539Y0432100D01*
X0664228Y0432100D01*
X0674765Y0421563D01*
X0674765Y0418618D01*
X0678339Y0415044D01*
X0676965Y0413671D01*
X0676965Y0416418D01*
X0676783Y0416600D02*
X0662260Y0416600D01*
X0662062Y0416943D02*
X0660143Y0418862D01*
X0657793Y0420219D01*
X0655172Y0420921D01*
X0652459Y0420921D01*
X0649838Y0420219D01*
X0647488Y0418862D01*
X0645569Y0416943D01*
X0644212Y0414594D01*
X0643510Y0411972D01*
X0643510Y0409259D01*
X0644212Y0406638D01*
X0645569Y0404288D01*
X0647488Y0402369D01*
X0649838Y0401013D01*
X0652459Y0400310D01*
X0655172Y0400310D01*
X0657793Y0401013D01*
X0660143Y0402369D01*
X0662062Y0404288D01*
X0663419Y0406638D01*
X0664121Y0409259D01*
X0664121Y0411972D01*
X0663419Y0414594D01*
X0662062Y0416943D01*
X0661965Y0417040D02*
X0661965Y0432100D01*
X0664728Y0431600D02*
X0569214Y0431600D01*
X0571965Y0432100D02*
X0571965Y0429562D01*
X0576965Y0427500D02*
X0576965Y0432100D01*
X0581965Y0432100D02*
X0581965Y0427500D01*
X0586965Y0427500D02*
X0586965Y0432100D01*
X0591965Y0432100D02*
X0591965Y0427500D01*
X0596965Y0427500D02*
X0596965Y0432100D01*
X0601965Y0432100D02*
X0601965Y0427500D01*
X0606965Y0428800D02*
X0606965Y0432100D01*
X0611965Y0432100D02*
X0611965Y0426782D01*
X0612148Y0426600D02*
X0669728Y0426600D01*
X0671965Y0424363D02*
X0671965Y0401867D01*
X0671855Y0401600D02*
X0658811Y0401600D01*
X0656965Y0400791D02*
X0656965Y0301600D01*
X0635065Y0301600D01*
X0635065Y0299989D02*
X0635065Y0303211D01*
X0633832Y0306188D01*
X0631553Y0308467D01*
X0628576Y0309700D01*
X0625354Y0309700D01*
X0622377Y0308467D01*
X0620098Y0306188D01*
X0618865Y0303211D01*
X0618865Y0299989D01*
X0620098Y0297012D01*
X0622377Y0294733D01*
X0625354Y0293500D01*
X0628576Y0293500D01*
X0631553Y0294733D01*
X0633832Y0297012D01*
X0635065Y0299989D01*
X0633420Y0296600D02*
X0653809Y0296600D01*
X0653873Y0296554D02*
X0654700Y0296132D01*
X0655584Y0295845D01*
X0656501Y0295700D01*
X0656965Y0295700D01*
X0656965Y0301600D01*
X0656965Y0301600D01*
X0651065Y0301600D01*
X0651065Y0301136D01*
X0651210Y0300218D01*
X0651497Y0299335D01*
X0651919Y0298508D01*
X0652465Y0297756D01*
X0653122Y0297100D01*
X0653873Y0296554D01*
X0651965Y0298444D02*
X0651965Y0291800D01*
X0653000Y0291800D02*
X0610931Y0291800D01*
X0609020Y0291008D01*
X0607557Y0289546D01*
X0606765Y0287634D01*
X0606765Y0273066D01*
X0607557Y0271154D01*
X0609020Y0269692D01*
X0610931Y0268900D01*
X0613000Y0268900D01*
X0653000Y0268900D01*
X0654911Y0269692D01*
X0656374Y0271154D01*
X0657165Y0273066D01*
X0657165Y0287634D01*
X0656374Y0289546D01*
X0654911Y0291008D01*
X0653000Y0291800D01*
X0653482Y0291600D02*
X0675565Y0291600D01*
X0675565Y0296600D02*
X0660121Y0296600D01*
X0660057Y0296554D02*
X0660809Y0297100D01*
X0661465Y0297756D01*
X0662011Y0298508D01*
X0662433Y0299335D01*
X0662720Y0300218D01*
X0662865Y0301136D01*
X0662865Y0301600D01*
X0662865Y0302064D01*
X0662720Y0302982D01*
X0662433Y0303865D01*
X0662011Y0304692D01*
X0661465Y0305444D01*
X0660809Y0306100D01*
X0660057Y0306646D01*
X0659230Y0307068D01*
X0658347Y0307355D01*
X0657430Y0307500D01*
X0656965Y0307500D01*
X0656501Y0307500D01*
X0655584Y0307355D01*
X0654700Y0307068D01*
X0653873Y0306646D01*
X0653122Y0306100D01*
X0652465Y0305444D01*
X0651919Y0304692D01*
X0651497Y0303865D01*
X0651210Y0302982D01*
X0651065Y0302064D01*
X0651065Y0301600D01*
X0656965Y0301600D01*
X0656965Y0307500D01*
X0656965Y0301600D01*
X0656965Y0301600D01*
X0656965Y0301600D01*
X0656965Y0288117D01*
X0657165Y0286600D02*
X0675565Y0286600D01*
X0675565Y0281600D02*
X0657165Y0281600D01*
X0657165Y0276600D02*
X0675565Y0276600D01*
X0675565Y0271600D02*
X0656558Y0271600D01*
X0656965Y0272583D02*
X0656965Y0251867D01*
X0657076Y0251600D02*
X0675565Y0251600D01*
X0675565Y0246600D02*
X0657165Y0246600D01*
X0657165Y0251384D02*
X0657165Y0235566D01*
X0656807Y0234700D01*
X0658576Y0234700D01*
X0661553Y0233467D01*
X0663832Y0231188D01*
X0665065Y0228211D01*
X0665065Y0224989D01*
X0663832Y0222012D01*
X0662170Y0220350D01*
X0663832Y0218688D01*
X0665065Y0215711D01*
X0665065Y0212489D01*
X0663832Y0209512D01*
X0661553Y0207233D01*
X0658576Y0206000D01*
X0655354Y0206000D01*
X0652377Y0207233D01*
X0650098Y0209512D01*
X0648865Y0212489D01*
X0648865Y0215711D01*
X0650098Y0218688D01*
X0651760Y0220350D01*
X0650098Y0222012D01*
X0648865Y0224989D01*
X0648865Y0228211D01*
X0650098Y0231188D01*
X0650310Y0231400D01*
X0633620Y0231400D01*
X0633832Y0231188D01*
X0635065Y0228211D01*
X0635065Y0224989D01*
X0633832Y0222012D01*
X0632170Y0220350D01*
X0633832Y0218688D01*
X0635065Y0215711D01*
X0635065Y0212489D01*
X0633832Y0209512D01*
X0631553Y0207233D01*
X0628576Y0206000D01*
X0625354Y0206000D01*
X0622377Y0207233D01*
X0620098Y0209512D01*
X0618865Y0212489D01*
X0618865Y0215711D01*
X0620098Y0218688D01*
X0621760Y0220350D01*
X0620098Y0222012D01*
X0618865Y0224989D01*
X0618865Y0228211D01*
X0620098Y0231188D01*
X0620310Y0231400D01*
X0610931Y0231400D01*
X0609020Y0232192D01*
X0607557Y0233654D01*
X0606765Y0235566D01*
X0606765Y0251384D01*
X0607557Y0253296D01*
X0609020Y0254758D01*
X0610931Y0255550D01*
X0650931Y0255550D01*
X0653000Y0255550D01*
X0654911Y0254758D01*
X0656374Y0253296D01*
X0657165Y0251384D01*
X0651965Y0255550D02*
X0651965Y0268900D01*
X0646965Y0268900D02*
X0646965Y0255550D01*
X0641965Y0255550D02*
X0641965Y0268900D01*
X0636965Y0268900D02*
X0636965Y0255550D01*
X0631965Y0255550D02*
X0631965Y0268900D01*
X0626965Y0268900D02*
X0626965Y0255550D01*
X0621965Y0255550D02*
X0621965Y0268900D01*
X0616965Y0268900D02*
X0616965Y0255550D01*
X0611965Y0255550D02*
X0611965Y0268900D01*
X0607372Y0271600D02*
X0563165Y0271600D01*
X0563165Y0276600D02*
X0606765Y0276600D01*
X0606965Y0272583D02*
X0606965Y0251867D01*
X0606855Y0251600D02*
X0540135Y0251600D01*
X0541965Y0252834D02*
X0541965Y0193000D01*
X0536965Y0193000D02*
X0536965Y0249462D01*
X0535065Y0246600D02*
X0606765Y0246600D01*
X0606765Y0241600D02*
X0535065Y0241600D01*
X0535065Y0236600D02*
X0606765Y0236600D01*
X0606965Y0235083D02*
X0606965Y0193000D01*
X0601965Y0193000D02*
X0601965Y0367650D01*
X0606965Y0367650D02*
X0606965Y0288117D01*
X0606765Y0286600D02*
X0563165Y0286600D01*
X0563165Y0281600D02*
X0606765Y0281600D01*
X0610448Y0291600D02*
X0563165Y0291600D01*
X0563165Y0296600D02*
X0620510Y0296600D01*
X0621965Y0295145D02*
X0621965Y0291800D01*
X0616965Y0291800D02*
X0616965Y0371333D01*
X0617076Y0371600D02*
X0671855Y0371600D01*
X0671765Y0371816D02*
X0672557Y0369904D01*
X0674020Y0368442D01*
X0675931Y0367650D01*
X0671965Y0371333D02*
X0671965Y0205651D01*
X0672914Y0206600D02*
X0660025Y0206600D01*
X0661965Y0207645D02*
X0661965Y0195651D01*
X0662914Y0196600D02*
X0532313Y0196600D01*
X0532433Y0196835D02*
X0532720Y0197718D01*
X0532865Y0198636D01*
X0532865Y0199100D01*
X0532865Y0199564D01*
X0532720Y0200482D01*
X0532433Y0201365D01*
X0532011Y0202192D01*
X0531465Y0202944D01*
X0530809Y0203600D01*
X0530057Y0204146D01*
X0529230Y0204568D01*
X0528347Y0204855D01*
X0527430Y0205000D01*
X0526965Y0205000D01*
X0526501Y0205000D01*
X0525584Y0204855D01*
X0524700Y0204568D01*
X0523873Y0204146D01*
X0523122Y0203600D01*
X0522465Y0202944D01*
X0521965Y0202256D01*
X0521965Y0199100D02*
X0521965Y0199100D01*
X0521065Y0199100D02*
X0526965Y0199100D01*
X0526965Y0199100D01*
X0516965Y0199100D01*
X0516965Y0193000D01*
X0516965Y0193200D02*
X0517430Y0193200D01*
X0518347Y0193345D01*
X0519230Y0193632D01*
X0520057Y0194054D01*
X0520809Y0194600D01*
X0521465Y0195256D01*
X0521965Y0195944D01*
X0521965Y0193000D01*
X0523122Y0194600D02*
X0523873Y0194054D01*
X0524700Y0193632D01*
X0525584Y0193345D01*
X0526501Y0193200D01*
X0526965Y0193200D01*
X0526965Y0199100D01*
X0526965Y0205000D01*
X0526965Y0199100D01*
X0526965Y0199100D01*
X0526965Y0199100D01*
X0526965Y0231000D01*
X0523610Y0231000D02*
X0521965Y0232645D01*
X0530920Y0231600D02*
X0610448Y0231600D01*
X0611965Y0231400D02*
X0611965Y0193000D01*
X0616965Y0193000D02*
X0616965Y0231400D01*
X0618865Y0226600D02*
X0494319Y0226600D01*
X0491965Y0225239D02*
X0491965Y0193000D01*
X0486965Y0193000D02*
X0486965Y0225150D01*
X0481965Y0225150D02*
X0481965Y0193000D01*
X0476965Y0193000D02*
X0476965Y0225150D01*
X0471965Y0225150D02*
X0471965Y0193000D01*
X0466965Y0193000D02*
X0466965Y0225150D01*
X0461965Y0225150D02*
X0461965Y0193000D01*
X0456965Y0193000D02*
X0456965Y0225150D01*
X0451965Y0225150D02*
X0451965Y0193000D01*
X0446965Y0193000D02*
X0446965Y0228833D01*
X0448361Y0226600D02*
X0435308Y0226600D01*
X0431965Y0223989D02*
X0431965Y0193000D01*
X0426965Y0193000D02*
X0426965Y0223900D01*
X0421965Y0223900D02*
X0421965Y0193000D01*
X0416965Y0193000D02*
X0416965Y0223900D01*
X0411965Y0223900D02*
X0411965Y0193000D01*
X0406965Y0193000D02*
X0406965Y0223900D01*
X0401965Y0223900D02*
X0401965Y0193000D01*
X0396965Y0193000D02*
X0396965Y0223900D01*
X0391965Y0223900D02*
X0391965Y0193000D01*
X0386965Y0193000D02*
X0386965Y0227583D01*
X0387372Y0226600D02*
X0376558Y0226600D01*
X0376965Y0227583D02*
X0376965Y0193000D01*
X0371965Y0193000D02*
X0371965Y0223900D01*
X0366965Y0223900D02*
X0366965Y0193000D01*
X0361965Y0193000D02*
X0361965Y0223900D01*
X0356965Y0223900D02*
X0356965Y0193000D01*
X0351965Y0193000D02*
X0351965Y0223900D01*
X0336965Y0223900D02*
X0336965Y0205651D01*
X0336016Y0206600D02*
X0623905Y0206600D01*
X0621965Y0207645D02*
X0621965Y0193000D01*
X0626965Y0193000D02*
X0626965Y0206000D01*
X0630025Y0206600D02*
X0653905Y0206600D01*
X0651965Y0207645D02*
X0651965Y0193000D01*
X0646965Y0193000D02*
X0646965Y0231400D01*
X0641965Y0231400D02*
X0641965Y0193000D01*
X0636965Y0193000D02*
X0636965Y0231400D01*
X0635065Y0226600D02*
X0648865Y0226600D01*
X0650510Y0221600D02*
X0633420Y0221600D01*
X0634697Y0216600D02*
X0649233Y0216600D01*
X0649233Y0211600D02*
X0634697Y0211600D01*
X0631965Y0207645D02*
X0631965Y0193000D01*
X0631965Y0180200D02*
X0631965Y0116000D01*
X0626965Y0116000D02*
X0626965Y0180200D01*
X0621965Y0180200D02*
X0621965Y0116000D01*
X0616965Y0116000D02*
X0616965Y0180200D01*
X0611965Y0180200D02*
X0611965Y0116000D01*
X0606965Y0116000D02*
X0606965Y0180200D01*
X0601965Y0180200D02*
X0601965Y0116000D01*
X0596965Y0116000D02*
X0596965Y0180200D01*
X0591965Y0180200D02*
X0591965Y0116000D01*
X0586965Y0116000D02*
X0586965Y0180200D01*
X0581965Y0180200D02*
X0581965Y0116000D01*
X0576965Y0116000D02*
X0576965Y0180200D01*
X0571965Y0180200D02*
X0571965Y0116000D01*
X0566965Y0116000D02*
X0566965Y0180200D01*
X0561965Y0180200D02*
X0561965Y0116000D01*
X0556965Y0116000D02*
X0556965Y0180200D01*
X0551965Y0180200D02*
X0551965Y0116000D01*
X0546965Y0116000D02*
X0546965Y0180200D01*
X0541965Y0180200D02*
X0541965Y0116000D01*
X0536965Y0116000D02*
X0536965Y0180200D01*
X0531965Y0180200D02*
X0531965Y0116000D01*
X0526965Y0116000D02*
X0526965Y0180200D01*
X0521965Y0180200D02*
X0521965Y0116000D01*
X0516965Y0116000D02*
X0516965Y0180200D01*
X0511965Y0180200D02*
X0511965Y0116000D01*
X0506965Y0116000D02*
X0506965Y0118450D01*
X0501965Y0118450D02*
X0501965Y0116000D01*
X0496965Y0116000D02*
X0496965Y0118450D01*
X0491965Y0118450D02*
X0491965Y0116000D01*
X0486965Y0116000D02*
X0486965Y0118450D01*
X0481965Y0118431D02*
X0481965Y0116000D01*
X0476965Y0116000D02*
X0476965Y0122831D01*
X0477581Y0121600D02*
X0475763Y0121600D01*
X0471965Y0118450D02*
X0471965Y0116000D01*
X0466965Y0116000D02*
X0466965Y0118450D01*
X0461965Y0116951D02*
X0461965Y0116000D01*
X0451965Y0116000D02*
X0451965Y0118450D01*
X0446965Y0118450D02*
X0446965Y0116000D01*
X0441965Y0116000D02*
X0441965Y0118450D01*
X0436965Y0118450D02*
X0436965Y0116000D01*
X0431965Y0116000D02*
X0431965Y0118450D01*
X0426965Y0118450D02*
X0426965Y0116000D01*
X0421965Y0116000D02*
X0421965Y0118450D01*
X0416965Y0118450D02*
X0416965Y0116000D01*
X0411965Y0116000D02*
X0411965Y0118450D01*
X0406965Y0118450D02*
X0406965Y0116000D01*
X0401965Y0116000D02*
X0401965Y0118450D01*
X0396965Y0118450D02*
X0396965Y0116000D01*
X0391965Y0116000D02*
X0391965Y0120932D01*
X0391688Y0121600D02*
X0391516Y0121600D01*
X0389108Y0119166D02*
X0389108Y0119166D01*
X0386965Y0118450D02*
X0386965Y0116000D01*
X0381965Y0116000D02*
X0381965Y0118877D01*
X0376965Y0118450D02*
X0376965Y0116000D01*
X0371965Y0116000D02*
X0371965Y0118450D01*
X0366965Y0118450D02*
X0366965Y0116000D01*
X0361965Y0116000D02*
X0361965Y0118450D01*
X0356965Y0118450D02*
X0356965Y0116000D01*
X0351965Y0116000D02*
X0351965Y0118456D01*
X0346965Y0120646D02*
X0346965Y0116000D01*
X0341965Y0116000D02*
X0341965Y0182549D01*
X0342914Y0181600D02*
X0334697Y0181600D01*
X0335065Y0180711D02*
X0333832Y0183688D01*
X0331553Y0185967D01*
X0328576Y0187200D01*
X0325354Y0187200D01*
X0322377Y0185967D01*
X0320346Y0183936D01*
X0320057Y0184146D01*
X0319230Y0184568D01*
X0318347Y0184855D01*
X0317430Y0185000D01*
X0316965Y0185000D01*
X0316501Y0185000D01*
X0315584Y0184855D01*
X0314700Y0184568D01*
X0313873Y0184146D01*
X0313122Y0183600D01*
X0312465Y0182944D01*
X0311965Y0182256D01*
X0311965Y0227583D01*
X0311558Y0226600D02*
X0328622Y0226600D01*
X0331965Y0223989D02*
X0331965Y0212600D01*
X0332965Y0211600D02*
X0619233Y0211600D01*
X0619233Y0216600D02*
X0136365Y0216600D01*
X0136365Y0221600D02*
X0620510Y0221600D01*
X0596965Y0193000D02*
X0596965Y0371333D01*
X0596765Y0371816D02*
X0596765Y0401384D01*
X0597557Y0403296D01*
X0599020Y0404758D01*
X0600931Y0405550D01*
X0611765Y0405550D01*
X0611765Y0409329D01*
X0609036Y0406600D01*
X0611765Y0406600D01*
X0609036Y0406600D02*
X0606965Y0406600D01*
X0606965Y0406600D01*
X0606965Y0411600D01*
X0583415Y0411600D01*
X0583415Y0406600D02*
X0604894Y0406600D01*
X0606965Y0406600D01*
X0606965Y0411600D01*
X0606965Y0411600D01*
X0601965Y0411600D01*
X0601965Y0411600D01*
X0601965Y0409529D01*
X0601965Y0405550D01*
X0604894Y0406600D02*
X0601965Y0409529D01*
X0601965Y0411600D02*
X0606965Y0411600D01*
X0606965Y0411600D01*
X0606965Y0405550D01*
X0601965Y0411600D02*
X0601965Y0413671D01*
X0596965Y0416700D02*
X0596965Y0401867D01*
X0596855Y0401600D02*
X0583415Y0401600D01*
X0583415Y0396600D02*
X0596765Y0396600D01*
X0596765Y0391600D02*
X0583415Y0391600D01*
X0583415Y0386600D02*
X0596765Y0386600D01*
X0596765Y0381600D02*
X0583415Y0381600D01*
X0583415Y0376600D02*
X0596765Y0376600D01*
X0611965Y0367650D02*
X0611965Y0291800D01*
X0618865Y0301600D02*
X0563165Y0301600D01*
X0563165Y0306600D02*
X0620510Y0306600D01*
X0621965Y0308055D02*
X0621965Y0376400D01*
X0626965Y0376400D02*
X0626965Y0309700D01*
X0631965Y0308055D02*
X0631965Y0376400D01*
X0634732Y0376600D02*
X0671765Y0376600D01*
X0671765Y0371816D02*
X0671765Y0401384D01*
X0672557Y0403296D01*
X0674020Y0404758D01*
X0675931Y0405550D01*
X0686765Y0405550D01*
X0686765Y0409329D01*
X0684036Y0406600D01*
X0686765Y0406600D01*
X0684036Y0406600D02*
X0681965Y0406600D01*
X0681965Y0406600D01*
X0681965Y0411600D01*
X0664121Y0411600D01*
X0663397Y0406600D02*
X0679894Y0406600D01*
X0681965Y0406600D01*
X0681965Y0411600D01*
X0681965Y0411600D01*
X0676965Y0411600D01*
X0676965Y0411600D01*
X0676965Y0409529D01*
X0676965Y0405550D01*
X0679894Y0406600D02*
X0676965Y0409529D01*
X0676965Y0411600D02*
X0681965Y0411600D01*
X0681965Y0411600D01*
X0681965Y0405550D01*
X0676965Y0411600D02*
X0676965Y0413671D01*
X0661965Y0404191D02*
X0661965Y0304756D01*
X0660121Y0306600D02*
X0675565Y0306600D01*
X0675565Y0301600D02*
X0656965Y0301600D01*
X0656965Y0295700D01*
X0657430Y0295700D01*
X0658347Y0295845D01*
X0659230Y0296132D01*
X0660057Y0296554D01*
X0661965Y0298444D02*
X0661965Y0233055D01*
X0663420Y0231600D02*
X0675565Y0231600D01*
X0675565Y0226600D02*
X0665065Y0226600D01*
X0663420Y0221600D02*
X0675565Y0221600D01*
X0675565Y0216600D02*
X0664697Y0216600D01*
X0664697Y0211600D02*
X0675565Y0211600D01*
X0675565Y0211200D02*
X0674187Y0209822D01*
X0674187Y0207873D01*
X0659314Y0193000D01*
X0349616Y0193000D01*
X0334743Y0207873D01*
X0334743Y0209822D01*
X0330187Y0214378D01*
X0323743Y0214378D01*
X0319187Y0209822D01*
X0319187Y0203378D01*
X0323743Y0198822D01*
X0325692Y0198822D01*
X0343340Y0181174D01*
X0345692Y0180200D01*
X0663238Y0180200D01*
X0665591Y0181174D01*
X0667391Y0182975D01*
X0683238Y0198822D01*
X0685187Y0198822D01*
X0689743Y0203378D01*
X0689743Y0209822D01*
X0688365Y0211200D01*
X0688365Y0317000D01*
X0689743Y0318378D01*
X0689743Y0324822D01*
X0685187Y0329378D01*
X0678743Y0329378D01*
X0674187Y0324822D01*
X0674187Y0318378D01*
X0675565Y0317000D01*
X0675565Y0211200D01*
X0667914Y0201600D02*
X0532313Y0201600D01*
X0531965Y0202256D02*
X0531965Y0232645D01*
X0521965Y0255555D02*
X0520320Y0257200D01*
X0520920Y0256600D02*
X0523010Y0256600D01*
X0526965Y0257200D02*
X0526965Y0267725D01*
X0531965Y0267500D02*
X0531965Y0259117D01*
X0535648Y0261600D02*
X0502148Y0261600D01*
X0501965Y0261782D02*
X0501965Y0272646D01*
X0503011Y0271600D02*
X0402639Y0271600D01*
X0402758Y0271682D02*
X0403034Y0272107D01*
X0403393Y0272466D01*
X0403614Y0272999D01*
X0403928Y0273483D01*
X0404021Y0273982D01*
X0404215Y0274451D01*
X0404215Y0275028D01*
X0404321Y0275595D01*
X0404215Y0276092D01*
X0404215Y0314850D01*
X0406168Y0312897D01*
X0410515Y0312897D01*
X0410515Y0290566D01*
X0411307Y0288654D01*
X0412770Y0287192D01*
X0414681Y0286400D01*
X0433000Y0286400D01*
X0434911Y0287192D01*
X0436374Y0288654D01*
X0437165Y0290566D01*
X0437165Y0331384D01*
X0436374Y0333296D01*
X0434911Y0334758D01*
X0433000Y0335550D01*
X0428888Y0335550D01*
X0429872Y0336100D01*
X0465466Y0336100D01*
X0467843Y0333722D01*
X0474287Y0333722D01*
X0478843Y0338278D01*
X0478843Y0344722D01*
X0478843Y0341600D02*
X0489611Y0341600D01*
X0491965Y0339246D02*
X0491965Y0261782D01*
X0491783Y0261600D02*
X0480915Y0261600D01*
X0480915Y0262634D02*
X0480124Y0264546D01*
X0478661Y0266008D01*
X0476750Y0266800D01*
X0447181Y0266800D01*
X0445270Y0266008D01*
X0443807Y0264546D01*
X0443015Y0262634D01*
X0443015Y0260732D01*
X0439948Y0263800D01*
X0433983Y0263800D01*
X0430410Y0260227D01*
X0429036Y0261600D01*
X0426965Y0261600D01*
X0424894Y0261600D01*
X0421965Y0258671D01*
X0421965Y0286400D01*
X0416965Y0286400D02*
X0416965Y0266711D01*
X0416750Y0266800D02*
X0395649Y0266800D01*
X0401405Y0270753D01*
X0401874Y0270947D01*
X0402282Y0271355D01*
X0402758Y0271682D01*
X0401965Y0271038D02*
X0401965Y0266800D01*
X0396965Y0266800D02*
X0396965Y0267704D01*
X0406965Y0266800D02*
X0406965Y0312897D01*
X0404215Y0311600D02*
X0410515Y0311600D01*
X0410515Y0306600D02*
X0404215Y0306600D01*
X0404215Y0301600D02*
X0410515Y0301600D01*
X0410515Y0296600D02*
X0404215Y0296600D01*
X0404215Y0291600D02*
X0410515Y0291600D01*
X0411965Y0287996D02*
X0411965Y0266800D01*
X0416750Y0266800D02*
X0418661Y0266008D01*
X0420124Y0264546D01*
X0420915Y0262634D01*
X0420915Y0250566D01*
X0420909Y0250550D01*
X0431750Y0250550D01*
X0433599Y0249784D01*
X0430410Y0252973D01*
X0429036Y0251600D01*
X0431783Y0251600D01*
X0431965Y0251418D02*
X0431965Y0250461D01*
X0429036Y0251600D02*
X0426965Y0251600D01*
X0426965Y0251600D01*
X0426965Y0256600D01*
X0420915Y0256600D01*
X0421965Y0256600D02*
X0421965Y0256600D01*
X0421965Y0254529D01*
X0421965Y0250550D01*
X0420915Y0251600D02*
X0424894Y0251600D01*
X0426965Y0251600D01*
X0426965Y0256600D01*
X0426965Y0256600D01*
X0421965Y0256600D01*
X0426965Y0256600D01*
X0426965Y0261600D01*
X0426965Y0256600D01*
X0426965Y0256600D01*
X0426965Y0256600D01*
X0426965Y0286400D01*
X0431965Y0286400D02*
X0431965Y0261782D01*
X0431783Y0261600D02*
X0420915Y0261600D01*
X0421965Y0258671D02*
X0421965Y0256600D01*
X0421965Y0254529D02*
X0424894Y0251600D01*
X0426965Y0250550D02*
X0426965Y0256600D01*
X0436965Y0263800D02*
X0436965Y0290083D01*
X0437165Y0291600D02*
X0496765Y0291600D01*
X0496765Y0296600D02*
X0437165Y0296600D01*
X0437165Y0301600D02*
X0496765Y0301600D01*
X0496765Y0306600D02*
X0437165Y0306600D01*
X0437165Y0311600D02*
X0496765Y0311600D01*
X0496765Y0316600D02*
X0437165Y0316600D01*
X0437165Y0321600D02*
X0496765Y0321600D01*
X0496765Y0326600D02*
X0437165Y0326600D01*
X0437076Y0331600D02*
X0496765Y0331600D01*
X0494611Y0336600D02*
X0477165Y0336600D01*
X0476965Y0336400D02*
X0476965Y0266711D01*
X0477232Y0266600D02*
X0535666Y0266600D01*
X0536965Y0265300D02*
X0536965Y0262488D01*
X0546965Y0256205D02*
X0546965Y0193000D01*
X0551965Y0193000D02*
X0551965Y0259576D01*
X0554966Y0261600D02*
X0675565Y0261600D01*
X0675565Y0256600D02*
X0547551Y0256600D01*
X0556965Y0262948D02*
X0556965Y0193000D01*
X0561965Y0193000D02*
X0561965Y0266562D01*
X0562002Y0266600D02*
X0675565Y0266600D01*
X0688365Y0266600D02*
X0700515Y0266600D01*
X0700515Y0271600D02*
X0688365Y0271600D01*
X0688365Y0276600D02*
X0700515Y0276600D01*
X0700515Y0281600D02*
X0688365Y0281600D01*
X0688365Y0286600D02*
X0700515Y0286600D01*
X0701122Y0291600D02*
X0688365Y0291600D01*
X0688365Y0296600D02*
X0737801Y0296600D01*
X0736965Y0294300D02*
X0736965Y0501216D01*
X0737801Y0496600D02*
X0622165Y0496600D01*
X0622165Y0491600D02*
X0737801Y0491600D01*
X0737801Y0486600D02*
X0622165Y0486600D01*
X0622165Y0481600D02*
X0737801Y0481600D01*
X0737801Y0476600D02*
X0622165Y0476600D01*
X0622165Y0471600D02*
X0737801Y0471600D01*
X0737801Y0466600D02*
X0622165Y0466600D01*
X0622165Y0461600D02*
X0737801Y0461600D01*
X0737801Y0456600D02*
X0622165Y0456600D01*
X0622165Y0451600D02*
X0737801Y0451600D01*
X0737801Y0446600D02*
X0618482Y0446600D01*
X0616965Y0446400D02*
X0616965Y0442900D01*
X0611965Y0442900D02*
X0611965Y0446400D01*
X0606965Y0446400D02*
X0606965Y0442900D01*
X0601965Y0442900D02*
X0601965Y0446400D01*
X0596965Y0446400D02*
X0596965Y0442900D01*
X0591965Y0442900D02*
X0591965Y0446400D01*
X0586965Y0446400D02*
X0586965Y0442900D01*
X0581965Y0442900D02*
X0581965Y0446400D01*
X0576965Y0446400D02*
X0576965Y0442900D01*
X0571965Y0442900D02*
X0571965Y0446400D01*
X0566965Y0446400D02*
X0566965Y0444088D01*
X0552110Y0441800D02*
X0548515Y0441800D01*
X0546137Y0444178D01*
X0539693Y0444178D01*
X0535137Y0439622D01*
X0535137Y0433178D01*
X0539693Y0428622D01*
X0546137Y0428622D01*
X0548515Y0431000D01*
X0551883Y0431000D01*
X0554852Y0428800D01*
X0548983Y0428800D01*
X0544765Y0424582D01*
X0544765Y0418618D01*
X0548339Y0415044D01*
X0546965Y0413671D01*
X0546965Y0416418D01*
X0546783Y0416600D02*
X0489602Y0416600D01*
X0491965Y0414237D02*
X0491965Y0446400D01*
X0486965Y0446400D02*
X0486965Y0419237D01*
X0484602Y0421600D02*
X0544765Y0421600D01*
X0546783Y0426600D02*
X0480065Y0426600D01*
X0480065Y0426137D02*
X0480065Y0428211D01*
X0478832Y0431188D01*
X0476553Y0433467D01*
X0473576Y0434700D01*
X0470354Y0434700D01*
X0467377Y0433467D01*
X0465098Y0431188D01*
X0463865Y0428211D01*
X0463865Y0424989D01*
X0465098Y0422012D01*
X0467377Y0419733D01*
X0470354Y0418500D01*
X0472428Y0418500D01*
X0488706Y0402222D01*
X0490691Y0401400D01*
X0490866Y0401400D01*
X0493243Y0399022D01*
X0499687Y0399022D01*
X0504243Y0403578D01*
X0504243Y0410022D01*
X0499687Y0414578D01*
X0493243Y0414578D01*
X0492434Y0413768D01*
X0480065Y0426137D01*
X0481965Y0424237D02*
X0481965Y0446400D01*
X0476965Y0446400D02*
X0476965Y0433055D01*
X0478420Y0431600D02*
X0536716Y0431600D01*
X0536965Y0431350D02*
X0536965Y0378059D01*
X0539099Y0376600D02*
X0541765Y0376600D01*
X0541765Y0374778D02*
X0533943Y0380124D01*
X0533943Y0382122D01*
X0529387Y0386678D01*
X0522943Y0386678D01*
X0518387Y0382122D01*
X0518387Y0377200D01*
X0515354Y0377200D01*
X0512377Y0375967D01*
X0510098Y0373688D01*
X0508865Y0370711D01*
X0508865Y0368954D01*
X0502411Y0362500D01*
X0432816Y0362500D01*
X0431553Y0363762D01*
X0428576Y0364995D01*
X0425354Y0364995D01*
X0422377Y0363762D01*
X0420098Y0361484D01*
X0418865Y0358506D01*
X0418865Y0355300D01*
X0409519Y0355300D01*
X0405474Y0359346D01*
X0404183Y0360636D01*
X0403832Y0361484D01*
X0402318Y0362998D01*
X0403832Y0364512D01*
X0405065Y0367489D01*
X0405065Y0370711D01*
X0403832Y0373688D01*
X0401553Y0375967D01*
X0398576Y0377200D01*
X0395354Y0377200D01*
X0392377Y0375967D01*
X0391965Y0375555D01*
X0391553Y0375967D01*
X0388576Y0377200D01*
X0385354Y0377200D01*
X0382377Y0375967D01*
X0381965Y0375555D01*
X0381553Y0375967D01*
X0378576Y0377200D01*
X0375354Y0377200D01*
X0372377Y0375967D01*
X0371965Y0375555D01*
X0371553Y0375967D01*
X0368576Y0377200D01*
X0365354Y0377200D01*
X0362377Y0375967D01*
X0361965Y0375555D01*
X0361553Y0375967D01*
X0358576Y0377200D01*
X0355354Y0377200D01*
X0352377Y0375967D01*
X0351965Y0375555D01*
X0351553Y0375967D01*
X0348576Y0377200D01*
X0345354Y0377200D01*
X0342377Y0375967D01*
X0341965Y0375555D01*
X0341553Y0375967D01*
X0338576Y0377200D01*
X0335354Y0377200D01*
X0332377Y0375967D01*
X0331965Y0375555D01*
X0331965Y0389013D01*
X0329552Y0386600D02*
X0522866Y0386600D01*
X0521965Y0385700D02*
X0521965Y0450083D01*
X0522165Y0450566D02*
X0522165Y0461122D01*
X0524887Y0461122D01*
X0525641Y0461876D01*
X0552110Y0441800D01*
X0551965Y0441800D02*
X0551965Y0441910D01*
X0546965Y0443350D02*
X0546965Y0445702D01*
X0545781Y0446600D02*
X0518482Y0446600D01*
X0518000Y0446400D02*
X0519911Y0447192D01*
X0521374Y0448654D01*
X0522165Y0450566D01*
X0522165Y0451600D02*
X0539189Y0451600D01*
X0536965Y0453287D02*
X0536965Y0441450D01*
X0537116Y0441600D02*
X0451915Y0441600D01*
X0451915Y0446400D02*
X0518000Y0446400D01*
X0516965Y0446400D02*
X0516965Y0377200D01*
X0513906Y0376600D02*
X0400025Y0376600D01*
X0401965Y0375555D02*
X0401965Y0414365D01*
X0402150Y0414249D02*
X0402925Y0414119D01*
X0403671Y0413873D01*
X0404154Y0413909D01*
X0403865Y0413211D01*
X0403865Y0409989D01*
X0405098Y0407012D01*
X0407377Y0404733D01*
X0410354Y0403500D01*
X0413576Y0403500D01*
X0416553Y0404733D01*
X0418832Y0407012D01*
X0420065Y0409989D01*
X0420065Y0413211D01*
X0418832Y0416188D01*
X0417781Y0417240D01*
X0417914Y0417363D01*
X0418567Y0417802D01*
X0418842Y0418217D01*
X0418931Y0418299D01*
X0419368Y0418540D01*
X0419859Y0419154D01*
X0420437Y0419687D01*
X0420647Y0420139D01*
X0420723Y0420233D01*
X0421118Y0420537D01*
X0421510Y0421218D01*
X0422002Y0421833D01*
X0422140Y0422311D01*
X0422201Y0422416D01*
X0422546Y0422776D01*
X0422831Y0423509D01*
X0423223Y0424190D01*
X0423288Y0424684D01*
X0423332Y0424798D01*
X0423618Y0425205D01*
X0423790Y0425973D01*
X0423865Y0426167D01*
X0423865Y0424989D01*
X0425098Y0422012D01*
X0426565Y0420545D01*
X0426565Y0410526D01*
X0427387Y0408541D01*
X0438487Y0397441D01*
X0440006Y0395922D01*
X0441991Y0395100D01*
X0465466Y0395100D01*
X0467843Y0392722D01*
X0474287Y0392722D01*
X0478843Y0397278D01*
X0478843Y0403722D01*
X0474287Y0408278D01*
X0467843Y0408278D01*
X0465466Y0405900D01*
X0457720Y0405900D01*
X0458832Y0407012D01*
X0460065Y0409989D01*
X0460065Y0413211D01*
X0458832Y0416188D01*
X0456553Y0418467D01*
X0455168Y0419041D01*
X0451915Y0424308D01*
X0451915Y0446400D01*
X0451965Y0446400D02*
X0451965Y0424227D01*
X0451915Y0426600D02*
X0463865Y0426600D01*
X0465510Y0431600D02*
X0451915Y0431600D01*
X0451915Y0436600D02*
X0535137Y0436600D01*
X0541965Y0444178D02*
X0541965Y0449494D01*
X0532597Y0456600D02*
X0522165Y0456600D01*
X0525365Y0461600D02*
X0526004Y0461600D01*
X0526965Y0460871D02*
X0526965Y0386678D01*
X0529465Y0386600D02*
X0541765Y0386600D01*
X0541765Y0381600D02*
X0533943Y0381600D01*
X0531965Y0384100D02*
X0531965Y0457079D01*
X0511965Y0446400D02*
X0511965Y0375555D01*
X0509233Y0371600D02*
X0404697Y0371600D01*
X0404697Y0366600D02*
X0506511Y0366600D01*
X0506965Y0367054D02*
X0506965Y0446400D01*
X0501965Y0446400D02*
X0501965Y0412300D01*
X0502665Y0411600D02*
X0551965Y0411600D01*
X0551965Y0411600D01*
X0546965Y0411600D01*
X0546965Y0411600D01*
X0546965Y0409529D01*
X0546965Y0405550D01*
X0545931Y0405550D02*
X0544020Y0404758D01*
X0542557Y0403296D01*
X0541765Y0401384D01*
X0541765Y0374778D01*
X0553729Y0366600D02*
X0737801Y0366600D01*
X0737801Y0361600D02*
X0561102Y0361600D01*
X0561965Y0360745D02*
X0561965Y0371333D01*
X0566965Y0371400D02*
X0566965Y0193000D01*
X0571965Y0193000D02*
X0571965Y0371400D01*
X0576965Y0371400D02*
X0576965Y0193000D01*
X0591965Y0193000D02*
X0591965Y0416700D01*
X0616965Y0425550D02*
X0616965Y0432100D01*
X0621965Y0432100D02*
X0621965Y0425550D01*
X0626965Y0425550D02*
X0626965Y0432100D01*
X0631965Y0432100D02*
X0631965Y0425550D01*
X0636965Y0423954D02*
X0636965Y0432100D01*
X0641965Y0432100D02*
X0641965Y0291800D01*
X0636965Y0291800D02*
X0636965Y0377996D01*
X0638415Y0381600D02*
X0671765Y0381600D01*
X0671765Y0386600D02*
X0638415Y0386600D01*
X0638415Y0391600D02*
X0671765Y0391600D01*
X0671765Y0396600D02*
X0638415Y0396600D01*
X0638415Y0401600D02*
X0648820Y0401600D01*
X0646965Y0402892D02*
X0646965Y0291800D01*
X0651965Y0301600D02*
X0651965Y0301600D01*
X0651965Y0304756D02*
X0651965Y0400443D01*
X0644234Y0406600D02*
X0638415Y0406600D01*
X0638415Y0411600D02*
X0643510Y0411600D01*
X0645371Y0416600D02*
X0638415Y0416600D01*
X0638326Y0421600D02*
X0674728Y0421600D01*
X0681965Y0429637D02*
X0681965Y0501214D01*
X0676965Y0501214D02*
X0676965Y0434637D01*
X0675002Y0436600D02*
X0737801Y0436600D01*
X0737801Y0431600D02*
X0680002Y0431600D01*
X0686965Y0426782D02*
X0686965Y0501214D01*
X0691965Y0501214D02*
X0691965Y0425550D01*
X0687148Y0426600D02*
X0737801Y0426600D01*
X0737801Y0421600D02*
X0713326Y0421600D01*
X0711965Y0423954D02*
X0711965Y0501215D01*
X0706965Y0501215D02*
X0706965Y0425550D01*
X0701965Y0425550D02*
X0701965Y0501214D01*
X0696965Y0501214D02*
X0696965Y0425550D01*
X0713415Y0416600D02*
X0737801Y0416600D01*
X0737801Y0411600D02*
X0713415Y0411600D01*
X0713415Y0406600D02*
X0737801Y0406600D01*
X0737801Y0401600D02*
X0713415Y0401600D01*
X0713415Y0396600D02*
X0737801Y0396600D01*
X0737801Y0391600D02*
X0713415Y0391600D01*
X0713415Y0386600D02*
X0737801Y0386600D01*
X0737801Y0381600D02*
X0713415Y0381600D01*
X0711965Y0377996D02*
X0711965Y0294300D01*
X0706965Y0294300D02*
X0706965Y0376400D01*
X0709732Y0376600D02*
X0737801Y0376600D01*
X0737801Y0371600D02*
X0692076Y0371600D01*
X0691965Y0371333D02*
X0691965Y0116000D01*
X0686965Y0116000D02*
X0686965Y0200600D01*
X0687965Y0201600D02*
X0700515Y0201600D01*
X0700515Y0206600D02*
X0689743Y0206600D01*
X0688365Y0211600D02*
X0701122Y0211600D01*
X0701965Y0212704D02*
X0701965Y0226746D01*
X0702111Y0226600D02*
X0688365Y0226600D01*
X0688365Y0221600D02*
X0737801Y0221600D01*
X0736965Y0225150D02*
X0736965Y0214300D01*
X0737801Y0216600D02*
X0688365Y0216600D01*
X0706965Y0214300D02*
X0706965Y0225150D01*
X0711965Y0225150D02*
X0711965Y0214300D01*
X0716965Y0214300D02*
X0716965Y0225150D01*
X0721965Y0225150D02*
X0721965Y0214300D01*
X0726965Y0214300D02*
X0726965Y0225150D01*
X0731965Y0225150D02*
X0731965Y0214300D01*
X0700515Y0231600D02*
X0688365Y0231600D01*
X0688365Y0236600D02*
X0700515Y0236600D01*
X0700515Y0241600D02*
X0688365Y0241600D01*
X0688365Y0246600D02*
X0700515Y0246600D01*
X0700515Y0251600D02*
X0688365Y0251600D01*
X0688365Y0256600D02*
X0700515Y0256600D01*
X0700515Y0261600D02*
X0688365Y0261600D01*
X0675565Y0241600D02*
X0657165Y0241600D01*
X0657165Y0236600D02*
X0675565Y0236600D01*
X0656965Y0235083D02*
X0656965Y0234700D01*
X0656965Y0206000D02*
X0656965Y0193000D01*
X0666965Y0200651D02*
X0666965Y0429363D01*
X0656965Y0432100D02*
X0656965Y0420441D01*
X0651965Y0420789D02*
X0651965Y0432100D01*
X0646965Y0432100D02*
X0646965Y0418340D01*
X0646965Y0442900D02*
X0646965Y0501213D01*
X0641965Y0501213D02*
X0641965Y0442900D01*
X0636965Y0442900D02*
X0636965Y0501212D01*
X0631965Y0501212D02*
X0631965Y0442900D01*
X0626965Y0442900D02*
X0626965Y0501212D01*
X0651965Y0501213D02*
X0651965Y0442900D01*
X0656965Y0442900D02*
X0656965Y0501213D01*
X0661965Y0501213D02*
X0661965Y0442900D01*
X0666965Y0442900D02*
X0666965Y0501213D01*
X0671965Y0501213D02*
X0671965Y0439637D01*
X0670002Y0441600D02*
X0737801Y0441600D01*
X0731965Y0501215D02*
X0731965Y0294300D01*
X0726965Y0294300D02*
X0726965Y0501215D01*
X0721965Y0501215D02*
X0721965Y0294300D01*
X0716965Y0294300D02*
X0716965Y0501215D01*
X0621965Y0450083D02*
X0621965Y0442900D01*
X0556765Y0409329D02*
X0556765Y0405550D01*
X0545931Y0405550D01*
X0549894Y0406600D02*
X0504243Y0406600D01*
X0502265Y0401600D02*
X0541855Y0401600D01*
X0541965Y0401867D02*
X0541965Y0428622D01*
X0546965Y0429450D02*
X0546965Y0426782D01*
X0551965Y0428800D02*
X0551965Y0430939D01*
X0546965Y0413671D02*
X0546965Y0411600D01*
X0551965Y0411600D01*
X0551965Y0411600D01*
X0551965Y0406600D01*
X0551965Y0406600D01*
X0549894Y0406600D01*
X0546965Y0409529D01*
X0551965Y0411600D02*
X0551965Y0405550D01*
X0551965Y0406600D02*
X0554036Y0406600D01*
X0556765Y0406600D01*
X0554036Y0406600D02*
X0556765Y0409329D01*
X0551965Y0411600D02*
X0551965Y0406600D01*
X0541765Y0396600D02*
X0478165Y0396600D01*
X0476965Y0395400D02*
X0476965Y0362500D01*
X0471965Y0362500D02*
X0471965Y0392722D01*
X0466965Y0393600D02*
X0466965Y0362500D01*
X0461965Y0362500D02*
X0461965Y0395100D01*
X0456965Y0395100D02*
X0456965Y0362500D01*
X0451965Y0362500D02*
X0451965Y0395100D01*
X0446965Y0395100D02*
X0446965Y0362500D01*
X0441965Y0362500D02*
X0441965Y0395111D01*
X0439328Y0396600D02*
X0343420Y0396600D01*
X0343832Y0397012D02*
X0345065Y0399989D01*
X0345065Y0403211D01*
X0343832Y0406188D01*
X0341553Y0408467D01*
X0338576Y0409700D01*
X0335354Y0409700D01*
X0332377Y0408467D01*
X0330098Y0406188D01*
X0328865Y0403211D01*
X0328865Y0401187D01*
X0315712Y0388034D01*
X0314890Y0386049D01*
X0314890Y0376242D01*
X0312576Y0377200D01*
X0309354Y0377200D01*
X0306377Y0375967D01*
X0305965Y0375555D01*
X0305553Y0375967D01*
X0302576Y0377200D01*
X0299354Y0377200D01*
X0296377Y0375967D01*
X0295965Y0375555D01*
X0295553Y0375967D01*
X0292576Y0377200D01*
X0289354Y0377200D01*
X0286377Y0375967D01*
X0285965Y0375555D01*
X0285553Y0375967D01*
X0282576Y0377200D01*
X0279354Y0377200D01*
X0276377Y0375967D01*
X0275965Y0375555D01*
X0275553Y0375967D01*
X0272576Y0377200D01*
X0269354Y0377200D01*
X0266377Y0375967D01*
X0265965Y0375555D01*
X0265553Y0375967D01*
X0262576Y0377200D01*
X0259354Y0377200D01*
X0256377Y0375967D01*
X0255965Y0375555D01*
X0255553Y0375967D01*
X0252576Y0377200D01*
X0249354Y0377200D01*
X0246377Y0375967D01*
X0245965Y0375555D01*
X0245553Y0375967D01*
X0242576Y0377200D01*
X0239354Y0377200D01*
X0236377Y0375967D01*
X0234098Y0373688D01*
X0232865Y0370711D01*
X0232865Y0367489D01*
X0234098Y0364512D01*
X0236377Y0362233D01*
X0239354Y0361000D01*
X0242576Y0361000D01*
X0245553Y0362233D01*
X0245965Y0362645D01*
X0246377Y0362233D01*
X0249354Y0361000D01*
X0252576Y0361000D01*
X0255553Y0362233D01*
X0255965Y0362645D01*
X0256377Y0362233D01*
X0259354Y0361000D01*
X0262576Y0361000D01*
X0265553Y0362233D01*
X0265965Y0362645D01*
X0266377Y0362233D01*
X0269354Y0361000D01*
X0272576Y0361000D01*
X0275553Y0362233D01*
X0275965Y0362645D01*
X0276377Y0362233D01*
X0279354Y0361000D01*
X0282576Y0361000D01*
X0283069Y0361204D01*
X0282865Y0360711D01*
X0282865Y0357489D01*
X0284098Y0354512D01*
X0284510Y0354100D01*
X0284098Y0353688D01*
X0284020Y0353500D01*
X0255131Y0353500D01*
X0253220Y0352708D01*
X0247770Y0347258D01*
X0246307Y0345796D01*
X0245515Y0343884D01*
X0245515Y0336150D01*
X0242887Y0333522D01*
X0242887Y0327078D01*
X0247443Y0322522D01*
X0251765Y0322522D01*
X0251765Y0285566D01*
X0252557Y0283654D01*
X0254020Y0282192D01*
X0255931Y0281400D01*
X0274250Y0281400D01*
X0276161Y0282192D01*
X0277624Y0283654D01*
X0278415Y0285566D01*
X0278415Y0326384D01*
X0277624Y0328296D01*
X0276161Y0329758D01*
X0274250Y0330550D01*
X0258443Y0330550D01*
X0258443Y0333522D01*
X0255915Y0336050D01*
X0255915Y0340696D01*
X0258319Y0343100D01*
X0285510Y0343100D01*
X0286377Y0342233D01*
X0289354Y0341000D01*
X0292576Y0341000D01*
X0295553Y0342233D01*
X0295965Y0342645D01*
X0296377Y0342233D01*
X0299354Y0341000D01*
X0302576Y0341000D01*
X0305553Y0342233D01*
X0305965Y0342645D01*
X0306377Y0342233D01*
X0309354Y0341000D01*
X0311478Y0341000D01*
X0310487Y0340009D01*
X0309665Y0338024D01*
X0309665Y0328754D01*
X0308661Y0329758D01*
X0306750Y0330550D01*
X0288431Y0330550D01*
X0286520Y0329758D01*
X0285057Y0328296D01*
X0284265Y0326384D01*
X0284265Y0285566D01*
X0285057Y0283654D01*
X0286520Y0282192D01*
X0288431Y0281400D01*
X0306565Y0281400D01*
X0306565Y0261382D01*
X0305410Y0260227D01*
X0304036Y0261600D01*
X0301965Y0261600D01*
X0299894Y0261600D01*
X0296965Y0258671D01*
X0296965Y0281400D01*
X0291965Y0281400D02*
X0291965Y0266711D01*
X0291750Y0266800D02*
X0262181Y0266800D01*
X0260270Y0266008D01*
X0258807Y0264546D01*
X0258015Y0262634D01*
X0258015Y0260732D01*
X0254948Y0263800D01*
X0254399Y0263800D01*
X0251634Y0269054D01*
X0251416Y0269683D01*
X0251138Y0269995D01*
X0250943Y0270366D01*
X0250432Y0270791D01*
X0212365Y0313652D01*
X0212365Y0369363D01*
X0224202Y0381200D01*
X0273039Y0381200D01*
X0275024Y0382022D01*
X0285024Y0392022D01*
X0286543Y0393541D01*
X0287365Y0395526D01*
X0287365Y0395545D01*
X0288832Y0397012D01*
X0289465Y0398540D01*
X0290098Y0397012D01*
X0292377Y0394733D01*
X0295354Y0393500D01*
X0298576Y0393500D01*
X0301553Y0394733D01*
X0303832Y0397012D01*
X0305065Y0399989D01*
X0305065Y0403200D01*
X0313939Y0403200D01*
X0315924Y0404022D01*
X0317443Y0405541D01*
X0331843Y0419941D01*
X0332665Y0421926D01*
X0332665Y0436300D01*
X0335043Y0438678D01*
X0335043Y0445122D01*
X0330487Y0449678D01*
X0324043Y0449678D01*
X0322910Y0448545D01*
X0322445Y0449042D01*
X0322036Y0449227D01*
X0321718Y0449486D01*
X0322165Y0450566D01*
X0322165Y0501202D01*
X0346765Y0501203D01*
X0346765Y0450566D01*
X0347557Y0448654D01*
X0349020Y0447192D01*
X0350931Y0446400D01*
X0368951Y0446400D01*
X0368926Y0446387D01*
X0368442Y0446266D01*
X0367810Y0445797D01*
X0367115Y0445429D01*
X0366798Y0445046D01*
X0366700Y0444973D01*
X0366241Y0444780D01*
X0365687Y0444222D01*
X0365056Y0443753D01*
X0364799Y0443326D01*
X0364714Y0443240D01*
X0364289Y0442980D01*
X0363826Y0442344D01*
X0363273Y0441785D01*
X0363084Y0441324D01*
X0363013Y0441226D01*
X0362729Y0440986D01*
X0362537Y0441178D01*
X0356093Y0441178D01*
X0351537Y0436622D01*
X0351537Y0430178D01*
X0356093Y0425622D01*
X0357317Y0425622D01*
X0365623Y0409901D01*
X0365937Y0409141D01*
X0366121Y0408957D01*
X0366242Y0408728D01*
X0366875Y0408203D01*
X0367456Y0407622D01*
X0367696Y0407523D01*
X0367896Y0407357D01*
X0368682Y0407115D01*
X0369441Y0406800D01*
X0369701Y0406800D01*
X0369949Y0406723D01*
X0370767Y0406800D01*
X0385310Y0406800D01*
X0387377Y0404733D01*
X0390354Y0403500D01*
X0393576Y0403500D01*
X0396553Y0404733D01*
X0398832Y0407012D01*
X0400065Y0409989D01*
X0400065Y0413211D01*
X0399102Y0415537D01*
X0399465Y0415452D01*
X0399826Y0415140D01*
X0400572Y0414894D01*
X0401271Y0414539D01*
X0401747Y0414502D01*
X0402150Y0414249D01*
X0403865Y0411600D02*
X0400065Y0411600D01*
X0398420Y0406600D02*
X0405510Y0406600D01*
X0406965Y0405145D02*
X0406965Y0357854D01*
X0408219Y0356600D02*
X0418865Y0356600D01*
X0416965Y0355300D02*
X0416965Y0405145D01*
X0418420Y0406600D02*
X0429328Y0406600D01*
X0431965Y0403963D02*
X0431965Y0363350D01*
X0436965Y0362500D02*
X0436965Y0398963D01*
X0434328Y0401600D02*
X0345065Y0401600D01*
X0347377Y0404733D02*
X0350354Y0403500D01*
X0353576Y0403500D01*
X0356553Y0404733D01*
X0358832Y0407012D01*
X0360065Y0409989D01*
X0360065Y0413211D01*
X0358832Y0416188D01*
X0356553Y0418467D01*
X0353576Y0419700D01*
X0350354Y0419700D01*
X0347377Y0418467D01*
X0345098Y0416188D01*
X0343865Y0413211D01*
X0343865Y0409989D01*
X0345098Y0407012D01*
X0347377Y0404733D01*
X0346965Y0405145D02*
X0346965Y0377200D01*
X0343906Y0376600D02*
X0340025Y0376600D01*
X0341965Y0375555D02*
X0341965Y0395145D01*
X0341553Y0394733D02*
X0343832Y0397012D01*
X0341553Y0394733D02*
X0338576Y0393500D01*
X0336452Y0393500D01*
X0325690Y0382738D01*
X0325690Y0377200D01*
X0328576Y0377200D01*
X0331553Y0375967D01*
X0331965Y0375555D01*
X0330025Y0376600D02*
X0333906Y0376600D01*
X0336965Y0377200D02*
X0336965Y0393500D01*
X0334552Y0391600D02*
X0541765Y0391600D01*
X0518387Y0381600D02*
X0325690Y0381600D01*
X0326965Y0384013D02*
X0326965Y0377200D01*
X0316965Y0389287D02*
X0316965Y0405063D01*
X0318502Y0406600D02*
X0330510Y0406600D01*
X0331965Y0408055D02*
X0331965Y0420236D01*
X0332530Y0421600D02*
X0359442Y0421600D01*
X0356965Y0418055D02*
X0356965Y0425622D01*
X0355116Y0426600D02*
X0332665Y0426600D01*
X0332665Y0431600D02*
X0351537Y0431600D01*
X0351965Y0429750D02*
X0351965Y0419700D01*
X0346965Y0418055D02*
X0346965Y0450083D01*
X0346765Y0451600D02*
X0322165Y0451600D01*
X0321965Y0450083D02*
X0321965Y0449285D01*
X0326965Y0449678D02*
X0326965Y0501202D01*
X0331965Y0501203D02*
X0331965Y0448200D01*
X0333565Y0446600D02*
X0350448Y0446600D01*
X0351965Y0446400D02*
X0351965Y0437050D01*
X0351537Y0436600D02*
X0332965Y0436600D01*
X0335043Y0441600D02*
X0363197Y0441600D01*
X0361965Y0441178D02*
X0361965Y0446400D01*
X0356965Y0446400D02*
X0356965Y0441178D01*
X0366965Y0445248D02*
X0366965Y0446400D01*
X0346765Y0456600D02*
X0322165Y0456600D01*
X0322165Y0461600D02*
X0346765Y0461600D01*
X0346765Y0466600D02*
X0322165Y0466600D01*
X0322165Y0471600D02*
X0346765Y0471600D01*
X0346765Y0476600D02*
X0322165Y0476600D01*
X0322165Y0481600D02*
X0346765Y0481600D01*
X0346765Y0486600D02*
X0322165Y0486600D01*
X0322165Y0491600D02*
X0346765Y0491600D01*
X0346765Y0496600D02*
X0322165Y0496600D01*
X0336965Y0501203D02*
X0336965Y0409700D01*
X0341965Y0408055D02*
X0341965Y0501203D01*
X0246765Y0496600D02*
X0170915Y0496600D01*
X0171965Y0501197D02*
X0171965Y0472455D01*
X0171611Y0471600D02*
X0170915Y0471600D01*
X0171365Y0471006D02*
X0171365Y0467784D01*
X0172598Y0464807D01*
X0174877Y0462528D01*
X0177854Y0461295D01*
X0181076Y0461295D01*
X0184053Y0462528D01*
X0186332Y0464807D01*
X0187565Y0467784D01*
X0187565Y0471006D01*
X0186332Y0473984D01*
X0184053Y0476262D01*
X0181076Y0477495D01*
X0177854Y0477495D01*
X0174877Y0476262D01*
X0172598Y0473984D01*
X0171365Y0471006D01*
X0170915Y0466600D02*
X0171856Y0466600D01*
X0171965Y0466336D02*
X0171965Y0442455D01*
X0171611Y0441600D02*
X0170915Y0441600D01*
X0171365Y0441006D02*
X0171365Y0437784D01*
X0172598Y0434807D01*
X0174877Y0432528D01*
X0177854Y0431295D01*
X0181076Y0431295D01*
X0184053Y0432528D01*
X0186332Y0434807D01*
X0187565Y0437784D01*
X0187565Y0441006D01*
X0186332Y0443984D01*
X0184053Y0446262D01*
X0181076Y0447495D01*
X0177854Y0447495D01*
X0174877Y0446262D01*
X0172598Y0443984D01*
X0171365Y0441006D01*
X0171856Y0436600D02*
X0169319Y0436600D01*
X0171965Y0436336D02*
X0171965Y0419583D01*
X0168599Y0416600D02*
X0136365Y0416600D01*
X0136365Y0411600D02*
X0166738Y0411600D01*
X0166965Y0412819D02*
X0166965Y0435239D01*
X0161965Y0435150D02*
X0161965Y0281800D01*
X0156965Y0281800D02*
X0156965Y0435150D01*
X0151965Y0435150D02*
X0151965Y0281800D01*
X0146965Y0281800D02*
X0146965Y0435150D01*
X0141965Y0435150D02*
X0141965Y0281711D01*
X0141698Y0281600D02*
X0136365Y0281600D01*
X0136365Y0276600D02*
X0138015Y0276600D01*
X0138015Y0271600D02*
X0136365Y0271600D01*
X0136365Y0266600D02*
X0138015Y0266600D01*
X0136365Y0261600D02*
X0141698Y0261600D01*
X0141765Y0256600D02*
X0136365Y0256600D01*
X0136365Y0251600D02*
X0141765Y0251600D01*
X0136365Y0236600D02*
X0203015Y0236600D01*
X0203015Y0231600D02*
X0136365Y0231600D01*
X0136365Y0226600D02*
X0203622Y0226600D01*
X0206965Y0223989D02*
X0206965Y0157144D01*
X0205652Y0156600D02*
X0136365Y0156600D01*
X0136365Y0151600D02*
X0201692Y0151600D01*
X0201965Y0152259D02*
X0201965Y0246489D01*
X0201698Y0246600D02*
X0190915Y0246600D01*
X0190915Y0251600D02*
X0198015Y0251600D01*
X0198015Y0256600D02*
X0190915Y0256600D01*
X0190826Y0261600D02*
X0198015Y0261600D01*
X0201698Y0266600D02*
X0175915Y0266600D01*
X0176965Y0265550D02*
X0176965Y0400310D01*
X0172049Y0401600D02*
X0136365Y0401600D01*
X0136365Y0396600D02*
X0203228Y0396600D01*
X0201965Y0395337D02*
X0201965Y0418500D01*
X0196965Y0419850D02*
X0196965Y0390337D01*
X0198228Y0391600D02*
X0136365Y0391600D01*
X0136365Y0386600D02*
X0193228Y0386600D01*
X0192265Y0381600D02*
X0136365Y0381600D01*
X0136365Y0376600D02*
X0192265Y0376600D01*
X0192265Y0371600D02*
X0136365Y0371600D01*
X0136365Y0366600D02*
X0192265Y0366600D01*
X0192265Y0361600D02*
X0136365Y0361600D01*
X0136365Y0356600D02*
X0192265Y0356600D01*
X0192265Y0351600D02*
X0136365Y0351600D01*
X0136365Y0346600D02*
X0192265Y0346600D01*
X0192265Y0341600D02*
X0136365Y0341600D01*
X0136365Y0336600D02*
X0192265Y0336600D01*
X0192265Y0331600D02*
X0136365Y0331600D01*
X0136365Y0326600D02*
X0192265Y0326600D01*
X0192265Y0321600D02*
X0136365Y0321600D01*
X0136365Y0316600D02*
X0192265Y0316600D01*
X0192265Y0311600D02*
X0136365Y0311600D01*
X0136365Y0306600D02*
X0192265Y0306600D01*
X0192265Y0301600D02*
X0136365Y0301600D01*
X0136365Y0296600D02*
X0192265Y0296600D01*
X0192265Y0291600D02*
X0136365Y0291600D01*
X0136365Y0286600D02*
X0192265Y0286600D01*
X0186965Y0281600D02*
X0186965Y0276600D01*
X0186965Y0276600D01*
X0181965Y0276600D01*
X0181965Y0276600D01*
X0181965Y0274529D01*
X0181965Y0265550D01*
X0186965Y0265461D02*
X0186965Y0276600D01*
X0181965Y0276600D01*
X0181965Y0278671D01*
X0181965Y0274529D02*
X0184894Y0271600D01*
X0175915Y0271600D01*
X0184894Y0271600D02*
X0186965Y0271600D01*
X0186965Y0271600D01*
X0186965Y0276600D01*
X0186965Y0281600D01*
X0186965Y0276600D02*
X0186965Y0276600D01*
X0186965Y0276600D01*
X0186965Y0271600D01*
X0189036Y0271600D01*
X0191783Y0271600D01*
X0191965Y0271418D02*
X0191965Y0116000D01*
X0206965Y0116000D02*
X0206965Y0134898D01*
X0211965Y0134905D02*
X0211965Y0116000D01*
X0216965Y0116000D02*
X0216965Y0139823D01*
X0217407Y0141600D02*
X0221192Y0141600D01*
X0221192Y0140890D02*
X0222402Y0137968D01*
X0224639Y0135732D01*
X0227561Y0134521D01*
X0230723Y0134521D01*
X0233645Y0135732D01*
X0235882Y0137968D01*
X0237092Y0140890D01*
X0237092Y0151153D01*
X0235882Y0154075D01*
X0233645Y0156311D01*
X0230723Y0157521D01*
X0227561Y0157521D01*
X0224639Y0156311D01*
X0222402Y0154075D01*
X0221192Y0151153D01*
X0221192Y0140890D01*
X0221965Y0139023D02*
X0221965Y0116000D01*
X0226965Y0116000D02*
X0226965Y0134768D01*
X0223770Y0136600D02*
X0214829Y0136600D01*
X0217407Y0146600D02*
X0221192Y0146600D01*
X0221377Y0151600D02*
X0217222Y0151600D01*
X0216965Y0152219D02*
X0216965Y0223900D01*
X0211965Y0223900D02*
X0211965Y0157137D01*
X0213262Y0156600D02*
X0225337Y0156600D01*
X0226965Y0157275D02*
X0226965Y0223900D01*
X0221965Y0223900D02*
X0221965Y0153019D01*
X0231965Y0157007D02*
X0231965Y0223900D01*
X0236965Y0223900D02*
X0236965Y0151459D01*
X0236907Y0151600D02*
X0241062Y0151600D01*
X0240877Y0151153D02*
X0242087Y0154075D01*
X0244324Y0156311D01*
X0247246Y0157521D01*
X0250408Y0157521D01*
X0253330Y0156311D01*
X0255567Y0154075D01*
X0256777Y0151153D01*
X0256777Y0140890D01*
X0255567Y0137968D01*
X0253330Y0135732D01*
X0250408Y0134521D01*
X0247246Y0134521D01*
X0244324Y0135732D01*
X0242087Y0137968D01*
X0240877Y0140890D01*
X0240877Y0151153D01*
X0241965Y0153780D02*
X0241965Y0223900D01*
X0246965Y0223900D02*
X0246965Y0157405D01*
X0245022Y0156600D02*
X0232947Y0156600D01*
X0237092Y0146600D02*
X0240877Y0146600D01*
X0240877Y0141600D02*
X0237092Y0141600D01*
X0236965Y0140584D02*
X0236965Y0116000D01*
X0231965Y0116000D02*
X0231965Y0135036D01*
X0234514Y0136600D02*
X0243455Y0136600D01*
X0241965Y0138263D02*
X0241965Y0116000D01*
X0246965Y0116000D02*
X0246965Y0134637D01*
X0251965Y0135166D02*
X0251965Y0116000D01*
X0256965Y0116000D02*
X0256965Y0251418D01*
X0257148Y0251600D02*
X0258015Y0251600D01*
X0261698Y0246600D02*
X0252076Y0246600D01*
X0251965Y0246867D02*
X0251965Y0249400D01*
X0247833Y0250550D02*
X0235909Y0250550D01*
X0235915Y0250566D01*
X0235915Y0262634D01*
X0236965Y0258671D02*
X0236965Y0269690D01*
X0235269Y0271600D02*
X0202148Y0271600D01*
X0201965Y0271418D02*
X0201965Y0266711D01*
X0206965Y0266800D02*
X0206965Y0303468D01*
X0208624Y0301600D02*
X0203065Y0301600D01*
X0203065Y0296600D02*
X0213065Y0296600D01*
X0211965Y0297838D02*
X0211965Y0266800D01*
X0216965Y0266800D02*
X0216965Y0292209D01*
X0217506Y0291600D02*
X0203065Y0291600D01*
X0203065Y0286600D02*
X0221947Y0286600D01*
X0221965Y0286579D02*
X0221965Y0266800D01*
X0226965Y0266800D02*
X0226965Y0280949D01*
X0226387Y0281600D02*
X0203065Y0281600D01*
X0204165Y0276600D02*
X0230828Y0276600D01*
X0231965Y0275320D02*
X0231965Y0266711D01*
X0232232Y0266600D02*
X0239709Y0266600D01*
X0241965Y0264060D02*
X0241965Y0256600D01*
X0235915Y0256600D01*
X0236965Y0256600D02*
X0236965Y0256600D01*
X0236965Y0254529D01*
X0236965Y0250550D01*
X0235915Y0251600D02*
X0239894Y0251600D01*
X0241965Y0251600D01*
X0241965Y0251600D01*
X0241965Y0256600D01*
X0241965Y0256600D01*
X0236965Y0256600D01*
X0241965Y0256600D01*
X0241965Y0261600D01*
X0239894Y0261600D01*
X0236965Y0258671D01*
X0236965Y0256600D01*
X0236965Y0254529D02*
X0239894Y0251600D01*
X0241965Y0251600D02*
X0244036Y0251600D01*
X0246783Y0251600D01*
X0246965Y0251418D02*
X0246965Y0250550D01*
X0247833Y0250550D02*
X0245410Y0252973D01*
X0244036Y0251600D01*
X0241965Y0251600D02*
X0241965Y0256600D01*
X0241965Y0256600D01*
X0241965Y0256600D01*
X0241965Y0250550D01*
X0241965Y0256600D02*
X0241965Y0261600D01*
X0243352Y0261600D01*
X0252925Y0266600D02*
X0261698Y0266600D01*
X0261965Y0266711D02*
X0261965Y0281400D01*
X0256965Y0281400D02*
X0256965Y0261782D01*
X0257148Y0261600D02*
X0258015Y0261600D01*
X0251965Y0268424D02*
X0251965Y0285083D01*
X0251765Y0286600D02*
X0236391Y0286600D01*
X0236965Y0285954D02*
X0236965Y0361989D01*
X0237905Y0361600D02*
X0212365Y0361600D01*
X0212365Y0356600D02*
X0283233Y0356600D01*
X0281965Y0353500D02*
X0281965Y0361000D01*
X0277905Y0361600D02*
X0274025Y0361600D01*
X0271965Y0361000D02*
X0271965Y0353500D01*
X0266965Y0353500D02*
X0266965Y0361989D01*
X0267905Y0361600D02*
X0264025Y0361600D01*
X0261965Y0361000D02*
X0261965Y0353500D01*
X0256965Y0353500D02*
X0256965Y0361989D01*
X0257905Y0361600D02*
X0254025Y0361600D01*
X0251965Y0361000D02*
X0251965Y0351454D01*
X0252111Y0351600D02*
X0212365Y0351600D01*
X0212365Y0346600D02*
X0247111Y0346600D01*
X0246965Y0346454D02*
X0246965Y0361989D01*
X0247905Y0361600D02*
X0244025Y0361600D01*
X0241965Y0361000D02*
X0241965Y0280324D01*
X0240832Y0281600D02*
X0255448Y0281600D01*
X0246965Y0274694D02*
X0246965Y0323000D01*
X0251765Y0321600D02*
X0212365Y0321600D01*
X0212365Y0326600D02*
X0243366Y0326600D01*
X0242887Y0331600D02*
X0212365Y0331600D01*
X0212365Y0336600D02*
X0245515Y0336600D01*
X0245515Y0341600D02*
X0212365Y0341600D01*
X0212365Y0316600D02*
X0251765Y0316600D01*
X0251765Y0311600D02*
X0214187Y0311600D01*
X0216965Y0308472D02*
X0216965Y0373963D01*
X0214602Y0371600D02*
X0233233Y0371600D01*
X0233233Y0366600D02*
X0212365Y0366600D01*
X0219602Y0376600D02*
X0237906Y0376600D01*
X0236965Y0376211D02*
X0236965Y0381200D01*
X0231965Y0381200D02*
X0231965Y0291583D01*
X0231950Y0291600D02*
X0251765Y0291600D01*
X0251765Y0296600D02*
X0227510Y0296600D01*
X0226965Y0297213D02*
X0226965Y0381200D01*
X0221965Y0378963D02*
X0221965Y0302843D01*
X0223069Y0301600D02*
X0251765Y0301600D01*
X0251765Y0306600D02*
X0218628Y0306600D01*
X0204184Y0306600D02*
X0203065Y0306600D01*
X0171965Y0281711D02*
X0171965Y0401648D01*
X0167463Y0406600D02*
X0136365Y0406600D01*
X0136365Y0421600D02*
X0195215Y0421600D01*
X0193570Y0426600D02*
X0136365Y0426600D01*
X0166965Y0408413D02*
X0166965Y0281800D01*
X0189036Y0271600D02*
X0190410Y0272973D01*
X0193983Y0269400D01*
X0190308Y0241600D02*
X0203015Y0241600D01*
X0252165Y0241600D02*
X0263015Y0241600D01*
X0263015Y0236600D02*
X0252165Y0236600D01*
X0252165Y0231600D02*
X0263015Y0231600D01*
X0263622Y0226600D02*
X0251558Y0226600D01*
X0251965Y0227583D02*
X0251965Y0156876D01*
X0252632Y0156600D02*
X0264707Y0156600D01*
X0264009Y0156311D02*
X0261772Y0154075D01*
X0260562Y0151153D01*
X0260562Y0140890D01*
X0261772Y0137968D01*
X0264009Y0135732D01*
X0266931Y0134521D01*
X0270093Y0134521D01*
X0273015Y0135732D01*
X0275252Y0137968D01*
X0276462Y0140890D01*
X0276462Y0151153D01*
X0275252Y0154075D01*
X0273015Y0156311D01*
X0270093Y0157521D01*
X0266931Y0157521D01*
X0264009Y0156311D01*
X0261965Y0154267D02*
X0261965Y0246489D01*
X0266965Y0223989D02*
X0266965Y0157521D01*
X0271965Y0156746D02*
X0271965Y0172645D01*
X0272377Y0172233D02*
X0275354Y0171000D01*
X0278576Y0171000D01*
X0281553Y0172233D01*
X0281965Y0172645D01*
X0282377Y0172233D01*
X0285354Y0171000D01*
X0288576Y0171000D01*
X0291553Y0172233D01*
X0291965Y0172645D01*
X0292377Y0172233D01*
X0295354Y0171000D01*
X0298576Y0171000D01*
X0301553Y0172233D01*
X0303584Y0174264D01*
X0303873Y0174054D01*
X0304700Y0173632D01*
X0305584Y0173345D01*
X0306501Y0173200D01*
X0306965Y0173200D01*
X0306965Y0179100D01*
X0306965Y0185000D01*
X0306501Y0185000D01*
X0305584Y0184855D01*
X0304700Y0184568D01*
X0303873Y0184146D01*
X0303584Y0183936D01*
X0301553Y0185967D01*
X0298576Y0187200D01*
X0295354Y0187200D01*
X0292377Y0185967D01*
X0291965Y0185555D01*
X0291553Y0185967D01*
X0288576Y0187200D01*
X0285354Y0187200D01*
X0282377Y0185967D01*
X0281965Y0185555D01*
X0281553Y0185967D01*
X0278576Y0187200D01*
X0275354Y0187200D01*
X0272377Y0185967D01*
X0270098Y0183688D01*
X0268865Y0180711D01*
X0268865Y0177489D01*
X0270098Y0174512D01*
X0272377Y0172233D01*
X0273905Y0171600D02*
X0136365Y0171600D01*
X0136365Y0166600D02*
X0700515Y0166600D01*
X0700515Y0161600D02*
X0136365Y0161600D01*
X0136365Y0176600D02*
X0269233Y0176600D01*
X0269233Y0181600D02*
X0136365Y0181600D01*
X0136365Y0186600D02*
X0273906Y0186600D01*
X0271965Y0185555D02*
X0271965Y0223900D01*
X0276965Y0223900D02*
X0276965Y0187200D01*
X0280025Y0186600D02*
X0283906Y0186600D01*
X0281965Y0185555D02*
X0281965Y0223900D01*
X0286965Y0223900D02*
X0286965Y0187200D01*
X0290025Y0186600D02*
X0293906Y0186600D01*
X0291965Y0185555D02*
X0291965Y0223900D01*
X0296965Y0223900D02*
X0296965Y0187200D01*
X0300025Y0186600D02*
X0323906Y0186600D01*
X0321965Y0185555D02*
X0321965Y0200600D01*
X0320966Y0201600D02*
X0136365Y0201600D01*
X0136365Y0196600D02*
X0327914Y0196600D01*
X0326965Y0197549D02*
X0326965Y0187200D01*
X0330025Y0186600D02*
X0337914Y0186600D01*
X0336965Y0187549D02*
X0336965Y0116000D01*
X0331965Y0116000D02*
X0331965Y0172645D01*
X0331553Y0172233D02*
X0333832Y0174512D01*
X0335065Y0177489D01*
X0335065Y0180711D01*
X0334697Y0176600D02*
X0700515Y0176600D01*
X0700515Y0171600D02*
X0330025Y0171600D01*
X0328576Y0171000D02*
X0331553Y0172233D01*
X0328576Y0171000D02*
X0325354Y0171000D01*
X0322377Y0172233D01*
X0320346Y0174264D01*
X0320057Y0174054D01*
X0319230Y0173632D01*
X0318347Y0173345D01*
X0317430Y0173200D01*
X0316965Y0173200D01*
X0316965Y0179100D01*
X0316965Y0179100D01*
X0306965Y0179100D01*
X0306965Y0179100D01*
X0306965Y0179100D01*
X0306965Y0223900D01*
X0301965Y0223900D02*
X0301965Y0185555D01*
X0306965Y0185000D02*
X0306965Y0179100D01*
X0306965Y0116000D01*
X0301965Y0116000D02*
X0301965Y0172645D01*
X0300025Y0171600D02*
X0323905Y0171600D01*
X0321965Y0172645D02*
X0321965Y0116000D01*
X0316965Y0116000D02*
X0316965Y0179100D01*
X0311065Y0179100D01*
X0306965Y0179100D01*
X0306965Y0173200D01*
X0307430Y0173200D01*
X0308347Y0173345D01*
X0309230Y0173632D01*
X0310057Y0174054D01*
X0310809Y0174600D01*
X0311465Y0175256D01*
X0311965Y0175944D01*
X0311965Y0116000D01*
X0296965Y0116000D02*
X0296965Y0171000D01*
X0293905Y0171600D02*
X0290025Y0171600D01*
X0291965Y0172645D02*
X0291965Y0116000D01*
X0286965Y0116000D02*
X0286965Y0171000D01*
X0283905Y0171600D02*
X0280025Y0171600D01*
X0281965Y0172645D02*
X0281965Y0116000D01*
X0276965Y0116000D02*
X0276965Y0171000D01*
X0272318Y0156600D02*
X0700515Y0156600D01*
X0700515Y0151600D02*
X0276277Y0151600D01*
X0276462Y0146600D02*
X0700515Y0146600D01*
X0700515Y0141600D02*
X0276462Y0141600D01*
X0273884Y0136600D02*
X0700515Y0136600D01*
X0700515Y0131600D02*
X0662465Y0131600D01*
X0661965Y0132395D02*
X0661965Y0180200D01*
X0666016Y0181600D02*
X0700515Y0181600D01*
X0700515Y0186600D02*
X0671016Y0186600D01*
X0671965Y0187549D02*
X0671965Y0116000D01*
X0666965Y0116000D02*
X0666965Y0182549D01*
X0656965Y0180200D02*
X0656965Y0135795D01*
X0651965Y0136143D02*
X0651965Y0180200D01*
X0646965Y0180200D02*
X0646965Y0133694D01*
X0664121Y0126600D02*
X0704198Y0126600D01*
X0701965Y0127996D02*
X0701965Y0116000D01*
X0696965Y0116000D02*
X0696965Y0376400D01*
X0701965Y0376400D02*
X0701965Y0292704D01*
X0688365Y0301600D02*
X0737801Y0301600D01*
X0737801Y0306600D02*
X0688365Y0306600D01*
X0688365Y0311600D02*
X0737801Y0311600D01*
X0737801Y0316600D02*
X0688365Y0316600D01*
X0689743Y0321600D02*
X0737801Y0321600D01*
X0737801Y0326600D02*
X0687965Y0326600D01*
X0686965Y0327600D02*
X0686965Y0367650D01*
X0681965Y0367650D02*
X0681965Y0329378D01*
X0675565Y0316600D02*
X0563165Y0316600D01*
X0563165Y0311600D02*
X0675565Y0311600D01*
X0662865Y0301600D02*
X0656965Y0301600D01*
X0656965Y0301600D01*
X0662865Y0301600D01*
X0661965Y0301600D02*
X0661965Y0301600D01*
X0656965Y0296600D02*
X0656965Y0296600D01*
X0656965Y0306600D02*
X0656965Y0306600D01*
X0653809Y0306600D02*
X0633420Y0306600D01*
X0631965Y0295145D02*
X0631965Y0291800D01*
X0626965Y0291800D02*
X0626965Y0293500D01*
X0563165Y0331600D02*
X0737801Y0331600D01*
X0737801Y0336600D02*
X0563165Y0336600D01*
X0563165Y0341600D02*
X0737801Y0341600D01*
X0737801Y0346600D02*
X0563165Y0346600D01*
X0563165Y0351600D02*
X0737801Y0351600D01*
X0737801Y0356600D02*
X0563165Y0356600D01*
X0556965Y0364388D02*
X0556965Y0367650D01*
X0501965Y0362500D02*
X0501965Y0401300D01*
X0496965Y0399022D02*
X0496965Y0362500D01*
X0491965Y0362500D02*
X0491965Y0400300D01*
X0490208Y0401600D02*
X0478843Y0401600D01*
X0476965Y0405600D02*
X0476965Y0413963D01*
X0479328Y0411600D02*
X0460065Y0411600D01*
X0458420Y0406600D02*
X0466166Y0406600D01*
X0466965Y0407400D02*
X0466965Y0420145D01*
X0465510Y0421600D02*
X0453588Y0421600D01*
X0456965Y0418055D02*
X0456965Y0446400D01*
X0461965Y0446400D02*
X0461965Y0405900D01*
X0471965Y0408278D02*
X0471965Y0418500D01*
X0474328Y0416600D02*
X0458420Y0416600D01*
X0475965Y0406600D02*
X0484328Y0406600D01*
X0481965Y0408963D02*
X0481965Y0362500D01*
X0486965Y0362500D02*
X0486965Y0403963D01*
X0496965Y0414578D02*
X0496965Y0446400D01*
X0471965Y0446400D02*
X0471965Y0434700D01*
X0466965Y0433055D02*
X0466965Y0446400D01*
X0425510Y0421600D02*
X0421816Y0421600D01*
X0421965Y0421787D02*
X0421965Y0363350D01*
X0420215Y0361600D02*
X0403716Y0361600D01*
X0411965Y0355300D02*
X0411965Y0403500D01*
X0420065Y0411600D02*
X0426565Y0411600D01*
X0426965Y0409560D02*
X0426965Y0364995D01*
X0396965Y0377200D02*
X0396965Y0405145D01*
X0391965Y0403500D02*
X0391965Y0375555D01*
X0390025Y0376600D02*
X0393906Y0376600D01*
X0386965Y0377200D02*
X0386965Y0405145D01*
X0385510Y0406600D02*
X0358420Y0406600D01*
X0356965Y0405145D02*
X0356965Y0377200D01*
X0353906Y0376600D02*
X0350025Y0376600D01*
X0351965Y0375555D02*
X0351965Y0403500D01*
X0345510Y0406600D02*
X0343420Y0406600D01*
X0343865Y0411600D02*
X0323502Y0411600D01*
X0321965Y0410063D02*
X0321965Y0394287D01*
X0324278Y0396600D02*
X0303420Y0396600D01*
X0301965Y0395145D02*
X0301965Y0377200D01*
X0304025Y0376600D02*
X0307906Y0376600D01*
X0306965Y0376211D02*
X0306965Y0403200D01*
X0305065Y0401600D02*
X0328865Y0401600D01*
X0326965Y0399287D02*
X0326965Y0415063D01*
X0328502Y0416600D02*
X0345510Y0416600D01*
X0358420Y0416600D02*
X0362083Y0416600D01*
X0361965Y0416824D02*
X0361965Y0375555D01*
X0360025Y0376600D02*
X0363906Y0376600D01*
X0366965Y0377200D02*
X0366965Y0408113D01*
X0364725Y0411600D02*
X0360065Y0411600D01*
X0371965Y0406800D02*
X0371965Y0375555D01*
X0370025Y0376600D02*
X0373906Y0376600D01*
X0376965Y0377200D02*
X0376965Y0406800D01*
X0381965Y0406800D02*
X0381965Y0375555D01*
X0380025Y0376600D02*
X0383906Y0376600D01*
X0381965Y0362645D02*
X0381965Y0342500D01*
X0381087Y0341600D02*
X0350025Y0341600D01*
X0351965Y0342645D02*
X0351965Y0330550D01*
X0356965Y0330550D02*
X0356965Y0361000D01*
X0360025Y0361600D02*
X0363905Y0361600D01*
X0361965Y0362645D02*
X0361965Y0330550D01*
X0366965Y0330461D02*
X0366965Y0361000D01*
X0370025Y0361600D02*
X0373905Y0361600D01*
X0371965Y0362645D02*
X0371965Y0329137D01*
X0374428Y0331600D02*
X0337232Y0331600D01*
X0336965Y0331711D02*
X0336965Y0341000D01*
X0340025Y0341600D02*
X0343905Y0341600D01*
X0341965Y0342645D02*
X0341965Y0266800D01*
X0336965Y0266800D02*
X0336965Y0282739D01*
X0331965Y0282650D02*
X0331965Y0266800D01*
X0327948Y0266600D02*
X0317365Y0266600D01*
X0317365Y0271600D02*
X0383561Y0271600D01*
X0381965Y0270504D02*
X0381965Y0281400D01*
X0377948Y0281600D02*
X0367232Y0281600D01*
X0366965Y0281489D02*
X0366965Y0256600D01*
X0366965Y0261600D01*
X0366965Y0256600D01*
X0366965Y0256600D01*
X0366965Y0256600D01*
X0366965Y0251600D01*
X0366965Y0251600D01*
X0364894Y0251600D01*
X0362165Y0251600D01*
X0362165Y0250566D02*
X0362165Y0254329D01*
X0364894Y0251600D01*
X0366965Y0251600D02*
X0369036Y0251600D01*
X0371783Y0251600D01*
X0371965Y0251418D02*
X0371965Y0250550D01*
X0372833Y0250550D02*
X0370931Y0250550D01*
X0362159Y0250550D01*
X0362165Y0250566D01*
X0366965Y0250550D02*
X0366965Y0256600D01*
X0366965Y0251600D01*
X0369036Y0251600D02*
X0370410Y0252973D01*
X0372833Y0250550D01*
X0376965Y0249400D02*
X0376965Y0246867D01*
X0377076Y0246600D02*
X0386698Y0246600D01*
X0386765Y0241600D02*
X0377165Y0241600D01*
X0377165Y0236600D02*
X0386765Y0236600D01*
X0386765Y0231600D02*
X0377165Y0231600D01*
X0381965Y0251418D02*
X0381965Y0193000D01*
X0332914Y0191600D02*
X0136365Y0191600D01*
X0136365Y0206600D02*
X0319187Y0206600D01*
X0320966Y0211600D02*
X0136365Y0211600D01*
X0136365Y0146600D02*
X0201507Y0146600D01*
X0254199Y0136600D02*
X0263140Y0136600D01*
X0261965Y0137775D02*
X0261965Y0116000D01*
X0266965Y0116000D02*
X0266965Y0134521D01*
X0271965Y0135297D02*
X0271965Y0116000D01*
X0260562Y0141600D02*
X0256777Y0141600D01*
X0256777Y0146600D02*
X0260562Y0146600D01*
X0260747Y0151600D02*
X0256592Y0151600D01*
X0306965Y0176600D02*
X0306965Y0176600D01*
X0306965Y0179100D02*
X0306965Y0179100D01*
X0306965Y0181600D02*
X0306965Y0181600D01*
X0306965Y0185000D02*
X0307430Y0185000D01*
X0308347Y0184855D01*
X0309230Y0184568D01*
X0310057Y0184146D01*
X0310809Y0183600D01*
X0311465Y0182944D01*
X0311965Y0182256D01*
X0311965Y0179100D02*
X0311965Y0179100D01*
X0311965Y0175944D02*
X0312465Y0175256D01*
X0313122Y0174600D01*
X0313873Y0174054D01*
X0314700Y0173632D01*
X0315584Y0173345D01*
X0316501Y0173200D01*
X0316965Y0173200D01*
X0316965Y0179100D01*
X0316965Y0185000D01*
X0316965Y0179100D01*
X0316965Y0179100D01*
X0316965Y0179100D01*
X0316965Y0251418D01*
X0317148Y0251600D02*
X0324265Y0251600D01*
X0324265Y0256600D02*
X0319165Y0256600D01*
X0317365Y0261600D02*
X0324265Y0261600D01*
X0326965Y0266193D02*
X0326965Y0282650D01*
X0321965Y0282650D02*
X0321965Y0212600D01*
X0326965Y0214378D02*
X0326965Y0247007D01*
X0327948Y0246600D02*
X0312076Y0246600D01*
X0311965Y0246867D02*
X0311965Y0249400D01*
X0307833Y0250550D02*
X0295909Y0250550D01*
X0295915Y0250566D01*
X0295915Y0262634D01*
X0295124Y0264546D01*
X0293661Y0266008D01*
X0291750Y0266800D01*
X0292232Y0266600D02*
X0306565Y0266600D01*
X0306565Y0271600D02*
X0249713Y0271600D01*
X0245273Y0276600D02*
X0306565Y0276600D01*
X0301965Y0281400D02*
X0301965Y0256600D01*
X0295915Y0256600D01*
X0296965Y0256600D02*
X0296965Y0256600D01*
X0296965Y0254529D01*
X0296965Y0250550D01*
X0295915Y0251600D02*
X0299894Y0251600D01*
X0301965Y0251600D01*
X0301965Y0251600D01*
X0301965Y0256600D01*
X0301965Y0256600D01*
X0296965Y0256600D01*
X0301965Y0256600D01*
X0301965Y0261600D01*
X0301965Y0256600D01*
X0301965Y0256600D01*
X0301965Y0256600D01*
X0301965Y0250550D01*
X0301965Y0251600D02*
X0304036Y0251600D01*
X0306783Y0251600D01*
X0306965Y0251418D02*
X0306965Y0250550D01*
X0307833Y0250550D02*
X0305410Y0252973D01*
X0304036Y0251600D01*
X0301965Y0251600D02*
X0301965Y0256600D01*
X0296965Y0256600D02*
X0296965Y0258671D01*
X0295915Y0261600D02*
X0306565Y0261600D01*
X0296965Y0254529D02*
X0299894Y0251600D01*
X0312165Y0241600D02*
X0328015Y0241600D01*
X0328015Y0236600D02*
X0312165Y0236600D01*
X0312165Y0231600D02*
X0328015Y0231600D01*
X0362165Y0261600D02*
X0371783Y0261600D01*
X0371965Y0261782D02*
X0371965Y0299122D01*
X0370915Y0296600D02*
X0374265Y0296600D01*
X0374265Y0291600D02*
X0370915Y0291600D01*
X0370915Y0286600D02*
X0374265Y0286600D01*
X0376965Y0282007D02*
X0376965Y0267070D01*
X0376281Y0266600D02*
X0358482Y0266600D01*
X0356965Y0266800D02*
X0356965Y0281400D01*
X0351965Y0281400D02*
X0351965Y0266800D01*
X0346965Y0266800D02*
X0346965Y0282007D01*
X0347948Y0281600D02*
X0317365Y0281600D01*
X0317365Y0276600D02*
X0390842Y0276600D01*
X0391965Y0277371D02*
X0391965Y0281400D01*
X0386965Y0281400D02*
X0386965Y0273938D01*
X0404215Y0276600D02*
X0498011Y0276600D01*
X0496965Y0278483D02*
X0496965Y0263800D01*
X0486965Y0261600D02*
X0486965Y0256600D01*
X0480915Y0256600D01*
X0481965Y0256600D02*
X0481965Y0256600D01*
X0481965Y0254529D01*
X0481965Y0251800D01*
X0480915Y0251800D02*
X0480915Y0262634D01*
X0481965Y0258671D02*
X0481965Y0256600D01*
X0486965Y0256600D01*
X0486965Y0256600D01*
X0481965Y0256600D01*
X0481965Y0254529D02*
X0484694Y0251800D01*
X0480915Y0251800D01*
X0486965Y0256600D02*
X0486965Y0261600D01*
X0486965Y0256600D02*
X0486965Y0344246D01*
X0471965Y0333722D02*
X0471965Y0266800D01*
X0466965Y0266800D02*
X0466965Y0334600D01*
X0461965Y0336100D02*
X0461965Y0266800D01*
X0456965Y0266800D02*
X0456965Y0336100D01*
X0451965Y0336100D02*
X0451965Y0266800D01*
X0446965Y0266711D02*
X0446965Y0336100D01*
X0441965Y0336100D02*
X0441965Y0261782D01*
X0442148Y0261600D02*
X0443015Y0261600D01*
X0446698Y0266600D02*
X0417232Y0266600D01*
X0404215Y0281600D02*
X0496765Y0281600D01*
X0496765Y0286600D02*
X0433482Y0286600D01*
X0414198Y0286600D02*
X0404215Y0286600D01*
X0361965Y0281400D02*
X0361965Y0263117D01*
X0382148Y0251600D02*
X0383015Y0251600D01*
X0435826Y0246600D02*
X0446698Y0246600D01*
X0446765Y0241600D02*
X0435915Y0241600D01*
X0435915Y0236600D02*
X0446765Y0236600D01*
X0446765Y0231600D02*
X0435915Y0231600D01*
X0436965Y0249400D02*
X0436965Y0193000D01*
X0441965Y0193000D02*
X0441965Y0251418D01*
X0442148Y0251600D02*
X0443015Y0251600D01*
X0486965Y0256600D02*
X0486965Y0256600D01*
X0516965Y0201600D02*
X0516965Y0201600D01*
X0516965Y0199100D02*
X0516965Y0199100D01*
X0516965Y0193200D01*
X0516965Y0196600D02*
X0516965Y0196600D01*
X0516965Y0199100D02*
X0521065Y0199100D01*
X0521965Y0195944D02*
X0522465Y0195256D01*
X0523122Y0194600D01*
X0526965Y0193200D02*
X0526965Y0199100D01*
X0526965Y0193000D01*
X0526965Y0193200D02*
X0527430Y0193200D01*
X0528347Y0193345D01*
X0529230Y0193632D01*
X0530057Y0194054D01*
X0530809Y0194600D01*
X0531465Y0195256D01*
X0532011Y0196008D01*
X0532433Y0196835D01*
X0531965Y0195944D02*
X0531965Y0193000D01*
X0531965Y0199100D02*
X0531965Y0199100D01*
X0532865Y0199100D02*
X0526965Y0199100D01*
X0526965Y0199100D01*
X0532865Y0199100D01*
X0526965Y0201600D02*
X0526965Y0201600D01*
X0526965Y0196600D02*
X0526965Y0196600D01*
X0511965Y0199100D02*
X0511965Y0199100D01*
X0476965Y0180200D02*
X0476965Y0131181D01*
X0326965Y0116000D02*
X0326965Y0171000D01*
X0316965Y0176600D02*
X0316965Y0176600D01*
X0316965Y0181600D02*
X0316965Y0181600D01*
X0331965Y0185555D02*
X0331965Y0192549D01*
X0286965Y0266800D02*
X0286965Y0282007D01*
X0287948Y0281600D02*
X0274732Y0281600D01*
X0276965Y0282996D02*
X0276965Y0266800D01*
X0271965Y0266800D02*
X0271965Y0281400D01*
X0266965Y0281400D02*
X0266965Y0266800D01*
X0281965Y0266800D02*
X0281965Y0343100D01*
X0276965Y0343100D02*
X0276965Y0328954D01*
X0278326Y0326600D02*
X0284355Y0326600D01*
X0286965Y0329943D02*
X0286965Y0341989D01*
X0287905Y0341600D02*
X0256819Y0341600D01*
X0256965Y0341746D02*
X0256965Y0335000D01*
X0255915Y0336600D02*
X0309665Y0336600D01*
X0309665Y0331600D02*
X0258443Y0331600D01*
X0261965Y0330550D02*
X0261965Y0343100D01*
X0266965Y0343100D02*
X0266965Y0330550D01*
X0271965Y0330550D02*
X0271965Y0343100D01*
X0276965Y0353500D02*
X0276965Y0361989D01*
X0276965Y0376211D02*
X0276965Y0383963D01*
X0279602Y0386600D02*
X0315118Y0386600D01*
X0314890Y0381600D02*
X0274005Y0381600D01*
X0271965Y0381200D02*
X0271965Y0377200D01*
X0274025Y0376600D02*
X0277906Y0376600D01*
X0281965Y0377200D02*
X0281965Y0388963D01*
X0284602Y0391600D02*
X0319278Y0391600D01*
X0311965Y0403200D02*
X0311965Y0377200D01*
X0314025Y0376600D02*
X0314890Y0376600D01*
X0297906Y0376600D02*
X0294025Y0376600D01*
X0291965Y0377200D02*
X0291965Y0395145D01*
X0290510Y0396600D02*
X0288420Y0396600D01*
X0286965Y0394560D02*
X0286965Y0376211D01*
X0287906Y0376600D02*
X0284025Y0376600D01*
X0267906Y0376600D02*
X0264025Y0376600D01*
X0261965Y0377200D02*
X0261965Y0381200D01*
X0256965Y0381200D02*
X0256965Y0376211D01*
X0257906Y0376600D02*
X0254025Y0376600D01*
X0251965Y0377200D02*
X0251965Y0381200D01*
X0246965Y0381200D02*
X0246965Y0376211D01*
X0247906Y0376600D02*
X0244025Y0376600D01*
X0241965Y0377200D02*
X0241965Y0381200D01*
X0266965Y0381200D02*
X0266965Y0376211D01*
X0296965Y0376211D02*
X0296965Y0393500D01*
X0354697Y0356600D02*
X0388865Y0356600D01*
X0386965Y0361000D02*
X0386965Y0346178D01*
X0390812Y0346600D02*
X0354697Y0346600D01*
X0354697Y0351600D02*
X0390805Y0351600D01*
X0391965Y0350440D02*
X0391965Y0349975D01*
X0390215Y0361600D02*
X0390025Y0361600D01*
X0383905Y0361600D02*
X0380025Y0361600D01*
X0376965Y0361000D02*
X0376965Y0334137D01*
X0379428Y0336600D02*
X0322352Y0336600D01*
X0321965Y0336213D02*
X0321965Y0331800D01*
X0306965Y0330461D02*
X0306965Y0341989D01*
X0307905Y0341600D02*
X0304025Y0341600D01*
X0301965Y0341000D02*
X0301965Y0330550D01*
X0296965Y0330550D02*
X0296965Y0341989D01*
X0297905Y0341600D02*
X0294025Y0341600D01*
X0291965Y0341000D02*
X0291965Y0330550D01*
X0284265Y0321600D02*
X0278415Y0321600D01*
X0278415Y0316600D02*
X0284265Y0316600D01*
X0284265Y0311600D02*
X0278415Y0311600D01*
X0278415Y0306600D02*
X0284265Y0306600D01*
X0284265Y0301600D02*
X0278415Y0301600D01*
X0278415Y0296600D02*
X0284265Y0296600D01*
X0284265Y0291600D02*
X0278415Y0291600D01*
X0278415Y0286600D02*
X0284265Y0286600D01*
X0340826Y0286600D02*
X0344265Y0286600D01*
X0344265Y0291600D02*
X0340915Y0291600D01*
X0340915Y0296600D02*
X0344265Y0296600D01*
X0344265Y0301600D02*
X0340915Y0301600D01*
X0340915Y0306600D02*
X0344265Y0306600D01*
X0344265Y0311600D02*
X0340915Y0311600D01*
X0340915Y0316600D02*
X0344265Y0316600D01*
X0344265Y0321600D02*
X0340915Y0321600D01*
X0340915Y0326600D02*
X0344355Y0326600D01*
X0346965Y0329943D02*
X0346965Y0341000D01*
X0431965Y0336100D02*
X0431965Y0335550D01*
X0436965Y0336100D02*
X0436965Y0331867D01*
X0426565Y0416600D02*
X0418420Y0416600D01*
X0246765Y0476600D02*
X0242517Y0476600D01*
X0241965Y0476903D02*
X0241965Y0501200D01*
X0236965Y0501199D02*
X0236965Y0478794D01*
X0231965Y0479654D02*
X0231965Y0501199D01*
X0226965Y0501199D02*
X0226965Y0479299D01*
X0221965Y0477682D02*
X0221965Y0501199D01*
X0216965Y0501199D02*
X0216965Y0474816D01*
X0219609Y0476600D02*
X0183238Y0476600D01*
X0181965Y0477127D02*
X0181965Y0501198D01*
X0176965Y0501198D02*
X0176965Y0477127D01*
X0175693Y0476600D02*
X0170915Y0476600D01*
X0170915Y0481600D02*
X0246765Y0481600D01*
X0246765Y0486600D02*
X0170915Y0486600D01*
X0170915Y0491600D02*
X0246765Y0491600D01*
X0210275Y0466600D02*
X0187075Y0466600D01*
X0186965Y0466336D02*
X0186965Y0442455D01*
X0187319Y0441600D02*
X0213531Y0441600D01*
X0211965Y0443701D02*
X0211965Y0405337D01*
X0213228Y0406600D02*
X0186625Y0406600D01*
X0183238Y0446600D02*
X0210264Y0446600D01*
X0208539Y0451600D02*
X0170915Y0451600D01*
X0170915Y0456600D02*
X0208050Y0456600D01*
X0208645Y0461600D02*
X0181812Y0461600D01*
X0181965Y0461663D02*
X0181965Y0447127D01*
X0176965Y0447127D02*
X0176965Y0461663D01*
X0177118Y0461600D02*
X0170915Y0461600D01*
X0170915Y0446600D02*
X0175693Y0446600D01*
X0636965Y0180200D02*
X0636965Y0116000D01*
X0641965Y0116000D02*
X0641965Y0180200D01*
X0676016Y0191600D02*
X0700515Y0191600D01*
X0700515Y0196600D02*
X0681016Y0196600D01*
X0681965Y0197549D02*
X0681965Y0116000D01*
X0676965Y0116000D02*
X0676965Y0192549D01*
X0706965Y0126400D02*
X0706965Y0116000D01*
X0711965Y0116000D02*
X0711965Y0126400D01*
X0716965Y0126400D02*
X0716965Y0116000D01*
X0721965Y0116000D02*
X0721965Y0126400D01*
X0726965Y0126400D02*
X0726965Y0116000D01*
X0731965Y0116000D02*
X0731965Y0126400D01*
X0736965Y0126400D02*
X0736965Y0116000D01*
X0737801Y0116600D02*
X0658197Y0116600D01*
X0656965Y0116145D02*
X0656965Y0116000D01*
X0661965Y0116000D02*
X0661965Y0119545D01*
X0663192Y0121600D02*
X0737801Y0121600D01*
D26*
X0557765Y0270000D02*
X0527065Y0249300D01*
X0526965Y0249100D01*
X0557765Y0270000D02*
X0557765Y0357300D01*
X0526165Y0378900D01*
X0496465Y0406800D02*
X0491765Y0406800D01*
X0471965Y0426600D01*
X0451965Y0413950D02*
X0451965Y0411600D01*
X0451965Y0413950D02*
X0446515Y0422775D01*
X0446515Y0468400D01*
X0432065Y0476100D01*
X0431965Y0426600D02*
X0431965Y0411600D01*
X0443065Y0400500D01*
X0471065Y0400500D01*
X0542915Y0436400D02*
X0553665Y0436400D01*
X0572965Y0422100D01*
X0606265Y0422100D01*
X0606965Y0421600D01*
X0566715Y0437500D02*
X0666465Y0437500D01*
X0681865Y0422100D01*
X0681965Y0421600D01*
X0566715Y0437500D02*
X0525315Y0468900D01*
X0521665Y0468900D01*
X0391965Y0411600D02*
X0391165Y0412200D01*
X0370515Y0412200D01*
X0359315Y0433400D01*
X0327265Y0441900D02*
X0327265Y0423000D01*
X0312865Y0408600D01*
X0288565Y0408600D01*
X0282265Y0402300D01*
X0281965Y0401600D01*
X0281965Y0396600D01*
X0271965Y0386600D01*
X0221965Y0386600D01*
X0206965Y0371600D01*
X0206965Y0311600D01*
X0246665Y0266900D01*
X0251665Y0257400D01*
X0251965Y0256600D01*
X0197665Y0277200D02*
X0196965Y0276600D01*
X0197665Y0277200D02*
X0197665Y0383400D01*
X0240865Y0426600D01*
X0241670Y0426600D01*
X0281365Y0401400D02*
X0281965Y0401600D01*
X0320290Y0384975D02*
X0336915Y0401600D01*
X0336965Y0401600D01*
X0336265Y0401400D01*
X0320290Y0384975D02*
X0320290Y0342175D01*
X0315065Y0336950D01*
X0315065Y0293400D01*
X0311965Y0285300D01*
X0311965Y0256600D01*
X0376965Y0256600D02*
X0377665Y0257400D01*
X0377665Y0261000D01*
X0398815Y0275525D01*
X0398815Y0338625D01*
X0398590Y0345600D01*
X0388865Y0338400D02*
X0372665Y0322200D01*
X0372665Y0306900D01*
X0409390Y0320675D02*
X0413440Y0333100D01*
X0428465Y0341500D01*
X0471065Y0341500D01*
X0520715Y0137850D02*
X0340715Y0137850D01*
X0340715Y0115800D01*
X0520715Y0115800D01*
X0520715Y0137850D01*
X0520715Y0137581D02*
X0340715Y0137581D01*
X0340715Y0135582D02*
X0520715Y0135582D01*
X0520715Y0133584D02*
X0504519Y0133584D01*
X0505033Y0133370D02*
X0503380Y0134055D01*
X0501589Y0134055D01*
X0500329Y0133534D01*
X0499069Y0134055D01*
X0497279Y0134055D01*
X0495625Y0133370D01*
X0494359Y0132105D01*
X0492918Y0130663D01*
X0492321Y0132105D01*
X0491055Y0133370D01*
X0489401Y0134055D01*
X0487611Y0134055D01*
X0485957Y0133370D01*
X0484691Y0132105D01*
X0484691Y0132104D02*
X0484497Y0131910D01*
X0483622Y0131972D01*
X0482060Y0131452D01*
X0480499Y0131972D01*
X0478713Y0131846D01*
X0477112Y0131045D01*
X0475939Y0129693D01*
X0475631Y0128767D01*
X0475133Y0129969D01*
X0473867Y0131235D01*
X0472799Y0132303D01*
X0471145Y0132988D01*
X0469355Y0132988D01*
X0467701Y0132303D01*
X0467177Y0131779D01*
X0466835Y0131920D01*
X0466628Y0131920D01*
X0466552Y0132105D01*
X0465286Y0133370D01*
X0463632Y0134055D01*
X0461842Y0134055D01*
X0460188Y0133370D01*
X0458922Y0132105D01*
X0458846Y0131920D01*
X0457396Y0131920D01*
X0456877Y0133172D01*
X0455611Y0134438D01*
X0453957Y0135123D01*
X0452167Y0135123D01*
X0450513Y0134438D01*
X0450131Y0134055D01*
X0444654Y0134055D01*
X0443000Y0133370D01*
X0441734Y0132105D01*
X0441658Y0131920D01*
X0439765Y0131920D01*
X0439689Y0132105D01*
X0438423Y0133370D01*
X0436769Y0134055D01*
X0433912Y0134055D01*
X0432258Y0133370D01*
X0431584Y0132697D01*
X0430910Y0133370D01*
X0429256Y0134055D01*
X0427466Y0134055D01*
X0425812Y0133370D01*
X0424546Y0132105D01*
X0424470Y0131920D01*
X0424223Y0131920D01*
X0424051Y0131849D01*
X0423878Y0131920D01*
X0421021Y0131920D01*
X0420294Y0131619D01*
X0419568Y0131920D01*
X0415643Y0131920D01*
X0414967Y0131641D01*
X0414916Y0131619D01*
X0414190Y0131920D01*
X0409197Y0131920D01*
X0408522Y0131641D01*
X0407937Y0131398D01*
X0406677Y0131920D01*
X0404295Y0131920D01*
X0404219Y0132105D01*
X0402953Y0133370D01*
X0401299Y0134055D01*
X0395239Y0134055D01*
X0393585Y0133370D01*
X0392319Y0132105D01*
X0391634Y0130451D01*
X0391634Y0130299D01*
X0391328Y0131037D01*
X0390179Y0132186D01*
X0388994Y0133370D01*
X0388994Y0133370D01*
X0388994Y0133370D01*
X0388730Y0133480D01*
X0387341Y0134055D01*
X0383415Y0134055D01*
X0382155Y0133534D01*
X0382129Y0133544D01*
X0380895Y0134055D01*
X0376970Y0134055D01*
X0375710Y0133534D01*
X0374450Y0134055D01*
X0369457Y0134055D01*
X0368730Y0133755D01*
X0368004Y0134055D01*
X0364079Y0134055D01*
X0363352Y0133755D01*
X0362626Y0134055D01*
X0360836Y0134055D01*
X0359596Y0133542D01*
X0358356Y0134055D01*
X0356566Y0134055D01*
X0355839Y0133755D01*
X0355113Y0134055D01*
X0350120Y0134055D01*
X0348466Y0133370D01*
X0347200Y0132105D01*
X0346515Y0130451D01*
X0346515Y0124390D01*
X0346515Y0122255D01*
X0347200Y0120601D01*
X0348466Y0119335D01*
X0350120Y0118650D01*
X0351910Y0118650D01*
X0353564Y0119335D01*
X0354238Y0120009D01*
X0354912Y0119335D01*
X0356566Y0118650D01*
X0358356Y0118650D01*
X0359596Y0119164D01*
X0360836Y0118650D01*
X0362626Y0118650D01*
X0363352Y0118951D01*
X0364079Y0118650D01*
X0368004Y0118650D01*
X0368730Y0118951D01*
X0369457Y0118650D01*
X0374450Y0118650D01*
X0375710Y0119172D01*
X0376970Y0118650D01*
X0380895Y0118650D01*
X0382155Y0119172D01*
X0383415Y0118650D01*
X0387341Y0118650D01*
X0388730Y0119226D01*
X0388994Y0119335D01*
X0388994Y0119335D01*
X0390062Y0120403D01*
X0391310Y0121651D01*
X0391328Y0121668D01*
X0391328Y0121669D01*
X0391634Y0122407D01*
X0391634Y0122255D01*
X0392319Y0120601D01*
X0393585Y0119335D01*
X0395239Y0118650D01*
X0401299Y0118650D01*
X0401492Y0118730D01*
X0401684Y0118650D01*
X0403474Y0118650D01*
X0404714Y0119164D01*
X0405954Y0118650D01*
X0407745Y0118650D01*
X0407937Y0118730D01*
X0408130Y0118650D01*
X0413123Y0118650D01*
X0414383Y0119172D01*
X0415643Y0118650D01*
X0419568Y0118650D01*
X0420294Y0118951D01*
X0421021Y0118650D01*
X0422811Y0118650D01*
X0422983Y0118721D01*
X0423156Y0118650D01*
X0424946Y0118650D01*
X0425118Y0118721D01*
X0425291Y0118650D01*
X0427081Y0118650D01*
X0427274Y0118730D01*
X0427466Y0118650D01*
X0432459Y0118650D01*
X0433185Y0118951D01*
X0433912Y0118650D01*
X0437837Y0118650D01*
X0438557Y0118948D01*
X0439276Y0118650D01*
X0443202Y0118650D01*
X0443928Y0118951D01*
X0444654Y0118650D01*
X0450715Y0118650D01*
X0450907Y0118730D01*
X0451100Y0118650D01*
X0454536Y0118650D01*
X0454612Y0118466D01*
X0455878Y0117200D01*
X0457532Y0116515D01*
X0460390Y0116515D01*
X0462043Y0117200D01*
X0463111Y0118268D01*
X0463494Y0118650D01*
X0463632Y0118650D01*
X0464872Y0119164D01*
X0466112Y0118650D01*
X0467903Y0118650D01*
X0469163Y0119172D01*
X0470423Y0118650D01*
X0472213Y0118650D01*
X0473867Y0119335D01*
X0475133Y0120601D01*
X0475818Y0122255D01*
X0475818Y0124045D01*
X0475304Y0125285D01*
X0475602Y0126004D01*
X0477892Y0121424D01*
X0478074Y0120878D01*
X0478289Y0120630D01*
X0478436Y0120337D01*
X0478870Y0119960D01*
X0479247Y0119525D01*
X0479540Y0119379D01*
X0479788Y0119164D01*
X0480334Y0118982D01*
X0480848Y0118725D01*
X0481175Y0118702D01*
X0481486Y0118598D01*
X0482060Y0118639D01*
X0482634Y0118598D01*
X0482945Y0118702D01*
X0483272Y0118725D01*
X0483787Y0118982D01*
X0484278Y0119146D01*
X0485476Y0118650D01*
X0491536Y0118650D01*
X0491729Y0118730D01*
X0491921Y0118650D01*
X0494779Y0118650D01*
X0494961Y0118726D01*
X0495144Y0118650D01*
X0501204Y0118650D01*
X0501397Y0118730D01*
X0501589Y0118650D01*
X0503380Y0118650D01*
X0504620Y0119164D01*
X0505860Y0118650D01*
X0507650Y0118650D01*
X0509304Y0119335D01*
X0510570Y0120601D01*
X0511255Y0122255D01*
X0511255Y0127248D01*
X0510570Y0128902D01*
X0509304Y0130168D01*
X0508236Y0131235D01*
X0506582Y0131920D01*
X0506376Y0131920D01*
X0506299Y0132105D01*
X0505033Y0133370D01*
X0507391Y0131585D02*
X0520715Y0131585D01*
X0520715Y0129587D02*
X0509885Y0129587D01*
X0511114Y0127588D02*
X0520715Y0127588D01*
X0520715Y0125590D02*
X0511255Y0125590D01*
X0511255Y0123591D02*
X0520715Y0123591D01*
X0520715Y0121593D02*
X0510980Y0121593D01*
X0509563Y0119594D02*
X0520715Y0119594D01*
X0520715Y0117596D02*
X0462439Y0117596D01*
X0455482Y0117596D02*
X0340715Y0117596D01*
X0340715Y0119594D02*
X0348207Y0119594D01*
X0346790Y0121593D02*
X0340715Y0121593D01*
X0340715Y0123591D02*
X0346515Y0123591D01*
X0346515Y0125590D02*
X0340715Y0125590D01*
X0340715Y0127588D02*
X0346515Y0127588D01*
X0346515Y0129587D02*
X0340715Y0129587D01*
X0340715Y0131585D02*
X0346985Y0131585D01*
X0348981Y0133584D02*
X0340715Y0133584D01*
X0359495Y0133584D02*
X0359697Y0133584D01*
X0354653Y0119594D02*
X0353823Y0119594D01*
X0375589Y0133584D02*
X0375831Y0133584D01*
X0382034Y0133584D02*
X0382276Y0133584D01*
X0388480Y0133584D02*
X0394099Y0133584D01*
X0392104Y0131585D02*
X0390780Y0131585D01*
X0391252Y0121593D02*
X0391908Y0121593D01*
X0390062Y0120403D02*
X0390062Y0120403D01*
X0389253Y0119594D02*
X0393326Y0119594D01*
X0402438Y0133584D02*
X0426327Y0133584D01*
X0430395Y0133584D02*
X0432772Y0133584D01*
X0437908Y0133584D02*
X0443515Y0133584D01*
X0456466Y0133584D02*
X0460703Y0133584D01*
X0464771Y0133584D02*
X0486472Y0133584D01*
X0484691Y0132105D02*
X0484691Y0132104D01*
X0482460Y0131585D02*
X0481661Y0131585D01*
X0478192Y0131585D02*
X0473517Y0131585D01*
X0475291Y0129587D02*
X0475904Y0129587D01*
X0475809Y0125590D02*
X0475430Y0125590D01*
X0475818Y0123591D02*
X0476809Y0123591D01*
X0477808Y0121593D02*
X0475543Y0121593D01*
X0474126Y0119594D02*
X0479188Y0119594D01*
X0492536Y0131585D02*
X0493840Y0131585D01*
X0496140Y0133584D02*
X0490540Y0133584D01*
X0500208Y0133584D02*
X0500450Y0133584D01*
X0408388Y0131585D02*
X0407486Y0131585D01*
M02*
