G75*
%MOIN*%
%OFA0B0*%
%FSLAX25Y25*%
%IPPOS*%
%LPD*%
%AMOC8*
5,1,8,0,0,1.08239X$1,22.5*
%
%ADD10C,0.12611*%
%ADD11C,0.08200*%
%ADD12R,0.08200X0.08200*%
%ADD13C,0.13398*%
%ADD14OC8,0.08200*%
%ADD15C,0.08400*%
%ADD16OC8,0.08400*%
%ADD17OC8,0.07100*%
%ADD18OC8,0.06400*%
%ADD19C,0.07800*%
%ADD20C,0.07200*%
%ADD21C,0.06400*%
%ADD22C,0.07900*%
%ADD23OC8,0.07556*%
D10*
X0177044Y0125970D03*
X0177044Y0410616D03*
X0653816Y0410616D03*
X0653816Y0125970D03*
D11*
X0526965Y0199100D03*
X0516965Y0199100D03*
X0626965Y0214100D03*
X0626965Y0226600D03*
X0656965Y0226600D03*
X0656965Y0214100D03*
X0656965Y0301600D03*
X0626965Y0301600D03*
X0526965Y0369100D03*
X0516965Y0369100D03*
X0426965Y0356895D03*
X0396965Y0356895D03*
X0396965Y0369100D03*
X0386965Y0369100D03*
X0376965Y0369100D03*
X0366965Y0369100D03*
X0356965Y0369100D03*
X0346965Y0369100D03*
X0336965Y0369100D03*
X0326965Y0369100D03*
X0326965Y0359100D03*
X0336965Y0359100D03*
X0346965Y0359100D03*
X0346965Y0349100D03*
X0336965Y0349100D03*
X0326965Y0349100D03*
X0310965Y0349100D03*
X0300965Y0349100D03*
X0290965Y0349100D03*
X0290965Y0359100D03*
X0290965Y0369100D03*
X0280965Y0369100D03*
X0270965Y0369100D03*
X0260965Y0369100D03*
X0250965Y0369100D03*
X0240965Y0369100D03*
X0300965Y0369100D03*
X0300965Y0359100D03*
X0310965Y0359100D03*
X0310965Y0369100D03*
X0179465Y0439395D03*
X0179465Y0469395D03*
X0266965Y0459395D03*
X0276965Y0459395D03*
X0271965Y0469395D03*
X0281965Y0469395D03*
X0291965Y0469395D03*
X0286965Y0459395D03*
X0296965Y0459395D03*
X0366965Y0459395D03*
X0376965Y0459395D03*
X0386965Y0459395D03*
X0396965Y0459395D03*
X0391965Y0469395D03*
X0381965Y0469395D03*
X0371965Y0469395D03*
X0466965Y0459395D03*
X0476965Y0459395D03*
X0486965Y0459395D03*
X0496965Y0459395D03*
X0491965Y0469395D03*
X0481965Y0469395D03*
X0471965Y0469395D03*
X0566965Y0459395D03*
X0576965Y0459395D03*
X0586965Y0459395D03*
X0596965Y0459395D03*
X0591965Y0469395D03*
X0581965Y0469395D03*
X0571965Y0469395D03*
X0326965Y0179100D03*
X0316965Y0179100D03*
X0306965Y0179100D03*
X0296965Y0179100D03*
X0286965Y0179100D03*
X0276965Y0179100D03*
D12*
X0301965Y0469395D03*
X0401965Y0469395D03*
X0501965Y0469395D03*
X0601965Y0469395D03*
D13*
X0606965Y0494395D03*
X0561965Y0494395D03*
X0506965Y0494395D03*
X0461965Y0494395D03*
X0406965Y0494395D03*
X0361965Y0494395D03*
X0306965Y0494395D03*
X0261965Y0494395D03*
D14*
X0516965Y0249100D03*
X0526965Y0249100D03*
X0526965Y0239100D03*
X0516965Y0239100D03*
D15*
X0314465Y0431600D03*
X0274465Y0431600D03*
X0239465Y0456600D03*
D16*
X0225715Y0456600D03*
X0260715Y0431600D03*
X0300715Y0431600D03*
D17*
X0166965Y0271600D03*
X0146965Y0271600D03*
X0206965Y0256600D03*
X0226965Y0256600D03*
X0266965Y0256600D03*
X0286965Y0256600D03*
X0331965Y0256600D03*
X0351965Y0256600D03*
X0391965Y0256600D03*
X0411965Y0256600D03*
X0451965Y0256600D03*
X0471965Y0256600D03*
X0551965Y0376600D03*
X0551965Y0396600D03*
X0606965Y0396600D03*
X0606965Y0376600D03*
X0681965Y0376600D03*
X0681965Y0396600D03*
D18*
X0681965Y0411600D03*
X0681965Y0421600D03*
X0606965Y0421600D03*
X0606965Y0411600D03*
X0551965Y0411600D03*
X0551965Y0421600D03*
X0496965Y0256600D03*
X0486965Y0256600D03*
X0436965Y0256600D03*
X0426965Y0256600D03*
X0376965Y0256600D03*
X0366965Y0256600D03*
X0311965Y0256600D03*
X0301965Y0256600D03*
X0251965Y0256600D03*
X0241965Y0256600D03*
X0196965Y0276600D03*
X0186965Y0276600D03*
D19*
X0241965Y0401600D03*
X0281965Y0401600D03*
X0296965Y0401600D03*
X0336965Y0401600D03*
X0351965Y0411600D03*
X0391965Y0411600D03*
X0411965Y0411600D03*
X0431965Y0426600D03*
X0451965Y0411600D03*
X0471965Y0426600D03*
X0241670Y0426600D03*
X0201670Y0426600D03*
D20*
X0260015Y0316895D02*
X0266415Y0316895D01*
X0266415Y0306895D02*
X0260015Y0306895D01*
X0260015Y0296895D02*
X0266415Y0296895D01*
X0292765Y0296600D02*
X0299165Y0296600D01*
X0299165Y0306600D02*
X0292765Y0306600D01*
X0292765Y0316600D02*
X0299165Y0316600D01*
X0323765Y0316600D02*
X0330165Y0316600D01*
X0330165Y0306600D02*
X0323765Y0306600D01*
X0323765Y0296600D02*
X0330165Y0296600D01*
X0353765Y0296600D02*
X0360165Y0296600D01*
X0360165Y0306600D02*
X0353765Y0306600D01*
X0353765Y0316600D02*
X0360165Y0316600D01*
X0383765Y0316600D02*
X0390165Y0316600D01*
X0390165Y0306600D02*
X0383765Y0306600D01*
X0383765Y0296600D02*
X0390165Y0296600D01*
X0418765Y0301600D02*
X0425165Y0301600D01*
X0425165Y0311600D02*
X0418765Y0311600D01*
X0418765Y0321600D02*
X0425165Y0321600D01*
X0421965Y0239800D02*
X0421965Y0233400D01*
X0411965Y0233400D02*
X0411965Y0239800D01*
X0401965Y0239800D02*
X0401965Y0233400D01*
X0361965Y0233400D02*
X0361965Y0239800D01*
X0351965Y0239800D02*
X0351965Y0233400D01*
X0341965Y0233400D02*
X0341965Y0239800D01*
X0296965Y0239800D02*
X0296965Y0233400D01*
X0286965Y0233400D02*
X0286965Y0239800D01*
X0276965Y0239800D02*
X0276965Y0233400D01*
X0236965Y0233400D02*
X0236965Y0239800D01*
X0226965Y0239800D02*
X0226965Y0233400D01*
X0216965Y0233400D02*
X0216965Y0239800D01*
X0176965Y0248400D02*
X0176965Y0254800D01*
X0166965Y0254800D02*
X0166965Y0248400D01*
X0156965Y0248400D02*
X0156965Y0254800D01*
X0461965Y0239800D02*
X0461965Y0233400D01*
X0471965Y0233400D02*
X0471965Y0239800D01*
X0481965Y0239800D02*
X0481965Y0233400D01*
X0568765Y0386600D02*
X0575165Y0386600D01*
X0575165Y0396600D02*
X0568765Y0396600D01*
X0568765Y0406600D02*
X0575165Y0406600D01*
X0623765Y0401600D02*
X0630165Y0401600D01*
X0630165Y0391600D02*
X0623765Y0391600D01*
X0623765Y0411600D02*
X0630165Y0411600D01*
X0698765Y0411600D02*
X0705165Y0411600D01*
X0705165Y0401600D02*
X0698765Y0401600D01*
X0698765Y0391600D02*
X0705165Y0391600D01*
D21*
X0646965Y0282200D02*
X0646965Y0276600D01*
X0636965Y0276600D02*
X0636965Y0282200D01*
X0626965Y0282200D02*
X0626965Y0276600D01*
X0616965Y0276600D02*
X0616965Y0282200D01*
X0616965Y0246600D02*
X0616965Y0241000D01*
X0626965Y0241000D02*
X0626965Y0246600D01*
X0636965Y0246600D02*
X0636965Y0241000D01*
X0646965Y0241000D02*
X0646965Y0246600D01*
X0410715Y0428800D02*
X0410715Y0434400D01*
X0403215Y0434400D02*
X0403215Y0428800D01*
X0380715Y0428800D02*
X0380715Y0434400D01*
X0373215Y0434400D02*
X0373215Y0428800D01*
X0428215Y0453800D02*
X0428215Y0459400D01*
X0435715Y0459400D02*
X0435715Y0453800D01*
D22*
X0152936Y0449710D02*
X0145836Y0449710D01*
X0145836Y0469395D02*
X0152936Y0469395D01*
X0152936Y0489080D02*
X0145836Y0489080D01*
X0209457Y0149571D02*
X0209457Y0142471D01*
X0229142Y0142471D02*
X0229142Y0149571D01*
X0248827Y0149571D02*
X0248827Y0142471D01*
X0268512Y0142471D02*
X0268512Y0149571D01*
X0721407Y0140498D02*
X0728507Y0140498D01*
X0728507Y0160183D02*
X0721407Y0160183D01*
X0721407Y0179868D02*
X0728507Y0179868D01*
X0728507Y0199553D02*
X0721407Y0199553D01*
X0721486Y0239710D02*
X0728586Y0239710D01*
X0728586Y0259395D02*
X0721486Y0259395D01*
X0721486Y0279080D02*
X0728586Y0279080D01*
D23*
X0681965Y0321600D03*
X0540565Y0352800D03*
X0526165Y0378900D03*
X0496465Y0406800D03*
X0471065Y0400500D03*
X0542915Y0436400D03*
X0521665Y0468900D03*
X0432065Y0476100D03*
X0359315Y0433400D03*
X0327265Y0441900D03*
X0398590Y0345600D03*
X0388865Y0338400D03*
X0409390Y0320675D03*
X0406965Y0306600D03*
X0372665Y0306900D03*
X0341965Y0296600D03*
X0250665Y0330300D03*
X0326965Y0206600D03*
X0471065Y0341500D03*
X0540565Y0272700D03*
X0681965Y0206600D03*
M02*
