%
M48
M72
T01C0.02756
T02C0.03200
T03C0.03543
T04C0.03937
T05C0.04000
T06C0.04700
T07C0.11811
T08C0.12598
%
T01
X326965Y206600
X341965Y296600
X372665Y306900
X406965Y306600
X409390Y320675
X388865Y338400
X398590Y345600
X471065Y341500
X526165Y378900
X540565Y352800
X471065Y400500
X496465Y406800
X542915Y436400
X521665Y468900
X432065Y476100
X359315Y433400
X327265Y441900
X250665Y330300
X540565Y272700
X681965Y321600
X681965Y206600
T02
X646965Y246600
X636965Y246600
X626965Y246600
X616965Y246600
X616965Y276600
X626965Y276600
X636965Y276600
X646965Y276600
X681965Y376600
X681965Y396600
X681965Y411600
X681965Y421600
X606965Y421600
X606965Y411600
X606965Y396600
X606965Y376600
X551965Y376600
X551965Y396600
X551965Y411600
X551965Y421600
X435715Y456600
X428215Y456600
X410715Y431600
X403215Y431600
X380715Y431600
X373215Y431600
X196965Y276600
X186965Y276600
X166965Y271600
X146965Y271600
X206965Y256600
X226965Y256600
X241965Y256600
X251965Y256600
X266965Y256600
X286965Y256600
X301965Y256600
X311965Y256600
X331965Y256600
X351965Y256600
X366965Y256600
X376965Y256600
X391965Y256600
X411965Y256600
X426965Y256600
X436965Y256600
X451965Y256600
X471965Y256600
X486965Y256600
X496965Y256600
T03
X626965Y226600
X626965Y214100
X656965Y214100
X656965Y226600
X656965Y301600
X626965Y301600
X426965Y356895
X396965Y356895
X346965Y359100
X336965Y359100
X326965Y359100
X326965Y349100
X336965Y349100
X346965Y349100
X310965Y349100
X300965Y349100
X290965Y349100
X290965Y359100
X300965Y359100
X310965Y359100
X179465Y439395
X179465Y469395
T04
X266965Y459395
X276965Y459395
X271965Y469395
X281965Y469395
X291965Y469395
X301965Y469395
X296965Y459395
X286965Y459395
X366965Y459395
X376965Y459395
X386965Y459395
X396965Y459395
X391965Y469395
X401965Y469395
X381965Y469395
X371965Y469395
X466965Y459395
X476965Y459395
X486965Y459395
X496965Y459395
X491965Y469395
X481965Y469395
X471965Y469395
X501965Y469395
X566965Y459395
X576965Y459395
X586965Y459395
X596965Y459395
X591965Y469395
X581965Y469395
X571965Y469395
X601965Y469395
T05
X626965Y411600
X626965Y401600
X626965Y391600
X571965Y386600
X571965Y396600
X571965Y406600
X526965Y369100
X516965Y369100
X451965Y411600
X431965Y426600
X411965Y411600
X391965Y411600
X351965Y411600
X336965Y401600
X296965Y401600
X281965Y401600
X241965Y401600
X241670Y426600
X260715Y431600
X274465Y431600
X300715Y431600
X314465Y431600
X239465Y456600
X225715Y456600
X201670Y426600
X240965Y369100
X250965Y369100
X260965Y369100
X270965Y369100
X280965Y369100
X290965Y369100
X300965Y369100
X310965Y369100
X326965Y369100
X336965Y369100
X346965Y369100
X356965Y369100
X366965Y369100
X376965Y369100
X386965Y369100
X396965Y369100
X421965Y321600
X421965Y311600
X421965Y301600
X386965Y296600
X386965Y306600
X386965Y316600
X356965Y316600
X356965Y306600
X356965Y296600
X326965Y296600
X326965Y306600
X326965Y316600
X295965Y316600
X295965Y306600
X295965Y296600
X263215Y296895
X263215Y306895
X263215Y316895
X176965Y251600
X166965Y251600
X156965Y251600
X216965Y236600
X226965Y236600
X236965Y236600
X276965Y236600
X286965Y236600
X296965Y236600
X341965Y236600
X351965Y236600
X361965Y236600
X401965Y236600
X411965Y236600
X421965Y236600
X461965Y236600
X471965Y236600
X481965Y236600
X516965Y239100
X526965Y239100
X526965Y249100
X516965Y249100
X516965Y199100
X526965Y199100
X326965Y179100
X316965Y179100
X306965Y179100
X296965Y179100
X286965Y179100
X276965Y179100
X471965Y426600
X701965Y411600
X701965Y401600
X701965Y391600
T06
X725036Y279080
X725036Y259395
X725036Y239710
X724957Y199553
X724957Y179868
X724957Y160183
X724957Y140498
X268512Y146021
X248827Y146021
X229142Y146021
X209457Y146021
X149386Y449710
X149386Y469395
X149386Y489080
T07
X177044Y125970
X177044Y410616
X653816Y410616
X653816Y125970
T08
X606965Y494395
X561965Y494395
X506965Y494395
X461965Y494395
X406965Y494395
X361965Y494395
X306965Y494395
X261965Y494395
M30
