G75*
%MOIN*%
%OFA0B0*%
%FSLAX25Y25*%
%IPPOS*%
%LPD*%
%AMOC8*
5,1,8,0,0,1.08239X$1,22.5*
%
%ADD10C,0.07400*%
%ADD11R,0.07400X0.07400*%
%ADD12OC8,0.07400*%
%ADD13C,0.07600*%
%ADD14OC8,0.07600*%
%ADD15OC8,0.06300*%
%ADD16OC8,0.05600*%
%ADD17C,0.06400*%
%ADD18C,0.05600*%
%ADD19C,0.07100*%
%ADD20C,0.04000*%
%ADD21OC8,0.06756*%
%ADD22C,0.02000*%
%ADD23C,0.02400*%
%ADD24C,0.01600*%
D10*
X0276965Y0179100D03*
X0286965Y0179100D03*
X0296965Y0179100D03*
X0306965Y0179100D03*
X0316965Y0179100D03*
X0326965Y0179100D03*
X0516965Y0199100D03*
X0526965Y0199100D03*
X0626965Y0214100D03*
X0626965Y0226600D03*
X0656965Y0226600D03*
X0656965Y0214100D03*
X0656965Y0301600D03*
X0626965Y0301600D03*
X0526965Y0369100D03*
X0516965Y0369100D03*
X0451965Y0411600D03*
X0431965Y0426600D03*
X0411965Y0411600D03*
X0391965Y0411600D03*
X0351965Y0411600D03*
X0336965Y0401600D03*
X0296965Y0401600D03*
X0281965Y0401600D03*
X0241965Y0401600D03*
X0241670Y0426600D03*
X0201670Y0426600D03*
X0179465Y0439395D03*
X0179465Y0469395D03*
X0266965Y0459395D03*
X0276965Y0459395D03*
X0271965Y0469395D03*
X0281965Y0469395D03*
X0291965Y0469395D03*
X0286965Y0459395D03*
X0296965Y0459395D03*
X0366965Y0459395D03*
X0376965Y0459395D03*
X0386965Y0459395D03*
X0396965Y0459395D03*
X0391965Y0469395D03*
X0381965Y0469395D03*
X0371965Y0469395D03*
X0466965Y0459395D03*
X0476965Y0459395D03*
X0486965Y0459395D03*
X0496965Y0459395D03*
X0491965Y0469395D03*
X0481965Y0469395D03*
X0471965Y0469395D03*
X0471965Y0426600D03*
X0396965Y0369100D03*
X0386965Y0369100D03*
X0376965Y0369100D03*
X0366965Y0369100D03*
X0356965Y0369100D03*
X0346965Y0369100D03*
X0336965Y0369100D03*
X0326965Y0369100D03*
X0326965Y0359100D03*
X0336965Y0359100D03*
X0346965Y0359100D03*
X0346965Y0349100D03*
X0336965Y0349100D03*
X0326965Y0349100D03*
X0310965Y0349100D03*
X0300965Y0349100D03*
X0290965Y0349100D03*
X0290965Y0359100D03*
X0290965Y0369100D03*
X0280965Y0369100D03*
X0270965Y0369100D03*
X0260965Y0369100D03*
X0250965Y0369100D03*
X0240965Y0369100D03*
X0300965Y0369100D03*
X0300965Y0359100D03*
X0310965Y0359100D03*
X0310965Y0369100D03*
X0396965Y0356895D03*
X0426965Y0356895D03*
X0566965Y0459395D03*
X0576965Y0459395D03*
X0586965Y0459395D03*
X0596965Y0459395D03*
X0591965Y0469395D03*
X0581965Y0469395D03*
X0571965Y0469395D03*
D11*
X0601965Y0469395D03*
X0501965Y0469395D03*
X0401965Y0469395D03*
X0301965Y0469395D03*
D12*
X0516965Y0249100D03*
X0526965Y0249100D03*
X0526965Y0239100D03*
X0516965Y0239100D03*
D13*
X0314465Y0431600D03*
X0274465Y0431600D03*
X0239465Y0456600D03*
D14*
X0225715Y0456600D03*
X0260715Y0431600D03*
X0300715Y0431600D03*
D15*
X0166965Y0271600D03*
X0146965Y0271600D03*
X0206965Y0256600D03*
X0226965Y0256600D03*
X0266965Y0256600D03*
X0286965Y0256600D03*
X0331965Y0256600D03*
X0351965Y0256600D03*
X0391965Y0256600D03*
X0411965Y0256600D03*
X0451965Y0256600D03*
X0471965Y0256600D03*
X0551965Y0376600D03*
X0551965Y0396600D03*
X0606965Y0396600D03*
X0606965Y0376600D03*
X0681965Y0376600D03*
X0681965Y0396600D03*
D16*
X0681965Y0411600D03*
X0681965Y0421600D03*
X0606965Y0421600D03*
X0606965Y0411600D03*
X0551965Y0411600D03*
X0551965Y0421600D03*
X0496965Y0256600D03*
X0486965Y0256600D03*
X0436965Y0256600D03*
X0426965Y0256600D03*
X0376965Y0256600D03*
X0366965Y0256600D03*
X0311965Y0256600D03*
X0301965Y0256600D03*
X0251965Y0256600D03*
X0241965Y0256600D03*
X0196965Y0276600D03*
X0186965Y0276600D03*
D17*
X0176965Y0254800D02*
X0176965Y0248400D01*
X0166965Y0248400D02*
X0166965Y0254800D01*
X0156965Y0254800D02*
X0156965Y0248400D01*
X0216965Y0239800D02*
X0216965Y0233400D01*
X0226965Y0233400D02*
X0226965Y0239800D01*
X0236965Y0239800D02*
X0236965Y0233400D01*
X0276965Y0233400D02*
X0276965Y0239800D01*
X0286965Y0239800D02*
X0286965Y0233400D01*
X0296965Y0233400D02*
X0296965Y0239800D01*
X0341965Y0239800D02*
X0341965Y0233400D01*
X0351965Y0233400D02*
X0351965Y0239800D01*
X0361965Y0239800D02*
X0361965Y0233400D01*
X0401965Y0233400D02*
X0401965Y0239800D01*
X0411965Y0239800D02*
X0411965Y0233400D01*
X0421965Y0233400D02*
X0421965Y0239800D01*
X0461965Y0239800D02*
X0461965Y0233400D01*
X0471965Y0233400D02*
X0471965Y0239800D01*
X0481965Y0239800D02*
X0481965Y0233400D01*
X0390165Y0296600D02*
X0383765Y0296600D01*
X0383765Y0306600D02*
X0390165Y0306600D01*
X0390165Y0316600D02*
X0383765Y0316600D01*
X0360165Y0316600D02*
X0353765Y0316600D01*
X0353765Y0306600D02*
X0360165Y0306600D01*
X0360165Y0296600D02*
X0353765Y0296600D01*
X0330165Y0296600D02*
X0323765Y0296600D01*
X0323765Y0306600D02*
X0330165Y0306600D01*
X0330165Y0316600D02*
X0323765Y0316600D01*
X0299165Y0316600D02*
X0292765Y0316600D01*
X0292765Y0306600D02*
X0299165Y0306600D01*
X0299165Y0296600D02*
X0292765Y0296600D01*
X0266415Y0296895D02*
X0260015Y0296895D01*
X0260015Y0306895D02*
X0266415Y0306895D01*
X0266415Y0316895D02*
X0260015Y0316895D01*
X0418765Y0321600D02*
X0425165Y0321600D01*
X0425165Y0311600D02*
X0418765Y0311600D01*
X0418765Y0301600D02*
X0425165Y0301600D01*
X0568765Y0386600D02*
X0575165Y0386600D01*
X0575165Y0396600D02*
X0568765Y0396600D01*
X0568765Y0406600D02*
X0575165Y0406600D01*
X0623765Y0401600D02*
X0630165Y0401600D01*
X0630165Y0391600D02*
X0623765Y0391600D01*
X0623765Y0411600D02*
X0630165Y0411600D01*
X0698765Y0411600D02*
X0705165Y0411600D01*
X0705165Y0401600D02*
X0698765Y0401600D01*
X0698765Y0391600D02*
X0705165Y0391600D01*
D18*
X0646965Y0282200D02*
X0646965Y0276600D01*
X0636965Y0276600D02*
X0636965Y0282200D01*
X0626965Y0282200D02*
X0626965Y0276600D01*
X0616965Y0276600D02*
X0616965Y0282200D01*
X0616965Y0246600D02*
X0616965Y0241000D01*
X0626965Y0241000D02*
X0626965Y0246600D01*
X0636965Y0246600D02*
X0636965Y0241000D01*
X0646965Y0241000D02*
X0646965Y0246600D01*
X0410715Y0428800D02*
X0410715Y0434400D01*
X0403215Y0434400D02*
X0403215Y0428800D01*
X0380715Y0428800D02*
X0380715Y0434400D01*
X0373215Y0434400D02*
X0373215Y0428800D01*
X0428215Y0453800D02*
X0428215Y0459400D01*
X0435715Y0459400D02*
X0435715Y0453800D01*
D19*
X0152936Y0449710D02*
X0145836Y0449710D01*
X0145836Y0469395D02*
X0152936Y0469395D01*
X0152936Y0489080D02*
X0145836Y0489080D01*
X0209457Y0149571D02*
X0209457Y0142471D01*
X0229142Y0142471D02*
X0229142Y0149571D01*
X0248827Y0149571D02*
X0248827Y0142471D01*
X0268512Y0142471D02*
X0268512Y0149571D01*
X0721407Y0140498D02*
X0728507Y0140498D01*
X0728507Y0160183D02*
X0721407Y0160183D01*
X0721407Y0179868D02*
X0728507Y0179868D01*
X0728507Y0199553D02*
X0721407Y0199553D01*
X0721486Y0239710D02*
X0728586Y0239710D01*
X0728586Y0259395D02*
X0721486Y0259395D01*
X0721486Y0279080D02*
X0728586Y0279080D01*
D20*
X0681965Y0321600D02*
X0681965Y0376600D01*
X0656965Y0376600D01*
X0626965Y0391600D01*
X0621965Y0391600D01*
X0606965Y0376600D01*
X0591965Y0376600D01*
X0571965Y0386600D01*
X0561965Y0386600D01*
X0551965Y0376600D01*
X0681965Y0376600D02*
X0696965Y0391600D01*
X0701965Y0391600D01*
X0681965Y0206600D02*
X0699012Y0199553D01*
X0724957Y0199553D01*
X0326965Y0206600D02*
X0306965Y0211600D01*
X0276965Y0226600D01*
X0276965Y0236600D01*
X0276965Y0246600D01*
X0266965Y0256600D01*
X0276965Y0226600D02*
X0256965Y0216600D01*
X0236965Y0216600D01*
X0216965Y0226600D01*
X0196965Y0216600D01*
X0181965Y0216600D01*
X0156965Y0231600D01*
X0156965Y0251600D01*
X0156265Y0252000D01*
X0147265Y0261000D01*
X0147265Y0270900D01*
X0146965Y0271600D01*
X0206965Y0256600D02*
X0216965Y0246600D01*
X0216965Y0236600D01*
X0216965Y0226600D01*
D21*
X0326965Y0206600D03*
X0341965Y0296600D03*
X0372665Y0306900D03*
X0406965Y0306600D03*
X0409390Y0320675D03*
X0388865Y0338400D03*
X0398590Y0345600D03*
X0471065Y0341500D03*
X0526165Y0378900D03*
X0540565Y0352800D03*
X0471065Y0400500D03*
X0496465Y0406800D03*
X0542915Y0436400D03*
X0521665Y0468900D03*
X0432065Y0476100D03*
X0359315Y0433400D03*
X0327265Y0441900D03*
X0250665Y0330300D03*
X0540565Y0272700D03*
X0681965Y0321600D03*
X0681965Y0206600D03*
D22*
X0688140Y0145350D02*
X0717993Y0140498D01*
X0724957Y0140498D01*
X0724165Y0141300D01*
X0688140Y0145350D02*
X0361015Y0145350D01*
X0327265Y0179100D01*
X0326965Y0179100D01*
X0297565Y0236700D02*
X0296965Y0236600D01*
X0297565Y0236700D02*
X0311965Y0251100D01*
X0311965Y0256600D01*
X0361965Y0236600D02*
X0376965Y0251600D01*
X0376965Y0256600D01*
X0421965Y0236600D02*
X0436965Y0251600D01*
X0436965Y0256600D01*
X0437065Y0257400D01*
X0437065Y0275150D01*
X0461365Y0294450D01*
X0461365Y0406000D01*
X0451965Y0411600D01*
X0452365Y0412200D01*
X0451965Y0411600D02*
X0451465Y0412200D01*
X0431565Y0412200D01*
X0412665Y0431100D01*
X0410965Y0431100D01*
X0410715Y0431600D01*
X0403765Y0431100D02*
X0403215Y0431600D01*
X0402865Y0432000D01*
X0387565Y0447300D01*
X0387565Y0459000D01*
X0386965Y0459395D01*
X0376965Y0459395D02*
X0376765Y0459000D01*
X0374065Y0456300D01*
X0374065Y0440100D01*
X0383065Y0440100D01*
X0386665Y0436500D01*
X0386665Y0427500D01*
X0407915Y0405000D01*
X0407915Y0342900D01*
X0404665Y0338400D01*
X0388865Y0338400D01*
X0398590Y0345600D02*
X0401965Y0348075D01*
X0403765Y0351225D01*
X0403765Y0400500D01*
X0392965Y0411300D01*
X0391965Y0411600D01*
X0391165Y0412200D01*
X0381265Y0422100D01*
X0381265Y0431100D01*
X0380715Y0431600D01*
X0374065Y0432000D02*
X0373215Y0431600D01*
X0373165Y0431100D01*
X0354265Y0412200D01*
X0352465Y0412200D01*
X0351965Y0411600D01*
X0336265Y0409500D02*
X0336265Y0402300D01*
X0336965Y0401600D01*
X0336265Y0409500D02*
X0314665Y0431100D01*
X0314465Y0431600D01*
X0313765Y0432000D01*
X0313765Y0451800D01*
X0302065Y0463500D01*
X0302065Y0468900D01*
X0301965Y0469395D01*
X0294865Y0472500D02*
X0294865Y0473400D01*
X0297565Y0476100D01*
X0306565Y0476100D01*
X0327265Y0455400D01*
X0327265Y0441900D01*
X0300715Y0431600D02*
X0300265Y0431100D01*
X0300265Y0405000D01*
X0297565Y0402300D01*
X0296965Y0401600D01*
X0297565Y0401400D01*
X0317365Y0381600D01*
X0317365Y0349200D01*
X0341665Y0319900D01*
X0341665Y0309100D01*
X0339465Y0306900D01*
X0327665Y0306900D01*
X0326965Y0306600D01*
X0326965Y0316600D02*
X0326765Y0316800D01*
X0356465Y0316800D02*
X0356965Y0316600D01*
X0357365Y0306900D02*
X0356965Y0306600D01*
X0357365Y0306900D02*
X0372665Y0306900D01*
X0386965Y0306600D02*
X0387065Y0306000D01*
X0395165Y0306000D01*
X0416365Y0289800D01*
X0427165Y0289800D01*
X0441665Y0299300D01*
X0441665Y0322900D01*
X0412765Y0361800D01*
X0412765Y0411300D01*
X0411965Y0411600D01*
X0411865Y0412200D01*
X0403765Y0420300D01*
X0403765Y0431100D01*
X0428965Y0434700D02*
X0431665Y0432000D01*
X0431965Y0426600D01*
X0428965Y0434700D02*
X0428965Y0456300D01*
X0428215Y0456600D01*
X0428065Y0457200D01*
X0426265Y0459000D01*
X0397465Y0459000D01*
X0396965Y0459395D01*
X0401965Y0468900D02*
X0401965Y0469395D01*
X0401965Y0468900D02*
X0427165Y0468900D01*
X0435265Y0460800D01*
X0435265Y0457200D01*
X0435715Y0456600D01*
X0436165Y0456300D01*
X0445465Y0432000D01*
X0466265Y0432000D01*
X0471965Y0426600D01*
X0477565Y0441000D02*
X0509965Y0408600D01*
X0509965Y0255600D01*
X0516265Y0249300D01*
X0516965Y0249100D01*
X0516965Y0239100D02*
X0517165Y0238500D01*
X0523465Y0232200D01*
X0529765Y0232200D01*
X0533365Y0235800D01*
X0533365Y0423000D01*
X0497365Y0459000D01*
X0496965Y0459395D01*
X0487465Y0459000D02*
X0486965Y0459395D01*
X0487465Y0459000D02*
X0487465Y0446500D01*
X0526165Y0407800D01*
X0526165Y0378900D01*
X0496465Y0406800D02*
X0496465Y0257400D01*
X0496965Y0256600D01*
X0496965Y0251600D01*
X0481965Y0236600D01*
X0421965Y0311600D02*
X0421765Y0311900D01*
X0414790Y0311900D01*
X0409390Y0320675D01*
X0471065Y0341500D02*
X0471065Y0400500D01*
X0477565Y0441000D02*
X0477565Y0459000D01*
X0476965Y0459395D01*
X0481965Y0469395D02*
X0482065Y0469800D01*
X0491965Y0484700D01*
X0536165Y0484700D01*
X0551365Y0469500D01*
X0551365Y0422100D01*
X0551965Y0421600D01*
X0556965Y0421600D01*
X0571965Y0406600D01*
X0606965Y0421600D02*
X0616965Y0421600D01*
X0626965Y0411600D01*
X0681965Y0421600D02*
X0691965Y0421600D01*
X0701965Y0411600D01*
X0542915Y0436400D02*
X0542915Y0466300D01*
X0529365Y0478600D01*
X0499865Y0478600D01*
X0498065Y0476800D01*
X0495565Y0473400D01*
X0491965Y0469800D01*
X0491965Y0469395D01*
X0501965Y0469395D02*
X0502765Y0468900D01*
X0521665Y0468900D01*
X0432065Y0476100D02*
X0397465Y0476100D01*
X0395665Y0474300D01*
X0395665Y0473400D01*
X0392065Y0469800D01*
X0391965Y0469395D01*
X0381965Y0469395D02*
X0381265Y0469800D01*
X0374965Y0476100D01*
X0369565Y0476100D01*
X0359315Y0467100D01*
X0359315Y0433400D01*
X0374065Y0432000D02*
X0374065Y0440100D01*
X0300715Y0431600D02*
X0300265Y0432000D01*
X0297565Y0434700D01*
X0297565Y0459000D01*
X0296965Y0459395D01*
X0286965Y0459395D02*
X0286765Y0459000D01*
X0286765Y0457200D01*
X0261565Y0432000D01*
X0260715Y0431600D01*
X0260665Y0431100D01*
X0260665Y0420300D01*
X0241965Y0401600D01*
X0234565Y0394200D01*
X0234565Y0366300D01*
X0283965Y0306900D01*
X0295265Y0306900D01*
X0295965Y0306600D01*
X0295965Y0316600D02*
X0296165Y0316800D01*
X0263215Y0316895D02*
X0262865Y0317700D01*
X0262865Y0306900D02*
X0251065Y0306900D01*
X0225965Y0327000D01*
X0225965Y0401800D01*
X0248065Y0423900D01*
X0248065Y0434700D01*
X0252565Y0434700D01*
X0276865Y0459000D01*
X0276965Y0459395D01*
X0281965Y0469395D02*
X0281365Y0469800D01*
X0275065Y0476100D01*
X0258865Y0476100D01*
X0239965Y0457200D01*
X0239465Y0456600D01*
X0239065Y0457200D01*
X0232765Y0463500D01*
X0218865Y0463500D01*
X0189465Y0434100D01*
X0189465Y0424100D01*
X0196965Y0415350D01*
X0216965Y0415350D01*
X0228215Y0426600D01*
X0241670Y0426600D01*
X0248065Y0434700D02*
X0229165Y0453600D01*
X0202165Y0426600D01*
X0201670Y0426600D01*
X0225715Y0456600D02*
X0226465Y0456300D01*
X0229165Y0453600D01*
X0274465Y0431600D02*
X0275065Y0431100D01*
X0281365Y0424800D01*
X0281365Y0402300D01*
X0281965Y0401600D01*
X0336965Y0349100D02*
X0337165Y0348300D01*
X0263215Y0306895D02*
X0262865Y0306900D01*
X0196965Y0276600D02*
X0196765Y0276300D01*
X0196765Y0271800D01*
X0176965Y0252000D01*
X0176965Y0251600D01*
X0236965Y0236600D02*
X0251965Y0251600D01*
X0251965Y0256600D01*
X0291965Y0469395D02*
X0292165Y0469800D01*
X0294865Y0472500D01*
X0179465Y0469395D02*
X0178765Y0469800D01*
X0149965Y0469800D01*
X0149386Y0469395D01*
D23*
X0136365Y0291400D02*
X0136365Y0116000D01*
X0174435Y0116000D01*
X0173066Y0116367D01*
X0170716Y0117724D01*
X0168797Y0119642D01*
X0167441Y0121992D01*
X0166738Y0124613D01*
X0166738Y0127327D01*
X0167441Y0129948D01*
X0168797Y0132298D01*
X0170716Y0134217D01*
X0173066Y0135573D01*
X0175687Y0136276D01*
X0178401Y0136276D01*
X0181022Y0135573D01*
X0183372Y0134217D01*
X0185290Y0132298D01*
X0186647Y0129948D01*
X0187349Y0127327D01*
X0187349Y0124613D01*
X0186647Y0121992D01*
X0185290Y0119642D01*
X0183372Y0117724D01*
X0181022Y0116367D01*
X0179652Y0116000D01*
X0651207Y0116000D01*
X0649838Y0116367D01*
X0647488Y0117724D01*
X0645569Y0119642D01*
X0644212Y0121992D01*
X0643510Y0124613D01*
X0643510Y0127327D01*
X0644212Y0129948D01*
X0645569Y0132298D01*
X0647488Y0134217D01*
X0649838Y0135573D01*
X0652459Y0136276D01*
X0655172Y0136276D01*
X0657793Y0135573D01*
X0660143Y0134217D01*
X0662062Y0132298D01*
X0663419Y0129948D01*
X0664121Y0127327D01*
X0664121Y0124613D01*
X0663419Y0121992D01*
X0662062Y0119642D01*
X0660143Y0117724D01*
X0657793Y0116367D01*
X0656424Y0116000D01*
X0737801Y0116000D01*
X0737801Y0501216D01*
X0615280Y0501212D01*
X0615527Y0500965D01*
X0616935Y0498525D01*
X0617664Y0495804D01*
X0617664Y0492987D01*
X0616935Y0490266D01*
X0615527Y0487826D01*
X0613535Y0485834D01*
X0611095Y0484425D01*
X0608374Y0483696D01*
X0605557Y0483696D01*
X0602835Y0484425D01*
X0600396Y0485834D01*
X0598404Y0487826D01*
X0596995Y0490266D01*
X0596266Y0492987D01*
X0596266Y0495804D01*
X0596995Y0498525D01*
X0598404Y0500965D01*
X0598650Y0501211D01*
X0570281Y0501210D01*
X0570527Y0500965D01*
X0571935Y0498525D01*
X0572664Y0495804D01*
X0572664Y0492987D01*
X0571935Y0490266D01*
X0570527Y0487826D01*
X0568535Y0485834D01*
X0566095Y0484425D01*
X0563374Y0483696D01*
X0560557Y0483696D01*
X0557835Y0484425D01*
X0555396Y0485834D01*
X0553404Y0487826D01*
X0551995Y0490266D01*
X0551266Y0492987D01*
X0551266Y0495804D01*
X0551995Y0498525D01*
X0553404Y0500965D01*
X0553649Y0501210D01*
X0515283Y0501208D01*
X0515527Y0500965D01*
X0516935Y0498525D01*
X0517664Y0495804D01*
X0517664Y0492987D01*
X0516935Y0490266D01*
X0516840Y0490100D01*
X0537239Y0490100D01*
X0539224Y0489278D01*
X0554424Y0474078D01*
X0555943Y0472559D01*
X0556765Y0470574D01*
X0556765Y0427000D01*
X0558039Y0427000D01*
X0560024Y0426178D01*
X0561543Y0424659D01*
X0572002Y0414200D01*
X0576677Y0414200D01*
X0579470Y0413043D01*
X0581608Y0410905D01*
X0582765Y0408112D01*
X0582765Y0405088D01*
X0581608Y0402295D01*
X0579470Y0400157D01*
X0579305Y0400089D01*
X0579784Y0399430D01*
X0580170Y0398673D01*
X0580432Y0397865D01*
X0580565Y0397025D01*
X0580565Y0396600D01*
X0571965Y0396600D01*
X0551965Y0396600D01*
X0538765Y0396600D01*
X0538765Y0401600D02*
X0549399Y0401600D01*
X0549749Y0401950D02*
X0546615Y0398816D01*
X0546615Y0396600D01*
X0546615Y0394384D01*
X0549749Y0391250D01*
X0551965Y0391250D01*
X0551965Y0396600D01*
X0551965Y0396600D01*
X0546615Y0396600D01*
X0551965Y0396600D01*
X0551965Y0401950D01*
X0549749Y0401950D01*
X0551965Y0401950D02*
X0551965Y0396600D01*
X0551965Y0396600D01*
X0551965Y0396600D01*
X0551965Y0411600D01*
X0538765Y0411600D01*
X0538765Y0406600D02*
X0549894Y0406600D01*
X0551965Y0406600D01*
X0551965Y0406600D01*
X0551965Y0411600D01*
X0551965Y0411600D01*
X0546965Y0411600D01*
X0546965Y0411600D01*
X0546965Y0409529D01*
X0546965Y0399166D01*
X0546965Y0396600D02*
X0546965Y0396600D01*
X0546965Y0394034D02*
X0546965Y0382277D01*
X0546288Y0381600D02*
X0538765Y0381600D01*
X0538765Y0376600D02*
X0544415Y0376600D01*
X0544415Y0379727D02*
X0544415Y0373473D01*
X0548838Y0369050D01*
X0555093Y0369050D01*
X0559515Y0373473D01*
X0559515Y0375099D01*
X0564540Y0380124D01*
X0567253Y0379000D01*
X0572854Y0379000D01*
X0588174Y0371340D01*
X0588340Y0371174D01*
X0589306Y0370774D01*
X0590242Y0370306D01*
X0590476Y0370290D01*
X0590692Y0370200D01*
X0591738Y0370200D01*
X0592781Y0370126D01*
X0593004Y0370200D01*
X0602688Y0370200D01*
X0603838Y0369050D01*
X0610093Y0369050D01*
X0614515Y0373473D01*
X0614515Y0375099D01*
X0623416Y0384000D01*
X0627854Y0384000D01*
X0653174Y0371340D01*
X0653340Y0371174D01*
X0654306Y0370774D01*
X0655242Y0370306D01*
X0655476Y0370290D01*
X0655692Y0370200D01*
X0656738Y0370200D01*
X0657781Y0370126D01*
X0658004Y0370200D01*
X0675565Y0370200D01*
X0675565Y0326200D01*
X0674187Y0324822D01*
X0674187Y0318378D01*
X0678743Y0313822D01*
X0685187Y0313822D01*
X0689743Y0318378D01*
X0689743Y0324822D01*
X0688365Y0326200D01*
X0688365Y0372323D01*
X0689515Y0373473D01*
X0689515Y0375099D01*
X0698416Y0384000D01*
X0706677Y0384000D01*
X0709470Y0385157D01*
X0711608Y0387295D01*
X0712765Y0390088D01*
X0712765Y0393112D01*
X0711608Y0395905D01*
X0709470Y0398043D01*
X0709305Y0398111D01*
X0709784Y0398770D01*
X0710170Y0399527D01*
X0710432Y0400335D01*
X0710565Y0401175D01*
X0710565Y0401600D01*
X0710565Y0402025D01*
X0710432Y0402865D01*
X0710170Y0403673D01*
X0709784Y0404430D01*
X0709305Y0405089D01*
X0709470Y0405157D01*
X0711608Y0407295D01*
X0712765Y0410088D01*
X0712765Y0413112D01*
X0711608Y0415905D01*
X0709470Y0418043D01*
X0706677Y0419200D01*
X0702002Y0419200D01*
X0696543Y0424659D01*
X0695024Y0426178D01*
X0693039Y0427000D01*
X0686748Y0427000D01*
X0684948Y0428800D01*
X0678983Y0428800D01*
X0674765Y0424582D01*
X0674765Y0418618D01*
X0678339Y0415044D01*
X0676965Y0413671D01*
X0676965Y0416418D01*
X0676783Y0416600D02*
X0662260Y0416600D01*
X0662062Y0416943D02*
X0660143Y0418862D01*
X0657793Y0420219D01*
X0655172Y0420921D01*
X0652459Y0420921D01*
X0649838Y0420219D01*
X0647488Y0418862D01*
X0645569Y0416943D01*
X0644212Y0414594D01*
X0643510Y0411972D01*
X0643510Y0409259D01*
X0644212Y0406638D01*
X0645569Y0404288D01*
X0647488Y0402369D01*
X0649838Y0401013D01*
X0652459Y0400310D01*
X0655172Y0400310D01*
X0657793Y0401013D01*
X0660143Y0402369D01*
X0662062Y0404288D01*
X0663419Y0406638D01*
X0664121Y0409259D01*
X0664121Y0411972D01*
X0663419Y0414594D01*
X0662062Y0416943D01*
X0661965Y0417040D02*
X0661965Y0501213D01*
X0656965Y0501213D02*
X0656965Y0420441D01*
X0651965Y0420789D02*
X0651965Y0501213D01*
X0646965Y0501213D02*
X0646965Y0418340D01*
X0645371Y0416600D02*
X0635913Y0416600D01*
X0636608Y0415905D02*
X0634470Y0418043D01*
X0631677Y0419200D01*
X0627002Y0419200D01*
X0621543Y0424659D01*
X0620024Y0426178D01*
X0618039Y0427000D01*
X0611748Y0427000D01*
X0609948Y0428800D01*
X0603983Y0428800D01*
X0599765Y0424582D01*
X0599765Y0418618D01*
X0603339Y0415044D01*
X0601965Y0413671D01*
X0601965Y0416418D01*
X0601783Y0416600D02*
X0569602Y0416600D01*
X0571965Y0414237D02*
X0571965Y0452940D01*
X0572377Y0452528D01*
X0575354Y0451295D01*
X0578576Y0451295D01*
X0581553Y0452528D01*
X0581965Y0452940D01*
X0582377Y0452528D01*
X0585354Y0451295D01*
X0588576Y0451295D01*
X0591553Y0452528D01*
X0591965Y0452940D01*
X0592377Y0452528D01*
X0595354Y0451295D01*
X0598576Y0451295D01*
X0601553Y0452528D01*
X0603832Y0454807D01*
X0605065Y0457784D01*
X0605065Y0461006D01*
X0604946Y0461295D01*
X0606540Y0461295D01*
X0608158Y0461965D01*
X0609395Y0463203D01*
X0610065Y0464820D01*
X0610065Y0473970D01*
X0609395Y0475588D01*
X0608158Y0476825D01*
X0606540Y0477495D01*
X0597390Y0477495D01*
X0595773Y0476825D01*
X0595603Y0476656D01*
X0593576Y0477495D01*
X0590354Y0477495D01*
X0587377Y0476262D01*
X0586965Y0475850D01*
X0586553Y0476262D01*
X0583576Y0477495D01*
X0580354Y0477495D01*
X0577377Y0476262D01*
X0576965Y0475850D01*
X0576553Y0476262D01*
X0573576Y0477495D01*
X0570354Y0477495D01*
X0567377Y0476262D01*
X0565098Y0473984D01*
X0563865Y0471006D01*
X0563865Y0467784D01*
X0564185Y0467011D01*
X0562377Y0466262D01*
X0560098Y0463984D01*
X0558865Y0461006D01*
X0558865Y0457784D01*
X0560098Y0454807D01*
X0562377Y0452528D01*
X0565354Y0451295D01*
X0568576Y0451295D01*
X0571553Y0452528D01*
X0571965Y0452940D01*
X0569312Y0451600D02*
X0574618Y0451600D01*
X0576965Y0451295D02*
X0576965Y0414081D01*
X0580913Y0411600D02*
X0606965Y0411600D01*
X0606965Y0411600D01*
X0601965Y0411600D01*
X0601965Y0411600D01*
X0601965Y0409529D01*
X0601965Y0399166D01*
X0601615Y0398816D02*
X0601615Y0396600D01*
X0601615Y0394384D01*
X0604749Y0391250D01*
X0606965Y0391250D01*
X0606965Y0396600D01*
X0571965Y0396600D01*
X0571965Y0396600D01*
X0563365Y0396600D01*
X0563365Y0396175D01*
X0563498Y0395335D01*
X0563761Y0394527D01*
X0564147Y0393770D01*
X0564625Y0393111D01*
X0564460Y0393043D01*
X0564417Y0393000D01*
X0560692Y0393000D01*
X0558340Y0392026D01*
X0550464Y0384150D01*
X0548838Y0384150D01*
X0544415Y0379727D01*
X0546288Y0371600D02*
X0538765Y0371600D01*
X0538765Y0366600D02*
X0675565Y0366600D01*
X0675565Y0361600D02*
X0538765Y0361600D01*
X0538765Y0360578D02*
X0538765Y0424074D01*
X0537943Y0426059D01*
X0505065Y0458937D01*
X0505065Y0461006D01*
X0504946Y0461295D01*
X0506540Y0461295D01*
X0508158Y0461965D01*
X0509395Y0463203D01*
X0509518Y0463500D01*
X0516066Y0463500D01*
X0518443Y0461122D01*
X0524887Y0461122D01*
X0529443Y0465678D01*
X0529443Y0471236D01*
X0537515Y0463909D01*
X0537515Y0442000D01*
X0535137Y0439622D01*
X0535137Y0433178D01*
X0539693Y0428622D01*
X0545965Y0428622D01*
X0545965Y0425782D01*
X0544765Y0424582D01*
X0544765Y0418618D01*
X0548339Y0415044D01*
X0546965Y0413671D01*
X0546965Y0416418D01*
X0546783Y0416600D02*
X0538765Y0416600D01*
X0538765Y0421600D02*
X0544765Y0421600D01*
X0545965Y0426600D02*
X0537402Y0426600D01*
X0536965Y0427037D02*
X0536965Y0431350D01*
X0536716Y0431600D02*
X0532402Y0431600D01*
X0531965Y0432037D02*
X0531965Y0468947D01*
X0529443Y0466600D02*
X0534551Y0466600D01*
X0536965Y0464408D02*
X0536965Y0441450D01*
X0537116Y0441600D02*
X0522402Y0441600D01*
X0521965Y0442037D02*
X0521965Y0461122D01*
X0525365Y0461600D02*
X0537515Y0461600D01*
X0537515Y0456600D02*
X0507402Y0456600D01*
X0506965Y0457037D02*
X0506965Y0461471D01*
X0507276Y0461600D02*
X0517966Y0461600D01*
X0516965Y0462600D02*
X0516965Y0447037D01*
X0517402Y0446600D02*
X0537515Y0446600D01*
X0537515Y0451600D02*
X0512402Y0451600D01*
X0511965Y0452037D02*
X0511965Y0463500D01*
X0526965Y0463200D02*
X0526965Y0437037D01*
X0527402Y0436600D02*
X0535137Y0436600D01*
X0541965Y0428622D02*
X0541965Y0360578D01*
X0543787Y0360578D02*
X0538765Y0360578D01*
X0543787Y0360578D02*
X0548343Y0356022D01*
X0548343Y0352376D01*
X0612651Y0288068D01*
X0612887Y0288304D01*
X0615533Y0289400D01*
X0618397Y0289400D01*
X0621044Y0288304D01*
X0621765Y0287582D01*
X0621765Y0295345D01*
X0620098Y0297012D01*
X0618865Y0299989D01*
X0618865Y0303211D01*
X0620098Y0306188D01*
X0622377Y0308467D01*
X0625354Y0309700D01*
X0628576Y0309700D01*
X0631553Y0308467D01*
X0633832Y0306188D01*
X0635065Y0303211D01*
X0635065Y0299989D01*
X0633832Y0297012D01*
X0632165Y0295345D01*
X0632165Y0287582D01*
X0632887Y0288304D01*
X0635533Y0289400D01*
X0638397Y0289400D01*
X0641044Y0288304D01*
X0643069Y0286278D01*
X0643334Y0285640D01*
X0643708Y0286014D01*
X0644345Y0286476D01*
X0645046Y0286834D01*
X0645794Y0287077D01*
X0646572Y0287200D01*
X0646965Y0287200D01*
X0646965Y0276600D01*
X0646965Y0276600D01*
X0646965Y0276600D01*
X0646965Y0271600D01*
X0646965Y0271600D01*
X0646572Y0271600D01*
X0642165Y0271600D01*
X0642165Y0271618D02*
X0643069Y0272522D01*
X0643334Y0273160D01*
X0643708Y0272786D01*
X0644345Y0272324D01*
X0645046Y0271966D01*
X0645794Y0271723D01*
X0646572Y0271600D01*
X0646965Y0271600D02*
X0647359Y0271600D01*
X0697111Y0271600D01*
X0696965Y0271454D02*
X0696965Y0382549D01*
X0696016Y0381600D02*
X0737801Y0381600D01*
X0737801Y0376600D02*
X0691016Y0376600D01*
X0691965Y0377549D02*
X0691965Y0266454D01*
X0692111Y0266600D02*
X0639319Y0266600D01*
X0639911Y0267192D02*
X0641374Y0268654D01*
X0642165Y0270566D01*
X0642165Y0271618D01*
X0641965Y0270083D02*
X0641965Y0251782D01*
X0641044Y0252704D01*
X0638397Y0253800D01*
X0635533Y0253800D01*
X0632887Y0252704D01*
X0631965Y0251782D01*
X0631044Y0252704D01*
X0628397Y0253800D01*
X0625533Y0253800D01*
X0622887Y0252704D01*
X0621965Y0251782D01*
X0621044Y0252704D01*
X0618397Y0253800D01*
X0615533Y0253800D01*
X0612887Y0252704D01*
X0610861Y0250678D01*
X0609765Y0248032D01*
X0609765Y0239568D01*
X0610861Y0236922D01*
X0612887Y0234896D01*
X0615533Y0233800D01*
X0618397Y0233800D01*
X0621044Y0234896D01*
X0621765Y0235618D01*
X0621765Y0232855D01*
X0620098Y0231188D01*
X0618865Y0228211D01*
X0618865Y0224989D01*
X0620098Y0222012D01*
X0621760Y0220350D01*
X0620098Y0218688D01*
X0618865Y0215711D01*
X0618865Y0212489D01*
X0620098Y0209512D01*
X0622377Y0207233D01*
X0622457Y0207200D01*
X0555260Y0207200D01*
X0544413Y0218047D01*
X0544413Y0218047D01*
X0542837Y0219622D01*
X0540779Y0220475D01*
X0490461Y0220475D01*
X0473967Y0228373D01*
X0474038Y0228396D01*
X0474795Y0228782D01*
X0475454Y0229260D01*
X0475522Y0229095D01*
X0477660Y0226957D01*
X0480453Y0225800D01*
X0483477Y0225800D01*
X0486270Y0226957D01*
X0488408Y0229095D01*
X0489565Y0231888D01*
X0489565Y0236563D01*
X0500024Y0247022D01*
X0501543Y0248541D01*
X0502365Y0250526D01*
X0502365Y0251818D01*
X0504165Y0253618D01*
X0504165Y0259582D01*
X0501865Y0261882D01*
X0501865Y0401200D01*
X0504243Y0403578D01*
X0504243Y0406685D01*
X0504565Y0406363D01*
X0504565Y0254526D01*
X0505387Y0252541D01*
X0508865Y0249063D01*
X0508865Y0245745D01*
X0510510Y0244100D01*
X0508865Y0242455D01*
X0508865Y0235745D01*
X0513610Y0231000D01*
X0517028Y0231000D01*
X0518887Y0229141D01*
X0520406Y0227622D01*
X0522391Y0226800D01*
X0530839Y0226800D01*
X0532824Y0227622D01*
X0536424Y0231222D01*
X0537943Y0232741D01*
X0538765Y0234726D01*
X0538765Y0264922D01*
X0541715Y0264922D01*
X0545093Y0262069D01*
X0545670Y0261492D01*
X0545878Y0261405D01*
X0546050Y0261260D01*
X0546827Y0261012D01*
X0547581Y0260700D01*
X0547806Y0260700D01*
X0548021Y0260632D01*
X0548834Y0260700D01*
X0632300Y0260700D01*
X0634211Y0261492D01*
X0639911Y0267192D01*
X0636965Y0264246D02*
X0636965Y0253800D01*
X0631965Y0251782D02*
X0631965Y0260700D01*
X0634319Y0261600D02*
X0687111Y0261600D01*
X0686965Y0261454D02*
X0686965Y0315600D01*
X0687965Y0316600D02*
X0737801Y0316600D01*
X0737801Y0311600D02*
X0589119Y0311600D01*
X0586965Y0313754D02*
X0586965Y0371945D01*
X0587654Y0371600D02*
X0557643Y0371600D01*
X0556965Y0370923D02*
X0556965Y0343754D01*
X0559119Y0341600D02*
X0675565Y0341600D01*
X0675565Y0336600D02*
X0564119Y0336600D01*
X0561965Y0338754D02*
X0561965Y0377549D01*
X0561016Y0376600D02*
X0577654Y0376600D01*
X0576965Y0376945D02*
X0576965Y0323754D01*
X0579119Y0321600D02*
X0674187Y0321600D01*
X0675565Y0326600D02*
X0574119Y0326600D01*
X0571965Y0328754D02*
X0571965Y0379000D01*
X0566965Y0379119D02*
X0566965Y0333754D01*
X0569119Y0331600D02*
X0675565Y0331600D01*
X0688365Y0331600D02*
X0737801Y0331600D01*
X0737801Y0326600D02*
X0688365Y0326600D01*
X0689743Y0321600D02*
X0737801Y0321600D01*
X0737801Y0336600D02*
X0688365Y0336600D01*
X0688365Y0341600D02*
X0737801Y0341600D01*
X0737801Y0346600D02*
X0688365Y0346600D01*
X0688365Y0351600D02*
X0737801Y0351600D01*
X0737801Y0356600D02*
X0688365Y0356600D01*
X0688365Y0361600D02*
X0737801Y0361600D01*
X0737801Y0366600D02*
X0688365Y0366600D01*
X0688365Y0371600D02*
X0737801Y0371600D01*
X0737801Y0386600D02*
X0710913Y0386600D01*
X0711965Y0388157D02*
X0711965Y0284300D01*
X0710931Y0284300D02*
X0709020Y0283508D01*
X0707557Y0282046D01*
X0659732Y0234221D01*
X0658576Y0234700D01*
X0655354Y0234700D01*
X0652377Y0233467D01*
X0650710Y0231800D01*
X0649119Y0231800D01*
X0647119Y0233800D01*
X0648397Y0233800D01*
X0651044Y0234896D01*
X0653069Y0236922D01*
X0654165Y0239568D01*
X0654165Y0248032D01*
X0653069Y0250678D01*
X0651044Y0252704D01*
X0648397Y0253800D01*
X0645533Y0253800D01*
X0642887Y0252704D01*
X0641965Y0251782D01*
X0646965Y0253800D02*
X0646965Y0276600D01*
X0646965Y0374445D01*
X0642654Y0376600D02*
X0616016Y0376600D01*
X0616965Y0377549D02*
X0616965Y0289400D01*
X0611965Y0288754D02*
X0611965Y0370923D01*
X0612643Y0371600D02*
X0652654Y0371600D01*
X0651965Y0371945D02*
X0651965Y0304756D01*
X0651919Y0304692D02*
X0651497Y0303865D01*
X0651210Y0302982D01*
X0651065Y0302064D01*
X0651065Y0301600D01*
X0651065Y0301136D01*
X0651210Y0300218D01*
X0651497Y0299335D01*
X0651919Y0298508D01*
X0652465Y0297756D01*
X0653122Y0297100D01*
X0653873Y0296554D01*
X0654700Y0296132D01*
X0655584Y0295845D01*
X0656501Y0295700D01*
X0656965Y0295700D01*
X0656965Y0301600D01*
X0635065Y0301600D01*
X0633420Y0296600D02*
X0653809Y0296600D01*
X0651965Y0298444D02*
X0651965Y0251782D01*
X0652148Y0251600D02*
X0677111Y0251600D01*
X0676965Y0251454D02*
X0676965Y0315600D01*
X0675966Y0316600D02*
X0584119Y0316600D01*
X0581965Y0318754D02*
X0581965Y0374445D01*
X0591965Y0370184D02*
X0591965Y0308754D01*
X0594119Y0306600D02*
X0620510Y0306600D01*
X0621965Y0308055D02*
X0621965Y0382549D01*
X0621016Y0381600D02*
X0632654Y0381600D01*
X0631965Y0381945D02*
X0631965Y0308055D01*
X0633420Y0306600D02*
X0653809Y0306600D01*
X0653873Y0306646D02*
X0653122Y0306100D01*
X0652465Y0305444D01*
X0651919Y0304692D01*
X0653873Y0306646D02*
X0654700Y0307068D01*
X0655584Y0307355D01*
X0656501Y0307500D01*
X0656965Y0307500D01*
X0656965Y0301600D01*
X0656965Y0301600D01*
X0651065Y0301600D01*
X0656965Y0301600D01*
X0656965Y0301600D01*
X0656965Y0301600D01*
X0656965Y0370184D01*
X0661965Y0370200D02*
X0661965Y0304756D01*
X0662011Y0304692D02*
X0661465Y0305444D01*
X0660809Y0306100D01*
X0660057Y0306646D01*
X0659230Y0307068D01*
X0658347Y0307355D01*
X0657430Y0307500D01*
X0656965Y0307500D01*
X0656965Y0301600D01*
X0656965Y0234700D01*
X0652748Y0236600D02*
X0662111Y0236600D01*
X0661965Y0236454D02*
X0661965Y0298444D01*
X0662011Y0298508D02*
X0662433Y0299335D01*
X0662720Y0300218D01*
X0662865Y0301136D01*
X0662865Y0301600D01*
X0662865Y0302064D01*
X0662720Y0302982D01*
X0662433Y0303865D01*
X0662011Y0304692D01*
X0660121Y0306600D02*
X0737801Y0306600D01*
X0737801Y0301600D02*
X0656965Y0301600D01*
X0656965Y0295700D01*
X0657430Y0295700D01*
X0658347Y0295845D01*
X0659230Y0296132D01*
X0660057Y0296554D01*
X0660809Y0297100D01*
X0661465Y0297756D01*
X0662011Y0298508D01*
X0660121Y0296600D02*
X0737801Y0296600D01*
X0737801Y0291600D02*
X0632165Y0291600D01*
X0636965Y0289400D02*
X0636965Y0379445D01*
X0641965Y0376945D02*
X0641965Y0287382D01*
X0642748Y0286600D02*
X0644587Y0286600D01*
X0646965Y0286600D02*
X0646965Y0286600D01*
X0646965Y0287200D02*
X0646965Y0276600D01*
X0646965Y0271600D01*
X0647359Y0271600D02*
X0648136Y0271723D01*
X0648885Y0271966D01*
X0649586Y0272324D01*
X0650222Y0272786D01*
X0650779Y0273343D01*
X0651242Y0273979D01*
X0651599Y0274681D01*
X0651842Y0275429D01*
X0651965Y0276206D01*
X0651965Y0276600D01*
X0651965Y0282594D01*
X0651842Y0283371D01*
X0651599Y0284119D01*
X0651242Y0284821D01*
X0650779Y0285457D01*
X0650222Y0286014D01*
X0649586Y0286476D01*
X0648885Y0286834D01*
X0648136Y0287077D01*
X0647359Y0287200D01*
X0646965Y0287200D01*
X0649343Y0286600D02*
X0718866Y0286600D01*
X0719905Y0287030D02*
X0716983Y0285820D01*
X0715463Y0284300D01*
X0710931Y0284300D01*
X0707111Y0281600D02*
X0651965Y0281600D01*
X0646965Y0281600D02*
X0646965Y0281600D01*
X0646965Y0276600D02*
X0651965Y0276600D01*
X0646965Y0276600D01*
X0702111Y0276600D01*
X0701965Y0276454D02*
X0701965Y0384000D01*
X0706965Y0384119D02*
X0706965Y0281454D01*
X0714119Y0273900D02*
X0715423Y0273900D01*
X0716983Y0272341D01*
X0719905Y0271130D01*
X0730167Y0271130D01*
X0733089Y0272341D01*
X0735326Y0274577D01*
X0736536Y0277499D01*
X0736536Y0280662D01*
X0735326Y0283584D01*
X0733089Y0285820D01*
X0730167Y0287030D01*
X0719905Y0287030D01*
X0721965Y0287030D02*
X0721965Y0501215D01*
X0716965Y0501215D02*
X0716965Y0285802D01*
X0726965Y0287030D02*
X0726965Y0501215D01*
X0731965Y0501215D02*
X0731965Y0286286D01*
X0731206Y0286600D02*
X0737801Y0286600D01*
X0737801Y0281600D02*
X0736147Y0281600D01*
X0736164Y0276600D02*
X0737801Y0276600D01*
X0737801Y0271600D02*
X0731301Y0271600D01*
X0731965Y0271875D02*
X0731965Y0266601D01*
X0731967Y0266600D02*
X0737801Y0266600D01*
X0735326Y0263899D02*
X0733089Y0266135D01*
X0730167Y0267345D01*
X0719905Y0267345D01*
X0716983Y0266135D01*
X0715148Y0264300D01*
X0714681Y0264300D01*
X0712770Y0263508D01*
X0668561Y0219300D01*
X0663220Y0219300D01*
X0662170Y0220350D01*
X0663832Y0222012D01*
X0664964Y0224745D01*
X0714119Y0273900D01*
X0711965Y0271746D02*
X0711965Y0262704D01*
X0710861Y0261600D02*
X0701819Y0261600D01*
X0701965Y0261746D02*
X0701965Y0252704D01*
X0700861Y0251600D02*
X0691819Y0251600D01*
X0691965Y0251746D02*
X0691965Y0242704D01*
X0690861Y0241600D02*
X0681819Y0241600D01*
X0681965Y0241746D02*
X0681965Y0232704D01*
X0680861Y0231600D02*
X0671819Y0231600D01*
X0671965Y0231746D02*
X0671965Y0222704D01*
X0670861Y0221600D02*
X0663420Y0221600D01*
X0666965Y0219300D02*
X0666965Y0226746D01*
X0666819Y0226600D02*
X0675861Y0226600D01*
X0676965Y0227704D02*
X0676965Y0236746D01*
X0676819Y0236600D02*
X0685861Y0236600D01*
X0686965Y0237704D02*
X0686965Y0246746D01*
X0686819Y0246600D02*
X0695861Y0246600D01*
X0696965Y0247704D02*
X0696965Y0256746D01*
X0696819Y0256600D02*
X0705861Y0256600D01*
X0706965Y0257704D02*
X0706965Y0266746D01*
X0706819Y0266600D02*
X0718105Y0266600D01*
X0716965Y0266117D02*
X0716965Y0272358D01*
X0718771Y0271600D02*
X0711819Y0271600D01*
X0721965Y0271130D02*
X0721965Y0267345D01*
X0726965Y0267345D02*
X0726965Y0271130D01*
X0735326Y0263899D02*
X0736536Y0260977D01*
X0736536Y0257814D01*
X0735326Y0254892D01*
X0733089Y0252656D01*
X0730167Y0251445D01*
X0719905Y0251445D01*
X0716983Y0252656D01*
X0716804Y0252835D01*
X0673661Y0209692D01*
X0671750Y0208900D01*
X0663220Y0208900D01*
X0661553Y0207233D01*
X0658576Y0206000D01*
X0655485Y0206000D01*
X0656713Y0204772D01*
X0656713Y0204772D01*
X0675885Y0185600D01*
X0715897Y0185600D01*
X0716904Y0186607D01*
X0719826Y0187818D01*
X0730089Y0187818D01*
X0733011Y0186607D01*
X0735247Y0184371D01*
X0736457Y0181449D01*
X0736457Y0178286D01*
X0735247Y0175364D01*
X0733011Y0173128D01*
X0730089Y0171918D01*
X0719826Y0171918D01*
X0716904Y0173128D01*
X0715632Y0174400D01*
X0672451Y0174400D01*
X0670393Y0175253D01*
X0668818Y0176828D01*
X0668818Y0176828D01*
X0649646Y0196000D01*
X0551826Y0196000D01*
X0549768Y0196853D01*
X0537346Y0209275D01*
X0490148Y0209275D01*
X0490000Y0209223D01*
X0489039Y0209275D01*
X0488076Y0209275D01*
X0487932Y0209335D01*
X0487776Y0209343D01*
X0486907Y0209759D01*
X0486017Y0210128D01*
X0485907Y0210238D01*
X0461715Y0221822D01*
X0444021Y0207437D01*
X0443437Y0206853D01*
X0443163Y0206739D01*
X0442934Y0206552D01*
X0442142Y0206316D01*
X0441379Y0206000D01*
X0441083Y0206000D01*
X0440799Y0205915D01*
X0439977Y0206000D01*
X0425409Y0206000D01*
X0424772Y0205893D01*
X0424305Y0206000D01*
X0423826Y0206000D01*
X0423230Y0206247D01*
X0422601Y0206392D01*
X0422211Y0206669D01*
X0421768Y0206853D01*
X0421312Y0207309D01*
X0401820Y0221180D01*
X0383524Y0207014D01*
X0382987Y0206478D01*
X0382651Y0206338D01*
X0382363Y0206115D01*
X0381630Y0205916D01*
X0380929Y0205625D01*
X0380565Y0205625D01*
X0380213Y0205529D01*
X0379460Y0205625D01*
X0365060Y0205625D01*
X0364296Y0205531D01*
X0363955Y0205625D01*
X0363601Y0205625D01*
X0362890Y0205919D01*
X0362149Y0206125D01*
X0361870Y0206342D01*
X0361543Y0206478D01*
X0360999Y0207022D01*
X0339120Y0224092D01*
X0338793Y0224228D01*
X0338249Y0224772D01*
X0337642Y0225245D01*
X0337468Y0225553D01*
X0337218Y0225803D01*
X0336923Y0226514D01*
X0336544Y0227183D01*
X0336501Y0227534D01*
X0336365Y0227861D01*
X0336365Y0228252D01*
X0335522Y0229095D01*
X0334365Y0231888D01*
X0334365Y0236080D01*
X0327918Y0242528D01*
X0327065Y0244586D01*
X0327065Y0250823D01*
X0324415Y0253473D01*
X0324415Y0259727D01*
X0328838Y0264150D01*
X0335093Y0264150D01*
X0339515Y0259727D01*
X0339515Y0253473D01*
X0338265Y0252223D01*
X0338265Y0248020D01*
X0339344Y0246941D01*
X0340453Y0247400D01*
X0343477Y0247400D01*
X0346270Y0246243D01*
X0348408Y0244105D01*
X0348477Y0243940D01*
X0349135Y0244418D01*
X0349892Y0244804D01*
X0350701Y0245067D01*
X0351540Y0245200D01*
X0351965Y0245200D01*
X0351965Y0236600D01*
X0351965Y0236600D01*
X0351965Y0256600D01*
X0339515Y0256600D01*
X0338265Y0251600D02*
X0349399Y0251600D01*
X0349749Y0251250D02*
X0351965Y0251250D01*
X0351965Y0256600D01*
X0351965Y0256600D01*
X0346615Y0256600D01*
X0346615Y0254384D01*
X0349749Y0251250D01*
X0351965Y0251250D02*
X0354181Y0251250D01*
X0357315Y0254384D01*
X0357315Y0256600D01*
X0357315Y0258816D01*
X0354181Y0261950D01*
X0351965Y0261950D01*
X0349749Y0261950D01*
X0346615Y0258816D01*
X0346615Y0256600D01*
X0351965Y0256600D01*
X0351965Y0261950D01*
X0351965Y0256600D01*
X0351965Y0256600D01*
X0351965Y0256600D01*
X0351965Y0276000D01*
X0346965Y0276000D02*
X0346965Y0259166D01*
X0346965Y0256600D02*
X0346965Y0256600D01*
X0346965Y0254034D02*
X0346965Y0245548D01*
X0345408Y0246600D02*
X0358522Y0246600D01*
X0357660Y0246243D02*
X0355522Y0244105D01*
X0355454Y0243940D01*
X0354795Y0244418D01*
X0354038Y0244804D01*
X0353230Y0245067D01*
X0352390Y0245200D01*
X0351965Y0245200D01*
X0351965Y0236600D01*
X0351965Y0241600D02*
X0351965Y0241600D01*
X0356965Y0245548D02*
X0356965Y0254034D01*
X0356965Y0256600D02*
X0356965Y0256600D01*
X0357315Y0256600D02*
X0351965Y0256600D01*
X0351965Y0251250D01*
X0351965Y0251600D02*
X0351965Y0251600D01*
X0354531Y0251600D02*
X0364894Y0251600D01*
X0366965Y0251600D01*
X0366965Y0251600D01*
X0366965Y0256600D01*
X0351965Y0256600D01*
X0351965Y0256600D01*
X0357315Y0256600D01*
X0356965Y0259166D02*
X0356965Y0276000D01*
X0361965Y0276000D02*
X0361965Y0258671D01*
X0361965Y0256600D01*
X0361965Y0256600D01*
X0361965Y0254529D01*
X0361965Y0247400D01*
X0360453Y0247400D02*
X0357660Y0246243D01*
X0360453Y0247400D02*
X0363477Y0247400D01*
X0364645Y0246916D01*
X0370556Y0252827D01*
X0370410Y0252973D01*
X0369036Y0251600D01*
X0369328Y0251600D01*
X0369036Y0251600D02*
X0366965Y0251600D01*
X0366965Y0256600D01*
X0366965Y0256600D01*
X0361965Y0256600D01*
X0366965Y0256600D01*
X0366965Y0261600D01*
X0364894Y0261600D01*
X0361965Y0258671D01*
X0361965Y0254529D02*
X0364894Y0251600D01*
X0366965Y0249237D02*
X0366965Y0256600D01*
X0366965Y0256600D01*
X0366965Y0256600D01*
X0366965Y0276000D01*
X0371965Y0276000D02*
X0371965Y0261782D01*
X0371783Y0261600D02*
X0354531Y0261600D01*
X0351965Y0261600D02*
X0351965Y0261600D01*
X0349399Y0261600D02*
X0337643Y0261600D01*
X0336965Y0262277D02*
X0336965Y0276000D01*
X0331965Y0276000D02*
X0331965Y0264150D01*
X0326965Y0262277D02*
X0326965Y0276000D01*
X0321965Y0276000D02*
X0321965Y0214447D01*
X0323443Y0214077D02*
X0309199Y0217639D01*
X0288215Y0228131D01*
X0288230Y0228133D01*
X0289038Y0228396D01*
X0289795Y0228782D01*
X0290454Y0229260D01*
X0290522Y0229095D01*
X0292660Y0226957D01*
X0295453Y0225800D01*
X0298477Y0225800D01*
X0301270Y0226957D01*
X0303408Y0229095D01*
X0304565Y0231888D01*
X0304565Y0236063D01*
X0316543Y0248041D01*
X0317365Y0250026D01*
X0317365Y0251818D01*
X0319165Y0253618D01*
X0319165Y0259582D01*
X0314948Y0263800D01*
X0308983Y0263800D01*
X0305410Y0260227D01*
X0304036Y0261600D01*
X0301965Y0261600D01*
X0299894Y0261600D01*
X0296965Y0258671D01*
X0296965Y0276000D01*
X0291965Y0276000D02*
X0291965Y0259166D01*
X0292315Y0258816D02*
X0289181Y0261950D01*
X0286965Y0261950D01*
X0284749Y0261950D01*
X0281615Y0258816D01*
X0281615Y0256600D01*
X0281615Y0254384D01*
X0284749Y0251250D01*
X0286965Y0251250D01*
X0286965Y0256600D01*
X0276016Y0256600D01*
X0276965Y0255651D02*
X0276965Y0276000D01*
X0271965Y0276000D02*
X0271965Y0262277D01*
X0272643Y0261600D02*
X0284399Y0261600D01*
X0286965Y0261600D02*
X0286965Y0261600D01*
X0286965Y0261950D02*
X0286965Y0256600D01*
X0286965Y0256600D01*
X0281615Y0256600D01*
X0286965Y0256600D01*
X0286965Y0256600D01*
X0286965Y0256600D01*
X0286965Y0276000D01*
X0281965Y0276000D02*
X0281965Y0259166D01*
X0281965Y0256600D02*
X0281965Y0256600D01*
X0281965Y0254034D02*
X0281965Y0250651D01*
X0282391Y0250225D02*
X0274515Y0258101D01*
X0274515Y0259727D01*
X0270093Y0264150D01*
X0263838Y0264150D01*
X0259415Y0259727D01*
X0259415Y0253473D01*
X0263838Y0249050D01*
X0265464Y0249050D01*
X0270489Y0244025D01*
X0269365Y0241312D01*
X0269365Y0231888D01*
X0270028Y0230287D01*
X0255454Y0223000D01*
X0238476Y0223000D01*
X0228215Y0228131D01*
X0228230Y0228133D01*
X0229038Y0228396D01*
X0229795Y0228782D01*
X0230454Y0229260D01*
X0230522Y0229095D01*
X0232660Y0226957D01*
X0235453Y0225800D01*
X0238477Y0225800D01*
X0241270Y0226957D01*
X0243408Y0229095D01*
X0244565Y0231888D01*
X0244565Y0236563D01*
X0255024Y0247022D01*
X0256543Y0248541D01*
X0257365Y0250526D01*
X0257365Y0251818D01*
X0259165Y0253618D01*
X0259165Y0259582D01*
X0254948Y0263800D01*
X0248983Y0263800D01*
X0245410Y0260227D01*
X0244036Y0261600D01*
X0241965Y0261600D01*
X0239894Y0261600D01*
X0236965Y0258671D01*
X0236965Y0293219D01*
X0239064Y0291600D02*
X0185982Y0291600D01*
X0185500Y0291400D02*
X0187411Y0292192D01*
X0188874Y0293654D01*
X0189665Y0295566D01*
X0189665Y0342634D01*
X0188874Y0344546D01*
X0187411Y0346008D01*
X0185500Y0346800D01*
X0136365Y0346800D01*
X0136365Y0501196D01*
X0253639Y0501200D01*
X0253404Y0500965D01*
X0251995Y0498525D01*
X0251266Y0495804D01*
X0251266Y0492987D01*
X0251995Y0490266D01*
X0253404Y0487826D01*
X0253830Y0487400D01*
X0225131Y0487400D01*
X0223220Y0486608D01*
X0221757Y0485146D01*
X0191811Y0455200D01*
X0158690Y0455200D01*
X0157440Y0456450D01*
X0154518Y0457660D01*
X0144255Y0457660D01*
X0141333Y0456450D01*
X0139097Y0454214D01*
X0137886Y0451292D01*
X0137886Y0448129D01*
X0139097Y0445207D01*
X0141333Y0442971D01*
X0144255Y0441760D01*
X0154518Y0441760D01*
X0157440Y0442971D01*
X0159269Y0444800D01*
X0173415Y0444800D01*
X0172598Y0443984D01*
X0171365Y0441006D01*
X0171365Y0437784D01*
X0172598Y0434807D01*
X0174465Y0432940D01*
X0174465Y0424828D01*
X0174366Y0424231D01*
X0174465Y0423804D01*
X0174465Y0423366D01*
X0174697Y0422806D01*
X0174834Y0422216D01*
X0175089Y0421859D01*
X0175257Y0421454D01*
X0175685Y0421026D01*
X0175760Y0420921D01*
X0175687Y0420921D01*
X0173066Y0420219D01*
X0170716Y0418862D01*
X0168797Y0416943D01*
X0167441Y0414594D01*
X0166738Y0411972D01*
X0166738Y0409259D01*
X0167441Y0406638D01*
X0168797Y0404288D01*
X0170716Y0402369D01*
X0173066Y0401013D01*
X0175687Y0400310D01*
X0178401Y0400310D01*
X0181022Y0401013D01*
X0183372Y0402369D01*
X0185290Y0404288D01*
X0186348Y0406120D01*
X0212165Y0370032D01*
X0212165Y0315591D01*
X0212076Y0315260D01*
X0212165Y0314565D01*
X0212165Y0313866D01*
X0212297Y0313548D01*
X0212341Y0313208D01*
X0212689Y0312601D01*
X0212957Y0311954D01*
X0213200Y0311712D01*
X0213371Y0311414D01*
X0213925Y0310987D01*
X0214420Y0310492D01*
X0214737Y0310360D01*
X0257625Y0277287D01*
X0258120Y0276792D01*
X0258437Y0276660D01*
X0258709Y0276451D01*
X0259384Y0276268D01*
X0260031Y0276000D01*
X0260374Y0276000D01*
X0260706Y0275910D01*
X0261400Y0276000D01*
X0431036Y0276000D01*
X0431633Y0275901D01*
X0431665Y0275908D01*
X0431665Y0275459D01*
X0431578Y0274698D01*
X0431665Y0274393D01*
X0431665Y0261482D01*
X0430410Y0260227D01*
X0429036Y0261600D01*
X0426965Y0261600D01*
X0424894Y0261600D01*
X0421965Y0258671D01*
X0421965Y0276000D01*
X0416965Y0276000D02*
X0416965Y0259166D01*
X0417315Y0258816D02*
X0414181Y0261950D01*
X0411965Y0261950D01*
X0409749Y0261950D01*
X0406615Y0258816D01*
X0406615Y0256600D01*
X0406615Y0254384D01*
X0409749Y0251250D01*
X0411965Y0251250D01*
X0411965Y0256600D01*
X0399515Y0256600D01*
X0399515Y0253473D02*
X0399515Y0259727D01*
X0395093Y0264150D01*
X0388838Y0264150D01*
X0384415Y0259727D01*
X0384415Y0253473D01*
X0386465Y0251423D01*
X0386465Y0245486D01*
X0387318Y0243428D01*
X0394365Y0236380D01*
X0394365Y0231888D01*
X0395091Y0230135D01*
X0377901Y0216825D01*
X0366641Y0216825D01*
X0352318Y0228000D01*
X0352390Y0228000D01*
X0353230Y0228133D01*
X0354038Y0228396D01*
X0354795Y0228782D01*
X0355454Y0229260D01*
X0355522Y0229095D01*
X0357660Y0226957D01*
X0360453Y0225800D01*
X0363477Y0225800D01*
X0366270Y0226957D01*
X0368408Y0229095D01*
X0369565Y0231888D01*
X0369565Y0236563D01*
X0380024Y0247022D01*
X0381543Y0248541D01*
X0382365Y0250526D01*
X0382365Y0251818D01*
X0384165Y0253618D01*
X0384165Y0259582D01*
X0379948Y0263800D01*
X0373983Y0263800D01*
X0370410Y0260227D01*
X0369036Y0261600D01*
X0366965Y0261600D01*
X0366965Y0256600D01*
X0376965Y0263800D02*
X0376965Y0276000D01*
X0381965Y0276000D02*
X0381965Y0261782D01*
X0382148Y0261600D02*
X0386288Y0261600D01*
X0386965Y0262277D02*
X0386965Y0276000D01*
X0391965Y0276000D02*
X0391965Y0264150D01*
X0396965Y0262277D02*
X0396965Y0276000D01*
X0401965Y0276000D02*
X0401965Y0247400D01*
X0403477Y0247400D02*
X0400453Y0247400D01*
X0399556Y0247028D01*
X0397665Y0248920D01*
X0397665Y0251623D01*
X0399515Y0253473D01*
X0397665Y0251600D02*
X0409399Y0251600D01*
X0411965Y0251600D02*
X0411965Y0251600D01*
X0411965Y0251250D02*
X0414181Y0251250D01*
X0417315Y0254384D01*
X0417315Y0256600D01*
X0417315Y0258816D01*
X0417315Y0256600D02*
X0411965Y0256600D01*
X0411965Y0256600D01*
X0406615Y0256600D01*
X0411965Y0256600D01*
X0411965Y0261950D01*
X0411965Y0256600D01*
X0411965Y0256600D01*
X0411965Y0256600D01*
X0411965Y0276000D01*
X0406965Y0276000D02*
X0406965Y0259166D01*
X0406965Y0256600D02*
X0406965Y0256600D01*
X0406965Y0254034D02*
X0406965Y0245548D01*
X0406270Y0246243D02*
X0403477Y0247400D01*
X0405408Y0246600D02*
X0418522Y0246600D01*
X0417660Y0246243D02*
X0415522Y0244105D01*
X0415454Y0243940D01*
X0414795Y0244418D01*
X0414038Y0244804D01*
X0413230Y0245067D01*
X0412390Y0245200D01*
X0411965Y0245200D01*
X0411540Y0245200D01*
X0410701Y0245067D01*
X0409892Y0244804D01*
X0409135Y0244418D01*
X0408477Y0243940D01*
X0408408Y0244105D01*
X0406270Y0246243D01*
X0411965Y0245200D02*
X0411965Y0236600D01*
X0411965Y0236600D01*
X0411965Y0236600D01*
X0411965Y0228000D01*
X0411553Y0228000D01*
X0426729Y0217200D01*
X0438276Y0217200D01*
X0454863Y0230685D01*
X0454365Y0231888D01*
X0454365Y0235780D01*
X0447618Y0242528D01*
X0446765Y0244586D01*
X0446765Y0251123D01*
X0444415Y0253473D01*
X0444415Y0259727D01*
X0448838Y0264150D01*
X0455093Y0264150D01*
X0459515Y0259727D01*
X0459515Y0253473D01*
X0457965Y0251923D01*
X0457965Y0248020D01*
X0459132Y0246853D01*
X0460453Y0247400D01*
X0463477Y0247400D01*
X0466270Y0246243D01*
X0468408Y0244105D01*
X0468477Y0243940D01*
X0469135Y0244418D01*
X0469892Y0244804D01*
X0470701Y0245067D01*
X0471540Y0245200D01*
X0471965Y0245200D01*
X0471965Y0236600D01*
X0471965Y0236600D01*
X0471965Y0256600D01*
X0459515Y0256600D01*
X0457965Y0251600D02*
X0469399Y0251600D01*
X0469749Y0251250D02*
X0471965Y0251250D01*
X0471965Y0256600D01*
X0471965Y0256600D01*
X0466615Y0256600D01*
X0466615Y0254384D01*
X0469749Y0251250D01*
X0471965Y0251250D02*
X0474181Y0251250D01*
X0477315Y0254384D01*
X0477315Y0256600D01*
X0477315Y0258816D01*
X0474181Y0261950D01*
X0471965Y0261950D01*
X0469749Y0261950D01*
X0466615Y0258816D01*
X0466615Y0256600D01*
X0471965Y0256600D01*
X0471965Y0261950D01*
X0471965Y0256600D01*
X0471965Y0256600D01*
X0471965Y0256600D01*
X0471965Y0333722D01*
X0474287Y0333722D02*
X0478843Y0338278D01*
X0478843Y0344722D01*
X0476465Y0347100D01*
X0476465Y0394900D01*
X0478843Y0397278D01*
X0478843Y0403722D01*
X0474287Y0408278D01*
X0467843Y0408278D01*
X0466728Y0407163D01*
X0466504Y0407705D01*
X0466336Y0408367D01*
X0466096Y0408689D01*
X0465943Y0409059D01*
X0465460Y0409542D01*
X0465052Y0410089D01*
X0464707Y0410295D01*
X0464424Y0410578D01*
X0463793Y0410839D01*
X0460065Y0413060D01*
X0460065Y0413211D01*
X0458832Y0416188D01*
X0456553Y0418467D01*
X0453576Y0419700D01*
X0450354Y0419700D01*
X0447377Y0418467D01*
X0446510Y0417600D01*
X0433802Y0417600D01*
X0432902Y0418500D01*
X0433576Y0418500D01*
X0436553Y0419733D01*
X0438832Y0422012D01*
X0440065Y0424989D01*
X0440065Y0428211D01*
X0438832Y0431188D01*
X0437065Y0432955D01*
X0437065Y0433074D01*
X0437006Y0433217D01*
X0436997Y0433372D01*
X0436597Y0434205D01*
X0436243Y0435059D01*
X0436134Y0435168D01*
X0436066Y0435308D01*
X0435378Y0435924D01*
X0434365Y0436937D01*
X0434365Y0445896D01*
X0440065Y0431002D01*
X0440065Y0430926D01*
X0440448Y0430001D01*
X0440806Y0429067D01*
X0440858Y0429011D01*
X0440887Y0428941D01*
X0441595Y0428233D01*
X0442283Y0427507D01*
X0442353Y0427476D01*
X0442406Y0427422D01*
X0443331Y0427039D01*
X0444245Y0426631D01*
X0444321Y0426629D01*
X0444391Y0426600D01*
X0440065Y0426600D01*
X0441965Y0427843D02*
X0441965Y0417600D01*
X0436965Y0417600D02*
X0436965Y0420145D01*
X0438420Y0421600D02*
X0465510Y0421600D01*
X0465098Y0422012D02*
X0467377Y0419733D01*
X0470354Y0418500D01*
X0473576Y0418500D01*
X0476553Y0419733D01*
X0478832Y0422012D01*
X0480065Y0424989D01*
X0480065Y0428211D01*
X0478832Y0431188D01*
X0476553Y0433467D01*
X0473576Y0434700D01*
X0471267Y0434700D01*
X0470032Y0435870D01*
X0469324Y0436578D01*
X0469254Y0436607D01*
X0469199Y0436659D01*
X0468264Y0437017D01*
X0467339Y0437400D01*
X0467264Y0437400D01*
X0467193Y0437427D01*
X0466192Y0437400D01*
X0449181Y0437400D01*
X0442915Y0453771D01*
X0442915Y0460832D01*
X0441819Y0463478D01*
X0439794Y0465504D01*
X0437147Y0466600D01*
X0437102Y0466600D01*
X0435333Y0468369D01*
X0439843Y0472878D01*
X0439843Y0479322D01*
X0435287Y0483878D01*
X0428843Y0483878D01*
X0426466Y0481500D01*
X0396391Y0481500D01*
X0394406Y0480678D01*
X0392887Y0479159D01*
X0391224Y0477495D01*
X0390354Y0477495D01*
X0387377Y0476262D01*
X0386965Y0475850D01*
X0386553Y0476262D01*
X0383576Y0477495D01*
X0381207Y0477495D01*
X0379543Y0479159D01*
X0378024Y0480678D01*
X0376039Y0481500D01*
X0369740Y0481500D01*
X0368843Y0481558D01*
X0368672Y0481500D01*
X0368491Y0481500D01*
X0367661Y0481156D01*
X0366809Y0480866D01*
X0366673Y0480747D01*
X0366506Y0480678D01*
X0365871Y0480042D01*
X0356423Y0471747D01*
X0356256Y0471678D01*
X0355621Y0471042D01*
X0354945Y0470449D01*
X0354865Y0470287D01*
X0354737Y0470159D01*
X0354393Y0469328D01*
X0353996Y0468522D01*
X0353984Y0468341D01*
X0353915Y0468174D01*
X0353915Y0467275D01*
X0353857Y0466378D01*
X0353915Y0466207D01*
X0353915Y0439000D01*
X0351537Y0436622D01*
X0351537Y0430178D01*
X0356093Y0425622D01*
X0360051Y0425622D01*
X0353967Y0419538D01*
X0353576Y0419700D01*
X0350465Y0419700D01*
X0350465Y0460084D01*
X0349674Y0461996D01*
X0348211Y0463458D01*
X0325061Y0486608D01*
X0323150Y0487400D01*
X0315101Y0487400D01*
X0315527Y0487826D01*
X0316935Y0490266D01*
X0317664Y0492987D01*
X0317664Y0495804D01*
X0316935Y0498525D01*
X0315527Y0500965D01*
X0315289Y0501202D01*
X0353642Y0501203D01*
X0353404Y0500965D01*
X0351995Y0498525D01*
X0351266Y0495804D01*
X0351266Y0492987D01*
X0351995Y0490266D01*
X0353404Y0487826D01*
X0355396Y0485834D01*
X0357835Y0484425D01*
X0360557Y0483696D01*
X0363374Y0483696D01*
X0366095Y0484425D01*
X0368535Y0485834D01*
X0370527Y0487826D01*
X0371935Y0490266D01*
X0372664Y0492987D01*
X0372664Y0495804D01*
X0371935Y0498525D01*
X0370527Y0500965D01*
X0370288Y0501204D01*
X0398644Y0501205D01*
X0398404Y0500965D01*
X0396995Y0498525D01*
X0396266Y0495804D01*
X0396266Y0492987D01*
X0396995Y0490266D01*
X0398404Y0487826D01*
X0400396Y0485834D01*
X0402835Y0484425D01*
X0405557Y0483696D01*
X0408374Y0483696D01*
X0411095Y0484425D01*
X0413535Y0485834D01*
X0415527Y0487826D01*
X0416935Y0490266D01*
X0417664Y0492987D01*
X0417664Y0495804D01*
X0416935Y0498525D01*
X0415527Y0500965D01*
X0415286Y0501205D01*
X0453645Y0501206D01*
X0453404Y0500965D01*
X0451995Y0498525D01*
X0451266Y0495804D01*
X0451266Y0492987D01*
X0451995Y0490266D01*
X0453404Y0487826D01*
X0455396Y0485834D01*
X0457835Y0484425D01*
X0460557Y0483696D01*
X0463374Y0483696D01*
X0466095Y0484425D01*
X0468535Y0485834D01*
X0470527Y0487826D01*
X0471935Y0490266D01*
X0472664Y0492987D01*
X0472664Y0495804D01*
X0471935Y0498525D01*
X0470527Y0500965D01*
X0470284Y0501207D01*
X0498647Y0501208D01*
X0498404Y0500965D01*
X0496995Y0498525D01*
X0496266Y0495804D01*
X0496266Y0492987D01*
X0496995Y0490266D01*
X0497091Y0490100D01*
X0492490Y0490100D01*
X0491951Y0490206D01*
X0491426Y0490100D01*
X0490891Y0490100D01*
X0490384Y0489890D01*
X0489845Y0489781D01*
X0489401Y0489483D01*
X0488906Y0489278D01*
X0488518Y0488889D01*
X0488062Y0488583D01*
X0487766Y0488137D01*
X0487387Y0487759D01*
X0487177Y0487251D01*
X0480695Y0477495D01*
X0480354Y0477495D01*
X0477377Y0476262D01*
X0476965Y0475850D01*
X0476553Y0476262D01*
X0473576Y0477495D01*
X0470354Y0477495D01*
X0467377Y0476262D01*
X0465098Y0473984D01*
X0463865Y0471006D01*
X0463865Y0467784D01*
X0465031Y0464970D01*
X0464700Y0464863D01*
X0463873Y0464441D01*
X0463122Y0463896D01*
X0462465Y0463239D01*
X0461919Y0462488D01*
X0461497Y0461660D01*
X0461210Y0460777D01*
X0461065Y0459860D01*
X0461065Y0459395D01*
X0461065Y0458931D01*
X0461210Y0458014D01*
X0461497Y0457130D01*
X0461919Y0456303D01*
X0462465Y0455552D01*
X0463122Y0454895D01*
X0463873Y0454349D01*
X0464700Y0453928D01*
X0465584Y0453641D01*
X0466501Y0453495D01*
X0466965Y0453495D01*
X0466965Y0459395D01*
X0466965Y0459395D01*
X0461065Y0459395D01*
X0466965Y0459395D01*
X0466965Y0459395D01*
X0466965Y0437421D01*
X0469271Y0436600D02*
X0474328Y0436600D01*
X0472987Y0437941D02*
X0496351Y0414578D01*
X0493243Y0414578D01*
X0488687Y0410022D01*
X0488687Y0403578D01*
X0491065Y0401200D01*
X0491065Y0260882D01*
X0490410Y0260227D01*
X0489036Y0261600D01*
X0486965Y0261600D01*
X0484894Y0261600D01*
X0481965Y0258671D01*
X0481965Y0428963D01*
X0480065Y0426600D02*
X0484328Y0426600D01*
X0486965Y0423963D02*
X0486965Y0256600D01*
X0471965Y0256600D01*
X0471965Y0251250D01*
X0471965Y0251600D02*
X0471965Y0251600D01*
X0474531Y0251600D02*
X0484894Y0251600D01*
X0486965Y0251600D01*
X0486965Y0251600D01*
X0486965Y0256600D01*
X0486965Y0256600D01*
X0481965Y0256600D01*
X0481965Y0256600D01*
X0481965Y0254529D01*
X0481965Y0247400D01*
X0480453Y0247400D02*
X0477660Y0246243D01*
X0475522Y0244105D01*
X0475454Y0243940D01*
X0474795Y0244418D01*
X0474038Y0244804D01*
X0473230Y0245067D01*
X0472390Y0245200D01*
X0471965Y0245200D01*
X0471965Y0236600D01*
X0471965Y0241600D02*
X0471965Y0241600D01*
X0466965Y0245548D02*
X0466965Y0254034D01*
X0466965Y0256600D02*
X0466965Y0256600D01*
X0466965Y0259166D02*
X0466965Y0334600D01*
X0466765Y0334800D02*
X0467843Y0333722D01*
X0474287Y0333722D01*
X0476965Y0336400D02*
X0476965Y0259166D01*
X0476965Y0256600D02*
X0476965Y0256600D01*
X0477315Y0256600D02*
X0471965Y0256600D01*
X0471965Y0256600D01*
X0477315Y0256600D01*
X0476965Y0254034D02*
X0476965Y0245548D01*
X0478522Y0246600D02*
X0465408Y0246600D01*
X0461965Y0247400D02*
X0461965Y0288031D01*
X0460164Y0286600D02*
X0491065Y0286600D01*
X0491065Y0281600D02*
X0453869Y0281600D01*
X0451965Y0280088D02*
X0451965Y0264150D01*
X0446965Y0262277D02*
X0446965Y0276117D01*
X0447573Y0276600D02*
X0491065Y0276600D01*
X0491065Y0271600D02*
X0442465Y0271600D01*
X0442465Y0272543D02*
X0442465Y0261282D01*
X0444165Y0259582D01*
X0444165Y0253618D01*
X0442365Y0251818D01*
X0442365Y0250526D01*
X0441543Y0248541D01*
X0440024Y0247022D01*
X0429565Y0236563D01*
X0429565Y0231888D01*
X0428408Y0229095D01*
X0426270Y0226957D01*
X0423477Y0225800D01*
X0420453Y0225800D01*
X0417660Y0226957D01*
X0415522Y0229095D01*
X0415454Y0229260D01*
X0414795Y0228782D01*
X0414038Y0228396D01*
X0413230Y0228133D01*
X0412390Y0228000D01*
X0411965Y0228000D01*
X0411965Y0236600D01*
X0411965Y0256600D01*
X0411965Y0251250D01*
X0414531Y0251600D02*
X0424894Y0251600D01*
X0426965Y0251600D01*
X0426965Y0251600D01*
X0426965Y0256600D01*
X0411965Y0256600D01*
X0411965Y0256600D01*
X0417315Y0256600D01*
X0416965Y0256600D02*
X0416965Y0256600D01*
X0416965Y0254034D02*
X0416965Y0245548D01*
X0417660Y0246243D02*
X0420453Y0247400D01*
X0423477Y0247400D01*
X0424645Y0246916D01*
X0430556Y0252827D01*
X0430410Y0252973D01*
X0429036Y0251600D01*
X0429328Y0251600D01*
X0429036Y0251600D02*
X0426965Y0251600D01*
X0426965Y0256600D01*
X0426965Y0256600D01*
X0421965Y0256600D01*
X0421965Y0256600D01*
X0421965Y0254529D01*
X0421965Y0247400D01*
X0424894Y0251600D02*
X0421965Y0254529D01*
X0421965Y0256600D02*
X0426965Y0256600D01*
X0426965Y0261600D01*
X0426965Y0256600D01*
X0426965Y0256600D01*
X0426965Y0256600D01*
X0426965Y0276000D01*
X0431665Y0271600D02*
X0202165Y0271600D01*
X0202165Y0271618D02*
X0204165Y0273618D01*
X0204165Y0279582D01*
X0199948Y0283800D01*
X0193983Y0283800D01*
X0190410Y0280227D01*
X0189036Y0281600D01*
X0186965Y0281600D01*
X0184894Y0281600D01*
X0181965Y0278671D01*
X0181965Y0291400D01*
X0185500Y0291400D02*
X0136365Y0291400D01*
X0136965Y0291400D02*
X0136965Y0116000D01*
X0136365Y0116600D02*
X0172662Y0116600D01*
X0171965Y0117003D02*
X0171965Y0116000D01*
X0166965Y0116000D02*
X0166965Y0123767D01*
X0167667Y0121600D02*
X0136365Y0121600D01*
X0136365Y0126600D02*
X0166738Y0126600D01*
X0166965Y0128173D02*
X0166965Y0218136D01*
X0169526Y0216600D02*
X0136365Y0216600D01*
X0136365Y0221600D02*
X0161193Y0221600D01*
X0161965Y0221136D02*
X0161965Y0116000D01*
X0156965Y0116000D02*
X0156965Y0224136D01*
X0154079Y0225868D02*
X0177997Y0211517D01*
X0178340Y0211174D01*
X0179079Y0210868D01*
X0179764Y0210457D01*
X0180244Y0210386D01*
X0180692Y0210200D01*
X0181492Y0210200D01*
X0182282Y0210082D01*
X0182753Y0210200D01*
X0195927Y0210200D01*
X0196149Y0210126D01*
X0197192Y0210200D01*
X0198238Y0210200D01*
X0198455Y0210290D01*
X0198689Y0210306D01*
X0199624Y0210774D01*
X0200591Y0211174D01*
X0200756Y0211340D01*
X0216965Y0219445D01*
X0216965Y0152219D01*
X0217222Y0151600D02*
X0221377Y0151600D01*
X0221192Y0151153D02*
X0222402Y0154075D01*
X0224639Y0156311D01*
X0227561Y0157521D01*
X0230723Y0157521D01*
X0233645Y0156311D01*
X0235882Y0154075D01*
X0237092Y0151153D01*
X0237092Y0140890D01*
X0235882Y0137968D01*
X0233645Y0135732D01*
X0230723Y0134521D01*
X0227561Y0134521D01*
X0224639Y0135732D01*
X0222402Y0137968D01*
X0221192Y0140890D01*
X0221192Y0151153D01*
X0221965Y0153019D02*
X0221965Y0216945D01*
X0222654Y0216600D02*
X0211276Y0216600D01*
X0211965Y0216945D02*
X0211965Y0157137D01*
X0211038Y0157521D02*
X0207876Y0157521D01*
X0204954Y0156311D01*
X0202717Y0154075D01*
X0201507Y0151153D01*
X0201507Y0140890D01*
X0202717Y0137968D01*
X0204954Y0135732D01*
X0207876Y0134521D01*
X0211038Y0134521D01*
X0213960Y0135732D01*
X0216197Y0137968D01*
X0217407Y0140890D01*
X0217407Y0151153D01*
X0216197Y0154075D01*
X0213960Y0156311D01*
X0211038Y0157521D01*
X0213262Y0156600D02*
X0225337Y0156600D01*
X0226965Y0157275D02*
X0226965Y0214445D01*
X0231965Y0211945D02*
X0231965Y0157007D01*
X0232947Y0156600D02*
X0245022Y0156600D01*
X0244324Y0156311D02*
X0242087Y0154075D01*
X0240877Y0151153D01*
X0240877Y0140890D01*
X0242087Y0137968D01*
X0244324Y0135732D01*
X0247246Y0134521D01*
X0250408Y0134521D01*
X0253330Y0135732D01*
X0255567Y0137968D01*
X0256777Y0140890D01*
X0256777Y0151153D01*
X0255567Y0154075D01*
X0253330Y0156311D01*
X0250408Y0157521D01*
X0247246Y0157521D01*
X0244324Y0156311D01*
X0246965Y0157405D02*
X0246965Y0210200D01*
X0241965Y0210200D02*
X0241965Y0153780D01*
X0241062Y0151600D02*
X0236907Y0151600D01*
X0236965Y0151459D02*
X0236965Y0210184D01*
X0236738Y0210200D02*
X0237781Y0210126D01*
X0238004Y0210200D01*
X0255927Y0210200D01*
X0256149Y0210126D01*
X0257192Y0210200D01*
X0258238Y0210200D01*
X0258455Y0210290D01*
X0258689Y0210306D01*
X0259624Y0210774D01*
X0260591Y0211174D01*
X0260756Y0211340D01*
X0276965Y0219445D01*
X0276965Y0187200D01*
X0275354Y0187200D02*
X0272377Y0185967D01*
X0270098Y0183688D01*
X0268865Y0180711D01*
X0268865Y0177489D01*
X0270098Y0174512D01*
X0272377Y0172233D01*
X0275354Y0171000D01*
X0278576Y0171000D01*
X0281553Y0172233D01*
X0281965Y0172645D01*
X0282377Y0172233D01*
X0285354Y0171000D01*
X0288576Y0171000D01*
X0291553Y0172233D01*
X0291965Y0172645D01*
X0292377Y0172233D01*
X0295354Y0171000D01*
X0298576Y0171000D01*
X0301553Y0172233D01*
X0303584Y0174264D01*
X0303873Y0174054D01*
X0304700Y0173632D01*
X0305584Y0173345D01*
X0306501Y0173200D01*
X0306965Y0173200D01*
X0306965Y0179100D01*
X0306965Y0185000D01*
X0306501Y0185000D01*
X0305584Y0184855D01*
X0304700Y0184568D01*
X0303873Y0184146D01*
X0303584Y0183936D01*
X0301553Y0185967D01*
X0298576Y0187200D01*
X0295354Y0187200D01*
X0292377Y0185967D01*
X0291965Y0185555D01*
X0291553Y0185967D01*
X0288576Y0187200D01*
X0285354Y0187200D01*
X0282377Y0185967D01*
X0281965Y0185555D01*
X0281553Y0185967D01*
X0278576Y0187200D01*
X0275354Y0187200D01*
X0273906Y0186600D02*
X0136365Y0186600D01*
X0136365Y0191600D02*
X0654046Y0191600D01*
X0651965Y0193680D02*
X0651965Y0150750D01*
X0646965Y0150750D02*
X0646965Y0196000D01*
X0641965Y0196000D02*
X0641965Y0150750D01*
X0636965Y0150750D02*
X0636965Y0196000D01*
X0631965Y0196000D02*
X0631965Y0150750D01*
X0626965Y0150750D02*
X0626965Y0196000D01*
X0621965Y0196000D02*
X0621965Y0150750D01*
X0616965Y0150750D02*
X0616965Y0196000D01*
X0611965Y0196000D02*
X0611965Y0150750D01*
X0606965Y0150750D02*
X0606965Y0196000D01*
X0601965Y0196000D02*
X0601965Y0150750D01*
X0596965Y0150750D02*
X0596965Y0196000D01*
X0591965Y0196000D02*
X0591965Y0150750D01*
X0586965Y0150750D02*
X0586965Y0196000D01*
X0581965Y0196000D02*
X0581965Y0150750D01*
X0576965Y0150750D02*
X0576965Y0196000D01*
X0571965Y0196000D02*
X0571965Y0150750D01*
X0566965Y0150750D02*
X0566965Y0196000D01*
X0561965Y0196000D02*
X0561965Y0150750D01*
X0556965Y0150750D02*
X0556965Y0196000D01*
X0551965Y0196000D02*
X0551965Y0150750D01*
X0546965Y0150750D02*
X0546965Y0199655D01*
X0545021Y0201600D02*
X0532313Y0201600D01*
X0532433Y0201365D02*
X0532011Y0202192D01*
X0531465Y0202944D01*
X0530809Y0203600D01*
X0530057Y0204146D01*
X0529230Y0204568D01*
X0528347Y0204855D01*
X0527430Y0205000D01*
X0526965Y0205000D01*
X0526501Y0205000D01*
X0525584Y0204855D01*
X0524700Y0204568D01*
X0523873Y0204146D01*
X0523122Y0203600D01*
X0522465Y0202944D01*
X0521965Y0202256D01*
X0521965Y0209275D01*
X0516965Y0209275D02*
X0516965Y0199100D01*
X0516965Y0199100D01*
X0511065Y0199100D01*
X0511065Y0198636D01*
X0511210Y0197718D01*
X0511497Y0196835D01*
X0511919Y0196008D01*
X0512465Y0195256D01*
X0513122Y0194600D01*
X0513873Y0194054D01*
X0514700Y0193632D01*
X0515584Y0193345D01*
X0516501Y0193200D01*
X0516965Y0193200D01*
X0516965Y0199100D01*
X0511065Y0199100D01*
X0511065Y0199564D01*
X0511210Y0200482D01*
X0511497Y0201365D01*
X0511919Y0202192D01*
X0512465Y0202944D01*
X0513122Y0203600D01*
X0513873Y0204146D01*
X0514700Y0204568D01*
X0515584Y0204855D01*
X0516501Y0205000D01*
X0516965Y0205000D01*
X0516965Y0199100D01*
X0516965Y0199100D01*
X0516965Y0199100D01*
X0516965Y0150750D01*
X0511965Y0150750D02*
X0511965Y0195944D01*
X0511617Y0196600D02*
X0136365Y0196600D01*
X0136365Y0201600D02*
X0320577Y0201600D01*
X0321095Y0201471D02*
X0323743Y0198822D01*
X0330187Y0198822D01*
X0334743Y0203378D01*
X0334743Y0209822D01*
X0330187Y0214378D01*
X0323743Y0214378D01*
X0323443Y0214077D01*
X0326965Y0214378D02*
X0326965Y0250923D01*
X0326288Y0251600D02*
X0317365Y0251600D01*
X0316965Y0249060D02*
X0316965Y0215697D01*
X0313353Y0216600D02*
X0348723Y0216600D01*
X0346965Y0217971D02*
X0346965Y0167037D01*
X0347402Y0166600D02*
X0737801Y0166600D01*
X0737801Y0161600D02*
X0734093Y0161600D01*
X0734116Y0161529D02*
X0733836Y0162390D01*
X0733425Y0163196D01*
X0732893Y0163929D01*
X0732253Y0164569D01*
X0731521Y0165101D01*
X0730715Y0165511D01*
X0729854Y0165791D01*
X0728960Y0165933D01*
X0724957Y0165933D01*
X0720955Y0165933D01*
X0720061Y0165791D01*
X0719200Y0165511D01*
X0718394Y0165101D01*
X0717661Y0164569D01*
X0717021Y0163929D01*
X0716490Y0163196D01*
X0716079Y0162390D01*
X0715799Y0161529D01*
X0715657Y0160635D01*
X0715657Y0160183D01*
X0724957Y0160183D01*
X0724957Y0165933D01*
X0724957Y0160183D01*
X0724957Y0160183D01*
X0724957Y0160183D01*
X0715657Y0160183D01*
X0715657Y0159730D01*
X0715799Y0158836D01*
X0716079Y0157975D01*
X0716490Y0157169D01*
X0717021Y0156437D01*
X0717661Y0155797D01*
X0718394Y0155265D01*
X0719200Y0154854D01*
X0720061Y0154574D01*
X0720955Y0154433D01*
X0724957Y0154433D01*
X0724957Y0160183D01*
X0734257Y0160183D01*
X0734257Y0160635D01*
X0734116Y0161529D01*
X0734257Y0160183D02*
X0724957Y0160183D01*
X0724957Y0160183D01*
X0724957Y0160183D01*
X0724957Y0154433D01*
X0728960Y0154433D01*
X0729854Y0154574D01*
X0730715Y0154854D01*
X0731521Y0155265D01*
X0732253Y0155797D01*
X0732893Y0156437D01*
X0733425Y0157169D01*
X0733836Y0157975D01*
X0734116Y0158836D01*
X0734257Y0159730D01*
X0734257Y0160183D01*
X0731965Y0160183D02*
X0731965Y0160183D01*
X0733012Y0156600D02*
X0737801Y0156600D01*
X0737801Y0151600D02*
X0362402Y0151600D01*
X0361965Y0152037D02*
X0361965Y0206268D01*
X0361421Y0206600D02*
X0334743Y0206600D01*
X0332965Y0201600D02*
X0511617Y0201600D01*
X0511965Y0202256D02*
X0511965Y0209275D01*
X0506965Y0209275D02*
X0506965Y0150750D01*
X0501965Y0150750D02*
X0501965Y0209275D01*
X0496965Y0209275D02*
X0496965Y0150750D01*
X0491965Y0150750D02*
X0491965Y0209275D01*
X0486965Y0209731D02*
X0486965Y0150750D01*
X0481965Y0150750D02*
X0481965Y0212125D01*
X0483062Y0211600D02*
X0449143Y0211600D01*
X0446965Y0209830D02*
X0446965Y0150750D01*
X0441965Y0150750D02*
X0441965Y0206243D01*
X0442992Y0206600D02*
X0540021Y0206600D01*
X0541965Y0204655D02*
X0541965Y0150750D01*
X0536965Y0150750D02*
X0536965Y0209275D01*
X0531965Y0209275D02*
X0531965Y0202256D01*
X0532433Y0201365D02*
X0532720Y0200482D01*
X0532865Y0199564D01*
X0532865Y0199100D01*
X0526965Y0199100D01*
X0526965Y0199100D01*
X0516965Y0199100D01*
X0516965Y0205000D01*
X0517430Y0205000D01*
X0518347Y0204855D01*
X0519230Y0204568D01*
X0520057Y0204146D01*
X0520809Y0203600D01*
X0521465Y0202944D01*
X0521965Y0202256D01*
X0521965Y0199100D02*
X0521965Y0199100D01*
X0521065Y0199100D02*
X0526965Y0199100D01*
X0526965Y0205000D01*
X0526965Y0199100D01*
X0526965Y0199100D01*
X0526965Y0199100D01*
X0526965Y0193200D01*
X0526501Y0193200D01*
X0525584Y0193345D01*
X0524700Y0193632D01*
X0523873Y0194054D01*
X0523122Y0194600D01*
X0522465Y0195256D01*
X0521965Y0195944D01*
X0521965Y0150750D01*
X0526965Y0150750D02*
X0526965Y0199100D01*
X0526965Y0209275D01*
X0526965Y0201600D02*
X0526965Y0201600D01*
X0526965Y0199100D02*
X0526965Y0199100D01*
X0526965Y0193200D01*
X0527430Y0193200D01*
X0528347Y0193345D01*
X0529230Y0193632D01*
X0530057Y0194054D01*
X0530809Y0194600D01*
X0531465Y0195256D01*
X0532011Y0196008D01*
X0532433Y0196835D01*
X0532720Y0197718D01*
X0532865Y0198636D01*
X0532865Y0199100D01*
X0526965Y0199100D01*
X0526965Y0196600D02*
X0526965Y0196600D01*
X0521965Y0195944D02*
X0521465Y0195256D01*
X0520809Y0194600D01*
X0520057Y0194054D01*
X0519230Y0193632D01*
X0518347Y0193345D01*
X0517430Y0193200D01*
X0516965Y0193200D01*
X0516965Y0199100D01*
X0516965Y0199100D01*
X0521065Y0199100D01*
X0516965Y0201600D02*
X0516965Y0201600D01*
X0516965Y0196600D02*
X0516965Y0196600D01*
X0511965Y0199100D02*
X0511965Y0199100D01*
X0531965Y0199100D02*
X0531965Y0199100D01*
X0532313Y0196600D02*
X0550378Y0196600D01*
X0552940Y0201600D02*
X0539665Y0214875D01*
X0489190Y0214875D01*
X0460935Y0228404D01*
X0461365Y0228650D01*
X0461365Y0236000D01*
X0461965Y0236600D01*
X0462265Y0235800D01*
X0462265Y0234000D01*
X0461965Y0236600D02*
X0461365Y0236700D01*
X0452365Y0245700D01*
X0452365Y0256500D01*
X0451965Y0256600D01*
X0444415Y0256600D02*
X0444165Y0256600D01*
X0442465Y0261600D02*
X0446288Y0261600D01*
X0442465Y0266600D02*
X0491065Y0266600D01*
X0491065Y0261600D02*
X0474531Y0261600D01*
X0471965Y0261600D02*
X0471965Y0261600D01*
X0469399Y0261600D02*
X0457643Y0261600D01*
X0456965Y0262277D02*
X0456965Y0284059D01*
X0464131Y0289751D02*
X0442465Y0272543D01*
X0431665Y0266600D02*
X0199202Y0266600D01*
X0201343Y0268741D02*
X0202165Y0270726D01*
X0202165Y0271618D01*
X0201965Y0270243D02*
X0201965Y0262277D01*
X0201288Y0261600D02*
X0194202Y0261600D01*
X0191965Y0259363D02*
X0191965Y0223000D01*
X0195454Y0223000D02*
X0183738Y0223000D01*
X0163365Y0235224D01*
X0163365Y0244052D01*
X0163408Y0244095D01*
X0163477Y0244260D01*
X0164135Y0243782D01*
X0164892Y0243396D01*
X0165701Y0243133D01*
X0166540Y0243000D01*
X0166965Y0243000D01*
X0166965Y0251600D01*
X0166965Y0260200D01*
X0166540Y0260200D01*
X0165701Y0260067D01*
X0164892Y0259804D01*
X0164135Y0259418D01*
X0163477Y0258940D01*
X0163408Y0259105D01*
X0161270Y0261243D01*
X0158477Y0262400D01*
X0155453Y0262400D01*
X0155074Y0262243D01*
X0153665Y0263651D01*
X0153665Y0267623D01*
X0154515Y0268473D01*
X0154515Y0274727D01*
X0150093Y0279150D01*
X0143838Y0279150D01*
X0139415Y0274727D01*
X0139415Y0268473D01*
X0140865Y0267023D01*
X0140865Y0259727D01*
X0141840Y0257375D01*
X0149365Y0249849D01*
X0149365Y0246888D01*
X0150522Y0244095D01*
X0150565Y0244052D01*
X0150565Y0232074D01*
X0150448Y0231283D01*
X0150565Y0230812D01*
X0150565Y0230327D01*
X0150871Y0229588D01*
X0151065Y0228813D01*
X0151354Y0228423D01*
X0151540Y0227975D01*
X0152105Y0227409D01*
X0152581Y0226767D01*
X0152997Y0226517D01*
X0153340Y0226174D01*
X0154079Y0225868D01*
X0152859Y0226600D02*
X0136365Y0226600D01*
X0136365Y0231600D02*
X0150495Y0231600D01*
X0151965Y0227549D02*
X0151965Y0116000D01*
X0146965Y0116000D02*
X0146965Y0252249D01*
X0147614Y0251600D02*
X0136365Y0251600D01*
X0136365Y0246600D02*
X0149485Y0246600D01*
X0150565Y0241600D02*
X0136365Y0241600D01*
X0136365Y0236600D02*
X0150565Y0236600D01*
X0163365Y0236600D02*
X0209365Y0236600D01*
X0209365Y0241312D02*
X0209365Y0231888D01*
X0210028Y0230287D01*
X0195454Y0223000D01*
X0196965Y0223755D02*
X0196965Y0264363D01*
X0199415Y0259727D02*
X0199415Y0253473D01*
X0203838Y0249050D01*
X0205464Y0249050D01*
X0210489Y0244025D01*
X0209365Y0241312D01*
X0209485Y0241600D02*
X0180408Y0241600D01*
X0181270Y0241957D02*
X0183408Y0244095D01*
X0184565Y0246888D01*
X0184565Y0251963D01*
X0201343Y0268741D01*
X0203838Y0264150D02*
X0199415Y0259727D01*
X0199415Y0256600D02*
X0189202Y0256600D01*
X0186965Y0254363D02*
X0186965Y0223000D01*
X0181965Y0224064D02*
X0181965Y0242652D01*
X0181270Y0241957D02*
X0178477Y0240800D01*
X0175453Y0240800D01*
X0172660Y0241957D01*
X0170522Y0244095D01*
X0170454Y0244260D01*
X0169795Y0243782D01*
X0169038Y0243396D01*
X0168230Y0243133D01*
X0167390Y0243000D01*
X0166965Y0243000D01*
X0166965Y0251600D01*
X0166965Y0251600D01*
X0166965Y0251600D01*
X0166965Y0271600D01*
X0154515Y0271600D01*
X0153665Y0266600D02*
X0164399Y0266600D01*
X0164749Y0266250D02*
X0166965Y0266250D01*
X0166965Y0271600D01*
X0166965Y0271600D01*
X0161615Y0271600D01*
X0161615Y0269384D01*
X0164749Y0266250D01*
X0166965Y0266250D02*
X0169181Y0266250D01*
X0172315Y0269384D01*
X0172315Y0271600D01*
X0172315Y0273816D01*
X0169181Y0276950D01*
X0166965Y0276950D01*
X0164749Y0276950D01*
X0161615Y0273816D01*
X0161615Y0271600D01*
X0166965Y0271600D01*
X0166965Y0276950D01*
X0166965Y0271600D01*
X0166965Y0271600D01*
X0166965Y0271600D01*
X0166965Y0291400D01*
X0161965Y0291400D02*
X0161965Y0274166D01*
X0161965Y0271600D02*
X0161965Y0271600D01*
X0161965Y0269034D02*
X0161965Y0260548D01*
X0160408Y0261600D02*
X0173522Y0261600D01*
X0172660Y0261243D02*
X0170522Y0259105D01*
X0170454Y0258940D01*
X0169795Y0259418D01*
X0169038Y0259804D01*
X0168230Y0260067D01*
X0167390Y0260200D01*
X0166965Y0260200D01*
X0166965Y0251600D01*
X0166965Y0233064D01*
X0169405Y0231600D02*
X0209485Y0231600D01*
X0206965Y0228755D02*
X0206965Y0247549D01*
X0207914Y0246600D02*
X0184446Y0246600D01*
X0184565Y0251600D02*
X0201288Y0251600D01*
X0201965Y0250923D02*
X0201965Y0226255D01*
X0202654Y0226600D02*
X0177738Y0226600D01*
X0176965Y0227064D02*
X0176965Y0240800D01*
X0173522Y0241600D02*
X0163365Y0241600D01*
X0166965Y0246600D02*
X0166965Y0246600D01*
X0171965Y0242652D02*
X0171965Y0230064D01*
X0171965Y0215136D02*
X0171965Y0134938D01*
X0168395Y0131600D02*
X0136365Y0131600D01*
X0136365Y0136600D02*
X0204085Y0136600D01*
X0206965Y0134898D02*
X0206965Y0116000D01*
X0201965Y0116000D02*
X0201965Y0139784D01*
X0201507Y0141600D02*
X0136365Y0141600D01*
X0136365Y0146600D02*
X0201507Y0146600D01*
X0201692Y0151600D02*
X0136365Y0151600D01*
X0136365Y0156600D02*
X0205652Y0156600D01*
X0206965Y0157144D02*
X0206965Y0214445D01*
X0201965Y0211945D02*
X0201965Y0152259D01*
X0217407Y0146600D02*
X0221192Y0146600D01*
X0221192Y0141600D02*
X0217407Y0141600D01*
X0216965Y0139823D02*
X0216965Y0116000D01*
X0211965Y0116000D02*
X0211965Y0134905D01*
X0214829Y0136600D02*
X0223770Y0136600D01*
X0221965Y0139023D02*
X0221965Y0116000D01*
X0226965Y0116000D02*
X0226965Y0134768D01*
X0231965Y0135036D02*
X0231965Y0116000D01*
X0236965Y0116000D02*
X0236965Y0140584D01*
X0237092Y0141600D02*
X0240877Y0141600D01*
X0241965Y0138263D02*
X0241965Y0116000D01*
X0246965Y0116000D02*
X0246965Y0134637D01*
X0243455Y0136600D02*
X0234514Y0136600D01*
X0237092Y0146600D02*
X0240877Y0146600D01*
X0256777Y0146600D02*
X0260562Y0146600D01*
X0260562Y0151153D02*
X0260562Y0140890D01*
X0261772Y0137968D01*
X0264009Y0135732D01*
X0266931Y0134521D01*
X0270093Y0134521D01*
X0273015Y0135732D01*
X0275252Y0137968D01*
X0276462Y0140890D01*
X0276462Y0151153D01*
X0275252Y0154075D01*
X0273015Y0156311D01*
X0270093Y0157521D01*
X0266931Y0157521D01*
X0264009Y0156311D01*
X0261772Y0154075D01*
X0260562Y0151153D01*
X0260747Y0151600D02*
X0256592Y0151600D01*
X0261965Y0154267D02*
X0261965Y0211945D01*
X0261276Y0211600D02*
X0292654Y0211600D01*
X0291965Y0211945D02*
X0291965Y0185555D01*
X0290025Y0186600D02*
X0293906Y0186600D01*
X0296965Y0187200D02*
X0296965Y0209445D01*
X0301965Y0206945D02*
X0301965Y0185555D01*
X0300025Y0186600D02*
X0323906Y0186600D01*
X0325354Y0187200D02*
X0322377Y0185967D01*
X0320346Y0183936D01*
X0320057Y0184146D01*
X0319230Y0184568D01*
X0318347Y0184855D01*
X0317430Y0185000D01*
X0316965Y0185000D01*
X0316501Y0185000D01*
X0315584Y0184855D01*
X0314700Y0184568D01*
X0313873Y0184146D01*
X0313122Y0183600D01*
X0312465Y0182944D01*
X0311965Y0182256D01*
X0311965Y0203753D01*
X0306965Y0205003D02*
X0306965Y0179100D01*
X0306965Y0179100D01*
X0306965Y0179100D01*
X0306965Y0116000D01*
X0301965Y0116000D02*
X0301965Y0172645D01*
X0300025Y0171600D02*
X0323905Y0171600D01*
X0325354Y0171000D02*
X0322377Y0172233D01*
X0320346Y0174264D01*
X0320057Y0174054D01*
X0319230Y0173632D01*
X0318347Y0173345D01*
X0317430Y0173200D01*
X0316965Y0173200D01*
X0316965Y0179100D01*
X0316965Y0179100D01*
X0306965Y0179100D01*
X0306965Y0185000D01*
X0307430Y0185000D01*
X0308347Y0184855D01*
X0309230Y0184568D01*
X0310057Y0184146D01*
X0310809Y0183600D01*
X0311465Y0182944D01*
X0311965Y0182256D01*
X0311965Y0179100D02*
X0311965Y0179100D01*
X0311065Y0179100D02*
X0316965Y0179100D01*
X0316965Y0185000D01*
X0316965Y0179100D01*
X0316965Y0179100D01*
X0316965Y0179100D01*
X0316965Y0202503D01*
X0321095Y0201471D02*
X0305955Y0205256D01*
X0305242Y0205306D01*
X0304731Y0205561D01*
X0304178Y0205700D01*
X0303604Y0206125D01*
X0276965Y0219445D01*
X0271965Y0216945D02*
X0271965Y0185555D01*
X0269233Y0181600D02*
X0136365Y0181600D01*
X0136365Y0176600D02*
X0269233Y0176600D01*
X0271965Y0172645D02*
X0271965Y0156746D01*
X0272318Y0156600D02*
X0342128Y0156600D01*
X0341965Y0156763D02*
X0341965Y0116000D01*
X0336965Y0116000D02*
X0336965Y0161763D01*
X0337128Y0161600D02*
X0136365Y0161600D01*
X0136365Y0166600D02*
X0332128Y0166600D01*
X0331965Y0166763D02*
X0331965Y0116000D01*
X0326965Y0116000D02*
X0326965Y0171000D01*
X0327728Y0171000D02*
X0356437Y0142291D01*
X0357956Y0140772D01*
X0359941Y0139950D01*
X0687704Y0139950D01*
X0715178Y0135484D01*
X0716904Y0133758D01*
X0719826Y0132548D01*
X0730089Y0132548D01*
X0733011Y0133758D01*
X0735247Y0135994D01*
X0736457Y0138916D01*
X0736457Y0142079D01*
X0735247Y0145001D01*
X0733011Y0147237D01*
X0730089Y0148448D01*
X0719826Y0148448D01*
X0716904Y0147237D01*
X0715965Y0146298D01*
X0689627Y0150579D01*
X0689214Y0150750D01*
X0688576Y0150750D01*
X0687946Y0150852D01*
X0687512Y0150750D01*
X0363252Y0150750D01*
X0335065Y0178937D01*
X0335065Y0180711D01*
X0333832Y0183688D01*
X0331553Y0185967D01*
X0328576Y0187200D01*
X0325354Y0187200D01*
X0326965Y0187200D02*
X0326965Y0198822D01*
X0321965Y0200600D02*
X0321965Y0185555D01*
X0316965Y0181600D02*
X0316965Y0181600D01*
X0316965Y0179100D02*
X0316965Y0116000D01*
X0311965Y0116000D02*
X0311965Y0175944D01*
X0312465Y0175256D01*
X0313122Y0174600D01*
X0313873Y0174054D01*
X0314700Y0173632D01*
X0315584Y0173345D01*
X0316501Y0173200D01*
X0316965Y0173200D01*
X0316965Y0179100D01*
X0316965Y0176600D02*
X0316965Y0176600D01*
X0311965Y0175944D02*
X0311465Y0175256D01*
X0310809Y0174600D01*
X0310057Y0174054D01*
X0309230Y0173632D01*
X0308347Y0173345D01*
X0307430Y0173200D01*
X0306965Y0173200D01*
X0306965Y0179100D01*
X0306965Y0179100D01*
X0311065Y0179100D01*
X0306965Y0176600D02*
X0306965Y0176600D01*
X0306965Y0181600D02*
X0306965Y0181600D01*
X0296965Y0171000D02*
X0296965Y0116000D01*
X0291965Y0116000D02*
X0291965Y0172645D01*
X0290025Y0171600D02*
X0293905Y0171600D01*
X0286965Y0171000D02*
X0286965Y0116000D01*
X0281965Y0116000D02*
X0281965Y0172645D01*
X0280025Y0171600D02*
X0283905Y0171600D01*
X0276965Y0171000D02*
X0276965Y0116000D01*
X0271965Y0116000D02*
X0271965Y0135297D01*
X0273884Y0136600D02*
X0708314Y0136600D01*
X0706965Y0136819D02*
X0706965Y0116000D01*
X0701965Y0116000D02*
X0701965Y0137632D01*
X0696965Y0138445D02*
X0696965Y0116000D01*
X0691965Y0116000D02*
X0691965Y0139257D01*
X0686965Y0139950D02*
X0686965Y0116000D01*
X0681965Y0116000D02*
X0681965Y0139950D01*
X0676965Y0139950D02*
X0676965Y0116000D01*
X0671965Y0116000D02*
X0671965Y0139950D01*
X0666965Y0139950D02*
X0666965Y0116000D01*
X0661965Y0116000D02*
X0661965Y0119545D01*
X0663192Y0121600D02*
X0737801Y0121600D01*
X0737801Y0116600D02*
X0658197Y0116600D01*
X0656965Y0116145D02*
X0656965Y0116000D01*
X0649434Y0116600D02*
X0181426Y0116600D01*
X0181965Y0116912D02*
X0181965Y0116000D01*
X0186965Y0116000D02*
X0186965Y0123179D01*
X0186421Y0121600D02*
X0644439Y0121600D01*
X0646965Y0118246D02*
X0646965Y0116000D01*
X0641965Y0116000D02*
X0641965Y0139950D01*
X0636965Y0139950D02*
X0636965Y0116000D01*
X0631965Y0116000D02*
X0631965Y0139950D01*
X0626965Y0139950D02*
X0626965Y0116000D01*
X0621965Y0116000D02*
X0621965Y0139950D01*
X0616965Y0139950D02*
X0616965Y0116000D01*
X0611965Y0116000D02*
X0611965Y0139950D01*
X0606965Y0139950D02*
X0606965Y0116000D01*
X0601965Y0116000D02*
X0601965Y0139950D01*
X0596965Y0139950D02*
X0596965Y0116000D01*
X0591965Y0116000D02*
X0591965Y0139950D01*
X0586965Y0139950D02*
X0586965Y0116000D01*
X0581965Y0116000D02*
X0581965Y0139950D01*
X0576965Y0139950D02*
X0576965Y0116000D01*
X0571965Y0116000D02*
X0571965Y0139950D01*
X0566965Y0139950D02*
X0566965Y0116000D01*
X0561965Y0116000D02*
X0561965Y0139950D01*
X0556965Y0139950D02*
X0556965Y0116000D01*
X0551965Y0116000D02*
X0551965Y0139950D01*
X0546965Y0139950D02*
X0546965Y0116000D01*
X0541965Y0116000D02*
X0541965Y0139950D01*
X0536965Y0139950D02*
X0536965Y0116000D01*
X0531965Y0116000D02*
X0531965Y0139950D01*
X0526965Y0139950D02*
X0526965Y0116000D01*
X0521965Y0116000D02*
X0521965Y0139950D01*
X0516965Y0139950D02*
X0516965Y0116000D01*
X0511965Y0116000D02*
X0511965Y0139950D01*
X0506965Y0139950D02*
X0506965Y0116000D01*
X0501965Y0116000D02*
X0501965Y0139950D01*
X0496965Y0139950D02*
X0496965Y0116000D01*
X0491965Y0116000D02*
X0491965Y0139950D01*
X0486965Y0139950D02*
X0486965Y0116000D01*
X0481965Y0116000D02*
X0481965Y0139950D01*
X0476965Y0139950D02*
X0476965Y0116000D01*
X0471965Y0116000D02*
X0471965Y0139950D01*
X0466965Y0139950D02*
X0466965Y0116000D01*
X0461965Y0116000D02*
X0461965Y0139950D01*
X0456965Y0139950D02*
X0456965Y0116000D01*
X0451965Y0116000D02*
X0451965Y0139950D01*
X0446965Y0139950D02*
X0446965Y0116000D01*
X0441965Y0116000D02*
X0441965Y0139950D01*
X0436965Y0139950D02*
X0436965Y0116000D01*
X0431965Y0116000D02*
X0431965Y0139950D01*
X0426965Y0139950D02*
X0426965Y0116000D01*
X0421965Y0116000D02*
X0421965Y0139950D01*
X0416965Y0139950D02*
X0416965Y0116000D01*
X0411965Y0116000D02*
X0411965Y0139950D01*
X0406965Y0139950D02*
X0406965Y0116000D01*
X0401965Y0116000D02*
X0401965Y0139950D01*
X0396965Y0139950D02*
X0396965Y0116000D01*
X0391965Y0116000D02*
X0391965Y0139950D01*
X0386965Y0139950D02*
X0386965Y0116000D01*
X0381965Y0116000D02*
X0381965Y0139950D01*
X0376965Y0139950D02*
X0376965Y0116000D01*
X0371965Y0116000D02*
X0371965Y0139950D01*
X0366965Y0139950D02*
X0366965Y0116000D01*
X0361965Y0116000D02*
X0361965Y0139950D01*
X0357128Y0141600D02*
X0276462Y0141600D01*
X0276462Y0146600D02*
X0352128Y0146600D01*
X0351965Y0146763D02*
X0351965Y0116000D01*
X0346965Y0116000D02*
X0346965Y0151763D01*
X0347128Y0151600D02*
X0276277Y0151600D01*
X0266965Y0157521D02*
X0266965Y0214445D01*
X0271276Y0216600D02*
X0282654Y0216600D01*
X0281965Y0216945D02*
X0281965Y0185555D01*
X0280025Y0186600D02*
X0283906Y0186600D01*
X0286965Y0187200D02*
X0286965Y0214445D01*
X0301276Y0221600D02*
X0342314Y0221600D01*
X0341965Y0221872D02*
X0341965Y0172037D01*
X0342402Y0171600D02*
X0737801Y0171600D01*
X0737801Y0176600D02*
X0735759Y0176600D01*
X0736395Y0181600D02*
X0737801Y0181600D01*
X0737801Y0186600D02*
X0733018Y0186600D01*
X0731965Y0187040D02*
X0731965Y0192380D01*
X0733011Y0192813D02*
X0735247Y0195049D01*
X0736457Y0197971D01*
X0736457Y0201134D01*
X0735247Y0204056D01*
X0733011Y0206292D01*
X0730089Y0207503D01*
X0719826Y0207503D01*
X0716904Y0206292D01*
X0716564Y0205953D01*
X0700283Y0205953D01*
X0688911Y0210654D01*
X0685187Y0214378D01*
X0678743Y0214378D01*
X0674187Y0209822D01*
X0674187Y0203378D01*
X0678743Y0198822D01*
X0684028Y0198822D01*
X0696560Y0193641D01*
X0697739Y0193153D01*
X0697742Y0193153D01*
X0697744Y0193152D01*
X0699017Y0193153D01*
X0716564Y0193153D01*
X0716904Y0192813D01*
X0719826Y0191603D01*
X0730089Y0191603D01*
X0733011Y0192813D01*
X0735889Y0196600D02*
X0737801Y0196600D01*
X0737801Y0191600D02*
X0669885Y0191600D01*
X0671965Y0189520D02*
X0671965Y0208989D01*
X0674187Y0206600D02*
X0660025Y0206600D01*
X0661965Y0207645D02*
X0661965Y0199520D01*
X0659885Y0201600D02*
X0675966Y0201600D01*
X0676965Y0200600D02*
X0676965Y0185600D01*
X0674885Y0186600D02*
X0716897Y0186600D01*
X0716965Y0186633D02*
X0716965Y0192788D01*
X0711965Y0193153D02*
X0711965Y0185600D01*
X0706965Y0185600D02*
X0706965Y0193153D01*
X0701965Y0193153D02*
X0701965Y0185600D01*
X0696965Y0185600D02*
X0696965Y0193473D01*
X0691965Y0195541D02*
X0691965Y0185600D01*
X0686965Y0185600D02*
X0686965Y0197608D01*
X0689403Y0196600D02*
X0664885Y0196600D01*
X0666965Y0194520D02*
X0666965Y0208900D01*
X0675569Y0211600D02*
X0675966Y0211600D01*
X0676965Y0212600D02*
X0676965Y0212996D01*
X0680569Y0216600D02*
X0737801Y0216600D01*
X0737801Y0221600D02*
X0685569Y0221600D01*
X0686965Y0222996D02*
X0686965Y0212600D01*
X0687965Y0211600D02*
X0737801Y0211600D01*
X0737801Y0206600D02*
X0732268Y0206600D01*
X0731965Y0206725D02*
X0731965Y0232505D01*
X0733089Y0232971D02*
X0735326Y0235207D01*
X0736536Y0238129D01*
X0736536Y0241292D01*
X0735326Y0244214D01*
X0733089Y0246450D01*
X0730167Y0247660D01*
X0719905Y0247660D01*
X0716983Y0246450D01*
X0714746Y0244214D01*
X0713536Y0241292D01*
X0713536Y0238129D01*
X0714746Y0235207D01*
X0716983Y0232971D01*
X0719905Y0231760D01*
X0730167Y0231760D01*
X0733089Y0232971D01*
X0735903Y0236600D02*
X0737801Y0236600D01*
X0737801Y0231600D02*
X0695569Y0231600D01*
X0696965Y0232996D02*
X0696965Y0207324D01*
X0698717Y0206600D02*
X0717647Y0206600D01*
X0716965Y0206318D02*
X0716965Y0232988D01*
X0714169Y0236600D02*
X0700569Y0236600D01*
X0701965Y0237996D02*
X0701965Y0205953D01*
X0706965Y0205953D02*
X0706965Y0242996D01*
X0705569Y0241600D02*
X0713664Y0241600D01*
X0716965Y0246432D02*
X0716965Y0252673D01*
X0715569Y0251600D02*
X0719531Y0251600D01*
X0721965Y0251445D02*
X0721965Y0247660D01*
X0717345Y0246600D02*
X0710569Y0246600D01*
X0711965Y0247996D02*
X0711965Y0205953D01*
X0721965Y0207503D02*
X0721965Y0231760D01*
X0726965Y0231760D02*
X0726965Y0207503D01*
X0736264Y0201600D02*
X0737801Y0201600D01*
X0726965Y0191603D02*
X0726965Y0187818D01*
X0721965Y0187818D02*
X0721965Y0191603D01*
X0724165Y0180000D02*
X0673565Y0180000D01*
X0651965Y0201600D01*
X0552940Y0201600D01*
X0556965Y0207200D02*
X0556965Y0260700D01*
X0551965Y0260700D02*
X0551965Y0210495D01*
X0550860Y0211600D02*
X0619233Y0211600D01*
X0621965Y0207645D02*
X0621965Y0207200D01*
X0616965Y0207200D02*
X0616965Y0233800D01*
X0620510Y0231600D02*
X0536802Y0231600D01*
X0536965Y0231763D02*
X0536965Y0220475D01*
X0531965Y0220475D02*
X0531965Y0227266D01*
X0526965Y0226800D02*
X0526965Y0220475D01*
X0521965Y0220475D02*
X0521965Y0226976D01*
X0516965Y0231000D02*
X0516965Y0220475D01*
X0511965Y0220475D02*
X0511965Y0232645D01*
X0513010Y0231600D02*
X0489446Y0231600D01*
X0486965Y0227652D02*
X0486965Y0222149D01*
X0488112Y0221600D02*
X0620510Y0221600D01*
X0619233Y0216600D02*
X0545860Y0216600D01*
X0546965Y0215495D02*
X0546965Y0260955D01*
X0545561Y0261600D02*
X0538765Y0261600D01*
X0541965Y0264710D02*
X0541965Y0219984D01*
X0561965Y0207200D02*
X0561965Y0260700D01*
X0566965Y0260700D02*
X0566965Y0207200D01*
X0571965Y0207200D02*
X0571965Y0260700D01*
X0576965Y0260700D02*
X0576965Y0207200D01*
X0581965Y0207200D02*
X0581965Y0260700D01*
X0586965Y0260700D02*
X0586965Y0207200D01*
X0591965Y0207200D02*
X0591965Y0260700D01*
X0596965Y0260700D02*
X0596965Y0207200D01*
X0601965Y0207200D02*
X0601965Y0260700D01*
X0606965Y0260700D02*
X0606965Y0207200D01*
X0611965Y0207200D02*
X0611965Y0235818D01*
X0611183Y0236600D02*
X0538765Y0236600D01*
X0538765Y0241600D02*
X0609765Y0241600D01*
X0609765Y0246600D02*
X0538765Y0246600D01*
X0538765Y0251600D02*
X0611783Y0251600D01*
X0611965Y0251782D02*
X0611965Y0260700D01*
X0616965Y0260700D02*
X0616965Y0253800D01*
X0621965Y0251782D02*
X0621965Y0260700D01*
X0626965Y0260700D02*
X0626965Y0253800D01*
X0654165Y0246600D02*
X0672111Y0246600D01*
X0671965Y0246454D02*
X0671965Y0370200D01*
X0666965Y0370200D02*
X0666965Y0241454D01*
X0667111Y0241600D02*
X0654165Y0241600D01*
X0651965Y0235818D02*
X0651965Y0233055D01*
X0681965Y0217996D02*
X0681965Y0214378D01*
X0691965Y0209391D02*
X0691965Y0227996D01*
X0690569Y0226600D02*
X0737801Y0226600D01*
X0737801Y0241600D02*
X0736408Y0241600D01*
X0737801Y0246600D02*
X0732727Y0246600D01*
X0731965Y0246916D02*
X0731965Y0252190D01*
X0730541Y0251600D02*
X0737801Y0251600D01*
X0737801Y0256600D02*
X0736033Y0256600D01*
X0736278Y0261600D02*
X0737801Y0261600D01*
X0726965Y0251445D02*
X0726965Y0247660D01*
X0682111Y0256600D02*
X0538765Y0256600D01*
X0508865Y0246600D02*
X0499602Y0246600D01*
X0496965Y0243963D02*
X0496965Y0220475D01*
X0491965Y0220475D02*
X0491965Y0238963D01*
X0489602Y0236600D02*
X0508865Y0236600D01*
X0508865Y0241600D02*
X0494602Y0241600D01*
X0486965Y0249237D02*
X0486965Y0256600D01*
X0481965Y0256600D01*
X0481965Y0258671D01*
X0481965Y0254529D02*
X0484894Y0251600D01*
X0486965Y0251600D02*
X0489036Y0251600D01*
X0489328Y0251600D01*
X0489036Y0251600D02*
X0490410Y0252973D01*
X0490556Y0252827D01*
X0484645Y0246916D01*
X0483477Y0247400D01*
X0480453Y0247400D01*
X0486965Y0251600D02*
X0486965Y0256600D01*
X0486965Y0261600D01*
X0486965Y0256600D01*
X0486965Y0256600D01*
X0486965Y0256600D01*
X0501965Y0261782D02*
X0501965Y0401300D01*
X0502265Y0401600D02*
X0504565Y0401600D01*
X0504565Y0396600D02*
X0501865Y0396600D01*
X0501865Y0391600D02*
X0504565Y0391600D01*
X0504565Y0386600D02*
X0501865Y0386600D01*
X0501865Y0381600D02*
X0504565Y0381600D01*
X0504565Y0376600D02*
X0501865Y0376600D01*
X0501865Y0371600D02*
X0504565Y0371600D01*
X0504565Y0366600D02*
X0501865Y0366600D01*
X0501865Y0361600D02*
X0504565Y0361600D01*
X0504565Y0356600D02*
X0501865Y0356600D01*
X0501865Y0351600D02*
X0504565Y0351600D01*
X0504565Y0346600D02*
X0501865Y0346600D01*
X0501865Y0341600D02*
X0504565Y0341600D01*
X0504565Y0336600D02*
X0501865Y0336600D01*
X0501865Y0331600D02*
X0504565Y0331600D01*
X0504565Y0326600D02*
X0501865Y0326600D01*
X0501865Y0321600D02*
X0504565Y0321600D01*
X0504565Y0316600D02*
X0501865Y0316600D01*
X0501865Y0311600D02*
X0504565Y0311600D01*
X0504565Y0306600D02*
X0501865Y0306600D01*
X0501865Y0301600D02*
X0504565Y0301600D01*
X0504565Y0296600D02*
X0501865Y0296600D01*
X0501865Y0291600D02*
X0504565Y0291600D01*
X0504565Y0286600D02*
X0501865Y0286600D01*
X0501865Y0281600D02*
X0504565Y0281600D01*
X0504565Y0276600D02*
X0501865Y0276600D01*
X0501865Y0271600D02*
X0504565Y0271600D01*
X0504565Y0266600D02*
X0501865Y0266600D01*
X0502148Y0261600D02*
X0504565Y0261600D01*
X0504565Y0256600D02*
X0504165Y0256600D01*
X0502365Y0251600D02*
X0506328Y0251600D01*
X0506965Y0250963D02*
X0506965Y0220475D01*
X0501965Y0220475D02*
X0501965Y0249560D01*
X0485408Y0226600D02*
X0618865Y0226600D01*
X0656965Y0206000D02*
X0656965Y0204520D01*
X0656965Y0188680D02*
X0656965Y0150750D01*
X0661965Y0150750D02*
X0661965Y0183680D01*
X0664046Y0181600D02*
X0334697Y0181600D01*
X0331965Y0185555D02*
X0331965Y0200600D01*
X0332965Y0211600D02*
X0355131Y0211600D01*
X0356965Y0210169D02*
X0356965Y0157037D01*
X0357402Y0156600D02*
X0716903Y0156600D01*
X0716965Y0156514D02*
X0716965Y0147263D01*
X0716267Y0146600D02*
X0714107Y0146600D01*
X0711965Y0146948D02*
X0711965Y0174400D01*
X0706965Y0174400D02*
X0706965Y0147761D01*
X0701965Y0148574D02*
X0701965Y0174400D01*
X0696965Y0174400D02*
X0696965Y0149386D01*
X0691965Y0150199D02*
X0691965Y0174400D01*
X0686965Y0174400D02*
X0686965Y0150750D01*
X0681965Y0150750D02*
X0681965Y0174400D01*
X0676965Y0174400D02*
X0676965Y0150750D01*
X0671965Y0150750D02*
X0671965Y0174601D01*
X0669046Y0176600D02*
X0337402Y0176600D01*
X0336965Y0177037D02*
X0336965Y0226413D01*
X0336874Y0226600D02*
X0300408Y0226600D01*
X0301965Y0227652D02*
X0301965Y0221255D01*
X0296965Y0223755D02*
X0296965Y0225800D01*
X0293522Y0226600D02*
X0291276Y0226600D01*
X0291965Y0226255D02*
X0291965Y0227652D01*
X0304446Y0231600D02*
X0334485Y0231600D01*
X0333846Y0236600D02*
X0305102Y0236600D01*
X0306965Y0238463D02*
X0306965Y0218755D01*
X0311965Y0216947D02*
X0311965Y0243463D01*
X0310102Y0241600D02*
X0328846Y0241600D01*
X0331965Y0238480D02*
X0331965Y0212600D01*
X0351965Y0214070D02*
X0351965Y0162037D01*
X0352402Y0161600D02*
X0715822Y0161600D01*
X0716965Y0160183D02*
X0716965Y0160183D01*
X0716965Y0163851D02*
X0716965Y0173103D01*
X0721965Y0171918D02*
X0721965Y0165933D01*
X0726965Y0165933D02*
X0726965Y0171918D01*
X0731965Y0172695D02*
X0731965Y0164778D01*
X0726965Y0160183D02*
X0726965Y0160183D01*
X0724957Y0161600D02*
X0724957Y0161600D01*
X0721965Y0160183D02*
X0721965Y0160183D01*
X0724957Y0156600D02*
X0724957Y0156600D01*
X0726965Y0154433D02*
X0726965Y0148448D01*
X0721965Y0148448D02*
X0721965Y0154433D01*
X0731965Y0155588D02*
X0731965Y0147670D01*
X0733648Y0146600D02*
X0737801Y0146600D01*
X0737801Y0141600D02*
X0736457Y0141600D01*
X0735498Y0136600D02*
X0737801Y0136600D01*
X0737801Y0131600D02*
X0662465Y0131600D01*
X0661965Y0132395D02*
X0661965Y0139950D01*
X0656965Y0139950D02*
X0656965Y0135795D01*
X0651965Y0136143D02*
X0651965Y0139950D01*
X0646965Y0139950D02*
X0646965Y0133694D01*
X0645166Y0131600D02*
X0185693Y0131600D01*
X0186965Y0128761D02*
X0186965Y0210200D01*
X0191965Y0210200D02*
X0191965Y0116000D01*
X0196965Y0116000D02*
X0196965Y0210184D01*
X0201276Y0211600D02*
X0232654Y0211600D01*
X0233174Y0211340D02*
X0233340Y0211174D01*
X0234306Y0210774D01*
X0235242Y0210306D01*
X0235476Y0210290D01*
X0235692Y0210200D01*
X0236738Y0210200D01*
X0233174Y0211340D02*
X0216965Y0219445D01*
X0231276Y0226600D02*
X0233522Y0226600D01*
X0231965Y0226255D02*
X0231965Y0227652D01*
X0236965Y0225800D02*
X0236965Y0223755D01*
X0240408Y0226600D02*
X0262654Y0226600D01*
X0261965Y0226255D02*
X0261965Y0250923D01*
X0261288Y0251600D02*
X0257365Y0251600D01*
X0256965Y0249560D02*
X0256965Y0223755D01*
X0251965Y0223000D02*
X0251965Y0243963D01*
X0249602Y0241600D02*
X0269485Y0241600D01*
X0269365Y0236600D02*
X0244602Y0236600D01*
X0246965Y0238963D02*
X0246965Y0223000D01*
X0241965Y0223000D02*
X0241965Y0227652D01*
X0244446Y0231600D02*
X0269485Y0231600D01*
X0266965Y0228755D02*
X0266965Y0247549D01*
X0267914Y0246600D02*
X0254602Y0246600D01*
X0245556Y0252827D02*
X0239645Y0246916D01*
X0238477Y0247400D01*
X0235453Y0247400D01*
X0232660Y0246243D01*
X0230522Y0244105D01*
X0230454Y0243940D01*
X0229795Y0244418D01*
X0229038Y0244804D01*
X0228230Y0245067D01*
X0227390Y0245200D01*
X0226965Y0245200D01*
X0226540Y0245200D01*
X0225701Y0245067D01*
X0224892Y0244804D01*
X0224135Y0244418D01*
X0223477Y0243940D01*
X0223408Y0244105D01*
X0223365Y0244148D01*
X0223365Y0247873D01*
X0222391Y0250225D01*
X0214515Y0258101D01*
X0214515Y0259727D01*
X0210093Y0264150D01*
X0203838Y0264150D01*
X0206965Y0264150D02*
X0206965Y0377300D01*
X0207466Y0376600D02*
X0136365Y0376600D01*
X0136365Y0371600D02*
X0211043Y0371600D01*
X0211965Y0370311D02*
X0211965Y0262277D01*
X0212643Y0261600D02*
X0224399Y0261600D01*
X0224749Y0261950D02*
X0221615Y0258816D01*
X0221615Y0256600D01*
X0221615Y0254384D01*
X0224749Y0251250D01*
X0226965Y0251250D01*
X0226965Y0256600D01*
X0216016Y0256600D01*
X0216965Y0255651D02*
X0216965Y0308642D01*
X0219613Y0306600D02*
X0189665Y0306600D01*
X0189665Y0301600D02*
X0226097Y0301600D01*
X0226965Y0300930D02*
X0226965Y0256600D01*
X0226965Y0256600D01*
X0221615Y0256600D01*
X0226965Y0256600D01*
X0226965Y0261950D01*
X0224749Y0261950D01*
X0226965Y0261950D02*
X0229181Y0261950D01*
X0232315Y0258816D01*
X0232315Y0256600D01*
X0226965Y0256600D01*
X0226965Y0256600D01*
X0226965Y0256600D01*
X0226965Y0236600D01*
X0226965Y0245200D01*
X0226965Y0236600D01*
X0226965Y0236600D01*
X0226965Y0241600D02*
X0226965Y0241600D01*
X0223365Y0246600D02*
X0233522Y0246600D01*
X0231965Y0245548D02*
X0231965Y0254034D01*
X0232315Y0254384D02*
X0232315Y0256600D01*
X0226965Y0256600D01*
X0226965Y0251250D01*
X0229181Y0251250D01*
X0232315Y0254384D01*
X0231965Y0256600D02*
X0231965Y0256600D01*
X0231965Y0259166D02*
X0231965Y0297074D01*
X0232580Y0296600D02*
X0189665Y0296600D01*
X0186965Y0292007D02*
X0186965Y0276600D01*
X0169531Y0276600D01*
X0166965Y0276600D02*
X0166965Y0276600D01*
X0164399Y0276600D02*
X0152643Y0276600D01*
X0151965Y0277277D02*
X0151965Y0291400D01*
X0146965Y0291400D02*
X0146965Y0279150D01*
X0141965Y0277277D02*
X0141965Y0291400D01*
X0136365Y0286600D02*
X0245548Y0286600D01*
X0246965Y0285507D02*
X0246965Y0261782D01*
X0246783Y0261600D02*
X0229531Y0261600D01*
X0226965Y0261600D02*
X0226965Y0261600D01*
X0226965Y0261950D02*
X0226965Y0256600D01*
X0241965Y0256600D01*
X0241965Y0256600D01*
X0236965Y0256600D01*
X0236965Y0256600D01*
X0236965Y0254529D01*
X0236965Y0247400D01*
X0239894Y0251600D02*
X0229531Y0251600D01*
X0226965Y0251600D02*
X0226965Y0251600D01*
X0224399Y0251600D02*
X0221016Y0251600D01*
X0221965Y0250651D02*
X0221965Y0254034D01*
X0221965Y0256600D02*
X0221965Y0256600D01*
X0221965Y0259166D02*
X0221965Y0304786D01*
X0226965Y0314063D02*
X0226965Y0319281D01*
X0224070Y0321600D02*
X0222565Y0321600D01*
X0222906Y0322422D02*
X0223189Y0322305D01*
X0247457Y0302871D01*
X0248006Y0302322D01*
X0248289Y0302205D01*
X0248528Y0302014D01*
X0249274Y0301797D01*
X0249991Y0301500D01*
X0250297Y0301500D01*
X0250591Y0301415D01*
X0251363Y0301500D01*
X0254662Y0301500D01*
X0255710Y0300452D01*
X0255875Y0300384D01*
X0255397Y0299725D01*
X0255011Y0298968D01*
X0254748Y0298160D01*
X0254615Y0297320D01*
X0254615Y0296895D01*
X0254615Y0296470D01*
X0254748Y0295631D01*
X0255011Y0294822D01*
X0255397Y0294065D01*
X0255896Y0293377D01*
X0256497Y0292776D01*
X0257185Y0292277D01*
X0257942Y0291891D01*
X0258751Y0291628D01*
X0259590Y0291495D01*
X0263215Y0291495D01*
X0263215Y0296895D01*
X0263215Y0296895D01*
X0254615Y0296895D01*
X0263215Y0296895D01*
X0263215Y0296895D01*
X0263215Y0291495D01*
X0266840Y0291495D01*
X0267680Y0291628D01*
X0268488Y0291891D01*
X0269245Y0292277D01*
X0269933Y0292776D01*
X0270534Y0293377D01*
X0271034Y0294065D01*
X0271420Y0294822D01*
X0271682Y0295631D01*
X0271815Y0296470D01*
X0271815Y0296895D01*
X0263215Y0296895D01*
X0263215Y0296895D01*
X0271815Y0296895D01*
X0271815Y0297320D01*
X0271682Y0298160D01*
X0271420Y0298968D01*
X0271034Y0299725D01*
X0270555Y0300384D01*
X0270720Y0300452D01*
X0272858Y0302590D01*
X0274015Y0305384D01*
X0274015Y0308407D01*
X0272858Y0311200D01*
X0272163Y0311895D01*
X0272504Y0312236D01*
X0279290Y0304077D01*
X0279387Y0303841D01*
X0279972Y0303257D01*
X0280500Y0302621D01*
X0280726Y0302502D01*
X0280906Y0302322D01*
X0281670Y0302006D01*
X0282401Y0301621D01*
X0282655Y0301598D01*
X0282891Y0301500D01*
X0283718Y0301500D01*
X0284541Y0301424D01*
X0284784Y0301500D01*
X0287117Y0301500D01*
X0288460Y0300157D01*
X0288625Y0300089D01*
X0288147Y0299430D01*
X0287761Y0298673D01*
X0287498Y0297865D01*
X0287365Y0297025D01*
X0287365Y0296600D01*
X0295965Y0296600D01*
X0271815Y0296600D01*
X0266965Y0296895D02*
X0266965Y0296895D01*
X0263215Y0296600D02*
X0263215Y0296600D01*
X0261965Y0296895D02*
X0261965Y0296895D01*
X0256965Y0296895D02*
X0256965Y0296895D01*
X0254615Y0296600D02*
X0249611Y0296600D01*
X0251965Y0294784D02*
X0251965Y0301500D01*
X0249750Y0301600D02*
X0243127Y0301600D01*
X0241965Y0302496D02*
X0241965Y0307269D01*
X0242801Y0306600D02*
X0236643Y0306600D01*
X0236965Y0306352D02*
X0236965Y0311273D01*
X0236557Y0311600D02*
X0230160Y0311600D01*
X0231965Y0310208D02*
X0231965Y0315277D01*
X0230313Y0316600D02*
X0223676Y0316600D01*
X0222565Y0317457D02*
X0222565Y0322763D01*
X0222906Y0322422D01*
X0222565Y0317457D02*
X0262837Y0286400D01*
X0411921Y0286400D01*
X0394677Y0299577D01*
X0394784Y0299430D01*
X0395170Y0298673D01*
X0395432Y0297865D01*
X0395565Y0297025D01*
X0395565Y0296600D01*
X0386965Y0296600D01*
X0356965Y0296600D01*
X0326965Y0296600D01*
X0295965Y0296600D01*
X0295965Y0296600D01*
X0287365Y0296600D01*
X0287365Y0296175D01*
X0287498Y0295335D01*
X0287761Y0294527D01*
X0288147Y0293770D01*
X0288646Y0293082D01*
X0289247Y0292481D01*
X0289935Y0291982D01*
X0290692Y0291596D01*
X0291501Y0291333D01*
X0292340Y0291200D01*
X0295965Y0291200D01*
X0295965Y0296600D01*
X0295965Y0296600D01*
X0295965Y0291200D01*
X0299590Y0291200D01*
X0300430Y0291333D01*
X0301238Y0291596D01*
X0301995Y0291982D01*
X0302683Y0292481D01*
X0303284Y0293082D01*
X0303784Y0293770D01*
X0304170Y0294527D01*
X0304432Y0295335D01*
X0304565Y0296175D01*
X0304565Y0296600D01*
X0304565Y0297025D01*
X0304432Y0297865D01*
X0304170Y0298673D01*
X0303784Y0299430D01*
X0303305Y0300089D01*
X0303470Y0300157D01*
X0305608Y0302295D01*
X0306765Y0305088D01*
X0306765Y0308112D01*
X0305608Y0310905D01*
X0304913Y0311600D01*
X0318017Y0311600D01*
X0317322Y0310905D01*
X0316165Y0308112D01*
X0316165Y0305088D01*
X0317322Y0302295D01*
X0319460Y0300157D01*
X0319625Y0300089D01*
X0319147Y0299430D01*
X0318761Y0298673D01*
X0318498Y0297865D01*
X0318365Y0297025D01*
X0318365Y0296600D01*
X0326965Y0296600D01*
X0326965Y0296600D01*
X0318365Y0296600D01*
X0318365Y0296175D01*
X0318498Y0295335D01*
X0318761Y0294527D01*
X0319147Y0293770D01*
X0319646Y0293082D01*
X0320247Y0292481D01*
X0320935Y0291982D01*
X0321692Y0291596D01*
X0322501Y0291333D01*
X0323340Y0291200D01*
X0326965Y0291200D01*
X0326965Y0296600D01*
X0326965Y0296600D01*
X0326965Y0286400D01*
X0326965Y0291200D02*
X0330590Y0291200D01*
X0331430Y0291333D01*
X0332238Y0291596D01*
X0332995Y0291982D01*
X0333683Y0292481D01*
X0334284Y0293082D01*
X0334784Y0293770D01*
X0335170Y0294527D01*
X0335432Y0295335D01*
X0335565Y0296175D01*
X0335565Y0296600D01*
X0335565Y0297025D01*
X0335432Y0297865D01*
X0335170Y0298673D01*
X0334784Y0299430D01*
X0334305Y0300089D01*
X0334470Y0300157D01*
X0335813Y0301500D01*
X0340539Y0301500D01*
X0342524Y0302322D01*
X0344724Y0304522D01*
X0346165Y0305963D01*
X0346165Y0305088D01*
X0347322Y0302295D01*
X0349460Y0300157D01*
X0349625Y0300089D01*
X0349147Y0299430D01*
X0348761Y0298673D01*
X0348498Y0297865D01*
X0348365Y0297025D01*
X0348365Y0296600D01*
X0356965Y0296600D01*
X0356965Y0296600D01*
X0348365Y0296600D01*
X0348365Y0296175D01*
X0348498Y0295335D01*
X0348761Y0294527D01*
X0349147Y0293770D01*
X0349646Y0293082D01*
X0350247Y0292481D01*
X0350935Y0291982D01*
X0351692Y0291596D01*
X0352501Y0291333D01*
X0353340Y0291200D01*
X0356965Y0291200D01*
X0356965Y0296600D01*
X0356965Y0296600D01*
X0356965Y0286400D01*
X0356965Y0291200D02*
X0360590Y0291200D01*
X0361430Y0291333D01*
X0362238Y0291596D01*
X0362995Y0291982D01*
X0363683Y0292481D01*
X0364284Y0293082D01*
X0364784Y0293770D01*
X0365170Y0294527D01*
X0365432Y0295335D01*
X0365565Y0296175D01*
X0365565Y0296600D01*
X0365565Y0297025D01*
X0365432Y0297865D01*
X0365170Y0298673D01*
X0364784Y0299430D01*
X0364305Y0300089D01*
X0364470Y0300157D01*
X0365813Y0301500D01*
X0367066Y0301500D01*
X0369443Y0299122D01*
X0375887Y0299122D01*
X0378191Y0301426D01*
X0379460Y0300157D01*
X0379625Y0300089D01*
X0379147Y0299430D01*
X0378761Y0298673D01*
X0378498Y0297865D01*
X0378365Y0297025D01*
X0378365Y0296600D01*
X0386965Y0296600D01*
X0386965Y0296600D01*
X0378365Y0296600D01*
X0378365Y0296175D01*
X0378498Y0295335D01*
X0378761Y0294527D01*
X0379147Y0293770D01*
X0379646Y0293082D01*
X0380247Y0292481D01*
X0380935Y0291982D01*
X0381692Y0291596D01*
X0382501Y0291333D01*
X0383340Y0291200D01*
X0386965Y0291200D01*
X0386965Y0296600D01*
X0386965Y0296600D01*
X0386965Y0286400D01*
X0386965Y0291200D02*
X0390590Y0291200D01*
X0391430Y0291333D01*
X0392238Y0291596D01*
X0392995Y0291982D01*
X0393683Y0292481D01*
X0394284Y0293082D01*
X0394784Y0293770D01*
X0395170Y0294527D01*
X0395432Y0295335D01*
X0395565Y0296175D01*
X0395565Y0296600D01*
X0386965Y0296600D01*
X0386965Y0291200D01*
X0386965Y0291600D02*
X0386965Y0291600D01*
X0386965Y0296600D02*
X0386965Y0296600D01*
X0398573Y0296600D01*
X0396965Y0297828D02*
X0396965Y0286400D01*
X0391965Y0286400D02*
X0391965Y0291507D01*
X0392247Y0291600D02*
X0405116Y0291600D01*
X0406965Y0290187D02*
X0406965Y0286400D01*
X0411659Y0286600D02*
X0262578Y0286600D01*
X0261965Y0287073D02*
X0261965Y0291495D01*
X0263215Y0291600D02*
X0263215Y0291600D01*
X0266965Y0291515D02*
X0266965Y0286400D01*
X0271965Y0286400D02*
X0271965Y0301697D01*
X0271868Y0301600D02*
X0282630Y0301600D01*
X0281965Y0301850D02*
X0281965Y0286400D01*
X0276965Y0286400D02*
X0276965Y0306872D01*
X0277191Y0306600D02*
X0274015Y0306600D01*
X0273033Y0311600D02*
X0272459Y0311600D01*
X0286965Y0301500D02*
X0286965Y0286400D01*
X0291965Y0286400D02*
X0291965Y0291259D01*
X0290684Y0291600D02*
X0267501Y0291600D01*
X0258929Y0291600D02*
X0256094Y0291600D01*
X0256965Y0290928D02*
X0256965Y0292436D01*
X0246965Y0298640D02*
X0246965Y0303265D01*
X0241965Y0289363D02*
X0241965Y0256600D01*
X0236965Y0256600D01*
X0236965Y0258671D01*
X0236965Y0254529D02*
X0239894Y0251600D01*
X0241965Y0251600D01*
X0241965Y0251600D01*
X0241965Y0256600D01*
X0241965Y0261600D01*
X0241965Y0256600D01*
X0241965Y0256600D01*
X0241965Y0256600D01*
X0241965Y0249237D01*
X0241965Y0251600D02*
X0244036Y0251600D01*
X0244328Y0251600D01*
X0244036Y0251600D02*
X0245410Y0252973D01*
X0245556Y0252827D01*
X0241965Y0251600D02*
X0241965Y0256600D01*
X0251965Y0263800D02*
X0251965Y0281651D01*
X0252031Y0281600D02*
X0202148Y0281600D01*
X0201965Y0281782D02*
X0201965Y0384290D01*
X0200313Y0386600D02*
X0136365Y0386600D01*
X0136365Y0381600D02*
X0203889Y0381600D01*
X0196965Y0391279D02*
X0196965Y0283800D01*
X0191965Y0281782D02*
X0191965Y0398269D01*
X0193159Y0396600D02*
X0136365Y0396600D01*
X0136365Y0401600D02*
X0172049Y0401600D01*
X0171965Y0401648D02*
X0171965Y0346800D01*
X0166965Y0346800D02*
X0166965Y0408413D01*
X0167463Y0406600D02*
X0136365Y0406600D01*
X0136365Y0411600D02*
X0166738Y0411600D01*
X0166965Y0412819D02*
X0166965Y0444800D01*
X0161965Y0444800D02*
X0161965Y0346800D01*
X0156965Y0346800D02*
X0156965Y0442774D01*
X0151965Y0441760D02*
X0151965Y0346800D01*
X0146965Y0346800D02*
X0146965Y0441760D01*
X0141965Y0442709D02*
X0141965Y0346800D01*
X0136965Y0346800D02*
X0136965Y0501196D01*
X0136365Y0496600D02*
X0251479Y0496600D01*
X0251965Y0498413D02*
X0251965Y0501200D01*
X0246965Y0501200D02*
X0246965Y0487400D01*
X0241965Y0487400D02*
X0241965Y0501200D01*
X0236965Y0501199D02*
X0236965Y0487400D01*
X0231965Y0487400D02*
X0231965Y0501199D01*
X0226965Y0501199D02*
X0226965Y0487400D01*
X0223211Y0486600D02*
X0158126Y0486600D01*
X0158265Y0486873D02*
X0158545Y0487734D01*
X0158686Y0488628D01*
X0158686Y0489080D01*
X0149387Y0489080D01*
X0149387Y0489080D01*
X0149387Y0483330D01*
X0153389Y0483330D01*
X0154283Y0483472D01*
X0155144Y0483752D01*
X0155950Y0484162D01*
X0156682Y0484694D01*
X0157322Y0485334D01*
X0157854Y0486067D01*
X0158265Y0486873D01*
X0158686Y0489080D02*
X0149387Y0489080D01*
X0149386Y0489080D01*
X0140086Y0489080D01*
X0140086Y0488628D01*
X0140228Y0487734D01*
X0140508Y0486873D01*
X0140919Y0486067D01*
X0141451Y0485334D01*
X0142091Y0484694D01*
X0142823Y0484162D01*
X0143629Y0483752D01*
X0144490Y0483472D01*
X0145384Y0483330D01*
X0149386Y0483330D01*
X0149386Y0489080D01*
X0149386Y0489080D01*
X0140086Y0489080D01*
X0140086Y0489533D01*
X0140228Y0490427D01*
X0140508Y0491288D01*
X0140919Y0492094D01*
X0141451Y0492826D01*
X0142091Y0493466D01*
X0142823Y0493998D01*
X0143629Y0494409D01*
X0144490Y0494689D01*
X0145384Y0494830D01*
X0149386Y0494830D01*
X0149386Y0489080D01*
X0149387Y0489080D01*
X0149387Y0494830D01*
X0153389Y0494830D01*
X0154283Y0494689D01*
X0155144Y0494409D01*
X0155950Y0493998D01*
X0156682Y0493466D01*
X0157322Y0492826D01*
X0157854Y0492094D01*
X0158265Y0491288D01*
X0158545Y0490427D01*
X0158686Y0489533D01*
X0158686Y0489080D01*
X0156965Y0489080D02*
X0156965Y0489080D01*
X0158106Y0491600D02*
X0251638Y0491600D01*
X0251965Y0490377D02*
X0251965Y0487400D01*
X0221965Y0485354D02*
X0221965Y0501199D01*
X0216965Y0501199D02*
X0216965Y0480354D01*
X0218211Y0481600D02*
X0136365Y0481600D01*
X0136365Y0476600D02*
X0142456Y0476600D01*
X0141965Y0476397D02*
X0141965Y0484820D01*
X0140647Y0486600D02*
X0136365Y0486600D01*
X0136365Y0491600D02*
X0140667Y0491600D01*
X0141965Y0493341D02*
X0141965Y0501196D01*
X0146965Y0501197D02*
X0146965Y0494830D01*
X0149386Y0491600D02*
X0149387Y0491600D01*
X0146965Y0489080D02*
X0146965Y0489080D01*
X0149386Y0486600D02*
X0149387Y0486600D01*
X0151965Y0489080D02*
X0151965Y0489080D01*
X0151965Y0483330D02*
X0151965Y0477345D01*
X0154518Y0477345D02*
X0144255Y0477345D01*
X0141333Y0476135D01*
X0139097Y0473899D01*
X0137886Y0470977D01*
X0137886Y0467814D01*
X0139097Y0464892D01*
X0141333Y0462656D01*
X0144255Y0461445D01*
X0154518Y0461445D01*
X0157440Y0462656D01*
X0159184Y0464400D01*
X0173005Y0464400D01*
X0174877Y0462528D01*
X0177854Y0461295D01*
X0181076Y0461295D01*
X0184053Y0462528D01*
X0186332Y0464807D01*
X0187565Y0467784D01*
X0187565Y0471006D01*
X0186332Y0473984D01*
X0184053Y0476262D01*
X0181076Y0477495D01*
X0177854Y0477495D01*
X0174877Y0476262D01*
X0173815Y0475200D01*
X0158375Y0475200D01*
X0157440Y0476135D01*
X0154518Y0477345D01*
X0156317Y0476600D02*
X0175693Y0476600D01*
X0176965Y0477127D02*
X0176965Y0501198D01*
X0171965Y0501197D02*
X0171965Y0475200D01*
X0166965Y0475200D02*
X0166965Y0501197D01*
X0161965Y0501197D02*
X0161965Y0475200D01*
X0156965Y0476332D02*
X0156965Y0484977D01*
X0156965Y0493183D02*
X0156965Y0501197D01*
X0151965Y0501197D02*
X0151965Y0494830D01*
X0141965Y0489080D02*
X0141965Y0489080D01*
X0146965Y0483330D02*
X0146965Y0477345D01*
X0138145Y0471600D02*
X0136365Y0471600D01*
X0136365Y0466600D02*
X0138389Y0466600D01*
X0136365Y0461600D02*
X0143882Y0461600D01*
X0141965Y0462394D02*
X0141965Y0456712D01*
X0141696Y0456600D02*
X0136365Y0456600D01*
X0136365Y0451600D02*
X0138014Y0451600D01*
X0138520Y0446600D02*
X0136365Y0446600D01*
X0136365Y0441600D02*
X0171611Y0441600D01*
X0171965Y0442455D02*
X0171965Y0444800D01*
X0171856Y0436600D02*
X0136365Y0436600D01*
X0136365Y0431600D02*
X0174465Y0431600D01*
X0174465Y0426600D02*
X0136365Y0426600D01*
X0136365Y0421600D02*
X0175197Y0421600D01*
X0171965Y0419583D02*
X0171965Y0436336D01*
X0171965Y0455200D02*
X0171965Y0464400D01*
X0166965Y0464400D02*
X0166965Y0455200D01*
X0161965Y0455200D02*
X0161965Y0464400D01*
X0156965Y0462459D02*
X0156965Y0456646D01*
X0157077Y0456600D02*
X0193211Y0456600D01*
X0191965Y0455354D02*
X0191965Y0501198D01*
X0186965Y0501198D02*
X0186965Y0472455D01*
X0187319Y0471600D02*
X0208211Y0471600D01*
X0206965Y0470354D02*
X0206965Y0501198D01*
X0201965Y0501198D02*
X0201965Y0465354D01*
X0203211Y0466600D02*
X0187075Y0466600D01*
X0186965Y0466336D02*
X0186965Y0455200D01*
X0181965Y0455200D02*
X0181965Y0461663D01*
X0181812Y0461600D02*
X0198211Y0461600D01*
X0196965Y0460354D02*
X0196965Y0501198D01*
X0181965Y0501198D02*
X0181965Y0477127D01*
X0183238Y0476600D02*
X0213211Y0476600D01*
X0211965Y0475354D02*
X0211965Y0501199D01*
X0177118Y0461600D02*
X0154891Y0461600D01*
X0151965Y0461445D02*
X0151965Y0457660D01*
X0146965Y0457660D02*
X0146965Y0461445D01*
X0176965Y0461663D02*
X0176965Y0455200D01*
X0168599Y0416600D02*
X0136365Y0416600D01*
X0136365Y0391600D02*
X0196736Y0391600D01*
X0189582Y0401600D02*
X0182039Y0401600D01*
X0181965Y0401557D02*
X0181965Y0346800D01*
X0185982Y0346600D02*
X0212165Y0346600D01*
X0212165Y0351600D02*
X0136365Y0351600D01*
X0136365Y0356600D02*
X0212165Y0356600D01*
X0212165Y0361600D02*
X0136365Y0361600D01*
X0136365Y0366600D02*
X0212165Y0366600D01*
X0186965Y0346193D02*
X0186965Y0405258D01*
X0176965Y0400310D02*
X0176965Y0346800D01*
X0189665Y0341600D02*
X0212165Y0341600D01*
X0212165Y0336600D02*
X0189665Y0336600D01*
X0189665Y0331600D02*
X0212165Y0331600D01*
X0212165Y0326600D02*
X0189665Y0326600D01*
X0189665Y0321600D02*
X0212165Y0321600D01*
X0212165Y0316600D02*
X0189665Y0316600D01*
X0189665Y0311600D02*
X0213264Y0311600D01*
X0176965Y0291400D02*
X0176965Y0262400D01*
X0175453Y0262400D02*
X0172660Y0261243D01*
X0171965Y0260548D02*
X0171965Y0269034D01*
X0171965Y0271600D02*
X0171965Y0271600D01*
X0172315Y0271600D02*
X0166965Y0271600D01*
X0166965Y0266250D01*
X0166965Y0266600D02*
X0166965Y0266600D01*
X0169531Y0266600D02*
X0183928Y0266600D01*
X0181965Y0264637D02*
X0181965Y0274529D01*
X0184894Y0271600D01*
X0166965Y0271600D01*
X0166965Y0271600D01*
X0172315Y0271600D01*
X0171965Y0274166D02*
X0171965Y0291400D01*
X0156965Y0291400D02*
X0156965Y0262400D01*
X0166965Y0256600D02*
X0166965Y0256600D01*
X0175453Y0262400D02*
X0178477Y0262400D01*
X0179362Y0262033D01*
X0188928Y0271600D01*
X0186965Y0271600D01*
X0186965Y0271600D01*
X0186965Y0276600D01*
X0186965Y0276600D01*
X0181965Y0276600D01*
X0181965Y0276600D01*
X0181965Y0274529D01*
X0181965Y0276600D02*
X0186965Y0276600D01*
X0186965Y0281600D01*
X0186965Y0276600D01*
X0186965Y0276600D01*
X0186965Y0276600D01*
X0186965Y0269637D01*
X0186965Y0271600D02*
X0186965Y0276600D01*
X0181965Y0276600D02*
X0181965Y0278671D01*
X0191783Y0281600D02*
X0136365Y0281600D01*
X0136365Y0276600D02*
X0141288Y0276600D01*
X0139415Y0271600D02*
X0136365Y0271600D01*
X0136365Y0266600D02*
X0140865Y0266600D01*
X0140865Y0261600D02*
X0136365Y0261600D01*
X0136365Y0256600D02*
X0142614Y0256600D01*
X0141965Y0257249D02*
X0141965Y0116000D01*
X0176965Y0136276D02*
X0176965Y0212136D01*
X0177859Y0211600D02*
X0136365Y0211600D01*
X0136365Y0206600D02*
X0302654Y0206600D01*
X0330025Y0186600D02*
X0659046Y0186600D01*
X0666965Y0178680D02*
X0666965Y0150750D01*
X0664121Y0126600D02*
X0737801Y0126600D01*
X0731965Y0133325D02*
X0731965Y0116000D01*
X0726965Y0116000D02*
X0726965Y0132548D01*
X0721965Y0132548D02*
X0721965Y0116000D01*
X0716965Y0116000D02*
X0716965Y0133733D01*
X0711965Y0136006D02*
X0711965Y0116000D01*
X0736965Y0116000D02*
X0736965Y0501216D01*
X0737801Y0496600D02*
X0617451Y0496600D01*
X0616965Y0498413D02*
X0616965Y0501212D01*
X0621965Y0501212D02*
X0621965Y0424237D01*
X0621543Y0424659D02*
X0621543Y0424659D01*
X0619005Y0426600D02*
X0676783Y0426600D01*
X0676965Y0426782D02*
X0676965Y0501214D01*
X0671965Y0501213D02*
X0671965Y0383000D01*
X0666965Y0383000D02*
X0666965Y0501213D01*
X0681965Y0501214D02*
X0681965Y0428800D01*
X0686965Y0427000D02*
X0686965Y0501214D01*
X0691965Y0501214D02*
X0691965Y0427000D01*
X0694005Y0426600D02*
X0737801Y0426600D01*
X0737801Y0431600D02*
X0556765Y0431600D01*
X0556965Y0427000D02*
X0556965Y0484928D01*
X0554630Y0486600D02*
X0541902Y0486600D01*
X0541965Y0486537D02*
X0541965Y0501209D01*
X0536965Y0501209D02*
X0536965Y0490100D01*
X0531965Y0490100D02*
X0531965Y0501209D01*
X0526965Y0501209D02*
X0526965Y0490100D01*
X0521965Y0490100D02*
X0521965Y0501209D01*
X0516965Y0501208D02*
X0516965Y0498413D01*
X0517451Y0496600D02*
X0551479Y0496600D01*
X0551965Y0498413D02*
X0551965Y0501210D01*
X0546965Y0501209D02*
X0546965Y0481537D01*
X0546902Y0481600D02*
X0737801Y0481600D01*
X0737801Y0476600D02*
X0608383Y0476600D01*
X0606965Y0477319D02*
X0606965Y0483696D01*
X0601965Y0484928D02*
X0601965Y0477495D01*
X0596965Y0477319D02*
X0596965Y0490377D01*
X0596638Y0491600D02*
X0572293Y0491600D01*
X0571965Y0490377D02*
X0571965Y0477495D01*
X0568193Y0476600D02*
X0551902Y0476600D01*
X0551965Y0476537D02*
X0551965Y0490377D01*
X0551638Y0491600D02*
X0517293Y0491600D01*
X0516965Y0490377D02*
X0516965Y0490100D01*
X0496965Y0490100D02*
X0496965Y0490377D01*
X0496638Y0491600D02*
X0472293Y0491600D01*
X0471965Y0490377D02*
X0471965Y0477495D01*
X0468193Y0476600D02*
X0439843Y0476600D01*
X0438565Y0471600D02*
X0464111Y0471600D01*
X0464356Y0466600D02*
X0437102Y0466600D01*
X0436965Y0466737D02*
X0436965Y0470000D01*
X0437565Y0481600D02*
X0483422Y0481600D01*
X0481965Y0479407D02*
X0481965Y0501207D01*
X0476965Y0501207D02*
X0476965Y0475850D01*
X0475738Y0476600D02*
X0478193Y0476600D01*
X0486744Y0486600D02*
X0469301Y0486600D01*
X0466965Y0484928D02*
X0466965Y0475850D01*
X0461965Y0483696D02*
X0461965Y0462551D01*
X0461478Y0461600D02*
X0442597Y0461600D01*
X0441965Y0463126D02*
X0441965Y0501206D01*
X0436965Y0501206D02*
X0436965Y0482200D01*
X0431965Y0483878D02*
X0431965Y0501206D01*
X0426965Y0501206D02*
X0426965Y0482000D01*
X0426566Y0481600D02*
X0330069Y0481600D01*
X0331965Y0479704D02*
X0331965Y0501203D01*
X0326965Y0501202D02*
X0326965Y0484704D01*
X0325069Y0486600D02*
X0354630Y0486600D01*
X0356965Y0484928D02*
X0356965Y0472223D01*
X0356178Y0471600D02*
X0340069Y0471600D01*
X0341965Y0469704D02*
X0341965Y0501203D01*
X0336965Y0501203D02*
X0336965Y0474704D01*
X0335069Y0476600D02*
X0361950Y0476600D01*
X0361965Y0476613D02*
X0361965Y0483696D01*
X0366965Y0484928D02*
X0366965Y0480919D01*
X0371965Y0481500D02*
X0371965Y0490377D01*
X0372293Y0491600D02*
X0396638Y0491600D01*
X0396965Y0490377D02*
X0396965Y0481500D01*
X0401965Y0481500D02*
X0401965Y0484928D01*
X0399630Y0486600D02*
X0369301Y0486600D01*
X0376965Y0481116D02*
X0376965Y0501204D01*
X0371965Y0501204D02*
X0371965Y0498413D01*
X0372451Y0496600D02*
X0396479Y0496600D01*
X0396965Y0498413D02*
X0396965Y0501205D01*
X0391965Y0501204D02*
X0391965Y0478237D01*
X0388193Y0476600D02*
X0385738Y0476600D01*
X0386965Y0475850D02*
X0386965Y0501204D01*
X0381965Y0501204D02*
X0381965Y0477495D01*
X0353871Y0466600D02*
X0345069Y0466600D01*
X0346965Y0464704D02*
X0346965Y0501203D01*
X0351965Y0501203D02*
X0351965Y0498413D01*
X0351479Y0496600D02*
X0317451Y0496600D01*
X0316965Y0498413D02*
X0316965Y0501202D01*
X0321965Y0501202D02*
X0321965Y0487400D01*
X0316965Y0487400D02*
X0316965Y0490377D01*
X0317293Y0491600D02*
X0351638Y0491600D01*
X0351965Y0490377D02*
X0351965Y0437050D01*
X0351537Y0436600D02*
X0350465Y0436600D01*
X0350465Y0431600D02*
X0351537Y0431600D01*
X0351965Y0429750D02*
X0351965Y0419700D01*
X0350465Y0421600D02*
X0356028Y0421600D01*
X0356965Y0422537D02*
X0356965Y0425622D01*
X0355116Y0426600D02*
X0350465Y0426600D01*
X0350465Y0441600D02*
X0353915Y0441600D01*
X0353915Y0446600D02*
X0350465Y0446600D01*
X0350465Y0451600D02*
X0353915Y0451600D01*
X0353915Y0456600D02*
X0350465Y0456600D01*
X0349837Y0461600D02*
X0353915Y0461600D01*
X0406965Y0481500D02*
X0406965Y0483696D01*
X0411965Y0484928D02*
X0411965Y0481500D01*
X0416965Y0481500D02*
X0416965Y0490377D01*
X0417293Y0491600D02*
X0451638Y0491600D01*
X0451965Y0490377D02*
X0451965Y0437400D01*
X0456965Y0437400D02*
X0456965Y0484928D01*
X0454630Y0486600D02*
X0414301Y0486600D01*
X0421965Y0481500D02*
X0421965Y0501205D01*
X0416965Y0501205D02*
X0416965Y0498413D01*
X0417451Y0496600D02*
X0451479Y0496600D01*
X0451965Y0498413D02*
X0451965Y0501206D01*
X0446965Y0501206D02*
X0446965Y0443188D01*
X0447573Y0441600D02*
X0472165Y0441600D01*
X0472165Y0439926D02*
X0472987Y0437941D01*
X0472165Y0439926D02*
X0472165Y0452740D01*
X0470346Y0454559D01*
X0470057Y0454349D01*
X0469230Y0453928D01*
X0468347Y0453641D01*
X0467430Y0453495D01*
X0466965Y0453495D01*
X0466965Y0459395D01*
X0466965Y0456600D02*
X0466965Y0456600D01*
X0461965Y0456239D02*
X0461965Y0437400D01*
X0471965Y0434700D02*
X0471965Y0452940D01*
X0472165Y0451600D02*
X0443746Y0451600D01*
X0442915Y0456600D02*
X0461768Y0456600D01*
X0461965Y0459395D02*
X0461965Y0459395D01*
X0472165Y0446600D02*
X0445660Y0446600D01*
X0436009Y0441600D02*
X0434365Y0441600D01*
X0436965Y0439102D02*
X0436965Y0433439D01*
X0438420Y0431600D02*
X0439836Y0431600D01*
X0437923Y0436600D02*
X0434702Y0436600D01*
X0444391Y0426600D02*
X0445392Y0426600D01*
X0446392Y0426573D01*
X0446463Y0426600D01*
X0463865Y0426600D01*
X0463865Y0424989D01*
X0465098Y0422012D01*
X0466965Y0420145D02*
X0466965Y0407400D01*
X0471965Y0408278D02*
X0471965Y0418500D01*
X0476965Y0420145D02*
X0476965Y0405600D01*
X0475965Y0406600D02*
X0488687Y0406600D01*
X0490266Y0411600D02*
X0462516Y0411600D01*
X0461965Y0411928D02*
X0461965Y0426600D01*
X0456965Y0426600D02*
X0456965Y0418055D01*
X0458420Y0416600D02*
X0494328Y0416600D01*
X0491965Y0418963D02*
X0491965Y0413300D01*
X0504243Y0406600D02*
X0504328Y0406600D01*
X0490666Y0401600D02*
X0478843Y0401600D01*
X0478165Y0396600D02*
X0491065Y0396600D01*
X0491065Y0391600D02*
X0476465Y0391600D01*
X0476965Y0395400D02*
X0476965Y0346600D01*
X0491065Y0346600D01*
X0491065Y0351600D02*
X0476465Y0351600D01*
X0476465Y0356600D02*
X0491065Y0356600D01*
X0491065Y0361600D02*
X0476465Y0361600D01*
X0476465Y0366600D02*
X0491065Y0366600D01*
X0491065Y0371600D02*
X0476465Y0371600D01*
X0476465Y0376600D02*
X0491065Y0376600D01*
X0491065Y0381600D02*
X0476465Y0381600D01*
X0476465Y0386600D02*
X0491065Y0386600D01*
X0538765Y0386600D02*
X0552914Y0386600D01*
X0551965Y0385651D02*
X0551965Y0396600D01*
X0551965Y0391250D01*
X0554181Y0391250D01*
X0557315Y0394384D01*
X0557315Y0396600D01*
X0557315Y0398816D01*
X0554181Y0401950D01*
X0551965Y0401950D01*
X0551965Y0401600D02*
X0551965Y0401600D01*
X0554531Y0401600D02*
X0563017Y0401600D01*
X0562322Y0402295D02*
X0564460Y0400157D01*
X0564625Y0400089D01*
X0564147Y0399430D01*
X0563761Y0398673D01*
X0563498Y0397865D01*
X0563365Y0397025D01*
X0563365Y0396600D01*
X0571965Y0396600D01*
X0571965Y0396600D01*
X0580565Y0396600D01*
X0580565Y0396175D01*
X0580432Y0395335D01*
X0580170Y0394527D01*
X0579784Y0393770D01*
X0579305Y0393111D01*
X0579470Y0393043D01*
X0581608Y0390905D01*
X0582638Y0388419D01*
X0593476Y0383000D01*
X0602688Y0383000D01*
X0603838Y0384150D01*
X0605464Y0384150D01*
X0618340Y0397026D01*
X0618516Y0397098D01*
X0619460Y0398043D01*
X0619625Y0398111D01*
X0619147Y0398770D01*
X0618761Y0399527D01*
X0618498Y0400335D01*
X0618365Y0401175D01*
X0618365Y0401600D01*
X0626965Y0401600D01*
X0609531Y0401600D01*
X0609181Y0401950D02*
X0606965Y0401950D01*
X0604749Y0401950D01*
X0601615Y0398816D01*
X0601615Y0396600D02*
X0606965Y0396600D01*
X0606965Y0396600D01*
X0601615Y0396600D01*
X0601965Y0396600D02*
X0601965Y0396600D01*
X0601965Y0394034D02*
X0601965Y0383000D01*
X0596965Y0383000D02*
X0596965Y0451295D01*
X0594618Y0451600D02*
X0589312Y0451600D01*
X0586965Y0451295D02*
X0586965Y0386255D01*
X0586276Y0386600D02*
X0607914Y0386600D01*
X0606965Y0385651D02*
X0606965Y0396600D01*
X0606965Y0401950D01*
X0606965Y0396600D01*
X0606965Y0396600D01*
X0606965Y0396600D01*
X0606965Y0411600D01*
X0601965Y0411600D01*
X0601965Y0413671D01*
X0601965Y0409529D02*
X0604894Y0406600D01*
X0582765Y0406600D01*
X0581965Y0410043D02*
X0581965Y0452940D01*
X0579312Y0451600D02*
X0584618Y0451600D01*
X0591965Y0452940D02*
X0591965Y0383755D01*
X0581965Y0390043D02*
X0581965Y0403157D01*
X0580913Y0401600D02*
X0604399Y0401600D01*
X0606965Y0401600D02*
X0606965Y0401600D01*
X0609181Y0401950D02*
X0612315Y0398816D01*
X0612315Y0396600D01*
X0606965Y0396600D01*
X0606965Y0391250D01*
X0609181Y0391250D01*
X0612315Y0394384D01*
X0612315Y0396600D01*
X0606965Y0396600D01*
X0617914Y0396600D01*
X0616965Y0395651D02*
X0616965Y0408157D01*
X0617322Y0407295D02*
X0616165Y0410088D01*
X0616165Y0413112D01*
X0616649Y0414280D01*
X0614728Y0416200D01*
X0611748Y0416200D01*
X0610592Y0415044D01*
X0611965Y0413671D01*
X0611965Y0411600D01*
X0606965Y0411600D01*
X0606965Y0411600D01*
X0606965Y0406600D01*
X0606965Y0406600D01*
X0604894Y0406600D01*
X0606965Y0406600D02*
X0609036Y0406600D01*
X0618017Y0406600D01*
X0617322Y0407295D02*
X0619460Y0405157D01*
X0619625Y0405089D01*
X0619147Y0404430D01*
X0618761Y0403673D01*
X0618498Y0402865D01*
X0618365Y0402025D01*
X0618365Y0401600D01*
X0626965Y0401600D01*
X0626965Y0401600D01*
X0648820Y0401600D01*
X0646965Y0402892D02*
X0646965Y0388755D01*
X0651276Y0386600D02*
X0682914Y0386600D01*
X0681965Y0385651D02*
X0681965Y0396600D01*
X0635913Y0396600D01*
X0636608Y0395905D02*
X0634470Y0398043D01*
X0634305Y0398111D01*
X0634784Y0398770D01*
X0635170Y0399527D01*
X0635432Y0400335D01*
X0635565Y0401175D01*
X0635565Y0401600D01*
X0635565Y0402025D01*
X0635432Y0402865D01*
X0635170Y0403673D01*
X0634784Y0404430D01*
X0634305Y0405089D01*
X0634470Y0405157D01*
X0636608Y0407295D01*
X0637765Y0410088D01*
X0637765Y0413112D01*
X0636608Y0415905D01*
X0636965Y0415043D02*
X0636965Y0501212D01*
X0631965Y0501212D02*
X0631965Y0419081D01*
X0626965Y0419237D02*
X0626965Y0501212D01*
X0617293Y0491600D02*
X0737801Y0491600D01*
X0737801Y0486600D02*
X0614301Y0486600D01*
X0611965Y0484928D02*
X0611965Y0427000D01*
X0616965Y0427000D02*
X0616965Y0490377D01*
X0599630Y0486600D02*
X0569301Y0486600D01*
X0566965Y0484928D02*
X0566965Y0475850D01*
X0564111Y0471600D02*
X0556340Y0471600D01*
X0556765Y0466600D02*
X0563193Y0466600D01*
X0561965Y0465850D02*
X0561965Y0483696D01*
X0575738Y0476600D02*
X0578193Y0476600D01*
X0576965Y0475850D02*
X0576965Y0501210D01*
X0571965Y0501210D02*
X0571965Y0498413D01*
X0572451Y0496600D02*
X0596479Y0496600D01*
X0596965Y0498413D02*
X0596965Y0501211D01*
X0591965Y0501211D02*
X0591965Y0477495D01*
X0588193Y0476600D02*
X0585738Y0476600D01*
X0586965Y0475850D02*
X0586965Y0501211D01*
X0581965Y0501211D02*
X0581965Y0477495D01*
X0559111Y0461600D02*
X0556765Y0461600D01*
X0556765Y0456600D02*
X0559356Y0456600D01*
X0561965Y0452940D02*
X0561965Y0424237D01*
X0564602Y0421600D02*
X0599765Y0421600D01*
X0601783Y0426600D02*
X0559005Y0426600D01*
X0556765Y0436600D02*
X0737801Y0436600D01*
X0737801Y0441600D02*
X0556765Y0441600D01*
X0556765Y0446600D02*
X0737801Y0446600D01*
X0737801Y0451600D02*
X0599312Y0451600D01*
X0601965Y0452940D02*
X0601965Y0426782D01*
X0606965Y0428800D02*
X0606965Y0461471D01*
X0607276Y0461600D02*
X0737801Y0461600D01*
X0737801Y0456600D02*
X0604575Y0456600D01*
X0610065Y0466600D02*
X0737801Y0466600D01*
X0737801Y0471600D02*
X0610065Y0471600D01*
X0566965Y0451295D02*
X0566965Y0419237D01*
X0559328Y0411600D02*
X0551965Y0411600D01*
X0546965Y0411600D01*
X0546965Y0413671D01*
X0546965Y0409529D02*
X0549894Y0406600D01*
X0551965Y0406600D02*
X0554036Y0406600D01*
X0561165Y0406600D01*
X0561165Y0408112D02*
X0561165Y0405088D01*
X0562322Y0402295D01*
X0561965Y0403157D02*
X0561965Y0393000D01*
X0557914Y0391600D02*
X0554531Y0391600D01*
X0551965Y0391600D02*
X0551965Y0391600D01*
X0549399Y0391600D02*
X0538765Y0391600D01*
X0551965Y0396600D02*
X0551965Y0396600D01*
X0557315Y0396600D01*
X0551965Y0396600D01*
X0556965Y0396600D02*
X0556965Y0396600D01*
X0556965Y0399166D02*
X0556965Y0413963D01*
X0556965Y0413671D02*
X0555592Y0415044D01*
X0555738Y0415190D01*
X0561649Y0409280D01*
X0561165Y0408112D01*
X0556965Y0409529D02*
X0556965Y0411600D01*
X0556965Y0413671D01*
X0556965Y0411600D02*
X0551965Y0411600D01*
X0551965Y0411600D01*
X0551965Y0406600D01*
X0554036Y0406600D02*
X0556965Y0409529D01*
X0556965Y0411600D02*
X0551965Y0411600D01*
X0551965Y0411600D01*
X0566965Y0396600D02*
X0566965Y0396600D01*
X0576965Y0396600D02*
X0576965Y0396600D01*
X0580913Y0391600D02*
X0604399Y0391600D01*
X0606965Y0391600D02*
X0606965Y0391600D01*
X0609531Y0391600D02*
X0612914Y0391600D01*
X0611965Y0390651D02*
X0611965Y0394034D01*
X0611965Y0396600D02*
X0611965Y0396600D01*
X0611965Y0399166D02*
X0611965Y0416200D01*
X0611965Y0411600D02*
X0606965Y0411600D01*
X0606965Y0406600D01*
X0609036Y0406600D02*
X0611965Y0409529D01*
X0611965Y0411600D01*
X0616165Y0411600D02*
X0606965Y0411600D01*
X0606965Y0411600D01*
X0606965Y0396600D02*
X0606965Y0396600D01*
X0621965Y0401600D02*
X0621965Y0401600D01*
X0626965Y0401600D02*
X0635565Y0401600D01*
X0626965Y0401600D01*
X0626965Y0401600D01*
X0631965Y0401600D02*
X0631965Y0401600D01*
X0635913Y0406600D02*
X0644234Y0406600D01*
X0643510Y0411600D02*
X0637765Y0411600D01*
X0636965Y0408157D02*
X0636965Y0395043D01*
X0636608Y0395905D02*
X0637638Y0393419D01*
X0658476Y0383000D01*
X0677688Y0383000D01*
X0678838Y0384150D01*
X0680464Y0384150D01*
X0693340Y0397026D01*
X0693516Y0397098D01*
X0694460Y0398043D01*
X0694625Y0398111D01*
X0694147Y0398770D01*
X0693761Y0399527D01*
X0693498Y0400335D01*
X0693365Y0401175D01*
X0693365Y0401600D01*
X0701965Y0401600D01*
X0684531Y0401600D01*
X0684181Y0401950D02*
X0687315Y0398816D01*
X0687315Y0396600D01*
X0681965Y0396600D01*
X0681965Y0396600D01*
X0676615Y0396600D01*
X0676615Y0394384D01*
X0679749Y0391250D01*
X0681965Y0391250D01*
X0681965Y0396600D01*
X0676615Y0396600D01*
X0676615Y0398816D01*
X0679749Y0401950D01*
X0681965Y0401950D01*
X0681965Y0396600D01*
X0681965Y0396600D01*
X0681965Y0396600D01*
X0681965Y0411600D01*
X0664121Y0411600D01*
X0663397Y0406600D02*
X0679894Y0406600D01*
X0681965Y0406600D01*
X0681965Y0406600D01*
X0681965Y0411600D01*
X0681965Y0411600D01*
X0676965Y0411600D01*
X0676965Y0411600D01*
X0676965Y0409529D01*
X0676965Y0399166D01*
X0676965Y0396600D02*
X0676965Y0396600D01*
X0676965Y0394034D02*
X0676965Y0383000D01*
X0661965Y0383000D02*
X0661965Y0404191D01*
X0658811Y0401600D02*
X0679399Y0401600D01*
X0681965Y0401600D02*
X0681965Y0401600D01*
X0681965Y0401950D02*
X0681965Y0396600D01*
X0681965Y0391250D01*
X0684181Y0391250D01*
X0687315Y0394384D01*
X0687315Y0396600D01*
X0681965Y0396600D01*
X0692914Y0396600D01*
X0691965Y0395651D02*
X0691965Y0408157D01*
X0692322Y0407295D02*
X0691165Y0410088D01*
X0691165Y0413112D01*
X0691649Y0414280D01*
X0689728Y0416200D01*
X0686748Y0416200D01*
X0685592Y0415044D01*
X0686965Y0413671D01*
X0686965Y0411600D01*
X0681965Y0411600D01*
X0676965Y0411600D01*
X0676965Y0413671D01*
X0676965Y0409529D02*
X0679894Y0406600D01*
X0681965Y0406600D02*
X0684036Y0406600D01*
X0693017Y0406600D01*
X0692322Y0407295D02*
X0694460Y0405157D01*
X0694625Y0405089D01*
X0694147Y0404430D01*
X0693761Y0403673D01*
X0693498Y0402865D01*
X0693365Y0402025D01*
X0693365Y0401600D01*
X0701965Y0401600D01*
X0701965Y0401600D01*
X0737801Y0401600D01*
X0737801Y0396600D02*
X0710913Y0396600D01*
X0711965Y0395043D02*
X0711965Y0408157D01*
X0710913Y0406600D02*
X0737801Y0406600D01*
X0737801Y0411600D02*
X0712765Y0411600D01*
X0711965Y0415043D02*
X0711965Y0501215D01*
X0706965Y0501215D02*
X0706965Y0419081D01*
X0710913Y0416600D02*
X0737801Y0416600D01*
X0737801Y0421600D02*
X0699602Y0421600D01*
X0701965Y0419237D02*
X0701965Y0501214D01*
X0696965Y0501214D02*
X0696965Y0424237D01*
X0686965Y0416200D02*
X0686965Y0399166D01*
X0686965Y0396600D02*
X0686965Y0396600D01*
X0686965Y0394034D02*
X0686965Y0390651D01*
X0687914Y0391600D02*
X0684531Y0391600D01*
X0681965Y0391600D02*
X0681965Y0391600D01*
X0679399Y0391600D02*
X0641276Y0391600D01*
X0641965Y0391255D02*
X0641965Y0501213D01*
X0564618Y0451600D02*
X0556765Y0451600D01*
X0489328Y0421600D02*
X0478420Y0421600D01*
X0478420Y0431600D02*
X0479328Y0431600D01*
X0476965Y0433055D02*
X0476965Y0433963D01*
X0451965Y0426600D02*
X0451965Y0419700D01*
X0446965Y0418055D02*
X0446965Y0426600D01*
X0486965Y0486932D02*
X0486965Y0501208D01*
X0491965Y0501208D02*
X0491965Y0490203D01*
X0496479Y0496600D02*
X0472451Y0496600D01*
X0471965Y0498413D02*
X0471965Y0501207D01*
X0496965Y0501208D02*
X0496965Y0498413D01*
X0624602Y0421600D02*
X0674765Y0421600D01*
X0681965Y0411600D02*
X0681965Y0411600D01*
X0681965Y0411600D01*
X0681965Y0406600D01*
X0684036Y0406600D02*
X0686965Y0409529D01*
X0686965Y0411600D01*
X0681965Y0411600D01*
X0691165Y0411600D01*
X0684181Y0401950D02*
X0681965Y0401950D01*
X0681965Y0396600D02*
X0681965Y0396600D01*
X0696965Y0401600D02*
X0696965Y0401600D01*
X0701965Y0401600D02*
X0710565Y0401600D01*
X0701965Y0401600D01*
X0701965Y0401600D01*
X0706965Y0401600D02*
X0706965Y0401600D01*
X0712765Y0391600D02*
X0737801Y0391600D01*
X0675565Y0356600D02*
X0547765Y0356600D01*
X0546965Y0357400D02*
X0546965Y0370923D01*
X0551965Y0369050D02*
X0551965Y0348754D01*
X0554119Y0346600D02*
X0675565Y0346600D01*
X0675565Y0351600D02*
X0549119Y0351600D01*
X0596965Y0370200D02*
X0596965Y0303754D01*
X0599119Y0301600D02*
X0618865Y0301600D01*
X0620510Y0296600D02*
X0604119Y0296600D01*
X0601965Y0298754D02*
X0601965Y0370200D01*
X0606965Y0369050D02*
X0606965Y0293754D01*
X0609119Y0291600D02*
X0621765Y0291600D01*
X0626965Y0309700D02*
X0626965Y0384000D01*
X0651965Y0386255D02*
X0651965Y0400443D01*
X0656965Y0400791D02*
X0656965Y0383755D01*
X0556965Y0390651D02*
X0556965Y0394034D01*
X0491065Y0341600D02*
X0478843Y0341600D01*
X0477165Y0336600D02*
X0491065Y0336600D01*
X0491065Y0331600D02*
X0466765Y0331600D01*
X0466765Y0334800D02*
X0466765Y0295207D01*
X0466852Y0294902D01*
X0466765Y0294141D01*
X0466765Y0293376D01*
X0466644Y0293083D01*
X0466608Y0292768D01*
X0466236Y0292098D01*
X0465943Y0291391D01*
X0465719Y0291167D01*
X0465565Y0290889D01*
X0464965Y0290413D01*
X0464424Y0289872D01*
X0464131Y0289751D01*
X0466030Y0291600D02*
X0491065Y0291600D01*
X0491065Y0296600D02*
X0466765Y0296600D01*
X0466765Y0301600D02*
X0491065Y0301600D01*
X0491065Y0306600D02*
X0466765Y0306600D01*
X0466765Y0311600D02*
X0491065Y0311600D01*
X0491065Y0316600D02*
X0466765Y0316600D01*
X0466765Y0321600D02*
X0491065Y0321600D01*
X0491065Y0326600D02*
X0466765Y0326600D01*
X0436265Y0321114D02*
X0436265Y0302218D01*
X0425554Y0295200D01*
X0418192Y0295200D01*
X0398729Y0310072D01*
X0398224Y0310578D01*
X0397883Y0310719D01*
X0397590Y0310943D01*
X0396900Y0311126D01*
X0396239Y0311400D01*
X0396113Y0311400D01*
X0395913Y0311600D01*
X0408634Y0311600D01*
X0407836Y0312897D02*
X0409966Y0309436D01*
X0410212Y0308841D01*
X0410524Y0308530D01*
X0410754Y0308155D01*
X0411276Y0307778D01*
X0411731Y0307322D01*
X0412138Y0307154D01*
X0412495Y0306896D01*
X0412792Y0306825D01*
X0414460Y0305157D01*
X0414625Y0305089D01*
X0414147Y0304430D01*
X0413761Y0303673D01*
X0413498Y0302865D01*
X0413365Y0302025D01*
X0413365Y0301600D01*
X0413365Y0301175D01*
X0413498Y0300335D01*
X0413761Y0299527D01*
X0414147Y0298770D01*
X0414646Y0298082D01*
X0415247Y0297481D01*
X0415935Y0296982D01*
X0416692Y0296596D01*
X0417501Y0296333D01*
X0418340Y0296200D01*
X0421965Y0296200D01*
X0421965Y0301600D01*
X0409817Y0301600D01*
X0411965Y0299958D02*
X0411965Y0307225D01*
X0413017Y0306600D02*
X0403274Y0306600D01*
X0401965Y0307600D02*
X0401965Y0317100D01*
X0401612Y0317453D02*
X0406168Y0312897D01*
X0407836Y0312897D01*
X0406965Y0312897D02*
X0406965Y0303779D01*
X0413365Y0301600D02*
X0421965Y0301600D01*
X0421965Y0301600D01*
X0413365Y0301600D01*
X0416965Y0301600D02*
X0416965Y0301600D01*
X0421965Y0301600D02*
X0421965Y0301600D01*
X0421965Y0295200D01*
X0421965Y0296200D02*
X0425590Y0296200D01*
X0426430Y0296333D01*
X0427238Y0296596D01*
X0427995Y0296982D01*
X0428683Y0297481D01*
X0429284Y0298082D01*
X0429784Y0298770D01*
X0430170Y0299527D01*
X0430432Y0300335D01*
X0430565Y0301175D01*
X0430565Y0301600D01*
X0430565Y0302025D01*
X0430432Y0302865D01*
X0430170Y0303673D01*
X0429784Y0304430D01*
X0429305Y0305089D01*
X0429470Y0305157D01*
X0431608Y0307295D01*
X0432765Y0310088D01*
X0432765Y0313112D01*
X0431608Y0315905D01*
X0430913Y0316600D01*
X0436265Y0316600D01*
X0436265Y0321114D02*
X0413315Y0352005D01*
X0413315Y0343333D01*
X0413417Y0342699D01*
X0413315Y0342269D01*
X0413315Y0341826D01*
X0413070Y0341233D01*
X0412922Y0340609D01*
X0412663Y0340250D01*
X0412493Y0339841D01*
X0412040Y0339388D01*
X0409719Y0336175D01*
X0413800Y0336175D01*
X0415711Y0335383D01*
X0421894Y0329200D01*
X0426677Y0329200D01*
X0429470Y0328043D01*
X0431608Y0325905D01*
X0432765Y0323112D01*
X0432765Y0320088D01*
X0431608Y0317295D01*
X0430913Y0316600D01*
X0431965Y0315043D02*
X0431965Y0318157D01*
X0432765Y0321600D02*
X0435904Y0321600D01*
X0431965Y0325043D02*
X0431965Y0326902D01*
X0432189Y0326600D02*
X0430913Y0326600D01*
X0426965Y0329081D02*
X0426965Y0333632D01*
X0428475Y0331600D02*
X0419494Y0331600D01*
X0421965Y0329200D02*
X0421965Y0340362D01*
X0421045Y0341600D02*
X0413222Y0341600D01*
X0411965Y0339285D02*
X0411965Y0336175D01*
X0410026Y0336600D02*
X0424760Y0336600D01*
X0416965Y0334129D02*
X0416965Y0347092D01*
X0417331Y0346600D02*
X0413315Y0346600D01*
X0413315Y0351600D02*
X0413616Y0351600D01*
X0403491Y0325775D02*
X0385635Y0325775D01*
X0386898Y0324200D01*
X0391677Y0324200D01*
X0394470Y0323043D01*
X0396608Y0320905D01*
X0397765Y0318112D01*
X0397765Y0315088D01*
X0396608Y0312295D01*
X0395913Y0311600D01*
X0396965Y0311109D02*
X0396965Y0313157D01*
X0397765Y0316600D02*
X0402466Y0316600D01*
X0401612Y0317453D02*
X0401612Y0323897D01*
X0403491Y0325775D01*
X0401965Y0325775D02*
X0401965Y0324250D01*
X0401612Y0321600D02*
X0395913Y0321600D01*
X0396965Y0320043D02*
X0396965Y0325775D01*
X0391965Y0325775D02*
X0391965Y0324081D01*
X0386965Y0324200D02*
X0386965Y0325775D01*
X0376965Y0300200D02*
X0376965Y0286400D01*
X0371965Y0286400D02*
X0371965Y0299122D01*
X0366965Y0301500D02*
X0366965Y0286400D01*
X0361965Y0286400D02*
X0361965Y0291507D01*
X0362247Y0291600D02*
X0381684Y0291600D01*
X0381965Y0291507D02*
X0381965Y0286400D01*
X0381965Y0296600D02*
X0381965Y0296600D01*
X0365565Y0296600D02*
X0356965Y0296600D01*
X0356965Y0291200D01*
X0356965Y0291600D02*
X0356965Y0291600D01*
X0356965Y0296600D02*
X0356965Y0296600D01*
X0365565Y0296600D01*
X0361965Y0296600D02*
X0361965Y0296600D01*
X0351965Y0296600D02*
X0351965Y0296600D01*
X0351684Y0291600D02*
X0332247Y0291600D01*
X0331965Y0291507D02*
X0331965Y0286400D01*
X0336965Y0286400D02*
X0336965Y0301500D01*
X0340781Y0301600D02*
X0348017Y0301600D01*
X0346965Y0303157D02*
X0346965Y0286400D01*
X0341965Y0286400D02*
X0341965Y0302091D01*
X0335565Y0296600D02*
X0326965Y0296600D01*
X0326965Y0291200D01*
X0326965Y0291600D02*
X0326965Y0291600D01*
X0326965Y0296600D02*
X0326965Y0296600D01*
X0335565Y0296600D01*
X0331965Y0296600D02*
X0331965Y0296600D01*
X0321965Y0296600D02*
X0321965Y0296600D01*
X0321684Y0291600D02*
X0301247Y0291600D01*
X0301965Y0291966D02*
X0301965Y0286400D01*
X0296965Y0286400D02*
X0296965Y0291200D01*
X0295965Y0291600D02*
X0295965Y0291600D01*
X0295965Y0296600D02*
X0295965Y0296600D01*
X0304565Y0296600D01*
X0295965Y0296600D01*
X0296965Y0296600D02*
X0296965Y0296600D01*
X0291965Y0296600D02*
X0291965Y0296600D01*
X0301965Y0296600D02*
X0301965Y0296600D01*
X0304913Y0301600D02*
X0318017Y0301600D01*
X0316965Y0303157D02*
X0316965Y0286400D01*
X0311965Y0286400D02*
X0311965Y0338508D01*
X0313413Y0336600D02*
X0304573Y0336600D01*
X0303780Y0331600D02*
X0317205Y0331600D01*
X0316965Y0331916D02*
X0316965Y0320043D01*
X0317322Y0320905D02*
X0316165Y0318112D01*
X0316165Y0315088D01*
X0317322Y0312295D01*
X0318017Y0311600D01*
X0316965Y0310043D02*
X0316965Y0313157D01*
X0316165Y0316600D02*
X0306765Y0316600D01*
X0306765Y0318112D02*
X0305608Y0320905D01*
X0303470Y0323043D01*
X0302486Y0323451D01*
X0305461Y0342195D01*
X0305553Y0342233D01*
X0305965Y0342645D01*
X0306377Y0342233D01*
X0309354Y0341000D01*
X0310075Y0341000D01*
X0321565Y0325851D01*
X0321565Y0323915D01*
X0319460Y0323043D01*
X0317322Y0320905D01*
X0318017Y0321600D02*
X0304913Y0321600D01*
X0306765Y0318112D02*
X0306765Y0315088D01*
X0305608Y0312295D01*
X0304913Y0311600D01*
X0306765Y0306600D02*
X0316165Y0306600D01*
X0321965Y0291507D02*
X0321965Y0286400D01*
X0306965Y0286400D02*
X0306965Y0341989D01*
X0307905Y0341600D02*
X0305367Y0341600D01*
X0302986Y0326600D02*
X0320997Y0326600D01*
X0351965Y0291507D02*
X0351965Y0286400D01*
X0341965Y0276000D02*
X0341965Y0247400D01*
X0332665Y0245700D02*
X0341665Y0236700D01*
X0341965Y0236600D01*
X0341965Y0228975D01*
X0364715Y0211225D01*
X0379815Y0211225D01*
X0401965Y0228375D01*
X0401965Y0227950D01*
X0424940Y0211600D01*
X0440265Y0211600D01*
X0460935Y0228404D01*
X0461965Y0221702D02*
X0461965Y0150750D01*
X0456965Y0150750D02*
X0456965Y0217960D01*
X0455293Y0216600D02*
X0472620Y0216600D01*
X0471965Y0216914D02*
X0471965Y0150750D01*
X0466965Y0150750D02*
X0466965Y0219308D01*
X0462178Y0221600D02*
X0461443Y0221600D01*
X0451965Y0228329D02*
X0451965Y0238180D01*
X0453546Y0236600D02*
X0429602Y0236600D01*
X0431965Y0238963D02*
X0431965Y0217200D01*
X0426965Y0217200D02*
X0426965Y0227652D01*
X0425408Y0226600D02*
X0449838Y0226600D01*
X0446965Y0224264D02*
X0446965Y0244103D01*
X0446765Y0246600D02*
X0439602Y0246600D01*
X0436965Y0243963D02*
X0436965Y0217200D01*
X0441965Y0220199D02*
X0441965Y0249560D01*
X0442365Y0251600D02*
X0446288Y0251600D01*
X0448546Y0241600D02*
X0434602Y0241600D01*
X0426965Y0249237D02*
X0426965Y0256600D01*
X0421965Y0256600D02*
X0421965Y0258671D01*
X0414531Y0261600D02*
X0431665Y0261600D01*
X0411965Y0261600D02*
X0411965Y0261600D01*
X0409399Y0261600D02*
X0397643Y0261600D01*
X0392065Y0256500D02*
X0391965Y0256600D01*
X0392065Y0256500D02*
X0392065Y0246600D01*
X0401965Y0236700D01*
X0401965Y0236600D01*
X0401965Y0228375D01*
X0401965Y0221077D02*
X0401965Y0150750D01*
X0396965Y0150750D02*
X0396965Y0217421D01*
X0395904Y0216600D02*
X0408256Y0216600D01*
X0406965Y0217519D02*
X0406965Y0150750D01*
X0411965Y0150750D02*
X0411965Y0213960D01*
X0415282Y0211600D02*
X0389447Y0211600D01*
X0386965Y0209679D02*
X0386965Y0150750D01*
X0381965Y0150750D02*
X0381965Y0206007D01*
X0383110Y0206600D02*
X0422308Y0206600D01*
X0421965Y0206771D02*
X0421965Y0150750D01*
X0416965Y0150750D02*
X0416965Y0210402D01*
X0426965Y0206000D02*
X0426965Y0150750D01*
X0431965Y0150750D02*
X0431965Y0206000D01*
X0436965Y0206000D02*
X0436965Y0150750D01*
X0451965Y0150750D02*
X0451965Y0213895D01*
X0443688Y0221600D02*
X0420547Y0221600D01*
X0421965Y0220590D02*
X0421965Y0225800D01*
X0418522Y0226600D02*
X0413521Y0226600D01*
X0411965Y0227707D02*
X0411965Y0236600D01*
X0411965Y0245200D01*
X0411965Y0241600D02*
X0411965Y0241600D01*
X0411965Y0231600D02*
X0411965Y0231600D01*
X0416965Y0227652D02*
X0416965Y0224149D01*
X0429446Y0231600D02*
X0454485Y0231600D01*
X0476965Y0227652D02*
X0476965Y0226937D01*
X0477670Y0226600D02*
X0478522Y0226600D01*
X0481965Y0225800D02*
X0481965Y0224543D01*
X0476965Y0214520D02*
X0476965Y0150750D01*
X0531965Y0150750D02*
X0531965Y0195944D01*
X0643510Y0126600D02*
X0187349Y0126600D01*
X0181965Y0135029D02*
X0181965Y0210130D01*
X0136365Y0171600D02*
X0273905Y0171600D01*
X0264707Y0156600D02*
X0252632Y0156600D01*
X0251965Y0156876D02*
X0251965Y0210200D01*
X0256965Y0210184D02*
X0256965Y0116000D01*
X0251965Y0116000D02*
X0251965Y0135166D01*
X0254199Y0136600D02*
X0263140Y0136600D01*
X0261965Y0137775D02*
X0261965Y0116000D01*
X0266965Y0116000D02*
X0266965Y0134521D01*
X0260562Y0141600D02*
X0256777Y0141600D01*
X0321965Y0116000D02*
X0321965Y0172645D01*
X0325354Y0171000D02*
X0327728Y0171000D01*
X0366965Y0150750D02*
X0366965Y0205625D01*
X0371965Y0205625D02*
X0371965Y0150750D01*
X0376965Y0150750D02*
X0376965Y0205625D01*
X0376965Y0216825D02*
X0376965Y0243963D01*
X0374602Y0241600D02*
X0389146Y0241600D01*
X0386965Y0244279D02*
X0386965Y0223843D01*
X0384068Y0221600D02*
X0360521Y0221600D01*
X0361965Y0220473D02*
X0361965Y0225800D01*
X0358522Y0226600D02*
X0354113Y0226600D01*
X0356965Y0227652D02*
X0356965Y0224375D01*
X0365408Y0226600D02*
X0390526Y0226600D01*
X0391965Y0227715D02*
X0391965Y0238780D01*
X0394146Y0236600D02*
X0369602Y0236600D01*
X0371965Y0238963D02*
X0371965Y0216825D01*
X0366965Y0216825D02*
X0366965Y0227652D01*
X0369446Y0231600D02*
X0394485Y0231600D01*
X0386465Y0246600D02*
X0379602Y0246600D01*
X0381965Y0249560D02*
X0381965Y0219972D01*
X0391965Y0213550D02*
X0391965Y0150750D01*
X0356965Y0141763D02*
X0356965Y0116000D01*
X0286965Y0236600D02*
X0286965Y0236600D01*
X0286965Y0245200D01*
X0286540Y0245200D01*
X0285701Y0245067D01*
X0284892Y0244804D01*
X0284135Y0244418D01*
X0283477Y0243940D01*
X0283408Y0244105D01*
X0283365Y0244148D01*
X0283365Y0247873D01*
X0282391Y0250225D01*
X0281016Y0251600D02*
X0284399Y0251600D01*
X0286965Y0251600D02*
X0286965Y0251600D01*
X0286965Y0251250D02*
X0289181Y0251250D01*
X0292315Y0254384D01*
X0292315Y0256600D01*
X0292315Y0258816D01*
X0292315Y0256600D02*
X0286965Y0256600D01*
X0286965Y0236600D01*
X0286965Y0245200D01*
X0287390Y0245200D01*
X0288230Y0245067D01*
X0289038Y0244804D01*
X0289795Y0244418D01*
X0290454Y0243940D01*
X0290522Y0244105D01*
X0292660Y0246243D01*
X0295453Y0247400D01*
X0298477Y0247400D01*
X0299998Y0246770D01*
X0305806Y0252577D01*
X0305410Y0252973D01*
X0304036Y0251600D01*
X0304828Y0251600D01*
X0304036Y0251600D02*
X0301965Y0251600D01*
X0301965Y0251600D01*
X0301965Y0256600D01*
X0286965Y0256600D01*
X0286965Y0251250D01*
X0289531Y0251600D02*
X0299894Y0251600D01*
X0301965Y0251600D01*
X0301965Y0256600D01*
X0301965Y0256600D01*
X0296965Y0256600D01*
X0296965Y0256600D01*
X0296965Y0254529D01*
X0296965Y0247400D01*
X0293522Y0246600D02*
X0283365Y0246600D01*
X0286965Y0241600D02*
X0286965Y0241600D01*
X0291965Y0245548D02*
X0291965Y0254034D01*
X0291965Y0256600D02*
X0291965Y0256600D01*
X0292315Y0256600D02*
X0286965Y0256600D01*
X0286965Y0261950D01*
X0289531Y0261600D02*
X0306783Y0261600D01*
X0306965Y0261782D02*
X0306965Y0276000D01*
X0301965Y0276000D02*
X0301965Y0256600D01*
X0296965Y0256600D01*
X0296965Y0258671D01*
X0296965Y0254529D02*
X0299894Y0251600D01*
X0301965Y0248737D02*
X0301965Y0256600D01*
X0301965Y0261600D01*
X0301965Y0256600D01*
X0301965Y0256600D01*
X0301965Y0256600D01*
X0311965Y0263800D02*
X0311965Y0276000D01*
X0316965Y0276000D02*
X0316965Y0261782D01*
X0317148Y0261600D02*
X0326288Y0261600D01*
X0324415Y0256600D02*
X0319165Y0256600D01*
X0331965Y0256600D02*
X0333565Y0256500D01*
X0332665Y0256500D02*
X0331965Y0256600D01*
X0332665Y0256500D02*
X0332665Y0245700D01*
X0327065Y0246600D02*
X0315102Y0246600D01*
X0286965Y0256600D02*
X0286965Y0256600D01*
X0266965Y0264150D02*
X0266965Y0276000D01*
X0261965Y0276000D02*
X0261965Y0262277D01*
X0261288Y0261600D02*
X0257148Y0261600D01*
X0256965Y0261782D02*
X0256965Y0277795D01*
X0258515Y0276600D02*
X0204165Y0276600D01*
X0186965Y0271600D02*
X0184894Y0271600D01*
X0226965Y0256600D02*
X0226965Y0256600D01*
X0259165Y0256600D02*
X0259415Y0256600D01*
X0382365Y0251600D02*
X0386288Y0251600D01*
X0384415Y0256600D02*
X0384165Y0256600D01*
X0401965Y0286400D02*
X0401965Y0294008D01*
X0391965Y0296600D02*
X0391965Y0296600D01*
X0416360Y0296600D02*
X0416684Y0296600D01*
X0416965Y0296507D02*
X0416965Y0296138D01*
X0421965Y0296200D02*
X0421965Y0301600D01*
X0435322Y0301600D01*
X0431965Y0299401D02*
X0431965Y0308157D01*
X0430913Y0306600D02*
X0436265Y0306600D01*
X0436265Y0311600D02*
X0432765Y0311600D01*
X0430565Y0301600D02*
X0421965Y0301600D01*
X0421965Y0301600D01*
X0430565Y0301600D01*
X0426965Y0301600D02*
X0426965Y0301600D01*
X0427247Y0296600D02*
X0427691Y0296600D01*
X0426965Y0296507D02*
X0426965Y0296125D01*
X0421965Y0296600D02*
X0421965Y0296600D01*
X0646965Y0276600D02*
X0646965Y0276600D01*
X0656965Y0296600D02*
X0656965Y0296600D01*
X0656965Y0301600D02*
X0656965Y0301600D01*
X0662865Y0301600D01*
X0656965Y0301600D01*
X0651965Y0301600D02*
X0651965Y0301600D01*
X0656965Y0306600D02*
X0656965Y0306600D01*
X0661965Y0301600D02*
X0661965Y0301600D01*
X0681965Y0313822D02*
X0681965Y0256454D01*
X0681965Y0198822D02*
X0681965Y0185600D01*
X0724165Y0180000D02*
X0724957Y0179868D01*
D24*
X0670715Y0214100D02*
X0715715Y0259100D01*
X0724741Y0259100D01*
X0725036Y0259395D01*
X0725036Y0279080D02*
X0725016Y0279100D01*
X0711965Y0279100D01*
X0659465Y0226600D01*
X0656965Y0226600D01*
X0646965Y0226600D01*
X0636965Y0236600D01*
X0636965Y0246600D01*
X0626965Y0246600D02*
X0626965Y0226600D01*
X0626965Y0214100D01*
X0656965Y0214100D02*
X0670715Y0214100D01*
X0631265Y0265900D02*
X0636965Y0271600D01*
X0636965Y0276600D01*
X0636865Y0276300D01*
X0635065Y0276300D01*
X0626965Y0276600D02*
X0626965Y0301600D01*
X0616165Y0277200D02*
X0616965Y0276600D01*
X0616165Y0277200D02*
X0540565Y0352800D01*
X0449015Y0348300D02*
X0449015Y0293750D01*
X0431465Y0281200D01*
X0261065Y0281200D01*
X0217365Y0314900D01*
X0217365Y0371700D01*
X0179665Y0424400D01*
X0179665Y0439200D01*
X0179465Y0439395D01*
X0193965Y0450000D02*
X0226165Y0482200D01*
X0322115Y0482200D01*
X0345265Y0459050D01*
X0345265Y0408600D01*
X0377665Y0376200D01*
X0380365Y0376200D01*
X0386665Y0369900D01*
X0386965Y0369100D01*
X0372265Y0348300D02*
X0384590Y0330975D01*
X0412765Y0330975D01*
X0421965Y0321775D01*
X0421965Y0321600D01*
X0427165Y0356400D02*
X0449015Y0348300D01*
X0427165Y0356400D02*
X0426965Y0356895D01*
X0372265Y0348300D02*
X0347065Y0348300D01*
X0346965Y0349100D01*
X0343465Y0342000D02*
X0337165Y0348300D01*
X0343465Y0342000D02*
X0365965Y0342000D01*
X0386165Y0316800D01*
X0386965Y0316600D01*
X0356465Y0316800D02*
X0353765Y0316800D01*
X0327265Y0348300D01*
X0326965Y0349100D01*
X0311065Y0348300D02*
X0310965Y0349100D01*
X0311065Y0348300D02*
X0326765Y0327600D01*
X0326765Y0316800D01*
X0296165Y0316800D02*
X0301165Y0348300D01*
X0300965Y0349100D01*
X0262865Y0317700D02*
X0250365Y0324350D01*
X0250665Y0330300D01*
X0193965Y0450000D02*
X0149965Y0450000D01*
X0149386Y0449710D01*
X0540565Y0272700D02*
X0548615Y0265900D01*
X0631265Y0265900D01*
M02*
